<svg xmlns="http://www.w3.org/2000/svg" viewBox="0 0 1080 1080"><defs><style>.cls-1{fill:#ffcdab;}</style></defs><g id="Camada_1" data-name="Camada 1"><path class="cls-1" d="M81.33,180v29.83h37.08v9.06H68.89V136.21h48.67v9H81.33V171h30.19v9Z"/><path class="cls-1" d="M137.48,194.66c1.09,12.07,10.27,16.66,20.41,16.66,9.54,0,17.15-3.38,17.15-13.4,0-9.54-7.61-12.56-19.93-16.19-12.92-3.74-21.49-9.9-21.49-23.66,0-14.5,11.11-23.07,26.8-23.07,16.31,0,26.57,8.57,25.48,23.19h-6.52c-.6-9.18-8.09-14.13-17.38-14.13s-15.58,4.22-15.58,13c0,8.21,7.6,11.47,19.2,14.73,14.13,4,22.7,10.75,22.7,24.76,0,15.58-12.56,23.91-28.5,23.91-17.75,0-29-8.7-29-25.84Z"/><path class="cls-1" d="M223.21,219.29V145.51H196v-9.3h66.78v9.3H235.65v73.78Z"/><path class="cls-1" d="M274.29,136h13.28V179.2c0,18.47,4,30.67,20.41,30.67,15.7,0,19.2-11.83,19.2-30.19V136h9.66v44.8c0,22.58-7.24,39.73-30.19,39.73-26.32,0-32.36-17-32.36-39Z"/><path class="cls-1" d="M380.67,136c29.34,0,42.87,17.75,42.87,41.17,0,32.37-21,42.15-42.87,42.15H357.85V136ZM370.28,145v65.21h10.51c18.36,0,29.59-11.35,29.59-33.09,0-18.83-9.06-32.12-29.59-32.12Z"/><path class="cls-1" d="M474.37,135c19.08,0,37.2,12.92,37.2,41.66,0,27.05-14.26,43.84-37.2,43.84-20.53,0-37.68-13.65-37.68-42.75C436.69,151.3,452,135,474.37,135Zm1.33,11c-15,0-25.72,11.83-25.72,31.76,0,22.7,12.68,32.48,25.72,32.48,13.89,0,24.76-11.47,24.76-33.09C500.46,156.25,488.38,146,475.7,146Z"/><path class="cls-1" d="M530.52,194.66c1.08,12.07,10.26,16.66,20.41,16.66,9.54,0,17.14-3.38,17.14-13.4,0-9.54-7.6-12.56-19.92-16.19-12.92-3.74-21.5-9.9-21.5-23.66,0-14.5,11.11-23.07,26.81-23.07,16.3,0,26.57,8.57,25.48,23.19h-6.52c-.6-9.18-8.09-14.13-17.39-14.13s-15.58,4.22-15.58,13c0,8.21,7.61,11.47,19.2,14.73,14.13,4,22.71,10.75,22.71,24.76,0,15.58-12.56,23.91-28.5,23.91-17.75,0-29-8.7-29-25.84Z"/><path class="cls-1" d="M101,255.75c20.89,0,27.29,15.34,26.68,22.58h-6.4c-.6-2.9-5.43-11.83-18.59-11.83-14.49,0-25.36,11.47-25.36,32.6,0,22.1,11,32,24.75,32,14.49,0,20.53-9.66,21.14-14h5.91c0,8.09-6.64,24.15-29,24.15-20.41,0-36.11-13.29-36.11-42.15C64.06,271.21,80.61,255.75,101,255.75Z"/><path class="cls-1" d="M144.73,256.72H158V300c0,18.47,4,30.67,20.41,30.67,15.7,0,19.2-11.83,19.2-30.19V256.72h9.66v44.8c0,22.58-7.25,39.73-30.19,39.73-26.33,0-32.36-17-32.36-39Z"/><path class="cls-1" d="M240.72,256.72v73.66H278.4v9.3H228.28v-83Z"/><path class="cls-1" d="M297.84,340V266.26H270.66V257h66.78v9.3H310.27V340Z"/><path class="cls-1" d="M348.91,256.72h13.28V300c0,18.47,4,30.67,20.41,30.67,15.7,0,19.2-11.83,19.2-30.19V256.72h9.66v44.8c0,22.58-7.24,39.73-30.19,39.73-26.32,0-32.36-17-32.36-39Z"/><path class="cls-1" d="M484.64,340.89c-10.39,0-12.56-5.44-13.41-22.1-.6-11.35-4.83-15-14.61-15H445V340H432.59V256.72h26.93c16.42,0,28.5,6.52,28.5,21.49,0,13-8.82,19.2-20,21,9.9,1.21,16.3,6.53,16.67,19,.48,13.05,1,16.19,5.55,16.19a5.59,5.59,0,0,0,3-.85l1.09,2.54A11.28,11.28,0,0,1,484.64,340.89ZM445,265.77v29.35h11.35c9.3,0,19.32-3.63,19.32-14.61,0-10.39-7.85-14.74-18.36-14.74Z"/><path class="cls-1" d="M503.47,340l29.7-83.44H546.1l28,83.44H559.5l-7-22.34h-31L513.73,340Zm46.25-31.4-12.08-38.28-13.16,38.28Z"/><path class="cls-1" d="M602.24,256.72V340H589.81V256.72Z"/><path class="cls-1" d="M626.63,315.41c1.09,12.07,10.27,16.66,20.41,16.66,9.54,0,17.15-3.38,17.15-13.4,0-9.54-7.61-12.56-19.93-16.19-12.92-3.74-21.49-9.9-21.49-23.66,0-14.5,11.11-23.07,26.81-23.07,16.3,0,26.56,8.57,25.48,23.19h-6.52c-.61-9.18-8.09-14.13-17.39-14.13s-15.58,4.22-15.58,13c0,8.21,7.61,11.47,19.2,14.73,14.13,4,22.7,10.75,22.7,24.76,0,15.58-12.56,23.91-28.5,23.91-17.75,0-29-8.7-29-25.84Z"/><path class="cls-1" d="M755.05,256.72c29.35,0,42.87,17.75,42.87,41.17,0,32.37-21,42.15-42.87,42.15H732.23V256.72Zm-10.38,9V331h10.5c18.36,0,29.59-11.35,29.59-33.09,0-18.83-9.06-32.12-29.59-32.12Z"/><path class="cls-1" d="M848.87,255.75c19.09,0,37.2,12.92,37.2,41.66,0,27-14.25,43.84-37.2,43.84-20.53,0-37.67-13.65-37.67-42.75C811.2,272.05,826.53,255.75,848.87,255.75Zm1.33,11c-15,0-25.72,11.83-25.72,31.76,0,22.7,12.68,32.48,25.72,32.48,13.89,0,24.76-11.47,24.76-33.09C875,277,862.88,266.74,850.2,266.74Z"/><path class="cls-1" d="M106,377.47c27.05,0,34.29,15.69,34.29,30.07,0,25.36-22.34,53.25-56.39,53.25H64.67V446.54c0-24.15,14.73-50.23,21.73-69.07Zm-25.48,77c20,0,30.79-5.8,38.52-27.89,6.16-17.64,7.61-19.08,7.61-26.33,0-8-4.83-16.67-19.93-16.67H93.29a295.62,295.62,0,0,1-10.27,42l-9.29,28.86Z"/><path class="cls-1" d="M189.65,462c-8.58,0-25.48-3.14-34.18-4.11a68.88,68.88,0,0,1-1.57-15.46c0-23.91,17.63-46.12,23.55-65l31.88,1.69c6.52.36,9.42-.61,10.87-2.54h1.33c0,9.9-4.23,12.56-11,12.56-9.42,0-22.46-4-29.11-5.44-.84,7.85-3.26,19.09-6.16,29.59h28.62L202.08,420H173.34l-10.62,31.88h23.91c8.81,0,15.33-1.32,16.78-5.07h2.3C204.74,455.6,199.55,462,189.65,462Z"/><path class="cls-1" d="M229.73,432.78c-1.45,12.19,0,22.82,15.58,22.82,14.37,0,19.32-8,19.32-16.18,0-9.18-6.64-11.35-15.46-15.58-9.29-4.47-15-8.21-15-21.13,0-13.17,11.35-26.45,32-26.45,13.28,0,20.41,6.76,20.41,16.18a17.82,17.82,0,0,1-2.17,8.58H279c1.45-7.61,2.3-18.36-13.52-18.36-15.1,0-19.21,8.21-19.21,15.22,0,9.17,5.2,11.1,13.77,14,9.66,3.38,18.12,7.37,18.12,21.5,0,13.4-10.63,28.62-33.09,28.62-17.75,0-23.07-9.9-23.07-19a19.29,19.29,0,0,1,2.78-10.26Z"/><path class="cls-1" d="M305,460.79h-3.87a65.21,65.21,0,0,1-2.29-18.36c0-24.39,16.91-43.23,24.15-65h4.23c0,4.71-2.18,23.55-10.15,47.33Z"/><path class="cls-1" d="M390.45,453.55c-4.1,0-9.06,8.45-24.51,8.45-22.22,0-28-12.44-28-27.05,0-27.29,22.34-58.69,51.33-58.69,14.48,0,20.76,7.36,20.76,16.18,0,6.88-4.58,11.47-10,11.47a10.08,10.08,0,0,1-4.95-1.08v-2.78c3.5-1,7.13-2.17,7.13-8.09,0-6.4-6-9.3-12.92-9.3-10.15,0-14.86,3.74-18.24,8.33-4.11,5.56-5.8,13.65-10.75,26-7.12,17.76-11.35,18.12-11.35,26.33,0,9.18,7.85,12.08,18.11,12.08,16.07,0,22.59-11.11,22.59-21.74,0-2.41-.49-4.23-1.93-5.55s-3.87-1.82-8-1.82v-4.83h23.79c-1.45,7-6.15,22.34-11.1,32.37A8.54,8.54,0,0,0,390.45,453.55Z"/><path class="cls-1" d="M466.16,460.91c-1.45-10.5-17.39-39.37-21.13-63.88l-19.81,63.76h-2.41a50.74,50.74,0,0,1-2.54-15.34c0-21.13,17.15-40.45,26.57-68h3c4.95,18.23,17,42.14,22.22,65.33l20.17-65.33h2.29a40.57,40.57,0,0,1,3.14,16.06c0,16.54-14.86,36.47-28.62,67.38Z"/><path class="cls-1" d="M510,447.26a7.29,7.29,0,0,1,7.24,7.37c0,4.23-2.89,7.49-7.24,7.49a7.29,7.29,0,0,1-7.61-7.61A7.21,7.21,0,0,1,510,447.26Zm9.78-42.38a7.29,7.29,0,0,1,7.25,7.36c0,4.23-2.9,7.49-7.25,7.49a7.29,7.29,0,0,1-7.61-7.61A7.2,7.2,0,0,1,519.77,404.88Z"/><path class="cls-1" d="M61,581.54,90.75,498.1h12.92l28,83.44H117.08l-7-22.34H79l-7.73,22.34Zm46.26-31.4L95.22,511.86,82.06,550.14Z"/><path class="cls-1" d="M190,498.22v35.14h38.28V498.22h12.44v83.32H228.29V542.41H190v39.13H177.57V498.22Z"/><path class="cls-1" d="M272.48,498.22v83.32H260V498.22Z"/><path class="cls-1" d="M293.73,556.91c1.09,12.07,10.26,16.66,20.41,16.66,9.54,0,17.15-3.38,17.15-13.4,0-9.54-7.61-12.56-19.93-16.19-12.92-3.74-21.49-9.9-21.49-23.66,0-14.5,11.1-23.07,26.8-23.07,16.31,0,26.57,8.57,25.48,23.19h-6.52c-.6-9.18-8.09-14.13-17.38-14.13s-15.58,4.22-15.58,13c0,8.21,7.6,11.47,19.2,14.73,14.12,4,22.7,10.75,22.7,24.76,0,15.58-12.56,23.91-28.5,23.91-17.75,0-29-8.7-29-25.84Z"/><path class="cls-1" d="M376.56,581.54V507.76H349.39v-9.3h66.78v9.3H389v73.78Z"/><path class="cls-1" d="M455.17,497.25c19.08,0,37.2,12.92,37.2,41.66,0,27.05-14.25,43.84-37.2,43.84-20.53,0-37.67-13.65-37.67-42.75C417.5,513.55,432.83,497.25,455.17,497.25Zm1.33,11c-15,0-25.72,11.83-25.72,31.76,0,22.7,12.68,32.48,25.72,32.48,13.89,0,24.76-11.47,24.76-33.09C481.26,518.5,469.18,508.24,456.5,508.24Z"/><path class="cls-1" d="M559.75,582.39c-10.39,0-12.57-5.44-13.41-22.1-.6-11.35-4.83-15-14.61-15h-11.6v36.23H507.7V498.22h26.93c16.42,0,28.5,6.52,28.5,21.49,0,13-8.82,19.2-20,21,9.9,1.21,16.3,6.53,16.67,19,.48,13.05,1,16.19,5.55,16.19a5.62,5.62,0,0,0,3-.85l1.09,2.54A11.26,11.26,0,0,1,559.75,582.39Zm-39.62-75.12v29.35h11.36c9.29,0,19.32-3.63,19.32-14.61,0-10.39-7.85-14.74-18.36-14.74Z"/><path class="cls-1" d="M594.15,498.22v83.32H581.72V498.22Z"/><path class="cls-1" d="M646.2,497.25c20.89,0,27.29,15.34,26.68,22.58h-6.39c-.61-2.9-5.44-11.83-18.6-11.83-14.49,0-25.36,11.47-25.36,32.6,0,22.1,11,32,24.75,32,14.5,0,20.53-9.66,21.14-14h5.91c0,8.09-6.64,24.15-29,24.15-20.41,0-36.11-13.29-36.11-42.15C609.24,512.71,625.79,497.25,646.2,497.25Z"/><path class="cls-1" d="M700.29,498.22v83.32H687.86V498.22Z"/><path class="cls-1" d="M742.19,498.22c29.35,0,42.87,17.75,42.87,41.17,0,32.37-21,42.15-42.87,42.15H719.37V498.22Zm-10.38,9v65.21h10.5c18.36,0,29.59-11.35,29.59-33.09,0-18.83-9.06-32.12-29.59-32.12Z"/><path class="cls-1" d="M789.16,581.54l29.71-83.44h12.92l28,83.44H845.2l-7-22.34h-31l-7.73,22.34Zm46.25-31.4-12.07-38.28-13.16,38.28Z"/><path class="cls-1" d="M894.82,498.22c29.35,0,42.87,17.75,42.87,41.17,0,32.37-21,42.15-42.87,42.15H872V498.22Zm-10.38,9v65.21h10.5c18.36,0,29.59-11.35,29.59-33.09,0-18.83-9.06-32.12-29.59-32.12Z"/><path class="cls-1" d="M965.22,542.29v29.83h37.07v9.06H952.78V498.46h48.66v9.05H965.22v25.73h30.19v9Z"/><path class="cls-1" d="M91.72,619c29.34,0,42.87,17.75,42.87,41.17,0,32.37-21,42.15-42.87,42.15H68.89V619Zm-10.39,9v65.21H91.84c18.36,0,29.58-11.35,29.58-33.09,0-18.83-9-32.12-29.58-32.12Z"/><path class="cls-1" d="M183.37,618c19.08,0,37.19,12.92,37.19,41.66,0,27.05-14.25,43.84-37.19,43.84-20.53,0-37.68-13.65-37.68-42.75C145.69,634.3,161,618,183.37,618Zm1.32,11c-15,0-25.72,11.83-25.72,31.76,0,22.7,12.68,32.48,25.72,32.48,13.89,0,24.76-11.47,24.76-33.09C209.45,639.25,197.37,629,184.69,629Z"/><path class="cls-1" d="M293.25,619c29.34,0,42.87,17.75,42.87,41.17,0,32.37-21,42.15-42.87,42.15H270.43V619Zm-10.39,9v65.21h10.51c18.36,0,29.59-11.35,29.59-33.09,0-18.83-9.06-32.12-29.59-32.12Z"/><path class="cls-1" d="M363.89,663v29.83H401v9.06H351.45V619.21h48.66v9H363.89V654h30.19v9Z"/><path class="cls-1" d="M417,677.66c1.08,12.07,10.26,16.66,20.4,16.66,9.54,0,17.15-3.38,17.15-13.4,0-9.54-7.61-12.56-19.92-16.19-12.93-3.74-21.5-9.9-21.5-23.66,0-14.5,11.11-23.07,26.81-23.07,16.3,0,26.57,8.57,25.48,23.19h-6.52c-.61-9.18-8.09-14.13-17.39-14.13S426,631.28,426,640.1c0,8.21,7.61,11.47,19.2,14.73,14.13,4,22.71,10.75,22.71,24.76,0,15.58-12.56,23.91-28.5,23.91-17.76,0-29-8.7-29-25.84Z"/><path class="cls-1" d="M496.11,619v83.32H483.67V619Z"/><path class="cls-1" d="M550,618c21.26,0,28,15,27.29,22.58h-6.4c-.6-2.9-5.79-11.83-19.44-11.83-14.37,0-26.33,11.11-26.33,33,0,20.77,10.27,32.12,25.73,32.12,11.83,0,15.94-5.56,17.39-8.09V669.93h-14v-9.06h25.24v26.57c-4,6.76-11.84,16.06-29.59,16.06-22.94,0-38-14.61-38-42.51C511.8,632.61,529.79,618,550,618Z"/><path class="cls-1" d="M658.4,702.9h-10l-42.51-64.13v63.52h-9.78V619h12.2l40.22,61.22V619h9.9Z"/><path class="cls-1" d="M724.2,663v29.83h37.08v9.06H711.77V619.21h48.66v9H724.2V654h30.19v9Z"/><path class="cls-1" d="M272.26,739.72c29.34,0,42.87,17.75,42.87,41.17,0,32.37-21,42.15-42.87,42.15H249.43V739.72Zm-10.39,9V814h10.51c18.36,0,29.58-11.35,29.58-33.09,0-18.83-9-32.12-29.58-32.12Z"/><path class="cls-1" d="M319.23,823l29.7-83.44h12.92l28,83.44H375.26l-7-22.34h-31L329.49,823Zm46.25-31.4L353.4,753.36l-13.16,38.28Z"/><path class="cls-1" d="M449.14,739.72V823H436.7V739.72Z"/><path class="cls-1" d="M531.37,823.65h-10l-42.51-64.13V823h-9.78V739.72h12.19l40.22,61.22V739.72h9.9Z"/><path class="cls-1" d="M574,739.72c29.35,0,42.87,17.75,42.87,41.17,0,32.37-21,42.15-42.87,42.15H551.17V739.72Zm-10.38,9V814h10.5c18.36,0,29.59-11.35,29.59-33.09,0-18.83-9.06-32.12-29.59-32.12Z"/><path class="cls-1" d="M631.1,739.72h13.29V783c0,18.48,4,30.67,20.41,30.67,15.7,0,19.2-11.83,19.2-30.19V739.72h9.66v44.8c0,22.58-7.25,39.73-30.19,39.73-26.33,0-32.37-17-32.37-39Zm43.36-22.34,6.52,8.09-23.31,9.42-3.14-3.26Z"/><path class="cls-1" d="M713.82,798.41c1.08,12.07,10.26,16.66,20.41,16.66,9.53,0,17.14-3.38,17.14-13.4,0-9.54-7.61-12.56-19.92-16.19-12.93-3.74-21.5-9.9-21.5-23.66,0-14.5,11.11-23.07,26.81-23.07,16.3,0,26.57,8.57,25.48,23.19h-6.52c-.6-9.18-8.09-14.13-17.39-14.13s-15.58,4.22-15.58,13c0,8.21,7.61,11.47,19.2,14.73,14.13,4,22.71,10.75,22.71,24.76,0,15.58-12.56,23.91-28.5,23.91-17.76,0-29-8.7-29-25.84Z"/><path class="cls-1" d="M798.59,823V749.26H771.41V740h66.78v9.3H811V823Z"/><path class="cls-1" d="M901.47,823.89c-10.39,0-12.56-5.44-13.41-22.1-.6-11.35-4.83-15-14.61-15H861.86V823H849.42V739.72h26.93c16.42,0,28.5,6.52,28.5,21.49,0,13-8.82,19.2-20.05,21,9.9,1.21,16.3,6.53,16.67,19,.48,13.05,1,16.19,5.55,16.19a5.62,5.62,0,0,0,3-.85l1.09,2.54A11.26,11.26,0,0,1,901.47,823.89Zm-39.61-75.12v29.35h11.35c9.29,0,19.32-3.62,19.32-14.61,0-10.39-7.85-14.74-18.36-14.74Z"/><path class="cls-1" d="M936.11,739.72V823H923.68V739.72Z"/><path class="cls-1" d="M948.31,823,978,739.6h12.92L1019,823h-14.62l-7-22.34h-31L958.58,823Zm46.25-31.4-12.07-38.28-13.17,38.28Z"/><path class="cls-1" d="M64.67,929.06c0-26,15.58-49,22.1-68.59,3,0,15.94-.61,21.86-.61,15.93,0,25.84,6.28,25.84,18.12,0,15.57-16.06,21.37-31,22.46,13.77,1.08,21.25,7.61,21.25,18,0,16.67-16.66,26-36.59,26-6.39,0-14.24-.61-22.82-.61C64.91,938.12,64.67,933.77,64.67,929.06Zm19.8-25.84-11.23,34a92.67,92.67,0,0,0,12,1c15.82,0,19.68-4.59,22.82-14.5,1.69-5.43,3.38-8,3.38-11.35,0-6-5.19-9.17-18.84-9.17Zm8.58-36.47c-1.7,9.54-3.26,16.3-6.77,29.82h7.61c12.56,0,19.32-1.69,23.07-10.5,2.53-6,4.1-8,4.1-11.72,0-5.79-4.34-8.45-16.42-8.45A77.4,77.4,0,0,0,93.05,866.75Z"/><path class="cls-1" d="M183.61,932.2c0-7.37,4.47-12.08,4.47-18.6,0-7-4.47-10.38-13.89-10.38h-9.54l-13.52,40.57h-4a65.5,65.5,0,0,1-2.29-18.35c0-24.52,16.06-44.44,22.46-65,3.86,0,15-.61,20.89-.61,15.82,0,26.2,6.4,26.2,18.12,0,15.45-14.85,21.37-31.76,22.7,14.74,1.57,19.57,7.25,19.57,15.46,0,8.81-9.18,14.73-9.18,20.16,0,2.42,1.69,3.87,5.43,4.35l-1,3.14C188.32,943.79,183.61,939.57,183.61,932.2Zm-17.27-35.39h7.37c14,0,19.8-1.93,23.55-10.38,2.77-6.16,4-8.21,4-11.47,0-5.2-3.26-8.94-15.82-8.94a101.92,101.92,0,0,0-12.19.85C171.9,874.72,169,886.19,166.34,896.81Z"/><path class="cls-1" d="M226.11,943.79c-3.5-4.22-6.64-9.42-6.64-15.46,0-14.49,12.56-28.5,28.13-43.23L274.29,860h5.56a51.41,51.41,0,0,1,5.79,24.52c0,18.23-11.23,38.16-17.51,59.29H263.3c0-8.94,1.81-20.41,3.38-29.46H236.37c-3.5,8.33-5.19,17.63-5.91,29.46Zm13.16-35.38h28.38l6.64-39.49-18.35,18.6C248.57,894.88,243.14,901.52,239.27,908.41Z"/><path class="cls-1" d="M304.11,915.78c-1.45,12.19,0,22.82,15.58,22.82,14.37,0,19.32-8,19.32-16.18,0-9.18-6.64-11.35-15.46-15.58-9.29-4.47-15-8.21-15-21.13,0-13.17,11.35-26.45,32-26.45,13.28,0,20.41,6.76,20.41,16.18a17.82,17.82,0,0,1-2.17,8.58h-5.44c1.45-7.61,2.3-18.36-13.52-18.36-15.1,0-19.2,8.21-19.2,15.22,0,9.17,5.19,11.11,13.76,14,9.66,3.38,18.12,7.37,18.12,21.5,0,13.4-10.63,28.62-33.09,28.62-17.75,0-23.07-9.9-23.07-19a19.32,19.32,0,0,1,2.78-10.26Z"/><path class="cls-1" d="M379.34,943.79h-3.87a65.18,65.18,0,0,1-2.29-18.35c0-24.4,16.91-43.24,24.15-65h4.23c0,4.71-2.18,23.55-10.15,47.33Z"/><path class="cls-1" d="M412.54,925.44c0-23.92,18.24-46.13,24.16-65h4c0,8.69-4.47,30.55-9.66,46l-9.54,28.25h22.1c8.81,0,15.33-1.81,16.78-5.55h2.3c-1,8.81-6,15.82-15.94,15.82-8.58,0-23.19-3.5-32.61-4.11A69.44,69.44,0,0,1,412.54,925.44Z"/><path class="cls-1" d="M513.85,945c-8.57,0-25.48-3.14-34.17-4.11a68.85,68.85,0,0,1-1.57-15.45c0-23.92,17.63-46.13,23.55-65l31.88,1.69c6.52.36,9.42-.61,10.87-2.54h1.33c0,9.9-4.23,12.56-11,12.56-9.42,0-22.46-4-29.11-5.43-.84,7.84-3.26,19.08-6.16,29.58H528.1L526.29,903H497.55l-10.63,31.88h23.92c8.81,0,15.33-1.32,16.78-5.07h2.29C529,938.6,523.76,945,513.85,945Z"/><path class="cls-1" d="M555.15,943.79h-3.87A65.18,65.18,0,0,1,549,925.44c0-24.4,16.9-43.24,24.15-65h4.23c0,4.71-2.17,23.55-10.15,47.33Z"/><path class="cls-1" d="M627,932.2c0-7.37,4.47-12.08,4.47-18.6,0-7-4.47-10.38-13.89-10.38H608l-13.53,40.57h-4a65.45,65.45,0,0,1-2.3-18.35c0-24.52,16.06-44.44,22.46-65,3.87,0,15-.61,20.9-.61,15.81,0,26.2,6.4,26.2,18.12,0,15.45-14.85,21.37-31.76,22.7,14.73,1.57,19.56,7.25,19.56,15.46,0,8.81-9.17,14.73-9.17,20.16,0,2.42,1.69,3.87,5.43,4.35l-1,3.14C631.71,943.79,627,939.57,627,932.2Zm-17.27-35.39h7.36c14,0,19.81-1.93,23.55-10.38,2.78-6.16,4-8.21,4-11.47,0-5.2-3.26-8.94-15.82-8.94a102.08,102.08,0,0,0-12.2.85C615.28,874.72,612.38,886.19,609.73,896.81Z"/><path class="cls-1" d="M669.49,943.79c-3.5-4.22-6.64-9.42-6.64-15.46,0-14.49,12.56-28.5,28.14-43.23L717.68,860h5.55A51.3,51.3,0,0,1,729,884.5c0,18.23-11.23,38.16-17.51,59.29h-4.83c0-8.94,1.81-20.41,3.38-29.46H679.76c-3.5,8.33-5.19,17.63-5.92,29.46Zm13.17-35.38H711l6.64-39.49-18.36,18.6C692,894.88,686.52,901.52,682.66,908.41Z"/></g></svg>