<?xml version="1.0" encoding="UTF-8"?>
<svg id="Layer_1" xmlns="http://www.w3.org/2000/svg" version="1.1" viewBox="0 0 223.75 621.33">
  <!-- Generator: Adobe Illustrator 29.8.4, SVG Export Plug-In . SVG Version: 2.1.1 Build 6)  -->
  <defs>
    <style>
      .st0 {
        fill: #fff;
      }
    </style>
  </defs>
  <path class="st0" d="M174.64,618.33h46.11V1.67h-46.11v46.68h-36.89v44.9h36.89v525.07ZM49.36,57.65h23.82v505.48h-23.82V57.65ZM61.66,608.02c13.32,0,24.21-2.45,32.66-7.35,8.45-4.9,14.72-12.25,18.83-22.06,4.1-9.8,6.15-22.45,6.15-37.93V80.09c0-22.18-4.88-38.96-14.6-50.32-9.74-11.35-24.09-17.03-43.04-17.03s-33.43,5.68-43.42,17.03c-9.99,11.36-14.99,28.13-14.99,50.32v460.58c0,23.22,4.73,40.25,14.22,51.09,9.47,10.84,24.21,16.26,44.19,16.26"/>
</svg>