<?xml version="1.0" encoding="UTF-8"?>
<svg id="Layer_1" xmlns="http://www.w3.org/2000/svg" version="1.1" viewBox="0 0 372 540">
  <!-- Generator: Adobe Illustrator 29.8.4, SVG Export Plug-In . SVG Version: 2.1.1 Build 6)  -->
  <defs>
    <style>
      .st0 {
        fill: #8197cc;
      }

      .st1 {
        fill: #fff;
      }
    </style>
  </defs>
  <g>
    <path class="st0" d="M194.12,363.51h11.66v-9.14h-11.66v9.14ZM187.66,396.44h9.45l.95-90.27v-19.69h3.78v19.54l1.1,90.43h9.45l-3.31-119.73h-18.28l-3.15,119.73ZM172.54,396.44h9.45v-119.73h-9.45v119.73ZM151.43,285.84h4.88v46.16h-4.88v-46.16ZM141.98,396.44h9.45v-55.3h4.88v55.3h9.45v-48.37c0-3.25-.66-5.77-1.97-7.56-1.32-1.78-3.28-2.68-5.91-2.68v-2.36c2.62,0,4.59-.76,5.91-2.28,1.31-1.52,1.97-3.49,1.97-5.91v-40.33c0-3.36-.84-5.91-2.52-7.64-1.68-1.73-4.15-2.6-7.4-2.6h-13.86v119.73ZM120.86,285.21h4.88v102.88h-4.88v-102.88ZM123.39,397.23c2.73,0,4.96-.5,6.7-1.5,1.73-1,3.02-2.49,3.86-4.49.84-1.99,1.26-4.57,1.26-7.72v-93.74c0-4.51-1-7.93-2.99-10.24-2-2.31-4.94-3.47-8.82-3.47s-6.85,1.16-8.9,3.47c-2.05,2.31-3.07,5.73-3.07,10.24v93.74c0,4.73.97,8.19,2.91,10.4,1.94,2.21,4.96,3.31,9.06,3.31M89.83,396.44h16.7v-9.14h-7.25v-46.79h7.25v-9.14h-7.25v-45.53h7.25v-9.14h-16.7v119.73ZM69.51,396.44h9.45v-110.6h5.99v-9.14h-21.43v9.14h5.99v110.6ZM48.4,396.44h16.7l-3.31-9.14h-7.25l-17.02-46.79h7.25l-3.31-9.14h-7.25l-16.54-45.53h7.25l-3.31-9.14H4.92l43.48,119.73Z"/>
    <path class="st0" d="M198.53,228.17h11.66l3.31-9.14h-11.66l-3.31,9.14ZM180.1,261.1h9.45l33.71-90.27,7.25-19.69h3.78l-7.09,19.54-31.83,90.43h9.45l40.17-119.73h-18.28l-46.63,119.73ZM165.13,261.1h9.45l43.48-119.73h-9.45l-43.48,119.73ZM167.18,196.66l16.7-46.16h4.88l-16.7,46.16h-4.88ZM134.25,261.1h9.45l20.17-55.3h4.88l-20.17,55.3h9.45l18.12-49.31c1.05-2.62,1.18-4.83.39-6.62-.79-1.78-2.71-2.68-5.75-2.68l.95-2.36c3.15,0,5.54-.45,7.17-1.34,1.63-.89,2.97-2.76,4.02-5.59l14.65-40.96c1.15-2.94,1.21-5.49.16-7.64-1.05-2.15-3.31-3.23-6.77-3.23h-13.23l-43.48,119.73ZM158.67,138.84l11.19-4.41-2.52-5.2-10.08,6.46,1.42,3.15ZM115.98,252.75l37.5-102.88h4.88l-37.5,102.88h-4.88ZM115.67,261.89c2.52,0,4.59-.18,6.22-.55,1.63-.37,3.23-1.36,4.8-2.99,1.58-1.63,3.05-4.23,4.41-7.8l35.29-97.2c1.58-4.2,1.71-7.35.39-9.45-1.31-2.1-4.23-3.15-8.74-3.15-3.57,0-6.62.95-9.14,2.84-2.52,1.89-4.36,4.52-5.51,7.88l-35.6,97.99c-1.26,3.47-1.23,6.41.08,8.82,1.32,2.42,3.91,3.62,7.8,3.62M85.89,261.1h9.45l40.17-110.6h5.99l3.31-9.14h-21.43l-3.31,9.14h5.99l-40.17,110.6ZM66.2,261.89c3.26,0,5.93-.74,8.04-2.21,2.1-1.47,3.7-3.23,4.8-5.28,1.1-2.05,2.23-4.65,3.39-7.8l9.45-25.99c.63-1.68,1.08-3.28,1.34-4.8.26-1.52.39-3.02.39-4.49,0-1.68-.21-3.52-.63-5.51-.42-1.99-.89-3.89-1.42-5.67-1.26-4.41-1.89-7.72-1.89-9.92,0-1.89.42-4.04,1.26-6.46l12.45-34.03h4.88l-14.02,38.6h9.45l12.6-35.13c1.57-4.2,1.71-7.35.39-9.45-1.31-2.1-4.23-3.15-8.74-3.15-3.57,0-6.62.95-9.14,2.84-2.52,1.89-4.36,4.52-5.51,7.88l-10.87,29.78c-.63,1.79-1.08,3.49-1.34,5.12-.26,1.63-.39,3.13-.39,4.49,0,1.68.18,3.49.55,5.44.37,1.94.76,3.81,1.18,5.59,1.16,4.2,1.73,7.56,1.73,10.08,0,2.84-.58,5.78-1.73,8.82l-11.66,32.14h-4.88l12.92-35.45h-9.45l-10.24,28.04c-1.78,4.94-2.26,8.93-1.42,11.97.84,3.05,3.68,4.57,8.51,4.57M36.74,261.1h9.45l43.48-119.73h-9.45l-43.48,119.73ZM4.92,261.1h9.45l20.17-55.3h4.88l-20.16,55.3h9.45l43.48-119.73h-9.45l-20.01,55.3h-4.88l20.01-55.3h-9.45L4.92,261.1Z"/>
    <path class="st1" d="M236.27,531.78h9.3l32.77-94.21,4.57-14.81h1.73l-4.1,14.81-27.73,94.21h15.91l43.48-119.73h-9.14l-33.24,93.9-5.2,15.12h-1.73l4.73-15.12,28.2-93.9h-16.07l-43.48,119.73ZM214.22,532.57c2.1,0,3.99-.63,5.67-1.89,1.68-1.26,3.1-3.36,4.25-6.3h2.36l-2.68,7.4h5.2l18.12-49.94h-9.45l-15.12,41.59h-4.88l37.5-102.88h4.88l-16.54,45.37h9.45l14.65-40.17c1.47-4.2,1.6-7.64.39-10.32-1.21-2.68-3.97-4.02-8.27-4.02-3.78,0-6.88,1-9.3,2.99-2.42,2-4.46,5.36-6.14,10.08l-35.61,97.52c-.94,3.05-1.05,5.57-.32,7.56.74,2,2.68,2.99,5.83,2.99M189.01,531.78h9.45l43.48-119.73h-9.45l-43.48,119.73ZM170.74,532.57c3.25,0,5.93-.74,8.03-2.21,2.1-1.47,3.7-3.23,4.8-5.28,1.1-2.05,2.23-4.65,3.39-7.8l9.45-26c.63-1.68,1.08-3.28,1.34-4.81.26-1.52.39-3.02.39-4.49,0-1.68-.21-3.52-.63-5.51-.42-1.99-.89-3.89-1.42-5.67-1.26-4.41-1.89-7.72-1.89-9.92,0-1.89.42-4.04,1.26-6.46l12.45-34.03h4.88l-14.02,38.6h9.45l12.6-35.13c1.58-4.2,1.71-7.35.39-9.45-1.31-2.1-4.23-3.15-8.74-3.15-3.57,0-6.62.95-9.14,2.84-2.52,1.89-4.36,4.52-5.51,7.88l-10.87,29.78c-.63,1.79-1.08,3.49-1.34,5.12-.26,1.63-.39,3.13-.39,4.49,0,1.68.18,3.49.55,5.44.37,1.94.76,3.81,1.18,5.59,1.16,4.2,1.73,7.56,1.73,10.08,0,2.84-.58,5.78-1.73,8.82l-11.66,32.14h-4.88l12.92-35.45h-9.45l-10.24,28.04c-1.78,4.94-2.26,8.93-1.42,11.97.84,3.05,3.68,4.57,8.51,4.57M136.39,531.78h16.7l3.31-9.14h-7.25l17.01-46.79h7.25l3.31-9.14h-7.25l16.54-45.53h7.25l3.31-9.14h-16.7l-43.48,119.73ZM118.28,522.64l36.87-101.46h4.88l-36.86,101.46h-4.88ZM105.36,531.78h13.55c3.36,0,5.93-.37,7.72-1.1,1.78-.73,3.07-1.73,3.86-2.99.79-1.26,1.65-3.25,2.6-5.99l35.6-97.99c1.26-3.47,1.39-6.28.39-8.43-1-2.15-3.39-3.23-7.17-3.23h-12.92l-43.64,119.73Z"/>
    <path class="st1" d="M220.75,126.55c3.15,0,5.44-.81,6.85-2.44,1.42-1.63,2.1-3.7,2.05-6.22-.05-2.52-.61-5.14-1.66-7.88l-10.55-29.3c-.74-2.1-1.57-3.99-2.52-5.67-.95-1.68-2-3.2-3.15-4.57-1.16-1.36-2.44-2.62-3.86-3.78-1.42-1.16-2.86-2.26-4.33-3.31-3.78-2.52-6.57-4.88-8.35-7.09-1.58-1.99-2.94-4.57-4.1-7.72l-12.29-34.19h4.88l14.02,38.6h9.45l-11.82-32.45c-1.68-4.52-3.65-8.17-5.91-10.95-2.26-2.78-5.64-4.17-10.16-4.17-4.83,0-7.67,1.42-8.51,4.25-.84,2.84-.42,6.88,1.26,12.13l8.51,23.63c1.26,3.26,2.5,6.28,3.7,9.06,1.21,2.78,2.44,5.02,3.7,6.7,1.05,1.37,2.36,2.73,3.94,4.1,1.58,1.37,3.2,2.68,4.88,3.94,3.78,2.73,6.46,4.99,8.03,6.78,1.99,2.21,3.52,4.78,4.57,7.72l11.82,33.71h-4.88l-12.92-35.45h-9.45l10.71,29.3c1.58,4.41,3.49,8.06,5.75,10.95,2.26,2.89,5.7,4.33,10.32,4.33M186.56,117.41L149.06,14.53h4.88l37.5,102.88h-4.88ZM190.5,126.55c3.05,0,5.38-.61,7.01-1.81,1.63-1.21,2.57-2.84,2.84-4.88.26-2.05-.08-4.38-1.02-7.01l-34.97-95.79c-1.47-3.78-3.44-6.67-5.91-8.67-2.47-1.99-5.43-2.99-8.9-2.99-4.41,0-7.25,1.24-8.51,3.7-1.26,2.47-1.26,5.54,0,9.22l35.13,97.05c1.47,3.99,3.41,6.85,5.83,8.59,2.41,1.73,5.25,2.6,8.51,2.6M156.94,116.62L120.08,15.16h4.88l36.86,101.46h-4.88ZM150.8,125.76h12.13c3.15,0,5.41-.52,6.77-1.57,1.36-1.05,1.99-2.52,1.89-4.41-.11-1.89-.74-4.36-1.89-7.4L134.41,15.16c-1.16-3.15-2.58-5.46-4.25-6.93-1.68-1.47-4.2-2.21-7.56-2.21h-15.28l43.48,119.73ZM130.63,126.55c4.51,0,7.48-1.26,8.9-3.78,1.42-2.52,1.39-5.83-.08-9.93L100.54,6.02h-9.45l40.49,111.38h-4.88L86.21,6.02h-9.45l39.54,109.34c1.47,3.99,3.41,6.85,5.83,8.59,2.41,1.73,5.25,2.6,8.51,2.6M102.43,125.76h9.45L71.71,15.16h5.99l-3.31-9.14h-21.43l3.31,9.14h5.99l40.17,110.6ZM80.85,126.55c3.15,0,5.43-.81,6.85-2.44,1.42-1.63,2.1-3.7,2.05-6.22-.05-2.52-.6-5.14-1.65-7.88l-10.55-29.3c-.74-2.1-1.58-3.99-2.52-5.67-.95-1.68-2-3.2-3.15-4.57-1.16-1.36-2.44-2.62-3.86-3.78-1.42-1.16-2.86-2.26-4.33-3.31-3.78-2.52-6.57-4.88-8.35-7.09-1.58-1.99-2.94-4.57-4.1-7.72l-12.29-34.19h4.88l14.02,38.6h9.45l-11.82-32.45c-1.68-4.52-3.65-8.17-5.91-10.95-2.26-2.78-5.64-4.17-10.16-4.17-4.83,0-7.67,1.42-8.51,4.25-.84,2.84-.42,6.88,1.26,12.13l8.51,23.63c1.26,3.26,2.5,6.28,3.7,9.06,1.21,2.78,2.44,5.02,3.7,6.7,1.05,1.37,2.36,2.73,3.94,4.1,1.58,1.37,3.2,2.68,4.88,3.94,3.78,2.73,6.46,4.99,8.04,6.78,1.99,2.21,3.52,4.78,4.57,7.72l11.82,33.71h-4.88l-12.92-35.45h-9.45l10.71,29.3c1.58,4.41,3.49,8.06,5.75,10.95,2.26,2.89,5.7,4.33,10.32,4.33M48.4,125.76h16.7l-3.31-9.14h-7.25l-17.02-46.79h7.25l-3.31-9.14h-7.25L17.68,15.16h7.25l-3.31-9.14H4.92l43.48,119.73Z"/>
  </g>
  <path class="st1" d="M258.87,125.76h9.92l-2.36-94.21-.16-14.81h1.89l.32,14.81,5.67,94.21h9.3l5.36-94.21.32-14.81h1.89l-.16,14.81-2.05,94.21h9.45V6.02h-15.28l-2.84,80.82-.47,15.12h-1.58l.16-15.12-4.1-80.82h-15.28v119.73ZM236.18,125.76h16.7v-9.14h-7.25v-46.79h7.25v-9.14h-7.25V15.16h7.25V6.02h-16.7v119.73Z"/>
  <path class="st0" d="M88.97,420.55h4.88v102.88h-4.88v-102.88ZM91.49,532.57c2.73,0,4.96-.5,6.7-1.5,1.73-1,3.02-2.49,3.86-4.49.84-1.99,1.26-4.57,1.26-7.72v-93.74c0-4.51-1-7.93-2.99-10.24-2-2.31-4.94-3.47-8.82-3.47s-6.85,1.16-8.9,3.47c-2.05,2.31-3.07,5.73-3.07,10.24v93.74c0,4.73.97,8.19,2.91,10.4,1.94,2.21,4.96,3.31,9.06,3.31M59.52,421.18h4.88v101.46h-4.88v-101.46ZM50.06,531.78h12.76c3.36,0,5.85-.58,7.48-1.73,1.63-1.15,2.62-2.6,2.99-4.33.37-1.73.55-3.96.55-6.7v-95.79c0-3.25-.63-5.93-1.89-8.03-1.26-2.1-4.1-3.15-8.51-3.15h-13.39v119.73Z"/>
  <g>
    <path class="st0" d="M232.99,311.97c-.67,0-1.26-.1-1.76-.31-.5-.21-.91-.51-1.23-.89-.32-.38-.56-.84-.72-1.37-.16-.53-.24-1.12-.24-1.78,0-.87.14-1.63.43-2.28.28-.65.72-1.15,1.3-1.51s1.32-.54,2.22-.54c.67,0,1.25.1,1.75.31.49.21.9.5,1.23.88s.57.84.73,1.37c.16.53.24,1.12.24,1.76,0,.87-.14,1.63-.43,2.28-.29.65-.72,1.16-1.29,1.53-.58.36-1.32.55-2.23.55ZM232.99,311.44c.81,0,1.46-.16,1.95-.48.49-.32.85-.77,1.07-1.34.22-.57.34-1.24.34-2s-.11-1.43-.34-2-.59-1.01-1.08-1.32-1.14-.47-1.94-.47-1.44.16-1.93.47c-.49.31-.86.75-1.08,1.32s-.34,1.24-.34,2,.11,1.42.34,2,.58,1.02,1.07,1.34c.49.32,1.14.48,1.95.48Z"/>
    <path class="st0" d="M239.94,303.97l.29-.21v8.08h-.59v-8.4h2.91c.72,0,1.29.09,1.72.27.43.18.74.45.94.79.2.35.29.77.29,1.26s-.11.93-.34,1.29c-.22.37-.56.66-1.01.86s-1,.31-1.67.31h-2.55v-.53h2.55c.75,0,1.34-.16,1.77-.48.43-.32.65-.81.65-1.46,0-.41-.07-.75-.22-1.01-.15-.26-.4-.46-.75-.58s-.84-.19-1.46-.19h-2.55ZM242.89,307.79l3.04,3.77v.28h-.55l-3.04-3.98.55-.07Z"/>
    <path class="st0" d="M251.26,311.97c-.55,0-1.05-.07-1.51-.22-.46-.14-.85-.38-1.18-.71-.33-.33-.58-.77-.76-1.31-.18-.54-.27-1.21-.27-2,0-.93.14-1.73.41-2.39s.7-1.16,1.26-1.52,1.27-.53,2.12-.53c.67,0,1.25.11,1.72.34.48.22.86.55,1.14.97.28.42.48.93.59,1.52l-.55.14c-.21-.86-.53-1.48-.98-1.86s-1.08-.57-1.89-.57-1.46.15-1.93.46c-.48.3-.81.74-1.01,1.32-.2.58-.3,1.29-.3,2.13,0,.64.06,1.2.19,1.67s.32.85.57,1.15c.25.3.58.53.98.67.4.15.87.22,1.41.22.63,0,1.15-.08,1.56-.25s.72-.4.95-.69c.22-.29.38-.62.48-.99.09-.37.14-.75.14-1.15l.07.92c-.07.32-.18.63-.31.95-.14.32-.33.61-.57.87-.24.26-.55.47-.93.63-.38.16-.85.24-1.41.24ZM251.57,308.32v-.53h3.4v4.05h-.56v-3.72l.18.21h-3.02ZM254.2,310.01l.18-.81h.28v.81h-.46Z"/>
    <path class="st0" d="M257.45,310.81h1.01v1.02h-1.01v-1.02Z"/>
  </g>
  <g>
    <path class="st0" d="M234.11,327.42c.07-.18.14-.39.23-.65s.18-.53.28-.81c.1-.29.2-.56.3-.83s.2-.5.28-.7l1.83-4.19h1.3v8.4h-.59v-4.76c0-.35,0-.74,0-1.18,0-.44.01-.86.02-1.27,0-.41.01-.74.01-.99l.15.29h-.94l.32-.31c-.1.33-.22.68-.36,1.06-.13.38-.28.77-.42,1.15s-.29.74-.44,1.08l-1.68,3.81h-.92l-1.62-3.85c-.15-.36-.29-.74-.43-1.14-.14-.4-.27-.78-.38-1.14-.11-.36-.21-.68-.31-.95l.31.29h-.91l.18-.29c.02.27.03.61.03,1.01v7.19h-.59v-8.4h1.32l1.72,4.19c.07.18.16.41.27.7s.21.59.31.9c.11.31.21.59.29.84.09.25.16.43.2.55l-.32-.39h.85l-.32.41Z"/>
    <path class="st0" d="M243.76,328.77c-.67,0-1.24-.14-1.69-.41-.46-.27-.8-.67-1.03-1.18-.23-.51-.34-1.12-.34-1.81s.13-1.3.38-1.79c.25-.5.61-.88,1.07-1.14.46-.27,1-.4,1.62-.4s1.17.13,1.62.4c.46.27.81.65,1.06,1.14.25.49.38,1.09.38,1.79,0,1.04-.26,1.87-.78,2.48-.52.61-1.28.92-2.29.92ZM243.76,322.57c-.81,0-1.43.25-1.85.75-.42.5-.64,1.18-.64,2.04,0,.57.09,1.07.27,1.5.18.43.45.77.82,1.02.37.24.83.36,1.39.36.85,0,1.48-.27,1.89-.8.41-.53.62-1.23.62-2.09,0-.58-.1-1.08-.29-1.49-.19-.42-.47-.74-.84-.96-.37-.22-.82-.34-1.37-.34Z"/>
    <path class="st0" d="M251.54,328.77c-.67,0-1.24-.14-1.69-.41-.46-.27-.8-.67-1.03-1.18-.23-.51-.34-1.12-.34-1.81s.12-1.3.37-1.79c.25-.5.6-.88,1.05-1.14.45-.27.98-.4,1.59-.4s1.14.12,1.55.37.71.59.91,1.04c.2.45.3.97.3,1.57v.22c0,.11,0,.21-.03.3h-5.42v-.49h5.1l-.18.18c0-.83-.17-1.48-.5-1.96-.33-.48-.91-.71-1.74-.71s-1.4.25-1.81.74c-.41.49-.62,1.2-.62,2.13,0,.86.21,1.54.62,2.05.41.51,1.03.76,1.86.76.49,0,.87-.08,1.15-.24.28-.16.49-.37.64-.64.15-.27.27-.56.36-.89l.53.18c-.11.45-.28.83-.5,1.15-.22.32-.51.56-.87.72-.36.16-.79.25-1.3.25Z"/>
    <path class="st0" d="M256.81,323.76h.36l-.2.28c.13-.35.32-.68.56-.99.24-.3.55-.55.92-.74.37-.19.8-.28,1.31-.28.39,0,.74.08,1.04.25s.53.42.69.75.25.74.25,1.22l.11.25v4.12h-.56v-4.3c0-.38-.06-.71-.17-.97-.12-.26-.29-.46-.53-.6-.24-.13-.54-.2-.92-.2-.51,0-.98.1-1.39.31-.41.21-.74.49-.97.85-.24.36-.36.77-.36,1.23v3.68h-.56v-6.45h.56v2.49l-.14-.91ZM261.55,323.89h.45l-.14.14c.1-.32.26-.63.48-.93.22-.3.52-.55.9-.76.38-.2.85-.3,1.42-.3.4,0,.76.08,1.07.25s.56.42.74.75c.18.33.27.74.27,1.22v4.37h-.56v-4.3c0-.38-.06-.71-.17-.97-.12-.26-.29-.46-.53-.6-.24-.13-.54-.2-.92-.2-.54,0-1.02.1-1.43.31-.41.21-.73.49-.95.85-.22.36-.34.77-.34,1.23h-.29v-1.06Z"/>
    <path class="st0" d="M270.76,328.77c-.43,0-.8-.06-1.11-.17-.31-.12-.54-.31-.7-.57-.16-.26-.24-.6-.24-1.02,0-.49.19-.91.56-1.24.37-.33.93-.5,1.67-.5h2.63v.42h-2.6c-.56,0-.98.11-1.27.34-.28.22-.43.55-.43.99,0,.23.05.44.15.62.1.18.26.33.49.43.23.11.54.16.93.16.5,0,.95-.08,1.32-.25s.67-.4.88-.69.31-.62.31-.99v-1.95c0-.58-.13-1.02-.41-1.33-.27-.31-.76-.46-1.46-.46-.51,0-.93.12-1.25.36-.32.24-.56.56-.71.95l-.55-.24c.13-.32.31-.6.55-.84.24-.24.52-.43.85-.57.33-.14.7-.2,1.1-.2.56,0,1.02.09,1.37.26.35.17.62.43.79.77.17.34.26.76.26,1.27v4.3h-.52v-1.79l.17.41h-.42l.21-.36c-.09.39-.25.73-.48,1.01-.23.29-.52.5-.88.65-.36.15-.77.22-1.25.22Z"/>
    <path class="st0" d="M280.33,328.63v-8.4h2.97c.92,0,1.68.15,2.28.44.6.29,1.04.75,1.34,1.37s.44,1.41.44,2.38-.17,1.71-.5,2.34-.8,1.09-1.4,1.41c-.6.31-1.29.47-2.07.47h-3.05ZM280.92,328.44l-.34-.34h2.74c.85,0,1.52-.16,2.02-.47s.86-.75,1.08-1.3c.22-.56.34-1.19.34-1.91,0-.89-.12-1.6-.36-2.13-.24-.53-.62-.92-1.14-1.16s-1.2-.36-2.05-.36h-2.42l.13-.15v7.83Z"/>
    <path class="st0" d="M290.92,328.77c-.43,0-.8-.06-1.11-.17-.31-.12-.54-.31-.7-.57-.16-.26-.24-.6-.24-1.02,0-.49.19-.91.56-1.24.37-.33.93-.5,1.67-.5h2.63v.42h-2.6c-.56,0-.98.11-1.27.34-.28.22-.43.55-.43.99,0,.23.05.44.15.62.1.18.26.33.49.43.23.11.54.16.93.16.5,0,.95-.08,1.32-.25s.67-.4.88-.69.31-.62.31-.99v-1.95c0-.58-.13-1.02-.41-1.33-.27-.31-.76-.46-1.46-.46-.51,0-.93.12-1.25.36-.32.24-.56.56-.71.95l-.55-.24c.13-.32.31-.6.55-.84.24-.24.52-.43.85-.57.33-.14.7-.2,1.1-.2.56,0,1.02.09,1.37.26.35.17.62.43.79.77.17.34.26.76.26,1.27v4.3h-.52v-1.79l.17.41h-.42l.21-.36c-.09.39-.25.73-.48,1.01-.23.29-.52.5-.88.65-.36.15-.77.22-1.25.22Z"/>
    <path class="st0" d="M299.03,328.63h-.66l-2.91-6.45h.62l1.05,2.41c.19.42.36.83.52,1.24.16.41.32.82.48,1.24.15.42.3.86.44,1.33l-.25-.25h.78l-.29.25c.13-.43.28-.86.44-1.28.16-.42.33-.84.51-1.26.18-.42.35-.83.53-1.24l1.05-2.44h.62l-2.93,6.45Z"/>
    <path class="st0" d="M304.45,320.33h-.84v-.83h.84v.83ZM304.31,328.63h-.56v-6.45h.56v6.45Z"/>
    <path class="st0" d="M306.65,325.41c0-1.14.22-1.99.67-2.54.45-.56,1.09-.83,1.93-.83.52,0,.95.1,1.29.31s.61.49.81.83c.2.34.34.71.43,1.1l-.06.67c0-.69-.21-1.26-.64-1.71-.43-.45-1-.67-1.72-.67s-1.27.22-1.62.65c-.35.43-.53,1.16-.53,2.18s.18,1.75.53,2.2.9.67,1.62.67c.48,0,.89-.1,1.25-.31s.63-.5.82-.86.29-.77.29-1.23l.08.24c0,.36-.07.69-.2,1.02-.13.32-.32.61-.56.85-.24.25-.53.44-.85.59-.32.14-.68.22-1.07.22-.78,0-1.4-.28-1.83-.83-.44-.55-.66-1.4-.66-2.53ZM311.92,324.46h-.21l-.2-.77h.48l-.07.77ZM311.99,327.15h-.46l.17-.56h.29v.56ZM311.73,328.63v-9.38h.56v9.38h-.56Z"/>
    <path class="st0" d="M321.98,328.77c-.67,0-1.26-.1-1.76-.31-.5-.21-.91-.51-1.23-.89-.32-.38-.56-.84-.72-1.37-.16-.53-.24-1.12-.24-1.78,0-.87.14-1.63.43-2.28.28-.65.72-1.15,1.3-1.51s1.32-.54,2.22-.54c.67,0,1.25.1,1.75.31.49.21.9.5,1.23.88s.57.84.73,1.37c.16.53.24,1.12.24,1.76,0,.87-.14,1.63-.43,2.28-.29.65-.72,1.16-1.29,1.53-.58.36-1.32.55-2.23.55ZM321.98,328.24c.81,0,1.46-.16,1.95-.48.49-.32.85-.77,1.07-1.34.22-.57.34-1.24.34-2s-.11-1.43-.34-2-.59-1.01-1.08-1.32-1.14-.47-1.94-.47-1.44.16-1.93.47c-.49.31-.86.75-1.08,1.32s-.34,1.24-.34,2,.11,1.42.34,2,.58,1.02,1.07,1.34c.49.32,1.14.48,1.95.48Z"/>
    <path class="st0" d="M328.78,319.25v9.38h-.56v-9.38h.56Z"/>
    <path class="st0" d="M332.5,320.33h-.84v-.83h.84v.83ZM332.36,328.63h-.56v-6.45h.56v6.45Z"/>
    <path class="st0" d="M337.73,328.63h-.66l-2.91-6.45h.62l1.05,2.41c.19.42.36.83.52,1.24.16.41.32.82.48,1.24.15.42.3.86.44,1.33l-.25-.25h.78l-.29.25c.13-.43.28-.86.44-1.28.16-.42.33-.84.51-1.26.18-.42.35-.83.53-1.24l1.05-2.44h.62l-2.93,6.45Z"/>
    <path class="st0" d="M344.75,328.77c-.67,0-1.24-.14-1.69-.41-.46-.27-.8-.67-1.03-1.18-.23-.51-.34-1.12-.34-1.81s.12-1.3.37-1.79c.25-.5.6-.88,1.05-1.14.45-.27.98-.4,1.59-.4s1.14.12,1.55.37.71.59.91,1.04c.2.45.3.97.3,1.57v.22c0,.11,0,.21-.03.3h-5.42v-.49h5.1l-.18.18c0-.83-.17-1.48-.5-1.96-.33-.48-.91-.71-1.74-.71s-1.4.25-1.81.74c-.41.49-.62,1.2-.62,2.13,0,.86.21,1.54.62,2.05.41.51,1.03.76,1.86.76.49,0,.87-.08,1.15-.24.28-.16.49-.37.64-.64.15-.27.27-.56.36-.89l.53.18c-.11.45-.28.83-.5,1.15-.22.32-.51.56-.87.72-.36.16-.79.25-1.3.25Z"/>
    <path class="st0" d="M350.49,320.33h-.84v-.83h.84v.83ZM350.35,328.63h-.56v-6.45h.56v6.45Z"/>
    <path class="st0" d="M353.63,323.64h.29l-.27.95c.04-.4.12-.76.25-1.07.13-.31.3-.58.51-.8.21-.22.47-.39.76-.5.29-.12.61-.17.95-.17h.1v.56h-.1c-.52,0-.96.1-1.32.29-.36.19-.62.49-.8.89-.18.4-.27.93-.27,1.58v3.28h-.56v-6.45h.56v2.24l-.11-.78Z"/>
    <path class="st0" d="M359.66,328.77c-.43,0-.8-.06-1.11-.17-.31-.12-.54-.31-.7-.57-.16-.26-.24-.6-.24-1.02,0-.49.19-.91.56-1.24.37-.33.93-.5,1.67-.5h2.63v.42h-2.6c-.56,0-.98.11-1.27.34-.28.22-.43.55-.43.99,0,.23.05.44.15.62.1.18.26.33.49.43.23.11.54.16.93.16.5,0,.95-.08,1.32-.25s.67-.4.88-.69.31-.62.31-.99v-1.95c0-.58-.13-1.02-.41-1.33-.27-.31-.76-.46-1.46-.46-.51,0-.93.12-1.25.36-.32.24-.56.56-.71.95l-.55-.24c.13-.32.31-.6.55-.84.24-.24.52-.43.85-.57.33-.14.7-.2,1.1-.2.56,0,1.02.09,1.37.26.35.17.62.43.79.77.17.34.26.76.26,1.27v4.3h-.52v-1.79l.17.41h-.42l.21-.36c-.09.39-.25.73-.48,1.01-.23.29-.52.5-.88.65-.36.15-.77.22-1.25.22Z"/>
  </g>
  <g>
    <path class="st0" d="M229.88,349.8l.19-.16v6.9h-.5v-7.2h2.62c.54,0,.99.08,1.35.24.36.16.62.4.8.73.18.33.26.74.26,1.24,0,.46-.09.85-.26,1.18-.18.33-.44.59-.8.77-.36.18-.81.27-1.35.27h-2.36v-.46h2.32c.71,0,1.22-.14,1.51-.42.3-.28.44-.72.44-1.33,0-.42-.06-.75-.17-1.01-.12-.26-.32-.45-.6-.57-.28-.12-.68-.19-1.19-.19h-2.24Z"/>
    <path class="st0" d="M236.44,352.26h.25l-.23.82c.03-.34.1-.65.21-.92.11-.27.25-.5.44-.68.18-.19.4-.33.65-.43s.52-.15.82-.15h.08v.48h-.08c-.45,0-.82.08-1.13.25-.3.16-.53.42-.68.76s-.23.8-.23,1.36v2.81h-.48v-5.53h.48v1.92l-.1-.67Z"/>
    <path class="st0" d="M242.52,356.67c-.58,0-1.06-.12-1.45-.35-.39-.24-.69-.57-.88-1.01-.2-.44-.29-.96-.29-1.55s.11-1.11.32-1.54c.21-.42.51-.75.9-.98.39-.23.84-.34,1.36-.34s.98.11,1.33.32c.35.21.61.51.78.89.17.38.26.83.26,1.34v.19c0,.09,0,.18-.02.26h-4.64v-.42h4.37l-.16.16c0-.71-.14-1.27-.43-1.68-.28-.41-.78-.61-1.49-.61s-1.2.21-1.55.63c-.35.42-.53,1.03-.53,1.83,0,.74.18,1.32.53,1.76.35.44.88.65,1.6.65.42,0,.74-.07.98-.2.24-.14.42-.32.55-.55.13-.23.23-.48.31-.76l.46.16c-.1.38-.24.71-.43.98-.19.27-.44.48-.74.62-.3.14-.68.21-1.12.21Z"/>
    <path class="st0" d="M246,351.02h3.72v.46h-3.72v-.46ZM247.66,350.27v6.28h-.48v-6.28c0-.39.06-.73.19-1.01.12-.28.31-.5.55-.65.24-.15.54-.23.9-.23.18,0,.35.01.5.03.15.02.28.04.38.07v.46c-.16-.03-.31-.06-.45-.07-.14-.02-.29-.02-.44-.02-.43,0-.73.13-.9.38s-.25.6-.25,1.05Z"/>
    <path class="st0" d="M252.09,356.67c-.37,0-.68-.05-.95-.15-.26-.1-.46-.26-.6-.49-.14-.22-.2-.52-.2-.88,0-.42.16-.78.48-1.06.32-.28.8-.43,1.43-.43h2.26v.36h-2.23c-.48,0-.84.1-1.09.29-.24.19-.37.48-.37.85,0,.2.04.38.13.53.08.16.22.28.42.37s.46.14.8.14c.43,0,.81-.07,1.13-.22.32-.14.58-.34.76-.59.18-.25.27-.53.27-.85v-1.67c0-.5-.12-.88-.35-1.14-.23-.26-.65-.4-1.25-.4-.44,0-.8.1-1.07.31-.27.21-.48.48-.61.82l-.47-.2c.11-.27.27-.51.47-.72.2-.21.45-.37.73-.49.28-.12.6-.17.94-.17.48,0,.87.07,1.18.22.3.15.53.37.68.66s.22.65.22,1.09v3.68h-.44v-1.54l.14.35h-.36l.18-.31c-.08.34-.22.63-.41.87s-.45.43-.75.56-.66.19-1.07.19ZM252.02,350.01l-.13-.17,2.63-2.12.32.42-2.82,1.87Z"/>
    <path class="st0" d="M261,352.85c-.07-.32-.17-.59-.3-.82-.13-.22-.31-.4-.56-.52-.24-.12-.58-.18-1-.18-.68,0-1.2.21-1.55.63-.35.42-.53,1.03-.53,1.83,0,.49.08.91.23,1.28.16.36.39.64.71.84.32.2.71.29,1.18.29.42,0,.74-.07.98-.2.24-.14.42-.32.55-.55.13-.23.23-.48.31-.76l.46.16c-.14.58-.4,1.03-.76,1.34-.36.31-.87.47-1.53.47-.58,0-1.06-.12-1.45-.35-.39-.24-.69-.57-.88-1.01-.2-.44-.29-.96-.29-1.55s.11-1.11.32-1.54c.21-.42.51-.75.9-.98.39-.23.84-.34,1.36-.34.47,0,.86.07,1.18.2.31.14.56.34.74.61.18.27.32.61.4,1.02l-.47.12Z"/>
    <path class="st0" d="M264.12,349.43h-.72v-.71h.72v.71ZM264,356.55h-.48v-5.53h.48v5.53Z"/>
    <path class="st0" d="M268.63,356.67c-.58,0-1.06-.12-1.45-.35-.39-.24-.69-.57-.88-1.01-.2-.44-.29-.96-.29-1.55s.11-1.11.32-1.54.52-.75.92-.98c.4-.23.86-.34,1.39-.34s1,.11,1.39.34c.39.23.7.55.91.98.22.42.32.94.32,1.54,0,.9-.22,1.61-.67,2.13-.44.52-1.1.79-1.96.79ZM268.63,351.35c-.7,0-1.23.21-1.59.64s-.55,1.01-.55,1.75c0,.49.08.92.23,1.29.15.37.39.66.7.87.32.21.71.31,1.19.31.73,0,1.27-.23,1.62-.68.35-.46.53-1.05.53-1.79,0-.5-.08-.92-.25-1.28-.16-.36-.4-.63-.72-.82-.32-.19-.71-.29-1.17-.29Z"/>
    <path class="st0" d="M275.79,353.79c0-.98.19-1.7.58-2.18.38-.48.94-.71,1.66-.71.45,0,.82.09,1.11.27s.52.42.7.71.29.61.37.94l-.05.58c0-.59-.18-1.08-.55-1.46-.36-.38-.85-.58-1.47-.58s-1.09.19-1.39.56c-.3.37-.46.99-.46,1.87s.15,1.5.46,1.88c.3.38.77.58,1.39.58.41,0,.76-.09,1.07-.27.3-.18.54-.43.7-.74.16-.31.25-.66.25-1.06l.07.2c0,.3-.06.59-.17.87-.11.28-.27.52-.48.73s-.45.38-.73.5c-.28.12-.58.19-.92.19-.67,0-1.2-.24-1.57-.71-.38-.48-.56-1.2-.56-2.17ZM280.32,352.97h-.18l-.17-.66h.41l-.06.66ZM280.38,355.27h-.4l.14-.48h.25v.48ZM280.15,356.55v-8.04h.48v8.04h-.48Z"/>
    <path class="st0" d="M285.09,356.67c-.58,0-1.06-.12-1.45-.35-.39-.24-.69-.57-.88-1.01-.2-.44-.29-.96-.29-1.55s.11-1.11.32-1.54c.21-.42.51-.75.9-.98.39-.23.84-.34,1.36-.34s.98.11,1.33.32c.35.21.61.51.78.89.17.38.26.83.26,1.34v.19c0,.09,0,.18-.02.26h-4.64v-.42h4.37l-.16.16c0-.71-.14-1.27-.43-1.68-.28-.41-.78-.61-1.49-.61s-1.2.21-1.55.63c-.35.42-.53,1.03-.53,1.83,0,.74.18,1.32.53,1.76.35.44.88.65,1.6.65.42,0,.74-.07.98-.2.24-.14.42-.32.55-.55.13-.23.23-.48.31-.76l.46.16c-.1.38-.24.71-.43.98-.19.27-.44.48-.74.62-.3.14-.68.21-1.12.21Z"/>
  </g>
  <g>
    <path class="st0" d="M230.44,368.89v-5.54h.5v5.53c0,.38-.05.7-.16.96-.1.26-.27.46-.5.6-.23.14-.54.2-.92.2-.14,0-.29,0-.44-.02-.15-.02-.32-.04-.49-.07v-.47c.16.02.32.05.47.07.15.02.3.03.46.03.41,0,.69-.11.85-.32.16-.22.24-.54.24-.96Z"/>
    <path class="st0" d="M235.59,370.67c-.58,0-1.06-.12-1.45-.35-.39-.24-.69-.57-.88-1.01-.2-.44-.29-.96-.29-1.55s.11-1.11.32-1.54.52-.75.92-.98c.4-.23.86-.34,1.39-.34s1,.11,1.39.34c.39.23.7.55.91.98.22.42.32.94.32,1.54,0,.9-.22,1.61-.67,2.13-.44.52-1.1.79-1.96.79ZM235.59,365.35c-.7,0-1.23.21-1.59.64s-.55,1.01-.55,1.75c0,.49.08.92.23,1.29.15.37.39.66.7.87.32.21.71.31,1.19.31.73,0,1.27-.23,1.62-.68.35-.46.53-1.05.53-1.79,0-.5-.08-.92-.25-1.28-.16-.36-.4-.63-.72-.82-.32-.19-.71-.29-1.17-.29Z"/>
    <path class="st0" d="M241.3,370.67c-.37,0-.68-.05-.95-.15-.26-.1-.46-.26-.6-.49-.14-.22-.2-.52-.2-.88,0-.42.16-.78.48-1.06.32-.28.8-.43,1.43-.43h2.26v.36h-2.23c-.48,0-.84.1-1.09.29-.24.19-.37.48-.37.85,0,.2.04.38.13.53.08.16.22.28.42.37s.46.14.8.14c.43,0,.81-.07,1.13-.22.32-.14.58-.34.76-.59.18-.25.27-.53.27-.85v-1.67c0-.5-.12-.88-.35-1.14-.23-.26-.65-.4-1.25-.4-.44,0-.8.1-1.07.31-.27.21-.48.48-.61.82l-.47-.2c.11-.27.27-.51.47-.72.2-.21.45-.37.73-.49.28-.12.6-.17.94-.17.48,0,.87.07,1.18.22.3.15.53.37.68.66s.22.65.22,1.09v3.68h-.44v-1.54l.14.35h-.36l.18-.31c-.08.34-.22.63-.41.87s-.45.43-.75.56-.66.19-1.07.19ZM241,361.69c.24,0,.44.06.59.18.16.12.29.27.4.44.11.18.21.35.3.53.09.18.19.33.31.45.11.12.25.18.42.18.22,0,.38-.14.49-.42.11-.28.15-.72.13-1.32h.36c.02.13.03.25.04.36,0,.11.01.22.01.34,0,.5-.1.87-.31,1.12s-.45.37-.73.37c-.23,0-.42-.06-.58-.18-.15-.12-.28-.27-.4-.45s-.22-.36-.31-.53c-.1-.18-.2-.32-.31-.44-.11-.12-.25-.18-.42-.18-.26,0-.45.13-.55.38-.1.26-.15.7-.13,1.33h-.37c-.02-.14-.03-.27-.04-.39,0-.12-.01-.24-.01-.34,0-.48.1-.84.31-1.07s.48-.35.8-.35Z"/>
    <path class="st0" d="M248.41,370.67c-.58,0-1.06-.12-1.45-.35-.39-.24-.69-.57-.88-1.01-.2-.44-.29-.96-.29-1.55s.11-1.11.32-1.54.52-.75.92-.98c.4-.23.86-.34,1.39-.34s1,.11,1.39.34c.39.23.7.55.91.98.22.42.32.94.32,1.54,0,.9-.22,1.61-.67,2.13-.44.52-1.1.79-1.96.79ZM248.41,365.35c-.7,0-1.23.21-1.59.64s-.55,1.01-.55,1.75c0,.49.08.92.23,1.29.15.37.39.66.7.87.32.21.71.31,1.19.31.73,0,1.27-.23,1.62-.68.35-.46.53-1.05.53-1.79,0-.5-.08-.92-.25-1.28-.16-.36-.4-.63-.72-.82-.32-.19-.71-.29-1.17-.29Z"/>
    <path class="st0" d="M255.57,367.79c0-.98.19-1.7.58-2.18.38-.48.94-.71,1.66-.71.45,0,.82.09,1.11.27s.52.42.7.71.29.61.37.94l-.05.58c0-.59-.18-1.08-.55-1.46-.36-.38-.85-.58-1.47-.58s-1.09.19-1.39.56c-.3.37-.46.99-.46,1.87s.15,1.5.46,1.88c.3.38.77.58,1.39.58.41,0,.76-.09,1.07-.27.3-.18.54-.43.7-.74.16-.31.25-.66.25-1.06l.07.2c0,.3-.06.59-.17.87-.11.28-.27.52-.48.73s-.45.38-.73.5c-.28.12-.58.19-.92.19-.67,0-1.2-.24-1.57-.71-.38-.48-.56-1.2-.56-2.17ZM260.1,366.97h-.18l-.17-.66h.41l-.06.66ZM260.16,369.27h-.4l.14-.48h.25v.48ZM259.93,370.55v-8.04h.48v8.04h-.48Z"/>
    <path class="st0" d="M264.87,370.67c-.58,0-1.06-.12-1.45-.35-.39-.24-.69-.57-.88-1.01-.2-.44-.29-.96-.29-1.55s.11-1.11.32-1.54c.21-.42.51-.75.9-.98.39-.23.84-.34,1.36-.34s.98.11,1.33.32c.35.21.61.51.78.89.17.38.26.83.26,1.34v.19c0,.09,0,.18-.02.26h-4.64v-.42h4.37l-.16.16c0-.71-.14-1.27-.43-1.68-.28-.41-.78-.61-1.49-.61s-1.2.21-1.55.63c-.35.42-.53,1.03-.53,1.83,0,.74.18,1.32.53,1.76.35.44.88.65,1.6.65.42,0,.74-.07.98-.2.24-.14.42-.32.55-.55.13-.23.23-.48.31-.76l.46.16c-.1.38-.24.71-.43.98-.19.27-.44.48-.74.62-.3.14-.68.21-1.12.21Z"/>
    <path class="st0" d="M274.57,370.67c-.45,0-.84-.05-1.18-.14-.34-.1-.62-.24-.86-.43-.24-.19-.43-.43-.57-.71-.14-.28-.25-.61-.32-.98l.49-.12c.08.43.21.79.39,1.08.18.29.44.5.77.64.33.14.76.21,1.28.21.77,0,1.3-.14,1.6-.41.3-.28.45-.63.45-1.07,0-.3-.07-.54-.21-.73-.14-.19-.36-.36-.67-.49-.3-.14-.71-.25-1.22-.35-.64-.13-1.15-.29-1.52-.49-.38-.2-.64-.43-.8-.7-.16-.27-.23-.57-.23-.89,0-.54.2-.99.59-1.33.39-.34,1.02-.52,1.88-.52.52,0,.95.07,1.28.22.33.14.6.36.79.64.2.28.35.64.46,1.06l-.49.12c-.1-.36-.22-.66-.37-.89s-.36-.41-.62-.52c-.26-.12-.62-.17-1.06-.17-.73,0-1.24.12-1.54.37s-.44.58-.44,1c0,.26.06.49.19.69s.35.38.67.54c.32.16.76.29,1.33.41.48.1.88.22,1.2.35.32.13.57.27.76.44.19.16.32.34.4.54.08.2.11.41.11.65,0,.39-.08.74-.24,1.04-.16.3-.42.53-.79.7-.37.17-.87.25-1.51.25Z"/>
    <path class="st0" d="M281.14,370.67c-.58,0-1.06-.12-1.45-.35-.39-.24-.69-.57-.88-1.01-.2-.44-.29-.96-.29-1.55s.11-1.11.32-1.54.52-.75.92-.98c.4-.23.86-.34,1.39-.34s1,.11,1.39.34c.39.23.7.55.91.98.22.42.32.94.32,1.54,0,.9-.22,1.61-.67,2.13-.44.52-1.1.79-1.96.79ZM281.14,365.35c-.7,0-1.23.21-1.59.64s-.55,1.01-.55,1.75c0,.49.08.92.23,1.29.15.37.39.66.7.87.32.21.71.31,1.19.31.73,0,1.27-.23,1.62-.68.35-.46.53-1.05.53-1.79,0-.5-.08-.92-.25-1.28-.16-.36-.4-.63-.72-.82-.32-.19-.71-.29-1.17-.29Z"/>
    <path class="st0" d="M289.86,369.19h-.31l.17-.24c-.09.28-.24.55-.46.82-.22.26-.49.48-.81.65s-.68.25-1.07.25-.71-.07-.98-.22c-.27-.14-.48-.36-.63-.64-.15-.28-.22-.63-.22-1.05v-3.74h.48v3.68c0,.32.04.59.13.82.09.23.23.4.44.52.2.12.48.17.82.17.45,0,.85-.09,1.19-.26s.62-.42.83-.73c.2-.31.31-.66.31-1.05v-3.16h.48v5.53h-.48v-2.14l.12.78Z"/>
    <path class="st0" d="M295.12,370.09h1.61v.46h-4.64v-.48l4.34-4.93-.11.42-.24-.44.46.07c-.21.04-.43.08-.66.11-.23.04-.48.07-.73.09-.26.02-.52.04-.8.06-.28.02-.56.02-.85.02h-1.31v-.46h4.48v.48l-4.32,4.92.08-.44.24.44-.42-.07c.19-.02.4-.05.62-.08.22-.03.46-.06.7-.08s.5-.04.76-.06c.26-.02.52-.02.79-.02Z"/>
    <path class="st0" d="M299.8,370.67c-.37,0-.68-.05-.95-.15-.26-.1-.46-.26-.6-.49-.14-.22-.2-.52-.2-.88,0-.42.16-.78.48-1.06.32-.28.8-.43,1.43-.43h2.26v.36h-2.23c-.48,0-.84.1-1.09.29-.24.19-.37.48-.37.85,0,.2.04.38.13.53.08.16.22.28.42.37s.46.14.8.14c.43,0,.81-.07,1.13-.22.32-.14.58-.34.76-.59.18-.25.27-.53.27-.85v-1.67c0-.5-.12-.88-.35-1.14-.23-.26-.65-.4-1.25-.4-.44,0-.8.1-1.07.31-.27.21-.48.48-.61.82l-.47-.2c.11-.27.27-.51.47-.72.2-.21.45-.37.73-.49.28-.12.6-.17.94-.17.48,0,.87.07,1.18.22.3.15.53.37.68.66s.22.65.22,1.09v3.68h-.44v-1.54l.14.35h-.36l.18-.31c-.08.34-.22.63-.41.87s-.45.43-.75.56-.66.19-1.07.19Z"/>
    <path class="st0" d="M308.5,363.35v7.2h-.5v-7.2h.5ZM308.24,370.55v-.46h3.89v.46h-3.89Z"/>
    <path class="st0" d="M315.5,370.67c-.58,0-1.06-.12-1.45-.35-.39-.24-.69-.57-.88-1.01-.2-.44-.29-.96-.29-1.55s.11-1.11.32-1.54c.21-.42.51-.75.9-.98.39-.23.84-.34,1.36-.34s.98.11,1.33.32c.35.21.61.51.78.89.17.38.26.83.26,1.34v.19c0,.09,0,.18-.02.26h-4.64v-.42h4.37l-.16.16c0-.71-.14-1.27-.43-1.68-.28-.41-.78-.61-1.49-.61s-1.2.21-1.55.63c-.35.42-.53,1.03-.53,1.83,0,.74.18,1.32.53,1.76.35.44.88.65,1.6.65.42,0,.74-.07.98-.2.24-.14.42-.32.55-.55.13-.23.23-.48.31-.76l.46.16c-.1.38-.24.71-.43.98-.19.27-.44.48-.74.62-.3.14-.68.21-1.12.21Z"/>
    <path class="st0" d="M320.42,363.43h-.72v-.71h.72v.71ZM320.3,370.55h-.48v-5.53h.48v5.53Z"/>
    <path class="st0" d="M322.1,365.02h3.54v.46h-3.54v-.46ZM323.11,368.99v-5.64h.48v5.66c0,.4.08.7.25.91s.44.31.8.31c.18,0,.33-.01.47-.03.14-.02.3-.06.49-.11l.08.41c-.11.03-.22.06-.34.09s-.23.05-.35.06c-.12.01-.25.02-.38.02-.34,0-.63-.07-.85-.21s-.39-.34-.5-.59c-.11-.25-.16-.55-.16-.88Z"/>
    <path class="st0" d="M329.41,370.67c-.58,0-1.06-.12-1.45-.35-.39-.24-.69-.57-.88-1.01-.2-.44-.29-.96-.29-1.55s.11-1.11.32-1.54c.21-.42.51-.75.9-.98.39-.23.84-.34,1.36-.34s.98.11,1.33.32c.35.21.61.51.78.89.17.38.26.83.26,1.34v.19c0,.09,0,.18-.02.26h-4.64v-.42h4.37l-.16.16c0-.71-.14-1.27-.43-1.68-.28-.41-.78-.61-1.49-.61s-1.2.21-1.55.63c-.35.42-.53,1.03-.53,1.83,0,.74.18,1.32.53,1.76.35.44.88.65,1.6.65.42,0,.74-.07.98-.2.24-.14.42-.32.55-.55.13-.23.23-.48.31-.76l.46.16c-.1.38-.24.71-.43.98-.19.27-.44.48-.74.62-.3.14-.68.21-1.12.21Z"/>
  </g>
  <g>
    <path class="st1" d="M242.53,244.84c0-1.29-1.07-2.33-2.36-2.33s-2.36,1.04-2.36,2.33,1.05,2.33,2.36,2.33,2.36-1.04,2.36-2.33M243.54,235.86v12.16h-1v-.83c-.61.59-1.44.96-2.36.96-1.86,0-3.37-1.48-3.37-3.31s1.51-3.31,3.37-3.31c.92,0,1.75.37,2.36.96v-6.62h1Z"/>
    <path class="st1" d="M246.03,241.65h1v6.37h-1v-6.37ZM245.82,239.79c0-.4.32-.68.71-.68s.7.29.7.68c0,.37-.32.67-.7.67s-.71-.3-.71-.67"/>
    <path class="st1" d="M250.75,242.61v3.62c0,.59.45.97.97.97h.74v.75c-.18.11-.53.21-.86.21-1,0-1.86-.8-1.86-1.8v-3.74h-1.08v-.96h1.08v-2.77h1v2.77h1.73v.96h-1.73Z"/>
    <path class="st1" d="M259.47,244.84c0-1.29-1.07-2.33-2.36-2.33s-2.36,1.04-2.36,2.33,1.05,2.33,2.36,2.33,2.36-1.04,2.36-2.33M253.74,244.84c0-1.83,1.5-3.31,3.36-3.31s3.37,1.48,3.37,3.31-1.51,3.31-3.37,3.31-3.36-1.48-3.36-3.31"/>
    <path class="st1" d="M266.04,241.57v1c-.15-.05-.31-.06-.5-.06-1.18,0-2.15.89-2.15,2.06v3.46h-1v-6.37h1v.91c.48-.64,1.23-1.04,2.15-1.04.19,0,.35.02.5.05"/>
    <path class="st1" d="M272.58,244.84c0-1.29-1.07-2.33-2.36-2.33s-2.36,1.04-2.36,2.33,1.05,2.33,2.36,2.33,2.36-1.04,2.36-2.33M274.65,247.19v.83c-.13.08-.31.13-.49.13-.76,0-1.28-.45-1.49-1.1-.61.65-1.49,1.1-2.46,1.1-1.86,0-3.36-1.48-3.36-3.31s1.51-3.31,3.36-3.31c.92,0,1.76.37,2.36.96v-.83h1v4.72c0,.59.31.83.66.83h.4Z"/>
    <path class="st1" d="M232.05,242.51c1.04,0,1.91.65,2.22,1.58h-4.45c.33-.92,1.2-1.58,2.23-1.58M234.1,246.01c-.4.7-1.17,1.16-2.05,1.16-1.28,0-2.3-.96-2.36-2.18h5.71l.02-.21c-.05-1.83-1.52-3.25-3.37-3.25s-3.36,1.48-3.36,3.31,1.51,3.31,3.36,3.31c1.25,0,2.33-.66,2.92-1.65l-.86-.49Z"/>
    <path class="st1" d="M228.26,259.62l1.52-.75c.29.54.74.67,1.08.67s.57-.14.57-.4c0-.22-.19-.38-.78-.61-.74-.27-2.04-.7-2.04-1.98,0-1.08.94-2.04,2.41-2.04.91,0,1.7.37,2.18.84l-1.04,1.15c-.19-.24-.58-.46-1-.46-.36,0-.52.16-.52.37,0,.24.23.33.7.53.92.35,1.99.86,1.99,2.13,0,1.2-.89,2.07-2.35,2.07-1.15,0-2.34-.54-2.73-1.53Z"/>
    <path class="st1" d="M239.29,257.83c0-.84-.7-1.51-1.54-1.51s-1.54.67-1.54,1.51.68,1.51,1.54,1.51,1.54-.67,1.54-1.51M242.11,259.36v1.66c-.15.06-.34.13-.55.13-.87,0-1.59-.43-1.99-1.08-.52.67-1.28,1.08-2.22,1.08-1.8,0-3.2-1.47-3.2-3.31s1.41-3.31,3.2-3.31c.74,0,1.36.26,1.84.68v-.56h2.05v4.1c0,.52.29.62.57.62h.29Z"/>
    <path class="st1" d="M248.35,257.83c0-.84-.68-1.51-1.54-1.51s-1.54.67-1.54,1.51.68,1.51,1.54,1.51,1.54-.67,1.54-1.51M250.41,257.83c0,1.85-1.41,3.31-3.19,3.31-.74,0-1.36-.26-1.85-.68v.57l-2.07-.02v-10.91h2.07v5.1c.49-.43,1.1-.69,1.85-.69,1.78,0,3.19,1.47,3.19,3.31Z"/>
    <path class="st1" d="M251.9,254.65h2.05v6.37h-2.05v-6.37ZM251.8,252.46c0-.62.52-1.11,1.13-1.11s1.13.49,1.13,1.11-.52,1.12-1.13,1.12-1.13-.51-1.13-1.12"/>
    <path class="st1" d="M259.58,253.83h-1.36l1.42-2.37h1.96l-2.02,2.37h0ZM260.6,257.83c0-.84-.7-1.51-1.54-1.51s-1.54.67-1.54,1.51.68,1.51,1.54,1.51,1.54-.67,1.54-1.51M263.42,259.36v1.66c-.15.06-.34.13-.55.13-.87,0-1.59-.43-1.99-1.08-.52.67-1.28,1.08-2.22,1.08-1.8,0-3.2-1.47-3.2-3.31s1.41-3.31,3.2-3.31c.74,0,1.36.26,1.84.68v-.56h2.05v4.1c0,.52.29.62.57.62h.29Z"/>
    <path class="st1" d="M289.13,238.58c.59,0,1.06-.47,1.06-1.04s-.47-1.04-1.06-1.04-1.06.47-1.06,1.04.47,1.04,1.06,1.04"/>
    <path class="st1" d="M299.97,250.37s0-.05,0-.07c0-.02,0-.04,0-.06,0-.02,0-.05,0-.07,0-.02,0-.04,0-.06,0-.02,0-.05,0-.07,0-.02,0-.04,0-.06,0-.02,0-.05,0-.07,0-.02,0-.04,0-.06,0-.02,0-.05,0-.07,0-.02,0-.04,0-.07,0-.02,0-.05-.01-.07,0-.02,0-.05,0-.07,0-.02,0-.05-.01-.07,0-.02,0-.04-.01-.07,0-.02,0-.05-.01-.07,0-.02,0-.04-.01-.07,0-.02-.01-.05-.02-.08,0-.02,0-.04-.01-.07,0-.03-.01-.05-.02-.08,0-.02-.01-.05-.02-.07,0-.03-.01-.05-.02-.08,0-.02,0-.04-.02-.07,0-.03-.01-.05-.02-.08,0-.02-.01-.04-.02-.06,0-.03-.02-.06-.02-.08,0-.02-.01-.04-.02-.06-.01-.03-.02-.06-.03-.09,0-.02-.01-.04-.02-.06,0-.03-.02-.07-.03-.1,0-.02-.01-.03-.02-.05-.02-.05-.04-.1-.06-.15-.03-.09-.07-.18-.11-.27-.08-.18-.16-.35-.26-.52-.05-.09-.1-.17-.15-.25-.14-.24-.3-.47-.48-.69-1.31-1.67-3.78-3.06-7.35-4.12,0,0,0,0-.01,0-.05-.01-.1-.03-.16-.04-1.04-.28-2.76-.7-3.48-.88,0,0-.02,0-.02,0,0,0,0,0,0,0-.13-.03-.22-.05-.27-.07-.15-.04-3.58-.99-6.17-1.71.72-.27,1.72-.6,2.91-.89.24-.06.4-.28.37-.51,0,0,0,0,0-.01,0-.09-.02-.18-.02-.27v-.02c0-.1-.01-.2-.01-.3,0-1.78,1.84-3.7,4.81-3.7.17,0,.34,0,.52.02,3.9.22,6.41,2.81,7.84,4.94,1.77,2.65,2.82,6.08,2.82,9.18,0,.84-.11,1.65-.34,2.43,0-.01,0-.03,0-.04h0ZM298.98,250.65s0,.08,0,.12c0,.03,0,.07,0,.1,0,.04,0,.08,0,.12,0,.03,0,.06,0,.09,0,.04,0,.08-.01.12,0,.03,0,.06,0,.09,0,.04,0,.08-.01.12,0,.03,0,.05-.01.08,0,.04-.01.08-.02.12,0,.02,0,.05-.01.07,0,.05-.02.1-.03.15,0,.01,0,.03,0,.04-.01.06-.02.12-.04.18,0,.02,0,.04-.01.06,0,.04-.02.08-.03.12,0,.02-.01.04-.02.07,0,.03-.02.07-.03.1,0,.02-.01.05-.02.07,0,.03-.02.06-.02.09,0,.02-.01.04-.02.07,0,.03-.02.05-.03.08,0,.02-.01.04-.02.07,0,.03-.02.05-.03.08,0,.02-.01.04-.02.06,0,.02-.02.05-.02.07,0,.02-.01.04-.02.06,0,.02-.02.04-.02.06,0,.02-.01.04-.02.05,0,.02-.02.04-.02.06,0,.02-.01.03-.02.05,0,.02-.01.04-.02.05,0,.01-.01.03-.02.04,0,.02-.01.03-.02.05,0,.01-.01.02-.02.04,0,.01-.01.03-.02.04,0,.01-.01.02-.01.03,0,.01-.01.02-.02.04,0,0,0,.02-.01.03,0,.01-.01.02-.02.03,0,0,0,.01,0,.02,0,0,0,.02-.01.02,0,0,0,0,0,.01-3.56,4.42-10.88,6.4-16.56,6.4h-2.79s-.04,0-.06,0h-3.11s0,0,.01,0c.05-.02.1-.04.16-.06.11-.04.21-.08.32-.13.07-.03.13-.05.19-.08.1-.04.19-.08.29-.11.07-.03.14-.05.2-.08.09-.04.19-.08.28-.11.07-.03.14-.05.2-.08.09-.04.19-.07.28-.11.07-.03.14-.05.21-.08.09-.04.19-.08.28-.11.07-.03.13-.05.2-.08.1-.04.21-.08.31-.13.05-.02.11-.05.16-.07.07-.03.15-.06.22-.09.08-.03.16-.07.24-.1,2.69-1.13,5.74-2.53,7.96-4.32.36-.29.69-.59.99-.89,1.63-1.62,2.43-3.4,2.43-5.4,0-.07,0-.15,0-.22,0-.02,0-.05,0-.07,0-.05,0-.1,0-.15,0-.03,0-.05,0-.08,0-.04,0-.09,0-.13,0-.03,0-.06,0-.08,0-.04,0-.08-.01-.12,0-.03,0-.06,0-.08,0-.04-.01-.08-.02-.12,0-.03,0-.05-.01-.08,0-.04-.01-.09-.02-.13,0-.02,0-.05-.01-.07,0-.05-.02-.1-.02-.15,0-.01,0-.03,0-.04-.01-.06-.02-.13-.04-.19,0-.02,0-.03,0-.05,0-.05-.02-.09-.03-.14,0-.02-.01-.04-.02-.07-.01-.04-.02-.08-.03-.12,0-.02-.01-.05-.02-.07,0-.04-.02-.07-.03-.11,0-.02-.01-.05-.02-.07-.01-.04-.02-.07-.03-.11,0-.02-.01-.05-.02-.07-.01-.04-.02-.07-.03-.11,0-.02-.01-.04-.02-.07-.01-.04-.03-.08-.04-.11,0-.02-.01-.04-.02-.05-.02-.06-.04-.11-.06-.16,0,0,0,0,0-.01-.02-.05-.04-.1-.06-.15,0-.02-.02-.04-.02-.05-.01-.03-.03-.07-.04-.1,0-.02-.02-.04-.03-.06-.01-.03-.03-.06-.04-.09-.01-.02-.02-.04-.03-.06-.01-.03-.03-.06-.04-.09,0-.02-.02-.04-.03-.06-.02-.03-.03-.06-.04-.09-.01-.02-.02-.04-.03-.06-.02-.03-.03-.06-.05-.09,0-.02-.02-.03-.03-.05-.02-.04-.04-.07-.06-.11,0,0-.01-.02-.02-.03-.03-.05-.05-.09-.08-.13,0-.01-.01-.02-.02-.04-.02-.03-.04-.06-.06-.09-.01-.02-.02-.03-.03-.05-.02-.03-.03-.05-.05-.08-.01-.02-.02-.03-.03-.05-.02-.03-.03-.05-.05-.07-.01-.02-.02-.03-.03-.05-.02-.02-.03-.05-.05-.07-.01-.02-.02-.03-.03-.05-.02-.02-.03-.05-.05-.07,0-.01-.02-.03-.03-.04-.02-.03-.04-.05-.06-.08,0,0-.02-.02-.02-.03-.03-.04-.06-.07-.08-.11,0,0,0,0,0-.01-.02-.03-.05-.06-.07-.09,0-.01-.02-.02-.03-.03-.02-.02-.04-.05-.05-.07,0,0,0,0-.01-.01,0,0,.01,0,.02,0,.03,0,.06.01.09.02.02,0,.05.01.07.02.02,0,.05.01.07.02.03,0,.06.01.08.02.02,0,.05.01.07.02.03,0,.06.02.09.02.02,0,.04.01.06.01.03,0,.06.02.09.02.02,0,.05.01.07.02.1.03.2.05.3.08,0,0,.02,0,.03,0,.04.01.08.02.12.03.01,0,.03,0,.04.01.03,0,.07.02.1.03.02,0,.03,0,.05.01.03,0,.06.02.09.02.02,0,.03,0,.05.01.03,0,.06.02.09.02.02,0,.03,0,.05.01.03,0,.05.01.08.02.02,0,.03,0,.05.01.03,0,.06.02.08.02.02,0,.03,0,.04.01.03,0,.06.02.09.02.01,0,.02,0,.03,0,.04.01.07.02.11.03,0,0,0,0,0,0,2.73.81,4.76,1.8,6.06,2.95h.01c.1.1.19.19.28.27h0s.09.09.13.14c.13.14.25.28.36.42.11.14.22.29.32.45.03.05.07.1.1.15.04.07.08.14.12.22.12.22.23.45.32.68.03.08.06.16.09.24,0,.03.02.05.03.08.02.05.03.11.05.16,0,.03.02.06.03.1.01.05.03.1.04.14,0,.03.02.07.02.1.01.05.02.09.03.14,0,.03.01.07.02.1,0,.04.02.09.02.13,0,.04,0,.07.01.11,0,.04.01.08.02.13,0,.03,0,.07.01.1,0,.04,0,.08.01.12,0,.03,0,.07,0,.1,0,.04,0,.08,0,.12,0,.03,0,.07,0,.1,0,.04,0,.08,0,.12v.1ZM272.54,271.21c-1.56.5-3.13.5-4.68.02-.65-.2-1.15-.46-1.48-.64l7.07-9.58h4.82c-.85,6.14-2.58,9.2-5.74,10.21M279.51,252.81l7.68-10.4s0,0,0,0c.03.03.07.06.1.09,0,0,0,0,.01.01.03.03.07.07.11.1,0,0,0,0,.01.01.04.04.08.08.12.12,0,0,0,0,0,0,.04.04.09.09.13.14,0,0,0,0,0,0,.04.05.09.09.13.14,0,0,0,.01.01.01.04.05.09.1.13.15,0,0,.01.01.01.02.04.05.09.11.13.17,0,0,0,.01.01.01.05.06.1.12.14.19h0c.3.4.55.83.75,1.27.45.97.68,2.01.68,3.12,0,4.25-4.2,6.93-10.54,9.62-.08.03-.16.07-.24.1-1.29.54-2.61,1.06-4,1.62,0,0,0,0-.01,0-.1.04-.19.08-.28.11l4.89-6.62ZM298.3,238.27c-1.04-1.55-2.26-2.8-3.63-3.71-1.53-1.01-3.2-1.57-4.98-1.67h0c-.19,0-.38-.02-.57-.02-3.58,0-5.8,2.42-5.8,4.66,0,.09,0,.18,0,.27-2.38.61-3.91,1.35-3.98,1.39-.18.09-.29.28-.27.48.02.2.16.37.36.42,1.38.38,5.25,1.46,6.84,1.9l-13.47,18.24s-.01.01-.01.02l-.37.51-7.14,9.67c-.16.21-.11.51.1.67.1.08,1.97,1.46,4.78,1.46.82,0,1.72-.12,2.68-.42,4.49-1.43,5.8-6.37,6.43-11.13h2.42c3.24,0,6.66-.6,9.65-1.68,3.34-1.22,6.01-2.99,7.71-5.12h0c1.48-1.85,2.23-3.94,2.23-6.22,0-3.28-1.12-6.92-2.99-9.72Z"/>
  </g>
</svg>