<?xml version="1.0" encoding="UTF-8"?>
<svg xmlns="http://www.w3.org/2000/svg" version="1.1" viewBox="0 0 1366 768">
  <!-- Generator: Adobe Illustrator 29.7.1, SVG Export Plug-In . SVG Version: 2.1.1 Build 8)  -->
  <defs>
    <style>
      .st0 {
        fill: #00aeef;
      }

      .st1 {
        fill: #00a651;
      }

      .st2 {
        fill: #0095da;
      }

      .st3 {
        fill: #231f20;
        font-family: Now-Bold, Now;
        font-size: 12.04px;
        font-weight: 700;
      }
    </style>
  </defs>
  <g id="Layer_2">
    <rect y="-4" width="1366" height="772"/>
  </g>
  <g id="Layer_1">
    <text class="st3" transform="translate(984.93 360.96)"><tspan x="0" y="0"> </tspan></text>
    <g>
      <path class="st0" d="M696.61,646.18c0-1.29-1.07-2.33-2.36-2.33s-2.36,1.04-2.36,2.33,1.05,2.33,2.36,2.33,2.36-1.04,2.36-2.33M697.61,637.21v12.16h-1v-.83c-.61.59-1.44.96-2.36.96-1.86,0-3.37-1.48-3.37-3.31s1.51-3.31,3.37-3.31c.92,0,1.75.37,2.36.96v-6.62h1Z"/>
      <path class="st0" d="M700.1,643h1v6.37h-1v-6.37ZM699.89,641.13c0-.4.32-.68.71-.68s.7.29.7.68c0,.37-.32.67-.7.67s-.71-.3-.71-.67"/>
      <path class="st0" d="M704.83,643.95v3.62c0,.59.45.97.97.97h.74v.75c-.18.11-.53.21-.86.21-1,0-1.86-.8-1.86-1.8v-3.74h-1.08v-.96h1.08v-2.77h1v2.77h1.73v.96h-1.73Z"/>
      <path class="st0" d="M713.55,646.18c0-1.29-1.07-2.33-2.36-2.33s-2.36,1.04-2.36,2.33,1.05,2.33,2.36,2.33,2.36-1.04,2.36-2.33M707.82,646.18c0-1.83,1.5-3.31,3.36-3.31s3.37,1.48,3.37,3.31-1.51,3.31-3.37,3.31-3.36-1.48-3.36-3.31"/>
      <path class="st0" d="M720.11,642.92v1c-.15-.05-.31-.06-.5-.06-1.18,0-2.15.89-2.15,2.06v3.46h-1v-6.37h1v.91c.48-.64,1.23-1.04,2.15-1.04.19,0,.35.02.5.05"/>
      <path class="st0" d="M726.65,646.18c0-1.29-1.07-2.33-2.36-2.33s-2.36,1.04-2.36,2.33,1.05,2.33,2.36,2.33,2.36-1.04,2.36-2.33M728.72,648.54v.83c-.13.08-.31.13-.49.13-.76,0-1.28-.45-1.49-1.1-.61.65-1.49,1.1-2.46,1.1-1.86,0-3.36-1.48-3.36-3.31s1.51-3.31,3.36-3.31c.92,0,1.76.37,2.36.96v-.83h1v4.72c0,.59.31.83.66.83h.4Z"/>
      <path class="st0" d="M686.12,643.86c1.04,0,1.91.65,2.22,1.58h-4.45c.33-.92,1.2-1.58,2.23-1.58M688.17,647.35c-.4.7-1.17,1.16-2.05,1.16-1.28,0-2.3-.96-2.36-2.18h5.71l.02-.21c-.05-1.83-1.52-3.25-3.37-3.25s-3.36,1.48-3.36,3.31,1.51,3.31,3.36,3.31c1.25,0,2.33-.66,2.92-1.65l-.86-.49Z"/>
      <path class="st0" d="M682.34,660.96l1.52-.75c.29.54.74.67,1.08.67s.57-.14.57-.4c0-.22-.19-.38-.78-.61-.74-.27-2.04-.7-2.04-1.98,0-1.08.94-2.04,2.41-2.04.91,0,1.7.37,2.18.84l-1.04,1.15c-.19-.24-.58-.46-1-.46-.36,0-.52.16-.52.37,0,.24.23.33.7.53.92.35,1.99.86,1.99,2.13,0,1.2-.89,2.07-2.35,2.07-1.15,0-2.34-.54-2.73-1.53Z"/>
      <path class="st0" d="M693.37,659.18c0-.84-.7-1.51-1.54-1.51s-1.54.67-1.54,1.51.68,1.51,1.54,1.51,1.54-.67,1.54-1.51M696.18,660.71v1.66c-.15.06-.34.13-.55.13-.87,0-1.59-.43-1.99-1.08-.52.67-1.28,1.08-2.22,1.08-1.8,0-3.2-1.47-3.2-3.31s1.41-3.31,3.2-3.31c.74,0,1.36.26,1.84.68v-.56h2.05v4.1c0,.52.29.62.57.62h.29Z"/>
      <path class="st0" d="M702.43,659.18c0-.84-.68-1.51-1.54-1.51s-1.54.67-1.54,1.51.68,1.51,1.54,1.51,1.54-.67,1.54-1.51M704.48,659.18c0,1.85-1.41,3.31-3.19,3.31-.74,0-1.36-.26-1.85-.68v.57l-2.07-.02v-10.91h2.07v5.1c.49-.43,1.1-.69,1.85-.69,1.78,0,3.19,1.47,3.19,3.31Z"/>
      <path class="st0" d="M705.97,655.99h2.05v6.37h-2.05v-6.37ZM705.87,653.81c0-.62.52-1.11,1.13-1.11s1.13.49,1.13,1.11-.52,1.12-1.13,1.12-1.13-.51-1.13-1.12"/>
      <path class="st0" d="M713.66,655.18h-1.36l1.42-2.37h1.96l-2.02,2.37h0ZM714.68,659.18c0-.84-.7-1.51-1.54-1.51s-1.54.67-1.54,1.51.68,1.51,1.54,1.51,1.54-.67,1.54-1.51M717.49,660.71v1.66c-.15.06-.34.13-.55.13-.87,0-1.59-.43-1.99-1.08-.52.67-1.28,1.08-2.22,1.08-1.8,0-3.2-1.47-3.2-3.31s1.41-3.31,3.2-3.31c.74,0,1.36.26,1.84.68v-.56h2.05v4.1c0,.52.29.62.57.62h.29Z"/>
      <path class="st0" d="M743.2,639.93c.59,0,1.06-.47,1.06-1.04s-.47-1.04-1.06-1.04-1.06.47-1.06,1.04.47,1.04,1.06,1.04"/>
      <path class="st0" d="M754.04,651.72s0-.05,0-.07c0-.02,0-.04,0-.06,0-.02,0-.05,0-.07,0-.02,0-.04,0-.06,0-.02,0-.05,0-.07,0-.02,0-.04,0-.06,0-.02,0-.05,0-.07,0-.02,0-.04,0-.06,0-.02,0-.05,0-.07,0-.02,0-.04,0-.07,0-.02,0-.05-.01-.07,0-.02,0-.05,0-.07,0-.02,0-.05-.01-.07,0-.02,0-.04-.01-.07,0-.02,0-.05-.01-.07,0-.02,0-.04-.01-.07,0-.02-.01-.05-.02-.08,0-.02,0-.04-.01-.07,0-.03-.01-.05-.02-.08,0-.02-.01-.05-.02-.07,0-.03-.01-.05-.02-.08,0-.02,0-.04-.02-.07,0-.03-.01-.05-.02-.08,0-.02-.01-.04-.02-.06,0-.03-.02-.06-.02-.08,0-.02-.01-.04-.02-.06-.01-.03-.02-.06-.03-.09,0-.02-.01-.04-.02-.06,0-.03-.02-.07-.03-.1,0-.02-.01-.03-.02-.05-.02-.05-.04-.1-.06-.15-.03-.09-.07-.18-.11-.27-.08-.18-.16-.35-.26-.52-.05-.09-.1-.17-.15-.25-.14-.24-.3-.47-.48-.69-1.31-1.67-3.78-3.06-7.35-4.12,0,0,0,0-.01,0-.05-.01-.1-.03-.16-.04-1.04-.28-2.76-.7-3.48-.88,0,0-.02,0-.02,0,0,0,0,0,0,0-.13-.03-.22-.05-.27-.07-.15-.04-3.58-.99-6.17-1.71.72-.27,1.72-.6,2.91-.89.24-.06.4-.28.37-.51,0,0,0,0,0-.01,0-.09-.02-.18-.02-.27v-.02c0-.1-.01-.2-.01-.3,0-1.78,1.84-3.7,4.81-3.7.17,0,.34,0,.52.02,3.9.22,6.41,2.81,7.84,4.94,1.77,2.65,2.82,6.08,2.82,9.18,0,.84-.11,1.65-.34,2.43,0-.01,0-.03,0-.04h0ZM753.05,652s0,.08,0,.12c0,.03,0,.07,0,.1,0,.04,0,.08,0,.12,0,.03,0,.06,0,.09,0,.04,0,.08-.01.12,0,.03,0,.06,0,.09,0,.04,0,.08-.01.12,0,.03,0,.05-.01.08,0,.04-.01.08-.02.12,0,.02,0,.05-.01.07,0,.05-.02.1-.03.15,0,.01,0,.03,0,.04-.01.06-.02.12-.04.18,0,.02,0,.04-.01.06,0,.04-.02.08-.03.12,0,.02-.01.04-.02.07,0,.03-.02.07-.03.1,0,.02-.01.05-.02.07,0,.03-.02.06-.02.09,0,.02-.01.04-.02.07,0,.03-.02.05-.03.08,0,.02-.01.04-.02.07,0,.03-.02.05-.03.08,0,.02-.01.04-.02.06,0,.02-.02.05-.02.07,0,.02-.01.04-.02.06,0,.02-.02.04-.02.06,0,.02-.01.04-.02.05,0,.02-.02.04-.02.06,0,.02-.01.03-.02.05,0,.02-.01.04-.02.05,0,.01-.01.03-.02.04,0,.02-.01.03-.02.05,0,.01-.01.02-.02.04,0,.01-.01.03-.02.04,0,.01-.01.02-.01.03,0,.01-.01.02-.02.04,0,0,0,.02-.01.03,0,.01-.01.02-.02.03,0,0,0,.01,0,.02,0,0,0,.02-.01.02,0,0,0,0,0,.01-3.56,4.42-10.88,6.4-16.56,6.4h-2.79s-.04,0-.06,0h-3.11s0,0,.01,0c.05-.02.1-.04.16-.06.11-.04.21-.08.32-.13.07-.03.13-.05.19-.08.1-.04.19-.08.29-.11.07-.03.14-.05.2-.08.09-.04.19-.08.28-.11.07-.03.14-.05.2-.08.09-.04.19-.07.28-.11.07-.03.14-.05.21-.08.09-.04.19-.08.28-.11.07-.03.13-.05.2-.08.1-.04.21-.08.31-.13.05-.02.11-.05.16-.07.07-.03.15-.06.22-.09.08-.03.16-.07.24-.1,2.69-1.13,5.74-2.53,7.96-4.32.36-.29.69-.59.99-.89,1.63-1.62,2.43-3.4,2.43-5.4,0-.07,0-.15,0-.22,0-.02,0-.05,0-.07,0-.05,0-.1,0-.15,0-.03,0-.05,0-.08,0-.04,0-.09,0-.13,0-.03,0-.06,0-.08,0-.04,0-.08-.01-.12,0-.03,0-.06,0-.08,0-.04-.01-.08-.02-.12,0-.03,0-.05-.01-.08,0-.04-.01-.09-.02-.13,0-.02,0-.05-.01-.07,0-.05-.02-.1-.02-.15,0-.01,0-.03,0-.04-.01-.06-.02-.13-.04-.19,0-.02,0-.03,0-.05,0-.05-.02-.09-.03-.14,0-.02-.01-.04-.02-.07-.01-.04-.02-.08-.03-.12,0-.02-.01-.05-.02-.07,0-.04-.02-.07-.03-.11,0-.02-.01-.05-.02-.07-.01-.04-.02-.07-.03-.11,0-.02-.01-.05-.02-.07-.01-.04-.02-.07-.03-.11,0-.02-.01-.04-.02-.07-.01-.04-.03-.08-.04-.11,0-.02-.01-.04-.02-.05-.02-.06-.04-.11-.06-.16,0,0,0,0,0-.01-.02-.05-.04-.1-.06-.15,0-.02-.02-.04-.02-.05-.01-.03-.03-.07-.04-.1,0-.02-.02-.04-.03-.06-.01-.03-.03-.06-.04-.09-.01-.02-.02-.04-.03-.06-.01-.03-.03-.06-.04-.09,0-.02-.02-.04-.03-.06-.02-.03-.03-.06-.04-.09-.01-.02-.02-.04-.03-.06-.02-.03-.03-.06-.05-.09,0-.02-.02-.03-.03-.05-.02-.04-.04-.07-.06-.11,0,0-.01-.02-.02-.03-.03-.05-.05-.09-.08-.13,0-.01-.01-.02-.02-.04-.02-.03-.04-.06-.06-.09-.01-.02-.02-.03-.03-.05-.02-.03-.03-.05-.05-.08-.01-.02-.02-.03-.03-.05-.02-.03-.03-.05-.05-.07-.01-.02-.02-.03-.03-.05-.02-.02-.03-.05-.05-.07-.01-.02-.02-.03-.03-.05-.02-.02-.03-.05-.05-.07,0-.01-.02-.03-.03-.04-.02-.03-.04-.05-.06-.08,0,0-.02-.02-.02-.03-.03-.04-.06-.07-.08-.11,0,0,0,0,0-.01-.02-.03-.05-.06-.07-.09,0-.01-.02-.02-.03-.03-.02-.02-.04-.05-.05-.07,0,0,0,0-.01-.01,0,0,.01,0,.02,0,.03,0,.06.01.09.02.02,0,.05.01.07.02.02,0,.05.01.07.02.03,0,.06.01.08.02.02,0,.05.01.07.02.03,0,.06.02.09.02.02,0,.04.01.06.01.03,0,.06.02.09.02.02,0,.05.01.07.02.1.03.2.05.3.08,0,0,.02,0,.03,0,.04.01.08.02.12.03.01,0,.03,0,.04.01.03,0,.07.02.1.03.02,0,.03,0,.05.01.03,0,.06.02.09.02.02,0,.03,0,.05.01.03,0,.06.02.09.02.02,0,.03,0,.05.01.03,0,.05.01.08.02.02,0,.03,0,.05.01.03,0,.06.02.08.02.02,0,.03,0,.04.01.03,0,.06.02.09.02.01,0,.02,0,.03,0,.04.01.07.02.11.03,0,0,0,0,0,0,2.73.81,4.76,1.8,6.06,2.95h.01c.1.1.19.19.28.27h0s.09.09.13.14c.13.14.25.28.36.42.11.14.22.29.32.45.03.05.07.1.1.15.04.07.08.14.12.22.12.22.23.45.32.68.03.08.06.16.09.24,0,.03.02.05.03.08.02.05.03.11.05.16,0,.03.02.06.03.1.01.05.03.1.04.14,0,.03.02.07.02.1.01.05.02.09.03.14,0,.03.01.07.02.1,0,.04.02.09.02.13,0,.04,0,.07.01.11,0,.04.01.08.02.13,0,.03,0,.07.01.1,0,.04,0,.08.01.12,0,.03,0,.07,0,.1,0,.04,0,.08,0,.12,0,.03,0,.07,0,.1,0,.04,0,.08,0,.12v.1ZM726.62,672.56c-1.56.5-3.13.5-4.68.02-.65-.2-1.15-.46-1.48-.64l7.07-9.58h4.82c-.85,6.14-2.58,9.2-5.74,10.21M733.58,654.16l7.68-10.4s0,0,0,0c.03.03.07.06.1.09,0,0,0,0,.01.01.03.03.07.07.11.1,0,0,0,0,.01.01.04.04.08.08.12.12,0,0,0,0,0,0,.04.04.09.09.13.14,0,0,0,0,0,0,.04.05.09.09.13.14,0,0,0,.01.01.01.04.05.09.1.13.15,0,0,.01.01.01.02.04.05.09.11.13.17,0,0,0,.01.01.01.05.06.1.12.14.19h0c.3.4.55.83.75,1.27.45.97.68,2.01.68,3.12,0,4.25-4.2,6.93-10.54,9.62-.08.03-.16.07-.24.1-1.29.54-2.61,1.06-4,1.62,0,0,0,0-.01,0-.1.04-.19.08-.28.11l4.89-6.62ZM752.38,639.62c-1.04-1.55-2.26-2.8-3.63-3.71-1.53-1.01-3.2-1.57-4.98-1.67h0c-.19,0-.38-.02-.57-.02-3.58,0-5.8,2.42-5.8,4.66,0,.09,0,.18,0,.27-2.38.61-3.91,1.35-3.98,1.39-.18.09-.29.28-.27.48.02.2.16.37.36.42,1.38.38,5.25,1.46,6.84,1.9l-13.47,18.24s-.01.01-.01.02l-.37.51-7.14,9.67c-.16.21-.11.51.1.67.1.08,1.97,1.46,4.78,1.46.82,0,1.72-.12,2.68-.42,4.49-1.43,5.8-6.37,6.43-11.13h2.42c3.24,0,6.66-.6,9.65-1.68,3.34-1.22,6.01-2.99,7.71-5.12h0c1.48-1.85,2.23-3.94,2.23-6.22,0-3.28-1.12-6.92-2.99-9.72Z"/>
      <path class="st2" d="M836.79,653.59c-1.68.8-2.71,1.28-4.23,1.28-2.43,0-4.16-1.49-4.16-3.58s1.75-3.54,4.23-3.54c1.44,0,2.74.48,4.02,1.2v-2.6c-1.15-.68-2.6-1.03-4.23-1.03-4.47,0-7.02,2.91-7.02,6.03s2.26,5.96,6.8,5.96c1.73,0,2.96-.33,4.59-1.16v-2.55Z"/>
      <path class="st2" d="M848.26,652.96h-3.6l1.71-4.54,1.88,4.54ZM848.02,645.63h-3.37l-4.71,11.68h3.08l.87-2.31h5.22l.96,2.31h3.13l-5.19-11.68Z"/>
      <path class="st2" d="M858.81,647.77h1.03c1.57,0,2.14.36,2.14,1.35,0,.87-.48,1.35-1.81,1.35h-1.35v-2.71ZM855.9,645.63v11.68h2.91v-4.69h2.31c2.69,0,3.85-1.88,3.85-3.53s-1.2-3.46-3.87-3.46h-5.2Z"/>
      <polygon class="st2" points="876.48 655.17 870.78 655.17 870.78 652.36 876.1 652.36 876.1 650.22 870.78 650.22 870.78 647.77 876.36 647.77 876.36 645.63 867.87 645.63 867.87 657.31 876.48 657.31 876.48 655.17"/>
      <path class="st2" d="M887.83,646.23c-1.47-.63-2.65-.91-3.95-.91-2.71,0-4.45,1.34-4.45,3.36,0,4.19,5.94,3.49,5.94,5.41,0,.68-.6,1.08-1.71,1.08-1.28,0-2.31-.39-3.99-1.51v2.52c1.16.6,2.17,1.13,4.21,1.13,2.6,0,4.48-1.3,4.48-3.54,0-4.07-5.94-3.58-5.94-5.34,0-.58.67-.96,1.71-.96s2,.29,3.7,1.04v-2.28Z"/>
      <path class="st2" d="M822.11,652.93c-.04.16-.1.32-.16.46-.06.15-.13.27-.19.38h0c-.2.34-.41.63-.64.88-.02.02-.04.04-.06.06.08-.5.06-1.08-.16-1.7-.35-1-1.2-2.1-2.91-3.14-.14-.09-.29-.17-.44-.26-1.06-.59-2.03-.98-3.03-1.28-.74-.22-1.49-.38-2.31-.54.49-.05,1.15-.1,1.64-.13.2-.01.37-.03.49-.03.14,0,.23-.01.26-.01h0c1.85-.03,3.63.29,5.05,1.07.28.15.54.31.78.49.25.18.48.38.69.6h0c1.13,1.15,1.19,2.29.97,3.14M820.02,655.06c-.17.33-.43.62-.73.87-.41.17-.83.29-1.25.39-.44.1-.87.17-1.29.22-1.12.15-2.16.22-3.13.23-.97,0-1.86-.04-2.67-.12-1.35-.13-2.47-.35-3.33-.52-.16-.03-.32-.06-.5-.1h0s0,0,0,0c-.99-.18-1.81-.36-2.51-.54-.63-.16-1.16-.33-1.62-.5-.05-.41-.02-.77.02-1.02,0-.06.02-.1.03-.14,0-.04.02-.07.03-.1h0c.39-1.36,1.2-2.58,2.18-3.6.19-.2.39-.39.59-.58.2-.18.4-.36.62-.53.24-.19.47-.37.72-.55.07-.05.11-.08.14-.1.03-.02.06-.04.08-.06,1.02,0,1.76.06,2.36.11h.07s0,0,0,0c2.33.21,4.08.66,5.1.99.2.06.37.12.52.18.14.05.25.1.35.13,2.13.87,3.46,2.11,4.07,3.16.12.2.2.38.27.56.06.17.1.33.11.46h0c.04.45-.05.83-.22,1.17M815.27,657.72c-.21.05-.4.1-.58.14-.18.04-.38.09-.59.13h0c-2.15.44-4.11.58-5.75.48-.31-.02-.62-.05-.92-.09-.29-.04-.57-.08-.84-.14h0c-1.67-.34-2.59-1.04-3.09-1.8-.09-.13-.16-.26-.22-.4.12.04.23.07.35.11.29.09.61.17.94.26,1.27.33,3.95.92,6.71,1.18.54.05,1.08.09,1.61.11.53.02,1.06.03,1.57.01h0c.29,0,.6-.02.92-.04-.04.01-.08.02-.12.03M802.44,652.61h0c-.17.39-.34.95-.4,1.6,0,.12-.02.24-.02.37-.12-.06-.23-.12-.34-.18h0c-.22-.13-.43-.26-.64-.39-.39-.26-.68-.52-.89-.78-.36-.43-.5-.86-.49-1.25,0-.39.14-.76.34-1.07.17-.27.38-.5.57-.67.8-.72,2-1.26,3.11-1.56.22-.06.43-.11.63-.14.2-.04.4-.07.58-.08h0c.29-.03.57-.05.85-.07-.68.59-1.57,1.46-2.31,2.49-.2.27-.38.55-.55.85-.17.3-.33.6-.46.91M820.91,648.36c-.35-.24-.75-.47-1.21-.68s-.96-.39-1.53-.54h0c-.81-.21-1.55-.33-2.37-.37-.82-.04-1.71,0-2.83.11-.45.04-1.34.15-1.97.37-.13.04-.25.09-.36.14-.08.04-.14.08-.2.12-.35-.05-.71-.09-1.08-.12-.16-.01-.33-.03-.49-.04,1.88-1.11,3.97-1.96,6.08-2.5.45-.12.92-.22,1.38-.3.42-.08.83-.14,1.24-.19.04.04.09.08.14.11.02.01.04.02.06.03.08.04.18.06.28.06h0s0,0,0,0c.19,0,.35-.08.47-.2.12-.13.19-.3.19-.49h0,0c0-.19-.07-.37-.19-.49-.12-.13-.29-.2-.47-.2h0c-.14,0-.29.04-.42.12-.02.02-.04.03-.07.06-2.03.32-4.65.98-7.3,2.23-.52.25-1.05.51-1.57.81-.5.28-1,.58-1.49.91-.4,0-.79.01-1.19.04-.43.03-.86.07-1.3.13-1.24.17-2.45.63-3.33,1.08-.17.09-.33.18-.47.26-.14.09-.27.17-.38.25-.76.55-1.54,1.41-1.74,2.42-.04.2-.06.41-.05.62,0,.21.05.43.12.64.21.64.58,1.19,1.15,1.68.53.46,1.24.86,2.15,1.22.17.68.54,1.37,1.21,2.01.14.13.29.26.45.38.16.13.34.25.53.36.49.3,1.55.72,3.03.93.29.04.59.07.91.09.31.02.64.03.99.03h.03c1.62,0,3.02-.15,4.23-.36,1.22-.22,2.24-.5,3.11-.8.84-.28,1.69-.66,2.41-1.09.14-.08.28-.17.41-.26.13-.09.24-.17.35-.26.14-.06.27-.13.39-.19.13-.07.27-.14.41-.23,1.32-.78,2-1.8,2.31-2.78.06-.19.11-.38.14-.56.04-.19.06-.37.08-.54h0c.08-1.04-.39-2.75-2.23-4.02"/>
      <path class="st1" d="M812.91,652.71h0c0,.56-.23,1.07-.59,1.44-.37.37-.88.6-1.44.6h0s0,0,0,0h0c-.56,0-1.07-.23-1.44-.6-.37-.37-.59-.88-.59-1.44h0,0c0-.56.23-1.07.6-1.44.37-.37.88-.6,1.44-.6h0s0,0,0,0h0c.56,0,1.07.23,1.44.6.37.37.59.88.59,1.44h0Z"/>
    </g>
    <path class="st0" d="M1337.56,142.22v-28.44c-15.71,0-28.44,12.73-28.44,28.44h28.44Z"/>
    <path class="st0" d="M1337.56,113.78v28.44c15.71,0,28.44-12.73,28.44-28.44h-28.44Z"/>
    <path class="st0" d="M1337.56,199.11v-28.44c-15.71,0-28.44,12.73-28.44,28.44h28.44Z"/>
    <path class="st0" d="M1337.56,170.67v28.44c15.71,0,28.44-12.73,28.44-28.44h-28.44Z"/>
    <path class="st0" d="M1280.67,142.22v-28.44c-15.71,0-28.44,12.73-28.44,28.44h28.44Z"/>
    <path class="st0" d="M1280.67,113.78v28.44c15.71,0,28.44-12.73,28.44-28.44h-28.44Z"/>
    <path class="st0" d="M1280.67,199.11v-28.44c-15.71,0-28.44,12.73-28.44,28.44h28.44Z"/>
    <path class="st0" d="M1280.67,170.67v28.44c15.71,0,28.44-12.73,28.44-28.44h-28.44Z"/>
    <path class="st0" d="M1280.67,170.67v-28.44c15.71,0,28.44,12.73,28.44,28.44h-28.44Z"/>
    <path class="st0" d="M1280.67,142.22v28.44c-15.71,0-28.44-12.73-28.44-28.44h28.44Z"/>
    <path class="st0" d="M1280.67,227.56v-28.44c15.71,0,28.44,12.73,28.44,28.44h-28.44Z"/>
    <path class="st0" d="M1280.67,199.11v28.44c-15.71,0-28.44-12.73-28.44-28.44h28.44Z"/>
    <path class="st0" d="M1337.56,170.67v-28.44c15.71,0,28.44,12.73,28.44,28.44h-28.44Z"/>
    <path class="st0" d="M1337.56,142.22v28.44c-15.71,0-28.44-12.73-28.44-28.44h28.44Z"/>
    <path class="st0" d="M1337.56,227.56v-28.44c15.71,0,28.44,12.73,28.44,28.44h-28.44Z"/>
    <path class="st0" d="M1337.56,199.11v28.44c-15.71,0-28.44-12.73-28.44-28.44h28.44Z"/>
    <path class="st0" d="M1337.56,28.44V0c-15.71,0-28.44,12.73-28.44,28.44h28.44Z"/>
    <path class="st0" d="M1337.56,0v28.44c15.71,0,28.44-12.73,28.44-28.44h-28.44Z"/>
    <path class="st0" d="M1337.56,85.33v-28.44c-15.71,0-28.44,12.73-28.44,28.44h28.44Z"/>
    <path class="st0" d="M1337.56,56.89v28.44c15.71,0,28.44-12.73,28.44-28.44h-28.44Z"/>
    <path class="st0" d="M1280.67,28.44V0c-15.71,0-28.44,12.73-28.44,28.44h28.44Z"/>
    <path class="st0" d="M1280.67,0v28.44c15.71,0,28.44-12.73,28.44-28.44h-28.44Z"/>
    <path class="st0" d="M1280.67,85.33v-28.44c-15.71,0-28.44,12.73-28.44,28.44h28.44Z"/>
    <path class="st0" d="M1280.67,56.89v28.44c15.71,0,28.44-12.73,28.44-28.44h-28.44Z"/>
    <path class="st0" d="M1280.67,56.89v-28.44c15.71,0,28.44,12.73,28.44,28.44h-28.44Z"/>
    <path class="st0" d="M1280.67,28.44v28.44c-15.71,0-28.44-12.73-28.44-28.44h28.44Z"/>
    <path class="st0" d="M1280.67,113.78v-28.44c15.71,0,28.44,12.73,28.44,28.44h-28.44Z"/>
    <path class="st0" d="M1280.67,85.33v28.44c-15.71,0-28.44-12.73-28.44-28.44h28.44Z"/>
    <path class="st0" d="M1337.56,56.89v-28.44c15.71,0,28.44,12.73,28.44,28.44h-28.44Z"/>
    <path class="st0" d="M1337.56,28.44v28.44c-15.71,0-28.44-12.73-28.44-28.44h28.44Z"/>
    <path class="st0" d="M1337.56,113.78v-28.44c15.71,0,28.44,12.73,28.44,28.44h-28.44Z"/>
    <path class="st0" d="M1337.56,85.33v28.44c-15.71,0-28.44-12.73-28.44-28.44h28.44Z"/>
    <path class="st0" d="M1337.56,256v-28.44c-15.71,0-28.44,12.73-28.44,28.44h28.44Z"/>
    <path class="st0" d="M1337.56,227.56v28.44c15.71,0,28.44-12.73,28.44-28.44h-28.44Z"/>
    <path class="st0" d="M1337.56,312.89v-28.44c-15.71,0-28.44,12.73-28.44,28.44h28.44Z"/>
    <path class="st0" d="M1337.56,284.45v28.44c15.71,0,28.44-12.73,28.44-28.44h-28.44Z"/>
    <path class="st0" d="M1280.67,256v-28.44c-15.71,0-28.44,12.73-28.44,28.44h28.44Z"/>
    <path class="st0" d="M1280.67,227.56v28.44c15.71,0,28.44-12.73,28.44-28.44h-28.44Z"/>
    <path class="st0" d="M1223.78,142.22v-28.44c-15.71,0-28.44,12.73-28.44,28.44h28.44Z"/>
    <path class="st0" d="M1223.78,113.78v28.44c15.71,0,28.44-12.73,28.44-28.44h-28.44Z"/>
    <path class="st0" d="M1223.78,199.11v-28.44c-15.71,0-28.44,12.73-28.44,28.44h28.44Z"/>
    <path class="st0" d="M1223.78,170.67v28.44c15.71,0,28.44-12.73,28.44-28.44h-28.44Z"/>
    <path class="st0" d="M1223.78,170.67v-28.44c15.71,0,28.44,12.73,28.44,28.44h-28.44Z"/>
    <path class="st0" d="M1223.78,142.22v28.44c-15.71,0-28.44-12.73-28.44-28.44h28.44Z"/>
    <path class="st0" d="M1223.78,227.56v-28.44c15.71,0,28.44,12.73,28.44,28.44h-28.44Z"/>
    <path class="st0" d="M1223.78,199.11v28.44c-15.71,0-28.44-12.73-28.44-28.44h28.44Z"/>
    <path class="st0" d="M1223.78,28.44V0c-15.71,0-28.44,12.73-28.44,28.44h28.44Z"/>
    <path class="st0" d="M1223.78,0v28.44c15.71,0,28.44-12.73,28.44-28.44h-28.44Z"/>
    <path class="st0" d="M1223.78,85.33v-28.44c-15.71,0-28.44,12.73-28.44,28.44h28.44Z"/>
    <path class="st0" d="M1223.78,56.89v28.44c15.71,0,28.44-12.73,28.44-28.44h-28.44Z"/>
    <path class="st0" d="M1223.78,56.89v-28.44c15.71,0,28.44,12.73,28.44,28.44h-28.44Z"/>
    <path class="st0" d="M1223.78,28.44v28.44c-15.71,0-28.44-12.73-28.44-28.44h28.44Z"/>
    <path class="st0" d="M1223.78,113.78v-28.44c15.71,0,28.44,12.73,28.44,28.44h-28.44Z"/>
    <path class="st0" d="M1223.78,85.33v28.44c-15.71,0-28.44-12.73-28.44-28.44h28.44Z"/>
    <path class="st0" d="M1166.89,142.22v-28.44c-15.71,0-28.44,12.73-28.44,28.44h28.44Z"/>
    <path class="st0" d="M1166.89,113.78v28.44c15.71,0,28.44-12.73,28.44-28.44h-28.44Z"/>
    <path class="st0" d="M1166.89,28.44V0c-15.71,0-28.44,12.73-28.44,28.44h28.44Z"/>
    <path class="st0" d="M1166.89,0v28.44c15.71,0,28.44-12.73,28.44-28.44h-28.44Z"/>
    <path class="st0" d="M1166.89,85.33v-28.44c-15.71,0-28.44,12.73-28.44,28.44h28.44Z"/>
    <path class="st0" d="M1166.89,56.89v28.44c15.71,0,28.44-12.73,28.44-28.44h-28.44Z"/>
    <path class="st0" d="M1166.89,56.89v-28.44c15.71,0,28.44,12.73,28.44,28.44h-28.44Z"/>
    <path class="st0" d="M1166.89,28.44v28.44c-15.71,0-28.44-12.73-28.44-28.44h28.44Z"/>
    <path class="st0" d="M1166.89,113.78v-28.44c15.71,0,28.44,12.73,28.44,28.44h-28.44Z"/>
    <path class="st0" d="M1166.89,85.33v28.44c-15.71,0-28.44-12.73-28.44-28.44h28.44Z"/>
    <path class="st0" d="M1223.78,256v-28.44c-15.71,0-28.44,12.73-28.44,28.44h28.44Z"/>
    <path class="st0" d="M1223.78,227.56v28.44c15.71,0,28.44-12.73,28.44-28.44h-28.44Z"/>
    <path class="st0" d="M1280.67,312.89v-28.44c-15.71,0-28.44,12.73-28.44,28.44h28.44Z"/>
    <path class="st0" d="M1280.67,284.45v28.44c15.71,0,28.44-12.73,28.44-28.44h-28.44Z"/>
    <path class="st0" d="M1280.67,284.45v-28.44c15.71,0,28.44,12.73,28.44,28.44h-28.44Z"/>
    <path class="st0" d="M1280.67,256v28.44c-15.71,0-28.44-12.73-28.44-28.44h28.44Z"/>
    <path class="st0" d="M1280.67,341.33v-28.44c15.71,0,28.44,12.73,28.44,28.44h-28.44Z"/>
    <path class="st0" d="M1280.67,312.89v28.44c-15.71,0-28.44-12.73-28.44-28.44h28.44Z"/>
    <path class="st0" d="M1337.56,284.45v-28.44c15.71,0,28.44,12.73,28.44,28.44h-28.44Z"/>
    <path class="st0" d="M1337.56,256v28.44c-15.71,0-28.44-12.73-28.44-28.44h28.44Z"/>
    <path class="st0" d="M1337.56,341.33v-28.44c15.71,0,28.44,12.73,28.44,28.44h-28.44Z"/>
    <path class="st0" d="M1337.56,312.89v28.44c-15.71,0-28.44-12.73-28.44-28.44h28.44Z"/>
    <path class="st0" d="M1337.56,369.78v-28.44c-15.71,0-28.44,12.73-28.44,28.44h28.44Z"/>
    <path class="st0" d="M1337.56,341.33v28.44c15.71,0,28.44-12.73,28.44-28.44h-28.44Z"/>
    <path class="st0" d="M1337.56,426.67v-28.44c-15.71,0-28.44,12.73-28.44,28.44h28.44Z"/>
    <path class="st0" d="M1337.56,398.22v28.44c15.71,0,28.44-12.73,28.44-28.44h-28.44Z"/>
    <path class="st0" d="M1280.67,369.78v-28.44c-15.71,0-28.44,12.73-28.44,28.44h28.44Z"/>
    <path class="st0" d="M1280.67,341.33v28.44c15.71,0,28.44-12.73,28.44-28.44h-28.44Z"/>
    <path class="st0" d="M1280.67,426.67v-28.44c-15.71,0-28.44,12.73-28.44,28.44h28.44Z"/>
    <path class="st0" d="M1280.67,398.22v28.44c15.71,0,28.44-12.73,28.44-28.44h-28.44Z"/>
    <path class="st0" d="M1280.67,398.22v-28.44c15.71,0,28.44,12.73,28.44,28.44h-28.44Z"/>
    <path class="st0" d="M1280.67,369.78v28.44c-15.71,0-28.44-12.73-28.44-28.44h28.44Z"/>
    <path class="st0" d="M1280.67,455.11v-28.44c15.71,0,28.44,12.73,28.44,28.44h-28.44Z"/>
    <path class="st0" d="M1280.67,426.67v28.44c-15.71,0-28.44-12.73-28.44-28.44h28.44Z"/>
    <path class="st0" d="M1337.56,398.22v-28.44c15.71,0,28.44,12.73,28.44,28.44h-28.44Z"/>
    <path class="st0" d="M1337.56,369.78v28.44c-15.71,0-28.44-12.73-28.44-28.44h28.44Z"/>
    <path class="st0" d="M85.33,142.22v-28.44c-15.71,0-28.44,12.73-28.44,28.44h28.44Z"/>
    <path class="st0" d="M85.33,113.78v28.44c15.71,0,28.44-12.73,28.44-28.44h-28.44Z"/>
    <path class="st0" d="M85.33,199.11v-28.44c-15.71,0-28.44,12.73-28.44,28.44h28.44Z"/>
    <path class="st0" d="M85.33,170.67v28.44c15.71,0,28.44-12.73,28.44-28.44h-28.44Z"/>
    <path class="st0" d="M28.45,142.22v-28.44C12.74,113.78,0,126.51,0,142.22h28.44Z"/>
    <path class="st0" d="M28.45,113.78v28.44c15.71,0,28.44-12.73,28.44-28.44h-28.44Z"/>
    <path class="st0" d="M28.45,199.11v-28.44C12.74,170.67,0,183.4,0,199.11h28.44Z"/>
    <path class="st0" d="M28.45,170.67v28.44c15.71,0,28.44-12.73,28.44-28.44h-28.44Z"/>
    <path class="st0" d="M28.44,170.67v-28.44c15.71,0,28.44,12.73,28.44,28.44h-28.44Z"/>
    <path class="st0" d="M28.44,142.22v28.44c-15.71,0-28.44-12.73-28.44-28.44h28.44Z"/>
    <path class="st0" d="M28.44,227.56v-28.44c15.71,0,28.44,12.73,28.44,28.44h-28.44Z"/>
    <path class="st0" d="M28.44,199.11v28.44c-15.71,0-28.44-12.73-28.44-28.44h28.44Z"/>
    <path class="st0" d="M85.33,170.67v-28.44c15.71,0,28.44,12.73,28.44,28.44h-28.44Z"/>
    <path class="st0" d="M85.33,142.22v28.44c-15.71,0-28.44-12.73-28.44-28.44h28.44Z"/>
    <path class="st0" d="M85.33,227.56v-28.44c15.71,0,28.44,12.73,28.44,28.44h-28.44Z"/>
    <path class="st0" d="M85.33,199.11v28.44c-15.71,0-28.44-12.73-28.44-28.44h28.44Z"/>
    <path class="st0" d="M85.33,28.44V0C69.62,0,56.89,12.74,56.89,28.44h28.44Z"/>
    <path class="st0" d="M85.33,0v28.44c15.71,0,28.44-12.73,28.44-28.44h-28.44Z"/>
    <path class="st0" d="M85.33,85.33v-28.44c-15.71,0-28.44,12.73-28.44,28.44h28.44Z"/>
    <path class="st0" d="M85.33,56.89v28.44c15.71,0,28.44-12.73,28.44-28.44h-28.44Z"/>
    <path class="st0" d="M28.45,28.44V0C12.74,0,0,12.74,0,28.44h28.44Z"/>
    <path class="st0" d="M28.45,0v28.44c15.71,0,28.44-12.73,28.44-28.44h-28.44Z"/>
    <path class="st0" d="M28.45,85.33v-28.44C12.74,56.89,0,69.62,0,85.33h28.44Z"/>
    <path class="st0" d="M28.45,56.89v28.44c15.71,0,28.44-12.73,28.44-28.44h-28.44Z"/>
    <path class="st0" d="M28.44,56.89v-28.44c15.71,0,28.44,12.73,28.44,28.44h-28.44Z"/>
    <path class="st0" d="M28.44,28.44v28.44C12.73,56.89,0,44.15,0,28.44h28.44Z"/>
    <path class="st0" d="M28.44,113.78v-28.44c15.71,0,28.44,12.73,28.44,28.44h-28.44Z"/>
    <path class="st0" d="M28.44,85.33v28.44c-15.71,0-28.44-12.73-28.44-28.44h28.44Z"/>
    <path class="st0" d="M85.33,56.89v-28.44c15.71,0,28.44,12.73,28.44,28.44h-28.44Z"/>
    <path class="st0" d="M85.33,28.44v28.44c-15.71,0-28.44-12.73-28.44-28.44h28.44Z"/>
    <path class="st0" d="M85.33,113.78v-28.44c15.71,0,28.44,12.73,28.44,28.44h-28.44Z"/>
    <path class="st0" d="M85.33,85.33v28.44c-15.71,0-28.44-12.73-28.44-28.44h28.44Z"/>
    <path class="st0" d="M85.33,256v-28.44c-15.71,0-28.44,12.73-28.44,28.44h28.44Z"/>
    <path class="st0" d="M85.33,227.56v28.44c15.71,0,28.44-12.73,28.44-28.44h-28.44Z"/>
    <path class="st0" d="M85.33,312.89v-28.44c-15.71,0-28.44,12.73-28.44,28.44h28.44Z"/>
    <path class="st0" d="M85.33,284.45v28.44c15.71,0,28.44-12.73,28.44-28.44h-28.44Z"/>
    <path class="st0" d="M28.45,256v-28.44C12.74,227.56,0,240.29,0,256h28.44Z"/>
    <path class="st0" d="M28.45,227.56v28.44c15.71,0,28.44-12.73,28.44-28.44h-28.44Z"/>
    <path class="st0" d="M28.45,312.89v-28.44C12.74,284.45,0,297.18,0,312.89h28.44Z"/>
    <path class="st0" d="M28.45,284.45v28.44c15.71,0,28.44-12.73,28.44-28.44h-28.44Z"/>
    <path class="st0" d="M28.44,284.45v-28.44c15.71,0,28.44,12.73,28.44,28.44h-28.44Z"/>
    <path class="st0" d="M28.44,256v28.44c-15.71,0-28.44-12.73-28.44-28.44h28.44Z"/>
    <path class="st0" d="M28.44,341.33v-28.44c15.71,0,28.44,12.73,28.44,28.44h-28.44Z"/>
    <path class="st0" d="M28.44,312.89v28.44c-15.71,0-28.44-12.73-28.44-28.44h28.44Z"/>
    <path class="st0" d="M85.33,284.45v-28.44c15.71,0,28.44,12.73,28.44,28.44h-28.44Z"/>
    <path class="st0" d="M85.33,256v28.44c-15.71,0-28.44-12.73-28.44-28.44h28.44Z"/>
    <path class="st0" d="M85.33,341.33v-28.44c15.71,0,28.44,12.73,28.44,28.44h-28.44Z"/>
    <path class="st0" d="M85.33,312.89v28.44c-15.71,0-28.44-12.73-28.44-28.44h28.44Z"/>
    <path class="st0" d="M85.33,369.78v-28.44c-15.71,0-28.44,12.73-28.44,28.44h28.44Z"/>
    <path class="st0" d="M85.33,341.33v28.44c15.71,0,28.44-12.73,28.44-28.44h-28.44Z"/>
    <path class="st0" d="M28.45,369.78v-28.44C12.74,341.33,0,354.07,0,369.78h28.44Z"/>
    <path class="st0" d="M28.45,341.33v28.44c15.71,0,28.44-12.73,28.44-28.44h-28.44Z"/>
    <path class="st0" d="M28.44,398.22v-28.44c15.71,0,28.44,12.73,28.44,28.44h-28.44Z"/>
    <path class="st0" d="M28.44,369.78v28.44c-15.71,0-28.44-12.73-28.44-28.44h28.44Z"/>
    <path class="st0" d="M85.33,398.22v-28.44c15.71,0,28.44,12.73,28.44,28.44h-28.44Z"/>
    <path class="st0" d="M85.33,369.78v28.44c-15.71,0-28.44-12.73-28.44-28.44h28.44Z"/>
    <path class="st0" d="M199.11,142.22v-28.44c-15.71,0-28.44,12.73-28.44,28.44h28.44Z"/>
    <path class="st0" d="M199.11,113.78v28.44c15.71,0,28.44-12.73,28.44-28.44h-28.44Z"/>
    <path class="st0" d="M199.11,199.11v-28.44c-15.71,0-28.44,12.73-28.44,28.44h28.44Z"/>
    <path class="st0" d="M199.11,170.67v28.44c15.71,0,28.44-12.73,28.44-28.44h-28.44Z"/>
    <path class="st0" d="M142.22,142.22v-28.44c-15.71,0-28.44,12.73-28.44,28.44h28.44Z"/>
    <path class="st0" d="M142.22,113.78v28.44c15.71,0,28.44-12.73,28.44-28.44h-28.44Z"/>
    <path class="st0" d="M142.22,199.11v-28.44c-15.71,0-28.44,12.73-28.44,28.44h28.44Z"/>
    <path class="st0" d="M142.22,170.67v28.44c15.71,0,28.44-12.73,28.44-28.44h-28.44Z"/>
    <path class="st0" d="M142.22,170.67v-28.44c15.71,0,28.44,12.73,28.44,28.44h-28.44Z"/>
    <path class="st0" d="M142.22,142.22v28.44c-15.71,0-28.44-12.73-28.44-28.44h28.44Z"/>
    <path class="st0" d="M142.22,227.56v-28.44c15.71,0,28.44,12.73,28.44,28.44h-28.44Z"/>
    <path class="st0" d="M142.22,199.11v28.44c-15.71,0-28.44-12.73-28.44-28.44h28.44Z"/>
    <path class="st0" d="M199.11,170.67v-28.44c15.71,0,28.44,12.73,28.44,28.44h-28.44Z"/>
    <path class="st0" d="M199.11,142.22v28.44c-15.71,0-28.44-12.73-28.44-28.44h28.44Z"/>
    <path class="st0" d="M199.11,227.56v-28.44c15.71,0,28.44,12.73,28.44,28.44h-28.44Z"/>
    <path class="st0" d="M199.11,199.11v28.44c-15.71,0-28.44-12.73-28.44-28.44h28.44Z"/>
    <path class="st0" d="M199.11,28.44V0C183.4,0,170.67,12.74,170.67,28.44h28.44Z"/>
    <path class="st0" d="M199.11,0v28.44c15.71,0,28.44-12.73,28.44-28.44h-28.44Z"/>
    <path class="st0" d="M199.11,85.33v-28.44c-15.71,0-28.44,12.73-28.44,28.44h28.44Z"/>
    <path class="st0" d="M199.11,56.89v28.44c15.71,0,28.44-12.73,28.44-28.44h-28.44Z"/>
    <path class="st0" d="M142.22,28.44V0C126.51,0,113.78,12.74,113.78,28.44h28.44Z"/>
    <path class="st0" d="M142.22,0v28.44c15.71,0,28.44-12.73,28.44-28.44h-28.44Z"/>
    <path class="st0" d="M142.22,85.33v-28.44c-15.71,0-28.44,12.73-28.44,28.44h28.44Z"/>
    <path class="st0" d="M142.22,56.89v28.44c15.71,0,28.44-12.73,28.44-28.44h-28.44Z"/>
    <path class="st0" d="M142.22,56.89v-28.44c15.71,0,28.44,12.73,28.44,28.44h-28.44Z"/>
    <path class="st0" d="M142.22,28.44v28.44c-15.71,0-28.44-12.73-28.44-28.44h28.44Z"/>
    <path class="st0" d="M142.22,113.78v-28.44c15.71,0,28.44,12.73,28.44,28.44h-28.44Z"/>
    <path class="st0" d="M142.22,85.33v28.44c-15.71,0-28.44-12.73-28.44-28.44h28.44Z"/>
    <path class="st0" d="M199.11,56.89v-28.44c15.71,0,28.44,12.73,28.44,28.44h-28.44Z"/>
    <path class="st0" d="M199.11,28.44v28.44c-15.71,0-28.44-12.73-28.44-28.44h28.44Z"/>
    <path class="st0" d="M199.11,113.78v-28.44c15.71,0,28.44,12.73,28.44,28.44h-28.44Z"/>
    <path class="st0" d="M199.11,85.33v28.44c-15.71,0-28.44-12.73-28.44-28.44h28.44Z"/>
    <path class="st0" d="M256,142.22v-28.44c-15.71,0-28.44,12.73-28.44,28.44h28.44Z"/>
    <path class="st0" d="M256,113.78v28.44c15.71,0,28.44-12.73,28.44-28.44h-28.44Z"/>
    <path class="st0" d="M256,199.11v-28.44c-15.71,0-28.44,12.73-28.44,28.44h28.44Z"/>
    <path class="st0" d="M256,170.67v28.44c15.71,0,28.44-12.73,28.44-28.44h-28.44Z"/>
    <path class="st0" d="M256,170.67v-28.44c15.71,0,28.44,12.73,28.44,28.44h-28.44Z"/>
    <path class="st0" d="M256,142.22v28.44c-15.71,0-28.44-12.73-28.44-28.44h28.44Z"/>
    <path class="st0" d="M256,227.56v-28.44c15.71,0,28.44,12.73,28.44,28.44h-28.44Z"/>
    <path class="st0" d="M256,199.11v28.44c-15.71,0-28.44-12.73-28.44-28.44h28.44Z"/>
    <path class="st0" d="M256,28.44V0C240.29,0,227.56,12.74,227.56,28.44h28.44Z"/>
    <path class="st0" d="M256,0v28.44c15.71,0,28.44-12.73,28.44-28.44h-28.44Z"/>
    <path class="st0" d="M256,85.33v-28.44c-15.71,0-28.44,12.73-28.44,28.44h28.44Z"/>
    <path class="st0" d="M256,56.89v28.44c15.71,0,28.44-12.73,28.44-28.44h-28.44Z"/>
    <path class="st0" d="M256,56.89v-28.44c15.71,0,28.44,12.73,28.44,28.44h-28.44Z"/>
    <path class="st0" d="M256,28.44v28.44c-15.71,0-28.44-12.73-28.44-28.44h28.44Z"/>
    <path class="st0" d="M256,113.78v-28.44c15.71,0,28.44,12.73,28.44,28.44h-28.44Z"/>
    <path class="st0" d="M256,85.33v28.44c-15.71,0-28.44-12.73-28.44-28.44h28.44Z"/>
    <path class="st0" d="M312.89,142.22v-28.44c-15.71,0-28.44,12.73-28.44,28.44h28.44Z"/>
    <path class="st0" d="M312.89,113.78v28.44c15.71,0,28.44-12.73,28.44-28.44h-28.44Z"/>
    <path class="st0" d="M312.89,170.67v-28.44c15.71,0,28.44,12.73,28.44,28.44h-28.44Z"/>
    <path class="st0" d="M312.89,142.22v28.44c-15.71,0-28.44-12.73-28.44-28.44h28.44Z"/>
    <path class="st0" d="M312.89,28.44V0c-15.71,0-28.44,12.73-28.44,28.44h28.44Z"/>
    <path class="st0" d="M312.89,0v28.44c15.71,0,28.44-12.73,28.44-28.44h-28.44Z"/>
    <path class="st0" d="M312.89,85.33v-28.44c-15.71,0-28.44,12.73-28.44,28.44h28.44Z"/>
    <path class="st0" d="M312.89,56.89v28.44c15.71,0,28.44-12.73,28.44-28.44h-28.44Z"/>
    <path class="st0" d="M312.89,56.89v-28.44c15.71,0,28.44,12.73,28.44,28.44h-28.44Z"/>
    <path class="st0" d="M312.89,28.44v28.44c-15.71,0-28.44-12.73-28.44-28.44h28.44Z"/>
    <path class="st0" d="M312.89,113.78v-28.44c15.71,0,28.44,12.73,28.44,28.44h-28.44Z"/>
    <path class="st0" d="M312.89,85.33v28.44c-15.71,0-28.44-12.73-28.44-28.44h28.44Z"/>
    <path class="st0" d="M199.11,256v-28.44c-15.71,0-28.44,12.73-28.44,28.44h28.44Z"/>
    <path class="st0" d="M199.11,227.56v28.44c15.71,0,28.44-12.73,28.44-28.44h-28.44Z"/>
    <path class="st0" d="M199.11,312.89v-28.44c-15.71,0-28.44,12.73-28.44,28.44h28.44Z"/>
    <path class="st0" d="M199.11,284.45v28.44c15.71,0,28.44-12.73,28.44-28.44h-28.44Z"/>
    <path class="st0" d="M142.22,256v-28.44c-15.71,0-28.44,12.73-28.44,28.44h28.44Z"/>
    <path class="st0" d="M142.22,227.56v28.44c15.71,0,28.44-12.73,28.44-28.44h-28.44Z"/>
    <path class="st0" d="M142.22,312.89v-28.44c-15.71,0-28.44,12.73-28.44,28.44h28.44Z"/>
    <path class="st0" d="M142.22,284.45v28.44c15.71,0,28.44-12.73,28.44-28.44h-28.44Z"/>
    <path class="st0" d="M142.22,284.45v-28.44c15.71,0,28.44,12.73,28.44,28.44h-28.44Z"/>
    <path class="st0" d="M142.22,256v28.44c-15.71,0-28.44-12.73-28.44-28.44h28.44Z"/>
    <path class="st0" d="M142.22,341.33v-28.44c15.71,0,28.44,12.73,28.44,28.44h-28.44Z"/>
    <path class="st0" d="M142.22,312.89v28.44c-15.71,0-28.44-12.73-28.44-28.44h28.44Z"/>
    <path class="st0" d="M199.11,284.45v-28.44c15.71,0,28.44,12.73,28.44,28.44h-28.44Z"/>
    <path class="st0" d="M199.11,256v28.44c-15.71,0-28.44-12.73-28.44-28.44h28.44Z"/>
    <path class="st0" d="M199.11,341.33v-28.44c15.71,0,28.44,12.73,28.44,28.44h-28.44Z"/>
    <path class="st0" d="M199.11,312.89v28.44c-15.71,0-28.44-12.73-28.44-28.44h28.44Z"/>
    <path class="st0" d="M199.11,369.78v-28.44c-15.71,0-28.44,12.73-28.44,28.44h28.44Z"/>
    <path class="st0" d="M199.11,341.33v28.44c15.71,0,28.44-12.73,28.44-28.44h-28.44Z"/>
    <path class="st0" d="M142.22,369.78v-28.44c-15.71,0-28.44,12.73-28.44,28.44h28.44Z"/>
    <path class="st0" d="M142.22,341.33v28.44c15.71,0,28.44-12.73,28.44-28.44h-28.44Z"/>
    <path class="st0" d="M142.22,398.22v-28.44c15.71,0,28.44,12.73,28.44,28.44h-28.44Z"/>
    <path class="st0" d="M142.22,369.78v28.44c-15.71,0-28.44-12.73-28.44-28.44h28.44Z"/>
    <path class="st0" d="M199.11,398.22v-28.44c15.71,0,28.44,12.73,28.44,28.44h-28.44Z"/>
    <path class="st0" d="M199.11,369.78v28.44c-15.71,0-28.44-12.73-28.44-28.44h28.44Z"/>
    <path class="st0" d="M199.11,426.67v-28.44c-15.71,0-28.44,12.73-28.44,28.44h28.44Z"/>
    <path class="st0" d="M199.11,398.22v28.44c15.71,0,28.44-12.73,28.44-28.44h-28.44Z"/>
    <path class="st0" d="M142.22,426.67v-28.44c-15.71,0-28.44,12.73-28.44,28.44h28.44Z"/>
    <path class="st0" d="M142.22,398.22v28.44c15.71,0,28.44-12.73,28.44-28.44h-28.44Z"/>
    <path class="st0" d="M142.22,455.11v-28.44c15.71,0,28.44,12.73,28.44,28.44h-28.44Z"/>
    <path class="st0" d="M142.22,426.67v28.44c-15.71,0-28.44-12.73-28.44-28.44h28.44Z"/>
    <path class="st0" d="M199.11,455.11v-28.44c15.71,0,28.44,12.73,28.44,28.44h-28.44Z"/>
    <path class="st0" d="M199.11,426.67v28.44c-15.71,0-28.44-12.73-28.44-28.44h28.44Z"/>
    <path class="st0" d="M199.11,483.56v-28.44c-15.71,0-28.44,12.73-28.44,28.44h28.44Z"/>
    <path class="st0" d="M199.11,455.11v28.44c15.71,0,28.44-12.73,28.44-28.44h-28.44Z"/>
    <path class="st0" d="M199.11,540.45v-28.44c-15.71,0-28.44,12.73-28.44,28.44h28.44Z"/>
    <path class="st0" d="M199.11,512v28.44c15.71,0,28.44-12.73,28.44-28.44h-28.44Z"/>
    <path class="st0" d="M142.22,483.56v-28.44c-15.71,0-28.44,12.73-28.44,28.44h28.44Z"/>
    <path class="st0" d="M142.22,455.11v28.44c15.71,0,28.44-12.73,28.44-28.44h-28.44Z"/>
    <path class="st0" d="M142.22,540.45v-28.44c-15.71,0-28.44,12.73-28.44,28.44h28.44Z"/>
    <path class="st0" d="M142.22,512v28.44c15.71,0,28.44-12.73,28.44-28.44h-28.44Z"/>
    <path class="st0" d="M142.22,512v-28.44c15.71,0,28.44,12.73,28.44,28.44h-28.44Z"/>
    <path class="st0" d="M142.22,483.56v28.44c-15.71,0-28.44-12.73-28.44-28.44h28.44Z"/>
    <path class="st0" d="M142.22,568.89v-28.44c15.71,0,28.44,12.73,28.44,28.44h-28.44Z"/>
    <path class="st0" d="M142.22,540.45v28.44c-15.71,0-28.44-12.73-28.44-28.44h28.44Z"/>
    <path class="st0" d="M199.11,512v-28.44c15.71,0,28.44,12.73,28.44,28.44h-28.44Z"/>
    <path class="st0" d="M199.11,483.56v28.44c-15.71,0-28.44-12.73-28.44-28.44h28.44Z"/>
    <path class="st0" d="M199.11,568.89v-28.44c15.71,0,28.44,12.73,28.44,28.44h-28.44Z"/>
    <path class="st0" d="M199.11,540.45v28.44c-15.71,0-28.44-12.73-28.44-28.44h28.44Z"/>
    <path class="st0" d="M199.11,597.33v-28.44c-15.71,0-28.44,12.73-28.44,28.44h28.44Z"/>
    <path class="st0" d="M199.11,568.89v28.44c15.71,0,28.44-12.73,28.44-28.44h-28.44Z"/>
    <path class="st0" d="M142.22,597.33v-28.44c-15.71,0-28.44,12.73-28.44,28.44h28.44Z"/>
    <path class="st0" d="M142.22,568.89v28.44c15.71,0,28.44-12.73,28.44-28.44h-28.44Z"/>
    <path class="st0" d="M142.22,625.78v-28.44c15.71,0,28.44,12.73,28.44,28.44h-28.44Z"/>
    <path class="st0" d="M142.22,597.33v28.44c-15.71,0-28.44-12.73-28.44-28.44h28.44Z"/>
    <path class="st0" d="M199.11,625.78v-28.44c15.71,0,28.44,12.73,28.44,28.44h-28.44Z"/>
    <path class="st0" d="M199.11,597.33v28.44c-15.71,0-28.44-12.73-28.44-28.44h28.44Z"/>
    <path class="st0" d="M199.11,654.22v-28.44c-15.71,0-28.44,12.73-28.44,28.44h28.44Z"/>
    <path class="st0" d="M199.11,625.78v28.44c15.71,0,28.44-12.73,28.44-28.44h-28.44Z"/>
    <path class="st0" d="M199.11,711.11v-28.44c-15.71,0-28.44,12.73-28.44,28.44h28.44Z"/>
    <path class="st0" d="M199.11,682.67v28.44c15.71,0,28.44-12.73,28.44-28.44h-28.44Z"/>
    <path class="st0" d="M142.22,654.22v-28.44c-15.71,0-28.44,12.73-28.44,28.44h28.44Z"/>
    <path class="st0" d="M142.22,625.78v28.44c15.71,0,28.44-12.73,28.44-28.44h-28.44Z"/>
    <path class="st0" d="M142.22,711.11v-28.44c-15.71,0-28.44,12.73-28.44,28.44h28.44Z"/>
    <path class="st0" d="M142.22,682.67v28.44c15.71,0,28.44-12.73,28.44-28.44h-28.44Z"/>
    <path class="st0" d="M142.22,682.67v-28.44c15.71,0,28.44,12.73,28.44,28.44h-28.44Z"/>
    <path class="st0" d="M142.22,654.22v28.44c-15.71,0-28.44-12.73-28.44-28.44h28.44Z"/>
    <path class="st0" d="M199.11,682.67v-28.44c15.71,0,28.44,12.73,28.44,28.44h-28.44Z"/>
    <path class="st0" d="M199.11,654.22v28.44c-15.71,0-28.44-12.73-28.44-28.44h28.44Z"/>
    <path class="st0" d="M199.11,739.55v-28.44c15.71,0,28.44,12.73,28.44,28.44h-28.44Z"/>
    <path class="st0" d="M199.11,711.11v28.44c-15.71,0-28.44-12.73-28.44-28.44h28.44Z"/>
    <path class="st0" d="M199.11,768v-28.44c-15.71,0-28.44,12.73-28.44,28.44h28.44Z"/>
    <path class="st0" d="M199.11,739.55v28.44c15.71,0,28.44-12.73,28.44-28.44h-28.44Z"/>
    <path class="st0" d="M199.11,796.44v-28.44c15.71,0,28.44,12.73,28.44,28.44h-28.44Z"/>
    <path class="st0" d="M199.11,768v28.44c-15.71,0-28.44-12.73-28.44-28.44h28.44Z"/>
    <path class="st0" d="M1337.56,455.11v-28.44c15.71,0,28.44,12.73,28.44,28.44h-28.44Z"/>
    <path class="st0" d="M1337.56,426.67v28.44c-15.71,0-28.44-12.73-28.44-28.44h28.44Z"/>
    <path class="st0" d="M1337.56,483.56v-28.44c-15.71,0-28.44,12.73-28.44,28.44h28.44Z"/>
    <path class="st0" d="M1337.56,455.11v28.44c15.71,0,28.44-12.73,28.44-28.44h-28.44Z"/>
    <path class="st0" d="M1337.56,540.44v-28.44c-15.71,0-28.44,12.73-28.44,28.44h28.44Z"/>
    <path class="st0" d="M1337.56,512v28.44c15.71,0,28.44-12.73,28.44-28.44h-28.44Z"/>
    <path class="st0" d="M1280.67,483.56v-28.44c-15.71,0-28.44,12.73-28.44,28.44h28.44Z"/>
    <path class="st0" d="M1280.67,455.11v28.44c15.71,0,28.44-12.73,28.44-28.44h-28.44Z"/>
    <path class="st0" d="M1280.67,540.44v-28.44c-15.71,0-28.44,12.73-28.44,28.44h28.44Z"/>
    <path class="st0" d="M1280.67,512v28.44c15.71,0,28.44-12.73,28.44-28.44h-28.44Z"/>
    <path class="st0" d="M1280.67,512v-28.44c15.71,0,28.44,12.73,28.44,28.44h-28.44Z"/>
    <path class="st0" d="M1280.67,483.56v28.44c-15.71,0-28.44-12.73-28.44-28.44h28.44Z"/>
    <path class="st0" d="M1280.67,568.89v-28.44c15.71,0,28.44,12.73,28.44,28.44h-28.44Z"/>
    <path class="st0" d="M1280.67,540.44v28.44c-15.71,0-28.44-12.73-28.44-28.44h28.44Z"/>
    <path class="st0" d="M1337.56,512v-28.44c15.71,0,28.44,12.73,28.44,28.44h-28.44Z"/>
    <path class="st0" d="M1337.56,483.56v28.44c-15.71,0-28.44-12.73-28.44-28.44h28.44Z"/>
    <path class="st0" d="M1337.56,568.89v-28.44c15.71,0,28.44,12.73,28.44,28.44h-28.44Z"/>
    <path class="st0" d="M1337.56,540.44v28.44c-15.71,0-28.44-12.73-28.44-28.44h28.44Z"/>
    <path class="st0" d="M1337.56,597.33v-28.44c-15.71,0-28.44,12.73-28.44,28.44h28.44Z"/>
    <path class="st0" d="M1337.56,568.89v28.44c15.71,0,28.44-12.73,28.44-28.44h-28.44Z"/>
    <path class="st0" d="M1337.56,654.22v-28.44c-15.71,0-28.44,12.73-28.44,28.44h28.44Z"/>
    <path class="st0" d="M1337.56,625.78v28.44c15.71,0,28.44-12.73,28.44-28.44h-28.44Z"/>
    <path class="st0" d="M996.22,682.67v-28.44c15.71,0,28.44,12.73,28.44,28.44h-28.44Z"/>
    <path class="st0" d="M996.22,654.22v28.44c-15.71,0-28.44-12.73-28.44-28.44h28.44Z"/>
    <path class="st0" d="M1280.67,597.33v-28.44c-15.71,0-28.44,12.73-28.44,28.44h28.44Z"/>
    <path class="st0" d="M1280.67,568.89v28.44c15.71,0,28.44-12.73,28.44-28.44h-28.44Z"/>
    <path class="st0" d="M1280.67,654.22v-28.44c-15.71,0-28.44,12.73-28.44,28.44h28.44Z"/>
    <path class="st0" d="M1280.67,625.78v28.44c15.71,0,28.44-12.73,28.44-28.44h-28.44Z"/>
    <path class="st0" d="M1053.11,682.67v-28.44c15.71,0,28.44,12.73,28.44,28.44h-28.44Z"/>
    <path class="st0" d="M1053.11,654.22v28.44c-15.71,0-28.44-12.73-28.44-28.44h28.44Z"/>
    <path class="st0" d="M1223.78,654.22v-28.44c-15.71,0-28.44,12.73-28.44,28.44h28.44Z"/>
    <path class="st0" d="M1223.78,625.78v28.44c15.71,0,28.44-12.73,28.44-28.44h-28.44Z"/>
    <path class="st0" d="M1110,682.67v-28.44c15.71,0,28.44,12.73,28.44,28.44h-28.44Z"/>
    <path class="st0" d="M1110,654.22v28.44c-15.71,0-28.44-12.73-28.44-28.44h28.44Z"/>
    <path class="st0" d="M1166.89,654.22v-28.44c-15.71,0-28.44,12.73-28.44,28.44h28.44Z"/>
    <path class="st0" d="M1166.89,625.78v28.44c15.71,0,28.44-12.73,28.44-28.44h-28.44Z"/>
    <path class="st0" d="M1166.89,682.67v-28.44c15.71,0,28.44,12.73,28.44,28.44h-28.44Z"/>
    <path class="st0" d="M1166.89,654.22v28.44c-15.71,0-28.44-12.73-28.44-28.44h28.44Z"/>
    <path class="st0" d="M1110,654.22v-28.44c-15.71,0-28.44,12.73-28.44,28.44h28.44Z"/>
    <path class="st0" d="M1110,625.78v28.44c15.71,0,28.44-12.73,28.44-28.44h-28.44Z"/>
    <path class="st0" d="M1223.78,682.67v-28.44c15.71,0,28.44,12.73,28.44,28.44h-28.44Z"/>
    <path class="st0" d="M1223.78,654.22v28.44c-15.71,0-28.44-12.73-28.44-28.44h28.44Z"/>
    <path class="st0" d="M1223.78,597.33v-28.44c-15.71,0-28.44,12.73-28.44,28.44h28.44Z"/>
    <path class="st0" d="M1223.78,568.89v28.44c15.71,0,28.44-12.73,28.44-28.44h-28.44Z"/>
    <path class="st0" d="M1223.78,625.78v-28.44c15.71,0,28.44,12.73,28.44,28.44h-28.44Z"/>
    <path class="st0" d="M1223.78,597.33v28.44c-15.71,0-28.44-12.73-28.44-28.44h28.44Z"/>
    <path class="st0" d="M1280.67,625.78v-28.44c15.71,0,28.44,12.73,28.44,28.44h-28.44Z"/>
    <path class="st0" d="M1280.67,597.33v28.44c-15.71,0-28.44-12.73-28.44-28.44h28.44Z"/>
    <path class="st0" d="M1053.11,654.22v-28.44c-15.71,0-28.44,12.73-28.44,28.44h28.44Z"/>
    <path class="st0" d="M1053.11,625.78v28.44c15.71,0,28.44-12.73,28.44-28.44h-28.44Z"/>
    <path class="st0" d="M1280.67,682.67v-28.44c15.71,0,28.44,12.73,28.44,28.44h-28.44Z"/>
    <path class="st0" d="M1280.67,654.22v28.44c-15.71,0-28.44-12.73-28.44-28.44h28.44Z"/>
    <path class="st0" d="M1337.56,625.78v-28.44c15.71,0,28.44,12.73,28.44,28.44h-28.44Z"/>
    <path class="st0" d="M1337.56,597.33v28.44c-15.71,0-28.44-12.73-28.44-28.44h28.44Z"/>
    <path class="st0" d="M996.22,654.22v-28.44c-15.71,0-28.44,12.73-28.44,28.44h28.44Z"/>
    <path class="st0" d="M996.22,625.78v28.44c15.71,0,28.44-12.73,28.44-28.44h-28.44Z"/>
    <path class="st0" d="M1337.56,682.67v-28.44c15.71,0,28.44,12.73,28.44,28.44h-28.44Z"/>
    <path class="st0" d="M1337.56,654.22v28.44c-15.71,0-28.44-12.73-28.44-28.44h28.44Z"/>
    <path class="st0" d="M1337.56,711.11v-28.44c-15.71,0-28.44,12.73-28.44,28.44h28.44Z"/>
    <path class="st0" d="M1337.56,682.67v28.44c15.71,0,28.44-12.73,28.44-28.44h-28.44Z"/>
    <path class="st0" d="M996.22,739.56v-28.44c15.71,0,28.44,12.73,28.44,28.44h-28.44Z"/>
    <path class="st0" d="M996.22,711.11v28.44c-15.71,0-28.44-12.73-28.44-28.44h28.44Z"/>
    <path class="st0" d="M1337.56,768v-28.44c-15.71,0-28.44,12.73-28.44,28.44h28.44Z"/>
    <path class="st0" d="M1337.56,739.56v28.44c15.71,0,28.44-12.73,28.44-28.44h-28.44Z"/>
    <path class="st0" d="M1280.67,711.11v-28.44c-15.71,0-28.44,12.73-28.44,28.44h28.44Z"/>
    <path class="st0" d="M1280.67,682.67v28.44c15.71,0,28.44-12.73,28.44-28.44h-28.44Z"/>
    <path class="st0" d="M1053.11,739.56v-28.44c15.71,0,28.44,12.73,28.44,28.44h-28.44Z"/>
    <path class="st0" d="M1053.11,711.11v28.44c-15.71,0-28.44-12.73-28.44-28.44h28.44Z"/>
    <path class="st0" d="M1280.67,768v-28.44c-15.71,0-28.44,12.73-28.44,28.44h28.44Z"/>
    <path class="st0" d="M1280.67,739.56v28.44c15.71,0,28.44-12.73,28.44-28.44h-28.44Z"/>
    <path class="st0" d="M1223.78,711.11v-28.44c-15.71,0-28.44,12.73-28.44,28.44h28.44Z"/>
    <path class="st0" d="M1223.78,682.67v28.44c15.71,0,28.44-12.73,28.44-28.44h-28.44Z"/>
    <path class="st0" d="M1110,739.56v-28.44c15.71,0,28.44,12.73,28.44,28.44h-28.44Z"/>
    <path class="st0" d="M1110,711.11v28.44c-15.71,0-28.44-12.73-28.44-28.44h28.44Z"/>
    <path class="st0" d="M1223.78,768v-28.44c-15.71,0-28.44,12.73-28.44,28.44h28.44Z"/>
    <path class="st0" d="M1223.78,739.56v28.44c15.71,0,28.44-12.73,28.44-28.44h-28.44Z"/>
    <path class="st0" d="M1166.89,711.11v-28.44c-15.71,0-28.44,12.73-28.44,28.44h28.44Z"/>
    <path class="st0" d="M1166.89,682.67v28.44c15.71,0,28.44-12.73,28.44-28.44h-28.44Z"/>
    <path class="st0" d="M1166.89,739.56v-28.44c15.71,0,28.44,12.73,28.44,28.44h-28.44Z"/>
    <path class="st0" d="M1166.89,711.11v28.44c-15.71,0-28.44-12.73-28.44-28.44h28.44Z"/>
    <path class="st0" d="M1166.89,768v-28.44c-15.71,0-28.44,12.73-28.44,28.44h28.44Z"/>
    <path class="st0" d="M1166.89,739.56v28.44c15.71,0,28.44-12.73,28.44-28.44h-28.44Z"/>
    <path class="st0" d="M1110,711.11v-28.44c-15.71,0-28.44,12.73-28.44,28.44h28.44Z"/>
    <path class="st0" d="M1110,682.67v28.44c15.71,0,28.44-12.73,28.44-28.44h-28.44Z"/>
    <path class="st0" d="M1223.78,739.56v-28.44c15.71,0,28.44,12.73,28.44,28.44h-28.44Z"/>
    <path class="st0" d="M1223.78,711.11v28.44c-15.71,0-28.44-12.73-28.44-28.44h28.44Z"/>
    <path class="st0" d="M1110,768v-28.44c-15.71,0-28.44,12.73-28.44,28.44h28.44Z"/>
    <path class="st0" d="M1110,739.56v28.44c15.71,0,28.44-12.73,28.44-28.44h-28.44Z"/>
    <path class="st0" d="M1053.11,711.11v-28.44c-15.71,0-28.44,12.73-28.44,28.44h28.44Z"/>
    <path class="st0" d="M1053.11,682.67v28.44c15.71,0,28.44-12.73,28.44-28.44h-28.44Z"/>
    <path class="st0" d="M1280.67,739.56v-28.44c15.71,0,28.44,12.73,28.44,28.44h-28.44Z"/>
    <path class="st0" d="M1280.67,711.11v28.44c-15.71,0-28.44-12.73-28.44-28.44h28.44Z"/>
    <path class="st0" d="M1053.11,768v-28.44c-15.71,0-28.44,12.73-28.44,28.44h28.44Z"/>
    <path class="st0" d="M1053.11,739.56v28.44c15.71,0,28.44-12.73,28.44-28.44h-28.44Z"/>
    <path class="st0" d="M996.22,711.11v-28.44c-15.71,0-28.44,12.73-28.44,28.44h28.44Z"/>
    <path class="st0" d="M996.22,682.67v28.44c15.71,0,28.44-12.73,28.44-28.44h-28.44Z"/>
    <path class="st0" d="M427.34,682.67v-28.44c15.71,0,28.44,12.73,28.44,28.44h-28.44Z"/>
    <path class="st0" d="M427.34,654.22v28.44c-15.71,0-28.44-12.73-28.44-28.44h28.44Z"/>
    <path class="st0" d="M484.23,682.67v-28.44c15.71,0,28.44,12.73,28.44,28.44h-28.44Z"/>
    <path class="st0" d="M484.23,654.22v28.44c-15.71,0-28.44-12.73-28.44-28.44h28.44Z"/>
    <path class="st0" d="M541.12,682.67v-28.44c15.71,0,28.44,12.73,28.44,28.44h-28.44Z"/>
    <path class="st0" d="M541.12,654.22v28.44c-15.71,0-28.44-12.73-28.44-28.44h28.44Z"/>
    <path class="st0" d="M598,654.22v-28.44c-15.71,0-28.44,12.73-28.44,28.44h28.44Z"/>
    <path class="st0" d="M598,625.78v28.44c15.71,0,28.44-12.73,28.44-28.44h-28.44Z"/>
    <path class="st0" d="M598,682.67v-28.44c15.71,0,28.44,12.73,28.44,28.44h-28.44Z"/>
    <path class="st0" d="M598,654.22v28.44c-15.71,0-28.44-12.73-28.44-28.44h28.44Z"/>
    <path class="st0" d="M541.12,654.22v-28.44c-15.71,0-28.44,12.73-28.44,28.44h28.44Z"/>
    <path class="st0" d="M541.12,625.78v28.44c15.71,0,28.44-12.73,28.44-28.44h-28.44Z"/>
    <path class="st0" d="M541.12,625.78v-28.44c15.71,0,28.44,12.73,28.44,28.44h-28.44Z"/>
    <path class="st0" d="M541.12,597.33v28.44c-15.71,0-28.44-12.73-28.44-28.44h28.44Z"/>
    <path class="st0" d="M598,597.33v-28.44c-15.71,0-28.44,12.73-28.44,28.44h28.44Z"/>
    <path class="st0" d="M598,568.89v28.44c15.71,0,28.44-12.73,28.44-28.44h-28.44Z"/>
    <path class="st0" d="M598,625.78v-28.44c15.71,0,28.44,12.73,28.44,28.44h-28.44Z"/>
    <path class="st0" d="M598,597.33v28.44c-15.71,0-28.44-12.73-28.44-28.44h28.44Z"/>
    <path class="st0" d="M541.12,597.33v-28.44c-15.71,0-28.44,12.73-28.44,28.44h28.44Z"/>
    <path class="st0" d="M541.12,568.89v28.44c15.71,0,28.44-12.73,28.44-28.44h-28.44Z"/>
    <path class="st0" d="M484.23,654.22v-28.44c-15.71,0-28.44,12.73-28.44,28.44h28.44Z"/>
    <path class="st0" d="M484.23,625.78v28.44c15.71,0,28.44-12.73,28.44-28.44h-28.44Z"/>
    <path class="st0" d="M427.34,654.22v-28.44c-15.71,0-28.44,12.73-28.44,28.44h28.44Z"/>
    <path class="st0" d="M427.34,625.78v28.44c15.71,0,28.44-12.73,28.44-28.44h-28.44Z"/>
    <path class="st0" d="M598,711.11v-28.44c-15.71,0-28.44,12.73-28.44,28.44h28.44Z"/>
    <path class="st0" d="M598,682.67v28.44c15.71,0,28.44-12.73,28.44-28.44h-28.44Z"/>
    <path class="st0" d="M541.12,711.11v-28.44c-15.71,0-28.44,12.73-28.44,28.44h28.44Z"/>
    <path class="st0" d="M541.12,682.67v28.44c15.71,0,28.44-12.73,28.44-28.44h-28.44Z"/>
    <path class="st0" d="M484.23,711.11v-28.44c-15.71,0-28.44,12.73-28.44,28.44h28.44Z"/>
    <path class="st0" d="M484.23,682.67v28.44c15.71,0,28.44-12.73,28.44-28.44h-28.44Z"/>
    <path class="st0" d="M427.34,711.11v-28.44c-15.71,0-28.44,12.73-28.44,28.44h28.44Z"/>
    <path class="st0" d="M427.34,682.67v28.44c15.71,0,28.44-12.73,28.44-28.44h-28.44Z"/>
    <path class="st0" d="M427.34,739.56v-28.44c15.71,0,28.44,12.73,28.44,28.44h-28.44Z"/>
    <path class="st0" d="M427.34,711.11v28.44c-15.71,0-28.44-12.73-28.44-28.44h28.44Z"/>
    <path class="st0" d="M484.23,739.56v-28.44c15.71,0,28.44,12.73,28.44,28.44h-28.44Z"/>
    <path class="st0" d="M484.23,711.11v28.44c-15.71,0-28.44-12.73-28.44-28.44h28.44Z"/>
    <path class="st0" d="M484.23,768v-28.44c-15.71,0-28.44,12.73-28.44,28.44h28.44Z"/>
    <path class="st0" d="M484.23,739.56v28.44c15.71,0,28.44-12.73,28.44-28.44h-28.44Z"/>
    <path class="st0" d="M427.34,768v-28.44c-15.71,0-28.44,12.73-28.44,28.44h28.44Z"/>
    <path class="st0" d="M427.34,739.56v28.44c15.71,0,28.44-12.73,28.44-28.44h-28.44Z"/>
    <path class="st0" d="M370.45,768v-28.44c-15.71,0-28.44,12.73-28.44,28.44h28.44Z"/>
    <path class="st0" d="M370.45,739.56v28.44c15.71,0,28.44-12.73,28.44-28.44h-28.44Z"/>
    <path class="st0" d="M1337.56,739.56v-28.44c15.71,0,28.44,12.73,28.44,28.44h-28.44Z"/>
    <path class="st0" d="M1337.56,711.11v28.44c-15.71,0-28.44-12.73-28.44-28.44h28.44Z"/>
    <path class="st0" d="M996.22,768v-28.44c-15.71,0-28.44,12.73-28.44,28.44h28.44Z"/>
    <path class="st0" d="M996.22,739.56v28.44c15.71,0,28.44-12.73,28.44-28.44h-28.44Z"/>
    <path class="st0" d="M598.01,739.56v-28.44c15.71,0,28.44,12.73,28.44,28.44h-28.44Z"/>
    <path class="st0" d="M598.01,711.11v28.44c-15.71,0-28.44-12.73-28.44-28.44h28.44Z"/>
    <path class="st0" d="M939.34,768v-28.44c-15.71,0-28.44,12.73-28.44,28.44h28.44Z"/>
    <path class="st0" d="M939.34,739.56v28.44c15.71,0,28.44-12.73,28.44-28.44h-28.44Z"/>
    <path class="st0" d="M654.89,739.56v-28.44c15.71,0,28.44,12.73,28.44,28.44h-28.44Z"/>
    <path class="st0" d="M654.89,711.11v28.44c-15.71,0-28.44-12.73-28.44-28.44h28.44Z"/>
    <path class="st0" d="M882.45,768v-28.44c-15.71,0-28.44,12.73-28.44,28.44h28.44Z"/>
    <path class="st0" d="M882.45,739.56v28.44c15.71,0,28.44-12.73,28.44-28.44h-28.44Z"/>
    <path class="st0" d="M711.78,739.56v-28.44c15.71,0,28.44,12.73,28.44,28.44h-28.44Z"/>
    <path class="st0" d="M711.78,711.11v28.44c-15.71,0-28.44-12.73-28.44-28.44h28.44Z"/>
    <path class="st0" d="M825.56,768v-28.44c-15.71,0-28.44,12.73-28.44,28.44h28.44Z"/>
    <path class="st0" d="M825.56,739.56v28.44c15.71,0,28.44-12.73,28.44-28.44h-28.44Z"/>
    <path class="st0" d="M768.67,739.56v-28.44c15.71,0,28.44,12.73,28.44,28.44h-28.44Z"/>
    <path class="st0" d="M768.67,711.11v28.44c-15.71,0-28.44-12.73-28.44-28.44h28.44Z"/>
    <path class="st0" d="M768.67,768v-28.44c-15.71,0-28.44,12.73-28.44,28.44h28.44Z"/>
    <path class="st0" d="M768.67,739.56v28.44c15.71,0,28.44-12.73,28.44-28.44h-28.44Z"/>
    <path class="st0" d="M825.56,739.56v-28.44c15.71,0,28.44,12.73,28.44,28.44h-28.44Z"/>
    <path class="st0" d="M825.56,711.11v28.44c-15.71,0-28.44-12.73-28.44-28.44h28.44Z"/>
    <path class="st0" d="M711.78,768v-28.44c-15.71,0-28.44,12.73-28.44,28.44h28.44Z"/>
    <path class="st0" d="M711.78,739.56v28.44c15.71,0,28.44-12.73,28.44-28.44h-28.44Z"/>
    <path class="st0" d="M882.45,739.56v-28.44c15.71,0,28.44,12.73,28.44,28.44h-28.44Z"/>
    <path class="st0" d="M882.45,711.11v28.44c-15.71,0-28.44-12.73-28.44-28.44h28.44Z"/>
    <path class="st0" d="M654.89,768v-28.44c-15.71,0-28.44,12.73-28.44,28.44h28.44Z"/>
    <path class="st0" d="M654.89,739.56v28.44c15.71,0,28.44-12.73,28.44-28.44h-28.44Z"/>
    <path class="st0" d="M939.34,739.56v-28.44c15.71,0,28.44,12.73,28.44,28.44h-28.44Z"/>
    <path class="st0" d="M939.34,711.11v28.44c-15.71,0-28.44-12.73-28.44-28.44h28.44Z"/>
    <path class="st0" d="M598.01,768v-28.44c-15.71,0-28.44,12.73-28.44,28.44h28.44Z"/>
    <path class="st0" d="M598.01,739.56v28.44c15.71,0,28.44-12.73,28.44-28.44h-28.44Z"/>
  </g>
</svg>