<?xml version="1.0" encoding="utf-8"?>
<!-- Generator: Adobe Illustrator 23.0.6, SVG Export Plug-In . SVG Version: 6.00 Build 0)  -->
<svg version="1.1" id="Camada_1" xmlns="http://www.w3.org/2000/svg" xmlns:xlink="http://www.w3.org/1999/xlink" x="0px" y="0px"
	 viewBox="0 0 17 17" style="enable-background:new 0 0 17 17;" xml:space="preserve">
<style type="text/css">
	.st0{fill:#FFF7E0;}
</style>
<g>
	<path class="st0" d="M9,16.2c-4.4,0-8-3.6-8-8s3.6-8,8-8s8,3.6,8,8S13.4,16.2,9,16.2z M9,1.2c-3.9,0-7,3.1-7,7c0,3.9,3.1,7,7,7
		c3.9,0,7-3.1,7-7C16,4.4,12.8,1.2,9,1.2z"/>
</g>
<path class="st0" d="M9,14.2c3.3,0,6-2.7,6-6c0-3.3-2.7-6-6-6V14.2z"/>
</svg>
