<?xml version="1.0" encoding="utf-8"?>
<!-- Generator: Adobe Illustrator 23.0.6, SVG Export Plug-In . SVG Version: 6.00 Build 0)  -->
<svg version="1.1" id="Camada_1" xmlns="http://www.w3.org/2000/svg" xmlns:xlink="http://www.w3.org/1999/xlink" x="0px" y="0px"
	 viewBox="0 0 169 137" style="enable-background:new 0 0 169 137;" xml:space="preserve">
<style type="text/css">
	.st0{fill:#FFFFFF;}
</style>
<path class="st0" d="M149.8,30.9H146c-15.4,0-19.2,7.7-19.2,17.4v13.5h-21.1c-7,0-10.7-2.7-11.4-7.7h11.4c11.5,0,15.4-2.7,15.4-10.6
	c0-4.8-2.9-12.6-15.4-12.6h-3.8c-11.5,0-15.4,5.6-15.4,13.5v1.9H69.1c-7,0-10.7-2.7-11.4-7.7h11.4c11.5,0,15.4-2.7,15.4-10.6
	c0-4.8-2.9-12.6-15.4-12.6h-3.8c-11.5,0-15.4,5.6-15.4,13.5v1.9h-7.7V0h-7.7v30.9H21.1C1.9,30.9,0,38.7,0,50.3v1.9
	c0,9.7,3.8,17.4,19.2,17.4H23c15.4,0,19.2-7.7,19.2-17.4V38.7H50c0.5,8.7,4.8,15.5,19.1,15.5h17.3c0.5,8.7,4.8,15.5,19.1,15.5h21.1
	v34.8h7.7V69.6h13.4c19.2,0,21.1-7.7,21.1-19.3v-1.9C169,38.7,165.2,30.9,149.8,30.9z M34.6,52.2c0,6.3-3.7,9.7-11.5,9.7h-3.8
	c-7.8,0-11.5-3.4-11.5-9.7v-1.9c0-7.7,1.8-11.6,13.4-11.6h13.4V52.2z M57.6,29.1c0-2.7,1.9-5.9,7.7-5.9h3.8c5.8,0,7.7,1.9,7.7,3.9
	c0,2.7-1.9,3.9-7.7,3.9H57.6V29.1z M94.1,44.6c0-2.7,1.9-5.9,7.7-5.9h3.8c5.8,0,7.7,1.9,7.7,3.9c0,2.7-1.9,3.9-7.7,3.9H94.1V44.6z
	 M147.9,61.9h-13.4V48.3c0-6.3,3.7-9.7,11.5-9.7h3.8c7.8,0,11.5,3.4,11.5,9.7v1.9C161.3,58,159.6,61.9,147.9,61.9z"/>
<path class="st0" d="M13.8,104.4h-2.1V102h-0.3c-0.8,1.4-2.3,2.7-5.1,2.7c-3.5,0-6.3-2.8-6.3-7.1c0-4.4,2.8-7.1,6.3-7.1
	c2.8,0,4.3,1.3,5,2.6h0.3V85h2.1L13.8,104.4L13.8,104.4z M2.2,97.6c0,3.3,1.9,5.3,4.7,5.3c2.8,0,4.8-2,4.8-5.3c0-3.2-2-5.3-4.8-5.3
	C4.1,92.4,2.2,94.4,2.2,97.6z"/>
<path class="st0" d="M23.6,90.5c3.8,0,6.5,2.5,6.5,6.7v1.1H19c0.2,2.8,2.1,4.6,4.7,4.6c2.3,0,3.5-1.2,4.2-2.7l1.8,0.9
	c-0.9,1.6-2.4,3.7-6,3.7c-4.2,0-6.9-3.1-6.9-7.2C16.9,93.5,19.7,90.5,23.6,90.5z M27.9,96.5c-0.1-2.7-1.8-4.1-4.3-4.1
	c-2.5,0-4.2,1.6-4.5,4.1H27.9z"/>
<path class="st0" d="M37.7,90.5c3,0,4.9,1.5,5.5,4L41.2,95c-0.4-2-1.7-2.8-3.5-2.8c-1.8,0-3,0.7-3,2.1c0,1.3,1.2,1.9,2.7,2.1
	l1.4,0.2c2.7,0.5,4.8,1.3,4.8,4c0,2.6-2.1,4.2-5.4,4.2c-3.3,0-5.8-1.5-6.3-4.9l2-0.5c0.4,2.8,2.2,3.6,4.3,3.6c2.1,0,3.3-0.9,3.3-2.3
	c0-1.4-1.2-1.9-3.1-2.2l-1.4-0.2c-2.5-0.4-4.5-1.5-4.5-3.9C32.6,92,34.6,90.5,37.7,90.5z"/>
<path class="st0" d="M47.8,84.9c1,0,1.8,0.7,1.8,1.7c0,1-0.8,1.8-1.8,1.8c-1,0-1.8-0.7-1.8-1.8C46,85.7,46.7,84.9,47.8,84.9z
	 M48.8,104.4h-2.1V90.9h2.1V104.4z"/>
<path class="st0" d="M65.7,90.9v12.8c0,4.2-2.7,6.6-6.8,6.6c-4,0-6-2.4-6.6-4.4l1.9-0.7c0.5,1.6,1.9,3.3,4.7,3.3
	c2.8,0,4.7-1.7,4.7-4.9v-1.7h-0.3c-0.8,1.3-2.3,2.6-5,2.6c-3.5,0-6.3-2.7-6.3-7c0-4.2,2.8-7,6.3-7c2.8,0,4.3,1.3,5.1,2.7h0.3v-2.3
	H65.7z M63.6,97.5c0-3.1-2-5.1-4.8-5.1c-2.8,0-4.7,2-4.7,5.1c0,3.2,1.9,5.1,4.7,5.1C61.6,102.6,63.6,100.6,63.6,97.5z"/>
<path class="st0" d="M71.7,90.9v2.3H72c0.6-1.3,2-2.5,4.7-2.5c2.9,0,5.3,2,5.3,5.6v8.2H80v-8c0-2.7-1.5-3.9-3.8-3.9
	c-2.6,0-4.4,1.7-4.4,5.1v6.8h-2.1V90.9H71.7z"/>
<path class="st0" d="M6.7,117.6c3.8,0,6.5,2.5,6.5,6.7v1.1h-11c0.2,2.8,2.1,4.6,4.7,4.6c2.3,0,3.5-1.2,4.2-2.7l1.8,0.9
	c-0.9,1.6-2.4,3.7-6,3.7c-4.2,0-6.9-3.1-6.9-7.2C0,120.6,2.8,117.6,6.7,117.6z M11,123.6c-0.1-2.7-1.8-4.1-4.3-4.1
	c-2.5,0-4.2,1.6-4.5,4.1H11z"/>
<path class="st0" d="M24.7,118h2.1v2.3H27c0.8-1.4,2.3-2.7,5.1-2.7c3.5,0,6.3,2.8,6.3,7.1c0,4.3-2.8,7.1-6.3,7.1
	c-2.8,0-4.2-1.3-5-2.7h-0.3v7.8h-2.1V118z M36.3,124.7c0-3.3-1.9-5.3-4.7-5.3c-2.8,0-4.8,2-4.8,5.3c0,3.2,2,5.3,4.8,5.3
	C34.3,130,36.3,128,36.3,124.7z"/>
<path class="st0" d="M47.4,117.6c3.8,0,6.5,2.5,6.5,6.7v1.1h-11c0.2,2.8,2.1,4.6,4.7,4.6c2.3,0,3.5-1.2,4.2-2.7l1.8,0.9
	c-0.9,1.6-2.4,3.7-6,3.7c-4.2,0-6.9-3.1-6.9-7.2C40.6,120.6,43.5,117.6,47.4,117.6z M51.7,123.6c-0.1-2.7-1.8-4.1-4.3-4.1
	c-2.5,0-4.2,1.6-4.5,4.1H51.7z"/>
<path class="st0" d="M61.5,117.6c3,0,4.9,1.5,5.5,4l-1.9,0.5c-0.4-2-1.7-2.8-3.5-2.8c-1.8,0-3,0.7-3,2.1c0,1.3,1.2,1.9,2.7,2.1
	l1.4,0.2c2.7,0.5,4.8,1.3,4.8,4c0,2.6-2.1,4.2-5.4,4.2c-3.3,0-5.8-1.5-6.3-4.9l2-0.5c0.4,2.8,2.2,3.6,4.3,3.6c2.1,0,3.3-0.9,3.3-2.3
	c0-1.4-1.2-1.9-3.1-2.2l-1.4-0.2c-2.5-0.4-4.5-1.5-4.5-3.9C56.4,119.1,58.4,117.6,61.5,117.6z"/>
<path class="st0" d="M81.3,137v-7.8H81c-0.8,1.3-2.2,2.7-5,2.7c-3.5,0-6.3-2.8-6.3-7.1c0-4.4,2.8-7.1,6.3-7.1c2.8,0,4.3,1.3,5.1,2.7
	h0.3V118h2.1v19H81.3z M81.3,124.7c0-3.2-2-5.3-4.8-5.3c-2.8,0-4.7,2-4.7,5.3c0,3.3,1.9,5.3,4.7,5.3C79.3,130,81.3,128,81.3,124.7z"
	/>
<path class="st0" d="M97.6,131.5v-2.3h-0.3c-0.7,1.3-2,2.5-4.8,2.5c-2.9,0-5.3-1.9-5.3-5.6V118h2.1v8c0,2.7,1.5,3.9,3.8,3.9
	c2.6,0,4.4-1.7,4.4-5.1V118h2.1v13.5H97.6z"/>
<path class="st0" d="M104.7,112c1,0,1.8,0.7,1.8,1.7c0,1-0.8,1.8-1.8,1.8c-1,0-1.8-0.7-1.8-1.8C102.9,112.8,103.7,112,104.7,112z
	 M105.8,131.5h-2.1V118h2.1V131.5z"/>
<path class="st0" d="M114.5,117.6c3,0,4.9,1.5,5.5,4l-1.9,0.5c-0.4-2-1.7-2.8-3.5-2.8c-1.8,0-3,0.7-3,2.1c0,1.3,1.2,1.9,2.7,2.1
	l1.4,0.2c2.7,0.5,4.8,1.3,4.8,4c0,2.6-2.1,4.2-5.4,4.2c-3.3,0-5.8-1.5-6.3-4.9l2-0.5c0.4,2.8,2.2,3.6,4.3,3.6c2.1,0,3.3-0.9,3.3-2.3
	c0-1.4-1.2-1.9-3.1-2.2l-1.4-0.2c-2.5-0.4-4.5-1.5-4.5-3.9S111.4,117.6,114.5,117.6z"/>
<path class="st0" d="M129,117.6c3.4,0,5.4,1.9,5.4,5.1v8.8h-2v-1.9h-0.3c-0.6,1.1-1.8,2.3-4.4,2.3c-2.8,0-4.9-1.5-4.9-4.2
	c0-2.7,2.1-4.1,5-4.1h4.6v-1c0-1.9-1.1-3.2-3.3-3.2c-2.2,0-3.4,1.2-3.8,2.9l-2-0.6C123.8,119.4,125.6,117.6,129,117.6z M128,130.1
	c2.6,0,4.3-1.7,4.3-4.5v-0.3h-4.5c-1.7,0-3,0.8-3,2.3C124.9,129.1,126.1,130.1,128,130.1z"/>
</svg>
