<?xml version="1.0" encoding="utf-8"?>
<!-- Generator: Adobe Illustrator 23.0.6, SVG Export Plug-In . SVG Version: 6.00 Build 0)  -->
<svg version="1.1" id="Camada_1" xmlns="http://www.w3.org/2000/svg" xmlns:xlink="http://www.w3.org/1999/xlink" x="0px" y="0px"
	 viewBox="0 0 492.1 189.1" style="enable-background:new 0 0 492.1 189.1;" xml:space="preserve">
<style type="text/css">
	.st0{fill:#FFFFFF;}
	.st1{fill:#191919;}
	.st2{fill:#CD2800;}
	.st3{fill:#FFA03C;}
	.st4{fill:#690000;}
</style>
<g>
	<g>
		<path class="st0" d="M308,4.6v70.7h-5.7v-4.8c-7.6,7.5-19.8,7.4-27.2-0.2s-7.4-19.8,0.2-27.2c7.5-7.4,19.6-7.4,27.1,0V4.6H308z
			 M302.3,56.7c0-7.5-6.1-13.5-13.5-13.5c-7.5,0-13.5,6.1-13.5,13.5s6.1,13.5,13.5,13.5l0,0C296.2,70.2,302.3,64.2,302.3,56.7z"/>
		<path class="st0" d="M321.1,27.4c-0.1-2.2,1.7-4.1,3.9-4.2c2.2-0.1,4.1,1.7,4.2,3.9s-1.7,4.1-3.9,4.2h-0.1
			C323,31.3,321.2,29.6,321.1,27.4z M322.3,38.2h5.7v37h-5.7V38.2z"/>
		<path class="st0" d="M349.3,43.8v21c-0.1,3,2.3,5.5,5.3,5.6c0.1,0,0.2,0,0.3,0h4.3v4.4c-1.5,0.8-3.2,1.2-4.9,1.2
			c-5.8,0-10.6-4.6-10.6-10.5V43.8h-6.2v-5.6h6.2V22.1h5.7v16.1h9.9v5.6H349.3z"/>
		<path class="st0" d="M366.4,56.7c0-10.6,8.6-19.3,19.3-19.3c10.6,0,19.3,8.6,19.3,19.3c0,10.6-8.6,19.3-19.3,19.3
			C375.1,76,366.5,67.4,366.4,56.7L366.4,56.7z M399.2,56.7c0-7.5-6.1-13.5-13.5-13.5c-7.5,0-13.5,6.1-13.5,13.5
			c0,7.5,6.1,13.5,13.5,13.5l0,0C393.2,70.2,399.2,64.2,399.2,56.7L399.2,56.7z"/>
		<path class="st0" d="M436.8,37.7v5.8c-0.9-0.3-1.9-0.4-2.9-0.4c-6.7-0.1-12.2,5.1-12.3,11.8c0,0.1,0,0.1,0,0.2v20.1h-5.7v-37h5.7
			v5.3c2.9-3.9,7.5-6.1,12.3-6C434.9,37.4,435.8,37.5,436.8,37.7z"/>
		<path class="st0" d="M486,70.4v4.8c-0.8,0.5-1.8,0.8-2.8,0.7c-4,0.1-7.5-2.5-8.5-6.4c-7.1,7.8-19.3,8.4-27.1,1.2
			c-7.8-7.1-8.4-19.3-1.2-27.1c3.7-4,8.8-6.3,14.2-6.2c5.1,0,9.9,2,13.5,5.6v-4.8h5.7v27.4c0,3.4,1.8,4.8,3.8,4.8H486z M474.2,56.7
			c0-7.5-6.1-13.5-13.5-13.5c-7.5,0-13.5,6.1-13.5,13.5s6.1,13.5,13.5,13.5l0,0C468.1,70.2,474.2,64.2,474.2,56.7L474.2,56.7z"/>
		<path class="st0" d="M254,63.5c-3.8,6.5-12.1,8.6-18.6,4.9c-3.9-2.3-6.4-6.3-6.7-10.8h32.7l0.1-1.2c-0.2-10.6-9-19-19.6-18.8
			c-10.6,0.2-19,9-18.8,19.6s9,19,19.6,18.8c6.7-0.1,12.9-3.8,16.2-9.6L254,63.5z M242.3,43.2c5.8,0,10.9,3.7,12.7,9.2h-25.5
			C231.4,46.9,236.5,43.2,242.3,43.2z"/>
	</g>
	<g>
		<path class="st0" d="M220.7,142.6l8.7-4.3c1.1,2.4,3.6,3.9,6.2,3.9c1.9,0,3.2-0.8,3.2-2.3c0-1.3-1.1-2.2-4.4-3.5
			c-4.3-1.6-11.7-4.1-11.7-11.5c0-6.3,5.4-11.8,13.8-11.8c4.6,0,9.1,1.7,12.5,4.9l-5.9,6.7c-1.4-1.7-3.5-2.7-5.7-2.7
			c-2,0-3,0.9-3,2.1c0,1.4,1.3,1.9,4,3.1c5.3,2,11.4,5,11.4,12.4c0,6.9-5.1,12-13.4,12C229.7,151.5,222.9,148.3,220.7,142.6z"/>
		<path class="st0" d="M299.9,141.1v9.6c-1,0.5-2.1,0.7-3.1,0.7c-4.6,0.1-9-2.3-11.4-6.3c-3,4-7.7,6.4-12.7,6.3
			c-10.3,0-18.3-8.5-18.3-19.3s8.1-19.3,18.3-19.3c3.9-0.1,7.7,1.4,10.6,4v-3.2h11.8v23.8c0,3.1,1.7,3.6,3.2,3.6L299.9,141.1z
			 M283.8,132.2c0-4.9-3.9-8.8-8.8-8.8s-8.8,3.9-8.8,8.8c0,4.9,3.9,8.8,8.8,8.8C279.8,141,283.8,137.1,283.8,132.2L283.8,132.2
			L283.8,132.2z"/>
		<path class="st0" d="M347.4,132.2c0,10.7-8.1,19.3-18.2,19.3c-3.9,0.1-7.7-1.4-10.6-4v3.3l-11.8-0.1V87.3h11.8v29.6
			c2.9-2.6,6.7-4,10.6-4C339.3,113,347.4,121.5,347.4,132.2z M335.6,132.2c0-4.9-3.9-8.8-8.8-8.8s-8.8,3.9-8.8,8.8
			c0,4.9,3.9,8.8,8.8,8.8c4.8,0,8.8-3.8,8.8-8.7C335.6,132.3,335.6,132.3,335.6,132.2z"/>
		<path class="st0" d="M355.3,101c0-3.6,2.9-6.5,6.5-6.5s6.5,2.9,6.5,6.5s-2.9,6.5-6.5,6.5l0,0C358.2,107.5,355.3,104.6,355.3,101z
			 M355.9,113.7h11.8v37h-11.8V113.7z"/>
		<path class="st0" d="M421.8,141.1v9.6c-1,0.5-2.1,0.7-3.1,0.7c-4.6,0.1-9-2.3-11.4-6.3c-3,4-7.7,6.4-12.7,6.3
			c-10.3,0-18.3-8.5-18.3-19.3s8.1-19.3,18.3-19.3c3.9-0.1,7.7,1.4,10.6,4v-3.2H417v23.8c0,3.1,1.7,3.6,3.2,3.6L421.8,141.1z
			 M405.7,132.2c0-4.9-3.9-8.8-8.8-8.8s-8.8,3.9-8.8,8.8c0,4.9,3.9,8.8,8.8,8.8C401.7,141,405.7,137.1,405.7,132.2L405.7,132.2
			L405.7,132.2z M399.8,109H392l8.1-13.8h11.2L399.8,109z"/>
	</g>
	<g>
		<path class="st1" d="M172.7,62.1c-4-9.6-9.9-18.3-17.1-25.7c14.6,14.9,23.1,34.9,23.6,55.8C178.9,81.8,176.7,71.7,172.7,62.1z"/>
		<path class="st1" d="M128.4,17.8c-9.5-4-19.7-6.2-30-6.5c20.9,0.6,40.9,9,55.8,23.7C146.8,27.7,138,21.9,128.4,17.8z"/>
		<path class="st1" d="M96,11.3c0.7,0,1.4,0,2.1,0C97.4,11.3,96.7,11.3,96,11.3z"/>
		<path class="st1" d="M179.2,92.4c0,0.7,0,1.4,0,2.1C179.2,93.8,179.2,93.1,179.2,92.4z"/>
		<path class="st1" d="M93.9,11.3c0.7,0,1.4,0,2.1,0C95.3,11.3,94.6,11.3,93.9,11.3z"/>
		<path class="st1" d="M171.3,130.1c0.5-1,1-2.1,1.4-3.2c4-9.5,6.2-19.7,6.5-30C178.9,108.4,176.2,119.7,171.3,130.1L171.3,130.1z"
			/>
		<path class="st1" d="M179.2,94.5c0,0.7,0,1.4,0,2.1C179.2,96,179.2,95.2,179.2,94.5z"/>
		<path class="st1" d="M19.3,62.1c-4,9.5-6.2,19.7-6.5,30c0.6-20.9,9-40.9,23.7-55.8C29.2,43.8,23.4,52.5,19.3,62.1z"/>
		<path class="st1" d="M19.3,126.9c4.1,9.6,9.9,18.4,17.2,25.8c-14.6-14.9-23.1-34.9-23.7-55.8C13.1,107.2,15.3,117.4,19.3,126.9z"
			/>
		<path class="st1" d="M12.8,94.5c0-0.7,0-1.4,0-2.1C12.8,93.1,12.8,93.8,12.8,94.5z"/>
		<path class="st1" d="M12.8,96.7c0-0.7,0-1.4,0-2.1C12.8,95.2,12.8,96,12.8,96.7z"/>
		<path class="st1" d="M63.6,17.8C54,21.9,45.2,27.7,37.8,35c14.9-14.7,34.9-23.1,55.8-23.7C83.3,11.6,73.1,13.8,63.6,17.8z"/>
		<path class="st2" d="M86.5,84.1c-9.1-2.6-31.2-8.8-39.2-11c-1.5-0.4-2.4-2-1.9-3.5c0.2-0.8,0.7-1.4,1.4-1.7
			c7.3-3.4,14.9-6.1,22.8-8c0-0.5,0-1.1,0-1.6c0-13,12.7-27.1,33.2-27.1c1.1,0,2.2,0,3.2,0.1l0,0c10.2,0.6,20,3.9,28.5,9.7
			c8.3,5.7,15.3,13,20.8,21.5c10.7,16.3,17.1,37.4,17.1,56.4c0,3.7-0.4,7.5-1.1,11.1c4.9-10.4,7.6-21.7,7.9-33.2c0-0.1,0-0.2,0-0.2
			c0-0.7,0-1.4,0-2.1s0-1.4,0-2.1c0-0.1,0-0.2,0-0.2c-0.6-20.9-9-40.8-23.6-55.8c-0.2-0.2-0.5-0.5-0.7-0.7s-0.4-0.4-0.6-0.6
			c-15-14.7-34.9-23.1-55.8-23.7h-0.2c-0.7,0-1.4,0-2.1,0s-1.4,0-2.1,0h-0.2C73,12,53,20.4,38.1,35.1c-0.2,0.2-0.4,0.4-0.6,0.6
			s-0.4,0.4-0.6,0.6c-14.7,15-23.1,34.9-23.7,55.8c0,0.1,0,0.2,0,0.2c0,0.7,0,1.4,0,2.1s0,1.4,0,2.1c0,0.1,0,0.2,0,0.2
			c0.6,20.9,9,40.9,23.7,55.8l0.1,0.1L86.5,84.1z"/>
		<path class="st3" d="M93.6,80.2c4.1,1,13.9,3.5,19.9,5.1l0.9,0.2h0.1c20.4,6.2,34.6,14.2,42.1,24c1,1.3,1.9,2.6,2.7,4
			c1.2,1.9,2.1,4,3,6.1l0,0c0.1,0.3,0.2,0.5,0.3,0.8c0,0.1,0.1,0.2,0.1,0.3c0.1,0.2,0.1,0.4,0.2,0.6c0,0.1,0.1,0.2,0.1,0.3
			c0.1,0.2,0.1,0.3,0.2,0.5c0,0.1,0.1,0.2,0.1,0.4s0.1,0.3,0.1,0.5c0,0.1,0.1,0.3,0.1,0.4c0,0.2,0.1,0.3,0.1,0.5
			c0,0.1,0.1,0.3,0.1,0.4c0,0.2,0.1,0.3,0.1,0.5c0,0.1,0.1,0.3,0.1,0.4c0,0.1,0.1,0.3,0.1,0.4c0,0.1,0.1,0.3,0.1,0.4
			c0,0.1,0.1,0.3,0.1,0.4s0,0.3,0.1,0.4s0.1,0.3,0.1,0.4s0,0.3,0.1,0.4s0,0.3,0.1,0.4s0,0.3,0.1,0.4c0,0.1,0,0.3,0.1,0.4
			c0,0.1,0,0.3,0,0.4s0,0.3,0,0.4c0,0.1,0,0.3,0,0.4c0,0.1,0,0.3,0,0.4c0,0.1,0,0.2,0,0.4c0,0.1,0,0.3,0,0.4c0,0.1,0,0.2,0,0.4
			c0,0.1,0,0.3,0,0.4c0,0.1,0,0.2,0,0.4c0,0.1,0,0.3,0,0.4c0,0.1,0,0.2,0,0.2c1.3-4.6,1.9-9.3,1.9-14.1c0-18-6-38-16.2-53.4
			c-8.2-12.4-22.6-27.5-44.8-28.7c-1,0-2-0.1-3-0.1c-17,0-27.5,11.1-27.5,21.5c0,0.6,0,1.2,0,1.7V60c0,0.6,0.1,1.1,0.1,1.6v0.1
			c0.1,1.4-0.8,2.7-2.1,3c-5.7,1.4-11.2,3.1-16.7,5.1c14.8,4.2,34.4,9.7,35.3,9.9l1.5,0.4l0,0L93.6,80.2z M102.8,52.2
			c3.4,0,6.1,2.7,6.1,6.1s-2.7,6.1-6.1,6.1s-6.1-2.7-6.1-6.1l0,0C96.7,54.9,99.4,52.2,102.8,52.2z"/>
		<path class="st1" d="M98.1,177.7c-0.7,0-1.4,0-2.1,0C96.7,177.8,97.4,177.8,98.1,177.7z"/>
		<path class="st1" d="M96,177.8c-0.7,0-1.4,0-2.1,0C94.6,177.8,95.3,177.8,96,177.8z"/>
		<path class="st1" d="M65.4,172c9,3.6,18.5,5.5,28.2,5.8C84,177.5,74.4,175.5,65.4,172L65.4,172z"/>
		<path class="st1" d="M98.4,177.7c17.5-0.5,34.3-6.4,48.2-17.1l0.1-0.1C132.8,171.3,115.9,177.3,98.4,177.7z"/>
		<path class="st2" d="M101,88.3c0.1,0.1,0.1,0.1,0.2,0.2c0.1,0.2,0.3,0.3,0.4,0.5l0.1,0.1c0.2,0.2,0.3,0.4,0.5,0.6
			c0,0.1,0.1,0.1,0.1,0.2l0.3,0.4l0.2,0.3c0.1,0.1,0.2,0.3,0.3,0.4c0.1,0.1,0.1,0.2,0.2,0.3s0.2,0.3,0.3,0.4l0.2,0.3
			c0.1,0.1,0.2,0.3,0.3,0.4c0.1,0.1,0.1,0.2,0.2,0.3s0.2,0.3,0.3,0.5c0.1,0.1,0.1,0.2,0.2,0.3c0.1,0.2,0.2,0.4,0.3,0.5
			c0,0.1,0.1,0.1,0.1,0.2c0.1,0.3,0.3,0.5,0.4,0.8l0.1,0.2c0.1,0.2,0.2,0.4,0.3,0.6c0.1,0.1,0.1,0.2,0.2,0.3
			c0.1,0.2,0.2,0.3,0.3,0.5l0.2,0.3c0.1,0.2,0.2,0.3,0.3,0.5c0.1,0.1,0.1,0.2,0.2,0.4s0.2,0.3,0.2,0.5c0.1,0.1,0.1,0.2,0.2,0.4
			s0.2,0.4,0.2,0.5c0.1,0.1,0.1,0.2,0.2,0.4s0.2,0.4,0.3,0.6c0,0.1,0.1,0.2,0.1,0.3c0.1,0.3,0.2,0.6,0.3,0.8v0.1
			c0.1,0.3,0.2,0.6,0.3,0.9c0,0.1,0.1,0.2,0.1,0.3c0.1,0.2,0.2,0.4,0.2,0.7c0,0.1,0.1,0.3,0.1,0.4c0.1,0.2,0.1,0.4,0.2,0.6
			c0,0.1,0.1,0.3,0.1,0.4c0.1,0.2,0.1,0.4,0.2,0.6c0,0.1,0.1,0.3,0.1,0.4c0.1,0.2,0.1,0.4,0.2,0.6c0,0.1,0.1,0.3,0.1,0.4
			c0.1,0.2,0.1,0.4,0.2,0.7c0,0.1,0.1,0.3,0.1,0.4c0.1,0.3,0.1,0.5,0.2,0.8c0,0.1,0,0.2,0.1,0.3c0.1,0.4,0.1,0.7,0.2,1.1
			c0,0.1,0,0.2,0,0.3c0,0.3,0.1,0.6,0.1,0.9c0,0.1,0,0.3,0.1,0.4c0,0.2,0.1,0.5,0.1,0.7s0,0.3,0.1,0.5c0,0.2,0.1,0.5,0.1,0.7
			s0,0.3,0.1,0.5c0,0.2,0,0.5,0.1,0.7c0,0.2,0,0.3,0,0.5s0,0.5,0,0.8c0,0.2,0,0.3,0,0.5c0,0.3,0,0.6,0,0.8c0,0.1,0,0.3,0,0.4
			c0,0.4,0,0.8,0,1.3c0,3-0.3,5.9-0.9,8.8c-0.2,0.8-0.4,1.6-0.6,2.4c-0.6,2-1.3,4-2.2,5.9c-0.4,0.8-0.7,1.5-1.1,2.3
			c-0.6,1.1-1.3,2.3-2,3.4c-3.5,5.2-7.8,9.9-12.7,13.8c-6.8,5.4-14.1,10.1-21.8,14c-1,0.5-2,1-3,1.5c-0.5,0.3-1,0.5-1.5,0.8
			c-0.1,0.1-0.2,0.1-0.4,0.2c9,3.5,18.5,5.5,28.2,5.8H94c0.7,0,1.4,0,2.1,0s1.4,0,2.1,0h0.2c17.5-0.5,34.4-6.5,48.3-17.1
			c3-2.7,5.9-5.6,8.4-8.8l0,0v-0.1c0,0,0-0.1,0.1-0.1l0.1-0.1l0.1-0.2c0,0,0-0.1,0.1-0.1l0.1-0.2l0.1-0.2c0-0.1,0.1-0.2,0.1-0.2
			c0-0.1,0.1-0.1,0.1-0.2s0.1-0.2,0.1-0.3s0.1-0.2,0.1-0.2l0.1-0.3c0-0.1,0.1-0.2,0.1-0.3s0.1-0.2,0.1-0.3s0.1-0.2,0.1-0.3
			s0.1-0.2,0.1-0.4c0-0.1,0.1-0.2,0.1-0.3s0.1-0.3,0.1-0.4c0-0.1,0.1-0.2,0.1-0.4c0-0.1,0.1-0.3,0.1-0.4c0-0.1,0.1-0.2,0.1-0.4
			s0.1-0.3,0.1-0.5c0-0.1,0.1-0.3,0.1-0.4c0-0.2,0.1-0.3,0.1-0.5c0-0.1,0.1-0.3,0.1-0.4c0.1-0.2,0.1-0.4,0.1-0.6
			c0-0.1,0.1-0.3,0.1-0.4c0.1-0.2,0.1-0.5,0.2-0.7c0-0.1,0-0.2,0.1-0.3c0.1-0.3,0.1-0.7,0.2-1c0-0.1,0-0.1,0-0.2
			c0.1-0.3,0.1-0.6,0.2-0.9c0-0.1,0-0.3,0.1-0.4c0-0.2,0.1-0.5,0.1-0.7s0-0.3,0.1-0.5c0-0.2,0.1-0.5,0.1-0.7s0-0.3,0.1-0.5
			c0-0.2,0-0.5,0.1-0.7c0-0.2,0-0.4,0-0.5c0-0.2,0-0.5,0-0.7s0-0.4,0-0.6c0-0.2,0-0.5,0-0.7s0-0.4,0-0.6c0-0.2,0-0.5,0-0.7
			s0-0.4,0-0.6c0-0.2,0-0.5,0-0.7s0-0.4,0-0.6c0-0.2,0-0.5-0.1-0.7c0-0.2,0-0.4-0.1-0.6c0-0.2-0.1-0.5-0.1-0.7s-0.1-0.4-0.1-0.6
			c0-0.3-0.1-0.5-0.1-0.8c0-0.2-0.1-0.4-0.1-0.6c-0.1-0.3-0.1-0.5-0.2-0.8c0-0.2-0.1-0.4-0.1-0.6c-0.1-0.3-0.1-0.6-0.2-0.8
			c0-0.2-0.1-0.4-0.1-0.6c-0.1-0.3-0.2-0.6-0.3-0.9c0-0.2-0.1-0.3-0.1-0.5c-0.2-0.5-0.3-0.9-0.5-1.4l0,0c-0.5-1.3-1.1-2.7-1.8-3.9
			c-0.2-0.4-0.5-0.8-0.7-1.3c-0.7-1.2-1.5-2.4-2.4-3.5c-0.2-0.3-0.4-0.5-0.6-0.8c-0.7-0.8-1.4-1.6-2.2-2.4l0,0c-0.5-0.5-1-1-1.6-1.5
			l-0.1-0.1c-7.4-6.7-19-12.4-34.7-17.1h-0.1l-0.6-0.2l-0.2-0.1l-0.5-0.1l-0.3-0.1l-0.5-0.1l-0.3-0.1l-0.5-0.1l-0.3-0.1l-0.5-0.1
			l-0.3-0.1l-0.5-0.1l-0.3-0.1l-0.6-0.2l-0.3-0.1l-0.7-0.2l-0.2-0.1l-1.7-0.4l-0.4-0.1l-0.5-0.1l-0.3-0.1l-0.6-0.1l-0.3-0.1
			l-0.5-0.1l-0.3-0.1l-0.5-0.1l-0.4-0.1h-0.2l0.1,0.1C100.8,88,100.9,88.1,101,88.3z"/>
		<path class="st1" d="M58.7,169c-4.2-2.1-8.2-4.6-12-7.4l0,0C50.5,164.4,54.5,166.9,58.7,169L58.7,169z"/>
		<path class="st1" d="M46.7,161.6c-2.1-1.5-4.1-3.2-6-4.9l0,0C42.6,158.4,44.6,160.1,46.7,161.6L46.7,161.6z"/>
		<path class="st3" d="M105.2,110.4c-1.1-5.5-3.2-10.8-6.4-15.5c-0.3-0.5-0.6-1-1-1.4c-0.3-0.4-0.6-0.8-0.8-1.1l-0.1-0.1
			c-0.3-0.3-0.5-0.7-0.8-1L96,91.2c-0.3-0.3-0.5-0.6-0.7-0.9l-0.1-0.1c-0.3-0.3-0.5-0.6-0.7-0.8l0,0c-0.3-0.3-0.5-0.5-0.8-0.8l0,0
			c-0.2-0.2-0.5-0.5-0.7-0.7l-0.1-0.1c-0.2-0.2-0.4-0.4-0.6-0.6l-0.1-0.1c-0.2-0.2-0.4-0.4-0.6-0.5l0,0l-44,60.4l-7.1,9.7
			c1.9,1.7,3.9,3.3,6,4.9c3.8,2.8,7.8,5.3,12,7.4c28.9-13.8,47.3-28.4,47.3-50C106,116.1,105.7,113.2,105.2,110.4z"/>
		<path class="st1" d="M164.6,141.7L164.6,141.7c2.5-3.7,4.8-7.6,6.7-11.6l0,0C169.3,134.2,167.1,138,164.6,141.7z"/>
		<path class="st1" d="M163.9,142.7c0.2-0.3,0.4-0.6,0.6-0.9l0,0C164.3,142,164.1,142.4,163.9,142.7L163.9,142.7z"/>
		<path class="st1" d="M164.4,128.4c0-0.1,0-0.3-0.1-0.4C164.4,128.2,164.4,128.3,164.4,128.4z"/>
		<path class="st1" d="M164.8,132.4c0-0.1,0-0.2,0-0.4C164.8,132.2,164.8,132.3,164.8,132.4z"/>
		<path class="st1" d="M162.2,119.6c-0.8-2.1-1.8-4.1-3-6.1C160.4,115.5,161.4,117.5,162.2,119.6z"/>
		<path class="st1" d="M164.3,127.6c0-0.1,0-0.3-0.1-0.4C164.3,127.3,164.3,127.5,164.3,127.6z"/>
		<path class="st1" d="M114.4,85.6l-0.9-0.2L114.4,85.6z"/>
		<path class="st1" d="M164.7,131.6c0-0.1,0-0.2,0-0.4C164.7,131.4,164.7,131.5,164.7,131.6z"/>
		<path class="st1" d="M164.7,130.8c0-0.1,0-0.2,0-0.4C164.7,130.6,164.7,130.7,164.7,130.8z"/>
		<path class="st1" d="M164.6,130c0-0.1,0-0.3,0-0.4C164.6,129.8,164.6,129.9,164.6,130z"/>
		<path class="st1" d="M164.5,129.2c0-0.1,0-0.3,0-0.4C164.5,129,164.5,129.1,164.5,129.2z"/>
		<path class="st1" d="M93.6,80.2h-0.2H93.6z"/>
		<path class="st1" d="M163.4,123.4c0-0.1-0.1-0.3-0.1-0.4C163.4,123.2,163.4,123.3,163.4,123.4z"/>
		<path class="st1" d="M163.8,125.1c0-0.1-0.1-0.3-0.1-0.4C163.8,124.8,163.8,125,163.8,125.1z"/>
		<path class="st1" d="M162.9,121.7c0-0.1-0.1-0.2-0.1-0.3C162.9,121.5,162.9,121.6,162.9,121.7z"/>
		<path class="st1" d="M163.6,124.3c0-0.1-0.1-0.3-0.1-0.4C163.6,124,163.6,124.1,163.6,124.3z"/>
		<path class="st1" d="M163.2,122.6c0-0.1-0.1-0.2-0.1-0.4C163.1,122.3,163.2,122.4,163.2,122.6z"/>
		<path class="st1" d="M162.2,119.6L162.2,119.6L162.2,119.6z"/>
		<path class="st1" d="M162.6,120.8c0-0.1-0.1-0.2-0.1-0.3C162.6,120.6,162.6,120.7,162.6,120.8z"/>
		<path class="st1" d="M164.2,126.8c0-0.1,0-0.3-0.1-0.4C164.1,126.5,164.2,126.6,164.2,126.8z"/>
		<path class="st1" d="M164,125.9c0-0.1-0.1-0.3-0.1-0.4C164,125.7,164,125.8,164,125.9z"/>
		<path class="st1" d="M155.1,151.6c0,0.1,0,0.1-0.1,0.1C155.1,151.7,155.1,151.6,155.1,151.6z"/>
		<path class="st1" d="M156.5,148.2c0,0.1-0.1,0.3-0.1,0.4C156.5,148.4,156.5,148.3,156.5,148.2z"/>
		<path class="st1" d="M156.3,148.9c0,0.1-0.1,0.2-0.1,0.3C156.2,149.1,156.2,149,156.3,148.9z"/>
		<path class="st1" d="M155.8,150c0,0.1-0.1,0.2-0.1,0.3C155.7,150.2,155.8,150.1,155.8,150z"/>
		<path class="st1" d="M155,151.8L155,151.8L155,151.8z"/>
		<path class="st1" d="M155.6,150.5c0,0.1-0.1,0.2-0.1,0.2S155.6,150.6,155.6,150.5z"/>
		<path class="st1" d="M155.3,151.3l-0.1,0.2L155.3,151.3z"/>
		<path class="st1" d="M155.4,150.9l-0.1,0.2C155.4,151.1,155.4,151,155.4,150.9z"/>
		<path class="st1" d="M156.1,149.5l-0.1,0.3L156.1,149.5z"/>
		<path class="st1" d="M110.8,90.4l0.5,0.1L110.8,90.4z"/>
		<path class="st1" d="M110,90.2l0.5,0.1L110,90.2z"/>
		<path class="st1" d="M109.2,90l0.5,0.1L109.2,90z"/>
		<path class="st1" d="M108.4,89.8l0.5,0.1L108.4,89.8z"/>
		<path class="st1" d="M111.5,90.6l0.5,0.1L111.5,90.6z"/>
		<path class="st1" d="M112.2,90.8l0.6,0.2L112.2,90.8z"/>
		<path class="st1" d="M149.2,109.7L149.2,109.7L149.2,109.7z"/>
		<path class="st1" d="M157,121.6c0.2,0.5,0.3,0.9,0.5,1.4C157.3,122.6,157.1,122.1,157,121.6z"/>
		<path class="st1" d="M147.5,108.1l0.1,0.1L147.5,108.1z"/>
		<path class="st1" d="M107.5,89.6l0.6,0.2L107.5,89.6z"/>
		<path class="st1" d="M101.2,88l0.5,0.1L101.2,88z"/>
		<path class="st1" d="M102.1,88.2l0.5,0.1L102.1,88.2z"/>
		<path class="st1" d="M102.9,88.4l0.6,0.1L102.9,88.4z"/>
		<path class="st1" d="M100.6,87.8L100.6,87.8h0.2H100.6z"/>
		<path class="st1" d="M106.6,89.4l0.7,0.2L106.6,89.4z"/>
		<path class="st1" d="M157.6,123.5c0.1,0.3,0.2,0.6,0.3,0.9C157.8,124.1,157.7,123.8,157.6,123.5z"/>
		<path class="st1" d="M103.8,88.6l0.5,0.1L103.8,88.6z"/>
		<path class="st1" d="M104.7,88.9l1.7,0.4L104.7,88.9z"/>
		<path class="st1" d="M157.1,146.6c0,0.1-0.1,0.3-0.1,0.4C157,146.9,157,146.8,157.1,146.6z"/>
		<path class="st1" d="M158.6,140.4c-0.1,0.3-0.1,0.6-0.2,0.9C158.5,141,158.5,140.7,158.6,140.4z"/>
		<path class="st1" d="M158.8,139.3c0,0.2-0.1,0.5-0.1,0.7C158.7,139.7,158.7,139.5,158.8,139.3z"/>
		<path class="st1" d="M158.4,141.5c-0.1,0.4-0.1,0.7-0.2,1C158.3,142.2,158.3,141.8,158.4,141.5z"/>
		<path class="st1" d="M158.9,138.1c0,0.2-0.1,0.5-0.1,0.7C158.8,138.6,158.9,138.3,158.9,138.1z"/>
		<path class="st1" d="M157.9,143.9c0,0.2-0.1,0.4-0.1,0.6C157.8,144.3,157.8,144.1,157.9,143.9z"/>
		<path class="st1" d="M157.6,144.9c0,0.2-0.1,0.4-0.1,0.5C157.5,145.2,157.5,145.1,157.6,144.9z"/>
		<path class="st1" d="M156.8,147.4c0,0.1-0.1,0.3-0.1,0.4C156.7,147.7,156.8,147.6,156.8,147.4z"/>
		<path class="st1" d="M159,136.9c0,0.2,0,0.5-0.1,0.7C159,137.4,159,137.1,159,136.9z"/>
		<path class="st1" d="M158.1,142.8c-0.1,0.2-0.1,0.5-0.2,0.7C158,143.3,158.1,143.1,158.1,142.8z"/>
		<path class="st1" d="M159.1,135.7c0,0.2,0,0.5,0,0.7C159.1,136.1,159.1,135.9,159.1,135.7z"/>
		<path class="st1" d="M158,125c0.1,0.3,0.1,0.6,0.2,0.8C158.2,125.6,158.1,125.3,158,125z"/>
		<path class="st1" d="M158.8,129.2c0,0.2,0.1,0.5,0.1,0.7C158.9,129.7,158.9,129.4,158.8,129.2z"/>
		<path class="st1" d="M159,130.5c0,0.2,0,0.5,0.1,0.7C159,131,159,130.8,159,130.5z"/>
		<path class="st1" d="M158.4,126.4c0.1,0.3,0.1,0.5,0.2,0.8C158.5,126.9,158.4,126.7,158.4,126.4z"/>
		<path class="st1" d="M158.6,127.8c0,0.3,0.1,0.5,0.1,0.8C158.7,128.3,158.7,128.1,158.6,127.8z"/>
		<path class="st1" d="M159.1,134.4c0,0.2,0,0.5,0,0.7C159.1,134.9,159.1,134.7,159.1,134.4z"/>
		<path class="st1" d="M159.1,131.8c0,0.2,0,0.5,0,0.7C159.1,132.3,159.1,132.1,159.1,131.8z"/>
		<path class="st1" d="M159.1,133.1c0,0.2,0,0.5,0,0.7C159.1,133.6,159.1,133.4,159.1,133.1z"/>
		<path class="st1" d="M157.3,145.8c0,0.2-0.1,0.3-0.1,0.5C157.2,146.1,157.3,145.9,157.3,145.8z"/>
		<path class="st4" d="M102.8,64.3c3.4,0,6.1-2.7,6.1-6.1s-2.7-6.1-6.1-6.1s-6.1,2.7-6.1,6.1l0,0C96.7,61.6,99.4,64.3,102.8,64.3z"
			/>
		<path class="st1" d="M163.1,122.2c-0.1-0.2-0.1-0.3-0.2-0.5C163,121.8,163,122,163.1,122.2z"/>
		<path class="st1" d="M164.6,130.5c0-0.1,0-0.3,0-0.4C164.6,130.2,164.6,130.3,164.6,130.5z"/>
		<path class="st1" d="M163.8,124.7c0-0.2-0.1-0.3-0.1-0.5C163.7,124.4,163.7,124.6,163.8,124.7z"/>
		<path class="st1" d="M163.6,123.9c0-0.2-0.1-0.3-0.1-0.5C163.5,123.6,163.5,123.7,163.6,123.9z"/>
		<path class="st1" d="M163.3,123c0-0.2-0.1-0.3-0.1-0.5C163.2,122.7,163.3,122.9,163.3,123z"/>
		<path class="st1" d="M93.4,80.2L93.4,80.2L93.4,80.2z"/>
		<path class="st1" d="M162.5,120.5c-0.1-0.3-0.2-0.5-0.3-0.8C162.3,119.9,162.4,120.2,162.5,120.5z"/>
		<path class="st1" d="M159.3,113.6c-0.8-1.4-1.7-2.7-2.7-4C157.5,110.8,158.4,112.2,159.3,113.6z"/>
		<path class="st1" d="M163.9,125.5c0-0.1-0.1-0.3-0.1-0.4C163.9,125.3,163.9,125.4,163.9,125.5z"/>
		<path class="st1" d="M162.8,121.3c-0.1-0.2-0.1-0.4-0.2-0.6C162.7,121,162.8,121.2,162.8,121.3z"/>
		<path class="st1" d="M113.5,85.3c-6-1.6-15.8-4.1-19.9-5.1C97.7,81.3,107.5,83.7,113.5,85.3z"/>
		<path class="st1" d="M164.6,129.6c0-0.1,0-0.3,0-0.4C164.5,129.4,164.6,129.5,164.6,129.6z"/>
		<path class="st1" d="M164.1,126.4c0-0.1-0.1-0.3-0.1-0.4C164,126.1,164.1,126.2,164.1,126.4z"/>
		<path class="st1" d="M164.2,127.2c0-0.1,0-0.3-0.1-0.4C164.2,126.9,164.2,127.1,164.2,127.2z"/>
		<path class="st1" d="M164.4,128c0-0.1,0-0.3-0.1-0.4C164.3,127.7,164.4,127.9,164.4,128z"/>
		<path class="st1" d="M164.7,132c0-0.1,0-0.3,0-0.4C164.7,131.8,164.7,131.9,164.7,132z"/>
		<path class="st1" d="M164.5,128.8c0-0.1,0-0.3-0.1-0.4C164.4,128.6,164.5,128.7,164.5,128.8z"/>
		<path class="st1" d="M164.7,131.2c0-0.1,0-0.3,0-0.4C164.7,131,164.7,131.1,164.7,131.2z"/>
		<path class="st1" d="M164.8,132.8c0-0.1,0-0.3,0-0.4C164.8,132.5,164.8,132.7,164.8,132.8z"/>
		<path class="st1" d="M146.6,160.7c2.7-2,5.2-4.2,7.6-6.6C151.8,156.4,149.3,158.6,146.6,160.7L146.6,160.7z"/>
		<path class="st1" d="M155.2,151.5l-0.1,0.1L155.2,151.5z"/>
		<path class="st1" d="M155.5,150.8l-0.1,0.2L155.5,150.8z"/>
		<path class="st1" d="M155.3,151.2c0,0.1,0,0.1-0.1,0.1L155.3,151.2z"/>
		<path class="st1" d="M155.1,151.7L155.1,151.7L155.1,151.7z"/>
		<path class="st1" d="M156.9,147.1c0,0.1-0.1,0.2-0.1,0.4C156.8,147.3,156.9,147.2,156.9,147.1z"/>
		<path class="st1" d="M157.2,146.3c0,0.1-0.1,0.3-0.1,0.4C157.1,146.5,157.1,146.4,157.2,146.3z"/>
		<path class="st1" d="M156.7,147.8c0,0.1-0.1,0.2-0.1,0.3C156.6,148.1,156.6,148,156.7,147.8z"/>
		<path class="st1" d="M155.9,149.8c0,0.1-0.1,0.2-0.1,0.2C155.9,150,155.9,149.9,155.9,149.8z"/>
		<path class="st1" d="M156.4,148.5c0,0.1-0.1,0.2-0.1,0.3L156.4,148.5z"/>
		<path class="st1" d="M155.7,150.3c0,0.1-0.1,0.1-0.1,0.2C155.6,150.5,155.7,150.4,155.7,150.3z"/>
		<path class="st1" d="M156.2,149.2c0,0.1-0.1,0.2-0.1,0.3C156.1,149.4,156.1,149.3,156.2,149.2z"/>
		<path class="st1" d="M111.5,115.2c0-0.2,0-0.3,0-0.5C111.5,114.9,111.5,115,111.5,115.2z"/>
		<path class="st1" d="M110.2,106.8c0-0.1-0.1-0.3-0.1-0.4C110.1,106.5,110.1,106.6,110.2,106.8z"/>
		<path class="st1" d="M110.4,107.8c0-0.1-0.1-0.3-0.1-0.4C110.4,107.6,110.4,107.7,110.4,107.8z"/>
		<path class="st1" d="M109.9,105.7c0-0.1-0.1-0.3-0.1-0.4C109.8,105.4,109.8,105.6,109.9,105.7z"/>
		<path class="st1" d="M110.7,108.9c0-0.1,0-0.2-0.1-0.3C110.6,108.7,110.6,108.8,110.7,108.9z"/>
		<path class="st1" d="M108.9,102.6c0-0.1-0.1-0.2-0.1-0.3C108.9,102.4,108.9,102.5,108.9,102.6z"/>
		<path class="st1" d="M109.3,103.6c0-0.1-0.1-0.3-0.1-0.4C109.2,103.4,109.2,103.5,109.3,103.6z"/>
		<path class="st1" d="M109.6,104.7c0-0.1-0.1-0.3-0.1-0.4C109.5,104.4,109.6,104.5,109.6,104.7z"/>
		<path class="st1" d="M111.6,116.4c0-0.2,0-0.3,0-0.5C111.6,116.1,111.6,116.3,111.6,116.4z"/>
		<path class="st1" d="M110.9,110.3c0-0.1,0-0.2,0-0.3C110.9,110.1,110.9,110.2,110.9,110.3z"/>
		<path class="st1" d="M108.5,101.3L108.5,101.3L108.5,101.3z"/>
		<path class="st1" d="M111.6,117.7c0-0.1,0-0.3,0-0.4C111.6,117.4,111.6,117.5,111.6,117.7z"/>
		<path class="st1" d="M157.4,145.4c0,0.1-0.1,0.3-0.1,0.4C157.4,145.7,157.4,145.5,157.4,145.4z"/>
		<path class="st1" d="M111.1,111.6c0-0.1,0-0.3-0.1-0.4C111.1,111.3,111.1,111.4,111.1,111.6z"/>
		<path class="st1" d="M111.3,112.8c0-0.2,0-0.3-0.1-0.5C111.2,112.5,111.2,112.6,111.3,112.8z"/>
		<path class="st1" d="M111.4,114c0-0.2,0-0.3-0.1-0.5C111.4,113.7,111.4,113.8,111.4,114z"/>
		<path class="st1" d="M102.6,88.3l0.3,0.1L102.6,88.3z"/>
		<path class="st1" d="M103.5,88.5l0.3,0.1L103.5,88.5z"/>
		<path class="st1" d="M111.3,90.6l0.3,0.1L111.3,90.6z"/>
		<path class="st1" d="M147.7,108.3c0.5,0.5,1.1,1,1.6,1.5C148.7,109.2,148.2,108.7,147.7,108.3z"/>
		<path class="st1" d="M101.7,88.1l0.3,0.1L101.7,88.1z"/>
		<path class="st1" d="M112,90.8l0.2,0.1L112,90.8z"/>
		<path class="st1" d="M158.2,125.8c0,0.2,0.1,0.4,0.1,0.6C158.3,126.2,158.3,126,158.2,125.8z"/>
		<path class="st1" d="M157.7,144.5c0,0.1-0.1,0.3-0.1,0.4C157.6,144.7,157.7,144.6,157.7,144.5z"/>
		<path class="st1" d="M100.8,87.9l0.4,0.1L100.8,87.9z"/>
		<path class="st1" d="M157.9,124.4c0.1,0.2,0.1,0.4,0.1,0.6C158,124.8,157.9,124.6,157.9,124.4z"/>
		<path class="st1" d="M107.3,89.5l0.3,0.1L107.3,89.5z"/>
		<path class="st1" d="M106.4,89.3l0.2,0.1L106.4,89.3z"/>
		<path class="st1" d="M104.3,88.8l0.4,0.1L104.3,88.8z"/>
		<path class="st1" d="M110.5,90.4l0.3,0.1L110.5,90.4z"/>
		<path class="st1" d="M109.7,90.2l0.3,0.1L109.7,90.2z"/>
		<path class="st1" d="M108.1,89.7l0.3,0.1L108.1,89.7z"/>
		<path class="st1" d="M108.9,89.9l0.3,0.1L108.9,89.9z"/>
		<path class="st1" d="M149.2,109.8c0.8,0.8,1.5,1.6,2.2,2.4C150.7,111.4,150,110.5,149.2,109.8z"/>
		<path class="st1" d="M158.7,140c0,0.1,0,0.3-0.1,0.4C158.6,140.2,158.6,140.1,158.7,140z"/>
		<path class="st1" d="M158.8,138.8c0,0.2,0,0.3-0.1,0.5C158.8,139.1,158.8,138.9,158.8,138.8z"/>
		<path class="st1" d="M159,137.6c0,0.2,0,0.3-0.1,0.5C158.9,137.9,158.9,137.8,159,137.6z"/>
		<path class="st1" d="M157.9,143.5c0,0.1-0.1,0.3-0.1,0.4C157.9,143.8,157.9,143.7,157.9,143.5z"/>
		<path class="st1" d="M158.5,127.2c0,0.2,0.1,0.4,0.1,0.6C158.6,127.6,158.6,127.4,158.5,127.2z"/>
		<path class="st1" d="M159.1,136.4c0,0.2,0,0.4,0,0.5C159,136.7,159,136.5,159.1,136.4z"/>
		<path class="st1" d="M158.2,142.5c0,0.1,0,0.2-0.1,0.3C158.1,142.7,158.2,142.6,158.2,142.5z"/>
		<path class="st1" d="M158.4,141.3c0,0.1,0,0.1,0,0.2C158.4,141.4,158.4,141.3,158.4,141.3z"/>
		<path class="st1" d="M158.9,129.9c0,0.2,0,0.4,0.1,0.6C159,130.3,159,130.1,158.9,129.9z"/>
		<path class="st1" d="M159.1,131.2c0,0.2,0,0.4,0,0.6C159.1,131.6,159.1,131.4,159.1,131.2z"/>
		<path class="st1" d="M158.8,128.6c0,0.2,0.1,0.4,0.1,0.6C158.8,129,158.8,128.8,158.8,128.6z"/>
		<path class="st1" d="M159.1,132.6c0,0.2,0,0.4,0,0.6C159.1,133,159.1,132.8,159.1,132.6z"/>
		<path class="st1" d="M159.1,135.1c0,0.2,0,0.4,0,0.6C159.1,135.5,159.1,135.3,159.1,135.1z"/>
		<path class="st1" d="M159.1,133.9c0,0.2,0,0.4,0,0.6C159.1,134.2,159.1,134,159.1,133.9z"/>
		<path class="st1" d="M157.5,123c0.1,0.2,0.1,0.3,0.1,0.5C157.5,123.4,157.5,123.2,157.5,123z"/>
		<path class="st1" d="M100.6,87.8L100.6,87.8L100.6,87.8L100.6,87.8z"/>
		<path class="st1" d="M147.5,108.1c-7.4-6.7-19-12.4-34.7-17.1h-0.1h0.1C128.5,95.7,140.1,101.5,147.5,108.1z"/>
		<path class="st1" d="M105,94.2c0-0.1-0.1-0.1-0.1-0.2C104.9,94,105,94.1,105,94.2z"/>
		<path class="st1" d="M106.1,96c-0.1-0.1-0.1-0.2-0.2-0.3C106,95.8,106,95.9,106.1,96z"/>
		<path class="st1" d="M101.1,88.5c-0.1-0.1-0.1-0.1-0.2-0.2C101,88.3,101.1,88.4,101.1,88.5z"/>
		<path class="st1" d="M157,121.6c-0.5-1.3-1.1-2.7-1.8-3.9C155.8,119,156.4,120.3,157,121.6L157,121.6z"/>
		<path class="st1" d="M105.6,95.1l-0.1-0.2L105.6,95.1z"/>
		<path class="st1" d="M103.2,91.3c-0.1-0.1-0.1-0.2-0.2-0.3C103.1,91.1,103.1,91.2,103.2,91.3z"/>
		<path class="st1" d="M102.2,89.9c0-0.1-0.1-0.1-0.1-0.2C102.1,89.7,102.2,89.8,102.2,89.9z"/>
		<path class="st1" d="M101.6,89.1L101.6,89.1L101.6,89.1z"/>
		<path class="st1" d="M102.7,90.6l-0.2-0.3L102.7,90.6z"/>
		<path class="st1" d="M106.5,96.9l-0.2-0.3L106.5,96.9z"/>
		<path class="st1" d="M104.1,92.7c-0.1-0.1-0.1-0.2-0.2-0.3C104,92.5,104.1,92.6,104.1,92.7z"/>
		<path class="st1" d="M104.6,93.4c-0.1-0.1-0.1-0.2-0.2-0.3C104.5,93.2,104.5,93.3,104.6,93.4z"/>
		<path class="st1" d="M103.7,91.9l-0.2-0.3L103.7,91.9z"/>
		<path class="st1" d="M107.7,99.5c-0.1-0.1-0.1-0.2-0.2-0.4C107.6,99.3,107.7,99.4,107.7,99.5z"/>
		<path class="st1" d="M106.9,97.7c-0.1-0.1-0.1-0.2-0.2-0.4C106.8,97.5,106.9,97.6,106.9,97.7z"/>
		<path class="st1" d="M107.3,98.6c-0.1-0.1-0.1-0.2-0.2-0.4C107.2,98.4,107.3,98.5,107.3,98.6z"/>
		<path class="st1" d="M108.1,100.4c0-0.1-0.1-0.2-0.1-0.3C108,100.2,108.1,100.3,108.1,100.4z"/>
		<path class="st1" d="M91.7,86.6L91.7,86.6L91.7,86.6L91.7,86.6z"/>
		<path class="st1" d="M93,87.8L93,87.8L93,87.8z"/>
		<path class="st1" d="M92.4,87.2L92.4,87.2L92.4,87.2z"/>
		<path class="st1" d="M96.2,91.3l-0.1-0.1L96.2,91.3z"/>
		<path class="st1" d="M97,92.4L97,92.4L97,92.4z"/>
		<path class="st1" d="M105.2,110.4c-1.1-5.5-3.2-10.8-6.4-15.5C102,99.6,104.1,104.9,105.2,110.4z"/>
		<path class="st1" d="M95.4,90.3L95.4,90.3L95.4,90.3z"/>
		<path class="st1" d="M94.5,89.4L94.5,89.4L94.5,89.4z"/>
		<path class="st1" d="M93.8,88.6L93.8,88.6L93.8,88.6z"/>
		<path class="st1" d="M163.9,142.7c-1.4,2-2.9,3.9-4.4,5.7l0,0C161,146.5,162.5,144.6,163.9,142.7L163.9,142.7z"/>
		<path class="st1" d="M91.3,79.7L91.3,79.7L91.3,79.7z"/>
		<path class="st1" d="M91.5,79.7L91.5,79.7L91.5,79.7z"/>
		<path class="st1" d="M90.4,79.8L90.4,79.8L90.4,79.8z"/>
		<path class="st1" d="M90.5,79.8L90.5,79.8L90.5,79.8z"/>
		<path class="st1" d="M90.8,79.7L90.8,79.7L90.8,79.7z"/>
		<path class="st1" d="M91,79.7L91,79.7C91.1,79.7,91.1,79.7,91,79.7z"/>
		<path class="st1" d="M155.6,152.7c1.4-1.4,2.7-2.8,3.9-4.3l0,0C158.2,149.8,156.9,151.3,155.6,152.7z"/>
		<path class="st1" d="M37.9,154.1c0.2,0.2,0.5,0.5,0.7,0.7l0,0C38.4,154.6,38.1,154.3,37.9,154.1z"/>
		<polygon class="st1" points="65.4,172 65.4,172 65.4,172 		"/>
		<path class="st1" d="M101,88.3c-0.1-0.1-0.2-0.3-0.3-0.4C100.8,88,100.9,88.1,101,88.3z"/>
		<path class="st1" d="M65.8,171.8c-0.1,0.1-0.2,0.1-0.4,0.2l0,0C65.6,171.9,65.7,171.8,65.8,171.8z"/>
		<path class="st1" d="M102.5,90.3l-0.3-0.4L102.5,90.3z"/>
		<path class="st1" d="M104.8,141.7c-3.5,5.2-7.8,9.9-12.7,13.8c-6.8,5.4-14.1,10.1-21.8,14c7.7-3.9,15-8.6,21.8-14
			C97,151.6,101.3,146.9,104.8,141.7z"/>
		<path class="st1" d="M101.5,89c-0.1-0.2-0.3-0.3-0.4-0.5C101.3,88.6,101.4,88.8,101.5,89z"/>
		<path class="st1" d="M102.1,89.7c-0.2-0.2-0.3-0.4-0.5-0.6C101.8,89.3,101.9,89.5,102.1,89.7z"/>
		<path class="st1" d="M111.5,116c0-0.3,0-0.5,0-0.8C111.5,115.5,111.5,115.7,111.5,116z"/>
		<path class="st1" d="M104.8,141.7c0.7-1.1,1.4-2.2,2-3.4C106.2,139.5,105.5,140.6,104.8,141.7z"/>
		<path class="st1" d="M106.8,138.3c0.4-0.8,0.8-1.5,1.1-2.3C107.6,136.8,107.2,137.6,106.8,138.3z"/>
		<path class="st1" d="M67.3,171c1-0.5,2-1,3-1.5C69.3,170,68.3,170.5,67.3,171z"/>
		<path class="st1" d="M110.1,130.1c0.2-0.8,0.4-1.6,0.6-2.4C110.5,128.5,110.3,129.3,110.1,130.1z"/>
		<path class="st1" d="M107.6,99.1c-0.1-0.2-0.2-0.4-0.2-0.5C107.4,98.8,107.5,99,107.6,99.1z"/>
		<path class="st1" d="M107.2,98.2c-0.1-0.2-0.2-0.3-0.2-0.5C107,97.9,107.1,98.1,107.2,98.2z"/>
		<path class="st1" d="M106.3,96.5c-0.1-0.2-0.2-0.4-0.3-0.5C106.1,96.2,106.2,96.4,106.3,96.5z"/>
		<path class="st1" d="M110.1,106.3c-0.1-0.2-0.1-0.4-0.2-0.6C109.9,105.9,110,106.1,110.1,106.3z"/>
		<path class="st1" d="M111.5,114.7c0-0.2,0-0.5-0.1-0.7C111.4,114.2,111.4,114.5,111.5,114.7z"/>
		<path class="st1" d="M105.9,95.7c-0.1-0.2-0.2-0.4-0.3-0.6C105.7,95.3,105.8,95.5,105.9,95.7z"/>
		<path class="st1" d="M110.3,107.4c-0.1-0.2-0.1-0.4-0.2-0.7C110.2,107,110.3,107.2,110.3,107.4z"/>
		<path class="st1" d="M105.5,94.9c-0.1-0.3-0.3-0.5-0.4-0.8C105.2,94.4,105.3,94.7,105.5,94.9z"/>
		<path class="st1" d="M111.3,113.5c0-0.2-0.1-0.5-0.1-0.7C111.3,113,111.3,113.3,111.3,113.5z"/>
		<path class="st1" d="M110.6,108.6c-0.1-0.3-0.1-0.5-0.2-0.8C110.5,108.1,110.5,108.4,110.6,108.6z"/>
		<path class="st1" d="M111.6,117.3c0-0.3,0-0.6,0-0.8C111.6,116.7,111.6,117,111.6,117.3z"/>
		<path class="st1" d="M111.6,118.9c0-0.4,0-0.9,0-1.3C111.6,118.1,111.6,118.5,111.6,118.9z"/>
		<path class="st1" d="M103.5,91.7c-0.1-0.1-0.2-0.3-0.3-0.4C103.3,91.4,103.4,91.5,103.5,91.7z"/>
		<path class="st1" d="M111.2,112.3c0-0.2-0.1-0.5-0.1-0.7C111.1,111.8,111.2,112.1,111.2,112.3z"/>
		<path class="st1" d="M104.9,93.9c-0.1-0.2-0.2-0.4-0.3-0.5C104.7,93.6,104.8,93.8,104.9,93.9z"/>
		<path class="st1" d="M104.4,93.1c-0.1-0.2-0.2-0.3-0.3-0.5C104.2,92.8,104.3,93,104.4,93.1z"/>
		<path class="st1" d="M108.8,102.3c-0.1-0.3-0.2-0.6-0.3-0.9C108.6,101.7,108.7,102,108.8,102.3z"/>
		<path class="st1" d="M109.1,103.3c-0.1-0.2-0.2-0.4-0.2-0.7C109,102.8,109.1,103,109.1,103.3z"/>
		<path class="st1" d="M103,91c-0.1-0.1-0.2-0.3-0.3-0.4C102.8,90.7,102.9,90.8,103,91z"/>
		<path class="st1" d="M103.9,92.4c-0.1-0.1-0.2-0.3-0.3-0.4C103.8,92.1,103.8,92.2,103.9,92.4z"/>
		<path class="st1" d="M106.8,97.4c-0.1-0.2-0.2-0.3-0.3-0.5C106.6,97,106.7,97.2,106.8,97.4z"/>
		<path class="st1" d="M109.8,105.3c-0.1-0.2-0.1-0.4-0.2-0.6C109.7,104.9,109.7,105.1,109.8,105.3z"/>
		<path class="st1" d="M108.4,101.2c-0.1-0.3-0.2-0.6-0.3-0.8C108.2,100.7,108.3,101,108.4,101.2z"/>
		<path class="st1" d="M111,111.2c0-0.3-0.1-0.6-0.1-0.9C111,110.6,111,110.9,111,111.2z"/>
		<path class="st1" d="M108,100.1c-0.1-0.2-0.2-0.4-0.3-0.6C107.8,99.7,107.9,99.9,108,100.1z"/>
		<path class="st1" d="M109.5,104.3c-0.1-0.2-0.1-0.4-0.2-0.6C109.3,103.9,109.4,104.1,109.5,104.3z"/>
		<path class="st1" d="M110.9,110c-0.1-0.4-0.1-0.7-0.2-1.1C110.7,109.3,110.8,109.7,110.9,110z"/>
		<path class="st1" d="M38.6,154.8L38.6,154.8L38.6,154.8L38.6,154.8L38.6,154.8z"/>
		<path class="st1" d="M95.3,90.2c-0.3-0.3-0.5-0.6-0.7-0.8C94.8,89.7,95,90,95.3,90.2z"/>
		<path class="st1" d="M93,87.8c0.2,0.2,0.4,0.4,0.7,0.7C93.5,88.3,93.3,88.1,93,87.8z"/>
		<path class="st1" d="M92.3,87.1c-0.2-0.2-0.4-0.4-0.6-0.5C91.9,86.8,92.1,86.9,92.3,87.1z"/>
		<path class="st1" d="M93,87.8c-0.2-0.2-0.4-0.4-0.6-0.6C92.6,87.4,92.8,87.6,93,87.8z"/>
		<path class="st1" d="M94.5,89.4c-0.3-0.3-0.5-0.5-0.8-0.8C94,88.8,94.3,89.1,94.5,89.4z"/>
		<path class="st1" d="M96.1,91.2c-0.3-0.3-0.5-0.6-0.7-0.9C95.6,90.6,95.9,90.9,96.1,91.2z"/>
		<path class="st1" d="M97,92.3c-0.3-0.3-0.5-0.7-0.8-1C96.4,91.6,96.7,91.9,97,92.3z"/>
		<path class="st1" d="M97.9,93.5c-0.3-0.4-0.6-0.8-0.8-1.1C97.3,92.7,97.6,93.1,97.9,93.5z"/>
		<path class="st1" d="M40.7,156.7c-0.7-0.6-1.4-1.3-2.1-1.9l0,0C39.3,155.5,40,156.1,40.7,156.7L40.7,156.7z"/>
		<path class="st1" d="M90.4,79.8L90.4,79.8L90.4,79.8z"/>
		<path class="st1" d="M90.7,79.8L90.7,79.8L90.7,79.8z"/>
		<path class="st1" d="M90.9,79.7L90.9,79.7L90.9,79.7z"/>
		<path class="st1" d="M91.7,79.8L91.7,79.8L91.7,79.8z"/>
		<path class="st1" d="M91.2,79.7L91.2,79.7C91.2,79.7,91.2,79.7,91.2,79.7z"/>
		<path class="st1" d="M91.4,79.7L91.4,79.7C91.5,79.7,91.5,79.7,91.4,79.7z"/>
		<path class="st1" d="M63.6,171.2c0.6,0.3,1.2,0.5,1.8,0.7l0,0c-1.2-0.5-2.3-0.9-3.4-1.5l0,0C62.5,170.8,63.1,171,63.6,171.2z"/>
		<path class="st1" d="M58.7,169c1.1,0.5,2.2,1.1,3.3,1.6l0,0C60.9,170,59.8,169.5,58.7,169L58.7,169z"/>
		<path class="st4" d="M155.3,62.5c-5.4-8.5-12.5-15.8-20.8-21.5c-8.4-5.8-18.3-9.1-28.5-9.7l0,0c-1.1-0.1-2.1-0.1-3.2-0.1
			c-20.5,0-33.2,14.1-33.2,27.1c0,0.5,0,1.1,0,1.6c-7.8,1.9-15.4,4.6-22.8,8c-1.4,0.7-2,2.4-1.3,3.8c0.4,0.7,1,1.2,1.7,1.4
			c7.9,2.2,30.1,8.5,39.2,11l-49.8,68.7c0.2,0.2,0.4,0.4,0.6,0.6c0.2,0.2,0.5,0.5,0.7,0.7s0.5,0.5,0.7,0.7l0,0
			c0.7,0.6,1.4,1.3,2.1,1.9l7.1-9.7l44-60.4l0,0l0,0c0.2,0.2,0.4,0.3,0.6,0.5l0.1,0.1c0.2,0.2,0.4,0.4,0.6,0.6l0.1,0.1
			c0.2,0.2,0.4,0.4,0.7,0.7l0,0c0.2,0.3,0.5,0.5,0.8,0.8l0,0c0.2,0.3,0.5,0.5,0.7,0.8l0.1,0.1c0.2,0.3,0.5,0.6,0.7,0.9l0.1,0.1
			c0.3,0.3,0.5,0.6,0.8,1l0.1,0.1c0.3,0.4,0.6,0.7,0.8,1.1c0.3,0.5,0.7,0.9,1,1.4c3.1,4.7,5.3,10,6.4,15.5c0.5,2.8,0.8,5.7,0.8,8.6
			c0,21.6-18.4,36.2-47.3,50c1.1,0.5,2.2,1.1,3.3,1.6c1.1,0.5,2.3,1,3.4,1.5c0.1-0.1,0.3-0.1,0.4-0.2c0.5-0.2,1-0.5,1.5-0.8
			c1-0.5,2-1,3-1.5c7.7-3.9,15-8.6,21.8-14c4.9-3.9,9.2-8.6,12.7-13.8c0.7-1.1,1.4-2.2,2-3.4c0.4-0.8,0.8-1.5,1.1-2.3
			c0.9-1.9,1.6-3.9,2.2-5.9c0.2-0.8,0.4-1.6,0.6-2.4c0.6-2.9,0.9-5.8,0.9-8.8c0-0.4,0-0.9,0-1.3c0-0.1,0-0.3,0-0.4
			c0-0.3,0-0.6,0-0.8s0-0.3,0-0.5c0-0.3,0-0.5,0-0.8c0-0.2,0-0.3,0-0.5s0-0.5-0.1-0.7c0-0.2,0-0.3-0.1-0.5c0-0.2-0.1-0.5-0.1-0.7
			s0-0.3-0.1-0.5c0-0.2-0.1-0.5-0.1-0.7c0-0.1,0-0.3-0.1-0.4c0-0.3-0.1-0.6-0.1-0.9c0-0.1,0-0.2,0-0.3c-0.1-0.4-0.1-0.7-0.2-1.1
			c0-0.1,0-0.2-0.1-0.3c-0.1-0.3-0.1-0.5-0.2-0.8c0-0.1-0.1-0.3-0.1-0.4c-0.1-0.2-0.1-0.4-0.2-0.7c0-0.1-0.1-0.3-0.1-0.4
			c-0.1-0.2-0.1-0.4-0.2-0.6c0-0.1-0.1-0.3-0.1-0.4c-0.1-0.2-0.1-0.4-0.2-0.6c0-0.1-0.1-0.3-0.1-0.4c-0.1-0.2-0.1-0.4-0.2-0.6
			c0-0.1-0.1-0.3-0.1-0.4c-0.1-0.2-0.2-0.4-0.2-0.7c0-0.1-0.1-0.2-0.1-0.3c-0.1-0.3-0.2-0.6-0.3-0.9v-0.1c-0.1-0.3-0.2-0.6-0.3-0.8
			c0-0.1-0.1-0.2-0.1-0.3c-0.1-0.2-0.2-0.4-0.3-0.6c-0.1-0.1-0.1-0.2-0.2-0.4s-0.2-0.4-0.2-0.5c-0.1-0.1-0.1-0.2-0.2-0.4
			s-0.2-0.3-0.2-0.5c-0.1-0.1-0.1-0.2-0.2-0.4s-0.2-0.3-0.3-0.5l-0.2-0.3c-0.1-0.2-0.2-0.4-0.3-0.5c-0.1-0.1-0.1-0.2-0.2-0.3
			c-0.1-0.2-0.2-0.4-0.3-0.6l-0.1-0.2c-0.1-0.3-0.3-0.5-0.4-0.8c0-0.1-0.1-0.1-0.1-0.2c-0.1-0.2-0.2-0.4-0.3-0.5
			c-0.1-0.1-0.1-0.2-0.2-0.3c-0.1-0.2-0.2-0.3-0.3-0.5c-0.1-0.1-0.1-0.2-0.2-0.3s-0.2-0.3-0.3-0.4l-0.2-0.3
			c-0.1-0.1-0.2-0.3-0.3-0.4c-0.1-0.1-0.1-0.2-0.2-0.3s-0.2-0.3-0.3-0.4l-0.2-0.3l-0.3-0.4c0-0.1-0.1-0.1-0.1-0.2
			c-0.2-0.2-0.3-0.4-0.5-0.6l-0.1-0.1c-0.1-0.2-0.3-0.3-0.4-0.5c-0.1-0.1-0.1-0.1-0.2-0.2c-0.1-0.1-0.2-0.3-0.3-0.4l-0.1-0.1l0,0
			h0.2l0.4,0.1l0.5,0.1l0.3,0.1l0.5,0.1l0.3,0.1l0.6,0.1l0.3,0.1l0.5,0.1l0.4,0.1l1.7,0.4l0.2,0.1l0.7,0.2l0.3,0.1l0.6,0.2l0.3,0.1
			l0.5,0.1l0.3,0.1l0.5,0.1l0.3,0.1l0.5,0.1l0.3,0.1l0.5,0.1l0.3,0.1l0.5,0.1l0.2,0.1l0.6,0.2h0.1c15.6,4.7,27.2,10.5,34.7,17.1
			l0.1,0.1c0.5,0.5,1.1,1,1.6,1.5l0,0c0.8,0.8,1.5,1.6,2.2,2.4c0.2,0.3,0.4,0.5,0.6,0.8c0.9,1.1,1.6,2.3,2.4,3.5
			c0.2,0.4,0.5,0.8,0.7,1.3c0.7,1.3,1.3,2.6,1.8,3.9c0.2,0.5,0.3,0.9,0.5,1.4c0.1,0.2,0.1,0.3,0.1,0.5c0.1,0.3,0.2,0.6,0.3,0.9
			c0.1,0.2,0.1,0.4,0.1,0.6c0.1,0.3,0.1,0.6,0.2,0.8c0,0.2,0.1,0.4,0.1,0.6c0.1,0.3,0.1,0.5,0.2,0.8c0,0.2,0.1,0.4,0.1,0.6
			c0,0.3,0.1,0.5,0.1,0.8c0,0.2,0.1,0.4,0.1,0.6c0,0.2,0.1,0.5,0.1,0.7s0,0.4,0.1,0.6c0,0.2,0,0.5,0.1,0.7c0,0.2,0,0.4,0,0.6
			c0,0.2,0,0.5,0,0.7s0,0.4,0,0.6c0,0.2,0,0.5,0,0.7s0,0.4,0,0.6c0,0.2,0,0.5,0,0.7s0,0.4,0,0.6c0,0.2,0,0.5,0,0.7s0,0.4,0,0.5
			c0,0.2,0,0.5-0.1,0.7c0,0.2,0,0.3-0.1,0.5c0,0.2-0.1,0.5-0.1,0.7s0,0.3-0.1,0.5c0,0.2-0.1,0.5-0.1,0.7c0,0.1,0,0.3-0.1,0.4
			c-0.1,0.3-0.1,0.6-0.2,0.9c0,0.1,0,0.1,0,0.2c-0.1,0.4-0.1,0.7-0.2,1c0,0.1,0,0.2-0.1,0.3c-0.1,0.2-0.1,0.5-0.2,0.7
			c0,0.1-0.1,0.3-0.1,0.4c0,0.2-0.1,0.4-0.1,0.6c0,0.1-0.1,0.3-0.1,0.4c0,0.2-0.1,0.3-0.1,0.5c0,0.1-0.1,0.3-0.1,0.4
			c0,0.2-0.1,0.3-0.1,0.5c0,0.1-0.1,0.3-0.1,0.4c0,0.1-0.1,0.3-0.1,0.4c0,0.1-0.1,0.2-0.1,0.4c0,0.1-0.1,0.3-0.1,0.4
			c0,0.1-0.1,0.2-0.1,0.3s-0.1,0.3-0.1,0.4l-0.1,0.3c0,0.1-0.1,0.2-0.1,0.3s-0.1,0.2-0.1,0.3l-0.1,0.3c0,0.1-0.1,0.2-0.1,0.2
			c0,0.1-0.1,0.2-0.1,0.3s-0.1,0.1-0.1,0.2c0,0.1-0.1,0.2-0.1,0.2l-0.1,0.2c0,0.1-0.1,0.1-0.1,0.2l-0.1,0.1l-0.1,0.2l-0.1,0.1
			c0,0.1,0,0.1-0.1,0.1v0.1l0,0c-2.5,3.2-5.3,6.1-8.4,8.8c2.6-2,5.1-4.2,7.5-6.5c0.2-0.1,0.3-0.3,0.5-0.5c0.1-0.1,0.2-0.2,0.3-0.3
			c0.2-0.2,0.5-0.5,0.7-0.7c1.4-1.4,2.7-2.8,3.9-4.3c1.6-1.8,3-3.7,4.4-5.7c0.2-0.3,0.4-0.6,0.6-0.9c2.6-3.7,4.8-7.6,6.7-11.7
			c0.7-3.7,1.1-7.4,1.1-11.1C172.3,99.9,166,78.8,155.3,62.5z M164.8,133.1c0-0.1,0-0.2,0-0.2c0-0.1,0-0.3,0-0.4c0-0.1,0-0.2,0-0.4
			c0-0.1,0-0.3,0-0.4c0-0.1,0-0.2,0-0.4c0-0.1,0-0.3,0-0.4c0-0.1,0-0.2,0-0.4c0-0.1,0-0.3,0-0.4c0-0.1,0-0.3,0-0.4
			c0-0.1,0-0.3,0-0.4s0-0.3,0-0.4c0-0.1,0-0.3-0.1-0.4c0-0.1,0-0.3-0.1-0.4s0-0.3-0.1-0.4s0-0.3-0.1-0.4s0-0.3-0.1-0.4
			s0-0.3-0.1-0.4s-0.1-0.3-0.1-0.4c0-0.1-0.1-0.3-0.1-0.4c0-0.1-0.1-0.3-0.1-0.4c0-0.1-0.1-0.3-0.1-0.4c0-0.2-0.1-0.3-0.1-0.5
			c0-0.1-0.1-0.3-0.1-0.4c0-0.2-0.1-0.3-0.1-0.5c0-0.1-0.1-0.3-0.1-0.4c0-0.2-0.1-0.3-0.1-0.5c0-0.1-0.1-0.2-0.1-0.4
			c-0.1-0.2-0.1-0.3-0.2-0.5c0-0.1-0.1-0.2-0.1-0.3c-0.1-0.2-0.1-0.4-0.2-0.6c0-0.1-0.1-0.2-0.1-0.3c-0.1-0.3-0.2-0.5-0.3-0.8l0,0
			l0,0c-0.8-2.1-1.8-4.1-3-6.1c-0.8-1.4-1.7-2.7-2.7-4c-7.5-9.7-21.6-17.8-42.1-24h-0.1l-0.9-0.2c-6-1.6-15.8-4.1-19.9-5.1h-0.2l0,0
			l-1.5-0.4l0,0C91,79.7,71.4,74.1,56.6,70c5.4-2.1,11-3.8,16.7-5.1c1.4-0.3,2.3-1.6,2.1-3v-0.1c-0.1-0.5-0.1-1-0.1-1.6v-0.1
			c0-0.6,0-1.2,0-1.7c-0.1-10.5,10.4-21.6,27.5-21.6c1,0,2,0,3,0.1c22.3,1.3,36.7,16.3,44.8,28.7c10.1,15.4,16.2,35.3,16.2,53.4
			C166.7,123.7,166.1,128.5,164.8,133.1L164.8,133.1z"/>
		<path class="st1" d="M179.2,92.2c0,0.1,0,0.2,0,0.2C179.2,92.3,179.2,92.2,179.2,92.2z"/>
		<path class="st1" d="M179.2,96.7c0,0.1,0,0.2,0,0.2C179.2,96.8,179.2,96.7,179.2,96.7z"/>
		<path class="st1" d="M37.8,35.1c-0.4,0.4-0.8,0.8-1.3,1.3c0.2-0.2,0.4-0.4,0.6-0.6S37.6,35.3,37.8,35.1z"/>
		<path class="st1" d="M155.6,36.4c-0.4-0.5-0.9-0.9-1.3-1.3c0.2,0.2,0.4,0.4,0.6,0.6C155.1,35.9,155.3,36.2,155.6,36.4z"/>
		<path class="st1" d="M93.6,11.3h0.2H93.6z"/>
		<path class="st1" d="M12.8,96.9c0-0.1,0-0.2,0-0.2C12.8,96.7,12.8,96.8,12.8,96.9z"/>
		<path class="st1" d="M12.8,92.4c0-0.1,0-0.2,0-0.2C12.8,92.2,12.8,92.3,12.8,92.4z"/>
		<path class="st1" d="M98.1,11.3h0.2H98.1z"/>
		<path class="st1" d="M36.5,152.7L36.5,152.7L36.5,152.7L36.5,152.7z"/>
		<path class="st1" d="M98.4,177.7h-0.2C98.2,177.7,98.3,177.7,98.4,177.7z"/>
		<path class="st1" d="M93.9,177.7h-0.2H93.9z"/>
		<path class="st1" d="M163.8,143.3c0.3-0.5,0.5-1,0.7-1.5c-0.2,0.3-0.4,0.6-0.6,0.9C163.9,142.9,163.8,143.1,163.8,143.3z"/>
		<path class="st1" d="M154.1,154.1c0.2-0.1,0.3-0.3,0.5-0.4l0,0C154.4,153.8,154.3,153.9,154.1,154.1z"/>
		<path class="st1" d="M154.6,153.6L154.6,153.6c0.3-0.3,0.6-0.6,1-1c-0.2,0.2-0.5,0.5-0.7,0.7C154.8,153.5,154.7,153.6,154.6,153.6
			z"/>
		<path class="st1" d="M37.9,154.1c-0.2-0.2-0.5-0.5-0.7-0.7s-0.4-0.4-0.6-0.6l0,0C37,153.2,37.4,153.7,37.9,154.1z"/>
		<path class="st1" d="M57.4,175.8c0.8-0.4,1.6-0.8,2.4-1.1C59,175.1,58.2,175.4,57.4,175.8z"/>
		<path class="st1" d="M62.8,173.3c-1,0.5-2,1-3,1.4C60.8,174.2,61.8,173.7,62.8,173.3z"/>
		<path class="st1" d="M62.8,173.3c0.9-0.4,1.7-0.8,2.6-1.3l0,0C64.6,172.4,63.7,172.8,62.8,173.3z"/>
		<path class="st4" d="M96,4.6c-49.7,0-90,40.3-90,90c0,23.9,9.5,46.9,26.5,63.8c0.7,0.7,1.4,1.3,2,2l0,0c0.7,0.6,1.4,1.3,2.1,1.9
			c3,2.6,6.1,5,9.4,7.2c1.6,1.1,3.3,2.1,4.9,3.1c1,0.6,2,1.2,3.1,1.7c1.1,0.6,2.1,1.1,3.2,1.6c12.1,5.7,25.3,8.7,38.6,8.7
			c0.4,0,0.7,0,1.1,0c4.9-0.1,9.9-0.5,14.8-1.4c48.9-8.8,81.5-55.5,72.7-104.4C176.9,35.8,139.6,4.6,96,4.6z M38.6,154.8L38.6,154.8
			c-0.3-0.2-0.5-0.5-0.7-0.7c-0.4-0.4-0.9-0.9-1.3-1.3l-0.1-0.1c-14.6-14.9-23.1-34.9-23.7-55.8c0-0.1,0-0.2,0-0.2
			c0-0.7,0-1.4,0-2.1s0-1.4,0-2.1c0-0.1,0-0.2,0-0.2c0.6-20.9,9-40.9,23.7-55.8c0.4-0.4,0.8-0.8,1.3-1.3
			C52.7,20.5,72.7,12,93.6,11.5h0.2c0.7,0,1.4,0,2.1,0s1.4,0,2.1,0h0.2c20.9,0.6,40.9,9,55.8,23.7c0.5,0.4,0.9,0.9,1.3,1.3
			c14.6,14.9,23.1,34.9,23.6,55.8c0,0.1,0,0.2,0,0.2c0,0.7,0,1.4,0,2.1c0,0.7,0,1.4,0,2.1c0,0.1,0,0.2,0,0.2
			c-0.3,10.3-2.5,20.5-6.5,30c-0.5,1.1-0.9,2.1-1.4,3.2c-1.9,4.1-4.2,8-6.7,11.7c-0.2,0.5-0.5,1-0.7,1.5c0-0.2,0.1-0.4,0.1-0.6
			c-1.4,2-2.9,3.9-4.4,5.7c-1.2,1.5-2.5,2.9-3.9,4.3c-0.3,0.3-0.6,0.7-1,1c-0.2,0.2-0.3,0.3-0.5,0.4c-2.4,2.3-4.9,4.5-7.6,6.6
			c-13.9,10.6-30.7,16.6-48.2,17.1c-0.1,0-0.2,0-0.2,0c-0.7,0-1.4,0-2.1,0s-1.4,0-2.1,0h-0.2c-9.7-0.3-19.2-2.2-28.2-5.8
			c-0.6-0.2-1.2-0.5-1.8-0.7c-0.5-0.2-1.1-0.5-1.6-0.7c-1.1-0.5-2.2-1-3.3-1.6c-4.2-2.1-8.2-4.6-12-7.4c-2.1-1.5-4.1-3.2-6-4.9
			C40,156.1,39.3,155.5,38.6,154.8"/>
	</g>
</g>
</svg>
