<svg width="169" height="137" viewBox="0 0 169 137" fill="none" xmlns="http://www.w3.org/2000/svg">
<g clip-path="url(#clip0)">
<path d="M149.795 30.9367H145.955C130.591 30.9367 126.75 38.6709 126.75 48.3386V61.8734H105.625C98.6338 61.8734 94.9557 59.1904 94.2405 54.1392H105.625C117.148 54.1392 120.989 51.3967 120.989 43.5047C120.989 38.6709 118.108 30.9367 105.625 30.9367H101.784C90.2614 30.9367 86.4205 36.5795 86.4205 44.4715V46.405H69.1364C62.1451 46.405 58.4671 43.722 57.7519 38.6709H69.1364C80.6591 38.6709 84.5 35.9283 84.5 28.0364C84.5 23.2025 81.6193 15.4683 69.1364 15.4683H65.2955C53.7727 15.4683 49.9318 21.1112 49.9318 29.0031V30.9367H42.25V0H34.5682V30.9367H21.125C1.92045 30.9367 0 38.6709 0 50.2721V52.2057C0 61.8734 3.84091 69.6075 19.2045 69.6075H23.0455C38.4091 69.6075 42.25 61.8734 42.25 52.2057V38.6709H49.9887C50.5064 47.4159 54.8128 54.1392 69.1364 54.1392H86.4773C86.995 62.8842 91.3007 69.6075 105.625 69.6075H126.75V104.411H134.432V69.6075H147.875C167.08 69.6075 169 61.8734 169 50.2721V48.3386C169 38.6709 165.159 30.9367 149.795 30.9367ZM34.5682 52.2057C34.5682 58.509 30.884 61.8734 23.0455 61.8734H19.2045C11.366 61.8734 7.68182 58.509 7.68182 52.2057V50.2721C7.68182 42.5379 9.44556 38.6709 21.125 38.6709H34.5682V52.2057ZM57.6136 29.1408C57.6136 26.4045 59.498 23.2025 65.2955 23.2025H69.1364C74.8977 23.2025 76.8182 25.1361 76.8182 27.0696C76.8182 29.8059 74.8977 30.9367 69.1364 30.9367H57.6136V29.1408ZM94.1023 44.6091C94.1023 41.8728 95.9866 38.6709 101.784 38.6709H105.625C111.386 38.6709 113.307 40.6044 113.307 42.5379C113.307 45.2743 111.386 46.405 105.625 46.405H94.1023V44.6091ZM147.875 61.8734H134.432V48.3386C134.432 42.036 138.116 38.6709 145.955 38.6709H149.795C157.634 38.6709 161.318 42.036 161.318 48.3386V50.2721C161.318 58.0063 159.554 61.8734 147.875 61.8734Z" fill="#FFDC78"/>
<path d="M13.7528 104.381H11.694V102.032H11.4198C10.5963 103.441 9.14059 104.768 6.34133 104.768C2.82767 104.768 0.0276489 101.977 0.0276489 97.6377C0.0276489 93.271 2.82767 90.5076 6.34133 90.5076C9.14136 90.5076 10.5963 91.8348 11.3645 93.1341H11.6395V85.0356H13.7535V104.381H13.7528ZM2.16857 97.6369C2.16857 100.898 4.08979 102.888 6.86216 102.888C9.66218 102.888 11.6664 100.871 11.6664 97.6369C11.6664 94.4033 9.66295 92.3591 6.86216 92.3591C4.08979 92.3591 2.16857 94.3754 2.16857 97.6369Z" fill="#FFDC78"/>
<path d="M23.577 90.5068C27.3649 90.5068 30.0282 93.0498 30.0282 97.1675V98.3006H19.0202C19.2122 101.064 21.0789 102.888 23.7683 102.888C26.102 102.888 27.282 101.645 27.9956 100.152L29.807 101.093C28.9558 102.694 27.4187 104.768 23.7675 104.768C19.5955 104.768 16.8508 101.673 16.8508 97.5272C16.8516 93.4636 19.6793 90.5068 23.577 90.5068ZM27.8596 96.5318C27.7221 93.8503 26.0483 92.3855 23.577 92.3855C21.0512 92.3855 19.3497 93.9888 19.0478 96.5318H27.8596Z" fill="#FFDC78"/>
<path d="M37.6839 90.5068C40.7036 90.5068 42.6256 91.9717 43.1741 94.459L41.2252 94.9842C40.8411 92.9949 39.4961 92.2207 37.6839 92.2207C35.8449 92.2207 34.6926 92.9663 34.6926 94.3206C34.6926 95.6199 35.8449 96.1729 37.4373 96.449L38.8101 96.6431C41.5548 97.1126 43.6412 97.9425 43.6412 100.595C43.6412 103.22 41.5002 104.769 38.2339 104.769C34.9123 104.769 32.4695 103.249 31.9748 99.9054L33.979 99.436C34.4184 102.199 36.1752 103.056 38.2339 103.056C40.2927 103.056 41.5824 102.116 41.5824 100.707C41.5824 99.3524 40.4302 98.7994 38.4805 98.4684L37.1078 98.2743C34.582 97.8597 32.6062 96.7824 32.6062 94.377C32.6062 91.9709 34.582 90.5068 37.6839 90.5068Z" fill="#FFDC78"/>
<path d="M47.7563 84.9243C48.7719 84.9243 49.5408 85.6699 49.5408 86.6653C49.5408 87.6885 48.7719 88.4341 47.7563 88.4341C46.7408 88.4341 45.9995 87.6885 45.9995 86.6653C45.9995 85.6699 46.7408 84.9243 47.7563 84.9243ZM48.8264 104.381H46.7132V90.8936H48.8264V104.381Z" fill="#FFDC78"/>
<path d="M65.6803 90.8928V103.689C65.6803 107.863 62.9625 110.294 58.8995 110.294C54.8919 110.294 52.8885 107.863 52.2563 105.9L54.1783 105.155C54.6722 106.785 56.045 108.443 58.8719 108.443C61.6996 108.443 63.5662 106.785 63.5662 103.578V101.837H63.2912C62.523 103.108 61.0405 104.462 58.2681 104.462C54.7544 104.462 51.9544 101.727 51.9544 97.4707C51.9544 93.2424 54.7544 90.5061 58.2681 90.5061C61.0405 90.5061 62.523 91.8333 63.3465 93.2146H63.6208V90.8928H65.6803ZM63.5939 97.4715C63.5939 94.3755 61.5905 92.3592 58.7897 92.3592C56.0173 92.3592 54.0953 94.3206 54.0953 97.4715C54.0953 100.649 56.0173 102.584 58.7897 102.584C61.5905 102.584 63.5939 100.595 63.5939 97.4715Z" fill="#FFDC78"/>
<path d="M71.7167 90.8928V93.1597H71.9917C72.6231 91.889 73.9674 90.6167 76.7406 90.6167C79.6773 90.6167 82.0387 92.5796 82.0387 96.1992V104.38H79.9523V96.3377C79.9523 93.6292 78.4974 92.4404 76.1913 92.4404C73.6118 92.4404 71.772 94.1822 71.772 97.5542V104.38H69.6587V90.8928H71.7167Z" fill="#FFDC78"/>
<path d="M6.72541 117.6C10.5133 117.6 13.1766 120.141 13.1766 124.26V125.393H2.16855C2.3606 128.156 4.22728 129.981 6.91668 129.981C9.25042 129.981 10.4303 128.738 11.144 127.245L12.9554 128.185C12.1042 129.788 10.5671 131.861 6.91592 131.861C2.74392 131.861 -0.000793457 128.765 -0.000793457 124.618C-2.52752e-05 120.556 2.82688 117.6 6.72541 117.6ZM11.0073 123.624C10.8697 120.944 9.19588 119.479 6.72464 119.479C4.19886 119.479 2.49733 121.081 2.19544 123.624H11.0073Z" fill="#FFDC78"/>
<path d="M24.674 117.986H26.7327V120.308H27.0077C27.8312 118.926 29.2862 117.6 32.0585 117.6C35.5722 117.6 38.3999 120.363 38.3999 124.73C38.3999 129.069 35.5722 131.86 32.0585 131.86C29.2862 131.86 27.8312 130.533 27.0631 129.207H26.788V137H24.674V117.986ZM36.2582 124.73C36.2582 121.468 34.337 119.45 31.5369 119.45C28.7646 119.45 26.7604 121.495 26.7604 124.73C26.7604 127.963 28.7646 129.981 31.5369 129.981C34.3362 129.981 36.2582 127.99 36.2582 124.73Z" fill="#FFDC78"/>
<path d="M47.3722 117.6C51.1609 117.6 53.8234 120.141 53.8234 124.26V125.393H42.8154C43.0082 128.156 44.8741 129.981 47.5643 129.981C49.898 129.981 51.0779 128.738 51.7916 127.245L53.6029 128.185C52.7518 129.788 51.2147 131.861 47.5635 131.861C43.3915 131.861 40.6468 128.765 40.6468 124.618C40.6476 120.556 43.4745 117.6 47.3722 117.6ZM51.6548 123.624C51.5173 120.944 49.8427 119.479 47.3722 119.479C44.8464 119.479 43.1449 121.081 42.843 123.624H51.6548Z" fill="#FFDC78"/>
<path d="M61.4791 117.6C64.4989 117.6 66.4209 119.064 66.9693 121.552L65.0197 122.077C64.6356 120.086 63.2905 119.312 61.4784 119.312C59.6393 119.312 58.4871 120.059 58.4871 121.413C58.4871 122.713 59.6393 123.264 61.2318 123.542L62.6045 123.734C65.3492 124.205 67.4356 125.034 67.4356 127.687C67.4356 130.313 65.2947 131.861 62.0284 131.861C58.7068 131.861 56.2639 130.339 55.7692 126.996L57.7734 126.526C58.2128 129.29 59.9697 130.148 62.0284 130.148C64.0871 130.148 65.3769 129.208 65.3769 127.799C65.3769 126.444 64.2246 125.891 62.275 125.56L60.9022 125.366C58.3764 124.952 56.4007 123.874 56.4007 121.469C56.4014 119.064 58.378 117.6 61.4791 117.6Z" fill="#FFDC78"/>
<path d="M81.269 137V129.207H80.994C80.2258 130.533 78.7709 131.86 75.9709 131.86C72.4572 131.86 69.6572 129.068 69.6572 124.73C69.6572 120.363 72.4572 117.6 75.9709 117.6C78.7709 117.6 80.2258 118.925 81.0493 120.308H81.3235V117.986H83.3823V137H81.269ZM81.2967 124.73C81.2967 121.495 79.2932 119.45 76.4924 119.45C73.7201 119.45 71.7989 121.468 71.7989 124.73C71.7989 127.99 73.7201 129.981 76.4924 129.981C79.2932 129.981 81.2967 127.963 81.2967 124.73Z" fill="#FFDC78"/>
<path d="M97.6267 131.472V129.207H97.3517C96.6933 130.478 95.3483 131.721 92.5751 131.721C89.6384 131.721 87.277 129.787 87.277 126.166V117.986H89.3634V126.028C89.3634 128.737 90.8183 129.924 93.152 129.924C95.7047 129.924 97.5714 128.183 97.5714 124.812V117.986H99.6577V131.472H97.6267Z" fill="#FFDC78"/>
<path d="M104.706 112.016C105.722 112.016 106.491 112.763 106.491 113.758C106.491 114.78 105.722 115.527 104.706 115.527C103.691 115.527 102.949 114.78 102.949 113.758C102.95 112.763 103.691 112.016 104.706 112.016ZM105.777 131.472H103.664V117.986H105.777V131.472Z" fill="#FFDC78"/>
<path d="M114.532 117.6C117.552 117.6 119.474 119.064 120.022 121.552L118.073 122.077C117.689 120.086 116.344 119.312 114.531 119.312C112.692 119.312 111.54 120.059 111.54 121.413C111.54 122.713 112.692 123.264 114.285 123.542L115.657 123.734C118.402 124.205 120.489 125.034 120.489 127.687C120.489 130.313 118.348 131.861 115.081 131.861C111.76 131.861 109.317 130.339 108.822 126.996L110.826 126.526C111.266 129.29 113.023 130.148 115.081 130.148C117.14 130.148 118.43 129.208 118.43 127.799C118.43 126.444 117.278 125.891 115.328 125.56L113.955 125.366C111.429 124.952 109.454 123.874 109.454 121.469C109.454 119.064 111.43 117.6 114.532 117.6Z" fill="#FFDC78"/>
<path d="M128.997 117.6C132.401 117.6 134.432 119.479 134.432 122.657V131.472H132.401V129.538H132.099C131.495 130.616 130.342 131.86 127.707 131.86C124.907 131.86 122.766 130.339 122.766 127.631C122.766 124.895 124.907 123.541 127.762 123.541H132.346V122.546C132.346 120.611 131.221 119.395 128.997 119.395C126.801 119.395 125.565 120.611 125.154 122.324L123.178 121.717C123.809 119.45 125.62 117.6 128.997 117.6ZM128.009 130.092C130.589 130.092 132.346 128.405 132.346 125.615V125.282H127.844C126.115 125.282 124.852 126.084 124.852 127.604C124.852 129.123 126.114 130.092 128.009 130.092Z" fill="#FFDC78"/>
</g>
<defs>
<clipPath id="clip0">
<rect width="169" height="137" fill="white"/>
</clipPath>
</defs>
</svg>
