<?xml version="1.0" encoding="utf-8"?>
<!-- Generator: Adobe Illustrator 23.0.6, SVG Export Plug-In . SVG Version: 6.00 Build 0)  -->
<svg version="1.1" id="Camada_1" xmlns="http://www.w3.org/2000/svg" xmlns:xlink="http://www.w3.org/1999/xlink" x="0px" y="0px"
	 viewBox="0 0 492 189" style="enable-background:new 0 0 492 189;" xml:space="preserve">
<style type="text/css">
	.st0{fill:#191919;}
	.st1{fill:#CD2800;}
	.st2{fill:#FFA03C;}
	.st3{fill:#690000;}
</style>
<g>
	<g>
		<path class="st0" d="M307.2,5.8v70.7h-5.7v-4.8c-7.6,7.5-19.8,7.4-27.2-0.2s-7.4-19.8,0.2-27.2c7.5-7.4,19.6-7.4,27.1,0V5.8H307.2
			z M301.5,57.9c0-7.5-6.1-13.5-13.5-13.5c-7.5,0-13.5,6.1-13.5,13.5s6.1,13.5,13.5,13.5c0,0,0,0,0,0
			C295.4,71.4,301.5,65.4,301.5,57.9z"/>
		<path class="st0" d="M320.3,28.6c-0.1-2.2,1.7-4.1,3.9-4.2c2.2-0.1,4.1,1.7,4.2,3.9s-1.7,4.1-3.9,4.2c0,0-0.1,0-0.1,0
			C322.2,32.5,320.4,30.8,320.3,28.6z M321.5,39.4h5.7v37h-5.7L321.5,39.4z"/>
		<path class="st0" d="M348.5,45v21c-0.1,3,2.3,5.5,5.3,5.6c0.1,0,0.2,0,0.3,0h4.3V76c-1.5,0.8-3.2,1.2-4.9,1.2
			c-5.8,0-10.6-4.6-10.6-10.5V45h-6.2v-5.6h6.2V23.3h5.7v16.1h9.9V45L348.5,45z"/>
		<path class="st0" d="M365.6,57.9c0-10.6,8.6-19.3,19.3-19.3c10.6,0,19.3,8.6,19.3,19.3c0,10.6-8.6,19.3-19.3,19.3
			C374.3,77.2,365.7,68.6,365.6,57.9C365.6,57.9,365.6,57.9,365.6,57.9z M398.4,57.9c0-7.5-6.1-13.5-13.5-13.5
			c-7.5,0-13.5,6.1-13.5,13.5c0,7.5,6.1,13.5,13.5,13.5c0,0,0,0,0,0C392.4,71.4,398.4,65.4,398.4,57.9L398.4,57.9z"/>
		<path class="st0" d="M436,38.9v5.8c-0.9-0.3-1.9-0.4-2.9-0.4c-6.7-0.1-12.2,5.1-12.3,11.8c0,0.1,0,0.1,0,0.2v20.1h-5.7v-37h5.7
			v5.3c2.9-3.9,7.5-6.1,12.3-6C434.1,38.6,435,38.7,436,38.9z"/>
		<path class="st0" d="M485.2,71.6v4.8c-0.8,0.5-1.8,0.8-2.8,0.7c-4,0.1-7.5-2.5-8.5-6.4c-7.1,7.8-19.3,8.4-27.1,1.2
			c-7.8-7.1-8.4-19.3-1.2-27.1c3.7-4,8.8-6.3,14.2-6.2c5.1,0,9.9,2,13.5,5.6v-4.8h5.7v27.4c0,3.4,1.8,4.8,3.8,4.8L485.2,71.6z
			 M473.4,57.9c0-7.5-6.1-13.5-13.5-13.5c-7.5,0-13.5,6.1-13.5,13.5s6.1,13.5,13.5,13.5c0,0,0,0,0,0
			C467.3,71.4,473.4,65.4,473.4,57.9L473.4,57.9z"/>
		<path class="st0" d="M253.2,64.7c-3.8,6.5-12.1,8.6-18.6,4.9c-3.9-2.3-6.4-6.3-6.7-10.8h32.7l0.1-1.2c-0.2-10.6-9-19-19.6-18.8
			c-10.6,0.2-19,9-18.8,19.6c0.2,10.6,9,19,19.6,18.8c6.7-0.1,12.9-3.8,16.2-9.6L253.2,64.7z M241.5,44.4c5.8,0,10.9,3.7,12.7,9.2
			h-25.5C230.6,48.1,235.7,44.4,241.5,44.4z"/>
	</g>
	<g>
		<path class="st0" d="M219.9,143.8l8.7-4.3c1.1,2.4,3.6,3.9,6.2,3.9c1.9,0,3.2-0.8,3.2-2.3c0-1.3-1.1-2.2-4.4-3.5
			c-4.3-1.6-11.7-4.1-11.7-11.5c0-6.3,5.4-11.8,13.8-11.8c4.6,0,9.1,1.7,12.5,4.9l-5.9,6.7c-1.4-1.7-3.5-2.7-5.7-2.7
			c-2,0-3,0.9-3,2.1c0,1.4,1.3,1.9,4,3.1c5.3,2,11.4,5,11.4,12.4c0,6.9-5.1,12-13.4,12C228.9,152.7,222.1,149.5,219.9,143.8z"/>
		<path class="st0" d="M299.1,142.3v9.6c-1,0.5-2.1,0.7-3.1,0.7c-4.6,0.1-9-2.3-11.4-6.3c-3,4-7.7,6.4-12.7,6.3
			c-10.3,0-18.3-8.5-18.3-19.3s8.1-19.3,18.3-19.3c3.9-0.1,7.7,1.4,10.6,4v-3.2h11.8v23.8c0,3.1,1.7,3.6,3.2,3.6L299.1,142.3z
			 M283,133.4c0-4.9-3.9-8.8-8.8-8.8c-4.9,0-8.8,3.9-8.8,8.8c0,4.9,3.9,8.8,8.8,8.8C279,142.2,283,138.3,283,133.4
			C283,133.4,283,133.4,283,133.4L283,133.4z"/>
		<path class="st0" d="M346.6,133.4c0,10.7-8.1,19.3-18.2,19.3c-3.9,0.1-7.7-1.4-10.6-4v3.3l-11.8-0.1V88.5h11.8v29.6
			c2.9-2.6,6.7-4,10.6-4C338.5,114.2,346.6,122.7,346.6,133.4z M334.8,133.4c0-4.9-3.9-8.8-8.8-8.8c-4.9,0-8.8,3.9-8.8,8.8
			c0,4.9,3.9,8.8,8.8,8.8c4.8,0,8.8-3.8,8.8-8.7C334.8,133.5,334.8,133.5,334.8,133.4z"/>
		<path class="st0" d="M354.5,102.2c0-3.6,2.9-6.5,6.5-6.5c3.6,0,6.5,2.9,6.5,6.5c0,3.6-2.9,6.5-6.5,6.5c0,0,0,0,0,0
			C357.4,108.7,354.5,105.8,354.5,102.2z M355.1,114.9h11.8v37h-11.8V114.9z"/>
		<path class="st0" d="M421,142.3v9.6c-1,0.5-2.1,0.7-3.1,0.7c-4.6,0.1-9-2.3-11.4-6.3c-3,4-7.7,6.4-12.7,6.3
			c-10.3,0-18.3-8.5-18.3-19.3s8.1-19.3,18.3-19.3c3.9-0.1,7.7,1.4,10.6,4v-3.2h11.8v23.8c0,3.1,1.7,3.6,3.2,3.6L421,142.3z
			 M404.9,133.4c0-4.9-3.9-8.8-8.8-8.8c-4.9,0-8.8,3.9-8.8,8.8c0,4.9,3.9,8.8,8.8,8.8C400.9,142.2,404.9,138.3,404.9,133.4
			C404.9,133.4,404.9,133.4,404.9,133.4L404.9,133.4z M399,110.2h-7.8l8.1-13.8h11.2L399,110.2z"/>
	</g>
	<g>
		<path class="st0" d="M171.9,63.3c-4-9.6-9.9-18.3-17.1-25.7c14.6,14.9,23.1,34.9,23.6,55.8C178.1,83,175.9,72.9,171.9,63.3z"/>
		<path class="st0" d="M127.6,19c-9.5-4-19.7-6.2-30-6.5c20.9,0.6,40.9,9,55.8,23.7C146,28.9,137.2,23.1,127.6,19z"/>
		<path class="st0" d="M95.2,12.5c0.7,0,1.4,0,2.1,0C96.6,12.5,95.9,12.5,95.2,12.5z"/>
		<path class="st0" d="M178.4,93.6c0,0.7,0,1.4,0,2.1C178.4,95,178.4,94.3,178.4,93.6z"/>
		<path class="st0" d="M93.1,12.5c0.7,0,1.4,0,2.1,0C94.5,12.5,93.8,12.5,93.1,12.5z"/>
		<path class="st0" d="M170.5,131.3c0.5-1,1-2.1,1.4-3.2c4-9.5,6.2-19.7,6.5-30C178.1,109.6,175.4,120.9,170.5,131.3L170.5,131.3z"
			/>
		<path class="st0" d="M178.4,95.7c0,0.7,0,1.4,0,2.1C178.4,97.2,178.4,96.4,178.4,95.7z"/>
		<path class="st0" d="M18.5,63.3c-4,9.5-6.2,19.7-6.5,30c0.6-20.9,9-40.9,23.7-55.8C28.4,45,22.6,53.7,18.5,63.3z"/>
		<path class="st0" d="M18.5,128.1c4.1,9.6,9.9,18.4,17.2,25.8C21.1,139,12.6,119,12,98.1C12.3,108.4,14.5,118.6,18.5,128.1z"/>
		<path class="st0" d="M12,95.7c0-0.7,0-1.4,0-2.1C12,94.3,12,95,12,95.7z"/>
		<path class="st0" d="M12,97.9c0-0.7,0-1.4,0-2.1C12,96.4,12,97.2,12,97.9z"/>
		<path class="st0" d="M62.8,19c-9.6,4.1-18.4,9.9-25.8,17.2c14.9-14.7,34.9-23.1,55.8-23.7C82.5,12.8,72.3,15,62.8,19z"/>
		<path class="st1" d="M85.7,85.3c-9.1-2.6-31.2-8.8-39.2-11c-1.5-0.4-2.4-2-1.9-3.5c0.2-0.8,0.7-1.4,1.4-1.7
			c7.3-3.4,14.9-6.1,22.8-8c0-0.5,0-1.1,0-1.6c0-13,12.7-27.1,33.2-27.1c1.1,0,2.2,0,3.2,0.1h0c10.2,0.6,20,3.9,28.5,9.7
			c8.3,5.7,15.3,13,20.8,21.5c10.7,16.3,17.1,37.4,17.1,56.4c0,3.7-0.4,7.5-1.1,11.1c4.9-10.4,7.6-21.7,7.9-33.2c0-0.1,0-0.2,0-0.2
			c0-0.7,0-1.4,0-2.1s0-1.4,0-2.1c0-0.1,0-0.2,0-0.2c-0.6-20.9-9-40.8-23.6-55.8c-0.2-0.2-0.5-0.5-0.7-0.7c-0.2-0.2-0.4-0.4-0.6-0.6
			c-15-14.7-34.9-23.1-55.8-23.7l-0.2,0c-0.7,0-1.4,0-2.1,0s-1.4,0-2.1,0l-0.2,0c-20.9,0.6-40.9,9-55.8,23.7
			c-0.2,0.2-0.4,0.4-0.6,0.6s-0.4,0.4-0.6,0.6C21.1,52.5,12.6,72.4,12,93.4c0,0.1,0,0.2,0,0.2c0,0.7,0,1.4,0,2.1s0,1.4,0,2.1
			c0,0.1,0,0.2,0,0.2c0.6,20.9,9,40.9,23.7,55.8l0.1,0.1L85.7,85.3z"/>
		<path class="st2" d="M92.8,81.4c4.1,1,13.9,3.5,19.9,5.1l0.9,0.2l0.1,0c20.4,6.2,34.6,14.2,42.1,24c1,1.3,1.9,2.6,2.7,4
			c1.2,1.9,2.1,4,3,6.1l0,0c0.1,0.3,0.2,0.5,0.3,0.8c0,0.1,0.1,0.2,0.1,0.3c0.1,0.2,0.1,0.4,0.2,0.6c0,0.1,0.1,0.2,0.1,0.3
			c0.1,0.2,0.1,0.3,0.2,0.5c0,0.1,0.1,0.2,0.1,0.4c0,0.2,0.1,0.3,0.1,0.5c0,0.1,0.1,0.3,0.1,0.4c0,0.2,0.1,0.3,0.1,0.5
			c0,0.1,0.1,0.3,0.1,0.4c0,0.2,0.1,0.3,0.1,0.5c0,0.1,0.1,0.3,0.1,0.4c0,0.1,0.1,0.3,0.1,0.4c0,0.1,0.1,0.3,0.1,0.4
			c0,0.1,0.1,0.3,0.1,0.4s0,0.3,0.1,0.4s0.1,0.3,0.1,0.4s0,0.3,0.1,0.4s0,0.3,0.1,0.4s0,0.3,0.1,0.4c0,0.1,0,0.3,0.1,0.4
			c0,0.1,0,0.3,0,0.4s0,0.3,0,0.4c0,0.1,0,0.3,0,0.4c0,0.1,0,0.3,0,0.4c0,0.1,0,0.2,0,0.4c0,0.1,0,0.3,0,0.4c0,0.1,0,0.2,0,0.4
			c0,0.1,0,0.3,0,0.4c0,0.1,0,0.2,0,0.4c0,0.1,0,0.3,0,0.4c0,0.1,0,0.2,0,0.2c1.3-4.6,1.9-9.3,1.9-14.1c0-18-6-38-16.2-53.4
			c-8.2-12.4-22.6-27.5-44.8-28.7c-1,0-2-0.1-3-0.1c-17,0-27.5,11.1-27.5,21.5c0,0.6,0,1.2,0,1.7l0,0.1c0,0.6,0.1,1.1,0.1,1.6l0,0.1
			c0.1,1.4-0.8,2.7-2.1,3c-5.7,1.4-11.2,3.1-16.7,5.1c14.8,4.2,34.4,9.7,35.3,9.9l1.5,0.4l0,0L92.8,81.4z M102,53.4
			c3.4,0,6.1,2.7,6.1,6.1c0,3.4-2.7,6.1-6.1,6.1c-3.4,0-6.1-2.7-6.1-6.1c0,0,0,0,0,0C95.9,56.1,98.6,53.4,102,53.4z"/>
		<path class="st0" d="M97.3,178.9c-0.7,0-1.4,0-2.1,0C95.9,179,96.6,179,97.3,178.9z"/>
		<path class="st0" d="M95.2,179c-0.7,0-1.4,0-2.1,0C93.8,179,94.5,179,95.2,179z"/>
		<path class="st0" d="M64.6,173.2c9,3.6,18.5,5.5,28.2,5.8C83.2,178.7,73.6,176.7,64.6,173.2L64.6,173.2z"/>
		<path class="st0" d="M97.6,178.9c17.5-0.5,34.3-6.4,48.2-17.1l0.1-0.1C132,172.5,115.1,178.5,97.6,178.9z"/>
		<path class="st1" d="M100.2,89.5c0.1,0.1,0.1,0.1,0.2,0.2c0.1,0.2,0.3,0.3,0.4,0.5l0.1,0.1c0.2,0.2,0.3,0.4,0.5,0.6
			c0,0.1,0.1,0.1,0.1,0.2l0.3,0.4l0.2,0.3c0.1,0.1,0.2,0.3,0.3,0.4c0.1,0.1,0.1,0.2,0.2,0.3c0.1,0.1,0.2,0.3,0.3,0.4l0.2,0.3
			c0.1,0.1,0.2,0.3,0.3,0.4c0.1,0.1,0.1,0.2,0.2,0.3c0.1,0.1,0.2,0.3,0.3,0.5c0.1,0.1,0.1,0.2,0.2,0.3c0.1,0.2,0.2,0.4,0.3,0.5
			c0,0.1,0.1,0.1,0.1,0.2c0.1,0.3,0.3,0.5,0.4,0.8l0.1,0.2c0.1,0.2,0.2,0.4,0.3,0.6c0.1,0.1,0.1,0.2,0.2,0.3
			c0.1,0.2,0.2,0.3,0.3,0.5l0.2,0.3c0.1,0.2,0.2,0.3,0.3,0.5c0.1,0.1,0.1,0.2,0.2,0.4c0.1,0.2,0.2,0.3,0.2,0.5
			c0.1,0.1,0.1,0.2,0.2,0.4c0.1,0.2,0.2,0.4,0.2,0.5c0.1,0.1,0.1,0.2,0.2,0.4c0.1,0.2,0.2,0.4,0.3,0.6c0,0.1,0.1,0.2,0.1,0.3
			c0.1,0.3,0.2,0.6,0.3,0.8l0,0.1c0.1,0.3,0.2,0.6,0.3,0.9c0,0.1,0.1,0.2,0.1,0.3c0.1,0.2,0.2,0.4,0.2,0.7c0,0.1,0.1,0.3,0.1,0.4
			c0.1,0.2,0.1,0.4,0.2,0.6c0,0.1,0.1,0.3,0.1,0.4c0.1,0.2,0.1,0.4,0.2,0.6c0,0.1,0.1,0.3,0.1,0.4c0.1,0.2,0.1,0.4,0.2,0.6
			c0,0.1,0.1,0.3,0.1,0.4c0.1,0.2,0.1,0.4,0.2,0.7c0,0.1,0.1,0.3,0.1,0.4c0.1,0.3,0.1,0.5,0.2,0.8c0,0.1,0,0.2,0.1,0.3
			c0.1,0.4,0.1,0.7,0.2,1.1c0,0.1,0,0.2,0,0.3c0,0.3,0.1,0.6,0.1,0.9c0,0.1,0,0.3,0.1,0.4c0,0.2,0.1,0.5,0.1,0.7
			c0,0.2,0,0.3,0.1,0.5c0,0.2,0.1,0.5,0.1,0.7c0,0.2,0,0.3,0.1,0.5c0,0.2,0,0.5,0.1,0.7c0,0.2,0,0.3,0,0.5c0,0.2,0,0.5,0,0.8
			c0,0.2,0,0.3,0,0.5c0,0.3,0,0.6,0,0.8c0,0.1,0,0.3,0,0.4c0,0.4,0,0.8,0,1.3c0,3-0.3,5.9-0.9,8.8c-0.2,0.8-0.4,1.6-0.6,2.4
			c-0.6,2-1.3,4-2.2,5.9c-0.4,0.8-0.7,1.5-1.1,2.3c-0.6,1.1-1.3,2.3-2,3.4c-3.5,5.2-7.8,9.9-12.7,13.8c-6.8,5.4-14.1,10.1-21.8,14
			c-1,0.5-2,1-3,1.5c-0.5,0.3-1,0.5-1.5,0.8c-0.1,0.1-0.2,0.1-0.4,0.2c9,3.5,18.5,5.5,28.2,5.8l0.2,0c0.7,0,1.4,0,2.1,0
			c0.7,0,1.4,0,2.1,0l0.2,0c17.5-0.5,34.4-6.5,48.3-17.1c3-2.7,5.9-5.6,8.4-8.8l0,0l0-0.1c0,0,0-0.1,0.1-0.1l0.1-0.1l0.1-0.2
			c0,0,0-0.1,0.1-0.1l0.1-0.2l0.1-0.2c0-0.1,0.1-0.2,0.1-0.2c0-0.1,0.1-0.1,0.1-0.2s0.1-0.2,0.1-0.3c0-0.1,0.1-0.2,0.1-0.2l0.1-0.3
			c0-0.1,0.1-0.2,0.1-0.3c0-0.1,0.1-0.2,0.1-0.3c0-0.1,0.1-0.2,0.1-0.3c0-0.1,0.1-0.2,0.1-0.4c0-0.1,0.1-0.2,0.1-0.3
			c0-0.1,0.1-0.3,0.1-0.4c0-0.1,0.1-0.2,0.1-0.4c0-0.1,0.1-0.3,0.1-0.4c0-0.1,0.1-0.2,0.1-0.4c0-0.2,0.1-0.3,0.1-0.5
			c0-0.1,0.1-0.3,0.1-0.4c0-0.2,0.1-0.3,0.1-0.5c0-0.1,0.1-0.3,0.1-0.4c0.1-0.2,0.1-0.4,0.1-0.6c0-0.1,0.1-0.3,0.1-0.4
			c0.1-0.2,0.1-0.5,0.2-0.7c0-0.1,0-0.2,0.1-0.3c0.1-0.3,0.1-0.7,0.2-1c0-0.1,0-0.1,0-0.2c0.1-0.3,0.1-0.6,0.2-0.9
			c0-0.1,0-0.3,0.1-0.4c0-0.2,0.1-0.5,0.1-0.7c0-0.2,0-0.3,0.1-0.5c0-0.2,0.1-0.5,0.1-0.7c0-0.2,0-0.3,0.1-0.5c0-0.2,0-0.5,0.1-0.7
			c0-0.2,0-0.4,0-0.5c0-0.2,0-0.5,0-0.7c0-0.2,0-0.4,0-0.6c0-0.2,0-0.5,0-0.7c0-0.2,0-0.4,0-0.6c0-0.2,0-0.5,0-0.7
			c0-0.2,0-0.4,0-0.6c0-0.2,0-0.5,0-0.7c0-0.2,0-0.4,0-0.6c0-0.2,0-0.5-0.1-0.7c0-0.2,0-0.4-0.1-0.6c0-0.2-0.1-0.5-0.1-0.7
			c0-0.2-0.1-0.4-0.1-0.6c0-0.3-0.1-0.5-0.1-0.8c0-0.2-0.1-0.4-0.1-0.6c-0.1-0.3-0.1-0.5-0.2-0.8c0-0.2-0.1-0.4-0.1-0.6
			c-0.1-0.3-0.1-0.6-0.2-0.8c0-0.2-0.1-0.4-0.1-0.6c-0.1-0.3-0.2-0.6-0.3-0.9c0-0.2-0.1-0.3-0.1-0.5c-0.2-0.5-0.3-0.9-0.5-1.4l0,0
			c-0.5-1.3-1.1-2.7-1.8-3.9c-0.2-0.4-0.5-0.8-0.7-1.3c-0.7-1.2-1.5-2.4-2.4-3.5c-0.2-0.3-0.4-0.5-0.6-0.8c-0.7-0.8-1.4-1.6-2.2-2.4
			l0,0c-0.5-0.5-1-1-1.6-1.5l-0.1-0.1c-7.4-6.7-19-12.4-34.7-17.1l-0.1,0l-0.6-0.2l-0.2-0.1l-0.5-0.1l-0.3-0.1l-0.5-0.1l-0.3-0.1
			l-0.5-0.1l-0.3-0.1l-0.5-0.1l-0.3-0.1l-0.5-0.1l-0.3-0.1l-0.6-0.2l-0.3-0.1l-0.7-0.2l-0.2-0.1l-1.7-0.4l-0.4-0.1l-0.5-0.1
			l-0.3-0.1l-0.6-0.1l-0.3-0.1l-0.5-0.1l-0.3-0.1l-0.5-0.1l-0.4-0.1l-0.2,0l0.1,0.1C100,89.2,100.1,89.3,100.2,89.5z"/>
		<path class="st0" d="M57.9,170.2c-4.2-2.1-8.2-4.6-12-7.4v0C49.7,165.6,53.7,168.1,57.9,170.2L57.9,170.2z"/>
		<path class="st0" d="M45.9,162.8c-2.1-1.5-4.1-3.2-6-4.9l0,0C41.8,159.6,43.8,161.3,45.9,162.8L45.9,162.8z"/>
		<path class="st2" d="M104.4,111.6c-1.1-5.5-3.2-10.8-6.4-15.5c-0.3-0.5-0.6-1-1-1.4c-0.3-0.4-0.6-0.8-0.8-1.1l-0.1-0.1
			c-0.3-0.3-0.5-0.7-0.8-1l-0.1-0.1c-0.3-0.3-0.5-0.6-0.7-0.9l-0.1-0.1c-0.3-0.3-0.5-0.6-0.7-0.8l0,0c-0.3-0.3-0.5-0.5-0.8-0.8l0,0
			c-0.2-0.2-0.5-0.5-0.7-0.7L92.2,89c-0.2-0.2-0.4-0.4-0.6-0.6l-0.1-0.1c-0.2-0.2-0.4-0.4-0.6-0.5l0,0l-44,60.4l-7.1,9.7
			c1.9,1.7,3.9,3.3,6,4.9c3.8,2.8,7.8,5.3,12,7.4c28.9-13.8,47.3-28.4,47.3-50C105.2,117.3,104.9,114.4,104.4,111.6z"/>
		<path class="st0" d="M163.8,142.9L163.8,142.9c2.5-3.7,4.8-7.6,6.7-11.6v0C168.5,135.4,166.3,139.2,163.8,142.9z"/>
		<path class="st0" d="M163.1,143.9c0.2-0.3,0.4-0.6,0.6-0.9l0,0C163.5,143.2,163.3,143.6,163.1,143.9L163.1,143.9z"/>
		<path class="st0" d="M163.6,129.6c0-0.1,0-0.3-0.1-0.4C163.6,129.4,163.6,129.5,163.6,129.6z"/>
		<path class="st0" d="M164,133.6c0-0.1,0-0.2,0-0.4C164,133.4,164,133.5,164,133.6z"/>
		<path class="st0" d="M161.4,120.8c-0.8-2.1-1.8-4.1-3-6.1C159.6,116.7,160.6,118.7,161.4,120.8z"/>
		<path class="st0" d="M163.5,128.8c0-0.1,0-0.3-0.1-0.4C163.5,128.5,163.5,128.7,163.5,128.8z"/>
		<path class="st0" d="M113.6,86.8l-0.9-0.2L113.6,86.8z"/>
		<path class="st0" d="M163.9,132.8c0-0.1,0-0.2,0-0.4C163.9,132.6,163.9,132.7,163.9,132.8z"/>
		<path class="st0" d="M163.9,132c0-0.1,0-0.2,0-0.4C163.9,131.8,163.9,131.9,163.9,132z"/>
		<path class="st0" d="M163.8,131.2c0-0.1,0-0.3,0-0.4C163.8,131,163.8,131.1,163.8,131.2z"/>
		<path class="st0" d="M163.7,130.4c0-0.1,0-0.3,0-0.4C163.7,130.2,163.7,130.3,163.7,130.4z"/>
		<path class="st0" d="M92.8,81.4l-0.2,0L92.8,81.4z"/>
		<path class="st0" d="M162.6,124.6c0-0.1-0.1-0.3-0.1-0.4C162.6,124.4,162.6,124.5,162.6,124.6z"/>
		<path class="st0" d="M163,126.3c0-0.1-0.1-0.3-0.1-0.4C163,126,163,126.2,163,126.3z"/>
		<path class="st0" d="M162.1,122.9c0-0.1-0.1-0.2-0.1-0.3C162.1,122.7,162.1,122.8,162.1,122.9z"/>
		<path class="st0" d="M162.8,125.5c0-0.1-0.1-0.3-0.1-0.4C162.8,125.2,162.8,125.3,162.8,125.5z"/>
		<path class="st0" d="M162.4,123.8c0-0.1-0.1-0.2-0.1-0.4C162.3,123.5,162.4,123.6,162.4,123.8z"/>
		<path class="st0" d="M161.4,120.8L161.4,120.8L161.4,120.8z"/>
		<path class="st0" d="M161.8,122c0-0.1-0.1-0.2-0.1-0.3C161.8,121.8,161.8,121.9,161.8,122z"/>
		<path class="st0" d="M163.4,128c0-0.1,0-0.3-0.1-0.4C163.3,127.7,163.4,127.8,163.4,128z"/>
		<path class="st0" d="M163.2,127.1c0-0.1-0.1-0.3-0.1-0.4C163.2,126.9,163.2,127,163.2,127.1z"/>
		<path class="st0" d="M154.3,152.8c0,0.1,0,0.1-0.1,0.1C154.3,152.9,154.3,152.8,154.3,152.8z"/>
		<path class="st0" d="M155.7,149.4c0,0.1-0.1,0.3-0.1,0.4C155.7,149.6,155.7,149.5,155.7,149.4z"/>
		<path class="st0" d="M155.5,150.1c0,0.1-0.1,0.2-0.1,0.3C155.4,150.3,155.4,150.2,155.5,150.1z"/>
		<path class="st0" d="M155,151.2c0,0.1-0.1,0.2-0.1,0.3C154.9,151.4,155,151.3,155,151.2z"/>
		<polygon class="st0" points="154.2,153 154.2,153 154.2,153 		"/>
		<path class="st0" d="M154.8,151.7c0,0.1-0.1,0.2-0.1,0.2C154.7,151.9,154.8,151.8,154.8,151.7z"/>
		<path class="st0" d="M154.5,152.5l-0.1,0.2L154.5,152.5z"/>
		<path class="st0" d="M154.6,152.1l-0.1,0.2C154.6,152.3,154.6,152.2,154.6,152.1z"/>
		<path class="st0" d="M155.3,150.7l-0.1,0.3L155.3,150.7z"/>
		<path class="st0" d="M110,91.6l0.5,0.1L110,91.6z"/>
		<path class="st0" d="M109.2,91.4l0.5,0.1L109.2,91.4z"/>
		<path class="st0" d="M108.4,91.2l0.5,0.1L108.4,91.2z"/>
		<path class="st0" d="M107.6,91l0.5,0.1L107.6,91z"/>
		<path class="st0" d="M110.7,91.8l0.5,0.1L110.7,91.8z"/>
		<path class="st0" d="M111.4,92l0.6,0.2L111.4,92z"/>
		<path class="st0" d="M148.4,110.9L148.4,110.9L148.4,110.9z"/>
		<path class="st0" d="M156.2,122.8c0.2,0.5,0.3,0.9,0.5,1.4C156.5,123.8,156.3,123.3,156.2,122.8z"/>
		<path class="st0" d="M146.7,109.3l0.1,0.1L146.7,109.3z"/>
		<path class="st0" d="M106.7,90.8l0.6,0.2L106.7,90.8z"/>
		<path class="st0" d="M100.4,89.2l0.5,0.1L100.4,89.2z"/>
		<path class="st0" d="M101.3,89.4l0.5,0.1L101.3,89.4z"/>
		<path class="st0" d="M102.1,89.6l0.6,0.1L102.1,89.6z"/>
		<path class="st0" d="M99.8,89L99.8,89l0.2,0L99.8,89z"/>
		<path class="st0" d="M105.8,90.6l0.7,0.2L105.8,90.6z"/>
		<path class="st0" d="M156.8,124.7c0.1,0.3,0.2,0.6,0.3,0.9C157,125.3,156.9,125,156.8,124.7z"/>
		<path class="st0" d="M103,89.8l0.5,0.1L103,89.8z"/>
		<path class="st0" d="M103.9,90.1l1.7,0.4L103.9,90.1z"/>
		<path class="st0" d="M156.3,147.8c0,0.1-0.1,0.3-0.1,0.4C156.2,148.1,156.2,148,156.3,147.8z"/>
		<path class="st0" d="M157.8,141.6c-0.1,0.3-0.1,0.6-0.2,0.9C157.7,142.2,157.7,141.9,157.8,141.6z"/>
		<path class="st0" d="M158,140.5c0,0.2-0.1,0.5-0.1,0.7C157.9,140.9,157.9,140.7,158,140.5z"/>
		<path class="st0" d="M157.6,142.7c-0.1,0.4-0.1,0.7-0.2,1C157.5,143.4,157.5,143,157.6,142.7z"/>
		<path class="st0" d="M158.1,139.3c0,0.2-0.1,0.5-0.1,0.7C158,139.8,158.1,139.5,158.1,139.3z"/>
		<path class="st0" d="M157.1,145.1c0,0.2-0.1,0.4-0.1,0.6C157,145.5,157,145.3,157.1,145.1z"/>
		<path class="st0" d="M156.8,146.1c0,0.2-0.1,0.4-0.1,0.5C156.7,146.4,156.7,146.3,156.8,146.1z"/>
		<path class="st0" d="M156,148.6c0,0.1-0.1,0.3-0.1,0.4C155.9,148.9,156,148.8,156,148.6z"/>
		<path class="st0" d="M158.2,138.1c0,0.2,0,0.5-0.1,0.7C158.2,138.6,158.2,138.3,158.2,138.1z"/>
		<path class="st0" d="M157.3,144c-0.1,0.2-0.1,0.5-0.2,0.7C157.2,144.5,157.3,144.3,157.3,144z"/>
		<path class="st0" d="M158.3,136.9c0,0.2,0,0.5,0,0.7C158.3,137.3,158.3,137.1,158.3,136.9z"/>
		<path class="st0" d="M157.2,126.2c0.1,0.3,0.1,0.6,0.2,0.8C157.4,126.8,157.3,126.5,157.2,126.2z"/>
		<path class="st0" d="M158,130.4c0,0.2,0.1,0.5,0.1,0.7C158.1,130.9,158.1,130.6,158,130.4z"/>
		<path class="st0" d="M158.2,131.7c0,0.2,0,0.5,0.1,0.7C158.2,132.2,158.2,132,158.2,131.7z"/>
		<path class="st0" d="M157.6,127.6c0.1,0.3,0.1,0.5,0.2,0.8C157.7,128.1,157.6,127.9,157.6,127.6z"/>
		<path class="st0" d="M157.8,129c0,0.3,0.1,0.5,0.1,0.8C157.9,129.5,157.9,129.3,157.8,129z"/>
		<path class="st0" d="M158.3,135.6c0,0.2,0,0.5,0,0.7C158.3,136.1,158.3,135.9,158.3,135.6z"/>
		<path class="st0" d="M158.3,133c0,0.2,0,0.5,0,0.7C158.3,133.5,158.3,133.3,158.3,133z"/>
		<path class="st0" d="M158.3,134.3c0,0.2,0,0.5,0,0.7C158.3,134.8,158.3,134.6,158.3,134.3z"/>
		<path class="st0" d="M156.5,147c0,0.2-0.1,0.3-0.1,0.5C156.4,147.3,156.5,147.1,156.5,147z"/>
		<path class="st3" d="M102,65.5c3.4,0,6.1-2.7,6.1-6.1c0-3.4-2.7-6.1-6.1-6.1c-3.4,0-6.1,2.7-6.1,6.1c0,0,0,0,0,0
			C95.9,62.8,98.6,65.5,102,65.5z"/>
		<path class="st0" d="M162.3,123.4c-0.1-0.2-0.1-0.3-0.2-0.5C162.2,123,162.2,123.2,162.3,123.4z"/>
		<path class="st0" d="M163.8,131.7c0-0.1,0-0.3,0-0.4C163.8,131.4,163.8,131.5,163.8,131.7z"/>
		<path class="st0" d="M163,125.9c0-0.2-0.1-0.3-0.1-0.5C162.9,125.6,162.9,125.8,163,125.9z"/>
		<path class="st0" d="M162.8,125.1c0-0.2-0.1-0.3-0.1-0.5C162.7,124.8,162.7,124.9,162.8,125.1z"/>
		<path class="st0" d="M162.5,124.2c0-0.2-0.1-0.3-0.1-0.5C162.4,123.9,162.5,124.1,162.5,124.2z"/>
		<path class="st0" d="M92.6,81.4L92.6,81.4L92.6,81.4z"/>
		<path class="st0" d="M161.7,121.7c-0.1-0.3-0.2-0.5-0.3-0.8C161.5,121.1,161.6,121.4,161.7,121.7z"/>
		<path class="st0" d="M158.5,114.8c-0.8-1.4-1.7-2.7-2.7-4C156.7,112,157.6,113.4,158.5,114.8z"/>
		<path class="st0" d="M163.1,126.7c0-0.1-0.1-0.3-0.1-0.4C163.1,126.5,163.1,126.6,163.1,126.7z"/>
		<path class="st0" d="M162,122.5c-0.1-0.2-0.1-0.4-0.2-0.6C161.9,122.2,162,122.4,162,122.5z"/>
		<path class="st0" d="M112.7,86.5c-6-1.6-15.8-4.1-19.9-5.1C96.9,82.5,106.7,84.9,112.7,86.5z"/>
		<path class="st0" d="M163.8,130.8c0-0.1,0-0.3,0-0.4C163.7,130.6,163.8,130.7,163.8,130.8z"/>
		<path class="st0" d="M163.3,127.6c0-0.1-0.1-0.3-0.1-0.4C163.2,127.3,163.3,127.4,163.3,127.6z"/>
		<path class="st0" d="M163.4,128.4c0-0.1,0-0.3-0.1-0.4C163.4,128.1,163.4,128.3,163.4,128.4z"/>
		<path class="st0" d="M163.6,129.2c0-0.1,0-0.3-0.1-0.4C163.5,128.9,163.6,129.1,163.6,129.2z"/>
		<path class="st0" d="M163.9,133.2c0-0.1,0-0.3,0-0.4C163.9,133,163.9,133.1,163.9,133.2z"/>
		<path class="st0" d="M163.7,130c0-0.1,0-0.3-0.1-0.4C163.6,129.8,163.7,129.9,163.7,130z"/>
		<path class="st0" d="M163.9,132.4c0-0.1,0-0.3,0-0.4C163.9,132.2,163.9,132.3,163.9,132.4z"/>
		<path class="st0" d="M164,134c0-0.1,0-0.3,0-0.4C164,133.7,164,133.9,164,134z"/>
		<path class="st0" d="M145.8,161.9c2.7-2,5.2-4.2,7.6-6.6C151,157.6,148.5,159.8,145.8,161.9L145.8,161.9z"/>
		<path class="st0" d="M154.4,152.7l-0.1,0.1L154.4,152.7z"/>
		<path class="st0" d="M154.7,152l-0.1,0.2L154.7,152z"/>
		<path class="st0" d="M154.5,152.4c0,0.1,0,0.1-0.1,0.1L154.5,152.4z"/>
		<path class="st0" d="M154.3,152.9L154.3,152.9L154.3,152.9z"/>
		<path class="st0" d="M156.1,148.3c0,0.1-0.1,0.2-0.1,0.4C156,148.5,156.1,148.4,156.1,148.3z"/>
		<path class="st0" d="M156.4,147.5c0,0.1-0.1,0.3-0.1,0.4C156.3,147.7,156.3,147.6,156.4,147.5z"/>
		<path class="st0" d="M155.9,149c0,0.1-0.1,0.2-0.1,0.3C155.8,149.3,155.8,149.2,155.9,149z"/>
		<path class="st0" d="M155.1,151c0,0.1-0.1,0.2-0.1,0.2C155.1,151.2,155.1,151.1,155.1,151z"/>
		<path class="st0" d="M155.6,149.7c0,0.1-0.1,0.2-0.1,0.3L155.6,149.7z"/>
		<path class="st0" d="M154.9,151.5c0,0.1-0.1,0.1-0.1,0.2C154.8,151.7,154.9,151.6,154.9,151.5z"/>
		<path class="st0" d="M155.4,150.4c0,0.1-0.1,0.2-0.1,0.3C155.3,150.6,155.3,150.5,155.4,150.4z"/>
		<path class="st0" d="M110.7,116.4c0-0.2,0-0.3,0-0.5C110.7,116.1,110.7,116.2,110.7,116.4z"/>
		<path class="st0" d="M109.4,108c0-0.1-0.1-0.3-0.1-0.4C109.3,107.7,109.3,107.8,109.4,108z"/>
		<path class="st0" d="M109.6,109c0-0.1-0.1-0.3-0.1-0.4C109.6,108.8,109.6,108.9,109.6,109z"/>
		<path class="st0" d="M109.1,106.9c0-0.1-0.1-0.3-0.1-0.4C109,106.6,109,106.8,109.1,106.9z"/>
		<path class="st0" d="M109.9,110.1c0-0.1,0-0.2-0.1-0.3C109.8,109.9,109.8,110,109.9,110.1z"/>
		<path class="st0" d="M108.1,103.8c0-0.1-0.1-0.2-0.1-0.3C108.1,103.6,108.1,103.7,108.1,103.8z"/>
		<path class="st0" d="M108.5,104.8c0-0.1-0.1-0.3-0.1-0.4C108.4,104.6,108.4,104.7,108.5,104.8z"/>
		<path class="st0" d="M108.8,105.9c0-0.1-0.1-0.3-0.1-0.4C108.7,105.6,108.8,105.7,108.8,105.9z"/>
		<path class="st0" d="M110.8,117.6c0-0.2,0-0.3,0-0.5C110.8,117.3,110.8,117.5,110.8,117.6z"/>
		<path class="st0" d="M110.1,111.5c0-0.1,0-0.2,0-0.3C110.1,111.3,110.1,111.4,110.1,111.5z"/>
		<path class="st0" d="M107.7,102.5L107.7,102.5L107.7,102.5z"/>
		<path class="st0" d="M110.8,118.9c0-0.1,0-0.3,0-0.4C110.8,118.6,110.8,118.7,110.8,118.9z"/>
		<path class="st0" d="M156.6,146.6c0,0.1-0.1,0.3-0.1,0.4C156.6,146.9,156.6,146.7,156.6,146.6z"/>
		<path class="st0" d="M110.3,112.8c0-0.1,0-0.3-0.1-0.4C110.3,112.5,110.3,112.6,110.3,112.8z"/>
		<path class="st0" d="M110.5,114c0-0.2,0-0.3-0.1-0.5C110.4,113.7,110.4,113.8,110.5,114z"/>
		<path class="st0" d="M110.6,115.2c0-0.2,0-0.3-0.1-0.5C110.6,114.9,110.6,115,110.6,115.2z"/>
		<path class="st0" d="M101.8,89.5l0.3,0.1L101.8,89.5z"/>
		<path class="st0" d="M102.7,89.7l0.3,0.1L102.7,89.7z"/>
		<path class="st0" d="M110.5,91.8l0.3,0.1L110.5,91.8z"/>
		<path class="st0" d="M146.9,109.5c0.5,0.5,1.1,1,1.6,1.5C147.9,110.4,147.4,109.9,146.9,109.5z"/>
		<path class="st0" d="M100.9,89.3l0.3,0.1L100.9,89.3z"/>
		<path class="st0" d="M111.2,92l0.2,0.1L111.2,92z"/>
		<path class="st0" d="M157.4,127c0,0.2,0.1,0.4,0.1,0.6C157.5,127.4,157.5,127.2,157.4,127z"/>
		<path class="st0" d="M156.9,145.7c0,0.1-0.1,0.3-0.1,0.4C156.8,145.9,156.9,145.8,156.9,145.7z"/>
		<path class="st0" d="M100,89.1l0.4,0.1L100,89.1z"/>
		<path class="st0" d="M157.1,125.6c0.1,0.2,0.1,0.4,0.1,0.6C157.2,126,157.1,125.8,157.1,125.6z"/>
		<path class="st0" d="M106.5,90.7l0.3,0.1L106.5,90.7z"/>
		<path class="st0" d="M105.6,90.5l0.2,0.1L105.6,90.5z"/>
		<path class="st0" d="M103.5,90l0.4,0.1L103.5,90z"/>
		<path class="st0" d="M109.7,91.6l0.3,0.1L109.7,91.6z"/>
		<path class="st0" d="M108.9,91.4l0.3,0.1L108.9,91.4z"/>
		<path class="st0" d="M107.3,90.9l0.3,0.1L107.3,90.9z"/>
		<path class="st0" d="M108.1,91.1l0.3,0.1L108.1,91.1z"/>
		<path class="st0" d="M148.4,111c0.8,0.8,1.5,1.6,2.2,2.4C149.9,112.6,149.2,111.7,148.4,111z"/>
		<path class="st0" d="M157.9,141.2c0,0.1,0,0.3-0.1,0.4C157.8,141.4,157.8,141.3,157.9,141.2z"/>
		<path class="st0" d="M158,140c0,0.2,0,0.3-0.1,0.5C158,140.3,158,140.1,158,140z"/>
		<path class="st0" d="M158.2,138.8c0,0.2,0,0.3-0.1,0.5C158.1,139.1,158.1,139,158.2,138.8z"/>
		<path class="st0" d="M157.1,144.7c0,0.1-0.1,0.3-0.1,0.4C157.1,145,157.1,144.9,157.1,144.7z"/>
		<path class="st0" d="M157.7,128.4c0,0.2,0.1,0.4,0.1,0.6C157.8,128.8,157.8,128.6,157.7,128.4z"/>
		<path class="st0" d="M158.3,137.6c0,0.2,0,0.4,0,0.5C158.2,137.9,158.2,137.7,158.3,137.6z"/>
		<path class="st0" d="M157.4,143.7c0,0.1,0,0.2-0.1,0.3C157.3,143.9,157.4,143.8,157.4,143.7z"/>
		<path class="st0" d="M157.6,142.5c0,0.1,0,0.1,0,0.2C157.6,142.6,157.6,142.5,157.6,142.5z"/>
		<path class="st0" d="M158.1,131.1c0,0.2,0,0.4,0.1,0.6C158.2,131.5,158.2,131.3,158.1,131.1z"/>
		<path class="st0" d="M158.3,132.4c0,0.2,0,0.4,0,0.6C158.3,132.8,158.3,132.6,158.3,132.4z"/>
		<path class="st0" d="M158,129.8c0,0.2,0.1,0.4,0.1,0.6C158,130.2,158,130,158,129.8z"/>
		<path class="st0" d="M158.3,133.8c0,0.2,0,0.4,0,0.6C158.3,134.2,158.3,134,158.3,133.8z"/>
		<path class="st0" d="M158.3,136.3c0,0.2,0,0.4,0,0.6C158.3,136.7,158.3,136.5,158.3,136.3z"/>
		<path class="st0" d="M158.3,135.1c0,0.2,0,0.4,0,0.6C158.3,135.4,158.3,135.2,158.3,135.1z"/>
		<path class="st0" d="M156.7,124.2c0.1,0.2,0.1,0.3,0.1,0.5C156.7,124.6,156.7,124.4,156.7,124.2z"/>
		<path class="st0" d="M99.8,89L99.8,89L99.8,89L99.8,89z"/>
		<path class="st0" d="M146.7,109.3c-7.4-6.7-19-12.4-34.7-17.1l-0.1,0l0.1,0C127.7,96.9,139.3,102.7,146.7,109.3z"/>
		<path class="st0" d="M104.2,95.4c0-0.1-0.1-0.1-0.1-0.2C104.1,95.2,104.2,95.3,104.2,95.4z"/>
		<path class="st0" d="M105.3,97.2c-0.1-0.1-0.1-0.2-0.2-0.3C105.2,97,105.2,97.1,105.3,97.2z"/>
		<path class="st0" d="M100.3,89.7c-0.1-0.1-0.1-0.1-0.2-0.2C100.2,89.5,100.3,89.6,100.3,89.7z"/>
		<path class="st0" d="M156.2,122.8c-0.5-1.3-1.1-2.7-1.8-3.9C155,120.2,155.6,121.5,156.2,122.8L156.2,122.8z"/>
		<path class="st0" d="M104.8,96.3l-0.1-0.2L104.8,96.3z"/>
		<path class="st0" d="M102.4,92.5c-0.1-0.1-0.1-0.2-0.2-0.3C102.3,92.3,102.3,92.4,102.4,92.5z"/>
		<path class="st0" d="M101.4,91.1c0-0.1-0.1-0.1-0.1-0.2C101.3,90.9,101.4,91,101.4,91.1z"/>
		<path class="st0" d="M100.8,90.3L100.8,90.3L100.8,90.3z"/>
		<path class="st0" d="M101.9,91.8l-0.2-0.3L101.9,91.8z"/>
		<path class="st0" d="M105.7,98.1l-0.2-0.3L105.7,98.1z"/>
		<path class="st0" d="M103.3,93.9c-0.1-0.1-0.1-0.2-0.2-0.3C103.2,93.7,103.3,93.8,103.3,93.9z"/>
		<path class="st0" d="M103.8,94.6c-0.1-0.1-0.1-0.2-0.2-0.3C103.7,94.4,103.7,94.5,103.8,94.6z"/>
		<path class="st0" d="M102.9,93.1l-0.2-0.3L102.9,93.1z"/>
		<path class="st0" d="M106.9,100.7c-0.1-0.1-0.1-0.2-0.2-0.4C106.8,100.5,106.9,100.6,106.9,100.7z"/>
		<path class="st0" d="M106.1,98.9c-0.1-0.1-0.1-0.2-0.2-0.4C106,98.7,106.1,98.8,106.1,98.9z"/>
		<path class="st0" d="M106.5,99.8c-0.1-0.1-0.1-0.2-0.2-0.4C106.4,99.6,106.5,99.7,106.5,99.8z"/>
		<path class="st0" d="M107.3,101.6c0-0.1-0.1-0.2-0.1-0.3C107.2,101.4,107.3,101.5,107.3,101.6z"/>
		<path class="st0" d="M90.9,87.8L90.9,87.8L90.9,87.8L90.9,87.8z"/>
		<path class="st0" d="M92.2,89L92.2,89L92.2,89z"/>
		<path class="st0" d="M91.6,88.4L91.6,88.4L91.6,88.4z"/>
		<path class="st0" d="M95.4,92.5l-0.1-0.1L95.4,92.5z"/>
		<path class="st0" d="M96.2,93.6L96.2,93.6L96.2,93.6z"/>
		<path class="st0" d="M104.4,111.6c-1.1-5.5-3.2-10.8-6.4-15.5C101.2,100.8,103.3,106.1,104.4,111.6z"/>
		<path class="st0" d="M94.6,91.5L94.6,91.5L94.6,91.5z"/>
		<path class="st0" d="M93.7,90.6L93.7,90.6L93.7,90.6z"/>
		<path class="st0" d="M93,89.8L93,89.8L93,89.8z"/>
		<path class="st0" d="M163.1,143.9c-1.4,2-2.9,3.9-4.4,5.7v0C160.2,147.7,161.7,145.8,163.1,143.9L163.1,143.9z"/>
		<path class="st0" d="M90.5,80.9l0.1,0L90.5,80.9z"/>
		<path class="st0" d="M90.7,80.9l0.1,0L90.7,80.9z"/>
		<path class="st0" d="M89.6,81L89.6,81L89.6,81z"/>
		<path class="st0" d="M89.7,81l0.1,0L89.7,81z"/>
		<path class="st0" d="M90,80.9c0,0,0.1,0,0.1,0C90.1,80.9,90,80.9,90,80.9z"/>
		<path class="st0" d="M90.2,80.9c0,0,0.1,0,0.1,0C90.3,80.9,90.3,80.9,90.2,80.9z"/>
		<path class="st0" d="M154.8,153.9c1.4-1.4,2.7-2.8,3.9-4.3v0C157.4,151,156.1,152.5,154.8,153.9z"/>
		<path class="st0" d="M37.1,155.3c0.2,0.2,0.5,0.5,0.7,0.7l0,0C37.6,155.8,37.3,155.5,37.1,155.3z"/>
		<polygon class="st0" points="64.6,173.2 64.6,173.2 64.6,173.2 64.6,173.2 		"/>
		<path class="st0" d="M100.2,89.5c-0.1-0.1-0.2-0.3-0.3-0.4C100,89.2,100.1,89.3,100.2,89.5z"/>
		<path class="st0" d="M65,173c-0.1,0.1-0.2,0.1-0.4,0.2l0,0C64.8,173.1,64.9,173,65,173z"/>
		<path class="st0" d="M101.7,91.5l-0.3-0.4L101.7,91.5z"/>
		<path class="st0" d="M104,142.9c-3.5,5.2-7.8,9.9-12.7,13.8c-6.8,5.4-14.1,10.1-21.8,14c7.7-3.9,15-8.6,21.8-14
			C96.2,152.8,100.5,148.1,104,142.9z"/>
		<path class="st0" d="M100.7,90.2c-0.1-0.2-0.3-0.3-0.4-0.5C100.5,89.8,100.6,90,100.7,90.2z"/>
		<path class="st0" d="M101.3,90.9c-0.2-0.2-0.3-0.4-0.5-0.6C101,90.5,101.1,90.7,101.3,90.9z"/>
		<path class="st0" d="M110.7,117.2c0-0.3,0-0.5,0-0.8C110.7,116.7,110.7,116.9,110.7,117.2z"/>
		<path class="st0" d="M104,142.9c0.7-1.1,1.4-2.2,2-3.4C105.4,140.7,104.7,141.8,104,142.9z"/>
		<path class="st0" d="M106,139.5c0.4-0.8,0.8-1.5,1.1-2.3C106.8,138,106.4,138.8,106,139.5z"/>
		<path class="st0" d="M66.5,172.2c1-0.5,2-1,3-1.5C68.5,171.2,67.5,171.7,66.5,172.2z"/>
		<path class="st0" d="M109.3,131.3c0.2-0.8,0.4-1.6,0.6-2.4C109.7,129.7,109.5,130.5,109.3,131.3z"/>
		<path class="st0" d="M106.8,100.3c-0.1-0.2-0.2-0.4-0.2-0.5C106.6,100,106.7,100.2,106.8,100.3z"/>
		<path class="st0" d="M106.4,99.4c-0.1-0.2-0.2-0.3-0.2-0.5C106.2,99.1,106.3,99.3,106.4,99.4z"/>
		<path class="st0" d="M105.5,97.7c-0.1-0.2-0.2-0.4-0.3-0.5C105.3,97.4,105.4,97.6,105.5,97.7z"/>
		<path class="st0" d="M109.3,107.5c-0.1-0.2-0.1-0.4-0.2-0.6C109.1,107.1,109.2,107.3,109.3,107.5z"/>
		<path class="st0" d="M110.7,115.9c0-0.2,0-0.5-0.1-0.7C110.6,115.4,110.6,115.7,110.7,115.9z"/>
		<path class="st0" d="M105.1,96.9c-0.1-0.2-0.2-0.4-0.3-0.6C104.9,96.5,105,96.7,105.1,96.9z"/>
		<path class="st0" d="M109.5,108.6c-0.1-0.2-0.1-0.4-0.2-0.7C109.4,108.2,109.5,108.4,109.5,108.6z"/>
		<path class="st0" d="M104.7,96.1c-0.1-0.3-0.3-0.5-0.4-0.8C104.4,95.6,104.5,95.9,104.7,96.1z"/>
		<path class="st0" d="M110.5,114.7c0-0.2-0.1-0.5-0.1-0.7C110.5,114.2,110.5,114.5,110.5,114.7z"/>
		<path class="st0" d="M109.8,109.8c-0.1-0.3-0.1-0.5-0.2-0.8C109.7,109.3,109.7,109.6,109.8,109.8z"/>
		<path class="st0" d="M110.8,118.5c0-0.3,0-0.6,0-0.8C110.8,117.9,110.8,118.2,110.8,118.5z"/>
		<path class="st0" d="M110.8,120.1c0-0.4,0-0.9,0-1.3C110.8,119.3,110.8,119.7,110.8,120.1z"/>
		<path class="st0" d="M102.7,92.9c-0.1-0.1-0.2-0.3-0.3-0.4C102.5,92.6,102.6,92.7,102.7,92.9z"/>
		<path class="st0" d="M110.4,113.5c0-0.2-0.1-0.5-0.1-0.7C110.3,113,110.4,113.3,110.4,113.5z"/>
		<path class="st0" d="M104.1,95.1c-0.1-0.2-0.2-0.4-0.3-0.5C103.9,94.8,104,95,104.1,95.1z"/>
		<path class="st0" d="M103.6,94.3c-0.1-0.2-0.2-0.3-0.3-0.5C103.4,94,103.5,94.2,103.6,94.3z"/>
		<path class="st0" d="M108,103.5c-0.1-0.3-0.2-0.6-0.3-0.9C107.8,102.9,107.9,103.2,108,103.5z"/>
		<path class="st0" d="M108.3,104.5c-0.1-0.2-0.2-0.4-0.2-0.7C108.2,104,108.3,104.2,108.3,104.5z"/>
		<path class="st0" d="M102.2,92.2c-0.1-0.1-0.2-0.3-0.3-0.4C102,91.9,102.1,92,102.2,92.2z"/>
		<path class="st0" d="M103.1,93.6c-0.1-0.1-0.2-0.3-0.3-0.4C103,93.3,103,93.4,103.1,93.6z"/>
		<path class="st0" d="M106,98.6c-0.1-0.2-0.2-0.3-0.3-0.5C105.8,98.2,105.9,98.4,106,98.6z"/>
		<path class="st0" d="M109,106.5c-0.1-0.2-0.1-0.4-0.2-0.6C108.9,106.1,108.9,106.3,109,106.5z"/>
		<path class="st0" d="M107.6,102.4c-0.1-0.3-0.2-0.6-0.3-0.8C107.4,101.9,107.5,102.2,107.6,102.4z"/>
		<path class="st0" d="M110.2,112.4c0-0.3-0.1-0.6-0.1-0.9C110.2,111.8,110.2,112.1,110.2,112.4z"/>
		<path class="st0" d="M107.2,101.3c-0.1-0.2-0.2-0.4-0.3-0.6C107,100.9,107.1,101.1,107.2,101.3z"/>
		<path class="st0" d="M108.7,105.5c-0.1-0.2-0.1-0.4-0.2-0.6C108.5,105.1,108.6,105.3,108.7,105.5z"/>
		<path class="st0" d="M110.1,111.2c-0.1-0.4-0.1-0.7-0.2-1.1C109.9,110.5,110,110.9,110.1,111.2z"/>
		<path class="st0" d="M37.8,156L37.8,156L37.8,156L37.8,156L37.8,156z"/>
		<path class="st0" d="M94.5,91.4c-0.3-0.3-0.5-0.6-0.7-0.8C94,90.9,94.2,91.2,94.5,91.4z"/>
		<path class="st0" d="M92.2,89c0.2,0.2,0.4,0.4,0.7,0.7C92.7,89.5,92.5,89.3,92.2,89z"/>
		<path class="st0" d="M91.5,88.3c-0.2-0.2-0.4-0.4-0.6-0.5C91.1,88,91.3,88.1,91.5,88.3z"/>
		<path class="st0" d="M92.2,89c-0.2-0.2-0.4-0.4-0.6-0.6C91.8,88.6,92,88.8,92.2,89z"/>
		<path class="st0" d="M93.7,90.6c-0.3-0.3-0.5-0.5-0.8-0.8C93.2,90,93.5,90.3,93.7,90.6z"/>
		<path class="st0" d="M95.3,92.4c-0.3-0.3-0.5-0.6-0.7-0.9C94.8,91.8,95.1,92.1,95.3,92.4z"/>
		<path class="st0" d="M96.2,93.5c-0.3-0.3-0.5-0.7-0.8-1C95.6,92.8,95.9,93.1,96.2,93.5z"/>
		<path class="st0" d="M97.1,94.7c-0.3-0.4-0.6-0.8-0.8-1.1C96.5,93.9,96.8,94.3,97.1,94.7z"/>
		<path class="st0" d="M39.9,157.9c-0.7-0.6-1.4-1.3-2.1-1.9l0,0C38.5,156.7,39.2,157.3,39.9,157.9L39.9,157.9z"/>
		<path class="st0" d="M89.6,81c0,0,0.1,0,0.1,0C89.7,81,89.6,81,89.6,81z"/>
		<path class="st0" d="M89.9,81c0,0,0.1,0,0.1,0L89.9,81z"/>
		<path class="st0" d="M90.1,80.9c0,0,0.1,0,0.1,0C90.2,80.9,90.1,80.9,90.1,80.9z"/>
		<path class="st0" d="M90.9,81c0,0,0.1,0,0.1,0C91,81,90.9,81,90.9,81z"/>
		<path class="st0" d="M90.4,80.9c0,0,0.1,0,0.1,0C90.4,80.9,90.4,80.9,90.4,80.9z"/>
		<path class="st0" d="M90.6,80.9c0,0,0.1,0,0.1,0C90.7,80.9,90.7,80.9,90.6,80.9z"/>
		<path class="st0" d="M62.8,172.4c0.6,0.3,1.2,0.5,1.8,0.7l0,0c-1.2-0.5-2.3-0.9-3.4-1.5l0,0C61.7,172,62.3,172.2,62.8,172.4z"/>
		<path class="st0" d="M57.9,170.2c1.1,0.5,2.2,1.1,3.3,1.6l0,0C60.1,171.2,59,170.7,57.9,170.2L57.9,170.2z"/>
		<path class="st3" d="M154.5,63.7c-5.4-8.5-12.5-15.8-20.8-21.5c-8.4-5.8-18.3-9.1-28.5-9.7h0c-1.1-0.1-2.1-0.1-3.2-0.1
			c-20.5,0-33.2,14.1-33.2,27.1c0,0.5,0,1.1,0,1.6c-7.8,1.9-15.4,4.6-22.8,8c-1.4,0.7-2,2.4-1.3,3.8c0.4,0.7,1,1.2,1.7,1.4
			c7.9,2.2,30.1,8.5,39.2,11L35.8,154c0.2,0.2,0.4,0.4,0.6,0.6c0.2,0.2,0.5,0.5,0.7,0.7s0.5,0.5,0.7,0.7l0,0
			c0.7,0.6,1.4,1.3,2.1,1.9l7.1-9.7l44-60.4l0,0l0,0c0.2,0.2,0.4,0.3,0.6,0.5l0.1,0.1c0.2,0.2,0.4,0.4,0.6,0.6l0.1,0.1
			c0.2,0.2,0.4,0.4,0.7,0.7l0,0c0.2,0.3,0.5,0.5,0.8,0.8l0,0c0.2,0.3,0.5,0.5,0.7,0.8l0.1,0.1c0.2,0.3,0.5,0.6,0.7,0.9l0.1,0.1
			c0.3,0.3,0.5,0.6,0.8,1l0.1,0.1c0.3,0.4,0.6,0.7,0.8,1.1c0.3,0.5,0.7,0.9,1,1.4c3.1,4.7,5.3,10,6.4,15.5c0.5,2.8,0.8,5.7,0.8,8.6
			c0,21.6-18.4,36.2-47.3,50c1.1,0.5,2.2,1.1,3.3,1.6c1.1,0.5,2.3,1,3.4,1.5c0.1-0.1,0.3-0.1,0.4-0.2c0.5-0.2,1-0.5,1.5-0.8
			c1-0.5,2-1,3-1.5c7.7-3.9,15-8.6,21.8-14c4.9-3.9,9.2-8.6,12.7-13.8c0.7-1.1,1.4-2.2,2-3.4c0.4-0.8,0.8-1.5,1.1-2.3
			c0.9-1.9,1.6-3.9,2.2-5.9c0.2-0.8,0.4-1.6,0.6-2.4c0.6-2.9,0.9-5.8,0.9-8.8c0-0.4,0-0.9,0-1.3c0-0.1,0-0.3,0-0.4
			c0-0.3,0-0.6,0-0.8c0-0.2,0-0.3,0-0.5c0-0.3,0-0.5,0-0.8c0-0.2,0-0.3,0-0.5c0-0.2,0-0.5-0.1-0.7c0-0.2,0-0.3-0.1-0.5
			c0-0.2-0.1-0.5-0.1-0.7c0-0.2,0-0.3-0.1-0.5c0-0.2-0.1-0.5-0.1-0.7c0-0.1,0-0.3-0.1-0.4c0-0.3-0.1-0.6-0.1-0.9c0-0.1,0-0.2,0-0.3
			c-0.1-0.4-0.1-0.7-0.2-1.1c0-0.1,0-0.2-0.1-0.3c-0.1-0.3-0.1-0.5-0.2-0.8c0-0.1-0.1-0.3-0.1-0.4c-0.1-0.2-0.1-0.4-0.2-0.7
			c0-0.1-0.1-0.3-0.1-0.4c-0.1-0.2-0.1-0.4-0.2-0.6c0-0.1-0.1-0.3-0.1-0.4c-0.1-0.2-0.1-0.4-0.2-0.6c0-0.1-0.1-0.3-0.1-0.4
			c-0.1-0.2-0.1-0.4-0.2-0.6c0-0.1-0.1-0.3-0.1-0.4c-0.1-0.2-0.2-0.4-0.2-0.7c0-0.1-0.1-0.2-0.1-0.3c-0.1-0.3-0.2-0.6-0.3-0.9l0-0.1
			c-0.1-0.3-0.2-0.6-0.3-0.8c0-0.1-0.1-0.2-0.1-0.3c-0.1-0.2-0.2-0.4-0.3-0.6c-0.1-0.1-0.1-0.2-0.2-0.4c-0.1-0.2-0.2-0.4-0.2-0.5
			c-0.1-0.1-0.1-0.2-0.2-0.4c-0.1-0.2-0.2-0.3-0.2-0.5c-0.1-0.1-0.1-0.2-0.2-0.4c-0.1-0.2-0.2-0.3-0.3-0.5l-0.2-0.3
			c-0.1-0.2-0.2-0.4-0.3-0.5c-0.1-0.1-0.1-0.2-0.2-0.3c-0.1-0.2-0.2-0.4-0.3-0.6l-0.1-0.2c-0.1-0.3-0.3-0.5-0.4-0.8
			c0-0.1-0.1-0.1-0.1-0.2c-0.1-0.2-0.2-0.4-0.3-0.5c-0.1-0.1-0.1-0.2-0.2-0.3c-0.1-0.2-0.2-0.3-0.3-0.5c-0.1-0.1-0.1-0.2-0.2-0.3
			c-0.1-0.1-0.2-0.3-0.3-0.4l-0.2-0.3c-0.1-0.1-0.2-0.3-0.3-0.4c-0.1-0.1-0.1-0.2-0.2-0.3c-0.1-0.1-0.2-0.3-0.3-0.4l-0.2-0.3
			l-0.3-0.4c0-0.1-0.1-0.1-0.1-0.2c-0.2-0.2-0.3-0.4-0.5-0.6l-0.1-0.1c-0.1-0.2-0.3-0.3-0.4-0.5c-0.1-0.1-0.1-0.1-0.2-0.2
			c-0.1-0.1-0.2-0.3-0.3-0.4L99.8,89l0,0l0.2,0l0.4,0.1l0.5,0.1l0.3,0.1l0.5,0.1l0.3,0.1l0.6,0.1l0.3,0.1l0.5,0.1l0.4,0.1l1.7,0.4
			l0.2,0.1l0.7,0.2l0.3,0.1l0.6,0.2l0.3,0.1l0.5,0.1l0.3,0.1l0.5,0.1l0.3,0.1l0.5,0.1l0.3,0.1l0.5,0.1l0.3,0.1l0.5,0.1l0.2,0.1
			l0.6,0.2l0.1,0c15.6,4.7,27.2,10.5,34.7,17.1l0.1,0.1c0.5,0.5,1.1,1,1.6,1.5l0,0c0.8,0.8,1.5,1.6,2.2,2.4c0.2,0.3,0.4,0.5,0.6,0.8
			c0.9,1.1,1.6,2.3,2.4,3.5c0.2,0.4,0.5,0.8,0.7,1.3c0.7,1.3,1.3,2.6,1.8,3.9c0.2,0.5,0.3,0.9,0.5,1.4c0.1,0.2,0.1,0.3,0.1,0.5
			c0.1,0.3,0.2,0.6,0.3,0.9c0.1,0.2,0.1,0.4,0.1,0.6c0.1,0.3,0.1,0.6,0.2,0.8c0,0.2,0.1,0.4,0.1,0.6c0.1,0.3,0.1,0.5,0.2,0.8
			c0,0.2,0.1,0.4,0.1,0.6c0,0.3,0.1,0.5,0.1,0.8c0,0.2,0.1,0.4,0.1,0.6c0,0.2,0.1,0.5,0.1,0.7c0,0.2,0,0.4,0.1,0.6
			c0,0.2,0,0.5,0.1,0.7c0,0.2,0,0.4,0,0.6c0,0.2,0,0.5,0,0.7c0,0.2,0,0.4,0,0.6c0,0.2,0,0.5,0,0.7c0,0.2,0,0.4,0,0.6
			c0,0.2,0,0.5,0,0.7c0,0.2,0,0.4,0,0.6c0,0.2,0,0.5,0,0.7c0,0.2,0,0.4,0,0.5c0,0.2,0,0.5-0.1,0.7c0,0.2,0,0.3-0.1,0.5
			c0,0.2-0.1,0.5-0.1,0.7c0,0.2,0,0.3-0.1,0.5c0,0.2-0.1,0.5-0.1,0.7c0,0.1,0,0.3-0.1,0.4c-0.1,0.3-0.1,0.6-0.2,0.9
			c0,0.1,0,0.1,0,0.2c-0.1,0.4-0.1,0.7-0.2,1c0,0.1,0,0.2-0.1,0.3c-0.1,0.2-0.1,0.5-0.2,0.7c0,0.1-0.1,0.3-0.1,0.4
			c0,0.2-0.1,0.4-0.1,0.6c0,0.1-0.1,0.3-0.1,0.4c0,0.2-0.1,0.3-0.1,0.5c0,0.1-0.1,0.3-0.1,0.4c0,0.2-0.1,0.3-0.1,0.5
			c0,0.1-0.1,0.3-0.1,0.4c0,0.1-0.1,0.3-0.1,0.4c0,0.1-0.1,0.2-0.1,0.4c0,0.1-0.1,0.3-0.1,0.4c0,0.1-0.1,0.2-0.1,0.3
			c0,0.1-0.1,0.3-0.1,0.4l-0.1,0.3c0,0.1-0.1,0.2-0.1,0.3c0,0.1-0.1,0.2-0.1,0.3l-0.1,0.3c0,0.1-0.1,0.2-0.1,0.2
			c0,0.1-0.1,0.2-0.1,0.3c0,0.1-0.1,0.1-0.1,0.2c0,0.1-0.1,0.2-0.1,0.2l-0.1,0.2c0,0.1-0.1,0.1-0.1,0.2l-0.1,0.1l-0.1,0.2l-0.1,0.1
			c0,0.1,0,0.1-0.1,0.1l0,0.1l0,0c-2.5,3.2-5.3,6.1-8.4,8.8c2.6-2,5.1-4.2,7.5-6.5c0.2-0.1,0.3-0.3,0.5-0.5c0.1-0.1,0.2-0.2,0.3-0.3
			c0.2-0.2,0.5-0.5,0.7-0.7c1.4-1.4,2.7-2.8,3.9-4.3c1.6-1.8,3-3.7,4.4-5.7c0.2-0.3,0.4-0.6,0.6-0.9c2.6-3.7,4.8-7.6,6.7-11.7
			c0.7-3.7,1.1-7.4,1.1-11.1C171.5,101.1,165.2,80,154.5,63.7z M164,134.3c0-0.1,0-0.2,0-0.2c0-0.1,0-0.3,0-0.4c0-0.1,0-0.2,0-0.4
			c0-0.1,0-0.3,0-0.4c0-0.1,0-0.2,0-0.4c0-0.1,0-0.3,0-0.4c0-0.1,0-0.2,0-0.4c0-0.1,0-0.3,0-0.4c0-0.1,0-0.3,0-0.4
			c0-0.1,0-0.3,0-0.4s0-0.3,0-0.4c0-0.1,0-0.3-0.1-0.4c0-0.1,0-0.3-0.1-0.4s0-0.3-0.1-0.4s0-0.3-0.1-0.4s0-0.3-0.1-0.4
			s0-0.3-0.1-0.4s-0.1-0.3-0.1-0.4c0-0.1-0.1-0.3-0.1-0.4c0-0.1-0.1-0.3-0.1-0.4c0-0.1-0.1-0.3-0.1-0.4c0-0.2-0.1-0.3-0.1-0.5
			c0-0.1-0.1-0.3-0.1-0.4c0-0.2-0.1-0.3-0.1-0.5c0-0.1-0.1-0.3-0.1-0.4c0-0.2-0.1-0.3-0.1-0.5c0-0.1-0.1-0.2-0.1-0.4
			c-0.1-0.2-0.1-0.3-0.2-0.5c0-0.1-0.1-0.2-0.1-0.3c-0.1-0.2-0.1-0.4-0.2-0.6c0-0.1-0.1-0.2-0.1-0.3c-0.1-0.3-0.2-0.5-0.3-0.8l0,0
			l0,0c-0.8-2.1-1.8-4.1-3-6.1c-0.8-1.4-1.7-2.7-2.7-4c-7.5-9.7-21.6-17.8-42.1-24l-0.1,0l-0.9-0.2c-6-1.6-15.8-4.1-19.9-5.1l-0.2,0
			l0,0L91.1,81h0c-0.9-0.2-20.5-5.8-35.3-9.9c5.4-2.1,11-3.8,16.7-5.1c1.4-0.3,2.3-1.6,2.1-3l0-0.1c-0.1-0.5-0.1-1-0.1-1.6l0-0.1
			c0-0.6,0-1.2,0-1.7C74.4,49.1,84.9,38,102,38c1,0,2,0,3,0.1c22.3,1.3,36.7,16.3,44.8,28.7c10.1,15.4,16.2,35.3,16.2,53.4
			C165.9,124.9,165.3,129.7,164,134.3L164,134.3z"/>
		<path class="st0" d="M178.4,93.4c0,0.1,0,0.2,0,0.2C178.4,93.5,178.4,93.4,178.4,93.4z"/>
		<path class="st0" d="M178.4,97.9c0,0.1,0,0.2,0,0.2C178.4,98,178.4,97.9,178.4,97.9z"/>
		<path class="st0" d="M37,36.3c-0.4,0.4-0.8,0.8-1.3,1.3c0.2-0.2,0.4-0.4,0.6-0.6S36.8,36.5,37,36.3z"/>
		<path class="st0" d="M154.8,37.6c-0.4-0.5-0.9-0.9-1.3-1.3c0.2,0.2,0.4,0.4,0.6,0.6C154.3,37.1,154.5,37.4,154.8,37.6z"/>
		<path class="st0" d="M92.8,12.5l0.2,0L92.8,12.5z"/>
		<path class="st0" d="M12,98.1c0-0.1,0-0.2,0-0.2C12,97.9,12,98,12,98.1z"/>
		<path class="st0" d="M12,93.6c0-0.1,0-0.2,0-0.2C12,93.4,12,93.5,12,93.6z"/>
		<path class="st0" d="M97.3,12.5l0.2,0L97.3,12.5z"/>
		<path class="st0" d="M35.7,153.9L35.7,153.9L35.7,153.9L35.7,153.9z"/>
		<path class="st0" d="M97.6,178.9l-0.2,0C97.4,178.9,97.5,178.9,97.6,178.9z"/>
		<path class="st0" d="M93.1,178.9l-0.2,0L93.1,178.9z"/>
		<path class="st0" d="M163,144.5c0.3-0.5,0.5-1,0.7-1.5c-0.2,0.3-0.4,0.6-0.6,0.9C163.1,144.1,163,144.3,163,144.5z"/>
		<path class="st0" d="M153.3,155.3c0.2-0.1,0.3-0.3,0.5-0.4l0,0C153.6,155,153.5,155.1,153.3,155.3z"/>
		<path class="st0" d="M153.8,154.8L153.8,154.8c0.3-0.3,0.6-0.6,1-1c-0.2,0.2-0.5,0.5-0.7,0.7C154,154.7,153.9,154.8,153.8,154.8z"
			/>
		<path class="st0" d="M37.1,155.3c-0.2-0.2-0.5-0.5-0.7-0.7c-0.2-0.2-0.4-0.4-0.6-0.6l0,0C36.2,154.4,36.6,154.9,37.1,155.3z"/>
		<path class="st0" d="M56.6,177c0.8-0.4,1.6-0.8,2.4-1.1C58.2,176.3,57.4,176.6,56.6,177z"/>
		<path class="st0" d="M62,174.5c-1,0.5-2,1-3,1.4C60,175.4,61,174.9,62,174.5z"/>
		<path class="st0" d="M62,174.5c0.9-0.4,1.7-0.8,2.6-1.3l0,0C63.8,173.6,62.9,174,62,174.5z"/>
		<path class="st3" d="M95.2,5.8c-49.7,0-90,40.3-90,90c0,23.9,9.5,46.9,26.5,63.8c0.7,0.7,1.4,1.3,2,2l0,0c0.7,0.6,1.4,1.3,2.1,1.9
			c3,2.6,6.1,5,9.4,7.2c1.6,1.1,3.3,2.1,4.9,3.1c1,0.6,2,1.2,3.1,1.7c1.1,0.6,2.1,1.1,3.2,1.6c12.1,5.7,25.3,8.7,38.6,8.7
			c0.4,0,0.7,0,1.1,0c4.9-0.1,9.9-0.5,14.8-1.4c48.9-8.8,81.5-55.5,72.7-104.4C176.1,37,138.8,5.8,95.2,5.8z M37.8,156L37.8,156
			c-0.3-0.2-0.5-0.5-0.7-0.7c-0.4-0.4-0.9-0.9-1.3-1.3l-0.1-0.1C21.1,139,12.6,119,12,98.1c0-0.1,0-0.2,0-0.2c0-0.7,0-1.4,0-2.1
			s0-1.4,0-2.1c0-0.1,0-0.2,0-0.2c0.6-20.9,9-40.9,23.7-55.8c0.4-0.4,0.8-0.8,1.3-1.3c14.9-14.7,34.9-23.2,55.8-23.7l0.2,0
			c0.7,0,1.4,0,2.1,0c0.7,0,1.4,0,2.1,0l0.2,0c20.9,0.6,40.9,9,55.8,23.7c0.5,0.4,0.9,0.9,1.3,1.3c14.6,14.9,23.1,34.9,23.6,55.8
			c0,0.1,0,0.2,0,0.2c0,0.7,0,1.4,0,2.1c0,0.7,0,1.4,0,2.1c0,0.1,0,0.2,0,0.2c-0.3,10.3-2.5,20.5-6.5,30c-0.5,1.1-0.9,2.1-1.4,3.2
			c-1.9,4.1-4.2,8-6.7,11.7c-0.2,0.5-0.5,1-0.7,1.5c0-0.2,0.1-0.4,0.1-0.6c-1.4,2-2.9,3.9-4.4,5.7c-1.2,1.5-2.5,2.9-3.9,4.3
			c-0.3,0.3-0.6,0.7-1,1c-0.2,0.2-0.3,0.3-0.5,0.4c-2.4,2.3-4.9,4.5-7.6,6.6c-13.9,10.6-30.7,16.6-48.2,17.1c-0.1,0-0.2,0-0.2,0
			c-0.7,0-1.4,0-2.1,0c-0.7,0-1.4,0-2.1,0l-0.2,0c-9.7-0.3-19.2-2.2-28.2-5.8c-0.6-0.2-1.2-0.5-1.8-0.7c-0.5-0.2-1.1-0.5-1.6-0.7
			c-1.1-0.5-2.2-1-3.3-1.6c-4.2-2.1-8.2-4.6-12-7.4c-2.1-1.5-4.1-3.2-6-4.9C39.2,157.3,38.5,156.7,37.8,156"/>
	</g>
</g>
</svg>
