<?xml version="1.0" encoding="utf-8"?>
<!-- Generator: Adobe Illustrator 23.0.6, SVG Export Plug-In . SVG Version: 6.00 Build 0)  -->
<svg version="1.1" id="Camada_1" xmlns="http://www.w3.org/2000/svg" xmlns:xlink="http://www.w3.org/1999/xlink" x="0px" y="0px"
	 viewBox="0 0 407.1 230" style="enable-background:new 0 0 407.1 230;" xml:space="preserve">
<style type="text/css">
	.st0{fill:#FFA03C;}
	.st1{fill:#FFFFFF;}
	.st2{fill:#690000;}
	.st3{fill:#CD2800;}
</style>
<polygon class="st0" points="391.8,108.1 396,94.8 393.3,66.9 381.5,39.3 366,22 346.9,11.1 328.9,8.4 312.1,13.8 306.1,22.5 
	302.8,35.2 281.1,43.2 366,67.7 380.5,78.8 387.5,94.7 "/>
<g>
	<g>
		<path class="st1" d="M83.4,22.3v67.4h-5.5v-4.6c-7.2,7.1-18.8,7.1-26-0.2s-7.1-18.8,0.2-26c7.2-7.1,18.7-7.1,25.8,0V22.3H83.4z
			 M77.9,72c0-7.1-5.8-12.9-12.9-12.9S52.1,64.9,52.1,72S57.9,84.9,65,84.9l0,0C72.1,84.9,77.9,79.2,77.9,72L77.9,72z"/>
		<path class="st1" d="M95.8,44c-0.1-2.1,1.6-3.9,3.7-4s3.9,1.6,4,3.7c0.1,2.1-1.6,3.9-3.7,4h-0.1C97.6,47.8,95.9,46.1,95.8,44z
			 M97,54.4h5.5v35.3H97V54.4z"/>
		<path class="st1" d="M122.8,59.7v20c-0.1,2.9,2.2,5.3,5.1,5.4c0.1,0,0.2,0,0.2,0h4.1v4.2c-1.4,0.8-3,1.2-4.7,1.1
			c-5.5,0-10.1-4.4-10.2-10V59.7h-5.9v-5.3h5.9V39h5.5v15.4h9.4v5.3H122.8z"/>
		<path class="st1" d="M139.1,72c0-10.1,8.2-18.4,18.4-18.4c10.1,0,18.4,8.2,18.4,18.4c0,10.1-8.2,18.4-18.4,18.4l0,0
			C147.3,90.4,139.1,82.2,139.1,72C139.1,72.1,139.1,72.1,139.1,72z M170.4,72c0-7.1-5.8-12.9-12.9-12.9c-7.1,0-12.9,5.8-12.9,12.9
			s5.8,12.9,12.9,12.9l0,0C164.6,84.9,170.4,79.2,170.4,72z"/>
		<path class="st1" d="M206.2,53.9v5.6c-0.9-0.3-1.8-0.4-2.7-0.4c-6.3-0.1-11.6,4.9-11.7,11.3v0.1v19.2h-5.5V54.4h5.5v5
			c2.8-3.7,7.1-5.8,11.7-5.7C204.4,53.7,205.3,53.8,206.2,53.9z"/>
		<path class="st1" d="M253.2,85.1v4.6c-0.8,0.5-1.7,0.7-2.6,0.7c-3.8,0.1-7.2-2.4-8.1-6.1c-6.8,7.5-18.4,8-25.9,1.2
			s-8-18.4-1.2-25.9c3.5-3.8,8.4-6,13.6-6c4.8,0,9.5,1.9,12.9,5.3v-4.6h5.5v26.1c0,3.3,1.7,4.6,3.6,4.6h2.2V85.1z M241.9,72
			c0-7.1-5.8-12.9-12.9-12.9s-12.9,5.8-12.9,12.9s5.8,12.9,12.9,12.9l0,0C236.1,84.9,241.9,79.2,241.9,72z"/>
		<path class="st1" d="M31.9,78.5c-3.6,6.2-11.5,8.2-17.7,4.6c-3.7-2.2-6.1-6-6.4-10.3H39l0.1-1.1c-0.2-10.1-8.6-18.1-18.7-17.9
			s-18.2,8.6-18,18.7S11,90.6,21.1,90.4c6.4-0.1,12.3-3.6,15.5-9.2L31.9,78.5z M20.7,59.2c5.5,0,10.4,3.5,12.1,8.7H8.5
			C10.3,62.7,15.2,59.2,20.7,59.2z"/>
	</g>
	<g>
		<path class="st1" d="M0,154l8.3-4.1c1.1,2.3,3.4,3.7,5.9,3.7c1.9,0,3.1-0.8,3.1-2.2c0-1.2-1.1-2.1-4.2-3.4C9,146.5,2,144.1,2,137
			c0-6,5.1-11.3,13.2-11.3c4.4,0,8.7,1.6,11.9,4.7l-5.7,6.4c-1.4-1.6-3.4-2.5-5.5-2.6c-1.9,0-2.8,0.9-2.8,2c0,1.3,1.2,1.9,3.8,2.9
			c5,1.9,10.9,4.8,10.9,11.8c0,6.6-4.9,11.5-12.8,11.5C8.7,162.5,2.1,159.5,0,154z"/>
		<path class="st1" d="M75.6,152.6v9.2c-0.9,0.4-2,0.7-3,0.7c-4.4,0.1-8.6-2.2-10.9-6c-2.8,3.8-7.3,6.1-12.1,6
			c-9.8,0-17.5-8.1-17.5-18.4s7.7-18.4,17.5-18.4c3.7-0.1,7.3,1.3,10.1,3.8v-3.1h11.2v22.7c0,2.9,1.6,3.4,3.1,3.4L75.6,152.6z
			 M60.2,144.1c0-4.6-3.8-8.4-8.4-8.4s-8.4,3.8-8.4,8.4c0,4.6,3.8,8.4,8.4,8.4l0,0C56.5,152.5,60.2,148.7,60.2,144.1L60.2,144.1z"/>
		<path class="st1" d="M120.9,144.1c0,10.2-7.7,18.4-17.4,18.4c-3.7,0.1-7.3-1.3-10.1-3.8v3.2l-11.3-0.1v-60.5h11.3v28.3
			c2.8-2.5,6.4-3.9,10.1-3.8C113.2,125.7,120.9,133.8,120.9,144.1z M109.7,144.1c0-4.6-3.8-8.4-8.4-8.4s-8.4,3.8-8.4,8.4
			c0,4.6,3.8,8.4,8.4,8.4S109.7,148.8,109.7,144.1L109.7,144.1L109.7,144.1z"/>
		<path class="st1" d="M128.5,114.3c0-3.4,2.8-6.2,6.2-6.2s6.2,2.8,6.2,6.2s-2.8,6.2-6.2,6.2l0,0
			C131.3,120.5,128.5,117.7,128.5,114.3z M129,126.4h11.2v35.3H129V126.4z"/>
		<path class="st1" d="M191.9,152.6v9.2c-0.9,0.4-2,0.7-3,0.7c-4.4,0.1-8.6-2.2-10.9-6c-2.8,3.8-7.3,6.1-12.1,6
			c-9.8,0-17.5-8.1-17.5-18.4s7.7-18.4,17.5-18.4c3.7-0.1,7.3,1.3,10.1,3.8v-3.1h11.2v22.7c0,2.9,1.6,3.4,3.1,3.4L191.9,152.6z
			 M176.5,144.1c0-4.6-3.8-8.4-8.4-8.4s-8.4,3.8-8.4,8.4s3.8,8.4,8.4,8.4l0,0C172.8,152.5,176.5,148.7,176.5,144.1L176.5,144.1z
			 M171,121.9h-7.4l7.8-13.2H182L171,121.9z"/>
	</g>
	<g>
		<path class="st2" d="M213.5,220.2c9.2,2.9,19.2,2.9,28.4-0.1c19.2-6,29.7-24.1,34.9-60.3h-29.3l-43,56.6
			C207.3,217.9,210.3,219.2,213.5,220.2z"/>
		<path class="st3" d="M388.6,102.8c0-0.2,0-0.4,0-0.6s0-0.5,0-0.7s0-0.4,0-0.6s0-0.5-0.1-0.7c0-0.2,0-0.4-0.1-0.6
			c0-0.2-0.1-0.5-0.1-0.7s-0.1-0.4-0.1-0.6c0-0.3-0.1-0.5-0.1-0.8c0-0.2-0.1-0.4-0.1-0.6c-0.1-0.3-0.1-0.5-0.2-0.8
			c0-0.2-0.1-0.4-0.1-0.6c-0.1-0.3-0.1-0.5-0.2-0.8c-0.1-0.2-0.1-0.4-0.2-0.6c-0.1-0.3-0.2-0.6-0.3-0.9c-0.1-0.2-0.1-0.3-0.2-0.5
			c-0.2-0.5-0.3-0.9-0.5-1.4c-0.5-1.3-1.2-2.6-1.9-3.9c-0.2-0.4-0.5-0.8-0.8-1.3c-0.2-0.3-0.4-0.6-0.6-0.9c-0.6-0.9-1.2-1.7-1.9-2.6
			c-0.7-0.8-1.4-1.6-2.2-2.4c-0.3-0.3-0.5-0.5-0.8-0.8l0,0c-0.5-0.5-1.1-1-1.7-1.5l-0.1-0.1c-7.8-6.6-19.9-12.4-36.3-17h-0.1
			l-0.6-0.2l-0.2-0.1l-0.5-0.1l-0.3-0.1l-0.5-0.1l-0.3-0.1L337,60l-0.3-0.1l-0.5-0.1l-0.3-0.1l-0.5-0.1l-0.3-0.1l-0.6-0.2l-0.2-0.1
			l-0.7-0.2h-0.2c-0.6-0.1-1.2-0.3-1.8-0.4l-0.4-0.1l-0.5-0.1l-0.4-0.1l-0.5-0.1l-0.4-0.1l-0.5-0.1l-0.4-0.1l-0.4-0.1l-0.6-0.1h-0.1
			l0.1,0.1c0.1,0.1,0.2,0.3,0.3,0.4c0.1,0.1,0.1,0.1,0.2,0.2c0.1,0.2,0.3,0.3,0.4,0.5l0.1,0.1c0.2,0.2,0.3,0.4,0.5,0.6l0.1,0.2
			c0.1,0.2,0.2,0.3,0.3,0.5l0.2,0.2c0.1,0.1,0.2,0.3,0.3,0.4c0.1,0.1,0.1,0.2,0.2,0.3s0.2,0.3,0.3,0.4l0.2,0.3
			c0.1,0.1,0.2,0.3,0.3,0.4l0.2,0.3c0.1,0.2,0.2,0.3,0.3,0.5l0.2,0.3c0.1,0.2,0.2,0.4,0.3,0.5l0.1,0.2c0.2,0.3,0.3,0.5,0.5,0.8
			c0,0,0.1,0.1,0.1,0.2c0.1,0.2,0.2,0.4,0.4,0.6c0.1,0.1,0.1,0.2,0.2,0.3c0.1,0.2,0.2,0.4,0.3,0.5c0.1,0.1,0.1,0.2,0.2,0.3
			c0.1,0.2,0.2,0.3,0.3,0.5c0.1,0.1,0.1,0.2,0.2,0.3c0.1,0.2,0.2,0.3,0.3,0.5c0.1,0.1,0.1,0.2,0.2,0.4c0.1,0.2,0.2,0.4,0.3,0.5
			c0.1,0.1,0.1,0.2,0.2,0.3c0.1,0.2,0.2,0.4,0.3,0.6c0,0.1,0.1,0.2,0.1,0.3c0.1,0.3,0.2,0.6,0.4,0.8v0.1c0.1,0.3,0.2,0.6,0.4,0.9
			c0,0.1,0.1,0.2,0.1,0.3c0.1,0.2,0.2,0.4,0.2,0.7c0,0.1,0.1,0.3,0.1,0.4c0.1,0.2,0.1,0.4,0.2,0.6c0,0.1,0.1,0.3,0.1,0.4
			c0.1,0.2,0.1,0.4,0.2,0.6c0,0.1,0.1,0.3,0.1,0.4c0.1,0.2,0.1,0.4,0.2,0.6c0,0.1,0.1,0.3,0.1,0.4c0.1,0.2,0.1,0.4,0.2,0.7
			c0,0.1,0.1,0.3,0.1,0.4c0.1,0.3,0.1,0.5,0.2,0.8c0,0.1,0,0.2,0.1,0.3c0.1,0.4,0.2,0.7,0.2,1.1c0,0.1,0,0.2,0,0.3
			c0.1,0.3,0.1,0.6,0.2,0.9c0,0.1,0,0.3,0.1,0.4c0,0.2,0.1,0.5,0.1,0.7s0,0.3,0.1,0.5c0,0.2,0.1,0.5,0.1,0.7s0,0.3,0.1,0.5
			c0,0.2,0,0.5,0.1,0.7c0,0.2,0,0.3,0,0.5c0,0.3,0,0.5,0.1,0.8c0,0.2,0,0.3,0,0.5c0,0.3,0,0.6,0,0.8c0,0.1,0,0.3,0,0.4
			c0,0.4,0,0.8,0,1.3c0,11.5-4.8,21.8-14.5,31.2c-1.9,1.8-3.9,3.5-5.9,5.1c-13.3,10.4-31.5,18.4-47.6,24.9c-0.5,0.2-1,0.4-1.5,0.6
			l-1.3,0.5l-1,0.4c-0.6,0.2-1.2,0.5-1.8,0.7c-0.4,0.2-0.8,0.3-1.2,0.5l-1.7,0.7l-1.2,0.5l-1.7,0.6l-1.2,0.5l-1.7,0.7l-1.2,0.5
			l-1.7,0.7l-1.2,0.4l-1.9,0.7l-0.9,0.4h-0.1h35.6c34,0,77.8-11.4,99.1-36.9l0,0v-0.1c0,0,0-0.1,0.1-0.1l0.1-0.1
			c0-0.1,0.1-0.1,0.1-0.2c0,0,0-0.1,0.1-0.1l0.1-0.2l0.1-0.2c0-0.1,0.1-0.2,0.1-0.2l0.1-0.2c0-0.1,0.1-0.2,0.1-0.3
			c0-0.1,0.1-0.2,0.1-0.2c0-0.1,0.1-0.2,0.1-0.3c0-0.1,0.1-0.2,0.1-0.3c0-0.1,0.1-0.2,0.1-0.3c0-0.1,0.1-0.2,0.1-0.3
			c0-0.1,0.1-0.2,0.1-0.4s0.1-0.2,0.1-0.3c0-0.1,0.1-0.3,0.1-0.4s0.1-0.2,0.1-0.4c0-0.1,0.1-0.3,0.1-0.4s0.1-0.2,0.1-0.4
			c0.1-0.2,0.1-0.3,0.2-0.5c0-0.1,0.1-0.3,0.1-0.4c0.1-0.2,0.1-0.3,0.2-0.5c0-0.1,0.1-0.3,0.1-0.4c0.1-0.2,0.1-0.4,0.2-0.6
			c0-0.1,0.1-0.3,0.1-0.4c0.1-0.2,0.1-0.5,0.2-0.7c0-0.1,0.1-0.2,0.1-0.3c0.1-0.3,0.2-0.7,0.2-1c0-0.1,0-0.1,0-0.2
			c0.1-0.3,0.1-0.6,0.2-0.9c0-0.1,0-0.3,0.1-0.4c0-0.2,0.1-0.5,0.1-0.7s0-0.3,0.1-0.5c0-0.2,0.1-0.5,0.1-0.7s0-0.3,0.1-0.5
			c0-0.2,0-0.4,0.1-0.7c0-0.2,0-0.4,0-0.5c0-0.2,0-0.5,0-0.7s0-0.4,0-0.6s0-0.5,0-0.7s0-0.4,0-0.6
			C388.6,103.3,388.6,103.1,388.6,102.8z"/>
		<path class="st0" d="M334.1,73.4c-1.2-2.5-2.7-4.8-4.4-7l0,0c-0.3-0.4-0.6-0.7-0.8-1.1l-0.1-0.1c-0.3-0.3-0.5-0.6-0.8-0.9
			l-0.1-0.1c-0.3-0.3-0.5-0.6-0.8-0.8l-0.1-0.1c-0.3-0.3-0.5-0.5-0.8-0.8l0,0c-0.3-0.3-0.5-0.5-0.8-0.8l0,0
			c-0.2-0.2-0.5-0.5-0.7-0.7l-0.1-0.1c-0.2-0.2-0.4-0.4-0.6-0.6l-0.1-0.1c-0.2-0.2-0.4-0.3-0.6-0.5l-1.9-2.8L278,115.7l-27.6,38.7
			l1.7-0.6h0.1c8.1-3.1,15.7-6,23.2-9c0.5-0.2,0.9-0.4,1.4-0.6c36.8-14.9,61.3-29.9,61.3-53.5C338.1,84.8,336.7,78.9,334.1,73.4z"/>
		<path class="st2" d="M332.2,37.4c3.2,0,5.8-2.6,5.8-5.8s-2.6-5.8-5.8-5.8c-3.2,0-5.8,2.6-5.8,5.8l0,0
			C326.4,34.8,329,37.4,332.2,37.4z"/>
	</g>
</g>
<path class="st2" d="M382.3,35.6c-5.2-8.1-11.9-15.1-19.8-20.5c-8-5.5-17.4-8.7-27.2-9.3l0,0c-1,0-2-0.1-3.1-0.1
	c-19.5,0-31.6,13.4-31.6,25.8c0,0.5,0,1,0,1.5c-7.5,1.9-14.7,4.4-21.7,7.7c-1.3,0.7-1.9,2.3-1.2,3.6c0.3,0.7,0.9,1.2,1.7,1.4
	c7.6,2.1,28.7,8.1,37.4,10.5l-73.5,101.1l-0.1,0.1l-2,2.8l-39,53.6c-0.9,1.2-0.6,2.8,0.5,3.7c7.7,5.3,16.8,8.1,26.1,8.1
	c5,0,9.9-0.8,14.6-2.4c24.5-7.9,31.6-35.3,35.1-61.7h13.2c18-0.1,35.8-3.2,52.7-9.3c18.2-6.7,32.8-16.6,42.1-28.4l0,0
	c7.9-9.8,12.2-21.9,12.1-34.5C398.6,71.3,392.5,51.2,382.3,35.6z M279.7,116.3l41.9-57.7l0,0l0,0c0.2,0.2,0.4,0.3,0.5,0.5l0.1,0.1
	c0.2,0.2,0.4,0.4,0.6,0.6l0.1,0.1c0.2,0.2,0.4,0.4,0.7,0.7l0,0c0.2,0.2,0.5,0.5,0.7,0.8l0,0c0.2,0.3,0.5,0.5,0.7,0.8l0.1,0.1
	c0.2,0.3,0.5,0.5,0.7,0.8l0.1,0.1c0.2,0.3,0.5,0.6,0.7,0.9l0.1,0.1c0.3,0.3,0.5,0.7,0.8,1.1l0,0c1.6,2.2,3,4.6,4.1,7
	c2.5,5.4,3.7,11.3,3.7,17.3c0,23.6-23,38.4-57.6,53.3c-0.4,0.2-0.9,0.4-1.3,0.6c-7,3-14.2,5.9-21.8,9h-0.1L253,153L279.7,116.3z
	 M241.7,218.3c-11.2,3.7-23.4,2.4-33.6-3.5l38.6-53.1H273C268.5,195.7,259,212.7,241.7,218.3L241.7,218.3z M386,104.3
	c0,0.2,0,0.4,0,0.7c0,0.2,0,0.4,0,0.5c0,0.2,0,0.4,0,0.7c0,0.2,0,0.3,0,0.5s0,0.4-0.1,0.7c0,0.2,0,0.3,0,0.5s-0.1,0.4-0.1,0.7
	c0,0.1,0,0.3-0.1,0.4c0,0.2-0.1,0.5-0.1,0.7c0,0.1,0,0.3-0.1,0.4c0,0.3-0.1,0.6-0.1,0.8c0,0.1,0,0.1,0,0.2c-0.1,0.3-0.1,0.7-0.2,1
	c0,0.1,0,0.2-0.1,0.3c0,0.2-0.1,0.4-0.2,0.7c0,0.1-0.1,0.2-0.1,0.4c0,0.2-0.1,0.4-0.1,0.5s-0.1,0.3-0.1,0.4c0,0.2-0.1,0.3-0.1,0.5
	c0,0.1-0.1,0.3-0.1,0.4c0,0.2-0.1,0.3-0.1,0.5c0,0.1-0.1,0.2-0.1,0.4c0,0.1-0.1,0.3-0.1,0.4s-0.1,0.2-0.1,0.3c0,0.1-0.1,0.3-0.1,0.4
	s-0.1,0.2-0.1,0.3s-0.1,0.2-0.1,0.4c0,0.1-0.1,0.2-0.1,0.3l-0.1,0.3c0,0.1-0.1,0.2-0.1,0.3l-0.1,0.3c0,0.1-0.1,0.2-0.1,0.2
	c0,0.1-0.1,0.2-0.1,0.3l-0.1,0.2l-0.1,0.2c0,0.1-0.1,0.1-0.1,0.2l-0.1,0.2c0,0,0,0.1-0.1,0.1c0,0.1-0.1,0.1-0.1,0.2v0.1
	c0,0.1,0,0.1-0.1,0.1v0.1l0,0l0,0C363,145.6,323,156.6,292,156.6h-15.2l0,0c-0.1,0-0.2,0-0.3,0h-17h0.1l0.9-0.3l1.8-0.7l1.1-0.4
	l1.6-0.6l1.1-0.4l1.5-0.6l1.1-0.5l1.5-0.6l1.1-0.5l1.5-0.6c0.4-0.1,0.7-0.3,1.1-0.4c0.6-0.2,1.1-0.5,1.7-0.7l0.9-0.4l1.2-0.5
	c0.4-0.2,0.9-0.4,1.3-0.6c14.7-6.3,31.3-14,43.4-24c1.9-1.5,3.7-3.2,5.4-4.9c8.9-9,13.3-18.9,13.3-29.9c0-0.4,0-0.8,0-1.2
	c0-0.1,0-0.3,0-0.4c0-0.3,0-0.5,0-0.8c0-0.2,0-0.3,0-0.4c0-0.2,0-0.5,0-0.7s0-0.3,0-0.5s0-0.5-0.1-0.7c0-0.2,0-0.3,0-0.5
	s-0.1-0.5-0.1-0.7c0-0.1,0-0.3-0.1-0.4c0-0.2-0.1-0.5-0.1-0.7c0-0.1,0-0.3-0.1-0.4c0-0.3-0.1-0.6-0.1-0.8c0-0.1,0-0.2,0-0.2
	c-0.1-0.4-0.1-0.7-0.2-1.1c0-0.1,0-0.2-0.1-0.3c-0.1-0.3-0.1-0.5-0.2-0.8c0-0.1-0.1-0.2-0.1-0.4c-0.1-0.2-0.1-0.4-0.2-0.6
	c0-0.1-0.1-0.3-0.1-0.4c-0.1-0.2-0.1-0.4-0.2-0.6c0-0.1-0.1-0.3-0.1-0.4c-0.1-0.2-0.1-0.4-0.2-0.6c0-0.1-0.1-0.3-0.1-0.4
	c-0.1-0.2-0.1-0.4-0.2-0.6c0-0.1-0.1-0.2-0.1-0.4c-0.1-0.2-0.1-0.4-0.2-0.6c0-0.1-0.1-0.2-0.1-0.3c-0.1-0.3-0.2-0.6-0.3-0.9v-0.1
	c-0.1-0.3-0.2-0.5-0.3-0.8c0-0.1-0.1-0.2-0.1-0.3c-0.1-0.2-0.2-0.4-0.2-0.6c0-0.1-0.1-0.2-0.1-0.3c-0.1-0.2-0.2-0.3-0.2-0.5
	c-0.1-0.1-0.1-0.2-0.2-0.3c-0.1-0.2-0.2-0.3-0.2-0.5c-0.1-0.1-0.1-0.2-0.2-0.3c-0.1-0.2-0.2-0.3-0.2-0.5c-0.1-0.1-0.1-0.2-0.2-0.3
	c-0.1-0.2-0.2-0.3-0.3-0.5c0-0.1-0.1-0.2-0.1-0.3c-0.1-0.2-0.2-0.4-0.3-0.6l-0.1-0.1c-0.1-0.3-0.3-0.5-0.4-0.7l-0.1-0.2
	c-0.1-0.2-0.2-0.4-0.3-0.5l-0.2-0.3c-0.1-0.1-0.2-0.3-0.3-0.4l-0.2-0.3c-0.1-0.1-0.2-0.3-0.3-0.4l-0.2-0.3c-0.1-0.1-0.2-0.3-0.3-0.4
	c-0.1-0.1-0.1-0.2-0.2-0.3s-0.2-0.3-0.3-0.4l-0.2-0.2c-0.1-0.1-0.2-0.3-0.3-0.4l-0.1-0.2c-0.1-0.2-0.3-0.4-0.4-0.6v-0.1
	c-0.1-0.2-0.3-0.3-0.4-0.5c0-0.1-0.1-0.1-0.1-0.2c-0.1-0.1-0.2-0.2-0.3-0.4l-0.1-0.1l0,0h0.1l0.5,0.1l0.4,0.1l0.4,0.1l0.5,0.1
	l0.4,0.1l0.5,0.1l0.3,0.1l0.5,0.1l0.4,0.1c0.6,0.1,1.1,0.3,1.6,0.4h0.1l0.7,0.2l0.2,0.1l0.6,0.1l0.3,0.1l0.5,0.1l0.3,0.1l0.5,0.1
	l0.3,0.1l0.4,0.1l0.3,0.1l0.5,0.1l0.2,0.1l0.5,0.1l0.2,0.1l0.6,0.2l0,0c14.9,4.5,26,10,33.1,16.4l0.1,0.1c0.5,0.5,1,1,1.5,1.5l0,0
	c0.2,0.3,0.5,0.5,0.7,0.8c0.7,0.8,1.4,1.5,2,2.3s1.2,1.6,1.7,2.5c0.2,0.3,0.4,0.6,0.5,0.8c0.2,0.4,0.5,0.8,0.7,1.2
	c0.7,1.2,1.2,2.5,1.7,3.8c0.2,0.4,0.3,0.9,0.5,1.3c0,0.2,0.1,0.3,0.1,0.4c0.1,0.3,0.2,0.6,0.3,0.9c0,0.2,0.1,0.4,0.1,0.5
	c0.1,0.3,0.1,0.5,0.2,0.8c0,0.2,0.1,0.4,0.1,0.6c0.1,0.3,0.1,0.5,0.2,0.8c0,0.2,0.1,0.4,0.1,0.6s0.1,0.5,0.1,0.7s0.1,0.4,0.1,0.6
	s0.1,0.5,0.1,0.7s0,0.4,0.1,0.6c0,0.2,0,0.5,0.1,0.7c0,0.2,0,0.4,0,0.6s0,0.5,0,0.7s0,0.4,0,0.6s0,0.4,0,0.7
	C386,103.9,386,104.1,386,104.3z M391.4,102.7c0-0.1,0-0.3,0-0.4s0-0.2,0-0.3c0-0.1,0-0.3,0-0.4s0-0.2,0-0.3c0-0.1,0-0.3,0-0.4
	s0-0.2,0-0.4c0-0.1,0-0.3,0-0.4s0-0.2,0-0.4c0-0.1,0-0.3,0-0.4s0-0.2,0-0.4s0-0.3-0.1-0.4s0-0.2-0.1-0.4s0-0.3-0.1-0.4
	s0-0.2-0.1-0.4c0-0.1,0-0.3-0.1-0.4c0-0.1,0-0.2-0.1-0.4c0-0.1-0.1-0.3-0.1-0.4s0-0.2-0.1-0.4c0-0.1-0.1-0.3-0.1-0.4
	s-0.1-0.2-0.1-0.4c0-0.1-0.1-0.3-0.1-0.4s-0.1-0.2-0.1-0.4c0-0.1-0.1-0.3-0.1-0.4s-0.1-0.2-0.1-0.4c0-0.2-0.1-0.3-0.1-0.5
	c0-0.1-0.1-0.2-0.1-0.3c0-0.2-0.1-0.3-0.2-0.5c0-0.1-0.1-0.2-0.1-0.3c-0.1-0.2-0.1-0.4-0.2-0.6c0-0.1-0.1-0.2-0.1-0.3
	c-0.1-0.3-0.2-0.5-0.3-0.8c-0.2-0.5-0.4-1-0.6-1.5c-0.4-1-0.9-1.9-1.4-2.9c-0.3-0.5-0.5-0.9-0.8-1.4c-0.8-1.3-1.7-2.6-2.6-3.8
	c-7.1-9.3-20.6-17-40.1-22.9h-0.1l-0.9-0.2c-5.7-1.5-15.1-3.9-19-4.9h-0.1l0,0l-1.4-0.4c-0.8-0.2-19.5-5.5-33.7-9.5
	c5.2-2,10.5-3.6,15.9-4.9c1.3-0.3,2.2-1.5,2-2.8v-0.1c-0.1-0.5-0.1-1-0.1-1.5v-0.1c0-0.6,0-1.1,0-1.7c0-9.9,10-20.5,26.3-20.5
	c0.9,0,1.9,0,2.8,0.1c21.3,1.2,35,15.6,42.8,27.4c9.7,14.7,15.4,33.7,15.4,50.9C393.3,93.9,392.7,98.4,391.4,102.7
	C391.4,102.9,391.4,102.8,391.4,102.7z"/>
</svg>
