<svg width="17" height="17" viewBox="0 0 17 17" fill="none" xmlns="http://www.w3.org/2000/svg">
<path fill-rule="evenodd" clip-rule="evenodd" d="M16.9632 10.9351C15.4663 11.5159 13.8328 11.6488 12.2617 11.3178C10.6906 10.9868 9.24967 10.2061 8.11434 9.07078C6.97901 7.93545 6.1983 6.49449 5.86729 4.92338C5.53628 3.35227 5.66925 1.71881 6.25001 0.221924C4.45199 0.922631 2.95507 2.22916 2.01769 3.91593C1.08032 5.6027 0.761331 7.56383 1.11581 9.46073C1.47028 11.3576 2.47597 13.0712 3.95923 14.3056C5.4425 15.5401 7.31023 16.2178 9.23996 16.2219C10.9103 16.2224 12.5417 15.7177 13.92 14.7742C15.2984 13.8307 16.3592 12.4924 16.9632 10.9351Z" fill="#FFF7E0"/>
</svg>
