<svg width="196" height="162" viewBox="0 0 196 162" fill="none" xmlns="http://www.w3.org/2000/svg">
<ellipse opacity="0.5" cx="80.1606" cy="148.337" rx="47.7814" ry="12.8368" fill="#FFDC78"/>
<ellipse opacity="0.5" cx="142.918" cy="142.631" rx="43.5025" ry="12.8368" fill="#FFDC78"/>
<ellipse cx="145.389" cy="114.167" rx="34.2139" ry="45.8777" transform="rotate(89.8386 145.389 114.167)" fill="#D88834"/>
<mask id="mask0" mask-type="alpha" maskUnits="userSpaceOnUse" x="104" y="71" width="92" height="70">
<ellipse cx="150.026" cy="105.659" rx="34.2139" ry="45.8777" transform="rotate(89.8386 150.026 105.659)" fill="#FFA03C"/>
</mask>
<g mask="url(#mask0)">
<ellipse cx="145.388" cy="114.167" rx="34.2139" ry="45.8777" transform="rotate(89.8386 145.388 114.167)" fill="#FFA03C"/>
</g>
<ellipse cx="85.4346" cy="98.9548" rx="41.4719" ry="55.6101" transform="rotate(1.62655 85.4346 98.9548)" fill="#EBCB71"/>
<mask id="mask1" mask-type="alpha" maskUnits="userSpaceOnUse" x="50" y="29" width="87" height="115">
<ellipse cx="93.2263" cy="86.465" rx="41.4719" ry="55.6101" transform="rotate(1.62655 93.2263 86.465)" fill="#FFDC78"/>
</mask>
<g mask="url(#mask1)">
<ellipse cx="85.4348" cy="98.9548" rx="41.4719" ry="55.6101" transform="rotate(1.62655 85.4348 98.9548)" fill="#FFDC78"/>
</g>
<line x1="64.4725" y1="27.2008" x2="50.9839" y2="0.223606" stroke="black"/>
<line x1="42.063" y1="42.4992" x2="15.45" y2="28.3056" stroke="black"/>
<line x1="30.9909" y1="69.8749" x2="0.954486" y2="67.1321" stroke="black"/>
</svg>
