<?xml version="1.0" encoding="utf-8"?>
<!-- Generator: Adobe Illustrator 26.0.2, SVG Export Plug-In . SVG Version: 6.00 Build 0)  -->
<svg version="1.1"
	 id="svg4084" xmlns:cc="http://creativecommons.org/ns#" xmlns:dc="http://purl.org/dc/elements/1.1/" xmlns:inkscape="http://www.inkscape.org/namespaces/inkscape" xmlns:rdf="http://www.w3.org/1999/02/22-rdf-syntax-ns#" xmlns:sodipodi="http://sodipodi.sourceforge.net/DTD/sodipodi-0.dtd" xmlns:svg="http://www.w3.org/2000/svg"
	 xmlns="http://www.w3.org/2000/svg" xmlns:xlink="http://www.w3.org/1999/xlink" x="0px" y="0px" viewBox="0 0 910 535"
	 style="enable-background:new 0 0 910 535;" xml:space="preserve">
<style type="text/css">
	.st0{fill:#00A49B;}
	.st1{fill:#FFFFFF;}
</style>
<rect x="-6" y="-5" class="st0" width="924" height="548"/>
<sodipodi:namedview  bordercolor="#666666" borderopacity="1" gridtolerance="10" guidetolerance="10" id="namedview4086" inkscape:current-layer="svg4084" inkscape:cx="595.27551" inkscape:cy="299.04891" inkscape:pageopacity="0" inkscape:pageshadow="2" inkscape:window-height="986" inkscape:window-maximized="1" inkscape:window-width="1920" inkscape:window-x="0" inkscape:window-y="0" inkscape:zoom="0.95974532" objecttolerance="10" pagecolor="#ffffff" showgrid="false">
	</sodipodi:namedview>
<g id="g4082" transform="translate(-140,-152.89001)">
	<path id="path4038" inkscape:connector-curvature="0" class="st1" d="M440.8,673.4l-3.3-1.1c-63.6-21.8-213.7-69.3-269.1-71.5
		c1.9,21.5,4.2,35.5,4.3,36l0.5,2.9l-2.3-1.8c-20.2-16.1-28.4-27-24.8-33.5c2.2-4,9.3-5.8,19.9-5.6c-2.3-25.8-2.9-51.6-1.8-77.5
		c2.7-56,16.6-128.6,67.6-156.2c76.7-41.4,213,28,405,206.5l-1.4,1.7c-2.5-1.6-249.6-164-293.7-118c-22.2,23.2,10.5,95.6,97.1,215.1
		L440.8,673.4z M168.2,598.7c63.5,2,239,60.8,266.7,70.2C349.1,550.1,317.2,477.8,340,453.9c40.4-42.2,236.4,79,285.6,110.6
		C439.4,393.2,307.2,326.8,232.7,367C161.6,405.5,162.7,534,168.2,598.7z M164.6,600.6c-8.9,0-14.8,1.5-16.6,4.7
		c-1.9,3.5,0.5,11.4,22,28.9c-0.8-5.2-2.5-17.3-4-33.6C165.6,600.6,165.1,600.6,164.6,600.6z"/>
	<path id="path4040" inkscape:connector-curvature="0" class="st1" d="M438.9,671.5l-2.2-0.3c-15.1-164-45.5-250.6-90.3-257.2
		c-1.9-0.3-3.7-0.4-5.6-0.4c-76.2,0-167.3,221.4-168.2,223.7l-2.1-0.7c54-242.5,123.3-368.6,206.1-374.8
		c65.6-5,128.2,68,171.9,136.1c22.2-40.2,43.7-67.5,60.4-64.3c26.7,5,35.9,83.1,28.1,238.8l-2.1,0.3c-0.6-1.7-34.8-88.9-86.4-170.2
		C496.1,499.9,439.7,669.1,438.9,671.5L438.9,671.5z M340.8,411.4c2,0,4,0.1,6,0.4c45.5,6.8,76.3,92.2,91.7,254
		c10.1-30.1,60.7-177.2,108.7-265.3c-46.8-73.3-107.5-141.1-170.4-136.4c-80.3,6-148,127.4-201.3,360.8
		C195.5,578.5,272.4,411.4,340.8,411.4z M549.9,400.1c2.8,4.4,5.6,8.8,8.2,13.2c40.8,67,69.5,135.6,77,154
		c7.2-148.9-1.7-226.7-26.5-231.4C592.6,332.9,571.7,360.1,549.9,400.1L549.9,400.1z"/>
	<path id="path4042" inkscape:connector-curvature="0" class="st1" d="M438.8,671.8l-2-0.7c5.5-69.7-7.3-112.9-38.1-128.4
		c-73.1-36.9-224.8,93.7-226.4,95l-2.4,2.1l0.6-3.2C224.1,364.1,293.3,223,376,217.4c56.6-3.8,117.9,54.7,181.8,174.1
		c13.4,25.1,25.6,50.3,36.1,73.6c23.9-24.1,44.5-38.6,56.1-33.2c16.8,7.8,12.6,53.9-13,140.8l-1,3.4l-1.1-3.3
		c-0.4-1.3-16-46.3-41.9-103.8C528.8,535.3,440,669.9,438.8,671.8z M367.9,533.8c11.5,0,22.2,2.1,31.7,6.9
		c31,15.6,44.3,58.1,39.6,126.3c15.1-22.8,93.7-139.7,152.8-200C544.2,360.8,462,213.8,376.2,219.6
		c-81.3,5.5-149.5,144.9-202.8,414.3C191.1,618.9,294.8,533.8,367.9,533.8z M594.8,467.2c22.2,49.5,36.9,90.1,41,101.6
		c24-82.4,28.4-127.8,13.2-134.9C638.1,428.9,618.2,443.3,594.8,467.2z"/>
	<path id="path4044" inkscape:connector-curvature="0" class="st1" d="M438.9,671.5l-2.2-0.3c0.9-101.4-17.9-159.6-55.9-172.9
		c-76.5-26.9-207.1,137.7-208.4,139.3l-2.1,2.6l0.1-3.3c6.4-300.2,49.2-460.6,127-476.6c57.7-11.9,132.3,53.9,221.9,195.4
		c7.7,12.1,15.1,24.3,22.3,36.3c24.7-50.9,49.1-87.1,67.6-83.9c27.4,4.9,36.4,91.4,27.7,264.4l-2.1,0.4c-0.9-1.9-39.1-85-93.1-176
		C491.4,503.1,439.7,669,438.9,671.5z M362.4,493c6.5,0,13,1,19.2,3.1c38,13.4,57.3,69.7,57.4,167.6c10.7-34,56.3-175.1,101.5-269.2
		C470.3,276.8,373.9,146.7,298,162.4c-76.4,15.7-118.5,174.3-125.2,471.2C188.9,613.6,289.1,493,362.4,493z M543.1,394.3
		c47.8,80.5,83.5,155.6,92,173.6c8.2-166.4-0.6-253.1-26.1-257.6C591.4,307.2,567.4,343.5,543.1,394.3z"/>
	<path id="path4046" inkscape:connector-curvature="0" class="st1" d="M437.1,673.6l-0.3-2.3c-17-115.7-34.7-207-53-274
		C320.3,436,249.9,516.1,172.5,637.5l-2-0.8c2.4-15.4,58.7-377.5,136.1-377.5h0.1c27.2,0.1,53.3,45.3,78.2,134.9
		c36.5-21.7,70.5-29.7,102.3-24.1c74.5,13.4,116.9,101.7,136.5,157.1c1.4,0.3,2.8,0.7,4.1,1.4c10.1,4.9,13.2,19.8,9.3,44.2l-2.2,0.1
		c-3.5-14.8-7.8-29.3-12.9-43.6c-1-0.1-2-0.2-3-0.2c-48.2,0-178.9,141.6-180.3,143.1L437.1,673.6z M385.5,396.3
		c18.4,66.7,36.1,157.5,53.1,272.4c16.1-17.3,136.9-145.6,182.5-142c-19.5-55-61.4-141.5-134.4-154.6
		C455.5,366.6,421.7,374.6,385.5,396.3z M306.6,261.5c-70.6,0-125.7,324.7-133.1,370.3c76.3-119.2,146.2-198.1,209.6-236.6
		C358.6,306.3,333,261.5,306.6,261.5L306.6,261.5z M624.5,529.6c5.7,16.5,9.3,29.8,11.1,36.9c2.4-19.9-0.6-32-8.9-36.1
		C626,530.1,625.3,529.8,624.5,529.6L624.5,529.6z"/>
	<path id="path4048" inkscape:connector-curvature="0" class="st1" d="M436.9,673.8l-0.1-2.6c-7.4-136-32.9-209.9-75.7-219.5
		c-77.5-17.4-187.4,183.6-188.5,185.6l-2-0.8c45-159.2,108.2-246,187.8-258.1c71.8-10.9,143.7,42.3,191.5,88.9
		c17.2,16.9,33.4,34.6,48.7,53.2c25-18.4,45.4-29,54.2-23c9.8,6.7,4.7,31.3-15.7,75.3l-0.8,1.8L635,573
		c-0.4-0.7-14.2-21.6-37.1-49.5C549,560.2,480.3,628,438.7,671.9L436.9,673.8z M351.1,448.5c3.5,0,7,0.4,10.4,1.1
		c43.6,9.8,69.6,83.4,77.3,218.9c14-14.7,98.1-102,157.7-146.6c-50.9-61.6-145.2-155.4-237.9-141.3
		c-77.1,11.7-138.7,94.9-183.3,247.2C196.4,590.8,281.9,448.5,351.1,448.5z M599.7,522.2c19.4,23.7,32.3,42.5,36,48
		c23.5-51.2,21.5-66.8,15.6-70.7C643.5,494.1,624.2,504,599.7,522.2z"/>
	<path id="path4050" inkscape:connector-curvature="0" class="st1" d="M289.4,413.7c1,4.4-1.7,8.7-6,9.8c-4.4,1-8.7-1.7-9.8-6
		c-1-4.4,1.7-8.7,6-9.8c0,0,0,0,0,0C284,406.7,288.4,409.4,289.4,413.7z"/>
	<path id="path4052" inkscape:connector-curvature="0" class="st1" d="M188.6,631.4c1.5,6.4-2.4,12.8-8.8,14.3
		c-6.4,1.5-12.8-2.4-14.3-8.8s2.4-12.8,8.8-14.3c0,0,0,0,0,0C180.7,621.1,187.1,625,188.6,631.4
		C188.6,631.4,188.6,631.4,188.6,631.4z"/>
	<path id="path4054" inkscape:connector-curvature="0" class="st1" d="M449.4,668.4c1.5,6.4-2.4,12.8-8.8,14.3
		c-6.4,1.5-12.8-2.4-14.3-8.8c-1.5-6.4,2.4-12.8,8.8-14.3C441.5,658.1,447.9,662,449.4,668.4C449.4,668.4,449.4,668.4,449.4,668.4z"
		/>
	<path id="path4056" inkscape:connector-curvature="0" class="st1" d="M650.4,569c1.9,8-3,16-11,17.9s-16-3-17.9-11s3-16,11-17.9
		c0,0,0,0,0,0C640.5,556.1,648.5,561,650.4,569z"/>
	<path id="path4058" inkscape:connector-curvature="0" class="st1" d="M616.1,307c1,4.4-1.7,8.7-6,9.8c-4.4,1-8.7-1.7-9.8-6
		c-1-4.4,1.7-8.7,6-9.8c0,0,0,0,0,0C610.7,299.9,615.1,302.6,616.1,307z"/>
	<path id="path4060" inkscape:connector-curvature="0" class="st1" d="M264.7,184.9c1,4.4-1.7,8.7-6,9.8c-4.4,1-8.7-1.7-9.8-6
		c-1-4.4,1.7-8.7,6-9.8C259.3,177.8,263.6,180.5,264.7,184.9C264.7,184.9,264.7,184.9,264.7,184.9z"/>
	<g id="g4080">
		<path id="path4062" inkscape:connector-curvature="0" class="st1" d="M714.6,578.1c-0.1,2.8,1.4,6.6,8,6.6c2.8,0,5-0.5,6.4-2.3
			c0.7-1,1.2-2.2,1.2-3.4c0-3.6-2.5-4.2-8-5.5c-7.7-1.7-14.1-3.3-14.1-10.9c0-6.7,5.8-11.1,14.3-11.1c4.6,0,11,1.3,13.2,5.7
			c0.7,1.7,1.1,3.5,0.9,5.3h-7c0.2-5.5-4.6-6-7.1-6c-1,0-7.4,0-7.4,5.3c0,3.4,3.3,4.2,5.2,4.7c10.1,2.4,12.3,3,14.5,5
			c1.8,1.8,2.8,4.2,2.8,6.8c0,3.7-1.9,7.2-5,9.3c-3.2,2-7.1,2.5-10.9,2.5c-7.4,0-14.4-3.1-14.3-11.9L714.6,578.1z"/>
		<path id="path4064" inkscape:connector-curvature="0" class="st1" d="M751.3,571.9c-0.1,7.6,3,13.2,10.5,13.2c4.4,0,8-2.3,8.6-7.6
			h6.9c-0.1,2.8-1.2,5.5-3.1,7.7c-1.6,1.8-5.2,4.9-12.6,4.9c-11.5,0-17-7.1-17-18.7c0-7.2,1.5-13.2,7.2-17.2c3.5-2.5,7.9-2.7,10-2.7
			c16.4,0,16,14.5,15.9,20.5L751.3,571.9z M770.6,567.1c0.1-3.5-0.6-10.8-9-10.8c-4.4,0-9.8,2.7-10,10.8H770.6z"/>
		<path id="path4066" inkscape:connector-curvature="0" class="st1" d="M787.6,557.3l-0.1-4.9h6.9v5.3c3.5-5.8,8.5-6.3,11.6-6.3
			c8.1,0,10.6,4.2,12,6.8c1.2-2,4.2-6.8,12.3-6.8c5.2,0,13.4,2.2,13.4,13V589h-6.9v-23.5c0-3.2-0.6-4.6-1.2-5.5
			c-1.7-2.2-4.3-3.4-7-3.2c-3.1-0.1-6,1.4-7.8,3.9c-1.6,2.3-1.6,6.3-1.6,7.9V589h-6.9v-24.2c0-4.5-2.6-8-8-8c-3.2,0-6.1,1.5-8,4
			c-1.5,2.1-1.6,5.1-1.6,7.4V589h-6.9L787.6,557.3z"/>
		<path id="path4068" inkscape:connector-curvature="0" class="st1" d="M860.6,571.9c-0.1,7.6,3,13.2,10.5,13.2c4.4,0,8-2.3,8.6-7.6
			h6.9c-0.1,2.8-1.2,5.5-3.1,7.7c-1.6,1.8-5.2,4.9-12.6,4.9c-11.5,0-17-7.1-17-18.7c0-7.2,1.5-13.2,7.2-17.2c3.5-2.5,7.9-2.7,10-2.7
			c16.4,0,16,14.5,15.9,20.5L860.6,571.9z M879.9,567.1c0.1-3.5-0.6-10.8-9-10.8c-4.4,0-9.8,2.7-10,10.8H879.9z"/>
		<path id="path4070" inkscape:connector-curvature="0" class="st1" d="M896.3,536.5h8.2v7.5h-8.2V536.5z M897,552.4h6.9V589H897
			L897,552.4z"/>
		<path id="path4072" inkscape:connector-curvature="0" class="st1" d="M933.1,551.5c14.7,0,17.9,11.5,17.9,19.2
			c0,10.7-6.1,19.6-18.5,19.6c-12.1,0-18-8.4-18-19.1C914.5,562.1,918.8,551.5,933.1,551.5L933.1,551.5z M932.7,585.1
			c5.2,0,11.1-3.7,11.1-14.7c0-9.1-4.2-13.9-10.6-13.9c-4.4,0-11.4,2.8-11.4,14.2C921.7,578.2,924.9,585.1,932.7,585.1L932.7,585.1z
			"/>
		<path id="path4074" inkscape:connector-curvature="0" class="st1" d="M965.7,578.1c-0.1,2.8,1.4,6.6,8,6.6c2.8,0,5-0.5,6.4-2.3
			c0.7-1,1.2-2.2,1.2-3.4c0-3.6-2.5-4.2-8-5.5c-7.7-1.7-14.1-3.3-14.1-10.9c0-6.7,5.8-11.1,14.3-11.1c4.6,0,11,1.3,13.2,5.7
			c0.7,1.7,1.1,3.5,0.9,5.3h-7c0.2-5.5-4.6-6-7.1-6c-1,0-7.4,0-7.4,5.3c0,3.4,3.3,4.2,5.2,4.7c10.1,2.4,12.3,3,14.5,5
			c1.8,1.8,2.8,4.2,2.8,6.8c0,3.7-1.9,7.2-5,9.3c-3.2,2-7.1,2.5-10.9,2.5c-7.4,0-14.4-3.1-14.3-11.9L965.7,578.1z"/>
		<path id="path4076" inkscape:connector-curvature="0" class="st1" d="M997.5,536.5h8.2v7.5h-8.2V536.5z M998.3,552.4h6.9V589h-6.9
			V552.4z"/>
		<path id="path4078" inkscape:connector-curvature="0" class="st1" d="M1022.4,578.1c-0.1,2.8,1.4,6.6,8,6.6c2.8,0,5-0.5,6.4-2.3
			c0.7-1,1.2-2.2,1.2-3.4c0-3.6-2.5-4.2-8-5.5c-7.7-1.7-14.1-3.3-14.1-10.9c0-6.7,5.8-11.1,14.3-11.1c4.6,0,11,1.3,13.2,5.7
			c0.7,1.7,1.1,3.5,0.9,5.3h-7c0.2-5.5-4.6-6-7.1-6c-1,0-7.4,0-7.4,5.3c0,3.4,3.3,4.2,5.2,4.7c10.1,2.4,12.3,3,14.5,5
			c1.8,1.8,2.8,4.2,2.8,6.8c0,3.7-1.9,7.2-5,9.3c-3.2,2-7.1,2.5-10.9,2.5c-7.4,0-14.4-3.1-14.3-11.9L1022.4,578.1z"/>
	</g>
</g>
</svg>
