<?xml version="1.0" encoding="utf-8"?>
<!-- Generator: Adobe Illustrator 23.0.6, SVG Export Plug-In . SVG Version: 6.00 Build 0)  -->
<svg version="1.1" id="Camada_1" xmlns="http://www.w3.org/2000/svg" xmlns:xlink="http://www.w3.org/1999/xlink" x="0px" y="0px"
	 viewBox="0 0 686 465" style="enable-background:new 0 0 686 465;" xml:space="preserve">
<style type="text/css">
	.st0{opacity:0.4;fill:#690000;}
	.st1{opacity:0.4;fill:none;stroke:#690000;stroke-miterlimit:10;}
</style>
<g>
	<path d="M58.5,178.6l1.8-9.7c7.1-0.6,12.2-1.5,15.4-2.8c3.2-1.3,5.2-3.8,6-7.5c0.8-3.7,1.2-9.5,1.2-17.5V42.7
		c-8.7,0.3-15.6,0.7-20.7,1.2c-5,0.5-8.8,1.7-11.2,3.4c-2.4,1.7-4.1,4.5-5.2,8.2c-1.1,3.8-2,9-2.9,15.6L32.3,72
		c0.6-4.4,1.1-8.9,1.6-13.5c0.5-4.7,0.8-9.2,1.1-13.7c0.3-4.4,0.5-8.4,0.7-11.9l2-1.8l18.7,2.5h70l19.2-2.5l2,1.8
		c0.1,3.5,0.4,7.4,0.7,11.9c0.3,4.4,0.7,8.9,1.2,13.4c0.5,4.5,1,8.8,1.5,12.9L140.5,72c-1.1-6.8-2.1-12.1-3.3-15.9
		c-1.1-3.8-2.9-6.6-5.2-8.4c-2.3-1.7-5.8-2.9-10.5-3.5c-4.7-0.6-11.1-1.1-19.2-1.6c-0.5,4.5-0.9,11-1.4,19.4
		c-0.5,8.4-0.8,17.9-1.1,28.3c-0.3,10.5-0.6,21.1-0.8,32c-0.2,10.8-0.3,20.9-0.3,30c0,5.6,1,9.5,2.9,11.9c2,2.3,5.3,3.5,9.9,3.5
		c4.5,0,8.7-0.2,12.4-0.7l0.7,0.9l-2,10.4c-3.2-0.2-6.9-0.3-11.1-0.3c-4.2-0.1-8.3-0.2-12.3-0.2c-4-0.1-7.3-0.1-9.8-0.1
		c-2.4,0-5.5,0-9.1,0.1c-3.7,0.1-7.5,0.2-11.3,0.3C65.2,178.3,61.7,178.5,58.5,178.6z"/>
	<path d="M150.4,232.1c-0.6,0-1.4-0.5-2.5-1.6c-1.1-1.1-2.1-2.3-3.3-3.7c-1.1-1.4-2.1-2.9-2.9-4.3c-0.8-1.4-1.2-2.5-1.2-3.3l1.1-1.6
		c8.7,0,16.7-3.6,23.9-10.7c7.2-7.2,13.4-16.9,18.5-29.2c-1.4-4.4-2.9-9.3-4.7-14.9c-1.8-5.6-3.7-11.4-5.8-17.5
		c-2-6.1-4.1-12.2-6.1-18.3c-2-6.1-4-11.9-6-17.5c-2-5.6-3.8-10.5-5.4-14.9c-1.5-3.9-3.5-6.7-6-8.2c-2.5-1.6-5.6-2.4-9.4-2.6
		l-0.5-0.9l1.4-7.5c4.8,0,8.7,0,11.7,0.1c3,0.1,5.3,0.1,7,0.1c3.3,0,6.6-0.1,9.8-0.2c3.2-0.1,6.1-0.3,8.7-0.6
		c2.6-0.2,5.4-0.5,8.6-0.8l0.5,1.1l-1.4,7c-5.1,0.2-8.5,0.6-10.3,1.5c-1.7,0.8-2.6,2.3-2.6,4.4c0,1.4,0.5,4,1.5,7.8
		c1,3.8,2.2,8.3,3.7,13.4c1.5,5.1,3.1,10.4,4.7,15.9c1.7,5.5,3.2,10.6,4.7,15.4c1.5,4.7,3.2,10,5.2,15.9h0.9
		c2.6-6.2,5.3-12.9,8.4-20.2c3-7.3,5.8-14.3,8.5-21.1c2.6-6.8,4.8-12.6,6.5-17.4c1.7-4.8,2.6-7.8,2.6-8.8c0-2.1-0.7-3.6-2-4.5
		s-3.5-1.4-6.5-1.4h-10.4l-0.5-0.9l1.4-7.5c4.7,0.3,8.8,0.5,12.3,0.7c3.5,0.2,7.1,0.2,10.7,0.2c2.7,0,5.5,0,8.5-0.1
		c2.9-0.1,6.5-0.1,10.7-0.1l-1.6,8.4c-3.3,0.6-5.8,1.8-7.6,3.6c-1.7,1.8-3.4,4.9-5.1,9.3l-28.7,68.6c-5.6,13.4-10.5,24.5-14.7,33.2
		c-4.2,8.7-8.2,15.6-11.9,20.5c-3.7,5-7.5,8.4-11.4,10.4C159.8,231.4,155.4,232.3,150.4,232.1z"/>
	<path d="M254.3,222.4c4.8-0.6,7.9-1.9,9.4-4c1.4-2,2.1-6.1,2.1-12.3c0-2.4,0-5.9,0.1-10.6c0.1-4.7,0.1-9.5,0.2-14.6
		c0.1-5,0.1-9.1,0.1-12.3v-67.3c0-5.1-0.8-8.7-2.5-10.7c-1.7-2-4.5-3-8.6-3h-2.5l-0.7-0.9l0.7-7.5c5.3-0.9,10.3-1.8,15.1-2.8
		c4.8-1,10.3-2.2,16.5-3.7l1.4,1.8c-1.2,5.1-2,9.2-2.3,12.2l0.9,1.6c6.6-4.7,12.2-8.3,16.8-10.8c4.6-2.6,7.7-3.8,9.4-3.8
		c8.7,0,16.3,2,22.8,6c6.5,4,11.6,9.6,15.2,16.7c3.7,7.2,5.5,15.5,5.5,25c0,8.1-1.5,15.8-4.4,22.9c-2.9,7.2-7,13.4-12.2,18.9
		c-5.2,5.4-11.2,9.7-18,12.8s-14,4.6-21.7,4.6c-1.8,0-4-0.1-6.5-0.2c-2.6-0.2-5.9-0.4-9.9-0.7c0,3.8,0,7.6,0.1,11.5
		c0.1,3.9,0.1,7.8,0.1,11.7c0,6.9,0.7,11.6,2.1,14.1c1.4,2.5,4.3,3.7,8.5,3.7c1.2,0,2.5,0,3.8-0.1c1.4-0.1,2.6-0.1,3.8-0.1l0.5,0.7
		l-1.8,8.6c-1.8,0-3.6,0-5.4,0s-3.6,0-5.3,0c-1.7,0-3.5,0-5.3,0c-1.8,0-3.6,0-5.4,0c-4.2,0-8.2,0.1-11.9,0.3
		c-3.7,0.2-7.7,0.6-12.1,1.2L254.3,222.4z M304.2,168c10.1,0,18-3.4,23.8-10.3c5.8-6.8,8.7-16.2,8.7-28.1c0-7.7-1.3-14.6-4-20.7
		c-2.6-6.1-6.2-11-10.7-14.6c-4.5-3.6-9.6-5.4-15.1-5.4c-3,0-6.7,1-11.1,3c-4.4,2-8.5,4.7-12.4,8c-0.3,6.2-0.6,12.9-0.9,20.3
		c-0.3,7.4-0.5,14.8-0.7,22.4c-0.2,7.5-0.2,14.5-0.2,21c3,1.2,6.6,2.2,10.7,3C296.5,167.6,300.5,168,304.2,168z"/>
	<path d="M414.2,180.4c-8.6,0-16.2-2.1-22.8-6.3c-6.6-4.2-11.8-10.1-15.5-17.7c-3.7-7.6-5.5-16.3-5.5-26.1c0-10.8,2.3-20.6,6.9-29.2
		c4.6-8.7,10.9-15.5,18.9-20.5c8-5,16.9-7.6,26.6-7.6c8.6,0,16.2,2.1,22.8,6.3c6.6,4.2,11.8,10.1,15.5,17.6
		c3.7,7.5,5.5,16.3,5.5,26.2c0,10.7-2.3,20.4-6.9,29.1c-4.6,8.7-10.8,15.6-18.7,20.7C433,177.9,424.1,180.4,414.2,180.4z
		 M420.5,169.4c8.4,0,15.1-3.4,20.1-10.3c5-6.8,7.5-16.1,7.5-27.9c0-9-1.4-17-4.1-23.9c-2.7-6.9-6.5-12.3-11.3-16.3
		c-4.8-3.9-10.4-5.9-16.7-5.9c-8.4,0-15.1,3.5-20.1,10.4c-5,6.9-7.5,16.3-7.5,28.2c0,9,1.4,17,4.1,23.8c2.7,6.9,6.5,12.2,11.3,16
		C408.6,167.4,414.2,169.4,420.5,169.4z"/>
	<path d="M74.8,424.4c-7.1,0-13.2-1.2-18.3-3.6c-5.1-2.4-9.1-5.9-11.9-10.4c-2.8-4.5-4.2-9.9-4.2-16c2.1-2.6,5.2-5.7,9.1-9.4
		c4-3.7,8.4-7.3,13.2-11v-1.4c-7.8-1.4-13.8-3.9-18-7.7c-4.1-3.8-6.4-8.6-6.7-14.5c2.7-2.6,5.6-5.1,8.8-7.6
		c3.2-2.5,6.5-4.8,10.2-6.9v-3.2l11.7,3.8c-4.7,2.4-8,4.6-10,6.4c-2,1.9-3,3.8-3,5.8c0,3,1.8,5.2,5.4,6.7c3.6,1.4,8.2,2.5,13.9,3.2
		c5.6,0.7,11.7,1.4,18.1,2.1c6.4,0.8,12.4,1.9,18.1,3.5c5.6,1.6,10.3,3.9,13.9,7c3.6,3.1,5.4,7.4,5.4,13c0,5-1.5,9.9-4.6,14.7
		c-3.1,4.8-7.3,9.1-12.6,12.9c-5.3,3.8-11.3,6.8-18,9C88.7,423.2,81.9,424.4,74.8,424.4z M78.2,340.4c-7.4,0-13.9-1.5-19.5-4.4
		c-5.6-2.9-10.1-7-13.3-12.2c-3.2-5.2-4.9-11.1-4.9-17.7c0-7.5,1.9-14.4,5.8-20.5c3.8-6.2,9-11.1,15.4-14.9
		c6.4-3.8,13.4-5.6,20.9-5.6c4.2,0,8.2,0.4,12.1,1.2c3.8,0.8,7.2,1.2,10,1.2c3-0.3,7.3-1.1,12.8-2.3c5.5-1.2,11.6-2.7,18.4-4.5
		l0.7,0.9l-2.5,12.6c-3.3,0.5-6.8,0.8-10.4,1.1c-3.6,0.3-6.6,0.6-9,0.9l-0.9,1.1c6,6.6,9,14.3,9,23c0,7.4-2,14.1-6,20.1
		c-4,6-9.3,10.8-16,14.5C94,338.6,86.5,340.4,78.2,340.4z M83.4,330.4c6.9,0,12.4-2.2,16.4-6.5c4-4.4,6-10.4,6-18.1
		c0-8.7-2.4-15.8-7.2-21.2c-4.8-5.4-11.1-8.1-18.7-8.1c-6.9,0-12.4,2.3-16.4,6.8c-4,4.5-6,10.6-6,18.3c0,8.6,2.4,15.5,7.2,20.9
		C69.5,327.8,75.7,330.4,83.4,330.4z M82.5,413.3c5.9,0,11.4-1,16.5-3c5.1-2,9.3-4.8,12.4-8.2c3.2-3.5,4.7-7.2,4.7-11.1
		c0-3-1.1-5.4-3.4-7.2c-2.3-1.8-6.5-3.4-12.8-4.9c-6.2-1.4-15.4-2.9-27.4-4.4c-4.5,3.2-8,6.7-10.4,10.5c-2.4,3.8-3.6,7.6-3.6,11.4
		c0,5.1,2.2,9.2,6.5,12.3C69.5,411.8,75.3,413.3,82.5,413.3z"/>
	<path d="M153.2,361.6c4.5-0.5,7.5-1.9,9-4.4c1.5-2.5,2.3-7.3,2.3-14.3v-49.7c0-5-0.7-8.5-2-10.6c-1.4-2.1-3.5-3.2-6.5-3.2
		c-1.2,0-2.8,0.2-4.7,0.7l-1.1-1.6l0.7-7c4.7-0.9,9.3-1.9,14-2.9c4.7-1.1,10.2-2.3,16.5-3.8l1.6,1.4c-0.8,4.8-1.3,9-1.6,12.5
		c-0.3,3.5-0.5,7.1-0.5,10.7l0.9,0.7c4.7-7.1,10-12.9,16-17.4c6-4.5,11.3-6.8,15.8-6.8c2.6,0,4.9,0.3,7,0.9l0.7,0.9
		c-0.6,4.1-1.1,7.7-1.6,11c-0.5,3.2-0.9,6.7-1.2,10.5c-0.4,3.8-0.6,7.4-0.8,10.8l-8.8,0.7c0-6.2-0.4-10.3-1.1-12.3c-0.8-2-2.4-3-5-3
		c-3.3,0-6.9,1.4-10.6,4.1c-3.8,2.7-7.2,6.5-10.4,11.3c-0.3,5.6-0.5,10.5-0.7,14.7c-0.2,4.2-0.3,8.5-0.5,13
		c-0.2,4.4-0.3,8.4-0.5,11.7c-0.2,3.4-0.2,5.6-0.2,6.7c0,5.1,0.8,8.6,2.3,10.4c1.5,1.8,4.4,2.7,8.6,2.7c1.7,0,5-0.1,9.9-0.5l0.2,0.9
		l-2,9.9c-3-0.2-5.7-0.2-8.1-0.2c-2.4,0-4.9,0-7.6-0.1c-2.6-0.1-5.1-0.1-7.3-0.1c-4.4,0-8.4,0.1-12,0.2c-3.6,0.1-7.5,0.4-11.7,0.7
		L153.2,361.6z"/>
	<path d="M308.1,372.4c-6,0-10.7-1.5-14.1-4.6c-3.4-3.1-5.4-7.6-6-13.7l-0.9-0.2c-3.6,3.6-7,6.7-10.3,9.4c-3.2,2.6-6.1,4.7-8.6,6.1
		c-2.5,1.4-4.5,2.1-6,2.1c-5.6,0-10.5-1.2-14.9-3.6c-4.4-2.4-7.8-5.7-10.3-9.9c-2.5-4.2-3.7-9-3.7-14.5c0-4.4,1.1-8.2,3.3-11.5
		c2.2-3.3,5.1-5.5,8.7-6.5l42.9-11.7l0.2-9.9c0-7.5-1.7-13.4-5.2-17.6c-3.5-4.2-8.4-6.3-14.7-6.3c-4.2,0-8.7,1-13.3,2.9
		c-4.7,2-9.3,4.7-13.8,8.4l-1.1-0.7l-2.7-9.7c3.9-2.3,8.3-4.6,13.1-7.1c4.8-2.5,9.4-4.6,13.8-6.2c4.4-1.7,7.7-2.5,9.9-2.5
		c6.6,0,12.3,1.2,16.9,3.5c4.7,2.3,8.2,5.6,10.7,9.9s3.7,9.5,3.7,15.7c0,2-0.2,5.1-0.6,9.5c-0.4,4.4-0.9,9.2-1.5,14.6
		c-0.6,5.3-1.1,10.5-1.5,15.5c-0.4,5-0.6,9.1-0.6,12.4c0,3.3,0.8,5.9,2.5,7.7c1.7,1.8,3.9,2.7,6.8,2.7c2.6,0,5.1-0.6,7.7-1.9
		c2.6-1.3,4.5-2.5,5.9-3.7l3.2,3.6c-1.2,2-2.8,4.2-4.9,6.7c-2,2.5-4.3,4.8-6.8,6.9C313.6,370,310.9,371.5,308.1,372.4z M266.1,356.2
		c2.9,0,6.2-1,10-3c3.8-2,7.3-4.6,10.5-7.8l1.1-23l-30.7,9.3c-4.4,1.4-6.5,4.5-6.5,9.5c0,4.2,1.5,7.8,4.4,10.7
		S261.6,356.2,266.1,356.2z"/>
	<path d="M340.6,414.4c4.8-0.6,7.9-1.9,9.4-4c1.4-2,2.1-6.1,2.1-12.3c0-2.4,0-5.9,0.1-10.6c0.1-4.7,0.1-9.5,0.2-14.6
		c0.1-5,0.1-9.1,0.1-12.3v-67.3c0-5.1-0.8-8.7-2.5-10.7c-1.7-2-4.5-3-8.6-3H339l-0.7-0.9l0.7-7.5c5.3-0.9,10.3-1.8,15.1-2.8
		c4.8-1,10.3-2.2,16.5-3.7l1.4,1.8c-1.2,5.1-2,9.2-2.3,12.2l0.9,1.6c6.6-4.7,12.2-8.3,16.8-10.8c4.6-2.6,7.7-3.8,9.4-3.8
		c8.7,0,16.3,2,22.8,6c6.5,4,11.6,9.6,15.2,16.7c3.7,7.2,5.5,15.5,5.5,25c0,8.1-1.5,15.8-4.4,22.9c-2.9,7.2-7,13.4-12.2,18.9
		c-5.2,5.4-11.2,9.7-18,12.8s-14,4.6-21.7,4.6c-1.8,0-4-0.1-6.5-0.2c-2.6-0.2-5.9-0.4-9.9-0.7c0,3.8,0,7.6,0.1,11.5
		c0.1,3.9,0.1,7.8,0.1,11.7c0,6.9,0.7,11.6,2.1,14.1c1.4,2.5,4.3,3.7,8.5,3.7c1.2,0,2.5,0,3.8-0.1c1.4-0.1,2.6-0.1,3.8-0.1l0.5,0.7
		l-1.8,8.6c-1.8,0-3.6,0-5.4,0s-3.6,0-5.3,0c-1.7,0-3.5,0-5.3,0s-3.6,0-5.4,0c-4.2,0-8.2,0.1-11.9,0.3c-3.7,0.2-7.7,0.6-12.1,1.2
		L340.6,414.4z M390.5,360c10.1,0,18-3.4,23.8-10.3c5.8-6.8,8.7-16.2,8.7-28.1c0-7.7-1.3-14.6-4-20.7c-2.6-6.1-6.2-11-10.7-14.6
		c-4.5-3.6-9.6-5.4-15.1-5.4c-3,0-6.7,1-11.1,3c-4.4,2-8.5,4.7-12.4,8c-0.3,6.2-0.6,12.9-0.9,20.3c-0.3,7.4-0.5,14.8-0.7,22.4
		c-0.2,7.5-0.2,14.5-0.2,21c3,1.2,6.6,2.2,10.7,3C382.8,359.6,386.7,360,390.5,360z"/>
	<path d="M456.4,360.9c4.4-0.5,7.4-1.6,9.1-3.4c1.7-1.8,2.6-4.8,2.6-9V228.4c0-4.1-0.6-7-1.9-8.9c-1.3-1.9-3.4-2.8-6.4-2.8h-4.7
		l-0.9-0.7l0.9-7.2c3.5-0.5,7.3-1.1,11.4-1.8c4.1-0.8,8.2-1.5,12.1-2.4c3.9-0.8,7.2-1.6,9.9-2.4l1.4,2.9c-0.6,1.1-1.3,5-2,12
		c-0.8,6.9-1.4,16-1.9,27.3c-0.5,11.3-1,24-1.5,38.2c1.1-0.8,3-2.1,5.8-4c2.8-1.9,5.9-3.9,9.5-6c3.5-2.1,7-3.9,10.4-5.4
		c3.4-1.5,6.1-2.3,8.2-2.3c9.8,0,17.4,2.5,22.8,7.6c5.4,5,8.1,12.2,8.1,21.6c0,2-0.2,5.2-0.6,9.7c-0.4,4.5-0.8,9.6-1.2,15.1
		c-0.5,5.6-0.9,10.9-1.2,16c-0.4,5.1-0.6,9.3-0.6,12.6c0,4.4,0.6,7.6,1.8,9.6c1.2,2,3.2,3,6.1,3c0.9,0,2.1,0,3.7-0.1
		c1.6-0.1,3-0.2,4.2-0.3l0.5,0.9l-1.8,9.7c-2.4-0.2-5.6-0.3-9.6-0.5c-4-0.2-7.5-0.2-10.5-0.2c-1.8,0-4,0.1-6.5,0.3
		c-2.6,0.2-5.3,0.5-8.1,0.9c-2.9,0.4-5.7,0.9-8.6,1.5l0.9-9.3c4.5-1.2,7.8-3,9.7-5.3c2-2.3,2.9-5.5,2.9-9.4l1.4-44.7
		c0-7.5-1.6-13.3-4.9-17.4c-3.2-4.1-7.9-6.1-13.9-6.1c-3.8,0-8.4,1.2-13.9,3.6c-5.5,2.4-10.4,5.3-14.8,8.8
		c-0.2,5.6-0.3,11.4-0.3,17.4c-0.1,6-0.2,12.2-0.2,18.4c-0.1,6.2-0.1,12.6-0.1,19.1c0,4.7,0.6,7.9,1.9,9.8c1.3,1.9,3.3,2.8,6.2,2.8
		c0.9,0,2.1,0,3.7-0.1c1.6-0.1,3-0.2,4.2-0.3l0.5,0.9l-2,9.7c-2.6-0.2-5.9-0.3-9.9-0.5c-4.1-0.2-7.6-0.2-10.6-0.2
		c-3.2,0-6.9,0-11.2,0.1c-4.3,0.1-8,0.2-11.2,0.3L456.4,360.9z"/>
	<path d="M573,424.1c-0.6,0-1.4-0.5-2.5-1.6c-1.1-1.1-2.1-2.3-3.3-3.7c-1.1-1.4-2.1-2.9-2.9-4.3c-0.8-1.4-1.2-2.5-1.2-3.3l1.1-1.6
		c8.7,0,16.7-3.6,23.9-10.7c7.2-7.2,13.4-16.9,18.5-29.2c-1.4-4.4-2.9-9.3-4.7-14.9c-1.8-5.6-3.7-11.4-5.8-17.5
		c-2-6.1-4.1-12.2-6.1-18.3s-4-11.9-6-17.5c-2-5.6-3.8-10.5-5.4-14.9c-1.5-3.9-3.5-6.7-6-8.2c-2.5-1.6-5.6-2.4-9.4-2.6l-0.5-0.9
		l1.4-7.5c4.8,0,8.7,0,11.7,0.1c3,0.1,5.3,0.1,7,0.1c3.3,0,6.6-0.1,9.8-0.2c3.2-0.1,6.1-0.3,8.7-0.6c2.6-0.2,5.4-0.5,8.6-0.8
		l0.5,1.1l-1.4,7c-5.1,0.2-8.5,0.6-10.3,1.5c-1.7,0.8-2.6,2.3-2.6,4.4c0,1.4,0.5,4,1.5,7.8c1,3.8,2.2,8.3,3.7,13.4
		c1.5,5.1,3.1,10.4,4.7,15.9c1.7,5.5,3.2,10.6,4.7,15.4c1.5,4.7,3.2,10,5.2,15.9h0.9c2.6-6.2,5.3-12.9,8.4-20.2
		c3-7.3,5.8-14.3,8.5-21.1c2.6-6.8,4.8-12.6,6.5-17.4c1.7-4.8,2.6-7.8,2.6-8.8c0-2.1-0.7-3.6-2-4.5c-1.4-0.9-3.5-1.4-6.5-1.4H624
		l-0.5-0.9l1.4-7.5c4.7,0.3,8.8,0.5,12.3,0.7c3.5,0.2,7.1,0.2,10.7,0.2c2.7,0,5.5,0,8.5-0.1c2.9-0.1,6.5-0.1,10.7-0.1l-1.6,8.4
		c-3.3,0.6-5.8,1.8-7.6,3.6c-1.7,1.8-3.4,4.9-5.1,9.3l-28.7,68.6c-5.6,13.4-10.5,24.5-14.7,33.2c-4.2,8.7-8.2,15.6-11.9,20.5
		c-3.7,5-7.5,8.4-11.4,10.4C582.4,423.4,577.9,424.3,573,424.1z"/>
</g>
<g>
	<circle class="st0" cx="557" cy="361" r="19"/>
	<circle class="st0" cx="527" cy="268" r="19"/>
	<circle class="st0" cx="250" cy="294" r="19"/>
	<circle class="st0" cx="101" cy="414" r="19"/>
	<circle class="st0" cx="395" cy="36" r="19"/>
	<circle class="st0" cx="63" cy="330" r="19"/>
	<circle class="st0" cx="128" cy="261" r="19"/>
	<circle class="st0" cx="55" cy="169" r="19"/>
	<circle class="st0" cx="360" cy="414" r="34"/>
	<line class="st1" x1="395" y1="34" x2="441" y2="226"/>
</g>
</svg>
