<svg xmlns="http://www.w3.org/2000/svg" viewBox="0 0 1080 1080"><defs><style>.cls-1{fill:#ffcdab;}</style></defs><g id="Camada_1" data-name="Camada 1"><path class="cls-1" d="M72.1,196.34c29.35,0,42.87,17.75,42.87,41.18,0,32.36-21,42.15-42.87,42.15H49.28V196.34ZM61.72,205.4v65.21h10.5c18.36,0,29.59-11.35,29.59-33.09,0-18.84-9.06-32.12-29.59-32.12Z"/><path class="cls-1" d="M142,240.42v29.83h37.08v9.05H129.57V196.58h48.67v9.06H142v25.72H172.2v9.06Z"/><path class="cls-1" d="M195.26,255c1.09,12.08,10.27,16.67,20.41,16.67,9.54,0,17.15-3.39,17.15-13.41,0-9.54-7.61-12.56-19.93-16.18-12.92-3.74-21.49-9.9-21.49-23.67,0-14.49,11.11-23.06,26.81-23.06,16.3,0,26.56,8.57,25.48,23.18h-6.52c-.61-9.18-8.09-14.13-17.39-14.13s-15.58,4.23-15.58,13c0,8.21,7.61,11.47,19.2,14.73,14.13,4,22.7,10.74,22.7,24.75,0,15.58-12.56,23.91-28.5,23.91-17.75,0-29-8.69-29-25.84Z"/><path class="cls-1" d="M273.63,196.34v83.33H261.19V196.34Z"/><path class="cls-1" d="M327,195.38c21.26,0,28,15,27.3,22.58h-6.41c-.6-2.9-5.79-11.84-19.44-11.84-14.37,0-26.32,11.11-26.32,33,0,20.77,10.26,32.12,25.72,32.12,11.83,0,15.94-5.55,17.39-8.09V247.3h-14v-9.06h25.24v26.57c-4,6.77-11.84,16.06-29.59,16.06-22.94,0-38-14.61-38-42.5C288.84,210,306.84,195.38,327,195.38Z"/><path class="cls-1" d="M434,280.27H424l-42.5-64.12v63.52h-9.78V196.34h12.19l40.22,61.23V196.34H434Z"/><path class="cls-1" d="M86.35,317.09c27.05,0,34.3,15.7,34.3,30.07,0,25.36-22.34,53.26-56.4,53.26H45.05V386.17c0-24.16,14.73-50.24,21.74-69.08ZM60.87,394.14c20.05,0,30.8-5.8,38.52-27.9,6.16-17.63,7.61-19.08,7.61-26.32,0-8-4.83-16.67-19.92-16.67H73.67a295.78,295.78,0,0,1-10.26,42l-9.3,28.86Z"/><path class="cls-1" d="M170,401.62c-8.58,0-25.48-3.14-34.18-4.1a69.47,69.47,0,0,1-1.57-15.46c0-23.91,17.64-46.13,23.55-65l31.88,1.69c6.52.36,9.42-.6,10.87-2.53h1.33c0,9.9-4.23,12.55-11,12.55-9.42,0-22.46-4-29.1-5.43-.85,7.85-3.26,19.08-6.16,29.59h28.62l-1.81,6.64H153.73L143.1,391.48H167c8.82,0,15.34-1.33,16.79-5.07h2.29C185.12,395.22,179.93,401.62,170,401.62Z"/><path class="cls-1" d="M254.55,315.88c14.26,0,19.93,7.13,19.93,16.06,0,7.25-4.71,13.05-11.71,13.05a9.75,9.75,0,0,1-4.71-1.09v-2.78c6.4-1,8.69-4.83,8.69-10s-3.74-9.18-12.32-9.18c-10.38,0-14.73,4.59-17.26,9.78-3.39,7-5,13.89-9.18,25.24-7,17.39-11.84,17.75-11.84,26.09,0,6.15,3.39,12,17,12,16.06,0,23.67-9.06,25.36-21.25h5.92c0,16.18-12.44,27.89-31.88,27.89-16.79,0-27.66-8.09-27.66-25.84C204.92,347.76,226.78,315.88,254.55,315.88Z"/><path class="cls-1" d="M358.52,345.11c0,22.82-20,56.39-47.46,56.39-20.41,0-27.65-10.87-27.65-29.1,0-22.7,20.17-56.4,48.18-56.4C351,316,358.52,328.32,358.52,345.11Zm-11-9.78c0-8.58-7.12-13.29-16.66-13.29-16.55,0-20.77,17.15-27.17,35-5.32,14.62-9.06,18.84-9.06,25.12,0,8.21,5.8,13.29,16.3,13.29,17.88,0,22.22-16.19,27.9-35C343.79,345.83,347.53,341.73,347.53,335.33Z"/><path class="cls-1" d="M372.28,382.06c0-23.91,18.23-46.13,24.15-65h4c0,8.69-4.47,30.55-9.66,46l-9.54,28.26h22.1c8.81,0,15.33-1.81,16.78-5.56h2.3c-1,8.82-6,15.82-15.94,15.82-8.58,0-23.19-3.5-32.61-4.1A68.88,68.88,0,0,1,372.28,382.06Z"/><path class="cls-1" d="M509.82,345.11c0,22.82-20.05,56.39-47.46,56.39-20.41,0-27.65-10.87-27.65-29.1,0-22.7,20.16-56.4,48.18-56.4C502.33,316,509.82,328.32,509.82,345.11Zm-11-9.78c0-8.58-7.13-13.29-16.66-13.29-16.55,0-20.78,17.15-27.18,35-5.31,14.62-9.05,18.84-9.05,25.12,0,8.21,5.79,13.29,16.3,13.29,17.87,0,22.22-16.19,27.89-35C495.09,345.83,498.83,341.73,498.83,335.33Z"/><path class="cls-1" d="M567.65,400.54c-1.44-10.51-17.38-39.37-21.13-63.88l-19.8,63.76H524.3a50.87,50.87,0,0,1-2.53-15.34c0-21.13,17.14-40.46,26.56-68h3c4.95,18.24,17,42.15,22.22,65.33l20.17-65.33H596a40.39,40.39,0,0,1,3.14,16.06c0,16.55-14.85,36.47-28.62,67.39Z"/><path class="cls-1" d="M617.64,400.42h-3.86a65.29,65.29,0,0,1-2.3-18.36c0-24.39,16.91-43.23,24.16-65h4.22c0,4.71-2.17,23.55-10.14,47.34Z"/><path class="cls-1" d="M652.17,400.42c-3.5-4.23-6.64-9.42-6.64-15.46,0-14.49,12.56-28.5,28.14-43.23l26.69-25.12h5.55a51.26,51.26,0,0,1,5.8,24.51c0,18.24-11.23,38.16-17.51,59.3h-4.83c0-8.94,1.81-20.41,3.38-29.47H662.44c-3.5,8.33-5.19,17.63-5.92,29.47ZM665.34,365h28.38l6.64-39.49L682,344.14C674.64,351.51,669.2,358.15,665.34,365Z"/><path class="cls-1" d="M727.4,382.06c0-23.91,18.24-46.13,24.15-65h4c0,8.69-4.47,30.55-9.66,46l-9.54,28.26h22.09c8.82,0,15.34-1.81,16.79-5.56h2.3c-1,8.82-6,15.82-15.95,15.82-8.57,0-23.18-3.5-32.6-4.1A68.88,68.88,0,0,1,727.4,382.06Z"/><path class="cls-1" d="M796.83,386.89a7.29,7.29,0,0,1,7.25,7.37c0,4.22-2.9,7.48-7.25,7.48a7.29,7.29,0,0,1-7.61-7.6A7.21,7.21,0,0,1,796.83,386.89Zm9.78-42.39a7.29,7.29,0,0,1,7.25,7.37c0,4.23-2.9,7.49-7.25,7.49a7.3,7.3,0,0,1-7.61-7.61A7.21,7.21,0,0,1,806.61,344.5Z"/><path class="cls-1" d="M80.8,522.37c-8.58,0-25.48-3.13-34.18-4.1a68.88,68.88,0,0,1-1.57-15.46c0-23.91,17.63-46.13,23.55-65l31.88,1.69c6.52.36,9.42-.6,10.87-2.53h1.33c0,9.9-4.23,12.55-11,12.55-9.42,0-22.46-4-29.11-5.43-.84,7.85-3.26,19.08-6.15,29.59H95.05l-1.81,6.64H64.49L53.87,512.23H77.78c8.81,0,15.33-1.33,16.78-5.07h2.3C95.89,516,90.7,522.37,80.8,522.37Z"/><path class="cls-1" d="M160.37,521.29c-1.45-10.51-17.39-39.37-21.13-63.88l-19.81,63.76H117a50.85,50.85,0,0,1-2.54-15.34c0-21.13,17.15-40.45,26.57-68h3c5,18.24,17,42.15,22.22,65.33l20.17-65.33h2.29a40.57,40.57,0,0,1,3.14,16.06c0,16.55-14.86,36.47-28.62,67.39Z"/><path class="cls-1" d="M206.73,493.15c-1.44,12.2,0,22.82,15.58,22.82,14.37,0,19.33-8,19.33-16.18,0-9.18-6.65-11.35-15.46-15.58-9.3-4.47-15-8.21-15-21.13,0-13.16,11.35-26.45,32-26.45,13.28,0,20.4,6.77,20.4,16.19a17.64,17.64,0,0,1-2.17,8.57H256c1.45-7.61,2.3-18.36-13.52-18.36-15.1,0-19.2,8.22-19.2,15.22,0,9.18,5.19,11.11,13.77,14,9.66,3.38,18.11,7.36,18.11,21.49,0,13.41-10.63,28.62-33.09,28.62-17.75,0-23.07-9.9-23.07-19a19.32,19.32,0,0,1,2.78-10.26Z"/><path class="cls-1" d="M282,521.17H278.1a65.29,65.29,0,0,1-2.3-18.36c0-24.39,16.91-43.23,24.15-65h4.23c0,4.71-2.17,23.55-10.14,47.34Z"/><path class="cls-1" d="M359.24,521.29c-1.45-10.51-17.39-39.37-21.13-63.88l-19.8,63.76h-2.42a50.85,50.85,0,0,1-2.54-15.34c0-21.13,17.15-40.45,26.57-68h3c4.95,18.24,17,42.15,22.22,65.33l20.17-65.33h2.29a40.57,40.57,0,0,1,3.14,16.06c0,16.55-14.85,36.47-28.62,67.39Z"/><path class="cls-1" d="M477.82,465.86c0,22.82-20,56.39-47.46,56.39-20.41,0-27.65-10.87-27.65-29.1,0-22.7,20.17-56.4,48.18-56.4C470.33,436.75,477.82,449.07,477.82,465.86Zm-11-9.78c0-8.58-7.12-13.29-16.66-13.29-16.55,0-20.77,17.15-27.17,35-5.32,14.62-9.06,18.84-9.06,25.12,0,8.21,5.8,13.29,16.3,13.29,17.87,0,22.22-16.19,27.9-35C463.09,466.58,466.83,462.48,466.83,456.08Z"/><path class="cls-1" d="M546.65,437.84c29.35,0,42.87,17.75,42.87,41.18,0,32.36-21,42.15-42.87,42.15H523.83V437.84Zm-10.38,9.06v65.21h10.5c18.36,0,29.59-11.35,29.59-33.09,0-18.84-9.06-32.12-29.59-32.12Z"/><path class="cls-1" d="M616.56,481.92v29.83h37.08v9H604.12V438.08h48.67v9.06H616.56v25.72h30.19v9.06Z"/><path class="cls-1" d="M72.1,558.59c29.35,0,42.87,17.75,42.87,41.18,0,32.36-21,42.15-42.87,42.15H49.28V558.59Zm-10.38,9.06v65.21h10.5c18.36,0,29.59-11.35,29.59-33.09,0-18.84-9.06-32.12-29.59-32.12Z"/><path class="cls-1" d="M142,602.67V632.5h37.08v9H129.57V558.83h48.67v9.06H142v25.72H172.2v9.06Z"/><path class="cls-1" d="M195.26,617.28c1.09,12.08,10.27,16.67,20.41,16.67,9.54,0,17.15-3.39,17.15-13.41,0-9.54-7.61-12.56-19.93-16.18-12.92-3.74-21.49-9.9-21.49-23.67,0-14.49,11.11-23.06,26.81-23.06,16.3,0,26.56,8.57,25.48,23.18h-6.52c-.61-9.18-8.09-14.13-17.39-14.13s-15.58,4.23-15.58,13.05c0,8.21,7.61,11.47,19.2,14.73,14.13,4,22.7,10.74,22.7,24.75,0,15.58-12.56,23.91-28.5,23.91-17.75,0-29-8.69-29-25.84Z"/><path class="cls-1" d="M273.63,558.59v83.33H261.19V558.59Z"/><path class="cls-1" d="M327,557.63c21.26,0,28,15,27.3,22.58h-6.41c-.6-2.9-5.79-11.84-19.44-11.84-14.37,0-26.32,11.11-26.32,33,0,20.77,10.26,32.12,25.72,32.12,11.83,0,15.94-5.55,17.39-8.09V609.55h-14v-9.06h25.24v26.57c-4,6.77-11.84,16.06-29.59,16.06-22.94,0-38-14.61-38-42.5C288.84,572.24,306.84,557.63,327,557.63Z"/><path class="cls-1" d="M434,642.52H424l-42.5-64.12v63.52h-9.78V558.59h12.19l40.22,61.23V558.59H434Z"/><path class="cls-1" d="M548.63,642.52h-10L496.1,578.4v63.52h-9.78V558.59h12.19l40.22,61.23V558.59h9.9Z"/><path class="cls-1" d="M600.91,557.63c19.08,0,37.19,12.92,37.19,41.66,0,27.05-14.25,43.83-37.19,43.83-20.53,0-37.68-13.64-37.68-42.75C563.23,573.93,578.57,557.63,600.91,557.63Zm1.33,11c-15,0-25.72,11.84-25.72,31.76,0,22.71,12.68,32.49,25.72,32.49,13.89,0,24.75-11.47,24.75-33.09C627,578.88,614.92,568.61,602.24,568.61Z"/><path class="cls-1" d="M74.76,679.34c16.42,0,28.38,5.56,28.38,21,0,12.08-8.33,17.15-18.48,19.08C97.82,721,107,726.56,107,740c0,16.19-12.56,22.71-27.29,22.71H49.28V679.34Zm-13,9.06v27.05H72c9.42,0,18.84-2.42,18.84-13.4,0-10.63-7.61-13.65-18.11-13.65Zm0,35.74v29.47H76.93c9.3,0,17.75-3.38,17.75-14.85,0-11-8.33-14.62-19-14.62Z"/><path class="cls-1" d="M174.14,763.51c-10.39,0-12.56-5.43-13.41-22.1-.6-11.35-4.83-15-14.61-15H134.53v36.23H122.09V679.34H149c16.42,0,28.5,6.52,28.5,21.5,0,13-8.82,19.2-20.05,21,9.9,1.21,16.3,6.52,16.67,19,.48,13,1,16.18,5.55,16.18a5.62,5.62,0,0,0,3-.84l1.09,2.53A11.26,11.26,0,0,1,174.14,763.51ZM134.53,688.4v29.34h11.35c9.3,0,19.32-3.62,19.32-14.61,0-10.38-7.85-14.73-18.36-14.73Z"/><path class="cls-1" d="M192,762.67l29.71-83.45h12.92l28,83.45H248l-7-22.34H210l-7.73,22.34Zm46.25-31.4L226.18,693,213,731.27Z"/><path class="cls-1" d="M276.28,738c1.09,12.08,10.27,16.67,20.41,16.67,9.54,0,17.15-3.39,17.15-13.41,0-9.54-7.61-12.56-19.92-16.18-12.93-3.74-21.5-9.9-21.5-23.67,0-14.49,11.11-23.06,26.81-23.06,16.3,0,26.57,8.57,25.48,23.18h-6.52c-.6-9.18-8.09-14.13-17.39-14.13s-15.58,4.23-15.58,13.05c0,8.21,7.61,11.47,19.2,14.73,14.13,4,22.7,10.74,22.7,24.75,0,15.58-12.55,23.91-28.49,23.91-17.76,0-29-8.69-29-25.84Z"/><path class="cls-1" d="M355.38,679.34v83.33H342.94V679.34Z"/><path class="cls-1" d="M387.74,679.34V753h37.68v9.3H375.3v-83Z"/><path class="cls-1" d="M485.87,723.42v29.83H523v9.06H473.43V679.58H522.1v9.06H485.87v25.72h30.19v9.06Z"/><path class="cls-1" d="M58.21,813.13c.37,2.06,4.59,1.81,4.59,7.13,0,3.5-2.53,6.4-6.76,6.4-4.47,0-6.52-3.38-6.52-7.13,0-7.73,5.8-18.11,19.2-21.85l1.33,3.26C62.68,804,58.33,808.91,58.21,813.13Zm22,0c.36,2.06,4.59,1.81,4.59,7.13,0,3.5-2.54,6.4-6.76,6.4-4.47,0-6.52-3.38-6.52-7.13,0-7.73,5.79-18.11,19.2-21.85L92,800.94C84.66,804,80.31,808.91,80.19,813.13Z"/><path class="cls-1" d="M96.49,883.42a71.78,71.78,0,0,1-2.29-18.36c0-23.91,17.63-46.13,23.54-65l30.31,1.69c6.53.36,9.42-.6,10.87-2.53h1.33c0,9.9-4.22,12.55-11,12.55-9.42,0-20.89-4-27.53-5.43-.85,7.85-3.74,21.13-6.64,31.64H142.5l-1.81,6.64H113.15c-.36,1.21-.72,2.42-12.67,38.77Z"/><path class="cls-1" d="M182.83,800.09h5.31c-.48,7.13-2.54,15.94-5.56,25.72l-7,22.34c-2.41,7.85-4.1,14.5-3.86,19.57.12,6.88,3.5,10.87,12.07,10.87,14.25,0,22.83-9.79,28.74-35.39l9.91-43.11h4.47a109.4,109.4,0,0,1,3,23.31c0,25-16.9,61.22-46.13,61.22-16.42,0-25.84-8.57-25.84-23.91C158,838.49,173.29,824.85,182.83,800.09Z"/><path class="cls-1" d="M286.07,810.11l-22.83,73.31H259a66.66,66.66,0,0,1-2.66-16.79c0-19.93,15.7-40.69,22.1-56.52h-18c-8,0-10.87.24-13.89,4.59h-2.9c1.09-6.64,5.2-15.45,21.38-15.45,12.8,0,30.43,3.62,40.69,3.62,3.51,0,9.78.48,11.72-3.74h3c-1,6.52-6.28,11-20.65,11Z"/><path class="cls-1" d="M337.14,800.09h5.32c-.49,7.13-2.54,15.94-5.56,25.72l-7,22.34c-2.42,7.85-4.11,14.5-3.87,19.57.12,6.88,3.5,10.87,12.08,10.87,14.25,0,22.82-9.79,28.74-35.39l9.9-43.11h4.47a108.75,108.75,0,0,1,3,23.31c0,25-16.91,61.22-46.13,61.22-16.42,0-25.84-8.57-25.84-23.91C312.27,838.49,327.6,824.85,337.14,800.09Z"/><path class="cls-1" d="M436.52,871.82c0-7.36,4.47-12.07,4.47-18.59,0-7-4.47-10.39-13.89-10.39h-9.54L404,883.42h-4a65.53,65.53,0,0,1-2.29-18.36c0-24.51,16.06-44.44,22.46-65,3.86,0,15-.6,20.89-.6,15.82,0,26.2,6.4,26.2,18.11,0,15.46-14.85,21.38-31.76,22.7,14.74,1.57,19.57,7.25,19.57,15.46,0,8.82-9.18,14.73-9.18,20.17,0,2.41,1.69,3.86,5.44,4.35l-1,3.14C441.23,883.42,436.52,879.19,436.52,871.82Zm-17.27-35.38h7.37c14,0,19.8-1.93,23.55-10.38,2.78-6.16,4-8.22,4-11.48,0-5.19-3.26-8.93-15.82-8.93a104,104,0,0,0-12.19.84C424.81,814.34,421.91,825.81,419.25,836.44Z"/><path class="cls-1" d="M479,883.42c-3.5-4.23-6.64-9.42-6.64-15.46,0-14.49,12.56-28.5,28.14-43.23l26.68-25.12h5.56a51.37,51.37,0,0,1,5.8,24.51c0,18.24-11.23,38.16-17.51,59.3h-4.84c0-8.94,1.82-20.41,3.39-29.47H489.28c-3.5,8.33-5.19,17.63-5.91,29.47ZM492.18,848h28.38l6.64-39.49-18.35,18.6C501.48,834.51,496.05,841.15,492.18,848Z"/><path class="cls-1" d="M554.25,865.06c0-23.91,18.23-46.13,24.15-65h4c0,8.7-4.47,30.55-9.66,46l-9.54,28.26h22.1c8.82,0,15.34-1.81,16.79-5.56h2.29c-1,8.82-6,15.82-15.94,15.82-8.57,0-23.19-3.5-32.6-4.1A68.88,68.88,0,0,1,554.25,865.06Z"/><path class="cls-1" d="M626.21,883.42h-3.86a65.29,65.29,0,0,1-2.3-18.36c0-24.39,16.91-43.23,24.15-65h4.23c0,4.71-2.17,23.55-10.14,47.34Z"/><path class="cls-1" d="M700.72,800.09c27,0,34.29,15.7,34.29,30.07,0,25.36-22.34,53.26-56.39,53.26h-19.2V869.17c0-24.16,14.73-50.24,21.73-69.08Zm-25.48,77c20,0,30.79-5.8,38.52-27.9,6.16-17.63,7.61-19.08,7.61-26.32,0-8-4.83-16.67-19.93-16.67H688a295.94,295.94,0,0,1-10.27,42l-9.3,28.86Z"/><path class="cls-1" d="M750.1,883.42c-3.5-4.23-6.64-9.42-6.64-15.46,0-14.49,12.56-28.5,28.13-43.23l26.69-25.12h5.56a51.37,51.37,0,0,1,5.79,24.51c0,18.24-11.23,38.16-17.51,59.3h-4.83c0-8.94,1.81-20.41,3.38-29.47H760.36c-3.5,8.33-5.19,17.63-5.91,29.47ZM763.26,848h28.38l6.64-39.49-18.35,18.6C772.56,834.51,767.13,841.15,763.26,848Z"/><path class="cls-1" d="M866.62,800.09c27,0,34.3,15.7,34.3,30.07,0,25.36-22.34,53.26-56.39,53.26H825.32V869.17c0-24.16,14.74-50.24,21.74-69.08Zm-25.48,77c20.05,0,30.8-5.8,38.53-27.9,6.16-17.63,7.6-19.08,7.6-26.32,0-8-4.83-16.67-19.92-16.67H853.94a295.78,295.78,0,0,1-10.26,42l-9.3,28.86Z"/><path class="cls-1" d="M950.3,884.62c-8.57,0-25.48-3.13-34.17-4.1a68.88,68.88,0,0,1-1.57-15.46c0-23.91,17.63-46.13,23.55-65L970,801.78c6.52.36,9.42-.6,10.87-2.53h1.33c0,9.9-4.23,12.55-11,12.55-9.41,0-22.46-4-29.1-5.43-.84,7.85-3.26,19.08-6.16,29.59h28.62l-1.81,6.64H934l-10.63,31.88h23.91c8.82,0,15.34-1.33,16.79-5.07h2.29C965.4,878.22,960.21,884.62,950.3,884.62Z"/><path class="cls-1" d="M1004.28,811.2c-.37-2.05-4.59-1.81-4.59-7a6.3,6.3,0,0,1,6.64-6.52c4.47,0,6.64,3.38,6.64,7.12,0,7.73-5.8,18.12-19.2,21.86l-1.45-3.26C999.69,820.38,1004,815.43,1004.28,811.2Zm22,0c-.36-2.05-4.58-1.81-4.58-7a6.3,6.3,0,0,1,6.64-6.52c4.47,0,6.64,3.38,6.64,7.12,0,7.73-5.8,18.12-19.2,21.86l-1.45-3.26C1021.67,820.38,1026,815.43,1026.25,811.2Z"/></g></svg>