<svg xmlns="http://www.w3.org/2000/svg" viewBox="0 0 1080 1080"><defs><style>.cls-1{fill:#ffcdab;}</style></defs><g id="Camada_1" data-name="Camada 1"><path class="cls-1" d="M524.24,300.79v29.83h37.08v9.06H511.81V257h48.66V266H524.24v25.73h30.19v9.05Z"/><path class="cls-1" d="M580.39,315.41c1.09,12.07,10.27,16.66,20.41,16.66,9.54,0,17.15-3.38,17.15-13.4,0-9.54-7.61-12.56-19.93-16.19-12.92-3.74-21.49-9.9-21.49-23.66,0-14.5,11.11-23.07,26.81-23.07,16.3,0,26.56,8.57,25.48,23.19H622.3c-.61-9.18-8.1-14.13-17.39-14.13s-15.58,4.22-15.58,13c0,8.21,7.61,11.47,19.2,14.73,14.13,4,22.7,10.75,22.7,24.76,0,15.58-12.56,23.91-28.5,23.91-17.75,0-29-8.7-29-25.84Z"/><path class="cls-1" d="M666,340V266.26H638.83V257h66.78v9.3H678.44V340Z"/><path class="cls-1" d="M717,256.72h13.28V300c0,18.47,4,30.67,20.41,30.67,15.7,0,19.2-11.83,19.2-30.19V256.72h9.66v44.8c0,22.58-7.24,39.73-30.19,39.73-26.32,0-32.36-17-32.36-39Z"/><path class="cls-1" d="M823.46,256.72c29.35,0,42.87,17.75,42.87,41.17,0,32.37-21,42.15-42.87,42.15H800.64V256.72Zm-10.38,9V331h10.5c18.36,0,29.59-11.35,29.59-33.09,0-18.83-9.06-32.12-29.59-32.12Z"/><path class="cls-1" d="M917.28,255.75c19.08,0,37.2,12.92,37.2,41.66,0,27-14.25,43.84-37.2,43.84-20.53,0-37.67-13.65-37.67-42.75C879.61,272.05,894.94,255.75,917.28,255.75Zm1.33,11c-15,0-25.72,11.83-25.72,31.76,0,22.7,12.68,32.48,25.72,32.48,13.89,0,24.76-11.47,24.76-33.09C943.37,277,931.29,266.74,918.61,266.74Z"/><path class="cls-1" d="M973.43,315.41c1.09,12.07,10.26,16.66,20.41,16.66,9.54,0,17.15-3.38,17.15-13.4,0-9.54-7.61-12.56-19.93-16.19-12.92-3.74-21.49-9.9-21.49-23.66,0-14.5,11.11-23.07,26.8-23.07,16.31,0,26.57,8.57,25.48,23.19h-6.52c-.6-9.18-8.09-14.13-17.39-14.13s-15.57,4.22-15.57,13c0,8.21,7.6,11.47,19.2,14.73,14.13,4,22.7,10.75,22.7,24.76,0,15.58-12.56,23.91-28.5,23.91-17.75,0-29-8.7-29-25.84Z"/><path class="cls-1" d="M100.65,377.47c27.05,0,34.3,15.69,34.3,30.07,0,25.36-22.34,53.25-56.39,53.25H59.35V446.54c0-24.15,14.74-50.23,21.74-69.07Zm-25.48,77c20,0,30.8-5.8,38.53-27.89,6.15-17.64,7.6-19.08,7.6-26.33,0-8-4.83-16.67-19.92-16.67H88a295.46,295.46,0,0,1-10.26,42l-9.3,28.86Z"/><path class="cls-1" d="M184.33,462c-8.57,0-25.48-3.14-34.17-4.11a68.88,68.88,0,0,1-1.57-15.46c0-23.91,17.63-46.12,23.55-65L204,379.16c6.52.36,9.42-.61,10.87-2.54h1.32c0,9.9-4.22,12.56-11,12.56-9.43,0-22.47-4-29.11-5.44-.84,7.85-3.26,19.09-6.16,29.59h28.62L196.77,420H168L157.4,451.85h23.92c8.81,0,15.33-1.32,16.78-5.07h2.29C199.43,455.6,194.24,462,184.33,462Z"/><path class="cls-1" d="M268.86,376.26c14.25,0,19.92,7.12,19.92,16.06,0,7.25-4.7,13-11.71,13a9.75,9.75,0,0,1-4.71-1.08V401.5c6.4-1,8.7-4.83,8.7-10s-3.75-9.17-12.32-9.17c-10.39,0-14.73,4.58-17.27,9.78-3.38,7-4.95,13.89-9.18,25.24-7,17.39-11.83,17.75-11.83,26.08,0,6.16,3.38,12,17,12,16.06,0,23.66-9.06,25.36-21.26h5.91c0,16.18-12.44,27.9-31.88,27.9-16.78,0-27.65-8.09-27.65-25.84C219.23,408.14,241.08,376.26,268.86,376.26Z"/><path class="cls-1" d="M361.84,380.36l3.26-4h9.42l-7.25,9.06c3.87,5.07,5.56,12.07,5.56,20,0,22.83-20.05,56.4-47.46,56.4-7.12,0-12.68-1.33-16.91-3.87l-2.9,3.63H296l7-8.58c-3.75-4.95-5.32-11.83-5.32-20.28,0-22.71,20.17-56.4,48.19-56.4C352.54,376.38,357.85,377.83,361.84,380.36Zm-52.65,65L357.25,386c-2.9-2.42-7.24-3.62-12.07-3.62-16.55,0-20.78,17.15-27.18,35-5.31,14.61-9.05,18.84-9.05,25.12A19.84,19.84,0,0,0,309.19,445.33Zm52.65-49.63a13.25,13.25,0,0,0-.36-3.14l-48.31,59.66c2.78,2.29,6.77,3.62,12.08,3.62,17.87,0,22.22-16.18,27.89-35C358.09,406.21,361.84,402.1,361.84,395.7Z"/><path class="cls-1" d="M386.59,442.43c0-23.91,18.23-46.12,24.15-65h4c0,8.69-4.47,30.55-9.66,46l-9.54,28.25h22.1c8.82,0,15.34-1.81,16.79-5.55h2.29c-1,8.81-6,15.82-15.94,15.82-8.57,0-23.18-3.5-32.6-4.11A68.88,68.88,0,0,1,386.59,442.43Z"/><path class="cls-1" d="M524.13,405.48c0,22.83-20.05,56.4-47.46,56.4-20.41,0-27.66-10.87-27.66-29.1,0-22.71,20.17-56.4,48.19-56.4C516.64,376.38,524.13,388.7,524.13,405.48Zm-11-9.78c0-8.57-7.13-13.28-16.67-13.28-16.54,0-20.77,17.15-27.17,35-5.31,14.61-9.06,18.84-9.06,25.12,0,8.21,5.8,13.28,16.31,13.28,17.87,0,22.22-16.18,27.89-35C509.39,406.21,513.14,402.1,513.14,395.7Z"/><path class="cls-1" d="M582,460.91c-1.45-10.5-17.39-39.37-21.13-63.88L541,460.79h-2.41a50.74,50.74,0,0,1-2.54-15.34c0-21.13,17.15-40.45,26.57-68h3c5,18.23,17,42.14,22.22,65.33l20.17-65.33h2.29a40.57,40.57,0,0,1,3.14,16.06c0,16.54-14.85,36.47-28.62,67.38Z"/><path class="cls-1" d="M632,460.79h-3.86a65.19,65.19,0,0,1-2.3-18.36c0-24.39,16.9-43.23,24.15-65h4.23c0,4.71-2.17,23.55-10.15,47.33Z"/><path class="cls-1" d="M666.6,460.79c-3.5-4.22-6.64-9.42-6.64-15.46,0-14.49,12.56-28.5,28.14-43.23L714.79,377h5.55a51.41,51.41,0,0,1,5.8,24.52c0,18.23-11.23,38.16-17.51,59.29H703.8c0-8.94,1.81-20.41,3.38-29.46H676.87c-3.51,8.33-5.2,17.63-5.92,29.46Zm13.17-35.38h28.37l6.65-39.49-18.36,18.6C689.06,411.88,683.63,418.52,679.77,425.41Z"/><path class="cls-1" d="M748.23,460.79h-3.87a65.21,65.21,0,0,1-2.29-18.36c0-24.39,16.9-43.23,24.15-65h4.23c0,4.71-2.18,23.55-10.15,47.33Z"/><path class="cls-1" d="M785.42,432.78C784,445,785.42,455.6,801,455.6c14.37,0,19.32-8,19.32-16.18,0-9.18-6.64-11.35-15.46-15.58-9.3-4.47-15-8.21-15-21.13,0-13.17,11.35-26.45,32-26.45,13.28,0,20.41,6.76,20.41,16.18a17.71,17.71,0,0,1-2.18,8.58h-5.43c1.45-7.61,2.29-18.36-13.53-18.36-15.09,0-19.2,8.21-19.2,15.22,0,9.17,5.19,11.1,13.77,14,9.66,3.38,18.11,7.37,18.11,21.5,0,13.4-10.62,28.62-33.09,28.62-17.75,0-23.06-9.9-23.06-19a19.2,19.2,0,0,1,2.78-10.26Z"/><path class="cls-1" d="M854.49,439.3a7.29,7.29,0,0,1,7.25,7.36c0,4.23-2.9,7.49-7.25,7.49a7.28,7.28,0,0,1-7.6-7.61A7.2,7.2,0,0,1,854.49,439.3Zm9.79-42.39a7.29,7.29,0,0,1,7.24,7.37c0,4.22-2.9,7.48-7.24,7.48a7.29,7.29,0,0,1-7.61-7.61A7.2,7.2,0,0,1,864.28,396.91Z"/><path class="cls-1" d="M55.73,581.54,85.44,498.1H98.36l28,83.44H111.76l-7-22.34h-31L66,581.54ZM102,550.14,89.91,511.86,76.74,550.14Z"/><path class="cls-1" d="M188.69,498.22v35.14H227V498.22h12.44v83.32H227V542.41H188.69v39.13H176.26V498.22Z"/><path class="cls-1" d="M271.17,498.22v83.32H258.73V498.22Z"/><path class="cls-1" d="M292.42,556.91c1.08,12.07,10.26,16.66,20.4,16.66,9.55,0,17.15-3.38,17.15-13.4,0-9.54-7.6-12.56-19.92-16.19-12.92-3.74-21.5-9.9-21.5-23.66,0-14.5,11.11-23.07,26.81-23.07,16.3,0,26.57,8.57,25.48,23.19h-6.52c-.6-9.18-8.09-14.13-17.39-14.13s-15.58,4.22-15.58,13c0,8.21,7.61,11.47,19.2,14.73,14.13,4,22.71,10.75,22.71,24.76,0,15.58-12.56,23.91-28.5,23.91-17.75,0-29-8.7-29-25.84Z"/><path class="cls-1" d="M375.25,581.54V507.76H348.08v-9.3h66.78v9.3H387.69v73.78Z"/><path class="cls-1" d="M453.86,497.25c19.08,0,37.19,12.92,37.19,41.66,0,27.05-14.25,43.84-37.19,43.84-20.53,0-37.68-13.65-37.68-42.75C416.18,513.55,431.52,497.25,453.86,497.25Zm1.33,11c-15,0-25.72,11.83-25.72,31.76,0,22.7,12.68,32.48,25.72,32.48,13.89,0,24.75-11.47,24.75-33.09C479.94,518.5,467.87,508.24,455.19,508.24Z"/><path class="cls-1" d="M558.43,582.39c-10.39,0-12.56-5.44-13.4-22.1-.61-11.35-4.83-15-14.62-15H518.82v36.23H506.38V498.22h26.93c16.43,0,28.5,6.52,28.5,21.49,0,13-8.81,19.2-20,21,9.9,1.21,16.3,6.53,16.66,19,.48,13.05,1,16.19,5.56,16.19a5.65,5.65,0,0,0,3-.85l1.08,2.54A11.23,11.23,0,0,1,558.43,582.39Zm-39.61-75.12v29.35h11.35c9.3,0,19.32-3.63,19.32-14.61,0-10.39-7.84-14.74-18.35-14.74Z"/><path class="cls-1" d="M592.84,498.22v83.32H580.4V498.22Z"/><path class="cls-1" d="M644.88,497.25c20.9,0,27.3,15.34,26.69,22.58h-6.4c-.6-2.9-5.43-11.83-18.6-11.83-14.49,0-25.36,11.47-25.36,32.6,0,22.1,11,32,24.76,32,14.49,0,20.53-9.66,21.13-14H673c0,8.09-6.64,24.15-29,24.15-20.41,0-36.11-13.29-36.11-42.15C607.93,512.71,624.47,497.25,644.88,497.25Z"/><path class="cls-1" d="M699,498.22v83.32H686.54V498.22Z"/><path class="cls-1" d="M740.88,498.22c29.34,0,42.87,17.75,42.87,41.17,0,32.37-21,42.15-42.87,42.15H718.06V498.22Zm-10.39,9v65.21H741c18.36,0,29.59-11.35,29.59-33.09,0-18.83-9.06-32.12-29.59-32.12Z"/><path class="cls-1" d="M787.85,581.54l29.71-83.44h12.92l28,83.44H843.88l-7-22.34h-31l-7.73,22.34Zm46.25-31.4L822,511.86l-13.16,38.28Z"/><path class="cls-1" d="M893.51,498.22c29.34,0,42.87,17.75,42.87,41.17,0,32.37-21,42.15-42.87,42.15H870.68V498.22Zm-10.39,9v65.21h10.51c18.35,0,29.58-11.35,29.58-33.09,0-18.83-9.05-32.12-29.58-32.12Z"/><path class="cls-1" d="M963.9,542.29v29.83H1001v9.06H951.46V498.46h48.67v9.05H963.9v25.73h30.19v9Z"/><path class="cls-1" d="M95.7,618c20.89,0,27.29,15.34,26.69,22.58H116c-.6-2.9-5.43-11.83-18.6-11.83C82.9,628.75,72,640.22,72,661.35c0,22.1,11,32,24.76,32,14.49,0,20.53-9.66,21.13-14h5.92c0,8.09-6.64,24.15-29,24.15-20.41,0-36.11-13.29-36.11-42.15C58.75,633.46,75.29,618,95.7,618Z"/><path class="cls-1" d="M179.5,618c19.08,0,37.2,12.92,37.2,41.66,0,27.05-14.25,43.84-37.2,43.84-20.53,0-37.67-13.65-37.67-42.75C141.83,634.3,157.16,618,179.5,618Zm1.33,11c-15,0-25.72,11.83-25.72,31.76,0,22.7,12.68,32.48,25.72,32.48,13.89,0,24.76-11.47,24.76-33.09C205.59,639.25,193.51,629,180.83,629Z"/><path class="cls-1" d="M252.55,619v73.66h37.68v9.3H240.12V619Z"/><path class="cls-1" d="M340.22,618c19.08,0,37.2,12.92,37.2,41.66,0,27.05-14.25,43.84-37.2,43.84-20.53,0-37.68-13.65-37.68-42.75C302.54,634.3,317.88,618,340.22,618Zm1.33,11c-15,0-25.72,11.83-25.72,31.76,0,22.7,12.68,32.48,25.72,32.48,13.89,0,24.76-11.47,24.76-33.09C366.31,639.25,354.23,629,341.55,629Z"/><path class="cls-1" d="M463.27,702.9h-10l-42.51-64.13v63.52H401V619h12.19l40.22,61.22V619h9.9Z"/><path class="cls-1" d="M501.42,667.15l5.44-20-20.05,5.2V638.53L507,643.24l-5.07-24.39h15.93l-5.07,24.39,20.17-4.71V652.3l-20.05-5.2,4.71,20c-1.33,7.73-3.38,33.81-6.16,41.06h-4C504.68,701,502.75,674.88,501.42,667.15Z"/><path class="cls-1" d="M539,702.29l29.71-83.44H581.6l28,83.44H595L588,680H557l-7.73,22.34Zm46.25-31.4-12.07-38.28L560,670.89Z"/><path class="cls-1" d="M638.23,619v73.66h37.68v9.3H625.79V619Z"/><path class="cls-1" d="M686.77,712.92l38.4-96.37h11.48l-38.41,96.37Z"/><path class="cls-1" d="M344.69,808.31c0-26,15.57-49,22.1-68.59,3,0,15.94-.61,21.85-.61,15.94,0,25.85,6.28,25.85,18.12,0,15.57-16.06,21.37-31,22.46,13.77,1.08,21.26,7.61,21.26,18,0,16.67-16.67,26-36.59,26-6.41,0-14.26-.61-22.83-.61C344.93,817.37,344.69,813,344.69,808.31Zm19.8-25.84-11.23,34a92.67,92.67,0,0,0,12,1c15.82,0,19.68-4.59,22.82-14.5,1.69-5.43,3.38-8,3.38-11.35,0-6-5.19-9.17-18.84-9.17ZM373.07,746c-1.69,9.54-3.26,16.3-6.77,29.82h7.61c12.56,0,19.32-1.69,23.07-10.5,2.53-6,4.1-8,4.1-11.72,0-5.79-4.34-8.45-16.42-8.45A77.4,77.4,0,0,0,373.07,746Z"/><path class="cls-1" d="M463.75,811.45c0-7.37,4.47-12.08,4.47-18.6,0-7-4.47-10.38-13.89-10.38h-9.54L431.26,823h-4a65.45,65.45,0,0,1-2.3-18.35c0-24.52,16.07-44.44,22.47-65,3.86,0,15-.61,20.89-.61,15.82,0,26.2,6.4,26.2,18.12,0,15.45-14.85,21.37-31.76,22.7,14.74,1.57,19.57,7.25,19.57,15.46,0,8.81-9.18,14.73-9.18,20.16,0,2.42,1.69,3.87,5.43,4.35l-1,3.14C468.46,823,463.75,818.82,463.75,811.45Zm-17.27-35.39h7.37c14,0,19.8-1.93,23.55-10.38,2.77-6.16,4-8.21,4-11.47,0-5.2-3.26-8.94-15.82-8.94a102.23,102.23,0,0,0-12.2.85C452,754,449.14,765.44,446.48,776.06Z"/><path class="cls-1" d="M506.25,823c-3.5-4.22-6.64-9.42-6.64-15.46,0-14.49,12.56-28.5,28.13-43.23l26.69-25.12H560a51.41,51.41,0,0,1,5.79,24.52c0,18.23-11.23,38.16-17.5,59.29h-4.84c0-8.94,1.82-20.41,3.39-29.46H516.51c-3.5,8.33-5.19,17.63-5.91,29.46Zm13.16-35.38h28.38l6.64-39.49-18.35,18.6C528.71,774.13,523.28,780.77,519.41,787.66Z"/><path class="cls-1" d="M584.25,795c-1.45,12.19,0,22.82,15.58,22.82,14.37,0,19.32-8,19.32-16.18,0-9.18-6.64-11.35-15.45-15.58-9.3-4.47-15-8.21-15-21.13,0-13.17,11.35-26.45,32-26.45,13.29,0,20.41,6.76,20.41,16.18a17.82,17.82,0,0,1-2.17,8.58h-5.44c1.45-7.61,2.3-18.36-13.52-18.36-15.1,0-19.2,8.21-19.2,15.22,0,9.17,5.19,11.11,13.76,14,9.66,3.38,18.12,7.37,18.12,21.5,0,13.4-10.63,28.62-33.09,28.62-17.75,0-23.07-9.9-23.07-19A19.32,19.32,0,0,1,579.3,795Z"/><path class="cls-1" d="M659.48,823h-3.87a65.18,65.18,0,0,1-2.29-18.35c0-24.4,16.9-43.24,24.15-65h4.23c0,4.71-2.17,23.55-10.15,47.33Z"/><path class="cls-1" d="M692.68,804.69c0-23.92,18.24-46.13,24.15-65h4c0,8.69-4.47,30.55-9.66,46L701.62,814h22.1c8.81,0,15.34-1.81,16.78-5.55h2.3c-1,8.81-6,15.82-15.94,15.82-8.58,0-23.19-3.5-32.61-4.11A68.85,68.85,0,0,1,692.68,804.69Z"/><path class="cls-1" d="M794,824.25c-8.58,0-25.48-3.14-34.18-4.11a68.85,68.85,0,0,1-1.57-15.45c0-23.92,17.63-46.13,23.55-65l31.88,1.69c6.52.36,9.42-.61,10.87-2.54h1.33c0,9.9-4.23,12.56-11,12.56-9.42,0-22.46-4-29.11-5.43-.84,7.84-3.26,19.08-6.16,29.58h28.62l-1.81,6.64H777.69L767.07,814.1H791c8.81,0,15.33-1.32,16.78-5.07h2.3C809.09,817.85,803.9,824.25,794,824.25Z"/><path class="cls-1" d="M835.29,823h-3.87a65.18,65.18,0,0,1-2.29-18.35c0-24.4,16.91-43.24,24.15-65h4.23c0,4.71-2.18,23.55-10.15,47.33Z"/><path class="cls-1" d="M907.26,811.45c0-7.37,4.47-12.08,4.47-18.6,0-7-4.47-10.38-13.89-10.38H888.3L874.77,823h-4a65.45,65.45,0,0,1-2.3-18.35c0-24.52,16.07-44.44,22.47-65,3.86,0,15-.61,20.89-.61,15.82,0,26.2,6.4,26.2,18.12,0,15.45-14.85,21.37-31.76,22.7,14.74,1.57,19.57,7.25,19.57,15.46,0,8.81-9.18,14.73-9.18,20.16,0,2.42,1.69,3.87,5.43,4.35l-1,3.14C912,823,907.26,818.82,907.26,811.45ZM890,776.06h7.37c14,0,19.8-1.93,23.55-10.38,2.77-6.16,4-8.21,4-11.47,0-5.2-3.26-8.94-15.82-8.94a102.08,102.08,0,0,0-12.2.85C895.54,754,892.65,765.44,890,776.06Z"/><path class="cls-1" d="M949.76,823c-3.5-4.22-6.64-9.42-6.64-15.46,0-14.49,12.56-28.5,28.13-43.23l26.69-25.12h5.56a51.41,51.41,0,0,1,5.79,24.52c0,18.23-11.23,38.16-17.51,59.29H987c0-8.94,1.81-20.41,3.38-29.46H960c-3.5,8.33-5.19,17.63-5.91,29.46Zm13.16-35.38H991.3l6.64-39.49-18.36,18.6C972.22,774.13,966.79,780.77,962.92,787.66Z"/></g></svg>