<?xml version="1.0" encoding="UTF-8"?>
<svg id="Layer_1" data-name="Layer 1" xmlns="http://www.w3.org/2000/svg" viewBox="0 0 1069.77 560.78">
  <defs>
    <style>
      .cls-1 {
        letter-spacing: -.08em;
      }

      .cls-2, .cls-3 {
        fill: #8c1e18;
      }

      .cls-4 {
        fill: #c8473c;
        font-family: CrimsonText-Regular, 'Crimson Text';
        font-size: 10px;
      }

      .cls-5 {
        fill: none;
        stroke: #c8473c;
        stroke-miterlimit: 10;
      }

      .cls-3 {
        font-family: CrimsonText-Bold, 'Crimson Text';
        font-size: 12px;
      }
    </style>
  </defs>
  <text class="cls-4"><tspan x="823.05" y="78.82">Scale (size and speed) of urbanization [284]</tspan><tspan x="823.05" y="104.82">Poor design and development of the built </tspan><tspan x="823.05" y="117.82">environment [284] </tspan><tspan x="823.05" y="143.82">Physiological (survival) needs easily met </tspan><tspan x="823.05" y="156.82">(i.e., little concept of the lowr orders of </tspan><tspan x="823.05" y="169.82" xml:space="preserve">“Maslow’s Hierarchy of Needs”) [173, 285]    </tspan><tspan x="823.05" y="195.82">Exploitaion of –and distancing from– </tspan><tspan x="823.05" y="208.82">animals [28, 286]</tspan><tspan x="823.05" y="234.82">Indoor sedentary entertainment [8]</tspan><tspan x="823.05" y="260.82">Television- and online- based environ</tspan><tspan x="972.21" y="260.82">-</tspan><tspan x="823.05" y="273.82">mentalism and broadcasted documentaries </tspan><tspan x="823.05" y="286.82">[275, 287]</tspan><tspan x="823.05" y="312.82">Extinction of experience (with nature) [69, </tspan><tspan x="823.05" y="325.82">288]</tspan><tspan x="823.05" y="351.82">Explosive population growth [289]</tspan><tspan x="823.05" y="377.82">Globalization and multinational corporat</tspan><tspan x="983.21" y="377.82">-</tspan><tspan x="823.05" y="390.82">ism [218]</tspan></text>
  <text class="cls-4" transform="translate(637.31 79.03)"><tspan x="0" y="0">Stronger, sharper ego “I” structure </tspan><tspan x="0" y="13">(than, e.g., non-</tspan><tspan class="cls-1" x="62.6" y="13">W</tspan><tspan x="72.32" y="13">estern persons), </tspan><tspan x="0" y="26">individual-referenced indentity, limited </tspan><tspan x="0" y="39">self-concept [277, 278]</tspan><tspan x="0" y="65">Arrested development as a juvenile-like </tspan><tspan x="0" y="78">psychosis [66, 273]</tspan><tspan x="0" y="104">Embrance of mechanistic achievments </tspan><tspan x="0" y="117">(”Light”) as human triumphs over wild </tspan><tspan x="0" y="130">nature (”Dark”) [44, 63, 64, 124, 259]</tspan><tspan x="0" y="156">Epistemic and disciplinary scientific </tspan><tspan x="0" y="169">divides (embodying subject-object </tspan><tspan x="0" y="182">dualisms) [37, 41, 42, 268]</tspan><tspan x="0" y="208">Rejection of non-</tspan><tspan class="cls-1" x="68.74" y="208">W</tspan><tspan x="78.47" y="208">estern ways of </tspan><tspan x="0" y="221">knowing [255, 279]</tspan><tspan x="0" y="247">Technology-mediated lifestyles [43, 49]</tspan><tspan x="0" y="273">Information and sensory overload [81, </tspan><tspan x="0" y="286">85, 87]</tspan><tspan x="0" y="312">“Enviromental numbness”, insulation </tspan><tspan x="0" y="325">from enviromental stimuli, sensory </tspan><tspan x="0" y="338">shutdowns [262, 280, 281]</tspan><tspan x="0" y="364">Enviromental generational amnesia [69, </tspan><tspan x="0" y="377">282]</tspan><tspan x="0" y="403">“Shifting baselines” (in memory, </tspan><tspan x="0" y="416">perception) [283]</tspan></text>
  <g>
    <path class="cls-2" d="M585.48,185.34c.11,0,.41,.06,.91,.18s.77,.22,.8,.3c.32,.88,.48,1.75,.48,2.64,0,1.03-.38,1.91-1.14,2.65s-1.67,1.1-2.71,1.1c-1.11,0-2.06-.37-2.85-1.11s-1.19-1.66-1.19-2.76c0-.85,.11-1.75,.34-2.68,0-.04,.27-.09,.79-.15s.83-.09,.95-.09,.18,.11,.18,.32c0,0-.01,.07-.04,.19-.14,.04-.29,.1-.45,.19s-.32,.22-.5,.4-.33,.42-.44,.73-.17,.65-.17,1.04c0,1.4,1.05,2.1,3.14,2.1,.98,0,1.8-.21,2.47-.64s1-1.04,1-1.83c0-.58-.21-1.08-.63-1.5-.1-.1-.24-.19-.42-.28s-.32-.14-.45-.19-.18-.07-.18-.08c0-.32,.04-.5,.12-.53Z"/>
    <path class="cls-2" d="M583.12,183.91c-.52-.54-.77-1.19-.77-1.95s.26-1.42,.77-1.95,1.14-.8,1.89-.8,1.37,.27,1.89,.8,.77,1.18,.77,1.96-.26,1.42-.77,1.95-1.14,.8-1.89,.8-1.37-.27-1.89-.8Zm-.13-1.79c0,.23,.09,.41,.27,.56s.38,.25,.62,.29,.49,.07,.77,.07c1.59,0,2.38-.4,2.38-1.21,0-.33-.16-.57-.48-.72s-.7-.23-1.12-.23c-1.62,0-2.43,.41-2.43,1.23Z"/>
    <path class="cls-2" d="M582.36,174.36c0-.45,.19-.82,.57-1.11s.96-.43,1.75-.43h1.16c.5,0,.86-.03,1.07-.08,.05-.02,.12-.12,.19-.33s.11-.34,.11-.41c0-.02,.06-.04,.19-.04s.21,0,.24,.02c0,.09-.03,.33-.05,.73s-.04,.69-.04,.87,.01,.47,.04,.85,.04,.62,.05,.71c-.03,.03-.11,.05-.24,.05s-.19-.02-.19-.05c0-.09-.04-.22-.11-.41s-.13-.29-.19-.3c-.23-.05-.53-.08-.89-.08h-1.05c-.58,0-.99,.08-1.24,.24s-.37,.42-.37,.77c0,.24,.04,.44,.13,.59s.22,.22,.38,.22h1.97c.5,0,.86-.03,1.07-.08,.05-.02,.12-.12,.19-.31s.11-.32,.11-.38c0-.02,.06-.04,.19-.04s.21,0,.24,.02c0,.09-.03,.33-.05,.71s-.04,.66-.04,.84,.01,.48,.04,.88,.04,.64,.05,.73c-.03,.03-.11,.05-.24,.05s-.19-.02-.19-.05c0-.09-.04-.23-.11-.43s-.13-.31-.19-.33c-.23-.05-.53-.08-.89-.08h-1.61c-.44,0-.73,.07-.88,.21-.06,.05-.11,.14-.15,.25s-.07,.2-.08,.28-.03,.12-.04,.12c-.27,0-.41-.02-.41-.06,0-.09-.02-.25-.06-.47s-.1-.5-.18-.86-.14-.62-.18-.82c0-.02,0-.03-.01-.05s-.01-.04-.01-.05v-.02s.01-.08,.06-.12,.09-.06,.12-.06c.22,.03,.34,.05,.36,.05,.04,0,.06,0,.07-.01,0-.02-.02-.04-.06-.08-.41-.44-.61-.98-.61-1.63Z"/>
    <path class="cls-2" d="M583.25,170.47v.76c0,.06-.12,.09-.36,.09-.06,0-.11,0-.13-.02-.22-.44-.43-.79-.63-1.05-.09-.12-.2-.25-.33-.41s-.25-.29-.35-.4-.15-.17-.16-.18c0-.06,.01-.13,.04-.2s.06-.11,.09-.11h1.15v-1.27c0-.06,.04-.09,.12-.09,.23,0,.42,.04,.57,.12v1.24h2.78c.59,0,.89-.21,.89-.63,0-.12-.01-.22-.04-.32s-.06-.17-.09-.23-.05-.09-.05-.09c0-.03,.04-.06,.12-.1s.14-.05,.18-.05c.09,0,.22,.16,.39,.48s.25,.62,.25,.9c0,.43-.13,.8-.4,1.11s-.71,.46-1.31,.46h-2.71Z"/>
    <path class="cls-2" d="M585.84,164.5c.5,0,.86-.03,1.07-.08,.05-.02,.12-.13,.19-.33s.11-.34,.11-.4c0-.03,.06-.05,.19-.05s.21,0,.24,.02c0,.08-.03,.32-.05,.73s-.04,.7-.04,.88,.01,.48,.04,.87,.04,.64,.05,.73c-.03,.02-.11,.04-.24,.04s-.19-.01-.19-.04c0-.09-.04-.24-.11-.44s-.13-.31-.19-.32c-.23-.05-.53-.08-.89-.08h-1.61c-.44,0-.73,.07-.88,.21-.06,.05-.11,.13-.15,.24s-.07,.2-.08,.28-.03,.12-.04,.12c-.27,0-.41-.02-.41-.06,0-.16-.05-.5-.16-1.03s-.19-.9-.26-1.12c0,0-.01-.05-.04-.13,0-.05,.03-.09,.08-.12s.09-.05,.12-.05c.06,0,.18,.02,.35,.05s.32,.04,.45,.06,.25,.02,.37,.02h2.07Zm-4.86,1.48c-.17,.17-.37,.26-.62,.26s-.45-.09-.62-.26-.25-.38-.25-.62,.08-.44,.25-.61,.37-.25,.62-.25,.45,.08,.62,.25,.25,.37,.25,.61-.08,.44-.25,.62Z"/>
    <path class="cls-2" d="M582.36,158.87c0-.45,.19-.82,.57-1.11s.96-.43,1.75-.43h1.16c.5,0,.86-.03,1.07-.08,.05-.02,.12-.12,.19-.33s.11-.34,.11-.41c0-.02,.06-.04,.19-.04s.21,0,.24,.02c0,.09-.03,.33-.05,.73s-.04,.69-.04,.87,.01,.47,.04,.85,.04,.62,.05,.71c-.03,.03-.11,.05-.24,.05s-.19-.02-.19-.05c0-.09-.04-.22-.11-.41s-.13-.29-.19-.3c-.23-.05-.53-.08-.89-.08h-1.05c-.58,0-.99,.08-1.24,.24s-.37,.42-.37,.77c0,.24,.04,.44,.13,.59s.22,.22,.38,.22h1.97c.5,0,.86-.03,1.07-.08,.05-.02,.12-.12,.19-.31s.11-.32,.11-.38c0-.02,.06-.04,.19-.04s.21,0,.24,.02c0,.09-.03,.33-.05,.71s-.04,.66-.04,.84,.01,.48,.04,.88,.04,.64,.05,.73c-.03,.03-.11,.05-.24,.05s-.19-.02-.19-.05c0-.09-.04-.23-.11-.43s-.13-.31-.19-.33c-.23-.05-.53-.08-.89-.08h-1.61c-.44,0-.73,.07-.88,.21-.06,.05-.11,.14-.15,.25s-.07,.2-.08,.28-.03,.12-.04,.12c-.27,0-.41-.02-.41-.06,0-.09-.02-.25-.06-.47s-.1-.5-.18-.86-.14-.62-.18-.82c0-.02,0-.03-.01-.05s-.01-.04-.01-.05v-.02s.01-.08,.06-.12,.09-.06,.12-.06c.22,.03,.34,.05,.36,.05,.04,0,.06,0,.07-.01,0-.02-.02-.04-.06-.08-.41-.44-.61-.98-.61-1.63Z"/>
    <path class="cls-2" d="M583.75,150.11h2.3c.41,0,.65-.04,.74-.12,.04-.04,.07-.1,.09-.19s.03-.17,.03-.26v-.12s.05-.05,.09-.05c.23,0,.34,.02,.34,.07,0,.12,.02,.27,.05,.46s.05,.38,.08,.56,.05,.37,.08,.53,.05,.31,.06,.42l.04,.16s-.07,.07-.21,.07h-.43s-.05,0-.06,.01,0,.02,.01,.04c.17,.16,.33,.4,.47,.72s.21,.66,.21,1.03c0,.46-.2,.83-.61,1.11s-.9,.42-1.48,.42h-1.14c-.44,0-.73,.07-.88,.21-.06,.05-.11,.14-.15,.25s-.07,.2-.08,.28-.03,.12-.04,.12c-.27,0-.41-.02-.41-.06,0-.15-.05-.49-.16-1.02s-.19-.91-.26-1.12l-.02-.06s-.01-.06-.01-.07c0-.04,.03-.08,.08-.12s.09-.06,.12-.06c.69,.09,1.08,.13,1.17,.13h1.25c.61,0,1.04-.08,1.28-.23s.37-.42,.37-.79c0-.27-.06-.46-.18-.6s-.26-.2-.4-.2h-1.68c-.44,0-.73,.07-.88,.21-.06,.05-.11,.14-.15,.25s-.07,.2-.08,.28-.03,.12-.04,.12c-.27,0-.41-.02-.41-.06,0-.15-.05-.49-.16-1.02s-.19-.91-.26-1.12c0,0,0-.03-.02-.07v-.06s.01-.08,.06-.12,.09-.06,.12-.06c.69,.09,1.07,.13,1.16,.13Z"/>
    <path class="cls-2" d="M582.32,146.15c0-.55,.15-.97,.45-1.26s.85-.44,1.63-.44h1.9c.27,0,.4-.09,.4-.28,0-.13-.05-.27-.15-.4,.03-.05,.09-.08,.18-.08,.2,0,.34,.03,.43,.08,.1,.11,.21,.29,.32,.53s.17,.48,.17,.7c0,.19-.06,.37-.17,.54s-.24,.29-.39,.34c0,0,.02,.04,.06,.09s.09,.12,.15,.21,.11,.19,.16,.3,.1,.25,.14,.4,.06,.31,.06,.47c0,.43-.12,.77-.36,1.03s-.54,.38-.9,.38c-.21,0-.4-.05-.58-.15s-.32-.21-.43-.34-.22-.3-.32-.52-.17-.41-.22-.56-.11-.36-.18-.6-.12-.42-.15-.51c-.02-.07-.08-.11-.18-.11h-.42c-.64,0-.96,.2-.96,.59,0,.45,.26,.68,.79,.68,.17,0,.3,.07,.38,.21s.12,.3,.12,.47c0,.36-.12,.61-.35,.74-.4,0-.76-.26-1.1-.79s-.5-1.1-.5-1.72Zm4.5,.47c0-.2-.05-.36-.15-.47s-.22-.17-.36-.17h-1.18s.03,.09,.08,.23,.07,.22,.09,.26,.04,.11,.09,.22,.08,.19,.12,.23,.08,.1,.13,.16,.11,.11,.18,.13,.13,.04,.21,.04c.28,0,.48-.06,.61-.18s.19-.27,.19-.44Z"/>
    <path class="cls-2" d="M581.36,142.2c-.37,0-.65,.02-.84,.06-.12,.04-.19,.24-.19,.61v.11s-.08,.07-.23,.07c-.13,0-.2-.02-.2-.07-.02-.24-.05-.49-.09-.73s-.08-.46-.12-.63-.08-.33-.12-.46-.07-.24-.09-.32l-.04-.12v-.02s.02-.06,.07-.09,.09-.05,.13-.06c.35,.09,.75,.13,1.18,.13h5.02c.5,.01,.86-.02,1.07-.07,.05-.02,.12-.12,.19-.33s.11-.34,.11-.41c0-.02,.06-.04,.19-.04s.21,0,.24,.02c0,.09-.03,.33-.05,.73s-.04,.69-.04,.87,.01,.48,.04,.88,.04,.64,.05,.73c-.03,.03-.11,.05-.24,.05s-.19-.02-.19-.05c0-.09-.04-.23-.11-.43s-.13-.31-.19-.33c-.23-.05-.53-.08-.89-.08h-4.65Z"/>
    <path class="cls-2" d="M582.36,133.26c0-.74,.26-1.36,.77-1.85s1.11-.73,1.79-.73c.87,0,1.54,.28,2.03,.83s.73,1.25,.73,2.1c0,.09,0,.19-.02,.3s-.03,.19-.05,.26-.03,.11-.03,.12c0,.03,.06,.05,.19,.05h.59c.5,0,.86-.03,1.07-.08,.05-.02,.12-.12,.19-.33s.11-.34,.11-.41c0-.02,.06-.04,.19-.04s.21,0,.24,.02c0,.09-.03,.33-.05,.73s-.04,.69-.04,.87,.01,.48,.04,.88,.04,.64,.05,.73c-.03,.03-.11,.05-.24,.05s-.19-.02-.19-.05c0-.09-.04-.23-.11-.43s-.13-.31-.19-.33c-.23-.05-.53-.08-.89-.08h-4.11c-.44,0-.73,.07-.88,.21-.06,.05-.11,.14-.15,.25s-.07,.2-.08,.28-.03,.12-.04,.12c-.27,0-.41-.02-.41-.06,0-.48-.11-1.11-.34-1.89-.08-.24-.12-.37-.12-.39,0-.05,.05-.07,.15-.07,.05,0,.12,0,.21,.02-.27-.34-.4-.7-.4-1.08Zm.68,.18c0,.27,.08,.49,.25,.66s.37,.25,.62,.25h2.21c.3,0,.53-.1,.69-.29s.24-.4,.24-.62c0-.7-.58-1.05-1.73-1.05-1.52,0-2.27,.36-2.27,1.07Z"/>
    <path class="cls-2" d="M582.35,126.26c0-.34,.14-.68,.43-1.01,.41,0,.71,.05,.9,.15s.29,.28,.29,.53c0,.16-.09,.34-.27,.54s-.27,.38-.27,.54c0,.23,.13,.4,.39,.5s.54,.15,.84,.15h1.18c.49,0,.84-.03,1.05-.08,.05-.02,.12-.12,.19-.31s.11-.32,.11-.38c0-.02,.06-.04,.19-.04s.21,0,.24,.02c0,.09-.03,.33-.05,.71s-.04,.66-.04,.84,.01,.48,.04,.88,.04,.64,.05,.73c-.03,.03-.11,.05-.24,.05s-.19-.02-.19-.05c0-.09-.04-.23-.11-.43s-.13-.31-.19-.33c-.23-.05-.53-.08-.89-.08h-1.61c-.44,0-.73,.07-.88,.21-.06,.05-.11,.14-.15,.25s-.07,.2-.08,.28-.03,.12-.04,.12c-.27,0-.41-.02-.41-.06,0-.09-.02-.25-.06-.47s-.1-.5-.18-.86-.14-.62-.18-.82c-.02-.08-.04-.12-.04-.13,0-.04,.03-.08,.08-.12s.09-.06,.12-.06c.09,.02,.2,.03,.3,.04s.18,.02,.21,.02c-.51-.38-.76-.82-.76-1.32Z"/>
    <path class="cls-2" d="M582.35,122.09c0-.7,.24-1.27,.73-1.69s.99-.64,1.49-.64c.18,0,.3,.04,.35,.11s.08,.22,.08,.44v2.65s.03,.07,.08,.07c.42,0,.8-.12,1.14-.36s.5-.58,.5-1.03c0-.26-.04-.5-.11-.74s-.14-.4-.2-.49-.15-.22-.26-.38c.03-.07,.11-.11,.22-.11,.09,0,.17,.02,.23,.05,.19,.08,.41,.31,.67,.7s.39,.83,.39,1.31c0,.72-.26,1.34-.79,1.86s-1.15,.78-1.89,.78-1.38-.23-1.89-.7-.76-1.08-.76-1.84Zm.64,.06c0,.3,.15,.53,.44,.67s.58,.21,.86,.21c.05,0,.07-.03,.07-.08v-1.49c0-.11-.07-.16-.22-.16-.3,0-.56,.08-.8,.24s-.35,.37-.35,.62Z"/>
    <path class="cls-2" d="M582.32,117.18c0-.69,.08-1.2,.23-1.52,.36-.08,.84-.12,1.45-.12,.07,0,.11,.05,.11,.15,0,.24-.03,.37-.09,.39-.33,.07-.59,.19-.77,.36s-.28,.44-.28,.8c0,.17,.04,.31,.12,.42s.2,.16,.36,.16c.18,0,.33-.08,.46-.23s.27-.39,.42-.69c.1-.21,.19-.38,.26-.5s.18-.28,.33-.48,.33-.35,.53-.45,.43-.15,.68-.15c.52,0,.91,.2,1.17,.59s.4,.9,.4,1.51c0,.27-.04,.58-.13,.91s-.19,.58-.32,.73c-.54,.09-1.02,.14-1.43,.14-.02-.03-.04-.09-.04-.18,0-.25,.04-.38,.11-.39,.77-.13,1.16-.55,1.16-1.27,0-.19-.04-.34-.13-.47s-.21-.19-.36-.19c-.2,0-.36,.08-.49,.25s-.31,.47-.53,.91c-.22,.45-.46,.79-.72,1.01s-.58,.33-.97,.33c-.53,0-.92-.2-1.17-.61s-.37-.88-.37-1.43Z"/>
    <path class="cls-2" d="M582.35,112.18c0-.7,.24-1.27,.73-1.69s.99-.64,1.49-.64c.18,0,.3,.04,.35,.11s.08,.22,.08,.44v2.65s.03,.07,.08,.07c.42,0,.8-.12,1.14-.36s.5-.58,.5-1.03c0-.26-.04-.5-.11-.74s-.14-.4-.2-.49-.15-.22-.26-.38c.03-.07,.11-.11,.22-.11,.09,0,.17,.02,.23,.05,.19,.08,.41,.31,.67,.7s.39,.83,.39,1.31c0,.72-.26,1.34-.79,1.86s-1.15,.78-1.89,.78-1.38-.23-1.89-.7-.76-1.08-.76-1.84Zm.64,.06c0,.3,.15,.53,.44,.67s.58,.21,.86,.21c.05,0,.07-.03,.07-.08v-1.49c0-.11-.07-.16-.22-.16-.3,0-.56,.08-.8,.24s-.35,.37-.35,.62Z"/>
    <path class="cls-2" d="M582.36,105.08c0-.45,.19-.82,.57-1.11s.96-.43,1.75-.43h1.16c.5,0,.86-.03,1.07-.08,.05-.02,.12-.12,.19-.33s.11-.34,.11-.41c0-.02,.06-.04,.19-.04s.21,0,.24,.02c0,.09-.03,.33-.05,.73s-.04,.69-.04,.87,.01,.47,.04,.85,.04,.62,.05,.71c-.03,.03-.11,.05-.24,.05s-.19-.02-.19-.05c0-.09-.04-.22-.11-.41s-.13-.29-.19-.3c-.23-.05-.53-.08-.89-.08h-1.05c-.58,0-.99,.08-1.24,.24s-.37,.42-.37,.77c0,.24,.04,.44,.13,.59s.22,.22,.38,.22h1.97c.5,0,.86-.03,1.07-.08,.05-.02,.12-.12,.19-.31s.11-.32,.11-.38c0-.02,.06-.04,.19-.04s.21,0,.24,.02c0,.09-.03,.33-.05,.71s-.04,.66-.04,.84,.01,.48,.04,.88,.04,.64,.05,.73c-.03,.03-.11,.05-.24,.05s-.19-.02-.19-.05c0-.09-.04-.23-.11-.43s-.13-.31-.19-.33c-.23-.05-.53-.08-.89-.08h-1.61c-.44,0-.73,.07-.88,.21-.06,.05-.11,.14-.15,.25s-.07,.2-.08,.28-.03,.12-.04,.12c-.27,0-.41-.02-.41-.06,0-.09-.02-.25-.06-.47s-.1-.5-.18-.86-.14-.62-.18-.82c0-.02,0-.03-.01-.05s-.01-.04-.01-.05v-.02s.01-.08,.06-.12,.09-.06,.12-.06c.22,.03,.34,.05,.36,.05,.04,0,.06,0,.07-.01,0-.02-.02-.04-.06-.08-.41-.44-.61-.98-.61-1.63Z"/>
    <path class="cls-2" d="M583.25,101.19v.76c0,.06-.12,.09-.36,.09-.06,0-.11,0-.13-.02-.22-.44-.43-.79-.63-1.05-.09-.12-.2-.25-.33-.41s-.25-.29-.35-.4-.15-.17-.16-.18c0-.06,.01-.13,.04-.2s.06-.11,.09-.11h1.15v-1.27c0-.06,.04-.09,.12-.09,.23,0,.42,.04,.57,.12v1.24h2.78c.59,0,.89-.21,.89-.63,0-.12-.01-.22-.04-.32s-.06-.17-.09-.23-.05-.09-.05-.09c0-.03,.04-.06,.12-.1s.14-.05,.18-.05c.09,0,.22,.16,.39,.48s.25,.62,.25,.9c0,.43-.13,.8-.4,1.11s-.71,.46-1.31,.46h-2.71Z"/>
    <path class="cls-2" d="M585.19,97.58c-.17,0-.32,0-.44-.03s-.2-.04-.24-.06-.06-.04-.06-.05h0s-.14-2.84-.14-2.84h0c0-.06,.04-.08,.11-.08,.17,0,.32,.01,.45,.04s.21,.05,.25,.08l.07,.04,.13,2.82v.02s-.01,.02-.04,.04-.05,.02-.09,.02Z"/>
    <path class="cls-2" d="M582.35,91.11c0-.32,.04-.59,.11-.82,0-.02-.05-.04-.16-.04h-.93c-.33,0-.61,.02-.84,.07-.12,.04-.19,.24-.19,.61v.11s-.08,.07-.23,.07c-.13,0-.2-.02-.2-.07-.02-.24-.05-.49-.09-.73s-.08-.46-.12-.63-.08-.33-.12-.46-.07-.24-.09-.32l-.04-.12v-.02s.02-.06,.07-.09,.09-.05,.13-.06c.35,.09,.75,.13,1.18,.13h5.04c.34,0,.62-.02,.84-.07,.05-.02,.1-.06,.13-.13s.05-.14,.06-.22,.01-.15,.01-.22v-.12s.07-.04,.15-.04c.2,0,.29,.02,.29,.07,0,.12,.02,.27,.05,.46s.05,.38,.08,.57,.05,.37,.08,.54,.05,.31,.08,.42l.02,.18s-.07,.07-.2,.07h-.25s-.05,0-.06,.01,0,.02,.01,.04c.33,.33,.49,.72,.49,1.18,0,.63-.24,1.2-.71,1.69s-1.09,.74-1.85,.74-1.44-.27-1.96-.8-.79-1.21-.79-2.01Zm.63,.07c0,.37,.15,.63,.44,.8s.76,.25,1.4,.25c1.41,0,2.12-.35,2.12-1.05,0-.27-.08-.49-.23-.66s-.34-.26-.56-.26h-2.13c-.09,0-.18,0-.27,.02s-.2,.05-.33,.11-.24,.15-.32,.29-.12,.31-.12,.51Z"/>
    <path class="cls-2" d="M582.32,84.7c0-.55,.15-.97,.45-1.26s.85-.44,1.63-.44h1.9c.27,0,.4-.09,.4-.28,0-.13-.05-.27-.15-.4,.03-.05,.09-.08,.18-.08,.2,0,.34,.03,.43,.08,.1,.11,.21,.29,.32,.53s.17,.48,.17,.7c0,.19-.06,.37-.17,.54s-.24,.29-.39,.34c0,0,.02,.04,.06,.09s.09,.12,.15,.21,.11,.19,.16,.3,.1,.25,.14,.4,.06,.31,.06,.47c0,.43-.12,.77-.36,1.03s-.54,.38-.9,.38c-.21,0-.4-.05-.58-.15s-.32-.21-.43-.34-.22-.3-.32-.52-.17-.41-.22-.56-.11-.36-.18-.6-.12-.42-.15-.51c-.02-.07-.08-.11-.18-.11h-.42c-.64,0-.96,.2-.96,.59,0,.45,.26,.68,.79,.68,.17,0,.3,.07,.38,.21s.12,.3,.12,.47c0,.36-.12,.61-.35,.74-.4,0-.76-.26-1.1-.79s-.5-1.1-.5-1.72Zm4.5,.47c0-.2-.05-.36-.15-.47s-.22-.17-.36-.17h-1.18s.03,.09,.08,.23,.07,.22,.09,.26,.04,.11,.09,.22,.08,.19,.12,.23,.08,.1,.13,.16,.11,.11,.18,.13,.13,.04,.21,.04c.28,0,.48-.06,.61-.18s.19-.27,.19-.44Z"/>
    <path class="cls-2" d="M582.49,80.21c0-.17-.01-.45-.04-.83s-.04-.62-.05-.7c.07-.02,.15-.04,.25-.04,.12,0,.19,.02,.19,.05,0,.1,.03,.25,.09,.44s.13,.29,.21,.29h.11c.12-.03,.89-.33,2.29-.93-1.15-.53-1.78-.82-1.9-.87-.11-.05-.23-.07-.35-.07-.05,0-.1,.02-.16,.06s-.12,.13-.19,.26-.09,.3-.09,.5c0,.03-.07,.05-.21,.05-.1,0-.18,0-.22-.02,0-.09,.03-.33,.05-.7s.04-.65,.04-.84c0-.16-.01-.38-.04-.66s-.04-.47-.05-.6c.06-.03,.13-.05,.2-.05,.16,0,.23,.02,.23,.05,0,.12,.04,.29,.12,.52s.2,.38,.35,.46l4.72,2.18c1.41,.65,2.12,1.41,2.12,2.27,0,.23-.06,.42-.19,.57s-.27,.22-.43,.22c-.24,0-.43-.09-.55-.27,0-.99-.3-1.64-.91-1.93-.38-.18-.64-.3-.77-.36l-3.87,1.75-.14,.06c-.16,.08-.28,.2-.35,.36s-.1,.3-.1,.42c0,.03-.06,.05-.18,.05-.16,0-.24,0-.26-.02,0-.06,.02-.31,.05-.74s.05-.74,.05-.93Z"/>
    <path class="cls-2" d="M596.75,190.11c0-.32,.04-.59,.11-.82,0-.02-.05-.04-.16-.04h-.93c-.33,0-.61,.02-.84,.07-.12,.04-.19,.24-.19,.61v.11s-.08,.07-.23,.07c-.13,0-.2-.02-.2-.07-.02-.24-.05-.49-.09-.73s-.08-.46-.12-.63-.08-.33-.12-.46-.07-.24-.09-.32l-.04-.12v-.02s.02-.06,.07-.09,.09-.05,.13-.06c.35,.09,.75,.13,1.18,.13h5.04c.34,0,.62-.02,.84-.07,.05-.02,.1-.06,.13-.13s.05-.14,.06-.22,.01-.15,.01-.22v-.12s.07-.04,.15-.04c.2,0,.29,.02,.29,.07,0,.12,.02,.27,.05,.46s.05,.38,.08,.57,.05,.37,.08,.54,.05,.31,.08,.42l.02,.18s-.07,.07-.2,.07h-.25s-.05,0-.06,.01,0,.02,.01,.04c.33,.33,.49,.72,.49,1.18,0,.63-.24,1.2-.71,1.69s-1.09,.74-1.85,.74-1.44-.27-1.96-.8-.79-1.21-.79-2.01Zm.63,.07c0,.37,.15,.63,.44,.8s.76,.25,1.4,.25c1.41,0,2.12-.35,2.12-1.05,0-.27-.08-.49-.23-.66s-.34-.26-.56-.26h-2.13c-.09,0-.18,0-.27,.02s-.2,.05-.33,.11-.24,.15-.32,.29-.12,.31-.12,.51Z"/>
    <path class="cls-2" d="M596.75,182.51c0-.34,.14-.68,.43-1.01,.41,0,.71,.05,.9,.15s.29,.28,.29,.53c0,.16-.09,.34-.27,.54s-.27,.38-.27,.54c0,.23,.13,.4,.39,.5s.54,.15,.84,.15h1.18c.49,0,.84-.03,1.05-.08,.05-.02,.12-.12,.19-.31s.11-.32,.11-.38c0-.02,.06-.04,.19-.04s.21,0,.24,.02c0,.09-.03,.33-.05,.71s-.04,.66-.04,.84,.01,.48,.04,.88,.04,.64,.05,.73c-.03,.03-.11,.05-.24,.05s-.19-.02-.19-.05c0-.09-.04-.23-.11-.43s-.13-.31-.19-.33c-.23-.05-.53-.08-.89-.08h-1.61c-.44,0-.73,.07-.88,.21-.06,.05-.11,.14-.15,.25s-.07,.2-.08,.28-.03,.12-.04,.12c-.27,0-.41-.02-.41-.06,0-.09-.02-.25-.06-.47s-.1-.5-.18-.86-.14-.62-.18-.82c-.02-.08-.04-.12-.04-.13,0-.04,.03-.08,.08-.12s.09-.06,.12-.06c.09,.02,.2,.03,.3,.04s.18,.02,.21,.02c-.51-.38-.76-.82-.76-1.32Z"/>
    <path class="cls-2" d="M600.24,178.47c.5,0,.86-.03,1.07-.08,.05-.02,.12-.13,.19-.33s.11-.34,.11-.4c0-.03,.06-.05,.19-.05s.21,0,.24,.02c0,.08-.03,.32-.05,.73s-.04,.7-.04,.88,.01,.48,.04,.87,.04,.64,.05,.73c-.03,.02-.11,.04-.24,.04s-.19-.01-.19-.04c0-.09-.04-.24-.11-.44s-.13-.31-.19-.32c-.23-.05-.53-.08-.89-.08h-1.61c-.44,0-.73,.07-.88,.21-.06,.05-.11,.13-.15,.24s-.07,.2-.08,.28-.03,.12-.04,.12c-.27,0-.41-.02-.41-.06,0-.16-.05-.5-.16-1.03s-.19-.9-.26-1.12c0,0-.01-.05-.04-.13,0-.05,.03-.09,.08-.12s.09-.05,.12-.05c.06,0,.18,.02,.35,.05s.32,.04,.45,.06,.25,.02,.37,.02h2.07Zm-4.86,1.48c-.17,.17-.37,.26-.62,.26s-.45-.09-.62-.26-.25-.38-.25-.62,.08-.44,.25-.61,.37-.25,.62-.25,.45,.08,.62,.25,.25,.37,.25,.61-.08,.44-.25,.62Z"/>
    <path class="cls-2" d="M597.47,172.66c-.16,.16-.25,.42-.25,.77,0,.02-.07,.04-.19,.04s-.2,0-.25-.02c0-.12,.03-.33,.05-.64s.04-.55,.04-.72c0-.19-.01-.43-.04-.72s-.04-.5-.05-.63c.03-.03,.1-.05,.2-.05,.16,0,.23,.02,.23,.05,0,.12,.04,.28,.12,.49s.2,.36,.35,.43l4.08,2.06c.23,.12,.34,.23,.34,.35,0,.09-.03,.16-.09,.19l-4.38,1.95c-.15,.06-.25,.19-.32,.37s-.09,.33-.09,.45c0,.03-.08,.05-.23,.05-.09,0-.16-.02-.2-.05,0-.09,.03-.33,.05-.73s.04-.69,.04-.87c0-.2-.02-.51-.05-.93s-.05-.67-.05-.74c.03-.03,.11-.05,.24-.05s.19,.02,.19,.05c0,.12,.03,.28,.09,.49s.14,.31,.22,.31l.18-.02,2.2-.93-1.95-.93c-.23-.12-.39-.12-.5-.01Z"/>
    <path class="cls-2" d="M596.75,167.53c0-.7,.24-1.27,.73-1.69s.99-.64,1.49-.64c.18,0,.3,.04,.35,.11s.08,.22,.08,.44v2.65s.03,.07,.08,.07c.42,0,.8-.12,1.14-.36s.5-.58,.5-1.03c0-.26-.04-.5-.11-.74s-.14-.4-.2-.49-.15-.22-.26-.38c.03-.07,.11-.11,.22-.11,.09,0,.17,.02,.23,.05,.19,.08,.41,.31,.67,.7s.39,.83,.39,1.31c0,.72-.26,1.34-.79,1.86s-1.15,.78-1.89,.78-1.38-.23-1.89-.7-.76-1.08-.76-1.84Zm.64,.06c0,.3,.15,.53,.44,.67s.58,.21,.86,.21c.05,0,.07-.03,.07-.08v-1.49c0-.11-.07-.16-.22-.16-.3,0-.56,.08-.8,.24s-.35,.37-.35,.62Z"/>
    <path class="cls-2" d="M596.75,160.83c0-.34,.14-.68,.43-1.01,.41,0,.71,.05,.9,.15s.29,.28,.29,.53c0,.16-.09,.34-.27,.54s-.27,.38-.27,.54c0,.23,.13,.4,.39,.5s.54,.15,.84,.15h1.18c.49,0,.84-.03,1.05-.08,.05-.02,.12-.12,.19-.31s.11-.32,.11-.38c0-.02,.06-.04,.19-.04s.21,0,.24,.02c0,.09-.03,.33-.05,.71s-.04,.66-.04,.84,.01,.48,.04,.88,.04,.64,.05,.73c-.03,.03-.11,.05-.24,.05s-.19-.02-.19-.05c0-.09-.04-.23-.11-.43s-.13-.31-.19-.33c-.23-.05-.53-.08-.89-.08h-1.61c-.44,0-.73,.07-.88,.21-.06,.05-.11,.14-.15,.25s-.07,.2-.08,.28-.03,.12-.04,.12c-.27,0-.41-.02-.41-.06,0-.09-.02-.25-.06-.47s-.1-.5-.18-.86-.14-.62-.18-.82c-.02-.08-.04-.12-.04-.13,0-.04,.03-.08,.08-.12s.09-.06,.12-.06c.09,.02,.2,.03,.3,.04s.18,.02,.21,.02c-.51-.38-.76-.82-.76-1.32Z"/>
    <path class="cls-2" d="M596.72,157.17c0-.69,.08-1.2,.23-1.52,.36-.08,.84-.12,1.45-.12,.07,0,.11,.05,.11,.15,0,.24-.03,.37-.09,.39-.33,.07-.59,.19-.77,.36s-.28,.44-.28,.8c0,.17,.04,.31,.12,.42s.2,.16,.36,.16c.18,0,.33-.08,.46-.23s.27-.39,.42-.69c.1-.21,.19-.38,.26-.5s.18-.28,.33-.48,.33-.35,.53-.45,.43-.15,.68-.15c.52,0,.91,.2,1.17,.59s.4,.9,.4,1.51c0,.27-.04,.58-.13,.91s-.19,.58-.32,.73c-.54,.09-1.02,.14-1.43,.14-.02-.03-.04-.09-.04-.18,0-.25,.04-.38,.11-.39,.77-.13,1.16-.55,1.16-1.27,0-.19-.04-.34-.13-.47s-.21-.19-.36-.19c-.2,0-.36,.08-.49,.25s-.31,.47-.53,.91c-.22,.45-.46,.79-.72,1.01s-.58,.33-.97,.33c-.53,0-.92-.2-1.17-.61s-.37-.88-.37-1.43Z"/>
    <path class="cls-2" d="M598.41,150.78c1.2,0,2.26-.19,3.19-.56s1.47-.71,1.63-1c0-.02,.03-.02,.06-.02,.05,0,.12,.01,.19,.04s.11,.06,.11,.1c0,.1-.08,.26-.23,.48s-.38,.47-.69,.74-.66,.54-1.07,.79-.89,.46-1.45,.63-1.15,.26-1.74,.26-1.15-.08-1.72-.25-1.05-.38-1.45-.63-.76-.51-1.08-.79-.55-.52-.71-.74-.23-.39-.23-.5c0-.04,.04-.07,.12-.1s.14-.04,.2-.04c.02,0,.03,0,.04,.01,.26,.37,.85,.72,1.79,1.06s1.95,.51,3.05,.51Z"/>
    <path class="cls-2" d="M596.76,144.4c0-.56,.27-.98,.81-1.24-.53-.48-.8-1.19-.81-2.11,0-.45,.19-.82,.57-1.11s.96-.43,1.75-.43h1.16c.5,0,.86-.03,1.07-.08,.05-.02,.12-.12,.19-.32s.11-.33,.11-.4c0-.02,.06-.04,.19-.04s.21,0,.24,.02c0,.09-.03,.33-.05,.72s-.04,.68-.04,.86,.01,.47,.04,.86,.04,.63,.05,.72c-.03,.03-.11,.05-.24,.05s-.19-.02-.19-.05c0-.09-.04-.23-.11-.42s-.13-.3-.19-.32c-.23-.05-.53-.08-.89-.08h-1.05c-.54,0-.94,.08-1.21,.24s-.4,.42-.4,.77c0,.44,.15,.71,.45,.82,.06,.02,.14,.03,.25,.02,.14-.02,.35-.02,.63-.02h1.16c.5,0,.86-.03,1.07-.08,.05-.02,.12-.12,.19-.32s.11-.33,.11-.4c0-.02,.06-.04,.19-.04s.21,0,.24,.02c0,.09-.03,.33-.05,.72s-.04,.68-.04,.86,.01,.47,.04,.86,.04,.63,.05,.72c-.03,.03-.11,.05-.24,.05s-.19-.02-.19-.05c0-.09-.04-.23-.11-.42s-.13-.3-.19-.32c-.23-.05-.53-.08-.89-.08h-1.05c-.58,0-.99,.08-1.24,.24s-.37,.42-.37,.77c0,.24,.04,.44,.13,.59s.22,.22,.38,.22h1.97c.5,0,.86-.03,1.07-.08,.05-.02,.12-.12,.19-.31s.11-.32,.11-.38c0-.02,.06-.04,.19-.04s.21,0,.24,.02c0,.09-.03,.33-.05,.71s-.04,.66-.04,.84,.01,.48,.04,.88,.04,.64,.05,.73c-.03,.03-.11,.05-.24,.05s-.19-.02-.19-.05c0-.09-.04-.23-.11-.43s-.13-.31-.19-.33c-.23-.05-.53-.08-.89-.08h-1.61c-.44,0-.73,.07-.88,.21-.06,.05-.11,.14-.15,.25s-.07,.2-.08,.28-.03,.12-.04,.12c-.27,0-.41-.02-.41-.06,0-.09-.02-.25-.06-.47s-.1-.5-.18-.86-.14-.62-.18-.82c0-.02,0-.03-.01-.05s-.01-.04-.01-.05v-.02s.01-.08,.06-.12,.09-.06,.12-.06c.22,.03,.34,.05,.36,.05,.04,0,.06,0,.07-.01,0-.02-.02-.04-.06-.08-.41-.44-.61-.98-.61-1.63Z"/>
    <path class="cls-2" d="M596.72,135.59c0-.55,.15-.97,.45-1.26s.85-.44,1.63-.44h1.9c.27,0,.4-.09,.4-.28,0-.13-.05-.27-.15-.4,.03-.05,.09-.08,.18-.08,.2,0,.34,.03,.43,.08,.1,.11,.21,.29,.32,.53s.17,.48,.17,.7c0,.19-.06,.37-.17,.54s-.24,.29-.39,.34c0,0,.02,.04,.06,.09s.09,.12,.15,.21,.11,.19,.16,.3,.1,.25,.14,.4,.06,.31,.06,.47c0,.43-.12,.77-.36,1.03s-.54,.38-.9,.38c-.21,0-.4-.05-.58-.15s-.32-.21-.43-.34-.22-.3-.32-.52-.17-.41-.22-.56-.11-.36-.18-.6-.12-.42-.15-.51c-.02-.07-.08-.11-.18-.11h-.42c-.64,0-.96,.2-.96,.59,0,.45,.26,.68,.79,.68,.17,0,.3,.07,.38,.21s.12,.3,.12,.47c0,.36-.12,.61-.35,.74-.4,0-.76-.26-1.1-.79s-.5-1.1-.5-1.72Zm4.5,.47c0-.2-.05-.36-.15-.47s-.22-.17-.36-.17h-1.18s.03,.09,.08,.23,.07,.22,.09,.26,.04,.11,.09,.22,.08,.19,.12,.23,.08,.1,.13,.16,.11,.11,.18,.13,.13,.04,.21,.04c.28,0,.48-.06,.61-.18s.19-.27,.19-.44Z"/>
    <path class="cls-2" d="M600.24,130.12c.5,0,.86-.03,1.07-.08,.05-.02,.12-.13,.19-.33s.11-.34,.11-.4c0-.03,.06-.05,.19-.05s.21,0,.24,.02c0,.08-.03,.32-.05,.73s-.04,.7-.04,.88,.01,.48,.04,.87,.04,.64,.05,.73c-.03,.02-.11,.04-.24,.04s-.19-.01-.19-.04c0-.09-.04-.24-.11-.44s-.13-.31-.19-.32c-.23-.05-.53-.08-.89-.08h-1.61c-.44,0-.73,.07-.88,.21-.06,.05-.11,.13-.15,.24s-.07,.2-.08,.28-.03,.12-.04,.12c-.27,0-.41-.02-.41-.06,0-.16-.05-.5-.16-1.03s-.19-.9-.26-1.12c0,0-.01-.05-.04-.13,0-.05,.03-.09,.08-.12s.09-.05,.12-.05c.06,0,.18,.02,.35,.05s.32,.04,.45,.06,.25,.02,.37,.02h2.07Zm-4.86,1.48c-.17,.17-.37,.26-.62,.26s-.45-.09-.62-.26-.25-.38-.25-.62,.08-.44,.25-.61,.37-.25,.62-.25,.45,.08,.62,.25,.25,.37,.25,.61-.08,.44-.25,.62Z"/>
    <path class="cls-2" d="M596.76,124.48c0-.45,.19-.82,.57-1.11s.96-.43,1.75-.43h1.16c.5,0,.86-.03,1.07-.08,.05-.02,.12-.12,.19-.33s.11-.34,.11-.41c0-.02,.06-.04,.19-.04s.21,0,.24,.02c0,.09-.03,.33-.05,.73s-.04,.69-.04,.87,.01,.47,.04,.85,.04,.62,.05,.71c-.03,.03-.11,.05-.24,.05s-.19-.02-.19-.05c0-.09-.04-.22-.11-.41s-.13-.29-.19-.3c-.23-.05-.53-.08-.89-.08h-1.05c-.58,0-.99,.08-1.24,.24s-.37,.42-.37,.77c0,.24,.04,.44,.13,.59s.22,.22,.38,.22h1.97c.5,0,.86-.03,1.07-.08,.05-.02,.12-.12,.19-.31s.11-.32,.11-.38c0-.02,.06-.04,.19-.04s.21,0,.24,.02c0,.09-.03,.33-.05,.71s-.04,.66-.04,.84,.01,.48,.04,.88,.04,.64,.05,.73c-.03,.03-.11,.05-.24,.05s-.19-.02-.19-.05c0-.09-.04-.23-.11-.43s-.13-.31-.19-.33c-.23-.05-.53-.08-.89-.08h-1.61c-.44,0-.73,.07-.88,.21-.06,.05-.11,.14-.15,.25s-.07,.2-.08,.28-.03,.12-.04,.12c-.27,0-.41-.02-.41-.06,0-.09-.02-.25-.06-.47s-.1-.5-.18-.86-.14-.62-.18-.82c0-.02,0-.03-.01-.05s-.01-.04-.01-.05v-.02s.01-.08,.06-.12,.09-.06,.12-.06c.22,.03,.34,.05,.36,.05,.04,0,.06,0,.07-.01,0-.02-.02-.04-.06-.08-.41-.44-.61-.98-.61-1.63Z"/>
    <path class="cls-2" d="M597.65,120.59v.76c0,.06-.12,.09-.36,.09-.06,0-.11,0-.13-.02-.22-.44-.43-.79-.63-1.05-.09-.12-.2-.25-.33-.41s-.25-.29-.35-.4-.15-.17-.16-.18c0-.06,.01-.13,.04-.2s.06-.11,.09-.11h1.15v-1.27c0-.06,.04-.09,.12-.09,.23,0,.42,.04,.57,.12v1.24h2.78c.59,0,.89-.21,.89-.63,0-.12-.01-.22-.04-.32s-.06-.17-.09-.23-.05-.09-.05-.09c0-.03,.04-.06,.12-.1s.14-.05,.18-.05c.09,0,.22,.16,.39,.48s.25,.62,.25,.9c0,.43-.13,.8-.4,1.11s-.71,.46-1.31,.46h-2.71Z"/>
    <path class="cls-2" d="M596.72,114.4c0-.55,.15-.97,.45-1.26s.85-.44,1.63-.44h1.9c.27,0,.4-.09,.4-.28,0-.13-.05-.27-.15-.4,.03-.05,.09-.08,.18-.08,.2,0,.34,.03,.43,.08,.1,.11,.21,.29,.32,.53s.17,.48,.17,.7c0,.19-.06,.37-.17,.54s-.24,.29-.39,.34c0,0,.02,.04,.06,.09s.09,.12,.15,.21,.11,.19,.16,.3,.1,.25,.14,.4,.06,.31,.06,.47c0,.43-.12,.77-.36,1.03s-.54,.38-.9,.38c-.21,0-.4-.05-.58-.15s-.32-.21-.43-.34-.22-.3-.32-.52-.17-.41-.22-.56-.11-.36-.18-.6-.12-.42-.15-.51c-.02-.07-.08-.11-.18-.11h-.42c-.64,0-.96,.2-.96,.59,0,.45,.26,.68,.79,.68,.17,0,.3,.07,.38,.21s.12,.3,.12,.47c0,.36-.12,.61-.35,.74-.4,0-.76-.26-1.1-.79s-.5-1.1-.5-1.72Zm4.5,.47c0-.2-.05-.36-.15-.47s-.22-.17-.36-.17h-1.18s.03,.09,.08,.23,.07,.22,.09,.26,.04,.11,.09,.22,.08,.19,.12,.23,.08,.1,.13,.16,.11,.11,.18,.13,.13,.04,.21,.04c.28,0,.48-.06,.61-.18s.19-.27,.19-.44Z"/>
    <path class="cls-2" d="M596.76,107.12c0-.45,.19-.82,.57-1.11s.96-.43,1.75-.43h1.16c.5,0,.86-.03,1.07-.08,.05-.02,.12-.12,.19-.33s.11-.34,.11-.41c0-.02,.06-.04,.19-.04s.21,0,.24,.02c0,.09-.03,.33-.05,.73s-.04,.69-.04,.87,.01,.47,.04,.85,.04,.62,.05,.71c-.03,.03-.11,.05-.24,.05s-.19-.02-.19-.05c0-.09-.04-.22-.11-.41s-.13-.29-.19-.3c-.23-.05-.53-.08-.89-.08h-1.05c-.58,0-.99,.08-1.24,.24s-.37,.42-.37,.77c0,.24,.04,.44,.13,.59s.22,.22,.38,.22h1.97c.5,0,.86-.03,1.07-.08,.05-.02,.12-.12,.19-.31s.11-.32,.11-.38c0-.02,.06-.04,.19-.04s.21,0,.24,.02c0,.09-.03,.33-.05,.71s-.04,.66-.04,.84,.01,.48,.04,.88,.04,.64,.05,.73c-.03,.03-.11,.05-.24,.05s-.19-.02-.19-.05c0-.09-.04-.23-.11-.43s-.13-.31-.19-.33c-.23-.05-.53-.08-.89-.08h-1.61c-.44,0-.73,.07-.88,.21-.06,.05-.11,.14-.15,.25s-.07,.2-.08,.28-.03,.12-.04,.12c-.27,0-.41-.02-.41-.06,0-.09-.02-.25-.06-.47s-.1-.5-.18-.86-.14-.62-.18-.82c0-.02,0-.03-.01-.05s-.01-.04-.01-.05v-.02s.01-.08,.06-.12,.09-.06,.12-.06c.22,.03,.34,.05,.36,.05,.04,0,.06,0,.07-.01,0-.02-.02-.04-.06-.08-.41-.44-.61-.98-.61-1.63Z"/>
    <path class="cls-2" d="M596.72,101.42c0-.55,.15-.97,.45-1.26s.85-.44,1.63-.44h1.9c.27,0,.4-.09,.4-.28,0-.13-.05-.27-.15-.4,.03-.05,.09-.08,.18-.08,.2,0,.34,.03,.43,.08,.1,.11,.21,.29,.32,.53s.17,.48,.17,.7c0,.19-.06,.37-.17,.54s-.24,.29-.39,.34c0,0,.02,.04,.06,.09s.09,.12,.15,.21,.11,.19,.16,.3,.1,.25,.14,.4,.06,.31,.06,.47c0,.43-.12,.77-.36,1.03s-.54,.38-.9,.38c-.21,0-.4-.05-.58-.15s-.32-.21-.43-.34-.22-.3-.32-.52-.17-.41-.22-.56-.11-.36-.18-.6-.12-.42-.15-.51c-.02-.07-.08-.11-.18-.11h-.42c-.64,0-.96,.2-.96,.59,0,.45,.26,.68,.79,.68,.17,0,.3,.07,.38,.21s.12,.3,.12,.47c0,.36-.12,.61-.35,.74-.4,0-.76-.26-1.1-.79s-.5-1.1-.5-1.72Zm4.5,.47c0-.2-.05-.36-.15-.47s-.22-.17-.36-.17h-1.18s.03,.09,.08,.23,.07,.22,.09,.26,.04,.11,.09,.22,.08,.19,.12,.23,.08,.1,.13,.16,.11,.11,.18,.13,.13,.04,.21,.04c.28,0,.48-.06,.61-.18s.19-.27,.19-.44Z"/>
    <path class="cls-2" d="M596.76,94.13c0-.45,.19-.82,.57-1.11s.96-.43,1.75-.43h1.16c.5,0,.86-.03,1.07-.08,.05-.02,.12-.12,.19-.33s.11-.34,.11-.41c0-.02,.06-.04,.19-.04s.21,0,.24,.02c0,.09-.03,.33-.05,.73s-.04,.69-.04,.87,.01,.47,.04,.85,.04,.62,.05,.71c-.03,.03-.11,.05-.24,.05s-.19-.02-.19-.05c0-.09-.04-.22-.11-.41s-.13-.29-.19-.3c-.23-.05-.53-.08-.89-.08h-1.05c-.58,0-.99,.08-1.24,.24s-.37,.42-.37,.77c0,.24,.04,.44,.13,.59s.22,.22,.38,.22h1.97c.5,0,.86-.03,1.07-.08,.05-.02,.12-.12,.19-.31s.11-.32,.11-.38c0-.02,.06-.04,.19-.04s.21,0,.24,.02c0,.09-.03,.33-.05,.71s-.04,.66-.04,.84,.01,.48,.04,.88,.04,.64,.05,.73c-.03,.03-.11,.05-.24,.05s-.19-.02-.19-.05c0-.09-.04-.23-.11-.43s-.13-.31-.19-.33c-.23-.05-.53-.08-.89-.08h-1.61c-.44,0-.73,.07-.88,.21-.06,.05-.11,.14-.15,.25s-.07,.2-.08,.28-.03,.12-.04,.12c-.27,0-.41-.02-.41-.06,0-.09-.02-.25-.06-.47s-.1-.5-.18-.86-.14-.62-.18-.82c0-.02,0-.03-.01-.05s-.01-.04-.01-.05v-.02s.01-.08,.06-.12,.09-.06,.12-.06c.22,.03,.34,.05,.36,.05,.04,0,.06,0,.07-.01,0-.02-.02-.04-.06-.08-.41-.44-.61-.98-.61-1.63Z"/>
    <path class="cls-2" d="M596.75,88.27c0-.34,.05-.65,.15-.94s.2-.5,.29-.62,.17-.21,.25-.27c.72,0,1.08,.21,1.08,.63,0,.3-.2,.54-.59,.69-.18,.07-.31,.16-.4,.26s-.13,.25-.13,.44c0,.62,.59,.94,1.76,.94,1.32,0,1.98-.44,1.98-1.32,0-.26-.04-.5-.11-.74s-.14-.4-.2-.49-.15-.22-.26-.38c.03-.07,.11-.11,.22-.11,.09,0,.17,.02,.23,.05,.2,.08,.42,.31,.67,.7s.38,.82,.38,1.31c0,.75-.26,1.38-.79,1.89s-1.17,.76-1.94,.76c-.72,0-1.33-.27-1.83-.81s-.76-1.21-.76-1.99Z"/>
    <path class="cls-2" d="M596.75,83.12c0-.7,.24-1.27,.73-1.69s.99-.64,1.49-.64c.18,0,.3,.04,.35,.11s.08,.22,.08,.44v2.65s.03,.07,.08,.07c.42,0,.8-.12,1.14-.36s.5-.58,.5-1.03c0-.26-.04-.5-.11-.74s-.14-.4-.2-.49-.15-.22-.26-.38c.03-.07,.11-.11,.22-.11,.09,0,.17,.02,.23,.05,.19,.08,.41,.31,.67,.7s.39,.83,.39,1.31c0,.72-.26,1.34-.79,1.86s-1.15,.78-1.89,.78-1.38-.23-1.89-.7-.76-1.08-.76-1.84Zm.64,.06c0,.3,.15,.53,.44,.67s.58,.21,.86,.21c.05,0,.07-.03,.07-.08v-1.49c0-.11-.07-.16-.22-.16-.3,0-.56,.08-.8,.24s-.35,.37-.35,.62Z"/>
    <path class="cls-2" d="M593.14,75.81l8.99,3.47s.1,.11,.17,.27,.1,.34,.1,.53c0,.05,0,.1-.02,.13s-.03,.06-.04,.06h-.02s-8.99-3.46-8.99-3.46c-.17-.08-.26-.27-.26-.57,0-.2,.02-.34,.07-.43Z"/>
    <path class="cls-2" d="M611.16,143.7c0-.74,.26-1.36,.77-1.85s1.11-.73,1.79-.73c.87,0,1.54,.28,2.03,.83s.73,1.25,.73,2.1c0,.09,0,.19-.02,.3s-.03,.19-.05,.26-.03,.11-.03,.12c0,.03,.06,.05,.19,.05h.59c.5,0,.86-.03,1.07-.08,.05-.02,.12-.12,.19-.33s.11-.34,.11-.41c0-.02,.06-.04,.19-.04s.21,0,.24,.02c0,.09-.03,.33-.05,.73s-.04,.69-.04,.87,.01,.48,.04,.88,.04,.64,.05,.73c-.03,.03-.11,.05-.24,.05s-.19-.02-.19-.05c0-.09-.04-.23-.11-.43s-.13-.31-.19-.33c-.23-.05-.53-.08-.89-.08h-4.11c-.44,0-.73,.07-.88,.21-.06,.05-.11,.14-.15,.25s-.07,.2-.08,.28-.03,.12-.04,.12c-.27,0-.41-.02-.41-.06,0-.48-.11-1.11-.34-1.89-.08-.24-.12-.37-.12-.39,0-.05,.05-.07,.15-.07,.05,0,.12,0,.21,.02-.27-.34-.4-.7-.4-1.08Zm.68,.18c0,.27,.08,.49,.25,.66s.37,.25,.62,.25h2.21c.3,0,.53-.1,.69-.29s.24-.4,.24-.62c0-.7-.58-1.05-1.73-1.05-1.52,0-2.27,.36-2.27,1.07Z"/>
    <path class="cls-2" d="M611.15,137.98c0-.7,.24-1.27,.73-1.69s.99-.64,1.49-.64c.18,0,.3,.04,.35,.11s.08,.22,.08,.44v2.65s.03,.07,.08,.07c.42,0,.8-.12,1.14-.36s.5-.58,.5-1.03c0-.26-.04-.5-.11-.74s-.14-.4-.2-.49-.15-.22-.26-.38c.03-.07,.11-.11,.22-.11,.09,0,.17,.02,.23,.05,.19,.08,.41,.31,.67,.7s.39,.83,.39,1.31c0,.72-.26,1.34-.79,1.86s-1.15,.78-1.89,.78-1.38-.23-1.89-.7-.76-1.08-.76-1.84Zm.64,.06c0,.3,.15,.53,.44,.67s.58,.21,.86,.21c.05,0,.07-.03,.07-.08v-1.49c0-.11-.07-.16-.22-.16-.3,0-.56,.08-.8,.24s-.35,.37-.35,.62Z"/>
    <path class="cls-2" d="M611.15,131.29c0-.34,.14-.68,.43-1.01,.41,0,.71,.05,.9,.15s.29,.28,.29,.53c0,.16-.09,.34-.27,.54s-.27,.38-.27,.54c0,.23,.13,.4,.39,.5s.54,.15,.84,.15h1.18c.49,0,.84-.03,1.05-.08,.05-.02,.12-.12,.19-.31s.11-.32,.11-.38c0-.02,.06-.04,.19-.04s.21,0,.24,.02c0,.09-.03,.33-.05,.71s-.04,.66-.04,.84,.01,.48,.04,.88,.04,.64,.05,.73c-.03,.03-.11,.05-.24,.05s-.19-.02-.19-.05c0-.09-.04-.23-.11-.43s-.13-.31-.19-.33c-.23-.05-.53-.08-.89-.08h-1.61c-.44,0-.73,.07-.88,.21-.06,.05-.11,.14-.15,.25s-.07,.2-.08,.28-.03,.12-.04,.12c-.27,0-.41-.02-.41-.06,0-.09-.02-.25-.06-.47s-.1-.5-.18-.86-.14-.62-.18-.82c-.02-.08-.04-.12-.04-.13,0-.04,.03-.08,.08-.12s.09-.06,.12-.06c.09,.02,.2,.03,.3,.04s.18,.02,.21,.02c-.51-.38-.76-.82-.76-1.32Z"/>
    <path class="cls-2" d="M611.16,126.19c0-.74,.26-1.36,.77-1.85s1.11-.73,1.79-.73c.87,0,1.54,.28,2.03,.83s.73,1.25,.73,2.1c0,.09,0,.19-.02,.3s-.03,.19-.05,.26-.03,.11-.03,.12c0,.03,.06,.05,.19,.05h.59c.5,0,.86-.03,1.07-.08,.05-.02,.12-.12,.19-.33s.11-.34,.11-.41c0-.02,.06-.04,.19-.04s.21,0,.24,.02c0,.09-.03,.33-.05,.73s-.04,.69-.04,.87,.01,.48,.04,.88,.04,.64,.05,.73c-.03,.03-.11,.05-.24,.05s-.19-.02-.19-.05c0-.09-.04-.23-.11-.43s-.13-.31-.19-.33c-.23-.05-.53-.08-.89-.08h-4.11c-.44,0-.73,.07-.88,.21-.06,.05-.11,.14-.15,.25s-.07,.2-.08,.28-.03,.12-.04,.12c-.27,0-.41-.02-.41-.06,0-.48-.11-1.11-.34-1.89-.08-.24-.12-.37-.12-.39,0-.05,.05-.07,.15-.07,.05,0,.12,0,.21,.02-.27-.34-.4-.7-.4-1.08Zm.68,.18c0,.27,.08,.49,.25,.66s.37,.25,.62,.25h2.21c.3,0,.53-.1,.69-.29s.24-.4,.24-.62c0-.7-.58-1.05-1.73-1.05-1.52,0-2.27,.36-2.27,1.07Z"/>
    <path class="cls-2" d="M611.15,120.47c0-.7,.24-1.27,.73-1.69s.99-.64,1.49-.64c.18,0,.3,.04,.35,.11s.08,.22,.08,.44v2.65s.03,.07,.08,.07c.42,0,.8-.12,1.14-.36s.5-.58,.5-1.03c0-.26-.04-.5-.11-.74s-.14-.4-.2-.49-.15-.22-.26-.38c.03-.07,.11-.11,.22-.11,.09,0,.17,.02,.23,.05,.19,.08,.41,.31,.67,.7s.39,.83,.39,1.31c0,.72-.26,1.34-.79,1.86s-1.15,.78-1.89,.78-1.38-.23-1.89-.7-.76-1.08-.76-1.84Zm.64,.06c0,.3,.15,.53,.44,.67s.58,.21,.86,.21c.05,0,.07-.03,.07-.08v-1.49c0-.11-.07-.16-.22-.16-.3,0-.56,.08-.8,.24s-.35,.37-.35,.62Z"/>
    <path class="cls-2" d="M612.05,116.77v.76c0,.06-.12,.09-.36,.09-.06,0-.11,0-.13-.02-.22-.44-.43-.79-.63-1.05-.09-.12-.2-.25-.33-.41s-.25-.29-.35-.4-.15-.17-.16-.18c0-.06,.01-.13,.04-.2s.06-.11,.09-.11h1.15v-1.27c0-.06,.04-.09,.12-.09,.23,0,.42,.04,.57,.12v1.24h2.78c.59,0,.89-.21,.89-.63,0-.12-.01-.22-.04-.32s-.06-.17-.09-.23-.05-.09-.05-.09c0-.03,.04-.06,.12-.1s.14-.05,.18-.05c.09,0,.22,.16,.39,.48s.25,.62,.25,.9c0,.43-.13,.8-.4,1.11s-.71,.46-1.31,.46h-2.71Z"/>
    <path class="cls-2" d="M612.55,107.53h2.3c.41,0,.65-.04,.74-.12,.04-.04,.07-.1,.09-.19s.03-.17,.03-.26v-.12s.05-.05,.09-.05c.23,0,.34,.02,.34,.07,0,.12,.02,.27,.05,.46s.05,.38,.08,.56,.05,.37,.08,.53,.05,.31,.06,.42l.04,.16s-.07,.07-.21,.07h-.43s-.05,0-.06,.01,0,.02,.01,.04c.17,.16,.33,.4,.47,.72s.21,.66,.21,1.03c0,.46-.2,.83-.61,1.11s-.9,.42-1.48,.42h-1.14c-.44,0-.73,.07-.88,.21-.06,.05-.11,.14-.15,.25s-.07,.2-.08,.28-.03,.12-.04,.12c-.27,0-.41-.02-.41-.06,0-.15-.05-.49-.16-1.02s-.19-.91-.26-1.12l-.02-.06s-.01-.06-.01-.07c0-.04,.03-.08,.08-.12s.09-.06,.12-.06c.69,.09,1.08,.13,1.17,.13h1.25c.61,0,1.04-.08,1.28-.23s.37-.42,.37-.79c0-.27-.06-.46-.18-.6s-.26-.2-.4-.2h-1.68c-.44,0-.73,.07-.88,.21-.06,.05-.11,.14-.15,.25s-.07,.2-.08,.28-.03,.12-.04,.12c-.27,0-.41-.02-.41-.06,0-.15-.05-.49-.16-1.02s-.19-.91-.26-1.12c0,0,0-.03-.02-.07v-.06s.01-.08,.06-.12,.09-.06,.12-.06c.69,.09,1.07,.13,1.16,.13Z"/>
    <path class="cls-2" d="M611.12,103.56c0-.55,.15-.97,.45-1.26s.85-.44,1.63-.44h1.9c.27,0,.4-.09,.4-.28,0-.13-.05-.27-.15-.4,.03-.05,.09-.08,.18-.08,.2,0,.34,.03,.43,.08,.1,.11,.21,.29,.32,.53s.17,.48,.17,.7c0,.19-.06,.37-.17,.54s-.24,.29-.39,.34c0,0,.02,.04,.06,.09s.09,.12,.15,.21,.11,.19,.16,.3,.1,.25,.14,.4,.06,.31,.06,.47c0,.43-.12,.77-.36,1.03s-.54,.38-.9,.38c-.21,0-.4-.05-.58-.15s-.32-.21-.43-.34-.22-.3-.32-.52-.17-.41-.22-.56-.11-.36-.18-.6-.12-.42-.15-.51c-.02-.07-.08-.11-.18-.11h-.42c-.64,0-.96,.2-.96,.59,0,.45,.26,.68,.79,.68,.17,0,.3,.07,.38,.21s.12,.3,.12,.47c0,.36-.12,.61-.35,.74-.4,0-.76-.26-1.1-.79s-.5-1.1-.5-1.72Zm4.5,.47c0-.2-.05-.36-.15-.47s-.22-.17-.36-.17h-1.18s.03,.09,.08,.23,.07,.22,.09,.26,.04,.11,.09,.22,.08,.19,.12,.23,.08,.1,.13,.16,.11,.11,.18,.13,.13,.04,.21,.04c.28,0,.48-.06,.61-.18s.19-.27,.19-.44Z"/>
    <path class="cls-2" d="M612.05,99.67v.76c0,.06-.12,.09-.36,.09-.06,0-.11,0-.13-.02-.22-.44-.43-.79-.63-1.05-.09-.12-.2-.25-.33-.41s-.25-.29-.35-.4-.15-.17-.16-.18c0-.06,.01-.13,.04-.2s.06-.11,.09-.11h1.15v-1.27c0-.06,.04-.09,.12-.09,.23,0,.42,.04,.57,.12v1.24h2.78c.59,0,.89-.21,.89-.63,0-.12-.01-.22-.04-.32s-.06-.17-.09-.23-.05-.09-.05-.09c0-.03,.04-.06,.12-.1s.14-.05,.18-.05c.09,0,.22,.16,.39,.48s.25,.62,.25,.9c0,.43-.13,.8-.4,1.11s-.71,.46-1.31,.46h-2.71Z"/>
    <path class="cls-2" d="M614.64,93.71c.5,0,.86-.03,1.07-.08,.05-.02,.12-.13,.19-.33s.11-.34,.11-.4c0-.03,.06-.05,.19-.05s.21,0,.24,.02c0,.08-.03,.32-.05,.73s-.04,.7-.04,.88,.01,.48,.04,.87,.04,.64,.05,.73c-.03,.02-.11,.04-.24,.04s-.19-.01-.19-.04c0-.09-.04-.24-.11-.44s-.13-.31-.19-.32c-.23-.05-.53-.08-.89-.08h-1.61c-.44,0-.73,.07-.88,.21-.06,.05-.11,.13-.15,.24s-.07,.2-.08,.28-.03,.12-.04,.12c-.27,0-.41-.02-.41-.06,0-.16-.05-.5-.16-1.03s-.19-.9-.26-1.12c0,0-.01-.05-.04-.13,0-.05,.03-.09,.08-.12s.09-.05,.12-.05c.06,0,.18,.02,.35,.05s.32,.04,.45,.06,.25,.02,.37,.02h2.07Zm-4.86,1.48c-.17,.17-.37,.26-.62,.26s-.45-.09-.62-.26-.25-.38-.25-.62,.08-.44,.25-.61,.37-.25,.62-.25,.45,.08,.62,.25,.25,.37,.25,.61-.08,.44-.25,.62Z"/>
    <path class="cls-2" d="M611.92,91.5c-.52-.54-.77-1.19-.77-1.95s.26-1.42,.77-1.95,1.14-.8,1.89-.8,1.37,.27,1.89,.8,.77,1.18,.77,1.96-.26,1.42-.77,1.95-1.14,.8-1.89,.8-1.37-.27-1.89-.8Zm-.13-1.79c0,.23,.09,.41,.27,.56s.38,.25,.62,.29,.49,.07,.77,.07c1.59,0,2.38-.4,2.38-1.21,0-.33-.16-.57-.48-.72s-.7-.23-1.12-.23c-1.62,0-2.43,.41-2.43,1.23Z"/>
    <path class="cls-2" d="M611.16,81.94c0-.45,.19-.82,.57-1.11s.96-.43,1.75-.43h1.16c.5,0,.86-.03,1.07-.08,.05-.02,.12-.12,.19-.33s.11-.34,.11-.41c0-.02,.06-.04,.19-.04s.21,0,.24,.02c0,.09-.03,.33-.05,.73s-.04,.69-.04,.87,.01,.47,.04,.85,.04,.62,.05,.71c-.03,.03-.11,.05-.24,.05s-.19-.02-.19-.05c0-.09-.04-.22-.11-.41s-.13-.29-.19-.3c-.23-.05-.53-.08-.89-.08h-1.05c-.58,0-.99,.08-1.24,.24s-.37,.42-.37,.77c0,.24,.04,.44,.13,.59s.22,.22,.38,.22h1.97c.5,0,.86-.03,1.07-.08,.05-.02,.12-.12,.19-.31s.11-.32,.11-.38c0-.02,.06-.04,.19-.04s.21,0,.24,.02c0,.09-.03,.33-.05,.71s-.04,.66-.04,.84,.01,.48,.04,.88,.04,.64,.05,.73c-.03,.03-.11,.05-.24,.05s-.19-.02-.19-.05c0-.09-.04-.23-.11-.43s-.13-.31-.19-.33c-.23-.05-.53-.08-.89-.08h-1.61c-.44,0-.73,.07-.88,.21-.06,.05-.11,.14-.15,.25s-.07,.2-.08,.28-.03,.12-.04,.12c-.27,0-.41-.02-.41-.06,0-.09-.02-.25-.06-.47s-.1-.5-.18-.86-.14-.62-.18-.82c0-.02,0-.03-.01-.05s-.01-.04-.01-.05v-.02s.01-.08,.06-.12,.09-.06,.12-.06c.22,.03,.34,.05,.36,.05,.04,0,.06,0,.07-.01,0-.02-.02-.04-.06-.08-.41-.44-.61-.98-.61-1.63Z"/>
    <path class="cls-2" d="M612.81,77.35c-1.1,0-2.12,.17-3.06,.51s-1.53,.69-1.78,1.06c0,0-.02,.01-.04,.01-.05,0-.12-.01-.2-.04s-.12-.06-.12-.1c0-.16,.13-.39,.4-.7s.62-.63,1.06-.97,.99-.63,1.67-.87,1.36-.37,2.06-.37,1.38,.12,2.06,.37,1.23,.54,1.66,.87,.79,.65,1.05,.97,.4,.55,.4,.7c0,.04-.04,.07-.11,.1s-.13,.04-.19,.04c-.04,0-.06,0-.07-.02-.14-.3-.69-.63-1.65-1s-2.01-.56-3.17-.56Z"/>
  </g>
  <text class="cls-4" transform="translate(59.42 83)"><tspan x="0" y="0">Advent of language: (Greek </tspan><tspan x="0" y="13">phonetic) written word and </tspan><tspan x="0" y="26">subject-verb-object grammar </tspan><tspan x="0" y="39" xml:space="preserve">structure [148.  265]</tspan><tspan x="0" y="65">Adopting select interpretations of </tspan><tspan x="0" y="78">Judaism and Christianity [28, 46, </tspan><tspan x="0" y="91">266-268]</tspan><tspan x="0" y="117">Ancient Greek philosophies, e.g., </tspan><tspan x="0" y="130">rationalism [41, 51, 269]</tspan><tspan x="0" y="156">Cartesian dualism and deductive </tspan><tspan x="0" y="169">reasoning [7, 41, 43, 44, 66, 269, </tspan><tspan x="0" y="182">270]</tspan><tspan x="0" y="208">Enlighjtenment ideals of the </tspan><tspan x="0" y="221">educated mind [55, 270]</tspan><tspan x="0" y="247">Modernism and the disinterested </tspan><tspan x="0" y="260">sciences [63, 64, 271]</tspan><tspan x="0" y="286">Loss of respect, humility, and </tspan><tspan x="0" y="299">empathy with nature [66]</tspan><tspan x="0" y="325">General disenchantment of the </tspan><tspan x="0" y="338">universe [1, 37, 63, 66]</tspan><tspan x="0" y="364">Valorization of indivual endeavor </tspan><tspan x="0" y="377">[44, 63]</tspan></text>
  <g>
    <path class="cls-2" d="M6.56,188.77c-.5,0-.8,.03-.91,.09-.06,.04-.13,.15-.19,.33s-.1,.31-.1,.4c0,.03-.07,.05-.2,.05-.14,0-.22,0-.23-.02,0-.12,.02-.3,.04-.56s.03-.45,.04-.58,0-.31,0-.56c0-.16-.02-.7-.07-1.64,.07-.02,.14-.04,.21-.04,.15,0,.22,.02,.22,.05,0,.07,.03,.21,.1,.42s.13,.32,.18,.34c.09,.02,.22,.04,.39,.06s.31,.02,.43,.02h4.51c.45,0,.79-.03,1.03-.09,.05-.02,.12-.12,.19-.32s.11-.33,.11-.4c0-.03,.07-.05,.22-.05,.09,0,.16,0,.21,.02,0,.05-.02,.29-.05,.7s-.05,.72-.05,.93,.01,.52,.04,.93,.04,.66,.05,.77c-.03,.03-.09,.05-.19,.05-.16,0-.25-.01-.25-.04,0-.09-.03-.23-.1-.43s-.13-.32-.19-.34c-.21-.05-.52-.08-.94-.08H6.56Z"/>
    <path class="cls-2" d="M7.45,181.38c0-.45,.19-.82,.57-1.11s.96-.43,1.75-.43h1.16c.5,0,.86-.03,1.07-.08,.05-.02,.12-.12,.19-.33s.11-.34,.11-.41c0-.02,.06-.04,.19-.04s.21,0,.24,.02c0,.09-.03,.33-.05,.73s-.04,.69-.04,.87,.01,.47,.04,.85,.04,.62,.05,.71c-.03,.03-.11,.05-.24,.05s-.19-.02-.19-.05c0-.09-.04-.22-.11-.41s-.13-.29-.19-.3c-.23-.05-.53-.08-.89-.08h-1.05c-.58,0-.99,.08-1.24,.24s-.37,.42-.37,.77c0,.24,.04,.44,.13,.59s.22,.22,.38,.22h1.97c.5,0,.86-.03,1.07-.08,.05-.02,.12-.12,.19-.31s.11-.32,.11-.38c0-.02,.06-.04,.19-.04s.21,0,.24,.02c0,.09-.03,.33-.05,.71s-.04,.66-.04,.84,.01,.48,.04,.88,.04,.64,.05,.73c-.03,.03-.11,.05-.24,.05s-.19-.02-.19-.05c0-.09-.04-.23-.11-.43s-.13-.31-.19-.33c-.23-.05-.53-.08-.89-.08h-1.61c-.44,0-.73,.07-.88,.21-.06,.05-.11,.14-.15,.25s-.07,.2-.08,.28-.03,.12-.04,.12c-.27,0-.41-.02-.41-.06,0-.09-.02-.25-.06-.47s-.1-.5-.18-.86-.14-.62-.18-.82c0-.02,0-.03-.01-.05s-.01-.04-.01-.05v-.02s.01-.08,.06-.12,.09-.06,.12-.06c.22,.03,.34,.05,.36,.05,.04,0,.06,0,.07-.01,0-.02-.02-.04-.06-.08-.41-.44-.61-.98-.61-1.63Z"/>
    <path class="cls-2" d="M10.93,175.9c.5,0,.86-.03,1.07-.08,.05-.02,.12-.13,.19-.33s.11-.34,.11-.4c0-.03,.06-.05,.19-.05s.21,0,.24,.02c0,.08-.03,.32-.05,.73s-.04,.7-.04,.88,.01,.48,.04,.87,.04,.64,.05,.73c-.03,.02-.11,.04-.24,.04s-.19-.01-.19-.04c0-.09-.04-.24-.11-.44s-.13-.31-.19-.32c-.23-.05-.53-.08-.89-.08h-1.61c-.44,0-.73,.07-.88,.21-.06,.05-.11,.13-.15,.24s-.07,.2-.08,.28-.03,.12-.04,.12c-.27,0-.41-.02-.41-.06,0-.16-.05-.5-.16-1.03s-.19-.9-.26-1.12c0,0-.01-.05-.04-.13,0-.05,.03-.09,.08-.12s.09-.05,.12-.05c.06,0,.18,.02,.35,.05s.32,.04,.45,.06,.25,.02,.37,.02h2.07Zm-4.86,1.48c-.17,.17-.37,.26-.62,.26s-.45-.09-.62-.26-.25-.38-.25-.62,.08-.44,.25-.61,.37-.25,.62-.25,.45,.08,.62,.25,.25,.37,.25,.61-.08,.44-.25,.62Z"/>
    <path class="cls-2" d="M8.34,173.67v.76c0,.06-.12,.09-.36,.09-.06,0-.11,0-.13-.02-.22-.44-.43-.79-.63-1.05-.09-.12-.2-.25-.33-.41s-.25-.29-.35-.4-.15-.17-.16-.18c0-.06,.01-.13,.04-.2s.06-.11,.09-.11h1.15v-1.27c0-.06,.04-.09,.12-.09,.23,0,.42,.04,.57,.12v1.24h2.78c.59,0,.89-.21,.89-.63,0-.12-.01-.22-.04-.32s-.06-.17-.09-.23-.05-.09-.05-.09c0-.03,.04-.06,.12-.1s.14-.05,.18-.05c.09,0,.22,.16,.39,.48s.25,.62,.25,.9c0,.43-.13,.8-.4,1.11s-.71,.46-1.31,.46h-2.71Z"/>
    <path class="cls-2" d="M10.93,167.7c.5,0,.86-.03,1.07-.08,.05-.02,.12-.13,.19-.33s.11-.34,.11-.4c0-.03,.06-.05,.19-.05s.21,0,.24,.02c0,.08-.03,.32-.05,.73s-.04,.7-.04,.88,.01,.48,.04,.87,.04,.64,.05,.73c-.03,.02-.11,.04-.24,.04s-.19-.01-.19-.04c0-.09-.04-.24-.11-.44s-.13-.31-.19-.32c-.23-.05-.53-.08-.89-.08h-1.61c-.44,0-.73,.07-.88,.21-.06,.05-.11,.13-.15,.24s-.07,.2-.08,.28-.03,.12-.04,.12c-.27,0-.41-.02-.41-.06,0-.16-.05-.5-.16-1.03s-.19-.9-.26-1.12c0,0-.01-.05-.04-.13,0-.05,.03-.09,.08-.12s.09-.05,.12-.05c.06,0,.18,.02,.35,.05s.32,.04,.45,.06,.25,.02,.37,.02h2.07Zm-4.86,1.48c-.17,.17-.37,.26-.62,.26s-.45-.09-.62-.26-.25-.38-.25-.62,.08-.44,.25-.61,.37-.25,.62-.25,.45,.08,.62,.25,.25,.37,.25,.61-.08,.44-.25,.62Z"/>
    <path class="cls-2" d="M7.41,163.66c0-.55,.15-.97,.45-1.26s.85-.44,1.63-.44h1.9c.27,0,.4-.09,.4-.28,0-.13-.05-.27-.15-.4,.03-.05,.09-.08,.18-.08,.2,0,.34,.03,.43,.08,.1,.11,.21,.29,.32,.53s.17,.48,.17,.7c0,.19-.06,.37-.17,.54s-.24,.29-.39,.34c0,0,.02,.04,.06,.09s.09,.12,.15,.21,.11,.19,.16,.3,.1,.25,.14,.4,.06,.31,.06,.47c0,.43-.12,.77-.36,1.03s-.54,.38-.9,.38c-.21,0-.4-.05-.58-.15s-.32-.21-.43-.34-.22-.3-.32-.52-.17-.41-.22-.56-.11-.36-.18-.6-.12-.42-.15-.51c-.02-.07-.08-.11-.18-.11h-.42c-.64,0-.96,.2-.96,.59,0,.45,.26,.68,.79,.68,.17,0,.3,.07,.38,.21s.12,.3,.12,.47c0,.36-.12,.61-.35,.74-.4,0-.76-.26-1.1-.79s-.5-1.1-.5-1.72Zm4.5,.47c0-.2-.05-.36-.15-.47s-.22-.17-.36-.17h-1.18s.03,.09,.08,.23,.07,.22,.09,.26,.04,.11,.09,.22,.08,.19,.12,.23,.08,.1,.13,.16,.11,.11,.18,.13,.13,.04,.21,.04c.28,0,.48-.06,.61-.18s.19-.27,.19-.44Z"/>
    <path class="cls-2" d="M6.45,159.71c-.37,0-.65,.02-.84,.06-.12,.04-.19,.24-.19,.61v.11s-.08,.07-.23,.07c-.13,0-.2-.02-.2-.07-.02-.24-.05-.49-.09-.73s-.08-.46-.12-.63-.08-.33-.12-.46-.07-.24-.09-.32l-.04-.12v-.02s.02-.06,.07-.09,.09-.05,.13-.06c.35,.09,.75,.13,1.18,.13h5.02c.5,.01,.86-.02,1.07-.07,.05-.02,.12-.12,.19-.33s.11-.34,.11-.41c0-.02,.06-.04,.19-.04s.21,0,.24,.02c0,.09-.03,.33-.05,.73s-.04,.69-.04,.87,.01,.48,.04,.88,.04,.64,.05,.73c-.03,.03-.11,.05-.24,.05s-.19-.02-.19-.05c0-.09-.04-.23-.11-.43s-.13-.31-.19-.33c-.23-.05-.53-.08-.89-.08H6.45Z"/>
    <path class="cls-2" d="M7.45,150.02c0-.45,.19-.82,.57-1.11s.96-.43,1.75-.43h1.16c.5,0,.86-.03,1.07-.08,.05-.02,.12-.12,.19-.33s.11-.34,.11-.41c0-.02,.06-.04,.19-.04s.21,0,.24,.02c0,.09-.03,.33-.05,.73s-.04,.69-.04,.87,.01,.47,.04,.85,.04,.62,.05,.71c-.03,.03-.11,.05-.24,.05s-.19-.02-.19-.05c0-.09-.04-.22-.11-.41s-.13-.29-.19-.3c-.23-.05-.53-.08-.89-.08h-1.05c-.58,0-.99,.08-1.24,.23s-.37,.41-.37,.76c0,.55,.17,.82,.52,.82h1.97c.5,0,.86-.03,1.07-.08,.05-.02,.12-.12,.19-.31s.11-.32,.11-.38c0-.02,.06-.04,.19-.04s.21,0,.24,.02c0,.09-.03,.33-.05,.71s-.04,.66-.04,.84,.01,.48,.04,.88,.04,.64,.05,.73c-.03,.03-.11,.05-.24,.05s-.19-.02-.19-.05c0-.09-.04-.23-.11-.43s-.13-.31-.19-.33c-.23-.05-.53-.08-.89-.08H6.45c-.37,0-.65,.02-.84,.06-.12,.04-.19,.24-.19,.61v.11s-.08,.07-.23,.07c-.13,0-.2-.02-.2-.07-.02-.24-.05-.49-.09-.73s-.08-.46-.12-.63-.08-.33-.12-.46-.07-.24-.09-.32l-.04-.12v-.02s.02-.06,.07-.09,.09-.05,.13-.06c.35,.09,.75,.14,1.18,.14h2.18c.05,0,.08-.02,.08-.05,0,0-.02-.03-.05-.06-.2-.17-.36-.41-.49-.73s-.19-.64-.19-.97Z"/>
    <path class="cls-2" d="M10.93,144.53c.5,0,.86-.03,1.07-.08,.05-.02,.12-.13,.19-.33s.11-.34,.11-.4c0-.03,.06-.05,.19-.05s.21,0,.24,.02c0,.08-.03,.32-.05,.73s-.04,.7-.04,.88,.01,.48,.04,.87,.04,.64,.05,.73c-.03,.02-.11,.04-.24,.04s-.19-.01-.19-.04c0-.09-.04-.24-.11-.44s-.13-.31-.19-.32c-.23-.05-.53-.08-.89-.08h-1.61c-.44,0-.73,.07-.88,.21-.06,.05-.11,.13-.15,.24s-.07,.2-.08,.28-.03,.12-.04,.12c-.27,0-.41-.02-.41-.06,0-.16-.05-.5-.16-1.03s-.19-.9-.26-1.12c0,0-.01-.05-.04-.13,0-.05,.03-.09,.08-.12s.09-.05,.12-.05c.06,0,.18,.02,.35,.05s.32,.04,.45,.06,.25,.02,.37,.02h2.07Zm-4.86,1.48c-.17,.17-.37,.26-.62,.26s-.45-.09-.62-.26-.25-.38-.25-.62,.08-.44,.25-.61,.37-.25,.62-.25,.45,.08,.62,.25,.25,.37,.25,.61-.08,.44-.25,.62Z"/>
    <path class="cls-2" d="M7.41,141.09c0-.69,.08-1.2,.23-1.52,.36-.08,.84-.12,1.45-.12,.07,0,.11,.05,.11,.15,0,.24-.03,.37-.09,.39-.33,.07-.59,.19-.77,.36s-.28,.44-.28,.8c0,.17,.04,.31,.12,.42s.2,.16,.36,.16c.18,0,.33-.08,.46-.23s.27-.39,.42-.69c.1-.21,.19-.38,.26-.5s.18-.28,.33-.48,.33-.35,.53-.45,.43-.15,.68-.15c.52,0,.91,.2,1.17,.59s.4,.9,.4,1.51c0,.27-.04,.58-.13,.91s-.19,.58-.32,.73c-.54,.09-1.02,.14-1.43,.14-.02-.03-.04-.09-.04-.18,0-.25,.04-.38,.11-.39,.77-.13,1.16-.55,1.16-1.27,0-.19-.04-.34-.13-.47s-.21-.19-.36-.19c-.2,0-.36,.08-.49,.25s-.31,.47-.53,.91c-.22,.45-.46,.79-.72,1.01s-.58,.33-.97,.33c-.53,0-.92-.2-1.17-.61s-.37-.88-.37-1.43Z"/>
    <path class="cls-2" d="M8.34,137.79v.76c0,.06-.12,.09-.36,.09-.06,0-.11,0-.13-.02-.22-.44-.43-.79-.63-1.05-.09-.12-.2-.25-.33-.41s-.25-.29-.35-.4-.15-.17-.16-.18c0-.06,.01-.13,.04-.2s.06-.11,.09-.11h1.15v-1.27c0-.06,.04-.09,.12-.09,.23,0,.42,.04,.57,.12v1.24h2.78c.59,0,.89-.21,.89-.63,0-.12-.01-.22-.04-.32s-.06-.17-.09-.23-.05-.09-.05-.09c0-.03,.04-.06,.12-.1s.14-.05,.18-.05c.09,0,.22,.16,.39,.48s.25,.62,.25,.9c0,.43-.13,.8-.4,1.11s-.71,.46-1.31,.46h-2.71Z"/>
    <path class="cls-2" d="M8.21,133.44c-.52-.54-.77-1.19-.77-1.95s.26-1.42,.77-1.95,1.14-.8,1.89-.8,1.37,.27,1.89,.8,.77,1.18,.77,1.96-.26,1.42-.77,1.95-1.14,.8-1.89,.8-1.37-.27-1.89-.8Zm-.13-1.79c0,.23,.09,.41,.27,.56s.38,.25,.62,.29,.49,.07,.77,.07c1.59,0,2.38-.4,2.38-1.21,0-.33-.16-.57-.48-.72s-.7-.23-1.12-.23c-1.62,0-2.43,.41-2.43,1.23Z"/>
    <path class="cls-2" d="M7.44,124.29c0-.34,.14-.68,.43-1.01,.41,0,.71,.05,.9,.15s.29,.28,.29,.53c0,.16-.09,.34-.27,.54s-.27,.38-.27,.54c0,.23,.13,.4,.39,.5s.54,.15,.84,.15h1.18c.49,0,.84-.03,1.05-.08,.05-.02,.12-.12,.19-.31s.11-.32,.11-.38c0-.02,.06-.04,.19-.04s.21,0,.24,.02c0,.09-.03,.33-.05,.71s-.04,.66-.04,.84,.01,.48,.04,.88,.04,.64,.05,.73c-.03,.03-.11,.05-.24,.05s-.19-.02-.19-.05c0-.09-.04-.23-.11-.43s-.13-.31-.19-.33c-.23-.05-.53-.08-.89-.08h-1.61c-.44,0-.73,.07-.88,.21-.06,.05-.11,.14-.15,.25s-.07,.2-.08,.28-.03,.12-.04,.12c-.27,0-.41-.02-.41-.06,0-.09-.02-.25-.06-.47s-.1-.5-.18-.86-.14-.62-.18-.82c-.02-.08-.04-.12-.04-.13,0-.04,.03-.08,.08-.12s.09-.06,.12-.06c.09,.02,.2,.03,.3,.04s.18,.02,.21,.02c-.51-.38-.76-.82-.76-1.32Z"/>
    <path class="cls-2" d="M10.93,120.25c.5,0,.86-.03,1.07-.08,.05-.02,.12-.13,.19-.33s.11-.34,.11-.4c0-.03,.06-.05,.19-.05s.21,0,.24,.02c0,.08-.03,.32-.05,.73s-.04,.7-.04,.88,.01,.48,.04,.87,.04,.64,.05,.73c-.03,.02-.11,.04-.24,.04s-.19-.01-.19-.04c0-.09-.04-.24-.11-.44s-.13-.31-.19-.32c-.23-.05-.53-.08-.89-.08h-1.61c-.44,0-.73,.07-.88,.21-.06,.05-.11,.13-.15,.24s-.07,.2-.08,.28-.03,.12-.04,.12c-.27,0-.41-.02-.41-.06,0-.16-.05-.5-.16-1.03s-.19-.9-.26-1.12c0,0-.01-.05-.04-.13,0-.05,.03-.09,.08-.12s.09-.05,.12-.05c.06,0,.18,.02,.35,.05s.32,.04,.45,.06,.25,.02,.37,.02h2.07Zm-4.86,1.48c-.17,.17-.37,.26-.62,.26s-.45-.09-.62-.26-.25-.38-.25-.62,.08-.44,.25-.61,.37-.25,.62-.25,.45,.08,.62,.25,.25,.37,.25,.61-.08,.44-.25,.62Z"/>
    <path class="cls-2" d="M7.44,116.04c0-.34,.05-.65,.15-.94s.2-.5,.29-.62,.17-.21,.25-.27c.72,0,1.08,.21,1.08,.63,0,.3-.2,.54-.59,.69-.18,.07-.31,.16-.4,.26s-.13,.25-.13,.44c0,.62,.59,.94,1.76,.94,1.32,0,1.98-.44,1.98-1.32,0-.26-.04-.5-.11-.74s-.14-.4-.2-.49-.15-.22-.26-.38c.03-.07,.11-.11,.22-.11,.09,0,.17,.02,.23,.05,.2,.08,.42,.31,.67,.7s.38,.82,.38,1.31c0,.75-.26,1.38-.79,1.89s-1.17,.76-1.94,.76c-.72,0-1.33-.27-1.83-.81s-.76-1.21-.76-1.99Z"/>
    <path class="cls-2" d="M7.41,110.79c0-.55,.15-.97,.45-1.26s.85-.44,1.63-.44h1.9c.27,0,.4-.09,.4-.28,0-.13-.05-.27-.15-.4,.03-.05,.09-.08,.18-.08,.2,0,.34,.03,.43,.08,.1,.11,.21,.29,.32,.53s.17,.48,.17,.7c0,.19-.06,.37-.17,.54s-.24,.29-.39,.34c0,0,.02,.04,.06,.09s.09,.12,.15,.21,.11,.19,.16,.3,.1,.25,.14,.4,.06,.31,.06,.47c0,.43-.12,.77-.36,1.03s-.54,.38-.9,.38c-.21,0-.4-.05-.58-.15s-.32-.21-.43-.34-.22-.3-.32-.52-.17-.41-.22-.56-.11-.36-.18-.6-.12-.42-.15-.51c-.02-.07-.08-.11-.18-.11h-.42c-.64,0-.96,.2-.96,.59,0,.45,.26,.68,.79,.68,.17,0,.3,.07,.38,.21s.12,.3,.12,.47c0,.36-.12,.61-.35,.74-.4,0-.76-.26-1.1-.79s-.5-1.1-.5-1.72Zm4.5,.47c0-.2-.05-.36-.15-.47s-.22-.17-.36-.17h-1.18s.03,.09,.08,.23,.07,.22,.09,.26,.04,.11,.09,.22,.08,.19,.12,.23,.08,.1,.13,.16,.11,.11,.18,.13,.13,.04,.21,.04c.28,0,.48-.06,.61-.18s.19-.27,.19-.44Z"/>
    <path class="cls-2" d="M6.45,106.85c-.37,0-.65,.02-.84,.06-.12,.04-.19,.24-.19,.61v.11s-.08,.07-.23,.07c-.13,0-.2-.02-.2-.07-.02-.24-.05-.49-.09-.73s-.08-.46-.12-.63-.08-.33-.12-.46-.07-.24-.09-.32l-.04-.12v-.02s.02-.06,.07-.09,.09-.05,.13-.06c.35,.09,.75,.13,1.18,.13h5.02c.5,.01,.86-.02,1.07-.07,.05-.02,.12-.12,.19-.33s.11-.34,.11-.41c0-.02,.06-.04,.19-.04s.21,0,.24,.02c0,.09-.03,.33-.05,.73s-.04,.69-.04,.87,.01,.48,.04,.88,.04,.64,.05,.73c-.03,.03-.11,.05-.24,.05s-.19-.02-.19-.05c0-.09-.04-.23-.11-.43s-.13-.31-.19-.33c-.23-.05-.53-.08-.89-.08H6.45Z"/>
    <path class="cls-2" d="M7.44,98.65c0-.32,.04-.59,.11-.82,0-.02-.05-.04-.16-.04h-.93c-.33,0-.61,.02-.84,.07-.12,.04-.19,.24-.19,.61v.11s-.08,.07-.23,.07c-.13,0-.2-.02-.2-.07-.02-.24-.05-.49-.09-.73s-.08-.46-.12-.63-.08-.33-.12-.46-.07-.24-.09-.32l-.04-.12v-.02s.02-.06,.07-.09,.09-.05,.13-.06c.35,.09,.75,.13,1.18,.13h5.04c.34,0,.62-.02,.84-.07,.05-.02,.1-.06,.13-.13s.05-.14,.06-.22,.01-.15,.01-.22v-.12s.07-.04,.15-.04c.2,0,.29,.02,.29,.07,0,.12,.02,.27,.05,.46s.05,.38,.08,.57,.05,.37,.08,.54,.05,.31,.08,.42l.02,.18s-.07,.07-.2,.07h-.25s-.05,0-.06,.01,0,.02,.01,.04c.33,.33,.49,.72,.49,1.18,0,.63-.24,1.2-.71,1.69s-1.09,.74-1.85,.74-1.44-.27-1.96-.8-.79-1.21-.79-2.01Zm.63,.07c0,.37,.15,.63,.44,.8s.76,.25,1.4,.25c1.41,0,2.12-.35,2.12-1.05,0-.27-.08-.49-.23-.66s-.34-.26-.56-.26h-2.13c-.09,0-.18,0-.27,.02s-.2,.05-.33,.11-.24,.15-.32,.29-.12,.31-.12,.51Z"/>
    <path class="cls-2" d="M7.44,91.06c0-.34,.14-.68,.43-1.01,.41,0,.71,.05,.9,.15s.29,.28,.29,.53c0,.16-.09,.34-.27,.54s-.27,.38-.27,.54c0,.23,.13,.4,.39,.5s.54,.15,.84,.15h1.18c.49,0,.84-.03,1.05-.08,.05-.02,.12-.12,.19-.31s.11-.32,.11-.38c0-.02,.06-.04,.19-.04s.21,0,.24,.02c0,.09-.03,.33-.05,.71s-.04,.66-.04,.84,.01,.48,.04,.88,.04,.64,.05,.73c-.03,.03-.11,.05-.24,.05s-.19-.02-.19-.05c0-.09-.04-.23-.11-.43s-.13-.31-.19-.33c-.23-.05-.53-.08-.89-.08h-1.61c-.44,0-.73,.07-.88,.21-.06,.05-.11,.14-.15,.25s-.07,.2-.08,.28-.03,.12-.04,.12c-.27,0-.41-.02-.41-.06,0-.09-.02-.25-.06-.47s-.1-.5-.18-.86-.14-.62-.18-.82c-.02-.08-.04-.12-.04-.13,0-.04,.03-.08,.08-.12s.09-.06,.12-.06c.09,.02,.2,.03,.3,.04s.18,.02,.21,.02c-.51-.38-.76-.82-.76-1.32Z"/>
    <path class="cls-2" d="M10.93,87.02c.5,0,.86-.03,1.07-.08,.05-.02,.12-.13,.19-.33s.11-.34,.11-.4c0-.03,.06-.05,.19-.05s.21,0,.24,.02c0,.08-.03,.32-.05,.73s-.04,.7-.04,.88,.01,.48,.04,.87,.04,.64,.05,.73c-.03,.02-.11,.04-.24,.04s-.19-.01-.19-.04c0-.09-.04-.24-.11-.44s-.13-.31-.19-.32c-.23-.05-.53-.08-.89-.08h-1.61c-.44,0-.73,.07-.88,.21-.06,.05-.11,.13-.15,.24s-.07,.2-.08,.28-.03,.12-.04,.12c-.27,0-.41-.02-.41-.06,0-.16-.05-.5-.16-1.03s-.19-.9-.26-1.12c0,0-.01-.05-.04-.13,0-.05,.03-.09,.08-.12s.09-.05,.12-.05c.06,0,.18,.02,.35,.05s.32,.04,.45,.06,.25,.02,.37,.02h2.07Zm-4.86,1.48c-.17,.17-.37,.26-.62,.26s-.45-.09-.62-.26-.25-.38-.25-.62,.08-.44,.25-.61,.37-.25,.62-.25,.45,.08,.62,.25,.25,.37,.25,.61-.08,.44-.25,.62Z"/>
    <path class="cls-2" d="M8.16,81.21c-.16,.16-.25,.42-.25,.77,0,.02-.07,.04-.19,.04s-.2,0-.25-.02c0-.12,.03-.33,.05-.64s.04-.55,.04-.72c0-.19-.01-.43-.04-.72s-.04-.5-.05-.63c.03-.03,.1-.05,.2-.05,.16,0,.23,.02,.23,.05,0,.12,.04,.28,.12,.49s.2,.36,.35,.43l4.08,2.06c.23,.12,.34,.23,.34,.35,0,.09-.03,.16-.09,.19l-4.38,1.95c-.15,.06-.25,.19-.32,.37s-.09,.33-.09,.45c0,.03-.08,.05-.23,.05-.09,0-.16-.02-.2-.05,0-.09,.03-.33,.05-.73s.04-.69,.04-.87c0-.2-.02-.51-.05-.93s-.05-.67-.05-.74c.03-.03,.11-.05,.24-.05s.19,.02,.19,.05c0,.12,.03,.28,.09,.49s.14,.31,.22,.31l.18-.02,2.2-.93-1.95-.93c-.23-.12-.39-.12-.5-.01Z"/>
    <path class="cls-2" d="M7.44,76.07c0-.7,.24-1.27,.73-1.69s.99-.64,1.49-.64c.18,0,.3,.04,.35,.11s.08,.22,.08,.44v2.65s.03,.07,.08,.07c.42,0,.8-.12,1.14-.36s.5-.58,.5-1.03c0-.26-.04-.5-.11-.74s-.14-.4-.2-.49-.15-.22-.26-.38c.03-.07,.11-.11,.22-.11,.09,0,.17,.02,.23,.05,.19,.08,.41,.31,.67,.7s.39,.83,.39,1.31c0,.72-.26,1.34-.79,1.86s-1.15,.78-1.89,.78-1.38-.23-1.89-.7-.76-1.08-.76-1.84Zm.64,.06c0,.3,.15,.53,.44,.67s.58,.21,.86,.21c.05,0,.07-.03,.07-.08v-1.49c0-.11-.07-.16-.22-.16-.3,0-.56,.08-.8,.24s-.35,.37-.35,.62Z"/>
    <path class="cls-2" d="M7.44,69.38c0-.34,.14-.68,.43-1.01,.41,0,.71,.05,.9,.15s.29,.28,.29,.53c0,.16-.09,.34-.27,.54s-.27,.38-.27,.54c0,.23,.13,.4,.39,.5s.54,.15,.84,.15h1.18c.49,0,.84-.03,1.05-.08,.05-.02,.12-.12,.19-.31s.11-.32,.11-.38c0-.02,.06-.04,.19-.04s.21,0,.24,.02c0,.09-.03,.33-.05,.71s-.04,.66-.04,.84,.01,.48,.04,.88,.04,.64,.05,.73c-.03,.03-.11,.05-.24,.05s-.19-.02-.19-.05c0-.09-.04-.23-.11-.43s-.13-.31-.19-.33c-.23-.05-.53-.08-.89-.08h-1.61c-.44,0-.73,.07-.88,.21-.06,.05-.11,.14-.15,.25s-.07,.2-.08,.28-.03,.12-.04,.12c-.27,0-.41-.02-.41-.06,0-.09-.02-.25-.06-.47s-.1-.5-.18-.86-.14-.62-.18-.82c-.02-.08-.04-.12-.04-.13,0-.04,.03-.08,.08-.12s.09-.06,.12-.06c.09,.02,.2,.03,.3,.04s.18,.02,.21,.02c-.51-.38-.76-.82-.76-1.32Z"/>
    <path class="cls-2" d="M7.41,65.71c0-.69,.08-1.2,.23-1.52,.36-.08,.84-.12,1.45-.12,.07,0,.11,.05,.11,.15,0,.24-.03,.37-.09,.39-.33,.07-.59,.19-.77,.36s-.28,.44-.28,.8c0,.17,.04,.31,.12,.42s.2,.16,.36,.16c.18,0,.33-.08,.46-.23s.27-.39,.42-.69c.1-.21,.19-.38,.26-.5s.18-.28,.33-.48,.33-.35,.53-.45,.43-.15,.68-.15c.52,0,.91,.2,1.17,.59s.4,.9,.4,1.51c0,.27-.04,.58-.13,.91s-.19,.58-.32,.73c-.54,.09-1.02,.14-1.43,.14-.02-.03-.04-.09-.04-.18,0-.25,.04-.38,.11-.39,.77-.13,1.16-.55,1.16-1.27,0-.19-.04-.34-.13-.47s-.21-.19-.36-.19c-.2,0-.36,.08-.49,.25s-.31,.47-.53,.91c-.22,.45-.46,.79-.72,1.01s-.58,.33-.97,.33c-.53,0-.92-.2-1.17-.61s-.37-.88-.37-1.43Z"/>
    <path class="cls-2" d="M23.5,180.6c1.2,0,2.26-.19,3.19-.56s1.47-.71,1.63-1c0-.02,.03-.02,.06-.02,.05,0,.12,.01,.19,.04s.11,.06,.11,.1c0,.1-.08,.26-.23,.48s-.38,.47-.69,.74-.66,.54-1.07,.79-.89,.46-1.45,.63-1.15,.26-1.74,.26-1.15-.08-1.72-.25-1.05-.38-1.45-.63-.76-.51-1.08-.79-.55-.52-.71-.74-.23-.39-.23-.5c0-.04,.04-.07,.12-.1s.14-.04,.2-.04c.02,0,.03,0,.04,.01,.26,.37,.85,.72,1.79,1.06s1.95,.51,3.05,.51Z"/>
    <path class="cls-2" d="M21.81,176.42c0-.69,.08-1.2,.23-1.52,.36-.08,.84-.12,1.45-.12,.07,0,.11,.05,.11,.15,0,.24-.03,.37-.09,.39-.33,.07-.59,.19-.77,.36s-.28,.44-.28,.8c0,.17,.04,.31,.12,.42s.2,.16,.36,.16c.18,0,.33-.08,.46-.23s.27-.39,.42-.69c.1-.21,.19-.38,.26-.5s.18-.28,.33-.48,.33-.35,.53-.45,.43-.15,.68-.15c.52,0,.91,.2,1.17,.59s.4,.9,.4,1.51c0,.27-.04,.58-.13,.91s-.19,.58-.32,.73c-.54,.09-1.02,.14-1.43,.14-.02-.03-.04-.09-.04-.18,0-.25,.04-.38,.11-.39,.77-.13,1.16-.55,1.16-1.27,0-.19-.04-.34-.13-.47s-.21-.19-.36-.19c-.2,0-.36,.08-.49,.25s-.31,.47-.53,.91c-.22,.45-.46,.79-.72,1.01s-.58,.33-.97,.33c-.53,0-.92-.2-1.17-.61s-.37-.88-.37-1.43Z"/>
    <path class="cls-2" d="M21.84,171.42c0-.7,.24-1.27,.73-1.69s.99-.64,1.49-.64c.18,0,.3,.04,.35,.11s.08,.22,.08,.44v2.65s.03,.07,.08,.07c.42,0,.8-.12,1.14-.36s.5-.58,.5-1.03c0-.26-.04-.5-.11-.74s-.14-.4-.2-.49-.15-.22-.26-.38c.03-.07,.11-.11,.22-.11,.09,0,.17,.02,.23,.05,.19,.08,.41,.31,.67,.7s.39,.83,.39,1.31c0,.72-.26,1.34-.79,1.86s-1.15,.78-1.89,.78-1.38-.23-1.89-.7-.76-1.08-.76-1.84Zm.64,.06c0,.3,.15,.53,.44,.67s.58,.21,.86,.21c.05,0,.07-.03,.07-.08v-1.49c0-.11-.07-.16-.22-.16-.3,0-.56,.08-.8,.24s-.35,.37-.35,.62Z"/>
    <path class="cls-2" d="M22.56,164.14c-.16,.16-.25,.42-.25,.77,0,.02-.07,.04-.19,.04s-.2,0-.25-.02c0-.12,.03-.33,.05-.64s.04-.55,.04-.72c0-.19-.01-.43-.04-.72s-.04-.5-.05-.63c.03-.03,.1-.05,.2-.05,.16,0,.23,.02,.23,.05,0,.12,.04,.28,.12,.49s.2,.36,.35,.43l4.08,2.06c.23,.12,.34,.23,.34,.35,0,.09-.03,.16-.09,.19l-4.38,1.95c-.15,.06-.25,.19-.32,.37s-.09,.33-.09,.45c0,.03-.08,.05-.23,.05-.09,0-.16-.02-.2-.05,0-.09,.03-.33,.05-.73s.04-.69,.04-.87c0-.2-.02-.51-.05-.93s-.05-.67-.05-.74c.03-.03,.11-.05,.24-.05s.19,.02,.19,.05c0,.12,.03,.28,.09,.49s.14,.31,.22,.31l.18-.02,2.2-.93-1.95-.93c-.23-.12-.39-.12-.5-.01Z"/>
    <path class="cls-2" d="M21.84,159.01c0-.7,.24-1.27,.73-1.69s.99-.64,1.49-.64c.18,0,.3,.04,.35,.11s.08,.22,.08,.44v2.65s.03,.07,.08,.07c.42,0,.8-.12,1.14-.36s.5-.58,.5-1.03c0-.26-.04-.5-.11-.74s-.14-.4-.2-.49-.15-.22-.26-.38c.03-.07,.11-.11,.22-.11,.09,0,.17,.02,.23,.05,.19,.08,.41,.31,.67,.7s.39,.83,.39,1.31c0,.72-.26,1.34-.79,1.86s-1.15,.78-1.89,.78-1.38-.23-1.89-.7-.76-1.08-.76-1.84Zm.64,.06c0,.3,.15,.53,.44,.67s.58,.21,.86,.21c.05,0,.07-.03,.07-.08v-1.49c0-.11-.07-.16-.22-.16-.3,0-.56,.08-.8,.24s-.35,.37-.35,.62Z"/>
    <path class="cls-2" d="M21.84,152.31c0-.34,.14-.68,.43-1.01,.41,0,.71,.05,.9,.15s.29,.28,.29,.53c0,.16-.09,.34-.27,.54s-.27,.38-.27,.54c0,.23,.13,.4,.39,.5s.54,.15,.84,.15h1.18c.49,0,.84-.03,1.05-.08,.05-.02,.12-.12,.19-.31s.11-.32,.11-.38c0-.02,.06-.04,.19-.04s.21,0,.24,.02c0,.09-.03,.33-.05,.71s-.04,.66-.04,.84,.01,.48,.04,.88,.04,.64,.05,.73c-.03,.03-.11,.05-.24,.05s-.19-.02-.19-.05c0-.09-.04-.23-.11-.43s-.13-.31-.19-.33c-.23-.05-.53-.08-.89-.08h-1.61c-.44,0-.73,.07-.88,.21-.06,.05-.11,.14-.15,.25s-.07,.2-.08,.28-.03,.12-.04,.12c-.27,0-.41-.02-.41-.06,0-.09-.02-.25-.06-.47s-.1-.5-.18-.86-.14-.62-.18-.82c-.02-.08-.04-.12-.04-.13,0-.04,.03-.08,.08-.12s.09-.06,.12-.06c.09,.02,.2,.03,.3,.04s.18,.02,.21,.02c-.51-.38-.76-.82-.76-1.32Z"/>
    <path class="cls-2" d="M21.81,148.05c0-.55,.15-.97,.45-1.26s.85-.44,1.63-.44h1.9c.27,0,.4-.09,.4-.28,0-.13-.05-.27-.15-.4,.03-.05,.09-.08,.18-.08,.2,0,.34,.03,.43,.08,.1,.11,.21,.29,.32,.53s.17,.48,.17,.7c0,.19-.06,.37-.17,.54s-.24,.29-.39,.34c0,0,.02,.04,.06,.09s.09,.12,.15,.21,.11,.19,.16,.3,.1,.25,.14,.4,.06,.31,.06,.47c0,.43-.12,.77-.36,1.03s-.54,.38-.9,.38c-.21,0-.4-.05-.58-.15s-.32-.21-.43-.34-.22-.3-.32-.52-.17-.41-.22-.56-.11-.36-.18-.6-.12-.42-.15-.51c-.02-.07-.08-.11-.18-.11h-.42c-.64,0-.96,.2-.96,.59,0,.45,.26,.68,.79,.68,.17,0,.3,.07,.38,.21s.12,.3,.12,.47c0,.36-.12,.61-.35,.74-.4,0-.76-.26-1.1-.79s-.5-1.1-.5-1.72Zm4.5,.47c0-.2-.05-.36-.15-.47s-.22-.17-.36-.17h-1.18s.03,.09,.08,.23,.07,.22,.09,.26,.04,.11,.09,.22,.08,.19,.12,.23,.08,.1,.13,.16,.11,.11,.18,.13,.13,.04,.21,.04c.28,0,.48-.06,.61-.18s.19-.27,.19-.44Z"/>
    <path class="cls-2" d="M21.85,140.76c0-.45,.19-.82,.57-1.11s.96-.43,1.75-.43h1.16c.5,0,.86-.03,1.07-.08,.05-.02,.12-.12,.19-.33s.11-.34,.11-.41c0-.02,.06-.04,.19-.04s.21,0,.24,.02c0,.09-.03,.33-.05,.73s-.04,.69-.04,.87,.01,.47,.04,.85,.04,.62,.05,.71c-.03,.03-.11,.05-.24,.05s-.19-.02-.19-.05c0-.09-.04-.22-.11-.41s-.13-.29-.19-.3c-.23-.05-.53-.08-.89-.08h-1.05c-.58,0-.99,.08-1.24,.24s-.37,.42-.37,.77c0,.24,.04,.44,.13,.59s.22,.22,.38,.22h1.97c.5,0,.86-.03,1.07-.08,.05-.02,.12-.12,.19-.31s.11-.32,.11-.38c0-.02,.06-.04,.19-.04s.21,0,.24,.02c0,.09-.03,.33-.05,.71s-.04,.66-.04,.84,.01,.48,.04,.88,.04,.64,.05,.73c-.03,.03-.11,.05-.24,.05s-.19-.02-.19-.05c0-.09-.04-.23-.11-.43s-.13-.31-.19-.33c-.23-.05-.53-.08-.89-.08h-1.61c-.44,0-.73,.07-.88,.21-.06,.05-.11,.14-.15,.25s-.07,.2-.08,.28-.03,.12-.04,.12c-.27,0-.41-.02-.41-.06,0-.09-.02-.25-.06-.47s-.1-.5-.18-.86-.14-.62-.18-.82c0-.02,0-.03-.01-.05s-.01-.04-.01-.05v-.02s.01-.08,.06-.12,.09-.06,.12-.06c.22,.03,.34,.05,.36,.05,.04,0,.06,0,.07-.01,0-.02-.02-.04-.06-.08-.41-.44-.61-.98-.61-1.63Z"/>
    <path class="cls-2" d="M21.84,134.9c0-.34,.05-.65,.15-.94s.2-.5,.29-.62,.17-.21,.25-.27c.72,0,1.08,.21,1.08,.63,0,.3-.2,.54-.59,.69-.18,.07-.31,.16-.4,.26s-.13,.25-.13,.44c0,.62,.59,.94,1.76,.94,1.32,0,1.98-.44,1.98-1.32,0-.26-.04-.5-.11-.74s-.14-.4-.2-.49-.15-.22-.26-.38c.03-.07,.11-.11,.22-.11,.09,0,.17,.02,.23,.05,.2,.08,.42,.31,.67,.7s.38,.82,.38,1.31c0,.75-.26,1.38-.79,1.89s-1.17,.76-1.94,.76c-.72,0-1.33-.27-1.83-.81s-.76-1.21-.76-1.99Z"/>
    <path class="cls-2" d="M21.84,129.74c0-.7,.24-1.27,.73-1.69s.99-.64,1.49-.64c.18,0,.3,.04,.35,.11s.08,.22,.08,.44v2.65s.03,.07,.08,.07c.42,0,.8-.12,1.14-.36s.5-.58,.5-1.03c0-.26-.04-.5-.11-.74s-.14-.4-.2-.49-.15-.22-.26-.38c.03-.07,.11-.11,.22-.11,.09,0,.17,.02,.23,.05,.19,.08,.41,.31,.67,.7s.39,.83,.39,1.31c0,.72-.26,1.34-.79,1.86s-1.15,.78-1.89,.78-1.38-.23-1.89-.7-.76-1.08-.76-1.84Zm.64,.06c0,.3,.15,.53,.44,.67s.58,.21,.86,.21c.05,0,.07-.03,.07-.08v-1.49c0-.11-.07-.16-.22-.16-.3,0-.56,.08-.8,.24s-.35,.37-.35,.62Z"/>
    <path class="cls-2" d="M18.23,122.44l8.99,3.47s.1,.11,.17,.27,.1,.34,.1,.53c0,.05,0,.1-.02,.13s-.03,.06-.04,.06h-.02s-8.99-3.46-8.99-3.46c-.17-.08-.26-.27-.26-.57,0-.2,.02-.34,.07-.43Z"/>
    <path class="cls-2" d="M21.81,119.85c0-.69,.08-1.2,.23-1.52,.36-.08,.84-.12,1.45-.12,.07,0,.11,.05,.11,.15,0,.24-.03,.37-.09,.39-.33,.07-.59,.19-.77,.36s-.28,.44-.28,.8c0,.17,.04,.31,.12,.42s.2,.16,.36,.16c.18,0,.33-.08,.46-.23s.27-.39,.42-.69c.1-.21,.19-.38,.26-.5s.18-.28,.33-.48,.33-.35,.53-.45,.43-.15,.68-.15c.52,0,.91,.2,1.17,.59s.4,.9,.4,1.51c0,.27-.04,.58-.13,.91s-.19,.58-.32,.73c-.54,.09-1.02,.14-1.43,.14-.02-.03-.04-.09-.04-.18,0-.25,.04-.38,.11-.39,.77-.13,1.16-.55,1.16-1.27,0-.19-.04-.34-.13-.47s-.21-.19-.36-.19c-.2,0-.36,.08-.49,.25s-.31,.47-.53,.91c-.22,.45-.46,.79-.72,1.01s-.58,.33-.97,.33c-.53,0-.92-.2-1.17-.61s-.37-.88-.37-1.43Z"/>
    <path class="cls-2" d="M21.84,114.85c0-.7,.24-1.27,.73-1.69s.99-.64,1.49-.64c.18,0,.3,.04,.35,.11s.08,.22,.08,.44v2.65s.03,.07,.08,.07c.42,0,.8-.12,1.14-.36s.5-.58,.5-1.03c0-.26-.04-.5-.11-.74s-.14-.4-.2-.49-.15-.22-.26-.38c.03-.07,.11-.11,.22-.11,.09,0,.17,.02,.23,.05,.19,.08,.41,.31,.67,.7s.39,.83,.39,1.31c0,.72-.26,1.34-.79,1.86s-1.15,.78-1.89,.78-1.38-.23-1.89-.7-.76-1.08-.76-1.84Zm.64,.06c0,.3,.15,.53,.44,.67s.58,.21,.86,.21c.05,0,.07-.03,.07-.08v-1.49c0-.11-.07-.16-.22-.16-.3,0-.56,.08-.8,.24s-.35,.37-.35,.62Z"/>
    <path class="cls-2" d="M21.85,108.51c0-.74,.26-1.36,.77-1.85s1.11-.73,1.79-.73c.87,0,1.54,.28,2.03,.83s.73,1.25,.73,2.1c0,.09,0,.19-.02,.3s-.03,.19-.05,.26-.03,.11-.03,.12c0,.03,.06,.05,.19,.05h.59c.5,0,.86-.03,1.07-.08,.05-.02,.12-.12,.19-.33s.11-.34,.11-.41c0-.02,.06-.04,.19-.04s.21,0,.24,.02c0,.09-.03,.33-.05,.73s-.04,.69-.04,.87,.01,.48,.04,.88,.04,.64,.05,.73c-.03,.03-.11,.05-.24,.05s-.19-.02-.19-.05c0-.09-.04-.23-.11-.43s-.13-.31-.19-.33c-.23-.05-.53-.08-.89-.08h-4.11c-.44,0-.73,.07-.88,.21-.06,.05-.11,.14-.15,.25s-.07,.2-.08,.28-.03,.12-.04,.12c-.27,0-.41-.02-.41-.06,0-.48-.11-1.11-.34-1.89-.08-.24-.12-.37-.12-.39,0-.05,.05-.07,.15-.07,.05,0,.12,0,.21,.02-.27-.34-.4-.7-.4-1.08Zm.68,.18c0,.27,.08,.49,.25,.66s.37,.25,.62,.25h2.21c.3,0,.53-.1,.69-.29s.24-.4,.24-.62c0-.7-.58-1.05-1.73-1.05-1.52,0-2.27,.36-2.27,1.07Z"/>
    <path class="cls-2" d="M21.81,102.7c0-.55,.15-.97,.45-1.26s.85-.44,1.63-.44h1.9c.27,0,.4-.09,.4-.28,0-.13-.05-.27-.15-.4,.03-.05,.09-.08,.18-.08,.2,0,.34,.03,.43,.08,.1,.11,.21,.29,.32,.53s.17,.48,.17,.7c0,.19-.06,.37-.17,.54s-.24,.29-.39,.34c0,0,.02,.04,.06,.09s.09,.12,.15,.21,.11,.19,.16,.3,.1,.25,.14,.4,.06,.31,.06,.47c0,.43-.12,.77-.36,1.03s-.54,.38-.9,.38c-.21,0-.4-.05-.58-.15s-.32-.21-.43-.34-.22-.3-.32-.52-.17-.41-.22-.56-.11-.36-.18-.6-.12-.42-.15-.51c-.02-.07-.08-.11-.18-.11h-.42c-.64,0-.96,.2-.96,.59,0,.45,.26,.68,.79,.68,.17,0,.3,.07,.38,.21s.12,.3,.12,.47c0,.36-.12,.61-.35,.74-.4,0-.76-.26-1.1-.79s-.5-1.1-.5-1.72Zm4.5,.47c0-.2-.05-.36-.15-.47s-.22-.17-.36-.17h-1.18s.03,.09,.08,.23,.07,.22,.09,.26,.04,.11,.09,.22,.08,.19,.12,.23,.08,.1,.13,.16,.11,.11,.18,.13,.13,.04,.21,.04c.28,0,.48-.06,.61-.18s.19-.27,.19-.44Z"/>
    <path class="cls-2" d="M21.84,95.82c0-.34,.14-.68,.43-1.01,.41,0,.71,.05,.9,.15s.29,.28,.29,.53c0,.16-.09,.34-.27,.54s-.27,.38-.27,.54c0,.23,.13,.4,.39,.5s.54,.15,.84,.15h1.18c.49,0,.84-.03,1.05-.08,.05-.02,.12-.12,.19-.31s.11-.32,.11-.38c0-.02,.06-.04,.19-.04s.21,0,.24,.02c0,.09-.03,.33-.05,.71s-.04,.66-.04,.84,.01,.48,.04,.88,.04,.64,.05,.73c-.03,.03-.11,.05-.24,.05s-.19-.02-.19-.05c0-.09-.04-.23-.11-.43s-.13-.31-.19-.33c-.23-.05-.53-.08-.89-.08h-1.61c-.44,0-.73,.07-.88,.21-.06,.05-.11,.14-.15,.25s-.07,.2-.08,.28-.03,.12-.04,.12c-.27,0-.41-.02-.41-.06,0-.09-.02-.25-.06-.47s-.1-.5-.18-.86-.14-.62-.18-.82c-.02-.08-.04-.12-.04-.13,0-.04,.03-.08,.08-.12s.09-.06,.12-.06c.09,.02,.2,.03,.3,.04s.18,.02,.21,.02c-.51-.38-.76-.82-.76-1.32Z"/>
    <path class="cls-2" d="M21.81,91.55c0-.55,.15-.97,.45-1.26s.85-.44,1.63-.44h1.9c.27,0,.4-.09,.4-.28,0-.13-.05-.27-.15-.4,.03-.05,.09-.08,.18-.08,.2,0,.34,.03,.43,.08,.1,.11,.21,.29,.32,.53s.17,.48,.17,.7c0,.19-.06,.37-.17,.54s-.24,.29-.39,.34c0,0,.02,.04,.06,.09s.09,.12,.15,.21,.11,.19,.16,.3,.1,.25,.14,.4,.06,.31,.06,.47c0,.43-.12,.77-.36,1.03s-.54,.38-.9,.38c-.21,0-.4-.05-.58-.15s-.32-.21-.43-.34-.22-.3-.32-.52-.17-.41-.22-.56-.11-.36-.18-.6-.12-.42-.15-.51c-.02-.07-.08-.11-.18-.11h-.42c-.64,0-.96,.2-.96,.59,0,.45,.26,.68,.79,.68,.17,0,.3,.07,.38,.21s.12,.3,.12,.47c0,.36-.12,.61-.35,.74-.4,0-.76-.26-1.1-.79s-.5-1.1-.5-1.72Zm4.5,.47c0-.2-.05-.36-.15-.47s-.22-.17-.36-.17h-1.18s.03,.09,.08,.23,.07,.22,.09,.26,.04,.11,.09,.22,.08,.19,.12,.23,.08,.1,.13,.16,.11,.11,.18,.13,.13,.04,.21,.04c.28,0,.48-.06,.61-.18s.19-.27,.19-.44Z"/>
    <path class="cls-2" d="M22.74,87.66v.76c0,.06-.12,.09-.36,.09-.06,0-.11,0-.13-.02-.22-.44-.43-.79-.63-1.05-.09-.12-.2-.25-.33-.41s-.25-.29-.35-.4-.15-.17-.16-.18c0-.06,.01-.13,.04-.2s.06-.11,.09-.11h1.15v-1.27c0-.06,.04-.09,.12-.09,.23,0,.42,.04,.57,.12v1.24h2.78c.59,0,.89-.21,.89-.63,0-.12-.01-.22-.04-.32s-.06-.17-.09-.23-.05-.09-.05-.09c0-.03,.04-.06,.12-.1s.14-.05,.18-.05c.09,0,.22,.16,.39,.48s.25,.62,.25,.9c0,.43-.13,.8-.4,1.11s-.71,.46-1.31,.46h-2.71Z"/>
    <path class="cls-2" d="M25.33,81.7c.5,0,.86-.03,1.07-.08,.05-.02,.12-.13,.19-.33s.11-.34,.11-.4c0-.03,.06-.05,.19-.05s.21,0,.24,.02c0,.08-.03,.32-.05,.73s-.04,.7-.04,.88,.01,.48,.04,.87,.04,.64,.05,.73c-.03,.02-.11,.04-.24,.04s-.19-.01-.19-.04c0-.09-.04-.24-.11-.44s-.13-.31-.19-.32c-.23-.05-.53-.08-.89-.08h-1.61c-.44,0-.73,.07-.88,.21-.06,.05-.11,.13-.15,.24s-.07,.2-.08,.28-.03,.12-.04,.12c-.27,0-.41-.02-.41-.06,0-.16-.05-.5-.16-1.03s-.19-.9-.26-1.12c0,0-.01-.05-.04-.13,0-.05,.03-.09,.08-.12s.09-.05,.12-.05c.06,0,.18,.02,.35,.05s.32,.04,.45,.06,.25,.02,.37,.02h2.07Zm-4.86,1.48c-.17,.17-.37,.26-.62,.26s-.45-.09-.62-.26-.25-.38-.25-.62,.08-.44,.25-.61,.37-.25,.62-.25,.45,.08,.62,.25,.25,.37,.25,.61-.08,.44-.25,.62Z"/>
    <path class="cls-2" d="M22.61,79.49c-.52-.54-.77-1.19-.77-1.95s.26-1.42,.77-1.95,1.14-.8,1.89-.8,1.37,.27,1.89,.8,.77,1.18,.77,1.96-.26,1.42-.77,1.95-1.14,.8-1.89,.8-1.37-.27-1.89-.8Zm-.13-1.79c0,.23,.09,.41,.27,.56s.38,.25,.62,.29,.49,.07,.77,.07c1.59,0,2.38-.4,2.38-1.21,0-.33-.16-.57-.48-.72s-.7-.23-1.12-.23c-1.62,0-2.43,.41-2.43,1.23Z"/>
    <path class="cls-2" d="M21.85,69.93c0-.45,.19-.82,.57-1.11s.96-.43,1.75-.43h1.16c.5,0,.86-.03,1.07-.08,.05-.02,.12-.12,.19-.33s.11-.34,.11-.41c0-.02,.06-.04,.19-.04s.21,0,.24,.02c0,.09-.03,.33-.05,.73s-.04,.69-.04,.87,.01,.47,.04,.85,.04,.62,.05,.71c-.03,.03-.11,.05-.24,.05s-.19-.02-.19-.05c0-.09-.04-.22-.11-.41s-.13-.29-.19-.3c-.23-.05-.53-.08-.89-.08h-1.05c-.58,0-.99,.08-1.24,.24s-.37,.42-.37,.77c0,.24,.04,.44,.13,.59s.22,.22,.38,.22h1.97c.5,0,.86-.03,1.07-.08,.05-.02,.12-.12,.19-.31s.11-.32,.11-.38c0-.02,.06-.04,.19-.04s.21,0,.24,.02c0,.09-.03,.33-.05,.71s-.04,.66-.04,.84,.01,.48,.04,.88,.04,.64,.05,.73c-.03,.03-.11,.05-.24,.05s-.19-.02-.19-.05c0-.09-.04-.23-.11-.43s-.13-.31-.19-.33c-.23-.05-.53-.08-.89-.08h-1.61c-.44,0-.73,.07-.88,.21-.06,.05-.11,.14-.15,.25s-.07,.2-.08,.28-.03,.12-.04,.12c-.27,0-.41-.02-.41-.06,0-.09-.02-.25-.06-.47s-.1-.5-.18-.86-.14-.62-.18-.82c0-.02,0-.03-.01-.05s-.01-.04-.01-.05v-.02s.01-.08,.06-.12,.09-.06,.12-.06c.22,.03,.34,.05,.36,.05,.04,0,.06,0,.07-.01,0-.02-.02-.04-.06-.08-.41-.44-.61-.98-.61-1.63Z"/>
    <path class="cls-2" d="M23.5,65.34c-1.1,0-2.12,.17-3.06,.51s-1.53,.69-1.78,1.06c0,0-.02,.01-.04,.01-.05,0-.12-.01-.2-.04s-.12-.06-.12-.1c0-.16,.13-.39,.4-.7s.62-.63,1.06-.97,.99-.63,1.67-.87,1.36-.37,2.06-.37,1.38,.12,2.06,.37,1.23,.54,1.66,.87,.79,.65,1.05,.97,.4,.55,.4,.7c0,.04-.04,.07-.11,.1s-.13,.04-.19,.04c-.04,0-.06,0-.07-.02-.14-.3-.69-.63-1.65-1s-2.01-.56-3.17-.56Z"/>
  </g>
  <line class="cls-5" x1="0" y1="48.52" x2="413.61" y2="48.52"/>
  <line class="cls-5" x1="0" y1="20.82" x2="413.61" y2="20.82"/>
  <text class="cls-3" transform="translate(58.15 38.15)"><tspan x="0" y="0">Psychological</tspan></text>
  <text class="cls-3" transform="translate(244.66 37.72)"><tspan x="0" y="0">Physical</tspan></text>
  <text class="cls-3" transform="translate(0 8.92)"><tspan x="0" y="0">Types and drivers of the human (Eurocentric/Western) disconnect from nature</tspan></text>
  <text class="cls-4" transform="translate(241.42 83.23)"><tspan x="0" y="0">Early civilization (abandoning </tspan><tspan x="0" y="13">“the wild”) [35, 272, 273]</tspan><tspan x="0" y="39">Domestication of plants a</tspan><tspan x="0" y="52">nd animals [1, 35]</tspan><tspan x="0" y="78">Totalitarian agriculture, land tenure, </tspan><tspan x="0" y="91">and ownership [1, 274]</tspan><tspan x="0" y="117">Roman system of divide and rule [103]</tspan><tspan x="0" y="143">Colonialism (and a logic of domination) </tspan><tspan x="0" y="156">[1, 41, 44]</tspan><tspan x="0" y="182">Industrial revolution and a doctrine </tspan><tspan x="0" y="195">of progress [59, 62, 63, 241]</tspan><tspan x="0" y="221">Migration from rural to </tspan><tspan x="0" y="234">urban centers [39, 275]</tspan><tspan x="0" y="260">Alienation from food sources </tspan><tspan x="0" y="273">(esp. meat) [28, 276]</tspan><tspan x="0" y="299">Non-reliance/dependency on consumptive </tspan><tspan x="0" y="312">uses of nature [59]</tspan><tspan x="0" y="338">Adversarial nature, e.g., disease, fires, plagues, </tspan><tspan x="0" y="351">earthquakes, and extreme climatic events [57]</tspan><tspan x="0" y="377">Alienation from rural and wild </tspan><tspan x="0" y="390">environments [3, 7, 55, 160]</tspan></text>
  <line class="cls-5" x1="579.16" y1="48.52" x2="992.77" y2="48.52"/>
  <line class="cls-5" x1="579.16" y1="20.82" x2="992.77" y2="20.82"/>
  <text class="cls-3" transform="translate(637.31 38.15)"><tspan x="0" y="0">Psychological</tspan></text>
  <text class="cls-3" transform="translate(823.82 37.72)"><tspan x="0" y="0">Physical</tspan></text>
  <text class="cls-3" transform="translate(579.16 8.92)"><tspan x="0" y="0">Types and drivers of the human (Eurocentric/Western) disconnect from nature</tspan></text>
</svg>