<?xml version="1.0" encoding="UTF-8"?>
<svg id="Layer_1" data-name="Layer 1" xmlns="http://www.w3.org/2000/svg" viewBox="0 0 1106.76 649.84">
  <defs>
    <style>
      .cls-1 {
        fill: #464664;
      }

      .cls-2 {
        stroke: #8c96b4;
      }

      .cls-2, .cls-3 {
        fill: none;
        stroke-miterlimit: 10;
      }

      .cls-3 {
        stroke: #464664;
      }
    </style>
  </defs>
  <line class="cls-3" y1=".5" x2="501.76" y2=".5"/>
  <line class="cls-3" y1="45.5" x2="501.76" y2="45.5"/>
  <line class="cls-2" y1="131.5" x2="501.76" y2="131.5"/>
  <line class="cls-2" y1="237.5" x2="501.76" y2="237.5"/>
  <line class="cls-2" y1="297.5" x2="501.76" y2="297.5"/>
  <line class="cls-2" y1="387.5" x2="501.76" y2="387.5"/>
  <line class="cls-2" y1="567.5" x2="501.76" y2="567.5"/>
  <line class="cls-3" x1="605" y1=".5" x2="1106.76" y2=".5"/>
  <line class="cls-3" x1="605" y1="45.5" x2="1106.76" y2="45.5"/>
  <line class="cls-2" x1="605" y1="145.5" x2="1106.76" y2="145.5"/>
  <line class="cls-2" x1="605" y1="222.5" x2="1106.76" y2="222.5"/>
  <line class="cls-2" x1="605" y1="297.5" x2="1106.76" y2="297.5"/>
  <line class="cls-2" x1="605" y1="388.5" x2="1106.76" y2="388.5"/>
  <g>
    <path class="cls-1" d="M615.52,233.65h2.03c1.27,0,2.27,.38,2.98,1.12s1.07,1.63,1.07,2.65c0,1.12-.36,2.07-1.08,2.83s-1.72,1.14-2.98,1.14c-.16,0-.49,0-.97-.02s-.83-.02-1.04-.02l-1.56,.05s-.04-.09-.04-.19c0-.13,.01-.2,.04-.2,.1,0,.25-.03,.45-.08s.31-.11,.34-.18c.05-.16,.08-.52,.08-1.07v-4.43c0-.47-.03-.79-.08-.96-.02-.09-.13-.16-.33-.21s-.35-.08-.47-.08c-.03,0-.05-.06-.05-.18,0-.11,.02-.18,.05-.21,.52,.02,1.04,.04,1.56,.04h0Zm.64,1.5v4.59c0,.44,.04,.73,.13,.87,.12,.12,.6,.19,1.43,.19,1.59,0,2.38-1.14,2.38-3.42,0-.88-.21-1.62-.64-2.23s-1.03-.91-1.82-.91h-.06c-.75,0-1.17,.06-1.27,.19-.1,.14-.15,.38-.15,.73h0Z"/>
    <path class="cls-1" d="M624.83,236.18c.37,0,.7,.07,.98,.22s.52,.33,.68,.55,.29,.45,.38,.69,.13,.47,.13,.69c0,.17-.03,.28-.09,.32s-.18,.06-.36,.06h-2.8c-.05,0-.08,.02-.08,.07,0,.28,.05,.55,.15,.82s.28,.5,.52,.69,.54,.29,.88,.29c.12,0,.23,0,.34-.02s.21-.03,.3-.06,.18-.05,.25-.08,.14-.06,.22-.11,.13-.08,.16-.1,.11-.07,.23-.16c.02,0,.04,.03,.06,.07s.04,.08,.04,.12c0,.09-.02,.16-.07,.22-.12,.21-.35,.42-.69,.63s-.73,.32-1.16,.32c-.68,0-1.27-.25-1.76-.76s-.74-1.12-.74-1.83c0-.79,.23-1.43,.69-1.92s1.04-.74,1.74-.74v.02Zm-.08,.54c-.19,0-.36,.05-.5,.16s-.26,.24-.34,.4-.13,.3-.17,.44-.05,.25-.05,.35c0,.05,.02,.08,.07,.08h1.9c.07,0,.11-.06,.11-.18,0-.27-.09-.55-.28-.83s-.43-.42-.73-.42h0Z"/>
    <path class="cls-1" d="M629.64,236.17c.44,0,.89,.07,1.36,.2,.08,.35,.12,.79,.13,1.31,0,.06-.05,.09-.15,.09-.17,0-.27-.03-.28-.09-.05-.27-.17-.51-.35-.7s-.41-.29-.71-.29c-.23,0-.4,.05-.53,.15s-.19,.25-.19,.43c0,.11,.02,.21,.06,.3s.11,.17,.21,.25,.18,.14,.26,.19,.19,.11,.33,.19c.05,.03,.09,.05,.12,.06,.02,0,.07,.04,.18,.09s.17,.09,.19,.11,.09,.05,.19,.11,.17,.1,.21,.13,.1,.08,.18,.14,.14,.12,.18,.16,.08,.11,.14,.18,.1,.14,.12,.21,.04,.14,.06,.22,.03,.17,.03,.25c0,.49-.19,.88-.57,1.17s-.84,.43-1.38,.43c-.48,0-.99-.11-1.51-.33-.04-.13-.08-.35-.12-.65s-.06-.53-.06-.67c.05-.04,.1-.06,.16-.06,.18,0,.27,.03,.28,.09,.06,.33,.22,.59,.46,.79s.51,.3,.8,.3c.22,0,.4-.05,.54-.16s.21-.27,.21-.48c0-.08,0-.15-.03-.22s-.06-.13-.11-.2-.1-.12-.13-.16-.11-.1-.21-.16-.18-.11-.23-.13-.15-.08-.29-.15-.24-.13-.3-.16c-.36-.19-.64-.4-.83-.63s-.29-.51-.29-.84c0-.48,.19-.84,.56-1.1s.81-.39,1.31-.39v.02Z"/>
    <path class="cls-1" d="M634.29,239.7c0,.48,.03,.83,.09,1.05,.02,.05,.12,.11,.32,.17s.33,.09,.4,.09c.03,0,.05,.06,.05,.17s0,.19-.02,.23c-.05,0-.26-.02-.63-.05s-.63-.04-.8-.04c-.2,0-.47,0-.83,.04s-.56,.04-.62,.05c-.03-.03-.05-.11-.05-.22s.02-.18,.05-.18c.09,0,.23-.03,.42-.09s.3-.12,.32-.17c.05-.23,.08-.52,.08-.86v-1.91c0-.37-.06-.62-.19-.75-.07-.08-.16-.14-.27-.18s-.2-.06-.28-.07-.12-.02-.12-.04c0-.23,.02-.34,.07-.35,.22-.02,.54-.06,.95-.14s.72-.15,.93-.21c0,0,.04,0,.09-.02,.04,0,.07,.03,.09,.08s.03,.1,.02,.13c-.06,.5-.09,.84-.09,1.01v2.25h.02Zm-1.22-4.89c-.14-.14-.21-.32-.21-.52s.07-.37,.21-.51,.31-.21,.52-.21,.38,.07,.52,.21,.21,.31,.21,.51-.07,.37-.21,.52-.31,.22-.52,.22-.38-.07-.52-.22Z"/>
    <path class="cls-1" d="M638.15,236.21c.28,0,.61,.05,.97,.15s.68,.15,.94,.15h.67s.04,.05,.08,.15,.06,.18,.06,.23c0,.11-.02,.16-.07,.16h-.76s-.05,0-.05,.04c0,0,.04,.11,.11,.3s.11,.38,.11,.56c0,.46-.19,.88-.58,1.25s-.87,.56-1.45,.56c-.28,0-.52-.02-.73-.05-.09,.04-.18,.11-.26,.22s-.12,.2-.12,.29c0,.08,.04,.14,.11,.2s.19,.09,.35,.12,.29,.04,.4,.05,.27,.02,.47,.02h.18c.78,.02,1.35,.13,1.72,.32s.54,.48,.54,.86c0,.59-.27,1.09-.84,1.52s-1.23,.64-1.98,.64c-.57,0-1.07-.1-1.49-.33s-.64-.55-.64-.96c0-.23,.11-.45,.33-.66s.46-.36,.72-.45c-.2-.06-.39-.18-.56-.36s-.26-.38-.26-.62c0-.34,.29-.68,.87-1.04-.23-.1-.44-.3-.63-.6s-.29-.62-.29-.96c0-.55,.2-.99,.61-1.31s.9-.48,1.49-.48l-.02,.03Zm1.62,6.13c0-.27-.2-.46-.59-.54s-.92-.13-1.59-.13c-.02,0-.04,0-.06,0-.02,0-.04,.02-.06,.04-.1,.04-.18,.07-.23,.1s-.12,.07-.19,.13-.12,.13-.16,.21-.05,.17-.05,.28c0,.28,.15,.52,.45,.7s.63,.28,1,.28c.44,0,.79-.1,1.07-.3s.42-.46,.42-.76v-.02Zm-2.52-4.43c0,.38,.08,.71,.23,.97s.38,.39,.66,.39,.5-.11,.64-.33,.21-.5,.21-.83c0-.41-.08-.75-.23-1.01s-.38-.39-.68-.39c-.28,0-.49,.12-.62,.36s-.2,.52-.2,.83h-.01Z"/>
    <path class="cls-1" d="M645.53,236.18c1.01,0,1.51,.8,1.51,2.4v1.11c0,.48,.03,.83,.08,1.05,.02,.05,.12,.11,.32,.17s.33,.09,.4,.09c.02,0,.04,.06,.04,.17s0,.19-.02,.23c-.05,0-.25-.02-.62-.05s-.63-.04-.81-.04-.45,0-.78,.04-.53,.04-.6,.05c-.03-.03-.05-.11-.05-.22s.02-.18,.05-.18c.09,0,.22-.03,.39-.09s.27-.12,.29-.17c.06-.23,.09-.52,.09-.86v-1.11c0-.65-.09-1.1-.26-1.36s-.46-.39-.84-.39c-.25,0-.47,.07-.66,.21s-.28,.28-.28,.44v2.02c0,.48,.03,.83,.08,1.05,.02,.05,.12,.11,.31,.17s.32,.09,.38,.09c.03,0,.05,.06,.05,.17s0,.19-.02,.23c-.06,0-.27-.02-.62-.05s-.61-.04-.79-.04-.46,0-.81,.04-.56,.04-.63,.05c-.03-.03-.05-.11-.05-.22s.02-.18,.05-.18c.09,0,.24-.03,.43-.09s.29-.12,.31-.17c.05-.23,.08-.52,.08-.86v-1.91c0-.37-.06-.62-.19-.75-.06-.08-.15-.14-.26-.18s-.21-.06-.28-.07-.11-.02-.11-.04c0-.23,.02-.34,.06-.35,.36-.03,.99-.15,1.89-.35,0,0,.02,0,.03-.02s.02,0,.04,0h.03s.06,.03,.08,.08,.04,.1,.04,.13c-.03,.22-.05,.36-.05,.42,0,.03,0,.05,.01,.06,0,0,.03,0,.06-.04,.19-.19,.43-.35,.72-.49s.59-.21,.9-.21v.02Z"/>
    <path class="cls-1" d="M654.71,233.22c.33,0,.6,.04,.81,.12s.36,.18,.43,.3c.03,.24,0,.46-.06,.65s-.22,.29-.43,.29c-.13,0-.25-.06-.36-.19s-.22-.26-.33-.39-.25-.19-.41-.19c-.21,0-.39,.1-.53,.3s-.24,.45-.3,.74-.09,.61-.09,.95v.54s0,.02,.02,.04,.03,.02,.05,.02h1.29s.05,0,.06,0,.01,.03,.01,.07c0,.17-.05,.35-.14,.54h-1.22s-.07,.02-.07,.07v2.61c0,.46,.03,.81,.09,1.05,.02,.05,.12,.11,.31,.17s.32,.09,.39,.09c.02,0,.04,.06,.04,.17s0,.19-.02,.23c-.05,0-.25-.02-.61-.05s-.63-.04-.82-.04-.45,0-.8,.04-.55,.04-.61,.05c-.02-.02-.04-.07-.05-.13s0-.12,0-.18,.02-.09,.05-.09c.09,0,.22-.03,.41-.09s.29-.12,.3-.17c.07-.27,.11-.59,.11-.96v-2.7c0-.05-.02-.08-.07-.08h-.7s-.02-.02-.02-.07c0-.09,.05-.2,.16-.34s.23-.21,.38-.21h.19s.07-.02,.07-.07v-.12c0-.82,.24-1.52,.73-2.11s1.06-.88,1.73-.88h0Z"/>
    <path class="cls-1" d="M658.3,236.18c.73,0,1.36,.26,1.88,.77s.78,1.13,.78,1.86-.26,1.35-.77,1.86-1.14,.77-1.88,.77-1.37-.26-1.89-.77-.77-1.14-.77-1.86,.26-1.36,.77-1.86,1.14-.76,1.88-.76h0Zm-.15,.54c-.37,0-.65,.18-.86,.53s-.3,.78-.3,1.27c0,.63,.13,1.18,.38,1.65s.61,.7,1.06,.7c.37,0,.65-.18,.86-.54s.31-.78,.31-1.27c0-.41-.05-.78-.15-1.13s-.27-.64-.49-.87-.5-.35-.81-.35h0Z"/>
    <path class="cls-1" d="M665.22,236.18c.43,0,.75,.13,.96,.39,0,.66-.19,1-.56,1-.14,0-.29-.08-.46-.23s-.33-.23-.5-.23c-.24,0-.43,.12-.57,.37s-.21,.5-.21,.77v1.46c0,.48,.03,.83,.08,1.05,.02,.05,.12,.11,.31,.17s.32,.09,.39,.09c.02,0,.04,.06,.04,.17v.23c-.06,0-.27-.02-.62-.05s-.62-.04-.8-.04-.46,0-.81,.04-.56,.04-.63,.05c-.03-.03-.05-.11-.05-.22s.02-.18,.05-.18c.09,0,.24-.03,.43-.09s.29-.12,.31-.17c.05-.23,.08-.52,.08-.86v-1.91c0-.37-.06-.62-.19-.75-.06-.08-.15-.14-.26-.18s-.21-.06-.28-.07-.11-.02-.11-.04c0-.23,.02-.34,.06-.35,.36-.03,.99-.15,1.89-.35,.05-.02,.09-.02,.09-.02,.03,0,.06,.03,.08,.08s.03,.1,.03,.13,0,.09-.02,.16-.02,.15-.03,.23-.02,.13-.02,.16c.14-.21,.33-.4,.57-.57s.49-.25,.74-.25h.01Z"/>
    <path class="cls-1" d="M615.85,251.17c.44,0,.89,.07,1.36,.2,.08,.35,.12,.79,.13,1.31,0,.06-.05,.09-.15,.09-.17,0-.27-.03-.28-.09-.05-.27-.17-.51-.35-.7s-.41-.29-.71-.29c-.23,0-.4,.05-.53,.15s-.19,.25-.19,.43c0,.11,.02,.21,.06,.3s.11,.17,.21,.25,.18,.14,.26,.19,.19,.11,.33,.19c.05,.03,.09,.05,.12,.06,.02,0,.07,.04,.18,.09s.17,.09,.19,.11,.09,.05,.19,.11,.17,.1,.21,.13,.1,.08,.18,.14,.14,.12,.18,.16,.08,.11,.14,.18,.1,.14,.12,.21,.04,.14,.06,.22,.03,.17,.03,.25c0,.49-.19,.88-.57,1.17-.38,.29-.84,.43-1.38,.43-.48,0-.99-.11-1.51-.33-.04-.13-.08-.35-.12-.65s-.06-.53-.06-.67c.05-.04,.1-.06,.16-.06,.18,0,.27,.03,.28,.09,.06,.33,.22,.59,.46,.79s.51,.3,.8,.3c.22,0,.4-.05,.54-.16s.21-.27,.21-.48c0-.08,0-.15-.03-.22s-.06-.13-.11-.2-.1-.12-.13-.16-.11-.1-.21-.16-.18-.11-.23-.13-.15-.08-.29-.15-.24-.13-.3-.16c-.36-.19-.64-.4-.83-.63s-.29-.51-.29-.84c0-.48,.19-.84,.56-1.1s.81-.39,1.31-.39v.02Z"/>
    <path class="cls-1" d="M621.07,251.18c.73,0,1.36,.26,1.88,.77s.78,1.13,.78,1.86-.26,1.35-.77,1.86-1.14,.77-1.88,.77-1.37-.26-1.89-.77-.77-1.14-.77-1.86,.26-1.36,.77-1.86,1.14-.76,1.88-.76h0Zm-.15,.54c-.37,0-.65,.18-.86,.53s-.3,.78-.3,1.27c0,.63,.13,1.18,.38,1.65s.61,.7,1.06,.7c.37,0,.65-.18,.86-.54s.31-.78,.31-1.27c0-.41-.05-.78-.15-1.13s-.27-.64-.49-.87-.5-.35-.81-.35h0Z"/>
    <path class="cls-1" d="M627.07,251.18c.41,0,.78,.07,1.11,.21s.56,.29,.7,.45c0,.27-.04,.49-.13,.66s-.22,.26-.4,.26c-.15,0-.27-.04-.36-.12s-.18-.21-.28-.39c-.18-.36-.44-.54-.79-.54s-.6,.17-.8,.51-.3,.77-.3,1.28c0,.7,.14,1.22,.43,1.56s.66,.51,1.1,.51c.12,0,.23,0,.34-.02s.21-.03,.3-.06,.18-.05,.25-.08,.14-.06,.22-.11,.13-.08,.16-.1,.11-.07,.23-.16c.02,0,.04,.03,.06,.07s.04,.08,.04,.12c0,.09-.02,.16-.07,.22-.12,.21-.35,.42-.69,.63-.34,.21-.73,.32-1.15,.32-.7,0-1.29-.25-1.78-.76s-.73-1.13-.73-1.86,.23-1.33,.7-1.85,1.08-.78,1.84-.78v.03Z"/>
    <path class="cls-1" d="M631.93,254.7c0,.48,.03,.83,.09,1.05,.02,.05,.12,.11,.32,.17s.33,.09,.4,.09c.03,0,.05,.06,.05,.17s0,.19-.02,.23c-.05,0-.26-.02-.63-.05s-.63-.04-.8-.04c-.2,0-.47,.01-.83,.04s-.56,.04-.62,.05c-.03-.03-.05-.11-.05-.22s.02-.18,.05-.18c.09,0,.23-.03,.42-.09s.3-.12,.32-.17c.05-.23,.08-.52,.08-.86v-1.91c0-.37-.06-.62-.19-.75-.07-.08-.16-.14-.27-.18s-.2-.06-.28-.07-.12-.02-.12-.04c0-.23,.02-.34,.07-.35,.22-.02,.54-.06,.95-.14s.72-.15,.93-.21c0,0,.04,0,.09-.02,.04,0,.07,.03,.09,.08s.03,.1,.02,.13c-.06,.5-.09,.84-.09,1.01v2.25h.02Zm-1.22-4.89c-.14-.14-.21-.32-.21-.52s.07-.37,.21-.51,.31-.21,.52-.21,.38,.07,.52,.21,.21,.31,.21,.51-.07,.37-.21,.52-.31,.22-.52,.22-.38-.07-.52-.22Z"/>
    <path class="cls-1" d="M636.01,251.18c.48,0,.85,.13,1.09,.38s.36,.69,.36,1.31v2.31c0,.16,.04,.28,.11,.36s.16,.12,.28,.12,.25-.05,.4-.15c.05,.02,.07,.06,.07,.13,0,.16-.02,.27-.07,.35-.12,.09-.27,.19-.47,.29s-.38,.15-.56,.15-.36-.07-.53-.2-.29-.28-.34-.43c0,0-.04,.03-.09,.08s-.12,.1-.21,.16c-.09,.06-.19,.12-.3,.19s-.25,.12-.4,.16-.31,.06-.46,.06c-.39,0-.71-.11-.96-.32s-.37-.51-.37-.88c0-.19,.04-.36,.13-.53s.2-.3,.32-.4,.29-.21,.5-.31,.39-.18,.54-.23,.35-.11,.59-.18,.4-.12,.5-.15c.07-.03,.11-.09,.11-.19v-.64c0-.27-.06-.49-.19-.64s-.29-.23-.5-.23c-.23,0-.42,.07-.55,.22s-.2,.35-.2,.62c0,.16-.06,.27-.18,.35s-.25,.11-.4,.11c-.29,0-.49-.09-.61-.28,0-.38,.26-.73,.77-1.05s1.05-.49,1.61-.49v-.05Zm-.52,4.5c.21,0,.39-.05,.54-.16s.23-.23,.23-.38v-1.2c-.05,.02-.17,.06-.35,.12s-.31,.1-.4,.14-.2,.09-.33,.16-.22,.16-.28,.26-.09,.21-.09,.33c0,.25,.06,.43,.19,.55s.29,.18,.48,.18h.01Z"/>
    <path class="cls-1" d="M641.08,254.68c0,.48,.03,.84,.08,1.05,.02,.05,.11,.12,.29,.18s.29,.1,.36,.1c.02,0,.04,.05,.04,.16s0,.18-.02,.22c-.11,0-.26-.02-.44-.03s-.35-.02-.5-.03-.29-.01-.42-.01c-.15,0-.3,0-.45,.01s-.31,.02-.49,.03-.33,.02-.45,.03c-.03-.03-.05-.1-.05-.22s.02-.17,.05-.17c.09,0,.22-.03,.39-.1s.27-.13,.29-.18c.06-.27,.09-.56,.09-.87v-4.88c0-.3-.02-.56-.07-.8-.04-.12-.23-.19-.59-.19h-.12s-.07-.05-.07-.14c0-.12,.02-.19,.07-.19,.24-.02,.47-.05,.69-.09s.4-.08,.54-.12,.27-.08,.38-.11,.19-.06,.25-.09l.08-.04h.02s.06,.02,.1,.07,.06,.09,.06,.12c-.09,.3-.14,.66-.14,1.1v5.16l.03,.03Z"/>
    <path class="cls-1" d="M647.41,254.7c0,.48,.03,.83,.09,1.05,.02,.05,.12,.11,.32,.17s.33,.09,.4,.09c.03,0,.05,.06,.05,.17s0,.19-.02,.23c-.05,0-.26-.02-.63-.05s-.63-.04-.8-.04c-.2,0-.47,.01-.83,.04s-.56,.04-.62,.05c-.03-.03-.05-.11-.05-.22s.02-.18,.05-.18c.09,0,.23-.03,.42-.09s.3-.12,.32-.17c.05-.23,.08-.52,.08-.86v-1.91c0-.37-.06-.62-.19-.75-.07-.08-.16-.14-.27-.18s-.2-.06-.28-.07-.12-.02-.12-.04c0-.23,.02-.34,.07-.35,.22-.02,.54-.06,.95-.14s.72-.15,.93-.21c0,0,.04,0,.09-.02,.04,0,.07,.03,.09,.08s.03,.1,.02,.13c-.06,.5-.09,.84-.09,1.01v2.25h.02Zm-1.22-4.89c-.14-.14-.21-.32-.21-.52s.07-.37,.21-.51,.31-.21,.52-.21,.38,.07,.52,.21,.21,.31,.21,.51-.07,.37-.21,.52-.31,.22-.52,.22-.38-.07-.52-.22Z"/>
    <path class="cls-1" d="M652.87,251.18c1.01,0,1.51,.8,1.51,2.4v1.11c0,.48,.03,.83,.08,1.05,.02,.05,.12,.11,.32,.17s.33,.09,.4,.09c.02,0,.04,.06,.04,.17s0,.19-.02,.23c-.05,0-.25-.02-.62-.05s-.63-.04-.81-.04-.45,.01-.78,.04-.53,.04-.6,.05c-.03-.03-.05-.11-.05-.22s.02-.18,.05-.18c.09,0,.22-.03,.39-.09s.27-.12,.29-.17c.06-.23,.09-.52,.09-.86v-1.11c0-.65-.09-1.1-.26-1.36s-.46-.39-.84-.39c-.25,0-.47,.07-.66,.21s-.28,.28-.28,.44v2.02c0,.48,.03,.83,.08,1.05,.02,.05,.12,.11,.31,.17s.32,.09,.38,.09c.03,0,.05,.06,.05,.17s0,.19-.02,.23c-.06,0-.27-.02-.62-.05s-.61-.04-.79-.04-.46,.01-.81,.04-.56,.04-.63,.05c-.03-.03-.05-.11-.05-.22s.02-.18,.05-.18c.09,0,.24-.03,.43-.09s.29-.12,.31-.17c.05-.23,.08-.52,.08-.86v-1.91c0-.37-.06-.62-.19-.75-.06-.08-.15-.14-.26-.18s-.21-.06-.28-.07-.11-.02-.11-.04c0-.23,.02-.34,.06-.35,.36-.03,.99-.15,1.89-.35,0,0,.02,0,.03-.02s.02,0,.04,0h.03s.06,.03,.08,.08,.04,.1,.04,.13c-.03,.22-.05,.36-.05,.42,0,.03,0,.05,.01,.06,0,0,.03,0,.06-.04,.19-.19,.43-.35,.72-.49s.59-.21,.9-.21v.02Z"/>
    <path class="cls-1" d="M659.9,251.18c1.01,0,1.51,.8,1.51,2.4v1.11c0,.48,.03,.83,.08,1.05,.02,.05,.12,.11,.32,.17s.33,.09,.4,.09c.02,0,.04,.06,.04,.17s0,.19-.02,.23c-.05,0-.25-.02-.62-.05s-.63-.04-.81-.04-.45,.01-.78,.04-.53,.04-.6,.05c-.03-.03-.05-.11-.05-.22s.02-.18,.05-.18c.09,0,.22-.03,.39-.09s.27-.12,.29-.17c.06-.23,.09-.52,.09-.86v-1.11c0-.65-.09-1.1-.26-1.36s-.46-.39-.84-.39c-.25,0-.47,.07-.66,.21s-.28,.28-.28,.44v2.02c0,.48,.03,.83,.08,1.05,.02,.05,.12,.11,.31,.17s.32,.09,.38,.09c.03,0,.05,.06,.05,.17s0,.19-.02,.23c-.06,0-.27-.02-.62-.05s-.61-.04-.79-.04-.46,.01-.81,.04-.56,.04-.63,.05c-.03-.03-.05-.11-.05-.22s.02-.18,.05-.18c.09,0,.24-.03,.43-.09s.29-.12,.31-.17c.05-.23,.08-.52,.08-.86v-1.91c0-.37-.06-.62-.19-.75-.06-.08-.15-.14-.26-.18s-.21-.06-.28-.07-.11-.02-.11-.04c0-.23,.02-.34,.06-.35,.36-.03,.99-.15,1.89-.35,0,0,.02,0,.03-.02s.02,0,.04,0h.03s.06,.03,.08,.08,.04,.1,.04,.13c-.03,.22-.05,.36-.05,.42,0,.03,0,.05,.01,.06,0,0,.03,0,.06-.04,.19-.19,.43-.35,.72-.49s.59-.21,.9-.21v.02Z"/>
    <path class="cls-1" d="M665.75,251.18c.73,0,1.36,.26,1.88,.77s.78,1.13,.78,1.86-.26,1.35-.77,1.86-1.14,.77-1.88,.77-1.37-.26-1.89-.77-.77-1.14-.77-1.86,.26-1.36,.77-1.86,1.14-.76,1.88-.76h0Zm-.15,.54c-.37,0-.65,.18-.86,.53s-.3,.78-.3,1.27c0,.63,.13,1.18,.38,1.65s.61,.7,1.06,.7c.37,0,.65-.18,.86-.54s.31-.78,.31-1.27c0-.41-.05-.78-.15-1.13s-.27-.64-.49-.87-.5-.35-.81-.35h0Z"/>
    <path class="cls-1" d="M673.56,251.92c-.1-.21-.38-.32-.82-.32-.02,0-.04-.05-.04-.16s.01-.18,.04-.21c.11,0,.3,0,.57,.04s.49,.04,.67,.04,.4,0,.69-.04,.47-.04,.57-.04c.02,.03,.04,.09,.04,.19,0,.12-.02,.19-.07,.19-.11,0-.26,.04-.46,.11s-.33,.19-.4,.33l-1.96,4.14c-.03,.06-.08,.13-.15,.2s-.14,.11-.2,.11c-.08,0-.12-.02-.14-.07-.16-.35-.37-.84-.64-1.46s-.5-1.15-.7-1.58-.42-.91-.67-1.45c-.09-.22-.35-.33-.76-.33-.03,0-.05-.06-.05-.19,0-.09,.02-.16,.05-.19,.07,0,.28,0,.62,.04s.61,.04,.8,.04,.46,0,.81-.04,.55-.04,.61-.04c.02,.03,.03,.1,.03,.21s-.02,.16-.05,.16c-.1,0-.24,.02-.42,.07s-.26,.11-.26,.19c0,.05,0,.09,.02,.12l1.16,2.7,1.05-2.32c.09-.2,.11-.35,.06-.43h0Z"/>
    <path class="cls-1" d="M678.45,251.18c.48,0,.85,.13,1.09,.38s.36,.69,.36,1.31v2.31c0,.16,.04,.28,.11,.36s.16,.12,.28,.12,.25-.05,.4-.15c.05,.02,.07,.06,.07,.13,0,.16-.02,.27-.07,.35-.12,.09-.27,.19-.47,.29s-.38,.15-.56,.15-.36-.07-.53-.2-.29-.28-.34-.43c0,0-.04,.03-.09,.08s-.12,.1-.21,.16c-.09,.06-.19,.12-.3,.19s-.25,.12-.4,.16-.31,.06-.46,.06c-.39,0-.71-.11-.96-.32s-.37-.51-.37-.88c0-.19,.04-.36,.13-.53s.2-.3,.32-.4,.29-.21,.5-.31,.39-.18,.54-.23,.35-.11,.59-.18,.4-.12,.5-.15c.07-.03,.11-.09,.11-.19v-.64c0-.27-.06-.49-.19-.64s-.29-.23-.5-.23c-.23,0-.42,.07-.55,.22s-.2,.35-.2,.62c0,.16-.06,.27-.18,.35s-.25,.11-.4,.11c-.29,0-.49-.09-.61-.28,0-.38,.26-.73,.77-1.05s1.05-.49,1.61-.49v-.05Zm-.52,4.5c.21,0,.39-.05,.54-.16s.23-.23,.23-.38v-1.2c-.05,.02-.17,.06-.35,.12s-.31,.1-.4,.14-.2,.09-.33,.16-.22,.16-.28,.26-.09,.21-.09,.33c0,.25,.06,.43,.19,.55s.29,.18,.48,.18h.01Z"/>
    <path class="cls-1" d="M681.53,253.94c0-.45,.05-.67,.14-.67h.01l2.82-.14h.01s.07,.04,.07,.11c0,.17-.01,.32-.04,.43s-.05,.19-.08,.22l-.04,.05-2.82,.13h-.02s-.02,0-.04-.04-.02-.05-.02-.09h.01Z"/>
    <path class="cls-1" d="M614.62,267h-.71c-.05,0-.08-.1-.08-.3,0-.05,0-.09,.01-.11,.31-.14,.61-.35,.9-.62,.1-.1,.21-.22,.33-.35s.26-.29,.43-.5c.08,0,.15,0,.22,.03s.11,.04,.11,.06v1.15h1.43c.06,0,.09,.04,.09,.11,0,.19-.04,.36-.12,.52h-1.41v2.82c0,.31,.07,.55,.2,.71s.32,.25,.55,.25c.08,0,.16,0,.25-.03s.16-.04,.21-.06,.11-.05,.15-.07,.07-.04,.08-.04c.03,0,.07,.03,.11,.11s.05,.13,.05,.15c-.05,.11-.21,.24-.5,.38s-.56,.22-.84,.22c-.41,0-.75-.13-1.04-.39s-.43-.67-.43-1.21v-2.84h.01Z"/>
    <path class="cls-1" d="M620.32,269.7c0,.48,.03,.83,.09,1.05,.02,.05,.12,.11,.32,.17s.33,.09,.4,.09c.03,0,.05,.06,.05,.17s0,.19-.02,.23c-.05,0-.26-.02-.63-.05s-.63-.04-.8-.04c-.2,0-.47,.01-.83,.04s-.56,.04-.62,.05c-.03-.03-.05-.11-.05-.22s.02-.18,.05-.18c.09,0,.23-.03,.42-.09s.3-.12,.32-.17c.05-.23,.08-.52,.08-.86v-1.91c0-.37-.06-.62-.19-.75-.07-.08-.16-.14-.27-.18s-.2-.06-.28-.07-.12-.02-.12-.04c0-.23,.02-.34,.07-.35,.22-.02,.54-.06,.95-.14s.72-.15,.93-.21c0,0,.04,0,.09-.02,.04,0,.07,.03,.09,.08s.03,.1,.02,.13c-.06,.5-.09,.84-.09,1.01v2.25h.02Zm-1.22-4.89c-.14-.14-.21-.32-.21-.52s.07-.37,.21-.51,.31-.21,.52-.21,.38,.07,.52,.21,.21,.31,.21,.51-.07,.37-.21,.52-.31,.22-.52,.22-.38-.07-.52-.22Z"/>
    <path class="cls-1" d="M624.59,266.18c.73,0,1.36,.26,1.88,.77s.78,1.13,.78,1.86-.26,1.35-.77,1.86-1.14,.77-1.88,.77-1.37-.26-1.89-.77-.77-1.14-.77-1.86,.26-1.36,.77-1.86,1.14-.76,1.88-.76h0Zm-.15,.54c-.37,0-.65,.18-.86,.53s-.3,.78-.3,1.27c0,.63,.13,1.18,.38,1.65s.61,.7,1.06,.7c.37,0,.65-.18,.86-.54s.31-.78,.31-1.27c0-.41-.05-.78-.15-1.13s-.27-.64-.49-.87-.5-.35-.81-.35h0Z"/>
    <path class="cls-1" d="M631.9,266.18c1.01,0,1.51,.8,1.51,2.4v1.11c0,.48,.03,.83,.08,1.05,.02,.05,.12,.11,.32,.17s.33,.09,.4,.09c.02,0,.04,.06,.04,.17s0,.19-.02,.23c-.05,0-.25-.02-.62-.05s-.63-.04-.81-.04-.45,.01-.78,.04-.53,.04-.6,.05c-.03-.03-.05-.11-.05-.22s.02-.18,.05-.18c.09,0,.22-.03,.39-.09s.27-.12,.29-.17c.06-.23,.09-.52,.09-.86v-1.11c0-.65-.09-1.1-.26-1.36s-.46-.39-.84-.39c-.25,0-.47,.07-.66,.21s-.28,.28-.28,.44v2.02c0,.48,.03,.83,.08,1.05,.02,.05,.12,.11,.31,.17s.32,.09,.38,.09c.03,0,.05,.06,.05,.17s0,.19-.02,.23c-.06,0-.27-.02-.62-.05s-.61-.04-.79-.04-.46,.01-.81,.04-.56,.04-.63,.05c-.03-.03-.05-.11-.05-.22s.02-.18,.05-.18c.09,0,.24-.03,.43-.09s.29-.12,.31-.17c.05-.23,.08-.52,.08-.86v-1.91c0-.37-.06-.62-.19-.75-.06-.08-.15-.14-.26-.18s-.21-.06-.28-.07-.11-.02-.11-.04c0-.23,.02-.34,.06-.35,.36-.03,.99-.15,1.89-.35,0,0,.02-.01,.03-.02s.02,0,.04,0h.03s.06,.03,.08,.08,.04,.1,.04,.13c-.03,.22-.05,.36-.05,.42,0,.03,0,.05,.01,.06,0,0,.03-.01,.06-.04,.19-.19,.43-.35,.72-.49s.59-.21,.9-.21v.02Z"/>
    <path class="cls-1" d="M638.85,267.79c0,1.15,.19,2.19,.57,3.12s.72,1.47,1.02,1.62c.02,0,.02,.03,.02,.07,0,.05-.01,.1-.04,.17s-.06,.1-.1,.1c-.15,0-.36-.13-.64-.39s-.56-.6-.86-1.03-.55-.97-.76-1.63-.32-1.34-.32-2.04,.1-1.39,.31-2.06,.45-1.23,.74-1.67,.57-.79,.85-1.06,.51-.4,.68-.4c.04,0,.07,.04,.1,.11s.04,.14,.04,.19t-.01,.02c-.38,.22-.75,.8-1.09,1.76s-.52,1.99-.52,3.11h0Z"/>
    <path class="cls-1" d="M642.81,263.65h2.03c1.27,0,2.27,.38,2.98,1.12s1.07,1.63,1.07,2.65c0,1.12-.36,2.07-1.08,2.83s-1.72,1.14-2.98,1.14c-.16,0-.49,0-.97-.02s-.83-.02-1.04-.02l-1.56,.05s-.04-.09-.04-.19c0-.13,.01-.2,.04-.2,.1,0,.25-.03,.45-.08s.31-.11,.34-.18c.05-.16,.08-.52,.08-1.07v-4.43c0-.47-.03-.79-.08-.96-.02-.09-.13-.16-.33-.21s-.35-.08-.47-.08c-.03,0-.05-.06-.05-.18,0-.11,.02-.18,.05-.21,.52,.02,1.04,.04,1.56,.04h0Zm.64,1.5v4.59c0,.44,.04,.73,.13,.87,.12,.12,.6,.19,1.43,.19,1.59,0,2.38-1.14,2.38-3.42,0-.88-.21-1.62-.64-2.23s-1.03-.91-1.82-.91h-.06c-.75,0-1.17,.06-1.27,.19-.1,.14-.15,.38-.15,.73h0Z"/>
    <path class="cls-1" d="M653.06,263.22c.33,0,.6,.04,.81,.12s.36,.18,.43,.3c.03,.24,0,.46-.06,.65s-.22,.29-.43,.29c-.13,0-.25-.06-.36-.19l-.33-.39c-.11-.13-.25-.19-.41-.19-.21,0-.39,.1-.53,.3s-.24,.45-.3,.74-.09,.61-.09,.95v.54s0,.02,.02,.04,.03,.02,.05,.02h1.29s.05,0,.06,.01,.01,.03,.01,.07c0,.17-.05,.35-.14,.54h-1.22s-.07,.02-.07,.07v2.61c0,.46,.03,.81,.09,1.05,.02,.05,.12,.11,.31,.17s.32,.09,.39,.09c.02,0,.04,.06,.04,.17s0,.19-.02,.23c-.05,0-.25-.02-.61-.05s-.63-.04-.82-.04-.45,.01-.8,.04-.55,.04-.61,.05c-.02-.02-.04-.07-.05-.13s0-.12,0-.18,.02-.09,.05-.09c.09,0,.22-.03,.41-.09s.29-.12,.3-.17c.07-.27,.11-.59,.11-.96v-2.7s-.02-.08-.07-.08h-.7s-.02-.02-.02-.07c0-.09,.05-.2,.16-.34s.23-.21,.38-.21h.19s.07-.02,.07-.07v-.12c0-.82,.24-1.52,.73-2.11s1.06-.88,1.73-.88h0Z"/>
    <path class="cls-1" d="M654.13,265.62c0-.59,.25-1.08,.74-1.48s1.05-.6,1.66-.6c.22,0,.41,.01,.57,.04s.39,.07,.69,.15,.49,.12,.6,.15c.09,.53,.14,1.13,.14,1.8-.02,.07-.06,.11-.14,.11-.21,0-.32-.04-.34-.11-.05-.36-.21-.71-.5-1.05s-.64-.52-1.05-.52c-.36,0-.63,.1-.83,.3s-.29,.48-.29,.82c0,.12,.01,.23,.04,.33s.08,.21,.16,.31,.15,.19,.2,.25,.15,.15,.29,.25,.24,.17,.29,.21,.17,.12,.35,.23,.29,.18,.33,.19c.05,.04,.18,.12,.39,.25s.37,.22,.45,.28,.21,.16,.38,.3,.28,.27,.36,.4,.14,.28,.21,.47,.09,.4,.09,.62c0,.62-.25,1.14-.76,1.55s-1.09,.61-1.75,.61c-.47,0-1.19-.11-2.16-.33-.07-.28-.13-.63-.19-1.06s-.09-.71-.09-.84c0-.06,.07-.09,.19-.09,.2,0,.32,.03,.34,.09,.03,.14,.09,.29,.16,.46s.19,.35,.32,.54,.32,.35,.55,.47,.49,.18,.78,.18c.37,0,.67-.11,.91-.33s.36-.55,.36-.98c0-.13-.03-.26-.08-.39s-.11-.23-.18-.32-.16-.18-.29-.28-.24-.18-.32-.23-.21-.13-.38-.23-.29-.17-.36-.21c-.02-.02-.07-.05-.13-.09-.23-.14-.4-.25-.52-.33s-.27-.19-.45-.35-.32-.29-.42-.43-.18-.3-.25-.49-.11-.41-.11-.63h.04Z"/>
    <path class="cls-1" d="M660.65,265.25c0-.47-.03-.8-.09-.98-.03-.06-.14-.12-.33-.18s-.33-.09-.42-.09c-.03,0-.05-.06-.05-.18s0-.2,.02-.21c.04,0,.26,.01,.65,.04s.7,.04,.91,.04c.06,0,.56-.02,1.5-.07,.02,.07,.04,.13,.04,.19,0,.13-.02,.2-.05,.2-.07,0-.21,.03-.42,.09s-.32,.12-.34,.18c-.06,.24-.09,.59-.09,1.03v4.41c0,.43,.04,.78,.11,1.05,.02,.05,.12,.11,.32,.17s.33,.09,.4,.09c.03,0,.05,.07,.05,.22,0,.06,0,.12-.02,.16-.94-.05-1.43-.07-1.49-.07-.16,0-.32,0-.49,.01s-.36,.02-.57,.03-.37,.02-.5,.03c-.03-.03-.05-.09-.05-.16,0-.15,.02-.22,.05-.22,.09,0,.24-.03,.44-.08s.31-.11,.33-.18c.06-.24,.09-.57,.09-.98v-4.54Z"/>
    <path class="cls-1" d="M665.29,267.79c0-1.12-.17-2.15-.52-3.11s-.7-1.54-1.08-1.76t-.02-.02s.02-.11,.05-.19,.07-.12,.11-.12c.18,0,.41,.14,.69,.41s.56,.63,.85,1.07,.53,1,.73,1.66,.3,1.35,.3,2.04-.11,1.35-.32,2-.46,1.2-.75,1.63-.57,.78-.85,1.05-.5,.4-.66,.4c-.04,0-.07-.03-.11-.1s-.05-.12-.05-.17c0-.04,0-.06,.02-.07,.3-.15,.64-.69,1.02-1.63s.57-1.98,.57-3.11l.02,.02Z"/>
  </g>
</svg>