<?xml version="1.0" encoding="UTF-8"?>
<svg id="Layer_1" data-name="Layer 1" xmlns="http://www.w3.org/2000/svg" xmlns:xlink="http://www.w3.org/1999/xlink" viewBox="0 0 816.16 800">
  <defs>
    <style>
      .cls-1, .cls-2, .cls-3 {
        fill: none;
      }

      .cls-2 {
        stroke: #373535;
        stroke-miterlimit: 17;
        stroke-width: 32px;
      }

      .cls-4 {
        clip-path: url(#clippath);
      }

      .cls-5 {
        fill: #373535;
      }

      .cls-6 {
        letter-spacing: 0em;
      }

      .cls-3 {
        stroke: #c8463c;
        stroke-width: 2px;
      }

      .cls-7 {
        font-size: 25.06px;
      }

      .cls-7, .cls-8, .cls-9, .cls-10, .cls-11, .cls-12, .cls-13, .cls-14, .cls-15, .cls-16, .cls-17, .cls-18, .cls-19, .cls-20, .cls-21, .cls-22, .cls-23, .cls-24, .cls-25, .cls-26, .cls-27, .cls-28, .cls-29, .cls-30, .cls-31, .cls-32, .cls-33, .cls-34, .cls-35, .cls-36, .cls-37, .cls-38, .cls-39, .cls-40, .cls-41, .cls-42, .cls-43, .cls-44, .cls-45, .cls-46, .cls-47, .cls-48, .cls-49, .cls-50, .cls-51, .cls-52, .cls-53, .cls-54, .cls-55, .cls-56, .cls-57, .cls-58, .cls-59, .cls-60, .cls-61, .cls-62, .cls-63, .cls-64, .cls-65, .cls-66, .cls-67, .cls-68, .cls-69, .cls-70, .cls-71, .cls-72, .cls-73, .cls-74, .cls-75, .cls-76, .cls-77, .cls-78 {
        font-family: CrimsonText-Regular, 'Crimson Text';
      }

      .cls-7, .cls-8, .cls-9, .cls-10, .cls-16, .cls-17, .cls-18, .cls-20, .cls-22, .cls-23, .cls-26, .cls-27, .cls-28, .cls-29, .cls-32, .cls-33, .cls-34, .cls-35, .cls-38, .cls-41, .cls-44, .cls-47, .cls-51, .cls-52, .cls-53, .cls-54, .cls-55, .cls-56, .cls-57, .cls-59, .cls-64, .cls-65, .cls-66, .cls-67, .cls-68, .cls-69, .cls-70, .cls-71, .cls-72, .cls-73, .cls-74, .cls-75, .cls-76, .cls-77, .cls-78 {
        fill: #8c1e19;
      }

      .cls-8 {
        font-size: 25.06px;
      }

      .cls-9 {
        font-size: 25.06px;
      }

      .cls-10 {
        font-size: 25.06px;
      }

      .cls-11 {
        font-size: 25.06px;
      }

      .cls-11, .cls-12, .cls-13, .cls-14, .cls-15, .cls-19, .cls-21, .cls-24, .cls-25, .cls-30, .cls-31, .cls-36, .cls-37, .cls-39, .cls-40, .cls-42, .cls-43, .cls-45, .cls-46, .cls-48, .cls-49, .cls-50, .cls-58, .cls-60, .cls-61, .cls-62, .cls-63, .cls-79, .cls-80, .cls-81, .cls-82, .cls-83, .cls-84, .cls-85, .cls-86, .cls-87, .cls-88, .cls-89, .cls-90, .cls-91, .cls-92, .cls-93, .cls-94, .cls-95, .cls-96, .cls-97, .cls-98, .cls-99, .cls-100, .cls-101, .cls-102, .cls-103, .cls-104, .cls-105, .cls-106, .cls-107, .cls-108, .cls-109, .cls-110, .cls-111 {
        fill: #c8463c;
      }

      .cls-12 {
        font-size: 25.06px;
      }

      .cls-13 {
        font-size: 25.06px;
      }

      .cls-14 {
        font-size: 25.06px;
      }

      .cls-15 {
        font-size: 25.06px;
      }

      .cls-16 {
        font-size: 25.06px;
      }

      .cls-17, .cls-19 {
        font-size: 25.06px;
      }

      .cls-18 {
        font-size: 25.06px;
      }

      .cls-20, .cls-25 {
        font-size: 25.06px;
      }

      .cls-21 {
        font-size: 25.06px;
      }

      .cls-22, .cls-30 {
        font-size: 25.06px;
      }

      .cls-23 {
        font-size: 25.06px;
      }

      .cls-24 {
        font-size: 25.06px;
      }

      .cls-26 {
        font-size: 25.06px;
      }

      .cls-27 {
        font-size: 25.06px;
      }

      .cls-28 {
        font-size: 25.06px;
      }

      .cls-29 {
        font-size: 25.06px;
      }

      .cls-31 {
        font-size: 25.06px;
      }

      .cls-32, .cls-42 {
        font-size: 25.06px;
      }

      .cls-33 {
        font-size: 25.06px;
      }

      .cls-34 {
        font-size: 25.06px;
      }

      .cls-35 {
        font-size: 25.06px;
      }

      .cls-36 {
        font-size: 25.06px;
      }

      .cls-37 {
        font-size: 25.06px;
      }

      .cls-38 {
        font-size: 25.06px;
      }

      .cls-39 {
        font-size: 25.06px;
      }

      .cls-40 {
        font-size: 25.06px;
      }

      .cls-41 {
        font-size: 25.06px;
      }

      .cls-43 {
        font-size: 25.06px;
      }

      .cls-44 {
        font-size: 25.06px;
      }

      .cls-45 {
        font-size: 25.06px;
      }

      .cls-46 {
        font-size: 25.06px;
      }

      .cls-47 {
        font-size: 25.06px;
      }

      .cls-48 {
        font-size: 25.06px;
      }

      .cls-49 {
        font-size: 25.06px;
      }

      .cls-50 {
        font-size: 25.06px;
      }

      .cls-51, .cls-60 {
        font-size: 25.06px;
      }

      .cls-52 {
        font-size: 25.06px;
      }

      .cls-53 {
        font-size: 25.06px;
      }

      .cls-54 {
        font-size: 25.06px;
      }

      .cls-55 {
        font-size: 25.06px;
      }

      .cls-56 {
        font-size: 25.06px;
      }

      .cls-57 {
        font-size: 25.06px;
      }

      .cls-58 {
        font-size: 25.06px;
      }

      .cls-59 {
        font-size: 25.06px;
      }

      .cls-61 {
        font-size: 25.06px;
      }

      .cls-62 {
        font-size: 25.06px;
      }

      .cls-63 {
        font-size: 25.06px;
      }

      .cls-112 {
        clip-path: url(#clippath-1);
      }

      .cls-113 {
        clip-path: url(#clippath-2);
      }

      .cls-64 {
        font-size: 27.38px;
      }

      .cls-65, .cls-108 {
        font-size: 27.38px;
      }

      .cls-66 {
        font-size: 27.38px;
      }

      .cls-67 {
        font-size: 27.38px;
      }

      .cls-68 {
        font-size: 27.38px;
      }

      .cls-69 {
        font-size: 27.38px;
      }

      .cls-70 {
        font-size: 27.38px;
      }

      .cls-71 {
        font-size: 27.38px;
      }

      .cls-72 {
        font-size: 27.38px;
      }

      .cls-73 {
        font-size: 27.38px;
      }

      .cls-74 {
        font-size: 27.38px;
      }

      .cls-75, .cls-101 {
        font-size: 27.38px;
      }

      .cls-76 {
        font-size: 27.38px;
      }

      .cls-77 {
        font-size: 27.38px;
      }

      .cls-78 {
        font-size: 27.38px;
      }

      .cls-114 {
        letter-spacing: -.02em;
      }

      .cls-115 {
        letter-spacing: .02em;
      }

      .cls-116 {
        letter-spacing: 0em;
      }

      .cls-117 {
        letter-spacing: 0em;
      }

      .cls-118 {
        letter-spacing: -.03em;
      }

      .cls-119 {
        letter-spacing: 0em;
      }

      .cls-120 {
        letter-spacing: .03em;
      }

      .cls-121 {
        letter-spacing: 0em;
      }

      .cls-79 {
        font-size: 26.25px;
      }

      .cls-79, .cls-80, .cls-81, .cls-82, .cls-83, .cls-84, .cls-85, .cls-86, .cls-87, .cls-88, .cls-89, .cls-90, .cls-91, .cls-92, .cls-93, .cls-94, .cls-95, .cls-96, .cls-97, .cls-98, .cls-99, .cls-100, .cls-101, .cls-102, .cls-103, .cls-104, .cls-105, .cls-106, .cls-107, .cls-108, .cls-109, .cls-110, .cls-111, .cls-122 {
        font-family: Larken-Black, Larken-Black;
      }

      .cls-80 {
        font-size: 26.25px;
      }

      .cls-81 {
        font-size: 26.25px;
      }

      .cls-82 {
        font-size: 26.25px;
      }

      .cls-83 {
        font-size: 26.25px;
      }

      .cls-84 {
        font-size: 26.25px;
      }

      .cls-123 {
        letter-spacing: 0em;
      }

      .cls-85 {
        font-size: 26.25px;
      }

      .cls-86 {
        font-size: 26.25px;
      }

      .cls-87 {
        font-size: 26.25px;
      }

      .cls-88 {
        font-size: 26.25px;
      }

      .cls-89 {
        font-size: 26.25px;
      }

      .cls-90 {
        font-size: 26.25px;
      }

      .cls-91 {
        font-size: 26.25px;
      }

      .cls-92 {
        font-size: 26.25px;
      }

      .cls-93 {
        font-size: 26.25px;
      }

      .cls-94 {
        font-size: 26.25px;
      }

      .cls-95 {
        font-size: 26.25px;
      }

      .cls-96 {
        font-size: 27.38px;
      }

      .cls-97 {
        font-size: 27.38px;
      }

      .cls-98 {
        font-size: 27.38px;
      }

      .cls-99 {
        font-size: 27.38px;
      }

      .cls-100 {
        font-size: 27.38px;
      }

      .cls-102 {
        font-size: 27.38px;
      }

      .cls-103 {
        font-size: 27.38px;
      }

      .cls-104 {
        font-size: 27.38px;
      }

      .cls-105 {
        font-size: 27.38px;
      }

      .cls-106 {
        font-size: 27.38px;
      }

      .cls-107 {
        font-size: 27.38px;
      }

      .cls-109 {
        font-size: 27.38px;
      }

      .cls-110 {
        font-size: 27.38px;
      }

      .cls-111 {
        font-size: 27.38px;
      }

      .cls-122 {
        fill: #fff;
        font-size: 27.38px;
      }
    </style>
    <clipPath id="clippath">
      <rect class="cls-1" width="809.83" height="800"/>
    </clipPath>
    <clipPath id="clippath-1">
      <rect class="cls-1" width="809.83" height="800"/>
    </clipPath>
    <clipPath id="clippath-2">
      <rect class="cls-1" width="809.83" height="800"/>
    </clipPath>
  </defs>
  <g class="cls-4">
    <circle class="cls-3" cx="389.4" cy="388.11" r="281.32"/>
    <circle class="cls-3" cx="390.4" cy="384.69" r="316.72"/>
  </g>
  <text class="cls-95" transform="translate(244.31 136.93) rotate(-27.23)"><tspan x="0" y="0">E</tspan></text>
  <text class="cls-92" transform="translate(260.5 128.61) rotate(-24.47)"><tspan x="0" y="0">C</tspan></text>
  <text class="cls-89" transform="translate(278.53 120.57) rotate(-20.32)"><tspan x="0" y="0">O</tspan></text>
  <text class="cls-80" transform="translate(298.82 113.23) rotate(-16.13)"><tspan x="0" y="0">L</tspan></text>
  <text class="cls-88" transform="translate(315.17 108.32) rotate(-11.9)"><tspan x="0" y="0">O</tspan></text>
  <text class="cls-84" transform="translate(336.53 103.65) rotate(-7.64)"><tspan x="0" y="0">G</tspan></text>
  <text class="cls-79" transform="translate(357.66 100.86) rotate(-4.78)"><tspan x="0" y="0">I</tspan></text>
  <text class="cls-90" transform="translate(368.27 99.81) rotate(-1.91)"><tspan x="0" y="0">C</tspan></text>
  <text class="cls-94" transform="translate(388.01 99) rotate(2.43)"><tspan x="0" y="0">A</tspan></text>
  <text class="cls-86" transform="translate(409.04 99.9) rotate(5.32)"><tspan x="0" y="0">L</tspan></text>
  <text class="cls-83" transform="translate(426.15 101.62) rotate(8.22)"><tspan x="0" y="0"> </tspan></text>
  <text class="cls-87" transform="translate(433.6 102.41) rotate(11.13)"><tspan x="0" y="0">C</tspan></text>
  <text class="cls-91" transform="translate(452.98 106.19) rotate(14.02)"><tspan x="0" y="0">E</tspan></text>
  <text class="cls-81" transform="translate(470.73 110.75) rotate(16.91)"><tspan x="0" y="0">I</tspan></text>
  <text class="cls-93" transform="translate(481.07 113.82) rotate(19.78)"><tspan x="0" y="0">L</tspan></text>
  <text class="cls-87" transform="translate(497.24 119.69) rotate(22.64)"><tspan x="0" y="0">I</tspan></text>
  <text class="cls-82" transform="translate(507.25 123.71) rotate(25.49)"><tspan x="0" y="0">N</tspan></text>
  <text class="cls-85" transform="translate(526.41 132.88) rotate(29.72)"><tspan x="0" y="0">G</tspan></text>
  <g class="cls-112">
    <path class="cls-3" d="M389.4,588.47c110.66,0,200.36-89.7,200.36-200.36s-89.7-200.36-200.36-200.36-200.36,89.7-200.36,200.36,89.7,200.36,200.36,200.36Z"/>
  </g>
  <text class="cls-97" transform="translate(260.62 217.73) rotate(-34.87)"><tspan x="0" y="0">S</tspan></text>
  <text class="cls-110" transform="translate(274.63 207.81) rotate(-29.29)"><tspan x="0" y="0">O</tspan></text>
  <text class="cls-96" transform="translate(292.67 197.55) rotate(-23.77)"><tspan x="0" y="0">C</tspan></text>
  <text class="cls-102" transform="translate(309.67 190.16) rotate(-21.02)"><tspan x="0" y="0">I</tspan></text>
  <text class="cls-101" transform="translate(318.22 186.74) rotate(-16.92)"><tspan x="0" y="0">A</tspan></text>
  <text class="cls-99" transform="translate(337.29 180.97) rotate(-11.45)"><tspan x="0" y="0">L</tspan></text>
  <text class="cls-107" transform="translate(352.86 177.85) rotate(-8.72)"><tspan x="0" y="0"> </tspan></text>
  <text class="cls-98" transform="translate(358.53 176.8) rotate(-5.98)"><tspan x="0" y="0">F</tspan></text>
  <text class="cls-111" transform="translate(373.97 175.11) rotate(-1.85)"><tspan x="0" y="0">O</tspan></text>
  <text class="cls-107" transform="translate(394.56 174.59) rotate(3.68)"><tspan x="0" y="0">U</tspan></text>
  <text class="cls-100" transform="translate(414 175.88) rotate(9.28)"><tspan x="0" y="0">N</tspan></text>
  <text class="cls-103" transform="translate(434.31 179.21) rotate(14.93)"><tspan x="0" y="0">D</tspan></text>
  <text class="cls-109" transform="translate(452.46 184.09) rotate(19.22)"><tspan x="0" y="0">A</tspan></text>
  <text class="cls-106" transform="translate(468.97 189.78) rotate(24.98)"><tspan x="0" y="0">T</tspan></text>
  <text class="cls-108" transform="translate(485.62 197.62) rotate(27.87)"><tspan x="0" y="0">I</tspan></text>
  <text class="cls-105" transform="translate(493.74 201.67) rotate(32.23)"><tspan x="0" y="0">O</tspan></text>
  <text class="cls-104" transform="translate(510.83 212.2) rotate(38.02)"><tspan x="0" y="0">N</tspan></text>
  <g class="cls-113">
    <circle class="cls-3" cx="389.4" cy="388.11" r="242.65"/>
  </g>
  <text class="cls-45" transform="translate(154.8 522.34) rotate(59.41)"><tspan x="0" y="0">R</tspan></text>
  <text class="cls-15" transform="translate(162.99 536.26) rotate(55.27)"><tspan x="0" y="0">E</tspan></text>
  <text class="cls-21" transform="translate(170.85 547.82) rotate(52.52)"><tspan x="0" y="0">G</tspan></text>
  <text class="cls-39" transform="translate(181.57 561.65) rotate(49.78)"><tspan x="0" y="0">E</tspan></text>
  <text class="cls-11" transform="translate(190.58 572.33) rotate(45.68)"><tspan x="0" y="0">N</tspan></text>
  <text class="cls-19" transform="translate(202.83 585.05) rotate(41.58)"><tspan x="0" y="0">A</tspan></text>
  <text class="cls-30" transform="translate(215.31 596.21) rotate(38.85)"><tspan x="0" y="0">T</tspan></text>
  <text class="cls-50" transform="translate(228.12 606.39) rotate(36.1)"><tspan x="0" y="0">I</tspan></text>
  <text class="cls-43" transform="translate(234.33 611.09) rotate(33.35)"><tspan x="0" y="0">V</tspan></text>
  <text class="cls-45" transform="translate(248.87 620.56) rotate(30.59)"><tspan x="0" y="0">E</tspan></text>
  <text class="cls-49" transform="translate(260.96 627.56) rotate(27.82)"><tspan x="0" y="0"> </tspan></text>
  <text class="cls-13" transform="translate(265.81 630.38) rotate(25.03)"><tspan x="0" y="0">A</tspan></text>
  <text class="cls-58" transform="translate(280.96 637.51) rotate(22.22)"><tspan x="0" y="0">N</tspan></text>
  <text class="cls-63" transform="translate(297.3 644.18) rotate(17.99)"><tspan x="0" y="0">D</tspan></text>
  <text class="cls-40" transform="translate(314.12 649.56) rotate(15.14)"><tspan x="0" y="0"> </tspan></text>
  <text class="cls-36" transform="translate(319.51 651.1) rotate(13.71)"><tspan x="0" y="0">D</tspan></text>
  <text class="cls-61" transform="translate(336.73 655.06) rotate(10.85)"><tspan x="0" y="0">I</tspan></text>
  <text class="cls-48" transform="translate(344.37 656.57) rotate(7.97)"><tspan x="0" y="0">S</tspan></text>
  <text class="cls-37" transform="translate(356.25 658.34) rotate(5.07)"><tspan x="0" y="0">T</tspan></text>
  <text class="cls-46" transform="translate(372.56 659.78) rotate(2.18)"><tspan x="0" y="0">R</tspan></text>
  <text class="cls-13" transform="translate(388.7 660.25) rotate(-.72)"><tspan x="0" y="0">I</tspan></text>
  <text class="cls-25" transform="translate(396.49 660.31) rotate(-3.63)"><tspan x="0" y="0">B</tspan></text>
  <text class="cls-14" transform="translate(410.96 659.52) rotate(-6.52)"><tspan x="0" y="0">U</tspan></text>
  <text class="cls-42" transform="translate(428.44 657.45) rotate(-9.41)"><tspan x="0" y="0">T</tspan></text>
  <text class="cls-24" transform="translate(444.54 654.55) rotate(-12.28)"><tspan x="0" y="0">I</tspan></text>
  <text class="cls-40" transform="translate(452.16 652.95) rotate(-15.14)"><tspan x="0" y="0">V</tspan></text>
  <text class="cls-60" transform="translate(468.92 648.44) rotate(-19.4)"><tspan x="0" y="0">E</tspan></text>
  <text class="cls-31" transform="translate(482.09 643.79) rotate(-20.82)"><tspan x="0" y="0"> </tspan></text>
  <text class="cls-58" transform="translate(487.34 641.81) rotate(-22.22)"><tspan x="0" y="0">E</tspan></text>
  <text class="cls-62" transform="translate(500.26 636.49) rotate(-26.42)"><tspan x="0" y="0">C</tspan></text>
  <text class="cls-12" transform="translate(514.63 629.34) rotate(-29.21)"><tspan x="0" y="0">O</tspan></text>
  <text class="cls-43" transform="translate(530.12 620.53) rotate(-33.35)"><tspan x="0" y="0">N</tspan></text>
  <text class="cls-21" transform="translate(544.86 610.82) rotate(-37.48)"><tspan x="0" y="0">O</tspan></text>
  <text class="cls-19" transform="translate(559.07 600.05) rotate(-41.58)"><tspan x="0" y="0">M</tspan></text>
  <text class="cls-11" transform="translate(575.65 585.19) rotate(-45.68)"><tspan x="0" y="0">Y</tspan></text>
  <text class="cls-17" transform="translate(213.77 200.85) rotate(-40.37)"><tspan x="0" y="0">T</tspan></text>
  <text class="cls-52" transform="translate(226.28 190.28) rotate(-36.34)"><tspan x="0" y="0">h</tspan></text>
  <text class="cls-51" transform="translate(236.67 182.52) rotate(-33.65)"><tspan x="0" y="0">e</tspan></text>
  <text class="cls-56" transform="translate(245.41 176.66) rotate(-32.31)"><tspan x="0" y="0"> </tspan></text>
  <text class="cls-34" transform="translate(250.13 173.63) rotate(-30.95)"><tspan x="0" y="0">s</tspan></text>
  <text class="cls-38" transform="translate(257.67 169.13) rotate(-29.6)"><tspan x="0" y="0">a</tspan></text>
  <text class="cls-18" transform="translate(266.71 164.08) rotate(-26.89)"><tspan x="0" y="0">f</tspan></text>
  <text class="cls-20" transform="translate(273.27 160.74) rotate(-25.52)"><tspan x="0" y="0">e</tspan></text>
  <text class="cls-41" transform="translate(282.8 156.28) rotate(-24.16)"><tspan x="0" y="0"> </tspan></text>
  <text class="cls-44" transform="translate(287.9 153.96) rotate(-21.41)"><tspan x="0" y="0">a</tspan></text>
  <text class="cls-26" transform="translate(297.49 150.05) rotate(-18.66)"><tspan x="0" y="0">n</tspan></text>
  <text class="cls-20" transform="translate(310.05 145.68) rotate(-15.88)"><tspan x="0" y="0">d</tspan></text>
  <text class="cls-23" transform="translate(321.74 142.35) rotate(-14.49)"><tspan x="0" y="0"> </tspan></text>
  <text class="cls-53" transform="translate(327.16 140.93) rotate(-13.09)"><tspan x="0" y="0">j</tspan></text>
  <text class="cls-32" transform="translate(332.83 139.57) rotate(-11.69)"><tspan x="0" y="0">u</tspan></text>
  <text class="cls-56" transform="translate(345.23 137.07) rotate(-8.88)"><tspan x="0" y="0">s</tspan></text>
  <text class="cls-7" transform="translate(353.9 135.72) rotate(-7.47)"><tspan x="0" y="0">t</tspan></text>
  <text class="cls-55" transform="translate(361.53 134.76) rotate(-6.06)"><tspan x="0" y="0"> </tspan></text>
  <text class="cls-29" transform="translate(367.1 134.17) rotate(-4.64)"><tspan x="0" y="0">s</tspan></text>
  <text class="cls-59" transform="translate(375.85 133.42) rotate(-1.8)"><tspan x="0" y="0">p</tspan></text>
  <text class="cls-54" transform="translate(388.35 133.06) rotate(-.38)"><tspan x="0" y="0">a</tspan></text>
  <text class="cls-47" transform="translate(398.7 133.08) rotate(2.48)"><tspan x="0" y="0">c</tspan></text>
  <text class="cls-22" transform="translate(408.6 133.54) rotate(3.93)"><tspan x="0" y="0">e</tspan></text>
  <text class="cls-34" transform="translate(419.09 134.34) rotate(6.82)"><tspan x="0" y="0"> </tspan></text>
  <text class="cls-57" transform="translate(424.67 134.93) rotate(8.27)"><tspan x="0" y="0">f</tspan></text>
  <text class="cls-9" transform="translate(431.96 135.93) rotate(9.72)"><tspan x="0" y="0">o</tspan></text>
  <text class="cls-27" transform="translate(444.27 138.03) rotate(12.6)"><tspan x="0" y="0">r</tspan></text>
  <text class="cls-22" transform="translate(453.35 140.03) rotate(14.03)"><tspan x="0" y="0"> </tspan></text>
  <text class="cls-23" transform="translate(458.79 141.34) rotate(15.46)"><tspan x="0" y="0">h</tspan></text>
  <text class="cls-9" transform="translate(471.28 144.85) rotate(18.32)"><tspan x="0" y="0">u</tspan></text>
  <text class="cls-28" transform="translate(483.37 148.63) rotate(22.57)"><tspan x="0" y="0">m</tspan></text>
  <text class="cls-35" transform="translate(501.44 156.16) rotate(25.38)"><tspan x="0" y="0">a</tspan></text>
  <text class="cls-8" transform="translate(510.85 160.5) rotate(28.17)"><tspan x="0" y="0">n</tspan></text>
  <text class="cls-33" transform="translate(522.54 166.8) rotate(29.57)"><tspan x="0" y="0">i</tspan></text>
  <text class="cls-16" transform="translate(528.25 170.07) rotate(30.96)"><tspan x="0" y="0">t</tspan></text>
  <text class="cls-10" transform="translate(534.86 173.99) rotate(33.72)"><tspan x="0" y="0">y</tspan></text>
  <line class="cls-3" x1="388.91" y1="188" x2="388.91" y2="588"/>
  <line class="cls-3" x1="188.91" y1="387" x2="589.91" y2="388"/>
  <line class="cls-3" x1="562.76" y1="486.62" x2="216.11" y2="285.8"/>
  <line class="cls-3" x1="287.91" y1="561" x2="489.64" y2="215.48"/>
  <line class="cls-3" x1="214.91" y1="487" x2="562.35" y2="288.82"/>
  <line class="cls-3" x1="492.95" y1="558.32" x2="285.85" y2="215.92"/>
  <text class="cls-71" transform="translate(468.33 374.83) rotate(-9)"><tspan x="0" y="0">education</tspan></text>
  <text class="cls-70" transform="translate(497.84 413.48)"><tspan x="0" y="0">income </tspan></text>
  <text class="cls-70" transform="translate(497.84 446.34)"><tspan x="0" y="0">&amp; work</tspan></text>
  <text class="cls-67" transform="translate(328.39 568.56) rotate(-72)"><tspan x="0" y="0">social </tspan></text>
  <text class="cls-67" transform="translate(359.65 578.72) rotate(-72)"><tspan x="0" y="0">equity</tspan></text>
  <text class="cls-64" transform="translate(238.12 504.6) rotate(-35)"><tspan x="0" y="0">gender </tspan></text>
  <text class="cls-64" transform="translate(256.97 531.52) rotate(-35)"><tspan x="0" y="0">equality</tspan></text>
  <text class="cls-75" transform="translate(204.22 432.69) rotate(-10)"><tspan x="0" y="0">housing</tspan></text>
  <text class="cls-72" transform="translate(201.38 343.82) rotate(11)"><tspan x="0" y="0">networks</tspan></text>
  <text class="cls-64" transform="translate(257.38 273.17) rotate(35)"><tspan x="0" y="0">energy</tspan></text>
  <text class="cls-78" transform="translate(423.39 487.3) rotate(67)"><tspan x="0" y="0">political</tspan></text>
  <text class="cls-78" transform="translate(393.14 500.14) rotate(67)"><tspan x="0" y="0">voice</tspan></text>
  <text class="cls-64" transform="translate(473.01 462.55) rotate(35)"><tspan x="0" y="0">peace &amp; </tspan></text>
  <text class="cls-64" transform="translate(454.16 489.47) rotate(35)"><tspan x="0" y="0">justice</tspan></text>
  <text class="cls-67" transform="translate(429.12 277.83) rotate(-72)"><tspan x="0" y="0">food</tspan></text>
  <text class="cls-77" transform="translate(470.08 306.13) rotate(-29)"><tspan x="0" y="0">health</tspan></text>
  <text class="cls-78" transform="translate(337.03 216.84) rotate(67)"><tspan x="0" y="0">water</tspan></text>
  <line class="cls-3" x1="250.22" y1="24.18" x2="277.91" y2="89"/>
  <line class="cls-3" x1="487.32" y1="83.52" x2="511.51" y2="19.32"/>
  <line class="cls-3" x1="52.79" y1="190.92" x2="117.28" y2="227.01"/>
  <line class="cls-3" x1="4.28" y1="437.48" x2="77.01" y2="425.57"/>
  <line class="cls-3" x1="702.91" y1="439" x2="770.8" y2="443.86"/>
  <line class="cls-3" x1="129.45" y1="677.12" x2="178.35" y2="620.63"/>
  <line class="cls-3" x1="382.77" y1="776.22" x2="382.77" y2="702.6"/>
  <line class="cls-3" x1="638.84" y1="683.96" x2="591.74" y2="628.84"/>
  <text class="cls-70" transform="translate(303.54 51.6)"><tspan x="0" y="0">climate change</tspan></text>
  <text class="cls-76" transform="translate(590.8 86.04) rotate(37)"><tspan x="0" y="0">ocean </tspan></text>
  <text class="cls-76" transform="translate(543.4 91.47) rotate(37)"><tspan x="0" y="0">acidification</tspan></text>
  <text class="cls-68" transform="translate(107.51 151.42) rotate(-41)"><tspan x="0" y="0">ozone layer </tspan></text>
  <text class="cls-68" transform="translate(137.33 169.04) rotate(-41)"><tspan x="0" y="0">depletion</tspan></text>
  <text class="cls-74" transform="translate(56.56 382.74) rotate(-80)"><tspan x="0" y="0">air pollution</tspan></text>
  <text class="cls-73" transform="translate(33.75 491.63) rotate(60)"><tspan x="0" y="0">biodiversity loss</tspan></text>
  <text class="cls-67" transform="translate(185.35 695.36) rotate(18)"><tspan x="0" y="0">land conversion</tspan></text>
  <text class="cls-69" transform="translate(454.9 732.86) rotate(-25)"><tspan x="0" y="0">freshwater </tspan></text>
  <text class="cls-69" transform="translate(461.12 766.22) rotate(-25)"><tspan x="0" y="0">withdrawals</tspan></text>
  <text class="cls-65" transform="translate(651.62 601.09) rotate(-58.5)"><tspan x="0" y="0">nitrogen &amp; </tspan></text>
  <text class="cls-65" transform="translate(654.84 658.73) rotate(-58.5)"><tspan x="0" y="0">phosphorus loading</tspan></text>
  <text class="cls-66" transform="translate(748.81 297.51) rotate(85.5)"><tspan x="0" y="0">chemical</tspan></text>
  <text class="cls-66" transform="translate(715.64 294.87) rotate(85.5)"><tspan x="0" y="0" xml:space="preserve"> pollution</tspan></text>
  <line class="cls-2" x1="409.73" y1="376.76" x2="789.91" y2="147"/>
  <polygon class="cls-5" points="392.9 386.92 435.15 395.74 404.77 345.43 392.9 386.92"/>
  <polygon class="cls-5" points="816.16 130.49 773.91 121.67 804.29 171.98 816.16 130.49"/>
  <text class="cls-122" transform="translate(439.19 371.61) rotate(-31)"><tspan class="cls-6" x="0" y="0">S</tspan><tspan class="cls-117" x="17.17" y="0">h</tspan><tspan class="cls-6" x="34.09" y="0">o</tspan><tspan class="cls-120" x="49.97" y="0">r</tspan><tspan class="cls-121" x="63.56" y="0">t</tspan><tspan x="74.84" y="0">f</tspan><tspan class="cls-116" x="86.97" y="0">a</tspan><tspan class="cls-123" x="102.85" y="0">l</tspan><tspan x="110.6" y="0">l</tspan></text>
  <text class="cls-122" transform="translate(671.32 231.25) rotate(-31)"><tspan x="0" y="0">O</tspan><tspan class="cls-118" x="20.59" y="0">v</tspan><tspan class="cls-119" x="35.82" y="0">e</tspan><tspan x="50.88" y="0">r</tspan><tspan class="cls-114" x="63.64" y="0">s</tspan><tspan x="76.89" y="0">h</tspan><tspan class="cls-115" x="93.81" y="0">o</tspan><tspan x="110.41" y="0">ot</tspan></text>
</svg>