<?xml version="1.0" encoding="UTF-8"?>
<svg id="Layer_1" data-name="Layer 1" xmlns="http://www.w3.org/2000/svg" viewBox="0 0 629.92 573.14">
  <defs>
    <style>
      .cls-1 {
        fill: #3f456c;
      }

      .cls-2 {
        stroke-width: 4px;
      }

      .cls-2, .cls-3, .cls-4 {
        fill: none;
        stroke: #3f456c;
        stroke-miterlimit: 10;
      }

      .cls-3 {
        stroke-width: 1.95px;
      }

      .cls-4 {
        stroke-width: 2.8px;
      }
    </style>
  </defs>
  <circle class="cls-2" cx="214.56" cy="193.09" r="49.72"/>
  <circle class="cls-2" cx="418.86" cy="193.09" r="49.72"/>
  <circle class="cls-2" cx="418.86" cy="370.24" r="49.72"/>
  <circle class="cls-2" cx="221.4" cy="370.24" r="49.72"/>
  <circle class="cls-4" cx="144.51" cy="288.1" r="34.76"/>
  <circle class="cls-3" cx="82.37" cy="273.01" r="24.26"/>
  <circle class="cls-3" cx="58.12" cy="333.9" r="24.26"/>
  <circle class="cls-3" cx="25.23" cy="382.42" r="24.26" transform="translate(-357.64 399.34) rotate(-88.76)"/>
  <circle class="cls-3" cx="49.5" cy="432.62" r="24.26" transform="translate(-384.1 472.71) rotate(-88.76)"/>
  <circle class="cls-3" cx="100.2" cy="449.28" r="24.26"/>
  <circle class="cls-3" cx="36.33" cy="248.75" r="24.26"/>
  <circle class="cls-3" cx="30.1" cy="193.09" r="24.26"/>
  <circle class="cls-3" cx="73.76" cy="156.03" r="24.26"/>
  <circle class="cls-3" cx="124.95" cy="121.48" r="24.26"/>
  <circle class="cls-3" cx="126.64" cy="69.71" r="24.26"/>
  <circle class="cls-3" cx="173.15" cy="43.01" r="24.26"/>
  <circle class="cls-3" cx="257.52" cy="62.46" r="24.26" transform="translate(137.57 298.74) rotate(-76.72)"/>
  <circle class="cls-3" cx="302.77" cy="34.72" r="24.26"/>
  <circle class="cls-3" cx="340.96" cy="76.2" r="24.26"/>
  <circle class="cls-3" cx="356.21" cy="131.76" r="24.26"/>
  <circle class="cls-3" cx="395.43" cy="33.71" r="24.26"/>
  <circle class="cls-3" cx="465.95" cy="25.23" r="24.26"/>
  <circle class="cls-3" cx="513.23" cy="76.2" r="24.26"/>
  <circle class="cls-3" cx="498.11" cy="131.76" r="24.26"/>
  <circle class="cls-3" cx="580.43" cy="158.78" r="24.26"/>
  <circle class="cls-3" cx="604.68" cy="208.01" r="24.26"/>
  <circle class="cls-3" cx="604.68" cy="281.99" r="24.26"/>
  <circle class="cls-3" cx="553.42" cy="296.46" r="24.26"/>
  <circle class="cls-3" cx="594.79" cy="337.81" r="24.26"/>
  <circle class="cls-3" cx="550.97" cy="207.28" r="24.26"/>
  <circle class="cls-4" cx="264.29" cy="467.39" r="34.76"/>
  <circle class="cls-4" cx="327.05" cy="374.9" r="34.76"/>
  <circle class="cls-4" cx="361.81" cy="446.68" r="34.76"/>
  <circle class="cls-4" cx="439.09" cy="467.39" r="34.76"/>
  <circle class="cls-4" cx="506.86" cy="419.96" r="34.76"/>
  <circle class="cls-4" cx="501.99" cy="337.71" r="34.76"/>
  <circle class="cls-4" cx="506.86" cy="253.34" r="34.76"/>
  <circle class="cls-4" cx="292.28" cy="117.92" r="34.76"/>
  <circle class="cls-4" cx="442.9" cy="86.7" r="34.76"/>
  <circle class="cls-4" cx="186.65" cy="104.49" r="34.76"/>
  <circle class="cls-4" cx="109.74" cy="208.01" r="34.76"/>
  <circle class="cls-4" cx="106.63" cy="380.05" r="34.76"/>
  <circle class="cls-4" cx="161.42" cy="467.39" r="34.76"/>
  <circle class="cls-4" cx="212.78" cy="536.98" r="34.76"/>
  <circle class="cls-1" cx="316.71" cy="257.73" r="49.72"/>
  <line class="cls-3" x1="54.35" y1="197.28" x2="74.98" y2="202.4"/>
  <line class="cls-3" x1="56.67" y1="235.54" x2="79.77" y2="225.62"/>
  <line class="cls-3" x1="90.87" y1="251.53" x2="98.02" y2="240.75"/>
  <path class="cls-3" d="M144.51,204.81c-.16-.11,20.79-4.96,20.79-4.96"/>
  <line class="cls-3" x1="87.06" y1="176.31" x2="88.63" y2="179.06"/>
  <path class="cls-3" d="M148.89,115.38c.53-.16,4.18-1.84,4.18-1.84"/>
  <path class="cls-3" d="M149.2,80.34c.54,.16,8.37,2.81,8.37,2.81"/>
  <path class="cls-3" d="M178.59,66.66l.66,3.86"/>
  <line class="cls-3" x1="198.48" y1="137.17" x2="200.78" y2="145.31"/>
  <path class="cls-3" d="M243.48,151.53c.48,0,17.95-17.61,17.95-17.61"/>
  <line class="cls-3" x1="268.23" y1="84.23" x2="271.33" y2="88.99"/>
  <line class="cls-3" x1="297.08" y1="81.74" x2="300.76" y2="58.98"/>
  <line class="cls-3" x1="320.33" y1="97.35" x2="324.18" y2="93.73"/>
  <line class="cls-3" x1="327.05" y1="125.62" x2="332.43" y2="126.9"/>
  <line class="cls-3" x1="408.15" y1="55.55" x2="415.15" y2="63.23"/>
  <line class="cls-3" x1="454.9" y1="54.07" x2="457.49" y2="47.99"/>
  <line class="cls-3" x1="477.26" y1="81.3" x2="488.99" y2="79.23"/>
  <line class="cls-3" x1="467.2" y1="111.59" x2="477.68" y2="118.7"/>
  <line class="cls-3" x1="428.27" y1="145.29" x2="434.81" y2="120.52"/>
  <line class="cls-3" x1="355.64" y1="229.76" x2="375.02" y2="216.54"/>
  <path class="cls-3" d="M277.56,233.12c-1.28,0-20.3-14.56-20.3-14.56"/>
  <line class="cls-3" x1="347.8" y1="293.43" x2="383.95" y2="336.15"/>
  <path class="cls-3" d="M257.61,336.15c1.08-1.28,29.55-41.43,29.55-41.43"/>
  <path class="cls-3" d="M166.78,314.8c.18-.15,19.12,17.36,19.12,17.36"/>
  <line class="cls-3" x1="141.4" y1="375.83" x2="171.9" y2="375.83"/>
  <line class="cls-3" x1="72.84" y1="353.18" x2="78.55" y2="358.15"/>
  <line class="cls-3" x1="49.5" y1="382.42" x2="71.95" y2="382.42"/>
  <line class="cls-3" x1="67.34" y1="414.83" x2="80.65" y2="403.15"/>
  <line class="cls-3" x1="102.24" y1="425.11" x2="105.26" y2="414.8"/>
  <line class="cls-3" x1="180.64" y1="438.42" x2="198.45" y2="414.36"/>
  <path class="cls-3" d="M240.92,417.43c0-.16,11.42,17.3,11.42,17.3"/>
  <line class="cls-3" x1="381.86" y1="418.28" x2="387.78" y2="411.18"/>
  <line class="cls-3" x1="361.78" y1="373.4" x2="369.24" y2="373.4"/>
  <path class="cls-3" d="M429.18,434.05c-.08,.03-1.23-14.1-1.23-14.1"/>
  <line class="cls-3" x1="463.24" y1="392.68" x2="478.15" y2="400.36"/>
  <line class="cls-3" x1="464.39" y1="350.23" x2="469.27" y2="349.49"/>
  <path class="cls-3" d="M577.14,321.2c-.23,.23-7.95-6.3-7.95-6.3"/>
  <line class="cls-3" x1="575.23" y1="285.11" x2="580.64" y2="285.11"/>
  <line class="cls-3" x1="535.6" y1="278.55" x2="533.11" y2="276.12"/>
  <line class="cls-3" x1="460.58" y1="222.09" x2="478.33" y2="232.26"/>
  <path class="cls-3" d="M532.58,229.92c-.25-.27,3.83-3.25,3.83-3.25"/>
  <path class="cls-3" d="M556.17,184.5c.06-.89,6.46-9.24,6.46-9.24"/>
  <path class="cls-3" d="M575.16,205.45c.92-.32,5.88,0,5.88,0"/>
  <g>
    <path class="cls-1" d="M389.55,179.78c0-.64-.04-1.1-.11-1.38-.03-.08-.18-.16-.44-.23-.26-.07-.46-.1-.6-.1-.04,0-.06-.07-.06-.2,0-.12,.02-.21,.06-.25,1.19,.05,1.81,.08,1.87,.08,.17,0,.77-.03,1.8-.08,.02,.06,.03,.14,.03,.23,0,.15-.02,.22-.06,.22-.1,0-.29,.04-.56,.11s-.42,.15-.44,.22c-.09,.36-.14,.84-.14,1.45v5.9c0,.6,.05,1.08,.14,1.44,.02,.07,.17,.14,.44,.21s.46,.1,.56,.1c.04,0,.06,.08,.06,.23,0,.08,0,.16-.03,.22-1.04-.05-1.64-.08-1.8-.08-.05,0-.67,.03-1.87,.08-.04-.04-.06-.12-.06-.23,0-.15,.02-.22,.06-.22,.13,0,.33-.03,.6-.09,.26-.06,.41-.13,.44-.22,.07-.28,.11-.74,.11-1.38v-6.03Z"/>
    <path class="cls-1" d="M397.68,181.09c.73,0,1.23,.26,1.52,.78s.43,1.36,.43,2.52v1.41c0,.6,.04,1.06,.12,1.38,.02,.07,.16,.14,.4,.21,.25,.07,.42,.1,.53,.1,.03,0,.05,.06,.06,.19,0,.12,0,.21-.02,.26-1.04-.05-1.59-.08-1.66-.08-.02,0-.57,.03-1.63,.08-.04-.04-.06-.13-.06-.26s.02-.19,.06-.19c.12,0,.3-.03,.52-.1s.34-.14,.37-.21c.07-.3,.11-.66,.11-1.09v-1.55c0-.96-.12-1.62-.37-1.97s-.65-.53-1.21-.53c-.33,0-.65,.12-.96,.37-.31,.24-.46,.46-.46,.66v2.73c0,.6,.04,1.06,.12,1.38,.02,.07,.16,.14,.4,.21,.25,.07,.42,.1,.53,.1,.03,0,.05,.06,.06,.19,0,.12,0,.21-.02,.26-1.04-.05-1.59-.08-1.66-.08-.06,0-.63,.03-1.69,.08-.04-.04-.06-.13-.06-.26s.02-.19,.06-.19c.12,0,.31-.03,.55-.1s.38-.14,.4-.21c.07-.3,.11-.66,.11-1.09v-2.94c0-.4-.07-.68-.22-.84-.1-.12-.23-.21-.38-.26-.15-.05-.27-.07-.37-.07s-.15,0-.15-.03c0-.25,.03-.38,.09-.39,1.1-.17,1.81-.3,2.14-.4,0,0,.04,0,.08-.02,.04,0,.07,.04,.08,.13v.19c-.04,.29-.06,.5-.06,.62,0,.04,.01,.06,.03,.06,0,0,.03,0,.05-.03,.24-.25,.56-.48,.97-.71s.8-.33,1.17-.33l.02,.02Z"/>
    <path class="cls-1" d="M406.12,181.09c.73,0,1.23,.26,1.52,.78s.43,1.36,.43,2.52v1.41c0,.6,.04,1.06,.12,1.38,.02,.07,.16,.14,.4,.21,.25,.07,.42,.1,.53,.1,.03,0,.05,.06,.06,.19,0,.12,0,.21-.02,.26-1.04-.05-1.59-.08-1.66-.08-.02,0-.57,.03-1.63,.08-.04-.04-.06-.13-.06-.26s.02-.19,.06-.19c.12,0,.3-.03,.52-.1s.34-.14,.37-.21c.07-.3,.11-.66,.11-1.09v-1.55c0-.96-.12-1.62-.37-1.97s-.65-.53-1.21-.53c-.33,0-.65,.12-.96,.37-.31,.24-.46,.46-.46,.66v2.73c0,.6,.04,1.06,.12,1.38,.02,.07,.16,.14,.4,.21,.25,.07,.42,.1,.53,.1,.03,0,.05,.06,.06,.19,0,.12,0,.21-.02,.26-1.04-.05-1.59-.08-1.66-.08-.06,0-.63,.03-1.69,.08-.04-.04-.06-.13-.06-.26s.02-.19,.06-.19c.12,0,.31-.03,.55-.1s.38-.14,.4-.21c.07-.3,.11-.66,.11-1.09v-2.94c0-.4-.07-.68-.22-.84-.1-.12-.23-.21-.38-.26-.15-.05-.27-.07-.37-.07s-.15,0-.15-.03c0-.25,.03-.38,.09-.39,1.1-.17,1.81-.3,2.14-.4,0,0,.04,0,.08-.02,.04,0,.07,.04,.08,.13v.19c-.04,.29-.06,.5-.06,.62,0,.04,.01,.06,.03,.06,0,0,.03,0,.05-.03,.24-.25,.56-.48,.97-.71s.8-.33,1.17-.33l.02,.02Z"/>
    <path class="cls-1" d="M413.51,181.12c.93,0,1.73,.34,2.39,1.01s.99,1.48,.99,2.42-.32,1.77-.97,2.45-1.44,1.02-2.39,1.02-1.75-.34-2.41-1.02c-.66-.68-.99-1.49-.99-2.45s.32-1.78,.96-2.44c.64-.66,1.45-.99,2.41-.99h.01Zm-.17,.61c-.55,0-1,.25-1.34,.75s-.52,1.12-.52,1.84c0,.85,.22,1.58,.66,2.18s.96,.91,1.55,.91c.55,0,1-.26,1.35-.78s.53-1.14,.53-1.86c0-.84-.22-1.56-.67-2.15-.45-.6-.96-.89-1.55-.89h-.01Z"/>
    <path class="cls-1" d="M423.43,182.11c0-.33-.37-.5-1.12-.5-.04,0-.06-.06-.06-.19s.02-.21,.06-.26c.11,0,.33,.03,.64,.05,.31,.02,.59,.03,.84,.03l1.55-.08c.02,.06,.03,.14,.03,.23,0,.15-.04,.22-.11,.22-.15,0-.34,.04-.58,.12s-.4,.22-.48,.4l-2.47,5.58c-.02,.07-.08,.15-.19,.23-.1,.08-.19,.12-.26,.12s-.12-.02-.14-.06c-.18-.38-.56-1.27-1.16-2.67s-1.12-2.54-1.56-3.42c-.1-.21-.41-.31-.92-.31-.04,0-.06-.07-.06-.2,0-.12,.02-.21,.06-.25,1.07,.05,1.61,.08,1.62,.08l1.55-.08s.02,.13,0,.26-.04,.19-.07,.19c-.51,0-.76,.09-.76,.26,0,.02,0,.04,.02,.06l1.87,4.21,1.57-3.57c.08-.2,.12-.35,.12-.47v.02Z"/>
    <path class="cls-1" d="M428.77,181.12c.57,0,.98,.14,1.23,.41s.37,.72,.37,1.33v3.59c0,.22,.06,.4,.17,.54,.11,.15,.27,.22,.47,.22,.14,0,.33-.07,.54-.22,.04,0,.06,.04,.06,.12,0,.13-.03,.24-.08,.33-.43,.36-.79,.54-1.09,.54-.24,0-.47-.1-.68-.3-.22-.2-.37-.4-.45-.62-.01,0-.05,.03-.12,.1s-.16,.15-.27,.23c-.11,.09-.25,.18-.4,.27-.15,.09-.33,.17-.53,.23s-.41,.09-.61,.09c-.48,0-.87-.13-1.18-.38s-.47-.63-.47-1.14c0-.23,.06-.44,.17-.65,.11-.2,.25-.37,.4-.5,.16-.13,.37-.26,.64-.4,.27-.13,.5-.24,.69-.3,.19-.07,.44-.15,.75-.26,.31-.1,.53-.18,.65-.23,.09-.03,.14-.11,.14-.23v-1.17c0-.33-.1-.59-.31-.77-.21-.18-.46-.27-.75-.27-.31,0-.57,.11-.78,.32s-.31,.49-.31,.83c0,.36-.21,.54-.64,.54-.29,0-.49-.1-.61-.29,0-.45,.33-.89,.98-1.33,.65-.44,1.32-.66,1.99-.66l.03,.03Zm-1.46,5.77c.18,.15,.4,.23,.68,.23s.55-.09,.81-.26,.39-.34,.39-.52v-1.6c-.08,.04-.29,.11-.61,.22-.32,.1-.57,.19-.75,.27s-.36,.21-.53,.39-.26,.39-.26,.63c0,.28,.09,.49,.26,.64h0Z"/>
    <path class="cls-1" d="M432.96,182.09h-.9s-.08-.11-.08-.33c0-.06,0-.1,.02-.11,.3-.13,.63-.41,.98-.82,.11-.13,.23-.29,.33-.46s.2-.32,.27-.44c.07-.12,.11-.19,.11-.2,.31,0,.47,.03,.47,.08v1.54h2.1c.08,0,.12,.05,.12,.14,0,.19-.05,.38-.16,.59h-2.07v3.81c0,.41,.11,.75,.32,.99,.21,.25,.49,.37,.83,.37,.31,0,.63-.1,.96-.29,.03-.02,.08,.02,.14,.13,.06,.11,.09,.17,.08,.18-.16,.17-.39,.33-.71,.49-.32,.16-.65,.24-.99,.24-.52,0-.95-.17-1.3-.51-.35-.34-.52-.83-.52-1.46v-3.95h0Z"/>
    <path class="cls-1" d="M439.4,185.81c0,.6,.04,1.06,.12,1.38,.02,.07,.16,.14,.4,.21s.42,.1,.53,.1c.03,0,.05,.06,.06,.19,0,.12,0,.21-.02,.26-1.04-.05-1.59-.08-1.66-.08s-.64,.03-1.69,.08c-.04-.04-.06-.13-.06-.26s.02-.19,.06-.19c.12,0,.31-.03,.55-.1s.38-.14,.4-.21c.07-.3,.11-.66,.11-1.09v-2.94c0-.4-.07-.68-.22-.84-.1-.12-.23-.21-.38-.26-.15-.05-.27-.07-.37-.07s-.15,0-.15-.03c0-.25,.03-.38,.09-.39,1.1-.17,1.81-.3,2.14-.4l.03-.02h.05s.07,.04,.08,.13v.19c-.05,.41-.08,.79-.08,1.12v3.22Zm-1.26-6.56c-.15-.15-.23-.33-.23-.55s.08-.4,.23-.55c.15-.15,.33-.23,.55-.23s.4,.08,.55,.23,.23,.33,.23,.55-.08,.4-.23,.55-.33,.23-.55,.23-.4-.07-.55-.23Z"/>
    <path class="cls-1" d="M444.73,181.12c.93,0,1.73,.34,2.39,1.01s.99,1.48,.99,2.42-.32,1.77-.97,2.45-1.44,1.02-2.39,1.02-1.75-.34-2.41-1.02c-.66-.68-.99-1.49-.99-2.45s.32-1.78,.96-2.44c.64-.66,1.45-.99,2.41-.99h.01Zm-.17,.61c-.55,0-1,.25-1.34,.75s-.52,1.12-.52,1.84c0,.85,.22,1.58,.66,2.18s.96,.91,1.55,.91c.55,0,1-.26,1.35-.78s.53-1.14,.53-1.86c0-.84-.22-1.56-.67-2.15-.45-.6-.96-.89-1.55-.89h-.01Z"/>
    <path class="cls-1" d="M453.71,181.09c.73,0,1.23,.26,1.52,.78s.43,1.36,.43,2.52v1.41c0,.6,.04,1.06,.12,1.38,.02,.07,.16,.14,.4,.21,.25,.07,.42,.1,.53,.1,.03,0,.05,.06,.06,.19,0,.12,0,.21-.02,.26-1.04-.05-1.59-.08-1.66-.08-.02,0-.57,.03-1.63,.08-.04-.04-.06-.13-.06-.26s.02-.19,.06-.19c.12,0,.3-.03,.52-.1s.34-.14,.37-.21c.07-.3,.11-.66,.11-1.09v-1.55c0-.96-.12-1.62-.37-1.97s-.65-.53-1.21-.53c-.33,0-.65,.12-.96,.37-.31,.24-.46,.46-.46,.66v2.73c0,.6,.04,1.06,.12,1.38,.02,.07,.16,.14,.4,.21,.25,.07,.42,.1,.53,.1,.03,0,.05,.06,.06,.19,0,.12,0,.21-.02,.26-1.04-.05-1.59-.08-1.66-.08-.06,0-.63,.03-1.69,.08-.04-.04-.06-.13-.06-.26s.02-.19,.06-.19c.12,0,.31-.03,.55-.1s.38-.14,.4-.21c.07-.3,.11-.66,.11-1.09v-2.94c0-.4-.07-.68-.22-.84-.1-.12-.23-.21-.38-.26-.15-.05-.27-.07-.37-.07s-.15,0-.15-.03c0-.25,.03-.38,.09-.39,1.1-.17,1.81-.3,2.14-.4,0,0,.04,0,.08-.02,.04,0,.07,.04,.08,.13v.19c-.04,.29-.06,.5-.06,.62,0,.04,.01,.06,.03,.06,0,0,.03,0,.05-.03,.24-.25,.56-.48,.97-.71s.8-.33,1.17-.33l.02,.02Z"/>
    <path class="cls-1" d="M390.28,196.81c.31,0,.68,0,1.1-.03s.79-.03,1.09-.03c.34,0,.69,.05,1.03,.16s.68,.26,1.01,.47,.59,.5,.8,.89c.21,.38,.31,.83,.31,1.34,0,.3-.06,.62-.19,.97s-.32,.68-.57,1.01-.58,.6-1,.81-.89,.32-1.41,.32c-.58,0-.98-.15-1.2-.44-.06-.07-.08-.19-.05-.36,.01-.04,.03-.06,.05-.05,.31,.11,.66,.17,1.04,.17,.52,0,.96-.22,1.34-.65s.56-.95,.56-1.55c0-.74-.16-1.32-.48-1.75s-.82-.65-1.49-.65c-.47,0-.83,.04-1.09,.11-.05,0-.09,.05-.11,.12s-.04,.23-.05,.47c-.02,.25-.02,.62-.02,1.12v5.55c0,.69,.04,1.15,.12,1.35,.05,.13,.24,.24,.55,.33,.32,.08,.54,.12,.68,.12,.04,0,.06,.07,.06,.22,0,.09-.01,.17-.03,.23-1.04-.05-1.71-.08-2.02-.08l-1.9,.08s-.05-.12-.05-.28c0-.13,.02-.2,.05-.2,.15,0,.35-.03,.61-.09,.26-.06,.41-.14,.47-.23,.07-.12,.11-.61,.11-1.46v-5.87c0-.61-.04-1.06-.11-1.34-.03-.08-.18-.16-.46-.23-.28-.07-.48-.11-.61-.11-.04,0-.06-.06-.06-.19s.02-.22,.06-.26l1.86,.03v-.02Z"/>
    <path class="cls-1" d="M400.15,200.2c.93,0,1.73,.34,2.39,1.01s.99,1.48,.99,2.42-.32,1.77-.97,2.45-1.44,1.02-2.39,1.02-1.75-.34-2.41-1.02c-.66-.68-.99-1.49-.99-2.45s.32-1.78,.96-2.44c.64-.66,1.45-.99,2.41-.99h.01Zm-.17,.61c-.55,0-1,.25-1.34,.75s-.52,1.12-.52,1.84c0,.85,.22,1.58,.66,2.18s.96,.91,1.55,.91c.55,0,1-.26,1.35-.78s.53-1.14,.53-1.86c0-.84-.22-1.56-.67-2.15-.45-.6-.96-.89-1.55-.89h-.01Z"/>
    <path class="cls-1" d="M405.49,205.2v-6.73c0-.35-.03-.68-.09-.99-.05-.17-.32-.25-.79-.25h-.14c-.06,0-.09-.06-.09-.17,0-.17,.03-.25,.09-.25,.31-.03,.6-.07,.86-.12,.26-.05,.47-.1,.62-.16,.15-.05,.28-.1,.38-.15,.1-.05,.18-.09,.23-.12l.06-.05h.03s.08,.03,.12,.09,.07,.11,.08,.16c-.11,.33-.17,.78-.17,1.35v7.09c0,.6,.04,1.06,.12,1.38,.02,.07,.16,.14,.4,.21,.25,.07,.42,.1,.53,.1,.03,0,.05,.06,.06,.19,.01,.12,0,.21-.02,.26-1.04-.05-1.59-.08-1.66-.08-.06,0-.63,.03-1.69,.08-.04-.04-.06-.13-.06-.26s.02-.19,.06-.19c.12,0,.31-.03,.55-.1s.38-.14,.4-.21c.07-.3,.11-.66,.11-1.09h.01Z"/>
    <path class="cls-1" d="M410.84,204.9c0,.6,.04,1.06,.12,1.38,.02,.07,.16,.14,.4,.21s.42,.1,.53,.1c.03,0,.05,.06,.06,.19,0,.12,0,.21-.02,.26-1.04-.05-1.59-.08-1.66-.08s-.64,.03-1.69,.08c-.04-.04-.06-.13-.06-.26s.02-.19,.06-.19c.12,0,.31-.03,.55-.1s.38-.14,.4-.21c.07-.3,.11-.66,.11-1.09v-2.94c0-.4-.07-.68-.22-.84-.1-.12-.23-.21-.38-.26-.15-.05-.27-.07-.37-.07s-.15,0-.15-.03c0-.25,.03-.38,.09-.39,1.1-.17,1.81-.3,2.14-.4l.03-.02h.05s.07,.04,.08,.13v.19c-.05,.41-.08,.79-.08,1.12v3.22Zm-1.26-6.56c-.15-.15-.23-.33-.23-.55s.08-.4,.23-.55c.15-.15,.33-.23,.55-.23s.4,.08,.55,.23,.23,.33,.23,.55-.08,.4-.23,.55-.33,.23-.55,.23-.4-.07-.55-.23Z"/>
    <path class="cls-1" d="M415.8,200.23c1.14,0,1.93,.26,2.36,.79,0,.69-.19,1.04-.58,1.04-.18,0-.31-.04-.4-.12s-.21-.22-.36-.43c-.32-.48-.71-.71-1.15-.71s-.81,.2-1.16,.61c-.35,.4-.52,1-.52,1.8s.2,1.52,.61,2.07c.41,.55,.98,.82,1.7,.82,.22,0,.42-.02,.62-.06,.2-.04,.37-.09,.5-.15s.26-.11,.36-.17c.1-.06,.18-.11,.26-.16l.11-.08c.06,0,.09,.07,.09,.2,0,.08-.03,.18-.09,.28-.21,.29-.51,.55-.92,.78-.4,.23-.84,.35-1.32,.35-.86,0-1.6-.32-2.21-.97s-.92-1.44-.92-2.37,.26-1.78,.78-2.48,1.26-1.05,2.24-1.05h0Z"/>
    <path class="cls-1" d="M420.27,200.34c.18,0,.34,0,.49-.02,.15,0,.32-.02,.51-.03s.36-.02,.5-.03c.02,.06,.03,.14,.03,.23,0,.15-.02,.22-.06,.22-.08,0-.22,.04-.41,.11s-.3,.15-.32,.22v.03c0,.19,.55,1.54,1.66,4.06l1.18-3.4c.07-.22,.11-.38,.11-.48,0-.16-.08-.28-.24-.38s-.38-.15-.64-.15c-.04,0-.06-.07-.06-.2,0-.12,.02-.21,.06-.25,.13,0,.34,.03,.61,.05s.53,.03,.78,.03c.23,0,.48,0,.75-.03s.47-.04,.61-.05c.02,.06,.03,.14,.03,.23,0,.15-.02,.22-.06,.22-.13,0-.32,.05-.55,.14-.23,.09-.39,.24-.46,.45l-2.78,7.5c-.24,.64-.51,1.09-.81,1.34s-.58,.38-.82,.38c-.22,0-.38-.07-.48-.2s-.16-.27-.16-.4c0-.23,.07-.39,.22-.5,.86,0,1.43-.45,1.71-1.34,.05-.16,.11-.34,.19-.56,.07-.22,.13-.39,.17-.53l-2.22-5.44c-.11-.25-.22-.42-.31-.53-.09-.09-.24-.17-.43-.23s-.34-.09-.46-.09c-.04,0-.06-.07-.06-.2,0-.12,.02-.21,.06-.25,1.07,.05,1.63,.08,1.68,.08h-.02Z"/>
  </g>
  <path class="cls-1" d="M491.37,410.18c.3,0,.69,0,1.15-.01,.47,0,.77-.01,.93-.01,1.3,0,2.31,.38,3.04,1.15s1.09,1.67,1.09,2.7c0,1.16-.37,2.12-1.1,2.89-.73,.77-1.75,1.16-3.04,1.16-.1,0-.38,0-.85-.02s-.87-.02-1.19-.01l-1.45,.04s-.04-.08-.04-.18c0-.11,.01-.17,.04-.17,.1,0,.26-.03,.46-.08s.33-.12,.37-.19c.06-.1,.08-.47,.08-1.12v-4.52c0-.47-.03-.81-.08-1.03-.02-.06-.14-.12-.35-.18s-.37-.08-.47-.08c-.03,0-.05-.05-.05-.14,0-.1,.02-.17,.05-.2,.41,.02,.89,.02,1.42,.02v-.02Zm.52,1.45v4.73c0,.33,.06,.64,.18,.91,.03,.08,.25,.14,.64,.18,.39,.04,.7,.06,.91,.06,1.83,0,2.75-1.18,2.75-3.55,0-.91-.24-1.68-.72-2.32s-1.19-.96-2.11-.96h-.06c-.86,0-1.34,.06-1.43,.19-.1,.14-.16,.39-.16,.75h0Z"/>
  <path class="cls-1" d="M500.93,412.81c.37,0,.69,.07,.97,.21,.28,.14,.49,.32,.64,.54,.15,.22,.25,.44,.32,.67s.1,.45,.1,.67c0,.16-.02,.26-.07,.29-.05,.04-.14,.05-.28,.05h-3.01c-.06,0-.1,.02-.1,.06,0,.5,.15,.96,.45,1.39,.3,.42,.74,.63,1.31,.63,.17,0,.33-.02,.48-.05,.15-.03,.28-.07,.39-.11,.11-.04,.2-.09,.27-.13s.14-.08,.2-.12l.08-.06s.07,.05,.07,.16c0,.06-.02,.13-.07,.21-.16,.22-.39,.42-.71,.6-.31,.18-.65,.27-1.02,.27-.66,0-1.23-.25-1.7-.75s-.71-1.11-.71-1.82c0-.84,.22-1.5,.67-1.98,.45-.49,1.01-.73,1.69-.73h.03Zm-.12,.44c-.41,0-.73,.18-.95,.53s-.33,.65-.33,.88c0,.06,.02,.08,.07,.08h2.33s.06-.04,.06-.12c0-.25-.11-.55-.32-.88-.21-.33-.5-.5-.86-.5h0Z"/>
  <path class="cls-1" d="M505.55,412.8c.17,0,.4,.02,.66,.07s.45,.07,.56,.09c.08,.37,.13,.77,.14,1.22,0,.04-.05,.06-.16,.06s-.17-.03-.18-.08c-.04-.22-.15-.43-.34-.63s-.4-.3-.64-.3c-.57,0-.86,.23-.86,.71,0,.12,.02,.22,.05,.32,.03,.09,.09,.18,.19,.26,.09,.08,.16,.14,.21,.18s.15,.1,.32,.19c.16,.09,.26,.15,.3,.17,.03,.02,.12,.07,.28,.16s.27,.16,.33,.2,.16,.11,.28,.2c.12,.1,.21,.18,.27,.26,.06,.08,.11,.17,.16,.29,.05,.12,.08,.23,.08,.35,0,.47-.18,.86-.55,1.18s-.8,.47-1.29,.47c-.17,0-.32-.01-.46-.03-.14-.02-.3-.05-.5-.1s-.34-.08-.44-.1c-.05-.13-.09-.33-.14-.6-.04-.27-.07-.49-.07-.65,.06-.05,.11-.07,.14-.07,.12,0,.18,.02,.19,.07,.05,.24,.2,.47,.45,.7s.52,.34,.82,.34c.25,0,.46-.07,.63-.21,.16-.14,.24-.34,.24-.6,0-.14-.03-.26-.08-.38s-.14-.22-.25-.31c-.12-.09-.22-.17-.32-.23s-.24-.14-.42-.23c-.18-.1-.32-.17-.41-.23-.62-.36-.93-.78-.93-1.28,0-.43,.17-.78,.52-1.05,.35-.27,.75-.41,1.21-.41h.01Z"/>
  <path class="cls-1" d="M509.72,416.41c0,.46,.03,.82,.1,1.06,.02,.06,.12,.11,.31,.16,.19,.05,.33,.08,.41,.08,.02,0,.04,.05,.05,.14,0,.1,0,.16-.01,.2-.8-.04-1.22-.06-1.28-.06s-.49,.02-1.3,.06c-.03-.03-.05-.1-.05-.2s.02-.15,.05-.15c.1,0,.24-.03,.42-.08s.29-.11,.3-.16c.06-.23,.08-.51,.08-.84v-2.26c0-.31-.06-.53-.17-.65-.08-.1-.18-.16-.29-.2-.12-.04-.21-.05-.29-.05s-.11,0-.11-.02c0-.19,.02-.29,.07-.3,.84-.13,1.39-.23,1.65-.31h.02s.03-.01,.04-.01c.03,0,.05,.03,.06,.1v.15c-.04,.32-.06,.61-.06,.86v2.48Zm-.97-5.05c-.12-.12-.17-.26-.17-.42s.06-.31,.17-.42,.26-.17,.42-.17,.31,.06,.42,.17c.12,.12,.17,.26,.17,.42s-.06,.31-.17,.42-.26,.17-.42,.17-.31-.06-.42-.17Z"/>
  <path class="cls-1" d="M513.36,412.86c.29,0,.63,.05,1.02,.16,.38,.1,.7,.16,.94,.16h.69s.07,.12,.07,.3c0,.11-.02,.17-.07,.17h-.85s-.05,.01-.05,.04l.12,.29c.09,.19,.13,.38,.13,.57,0,.43-.19,.82-.57,1.16s-.85,.51-1.41,.51c-.25,0-.48-.02-.67-.05-.1,.06-.21,.16-.33,.3-.12,.14-.17,.27-.17,.38s.03,.2,.1,.27c.06,.07,.16,.12,.27,.14,.12,.03,.24,.05,.35,.06,.11,.01,.24,.02,.39,.02h.08c.99,.02,1.68,.12,2.08,.3,.4,.19,.6,.47,.6,.84,0,.61-.26,1.14-.78,1.58s-1.18,.67-2,.67c-.57,0-1.07-.1-1.52-.32-.45-.22-.67-.56-.67-1,0-.49,.39-.92,1.17-1.27-.21-.03-.41-.13-.6-.3-.18-.17-.27-.37-.27-.61,0-.21,.09-.42,.27-.65,.18-.22,.38-.41,.6-.55-.24-.09-.46-.28-.66-.57s-.3-.6-.3-.94c0-.47,.2-.87,.59-1.19,.39-.32,.88-.48,1.45-.48h0Zm1.94,6.19c0-.33-.16-.56-.49-.67-.33-.12-.98-.17-1.95-.17-.02,0-.04,0-.07,.02,0,0-.04,.03-.11,.05-.06,.03-.1,.05-.12,.05s-.05,.03-.11,.07-.09,.06-.11,.07-.05,.04-.1,.07c-.05,.04-.08,.07-.09,.1-.02,.03-.04,.06-.07,.1s-.05,.08-.07,.12c-.01,.04-.02,.08-.04,.14s-.02,.11-.02,.16c0,.34,.18,.62,.53,.83s.75,.32,1.18,.32c.48,0,.87-.13,1.18-.38s.46-.55,.46-.87h0Zm-3.06-4.56c0,.37,.11,.68,.34,.93s.49,.38,.79,.38,.57-.12,.77-.36,.3-.53,.3-.86c0-.37-.11-.68-.34-.93s-.49-.38-.79-.38-.57,.12-.77,.36-.31,.53-.31,.86h.01Z"/>
  <path class="cls-1" d="M520.28,412.79c.56,0,.95,.2,1.17,.6s.33,1.04,.33,1.94v1.09c0,.46,.03,.82,.1,1.06,.02,.06,.12,.11,.31,.16,.19,.05,.33,.08,.41,.08,.02,0,.04,.05,.05,.14,0,.1,0,.16-.01,.2-.8-.04-1.22-.06-1.28-.06-.02,0-.43,.02-1.25,.06-.03-.03-.05-.1-.05-.2s.02-.15,.05-.15c.09,0,.23-.03,.4-.08,.17-.05,.26-.11,.28-.16,.06-.23,.08-.51,.08-.84v-1.2c0-.74-.1-1.25-.29-1.52s-.5-.41-.93-.41c-.25,0-.5,.09-.73,.28-.24,.19-.35,.36-.35,.51v2.1c0,.46,.03,.82,.1,1.06,.02,.06,.12,.11,.31,.16s.33,.08,.41,.08c.02,0,.04,.05,.05,.14s0,.16-.01,.2c-.8-.04-1.22-.06-1.28-.06-.05,0-.48,.02-1.3,.06-.03-.03-.05-.1-.05-.2s.02-.15,.05-.15c.1,0,.24-.03,.42-.08,.19-.05,.29-.11,.31-.16,.06-.23,.08-.51,.08-.84v-2.26c0-.31-.06-.53-.17-.65-.08-.1-.18-.16-.29-.2s-.21-.05-.29-.05-.11,0-.11-.02c0-.19,.02-.29,.07-.3,.84-.13,1.39-.23,1.65-.31,0,0,.03,0,.06-.01,.03,0,.05,.03,.06,.1s0,.12,0,.15c-.03,.22-.05,.38-.05,.48,0,.03,0,.05,.02,.05,0,0,.02,0,.04-.02,.18-.19,.43-.37,.75-.54,.31-.17,.62-.26,.9-.26l-.02,.03Z"/>
  <path class="cls-1" d="M496.26,430.44c0,.09-.06,.39-.17,.91s-.19,.79-.24,.82c-.58,.35-1.53,.53-2.86,.53-1.05,0-1.95-.39-2.68-1.16-.74-.77-1.11-1.69-1.11-2.76,0-1.13,.38-2.1,1.13-2.91,.76-.81,1.69-1.21,2.79-1.21,.94,0,1.91,.1,2.9,.3-.02,1.07-.02,1.64-.02,1.72,0,.12-.08,.18-.25,.18-.08,0-.13-.02-.16-.06-.02-.1-.05-.21-.09-.32s-.11-.25-.23-.42-.25-.32-.42-.44c-.16-.12-.39-.23-.69-.32s-.64-.14-1.01-.14c-.78,0-1.45,.34-2,1.03s-.83,1.47-.83,2.34c0,.65,.11,1.24,.33,1.78,.22,.54,.58,.99,1.06,1.34,.48,.36,1.05,.53,1.72,.53,.79,0,1.4-.23,1.83-.69,.11-.12,.21-.28,.29-.47s.15-.36,.19-.49,.08-.2,.1-.2c.05,0,.11,0,.17,.02,.07,.02,.12,.03,.16,.05l.06,.04h.03Z"/>
  <path class="cls-1" d="M499.33,427.41c.37,0,.69,.07,.97,.21s.49,.32,.64,.54,.25,.44,.32,.67,.1,.45,.1,.67c0,.16-.02,.26-.07,.29-.05,.04-.14,.05-.28,.05h-3.01c-.06,0-.1,.02-.1,.06,0,.5,.15,.96,.45,1.39,.3,.42,.74,.63,1.31,.63,.17,0,.33-.02,.48-.05,.15-.03,.28-.07,.39-.11,.11-.04,.2-.09,.27-.13s.14-.08,.2-.12l.08-.06s.07,.05,.07,.16c0,.06-.02,.13-.07,.21-.16,.22-.39,.42-.71,.6-.31,.18-.65,.27-1.02,.27-.66,0-1.23-.25-1.7-.75-.47-.5-.71-1.11-.71-1.82,0-.84,.22-1.5,.67-1.98,.45-.49,1.01-.73,1.69-.73h.03Zm-.12,.44c-.41,0-.73,.18-.95,.53-.22,.35-.33,.65-.33,.88,0,.06,.02,.08,.07,.08h2.33s.06-.04,.06-.12c0-.25-.11-.55-.32-.88-.21-.33-.5-.5-.86-.5h0Z"/>
  <path class="cls-1" d="M505.51,427.39c.56,0,.95,.2,1.17,.6s.33,1.04,.33,1.94v1.09c0,.46,.03,.82,.1,1.06,.02,.06,.12,.11,.31,.16,.19,.05,.33,.08,.41,.08,.02,0,.04,.05,.05,.14,0,.1,0,.16-.01,.2-.8-.04-1.22-.06-1.28-.06-.02,0-.43,.02-1.25,.06-.03-.03-.05-.1-.05-.2s.02-.15,.05-.15c.09,0,.23-.03,.4-.08,.17-.05,.26-.11,.28-.16,.06-.23,.08-.51,.08-.84v-1.2c0-.74-.1-1.25-.29-1.52s-.5-.41-.93-.41c-.25,0-.5,.09-.73,.28-.24,.19-.35,.36-.35,.51v2.1c0,.46,.03,.82,.1,1.06,.02,.06,.12,.11,.31,.16s.33,.08,.41,.08c.02,0,.04,.05,.05,.14s0,.16-.01,.2c-.8-.04-1.22-.06-1.28-.06-.05,0-.48,.02-1.3,.06-.03-.03-.05-.1-.05-.2s.02-.15,.05-.15c.1,0,.24-.03,.42-.08,.19-.05,.29-.11,.31-.16,.06-.23,.08-.51,.08-.84v-2.26c0-.31-.06-.53-.17-.65-.08-.1-.18-.16-.29-.2s-.21-.05-.29-.05-.11,0-.11-.02c0-.19,.02-.29,.07-.3,.84-.13,1.39-.23,1.65-.31,0,0,.03,0,.06-.01,.03,0,.05,.03,.06,.1s0,.12,0,.15c-.03,.22-.05,.38-.05,.48,0,.03,0,.05,.02,.05,0,0,.02,0,.04-.02,.18-.19,.43-.37,.75-.54,.31-.17,.62-.26,.9-.26l-.02,.03Z"/>
  <path class="cls-1" d="M508.97,428.24h-.69s-.06-.08-.06-.25c0-.05,0-.08,.01-.08,.23-.1,.48-.32,.75-.63,.09-.1,.17-.22,.26-.35,.08-.13,.15-.25,.21-.34s.08-.15,.08-.16c.24,0,.36,.02,.36,.06v1.18h1.61c.06,0,.1,.04,.1,.11,0,.14-.04,.29-.12,.45h-1.59v2.93c0,.32,.08,.57,.25,.76,.16,.19,.38,.29,.64,.29,.24,0,.49-.08,.74-.23,.02-.02,.06,.02,.11,.1,.05,.08,.07,.13,.06,.14-.12,.13-.3,.25-.55,.38-.25,.12-.5,.19-.77,.19-.4,0-.73-.13-1-.39s-.4-.64-.4-1.12v-3.04h0Z"/>
  <path class="cls-1" d="M515.27,427.49c.47,0,.78,.12,.93,.35,0,.28-.04,.48-.13,.61-.09,.13-.2,.19-.32,.19-.14,0-.28-.07-.39-.2-.12-.13-.28-.2-.49-.2-.25,0-.46,.12-.65,.35-.18,.23-.27,.47-.27,.73v1.79c0,.46,.03,.82,.1,1.06,.02,.06,.12,.11,.32,.16s.33,.08,.41,.08c.02,0,.04,.05,.05,.14s0,.16-.01,.2c-.8-.04-1.23-.06-1.29-.06-.05,0-.48,.02-1.3,.06-.03-.03-.05-.1-.05-.2s.02-.15,.05-.15c.1,0,.24-.03,.42-.08,.19-.05,.29-.11,.3-.16,.06-.23,.08-.51,.08-.84v-2.26c0-.31-.06-.53-.17-.65-.08-.1-.18-.16-.29-.2s-.21-.05-.29-.05-.11,0-.11-.02c0-.19,.02-.29,.07-.3,.84-.13,1.39-.23,1.65-.31,0,0,.03,0,.06-.01,.03,0,.05,.03,.06,.1s0,.12,0,.15l-.07,.6c.14-.21,.34-.42,.59-.6s.5-.28,.75-.28h0Z"/>
  <path class="cls-1" d="M519.12,427.5c.37,0,.69,.07,.97,.21,.28,.14,.49,.32,.64,.54,.15,.22,.25,.44,.32,.67s.1,.45,.1,.67c0,.16-.02,.26-.07,.29-.05,.04-.14,.05-.28,.05h-3.01c-.06,0-.1,.02-.1,.06,0,.5,.15,.96,.45,1.39,.3,.42,.74,.63,1.31,.63,.17,0,.33-.02,.48-.05,.15-.03,.28-.07,.39-.11,.11-.04,.2-.09,.27-.13s.14-.08,.2-.12l.08-.06s.07,.05,.07,.16c0,.06-.02,.13-.07,.21-.16,.22-.39,.42-.71,.6-.31,.18-.65,.27-1.02,.27-.66,0-1.23-.25-1.7-.75s-.71-1.11-.71-1.82c0-.84,.22-1.5,.67-1.98,.45-.49,1.01-.73,1.69-.73h.03Zm-.12,.44c-.41,0-.73,.18-.95,.53s-.33,.65-.33,.88c0,.06,.02,.08,.07,.08h2.33s.06-.04,.06-.12c0-.25-.11-.55-.32-.88-.21-.33-.5-.5-.86-.5h0Z"/>
  <path class="cls-1" d="M523.73,427.49c.17,0,.4,.02,.66,.07s.45,.07,.56,.09c.08,.37,.13,.77,.14,1.22,0,.04-.05,.06-.16,.06s-.17-.03-.18-.08c-.04-.22-.15-.43-.34-.63s-.4-.3-.64-.3c-.57,0-.86,.23-.86,.71,0,.12,.02,.22,.05,.32,.03,.09,.09,.18,.19,.26,.09,.08,.16,.14,.21,.18s.15,.1,.32,.19c.16,.09,.26,.15,.3,.17,.03,.02,.12,.07,.28,.16s.27,.16,.33,.2,.16,.11,.28,.2c.12,.1,.21,.18,.27,.26,.06,.08,.11,.17,.16,.29,.05,.12,.08,.23,.08,.35,0,.47-.18,.86-.55,1.18s-.8,.47-1.29,.47c-.17,0-.32-.01-.46-.03-.14-.02-.3-.05-.5-.1s-.34-.08-.44-.1c-.05-.13-.09-.33-.14-.6-.04-.27-.07-.49-.07-.65,.06-.05,.11-.07,.14-.07,.12,0,.18,.02,.19,.07,.05,.24,.2,.47,.45,.7s.52,.34,.82,.34c.25,0,.46-.07,.63-.21,.16-.14,.24-.34,.24-.6,0-.14-.03-.26-.08-.38s-.14-.22-.25-.31c-.12-.09-.22-.17-.32-.23s-.24-.14-.42-.23c-.18-.1-.32-.17-.41-.23-.62-.36-.93-.78-.93-1.28,0-.43,.17-.78,.52-1.05,.35-.27,.75-.41,1.21-.41h.01Z"/>
  <path class="cls-1" d="M165.39,33.87c0-.37,.14-.67,.42-.91s.61-.35,.98-.35c.1,0,.2,0,.3,.02s.17,.02,.23,.04c.06,0,.15,.04,.26,.07s.21,.06,.3,.08c.06,.25,.09,.6,.09,1.03,0,.03-.02,.05-.07,.05-.11,0-.18-.02-.19-.07-.02-.21-.13-.42-.3-.61s-.4-.3-.66-.3c-.29,0-.49,.07-.61,.22s-.18,.32-.18,.53c0,.09,.02,.18,.05,.26,.03,.08,.07,.15,.1,.21,.03,.06,.09,.12,.18,.19s.15,.12,.19,.15c.04,.03,.12,.08,.24,.16,.12,.08,.2,.12,.23,.14,.02,0,.11,.07,.25,.15s.24,.15,.29,.19c.05,.04,.14,.1,.25,.19s.19,.18,.24,.25,.1,.16,.14,.27,.07,.22,.07,.33c0,.38-.15,.7-.45,.94-.3,.25-.65,.37-1.05,.37-.11,0-.24,0-.37-.03-.13-.02-.24-.03-.32-.05-.09-.02-.19-.04-.33-.07-.13-.03-.22-.05-.28-.06-.12-.59-.18-.97-.18-1.14,0-.03,.04-.04,.11-.04,.09,0,.15,.02,.18,.06,.16,.69,.56,1.03,1.19,1.03,.24,0,.44-.07,.61-.22s.25-.35,.25-.61c0-.1,0-.18-.04-.27-.03-.08-.06-.15-.09-.2s-.09-.11-.17-.17c-.08-.06-.14-.1-.18-.13s-.12-.07-.24-.14-.19-.1-.24-.13c-.14-.08-.24-.14-.29-.17-.06-.03-.15-.09-.27-.18-.13-.08-.22-.16-.28-.22s-.12-.14-.2-.24c-.08-.09-.13-.19-.16-.3s-.05-.22-.05-.33h.05Z"/>
  <path class="cls-1" d="M170.3,34.26c.43,0,.8,.16,1.1,.47,.31,.31,.46,.68,.46,1.12s-.15,.82-.45,1.13-.67,.47-1.1,.47-.81-.16-1.11-.47c-.31-.31-.46-.69-.46-1.13s.15-.82,.44-1.13c.3-.31,.67-.46,1.11-.46h0Zm-.08,.28c-.25,0-.46,.12-.62,.35-.16,.23-.24,.52-.24,.85,0,.39,.1,.73,.3,1.01s.44,.42,.71,.42c.25,0,.46-.12,.62-.36,.16-.24,.24-.53,.24-.86,0-.39-.1-.72-.31-.99s-.44-.41-.72-.41h.02Z"/>
  <path class="cls-1" d="M173.79,34.26c.53,0,.89,.12,1.09,.37,0,.32-.09,.48-.27,.48-.08,0-.14-.02-.19-.05-.04-.04-.1-.1-.17-.2-.15-.22-.33-.33-.53-.33s-.37,.09-.53,.28-.24,.46-.24,.83,.09,.7,.28,.95,.45,.38,.79,.38c.1,0,.2,0,.29-.03,.09-.02,.17-.04,.23-.07s.12-.05,.17-.08c.05-.03,.08-.05,.12-.08l.05-.04s.04,.03,.04,.09c0,.04,0,.08-.04,.13-.1,.13-.24,.25-.42,.36-.19,.11-.39,.16-.61,.16-.4,0-.74-.15-1.02-.45s-.43-.66-.43-1.09,.12-.82,.36-1.14,.58-.48,1.03-.48h0Z"/>
  <path class="cls-1" d="M176.33,36.42c0,.28,.02,.49,.06,.64,0,.03,.07,.07,.19,.1,.11,.03,.2,.05,.24,.05,0,0,.02,.03,.03,.09v.12c-.48-.02-.73-.04-.77-.04s-.29,0-.78,.04c-.02-.02-.03-.06-.03-.12s0-.09,.03-.09c.06,0,.14-.02,.25-.05s.17-.06,.18-.1c.03-.14,.05-.31,.05-.5v-1.36c0-.19-.03-.32-.1-.39-.05-.06-.11-.1-.18-.12s-.13-.03-.17-.03-.07,0-.07,0c0-.11,0-.17,.04-.18,.51-.08,.84-.14,.99-.19h.03s.03,.02,.04,.06v.09c-.02,.19-.04,.36-.04,.52v1.48h.01Zm-.58-3.04c-.07-.07-.1-.15-.1-.25s.03-.19,.1-.25,.15-.1,.25-.1,.19,.03,.25,.1,.1,.15,.1,.25-.03,.19-.1,.25-.15,.1-.25,.1-.19-.03-.25-.1Z"/>
  <path class="cls-1" d="M178.64,34.26c.26,0,.45,.06,.57,.19,.11,.13,.17,.33,.17,.61v1.66c0,.1,.03,.18,.08,.25s.12,.1,.22,.1c.07,0,.15-.03,.25-.1,.02,0,.03,.02,.03,.06,0,.06,0,.11-.04,.15-.2,.17-.36,.25-.5,.25-.11,0-.22-.05-.32-.14s-.17-.19-.21-.29c0,0-.02,.02-.05,.05s-.07,.07-.13,.11c-.05,.04-.11,.08-.18,.13-.07,.04-.15,.08-.24,.11-.09,.03-.19,.04-.28,.04-.22,0-.4-.06-.55-.18-.14-.12-.21-.29-.21-.53,0-.1,.03-.2,.08-.3,.05-.09,.11-.17,.19-.23s.17-.12,.29-.18,.23-.11,.32-.14,.2-.07,.35-.12c.14-.05,.24-.08,.3-.11,.04,0,.06-.05,.06-.11v-.54c0-.15-.05-.27-.14-.35-.1-.08-.21-.13-.34-.13-.14,0-.26,.05-.36,.15-.1,.1-.14,.23-.14,.38,0,.17-.1,.25-.29,.25-.13,0-.23-.05-.28-.14,0-.21,.15-.41,.45-.61s.61-.3,.92-.3h-.02Zm-.67,2.67c.08,.07,.19,.1,.32,.1s.25-.04,.37-.12c.12-.08,.18-.16,.18-.24v-.74s-.13,.05-.28,.1-.26,.09-.35,.13c-.08,.04-.17,.1-.24,.18-.08,.08-.12,.18-.12,.29,0,.13,.04,.23,.12,.3h0Z"/>
  <path class="cls-1" d="M180.62,36.55v-3.1c0-.16,0-.32-.04-.46-.02-.08-.15-.11-.37-.11h-.06s-.04-.03-.04-.08c0-.08,0-.11,.04-.11,.14,0,.28-.03,.4-.06,.12-.02,.22-.05,.29-.07s.13-.05,.18-.07,.08-.04,.11-.05l.03-.02h0s.04,0,.06,.04,.03,.05,.04,.08c-.05,.15-.08,.36-.08,.62v3.27c0,.28,.02,.49,.06,.64,0,.03,.07,.07,.19,.1,.11,.03,.2,.05,.24,.05,0,0,.02,.03,.03,.09v.12c-.48-.02-.73-.04-.77-.04-.03,0-.29,0-.78,.04-.02-.02-.03-.06-.03-.12s0-.09,.03-.09c.06,0,.14-.02,.25-.05s.17-.06,.18-.1c.03-.14,.05-.31,.05-.5l-.02-.02Z"/>
  <path class="cls-1" d="M156.3,45.51s-.03,.24-.1,.55-.11,.48-.14,.49c-.35,.21-.92,.32-1.71,.32-.63,0-1.17-.23-1.61-.7-.44-.46-.66-1.02-.66-1.66,0-.68,.23-1.26,.68-1.75,.45-.48,1.01-.73,1.67-.73,.56,0,1.15,.06,1.74,.18,0,.64,0,.98,0,1.03,0,.07-.05,.11-.15,.11-.05,0-.08,0-.09-.04,0-.06-.03-.13-.05-.19s-.07-.15-.14-.25c-.07-.1-.15-.19-.25-.27-.1-.07-.24-.14-.42-.19s-.38-.08-.61-.08c-.47,0-.87,.21-1.2,.62s-.49,.88-.49,1.4c0,.39,.07,.74,.2,1.07s.35,.59,.63,.81c.29,.21,.63,.32,1.03,.32,.47,0,.84-.14,1.1-.42,.07-.07,.13-.17,.18-.28,.05-.12,.09-.22,.11-.29,.03-.08,.05-.12,.06-.12,.03,0,.06,0,.1,0,.04,0,.07,.02,.1,.03l.04,.02h0Z"/>
  <path class="cls-1" d="M158.28,43.69c.43,0,.8,.16,1.1,.47,.31,.31,.46,.68,.46,1.12s-.15,.82-.45,1.13-.67,.47-1.1,.47-.81-.16-1.11-.47c-.31-.31-.46-.69-.46-1.13s.15-.82,.44-1.13c.3-.31,.67-.46,1.11-.46h0Zm-.08,.28c-.25,0-.46,.12-.62,.35-.16,.23-.24,.52-.24,.85,0,.39,.1,.73,.3,1.01s.44,.42,.71,.42c.25,0,.46-.12,.62-.36,.16-.24,.24-.53,.24-.86,0-.39-.1-.72-.31-.99s-.44-.41-.72-.41h.02Z"/>
  <path class="cls-1" d="M162.42,43.68c.33,0,.57,.12,.7,.36,.13,.24,.2,.63,.2,1.16v.65c0,.28,.02,.49,.06,.64,0,.03,.07,.07,.19,.1,.11,.03,.2,.05,.24,.05,0,0,.02,.03,.03,.09v.12c-.48-.02-.73-.04-.77-.04,0,0-.26,0-.75,.04-.02-.02-.03-.06-.03-.12s0-.09,.03-.09c.06,0,.14-.02,.24-.05s.16-.06,.17-.1c.03-.14,.05-.31,.05-.5v-.72c0-.44-.06-.75-.17-.91s-.3-.24-.56-.24c-.15,0-.3,.06-.44,.17-.14,.11-.21,.21-.21,.3v1.26c0,.28,.02,.49,.06,.64,0,.03,.07,.07,.19,.1,.11,.03,.2,.05,.24,.05,0,0,.02,.03,.03,.09v.12c-.48-.02-.73-.04-.77-.04-.03,0-.29,0-.78,.04-.02-.02-.03-.06-.03-.12s0-.09,.03-.09c.06,0,.14-.02,.25-.05s.17-.06,.18-.1c.03-.14,.05-.31,.05-.5v-1.36c0-.19-.03-.32-.1-.39-.05-.06-.11-.1-.18-.12s-.13-.03-.17-.03-.07,0-.07,0c0-.11,0-.17,.04-.18,.51-.08,.84-.14,.99-.19h.04s.03,.02,.04,.06v.09c-.02,.13-.03,.23-.03,.29,0,.02,0,.03,0,.03,0,0,0,0,.02,0,.11-.11,.26-.22,.45-.33,.19-.1,.37-.15,.54-.15h0Z"/>
  <path class="cls-1" d="M165.38,43.69c.11,0,.24,0,.4,.04,.16,.03,.27,.04,.33,.05,.05,.22,.08,.46,.09,.73,0,.02-.03,.04-.09,.04-.07,0-.1-.02-.11-.05-.02-.13-.09-.26-.2-.38s-.24-.18-.38-.18c-.34,0-.52,.14-.52,.42,0,.07,0,.14,.03,.19,.02,.06,.06,.11,.11,.16s.1,.09,.13,.11,.09,.06,.19,.11,.16,.09,.18,.1c.02,0,.08,.04,.17,.1,.09,.06,.16,.09,.2,.12,.04,.02,.09,.06,.17,.12,.07,.06,.13,.11,.16,.15,.03,.05,.07,.1,.1,.17s.05,.14,.05,.21c0,.28-.11,.52-.33,.71s-.48,.28-.77,.28c-.1,0-.19,0-.28-.02-.08,0-.18-.03-.3-.06s-.2-.05-.27-.06c-.03-.08-.06-.2-.08-.36s-.04-.29-.04-.39c.04-.03,.07-.04,.09-.04,.07,0,.11,0,.11,.04,.03,.14,.12,.28,.27,.42,.15,.14,.31,.2,.49,.2,.15,0,.28-.04,.38-.13,.1-.08,.15-.2,.15-.36,0-.08-.02-.16-.05-.23s-.08-.13-.15-.19c-.07-.06-.13-.1-.19-.14s-.14-.08-.25-.14c-.11-.06-.19-.1-.24-.14-.37-.22-.56-.47-.56-.77,0-.26,.1-.47,.31-.63,.21-.16,.45-.24,.73-.24l-.03,.04Z"/>
  <path class="cls-1" d="M167.16,44.14h-.42s-.04-.05-.04-.15v-.05c.14-.06,.29-.19,.45-.38,.05-.06,.1-.13,.15-.21,.05-.08,.09-.15,.13-.2,.03-.06,.05-.09,.05-.09,.14,0,.22,0,.22,.04v.71h.97s.06,.02,.06,.06c0,.09-.02,.18-.07,.27h-.95v1.76c0,.19,.05,.34,.15,.46s.23,.17,.38,.17c.14,0,.29-.05,.44-.14,0,0,.04,0,.06,.06,.03,.05,.04,.08,.04,.08-.07,.08-.18,.15-.33,.23-.15,.07-.3,.11-.46,.11-.24,0-.44-.08-.6-.24s-.24-.38-.24-.67v-1.82h.01Z"/>
  <path class="cls-1" d="M170.93,43.69c.28,0,.47,.07,.56,.21,0,.17-.03,.29-.08,.37-.05,.08-.12,.11-.19,.11-.09,0-.17-.04-.24-.12-.07-.08-.17-.12-.29-.12-.15,0-.28,.07-.39,.21s-.17,.28-.17,.44v1.08c0,.28,.02,.49,.06,.64,0,.03,.07,.07,.19,.1s.2,.05,.25,.05c0,0,.02,.03,.03,.09v.12c-.48-.02-.74-.04-.77-.04s-.29,0-.78,.04c-.02-.02-.03-.06-.03-.12s0-.09,.03-.09c.06,0,.14-.02,.25-.05s.17-.06,.18-.1c.03-.14,.05-.31,.05-.5v-1.36c0-.19-.03-.32-.1-.39-.05-.06-.11-.1-.18-.12s-.13-.03-.17-.03-.07,0-.07,0c0-.11,0-.17,.04-.18,.51-.08,.84-.14,.99-.19h.04s.03,.02,.04,.06v.09l-.04,.36c.09-.13,.2-.25,.35-.36,.15-.11,.3-.17,.45-.17v-.02Z"/>
  <path class="cls-1" d="M174.68,44.37v1.43c0,.21,.02,.39,.05,.54,0,.03,.04,.06,.08,.08,.04,.02,.09,.03,.14,.04h.2s.02,.04,.02,.09c0,0,0,.04-.02,.07,0,.03-.03,.05-.04,.05-.07,0-.15,0-.24,.03s-.17,.03-.25,.05-.15,.04-.21,.06c-.07,.02-.12,.04-.16,.05h-.06s-.06-.02-.06-.1v-.4c-.33,.34-.64,.51-.95,.51-.18,0-.33-.04-.46-.13s-.22-.21-.28-.35c-.06-.15-.1-.29-.13-.42s-.04-.28-.04-.43v-.9c0-.19-.03-.32-.1-.39-.05-.06-.11-.1-.18-.12s-.13-.03-.17-.03-.07,0-.07,0c0-.11,0-.17,.04-.18,.51-.08,.84-.14,.99-.19h.04s.03,.02,.04,.06v.09c-.03,.23-.04,.41-.04,.53v.97c0,.37,.05,.64,.16,.81,.11,.17,.29,.26,.54,.26,.14,0,.28-.06,.41-.17,.13-.11,.19-.21,.19-.29v-1.34c0-.19-.03-.32-.1-.39-.05-.06-.11-.1-.18-.12s-.13-.03-.17-.03-.07,0-.07,0c0-.11,0-.17,.04-.18,.51-.08,.84-.14,.99-.19h.04s.03,.02,.04,.06v.09c-.03,.23-.04,.4-.04,.52v-.02Z"/>
  <path class="cls-1" d="M176.92,43.69c.53,0,.89,.12,1.09,.37,0,.32-.09,.48-.27,.48-.08,0-.14-.02-.19-.05-.04-.04-.1-.1-.17-.2-.15-.22-.33-.33-.53-.33s-.37,.09-.53,.28-.24,.46-.24,.83,.09,.7,.28,.95,.45,.38,.79,.38c.1,0,.2,0,.29-.03,.09-.02,.17-.04,.23-.07s.12-.05,.17-.08c.05-.03,.08-.05,.12-.08l.05-.04s.04,.03,.04,.09c0,.04,0,.08-.04,.13-.1,.13-.24,.25-.42,.36-.19,.11-.39,.16-.61,.16-.4,0-.74-.15-1.02-.45s-.43-.66-.43-1.09,.12-.82,.36-1.14,.58-.48,1.03-.48h0Z"/>
  <path class="cls-1" d="M178.56,44h-.42s-.04-.05-.04-.15v-.05c.14-.06,.29-.19,.45-.38,.05-.06,.1-.13,.15-.21,.05-.08,.09-.15,.13-.2,.03-.06,.05-.09,.05-.09,.14,0,.22,0,.22,.04v.71h.97s.06,.02,.06,.06c0,.09-.02,.18-.07,.27h-.95v1.76c0,.19,.05,.34,.15,.46s.23,.17,.38,.17c.14,0,.29-.05,.44-.14,0,0,.04,0,.06,.06,.03,.05,.04,.08,.04,.08-.07,.08-.18,.15-.33,.23-.15,.07-.3,.11-.46,.11-.24,0-.44-.08-.6-.24s-.24-.38-.24-.67v-1.82h.01Z"/>
  <path class="cls-1" d="M181.54,45.71c0,.28,.02,.49,.06,.64,0,.03,.07,.07,.19,.1,.11,.03,.2,.05,.24,.05,0,0,.02,.03,.03,.09v.12c-.48-.02-.73-.04-.77-.04s-.29,0-.78,.04c-.02-.02-.03-.06-.03-.12s0-.09,.03-.09c.06,0,.14-.02,.25-.05s.17-.06,.18-.1c.03-.14,.05-.31,.05-.5v-1.36c0-.19-.03-.32-.1-.39-.05-.06-.11-.1-.18-.12s-.13-.03-.17-.03-.07,0-.07,0c0-.11,0-.17,.04-.18,.51-.08,.84-.14,.99-.19h.03s.03,.02,.04,.06v.09c-.02,.19-.04,.36-.04,.52v1.48h.01Zm-.58-3.04c-.07-.07-.1-.15-.1-.25s.03-.19,.1-.25,.15-.1,.25-.1,.19,.03,.25,.1,.1,.15,.1,.25-.03,.19-.1,.25-.15,.1-.25,.1-.19-.03-.25-.1Z"/>
  <path class="cls-1" d="M184,43.55c.43,0,.8,.16,1.1,.47,.31,.31,.46,.68,.46,1.12s-.15,.82-.45,1.13-.67,.47-1.1,.47-.81-.16-1.11-.47c-.31-.31-.46-.69-.46-1.13s.15-.82,.44-1.13c.3-.31,.67-.46,1.11-.46h0Zm-.08,.28c-.25,0-.46,.12-.62,.35-.16,.23-.24,.52-.24,.85,0,.39,.1,.73,.3,1.01s.44,.42,.71,.42c.25,0,.46-.12,.62-.36,.16-.24,.24-.53,.24-.86,0-.39-.1-.72-.31-.99s-.44-.41-.72-.41h.02Z"/>
  <path class="cls-1" d="M188.14,43.53c.33,0,.57,.12,.7,.36,.13,.24,.2,.63,.2,1.16v.65c0,.28,.02,.49,.06,.64,0,.03,.07,.07,.19,.1,.11,.03,.2,.05,.24,.05,0,0,.02,.03,.03,.09v.12c-.48-.02-.73-.04-.77-.04,0,0-.26,0-.75,.04-.02-.02-.03-.06-.03-.12s0-.09,.03-.09c.06,0,.14-.02,.24-.05s.16-.06,.17-.1c.03-.14,.05-.31,.05-.5v-.72c0-.44-.06-.75-.17-.91s-.3-.24-.56-.24c-.15,0-.3,.06-.44,.17-.14,.11-.21,.21-.21,.3v1.26c0,.28,.02,.49,.06,.64,0,.03,.07,.07,.19,.1,.11,.03,.2,.05,.24,.05,0,0,.02,.03,.03,.09v.12c-.48-.02-.73-.04-.77-.04-.03,0-.29,0-.78,.04-.02-.02-.03-.06-.03-.12s0-.09,.03-.09c.06,0,.14-.02,.25-.05s.17-.06,.18-.1c.03-.14,.05-.31,.05-.5v-1.36c0-.19-.03-.32-.1-.39-.05-.06-.11-.1-.18-.12s-.13-.03-.17-.03-.07,0-.07,0c0-.11,0-.17,.04-.18,.51-.08,.84-.14,.99-.19h.04s.03,.02,.04,.06v.09c-.02,.13-.03,.23-.03,.29,0,.02,0,.03,0,.03,0,0,0,0,.02,0,.11-.11,.26-.22,.45-.33,.19-.1,.37-.15,.54-.15h0Z"/>
  <path class="cls-1" d="M191.09,43.55c.11,0,.24,0,.4,.04,.16,.03,.27,.04,.33,.05,.05,.22,.08,.46,.09,.73,0,.02-.03,.04-.09,.04-.07,0-.1-.02-.11-.05-.02-.13-.09-.26-.2-.38s-.24-.18-.38-.18c-.34,0-.52,.14-.52,.42,0,.07,0,.14,.03,.19,.02,.06,.06,.11,.11,.16s.1,.09,.13,.11,.09,.06,.19,.11,.16,.09,.18,.1c.02,0,.08,.04,.17,.1,.09,.06,.16,.09,.2,.12,.04,.02,.09,.06,.17,.12,.07,.06,.13,.11,.16,.15,.03,.05,.07,.1,.1,.17s.05,.14,.05,.21c0,.28-.11,.52-.33,.71s-.48,.28-.77,.28c-.1,0-.19,0-.28-.02-.08,0-.18-.03-.3-.06s-.2-.05-.27-.06c-.03-.08-.06-.2-.08-.36s-.04-.29-.04-.39c.04-.03,.07-.04,.09-.04,.07,0,.11,0,.11,.04,.03,.14,.12,.28,.27,.42,.15,.14,.31,.2,.49,.2,.15,0,.28-.04,.38-.13,.1-.08,.15-.2,.15-.36,0-.08-.02-.16-.05-.23s-.08-.13-.15-.19c-.07-.06-.13-.1-.19-.14s-.14-.08-.25-.14c-.11-.06-.19-.1-.24-.14-.37-.22-.56-.47-.56-.77,0-.26,.1-.47,.31-.63,.21-.16,.45-.24,.73-.24l-.03,.04Z"/>
  <path class="cls-1" d="M271.51,109.99c0-.61,.23-1.12,.71-1.51,.47-.39,1.02-.59,1.64-.59,.18,0,.34,.01,.5,.03s.28,.04,.38,.07,.24,.06,.43,.11,.35,.09,.5,.13c.1,.42,.14,.99,.14,1.71,0,.06-.04,.08-.12,.08-.19,0-.29-.04-.31-.12-.04-.35-.21-.69-.51-1.02-.3-.33-.66-.5-1.09-.5-.48,0-.81,.12-1.01,.36s-.29,.53-.29,.88c0,.15,.03,.3,.08,.44,.06,.14,.11,.25,.17,.35,.06,.09,.16,.2,.3,.32,.15,.12,.25,.2,.32,.25s.2,.14,.41,.26,.33,.21,.39,.24c.04,.02,.18,.11,.42,.26,.24,.15,.4,.25,.49,.31s.23,.17,.41,.32c.19,.16,.32,.29,.41,.41s.16,.27,.24,.45,.11,.36,.11,.56c0,.64-.25,1.16-.75,1.57-.5,.41-1.08,.62-1.75,.62-.19,0-.39-.01-.61-.04-.21-.03-.39-.06-.54-.08s-.32-.07-.54-.12-.37-.09-.46-.1c-.2-.98-.3-1.61-.3-1.9,0-.05,.06-.07,.19-.07,.14,0,.24,.04,.3,.11,.27,1.15,.93,1.72,1.98,1.72,.4,0,.74-.12,1.02-.36s.42-.58,.42-1.02c0-.16-.02-.31-.07-.44-.05-.14-.1-.25-.15-.33-.05-.09-.14-.18-.27-.28-.13-.1-.23-.17-.3-.22s-.2-.12-.39-.23c-.19-.1-.32-.18-.39-.22-.23-.14-.39-.23-.48-.29s-.24-.15-.45-.29c-.21-.14-.36-.26-.46-.37s-.21-.24-.33-.39-.22-.32-.27-.5-.08-.36-.08-.55l-.04-.02Z"/>
  <path class="cls-1" d="M279.68,110.63c.72,0,1.33,.26,1.84,.78s.77,1.14,.77,1.86-.25,1.36-.75,1.88-1.11,.78-1.83,.78-1.34-.26-1.85-.78-.76-1.15-.76-1.88,.25-1.37,.74-1.88c.49-.51,1.11-.76,1.85-.76h0Zm-.13,.47c-.42,0-.77,.19-1.03,.58-.27,.39-.4,.86-.4,1.42,0,.65,.17,1.21,.51,1.68s.74,.7,1.19,.7c.42,0,.77-.2,1.04-.6,.27-.4,.41-.88,.41-1.43,0-.65-.17-1.2-.51-1.66s-.74-.69-1.2-.69h-.01Z"/>
  <path class="cls-1" d="M285.49,110.63c.88,0,1.48,.2,1.82,.61,0,.53-.15,.8-.44,.8-.14,0-.24-.03-.31-.09s-.16-.17-.27-.33c-.25-.37-.54-.55-.88-.55s-.62,.16-.89,.47c-.27,.31-.4,.77-.4,1.39s.16,1.17,.47,1.59,.75,.63,1.31,.63c.17,0,.33-.02,.48-.05,.15-.03,.28-.07,.39-.11,.11-.04,.2-.09,.27-.13,.08-.04,.14-.09,.2-.13l.08-.06s.07,.05,.07,.16c0,.06-.02,.14-.07,.22-.16,.22-.39,.42-.71,.6-.31,.18-.65,.27-1.02,.27-.66,0-1.23-.25-1.7-.75s-.71-1.11-.71-1.82,.2-1.37,.6-1.91,.97-.81,1.72-.81h-.01Z"/>
  <path class="cls-1" d="M289.74,114.24c0,.46,.03,.82,.1,1.06,.02,.06,.12,.11,.31,.16s.33,.08,.41,.08c.02,0,.04,.05,.05,.14s0,.16-.01,.2c-.8-.04-1.22-.06-1.28-.06s-.49,.02-1.3,.06c-.03-.03-.05-.1-.05-.2s.02-.15,.05-.15c.1,0,.24-.03,.42-.08,.19-.05,.29-.11,.3-.16,.06-.23,.08-.51,.08-.84v-2.26c0-.31-.06-.53-.17-.65-.08-.1-.18-.16-.29-.2-.12-.04-.21-.05-.29-.05s-.11,0-.11-.02c0-.19,.02-.29,.07-.3,.84-.13,1.39-.23,1.65-.31h.02s.03-.01,.04-.01c.03,0,.05,.03,.06,.1v.15c-.04,.32-.06,.61-.06,.86v2.48Zm-.97-5.05c-.12-.12-.17-.26-.17-.42s.06-.31,.17-.42c.12-.12,.26-.17,.42-.17s.31,.06,.42,.17c.12,.12,.17,.26,.17,.42s-.06,.31-.17,.42c-.12,.12-.26,.17-.42,.17s-.31-.06-.42-.17Z"/>
  <path class="cls-1" d="M293.58,110.63c.44,0,.75,.11,.94,.32s.29,.55,.29,1.02v2.76c0,.17,.04,.31,.13,.42s.21,.17,.36,.17c.11,0,.25-.06,.42-.17,.03,0,.05,.03,.05,.1,0,.1-.02,.19-.06,.25-.33,.28-.61,.42-.84,.42-.18,0-.36-.08-.53-.23s-.28-.31-.35-.48c0,0-.04,.03-.09,.08s-.12,.11-.21,.18-.19,.14-.3,.21c-.12,.07-.25,.13-.41,.18s-.31,.07-.47,.07c-.37,0-.67-.1-.91-.29s-.36-.49-.36-.88c0-.17,.04-.34,.13-.5s.19-.28,.31-.38,.28-.2,.49-.3,.38-.18,.53-.23,.34-.12,.58-.2c.24-.08,.41-.14,.5-.18,.07-.02,.11-.08,.11-.18v-.9c0-.25-.08-.45-.24-.59s-.35-.21-.57-.21c-.24,0-.44,.08-.6,.25-.16,.16-.24,.38-.24,.64,0,.28-.16,.42-.49,.42-.22,0-.38-.08-.47-.23,0-.34,.25-.68,.75-1.02s1.01-.51,1.53-.51h.02Zm-1.12,4.43c.14,.12,.31,.17,.53,.17s.42-.07,.62-.2,.3-.26,.3-.4v-1.23c-.06,.03-.22,.09-.47,.17s-.44,.15-.58,.21c-.14,.06-.27,.16-.41,.3s-.2,.3-.2,.48c0,.22,.07,.38,.2,.5h.01Z"/>
  <path class="cls-1" d="M296.89,114.46v-5.18c0-.27-.02-.53-.07-.77-.04-.13-.24-.19-.61-.19h-.11s-.07-.04-.07-.13c0-.13,.02-.19,.07-.19,.24-.02,.46-.06,.66-.1s.36-.08,.48-.12c.12-.04,.21-.08,.29-.11,.08-.04,.14-.07,.18-.09l.05-.04h.02s.06,.02,.1,.07c.03,.04,.05,.09,.06,.13-.09,.26-.13,.6-.13,1.04v5.45c0,.46,.03,.82,.1,1.06,.02,.06,.12,.11,.31,.16s.33,.08,.41,.08c.02,0,.04,.05,.05,.14s0,.16-.01,.2c-.8-.04-1.22-.06-1.28-.06-.05,0-.48,.02-1.3,.06-.03-.03-.05-.1-.05-.2s.02-.15,.05-.15c.1,0,.24-.03,.42-.08,.19-.05,.29-.11,.3-.16,.06-.23,.08-.51,.08-.84v.02Z"/>
  <path class="cls-1" d="M277.93,125.26c0,.09-.06,.39-.17,.91-.11,.52-.19,.79-.24,.82-.58,.35-1.53,.53-2.86,.53-1.05,0-1.95-.39-2.68-1.16-.74-.77-1.11-1.69-1.11-2.76,0-1.13,.38-2.1,1.14-2.91,.76-.81,1.69-1.21,2.78-1.21,.94,0,1.91,.1,2.9,.3-.02,1.07-.02,1.64-.02,1.72,0,.12-.08,.18-.25,.18-.08,0-.13-.02-.16-.06-.02-.1-.05-.21-.09-.32s-.11-.25-.23-.42c-.12-.17-.26-.32-.42-.44s-.39-.23-.69-.32-.64-.14-1.01-.14c-.78,0-1.45,.34-2,1.03s-.82,1.47-.82,2.34c0,.65,.11,1.24,.33,1.78s.58,.99,1.06,1.34,1.05,.53,1.72,.53c.79,0,1.4-.23,1.83-.69,.11-.12,.21-.28,.29-.47,.08-.2,.15-.36,.19-.49s.08-.2,.1-.2c.05,0,.11,0,.17,.02,.07,.02,.12,.03,.16,.05l.06,.04h.02Z"/>
  <path class="cls-1" d="M281.23,122.23c.72,0,1.33,.26,1.84,.78s.77,1.14,.77,1.86-.25,1.36-.75,1.88-1.11,.78-1.83,.78-1.34-.26-1.85-.78-.76-1.15-.76-1.88,.25-1.37,.74-1.88c.49-.51,1.11-.76,1.85-.76h0Zm-.13,.47c-.42,0-.77,.19-1.03,.58-.27,.39-.4,.86-.4,1.42,0,.65,.17,1.21,.51,1.68s.74,.7,1.19,.7c.42,0,.77-.2,1.04-.6,.27-.4,.41-.88,.41-1.43,0-.65-.17-1.2-.51-1.66s-.74-.69-1.2-.69h-.01Z"/>
  <path class="cls-1" d="M288.14,122.22c.56,0,.95,.2,1.17,.6s.33,1.04,.33,1.94v1.09c0,.46,.03,.82,.1,1.06,.02,.06,.12,.11,.31,.16s.33,.08,.41,.08c.02,0,.04,.05,.05,.14s0,.16-.01,.2c-.8-.04-1.22-.06-1.28-.06-.02,0-.43,.02-1.25,.06-.03-.03-.05-.1-.05-.2s.02-.15,.05-.15c.1,0,.23-.03,.4-.08,.17-.05,.27-.11,.28-.16,.06-.23,.08-.51,.08-.84v-1.19c0-.74-.1-1.25-.29-1.52s-.5-.41-.93-.41c-.26,0-.5,.09-.74,.28-.23,.19-.35,.36-.35,.51v2.1c0,.46,.03,.82,.1,1.06,.02,.06,.12,.11,.31,.16s.33,.08,.41,.08c.02,0,.04,.05,.05,.14,0,.1,0,.16-.01,.2-.8-.04-1.22-.06-1.28-.06-.05,0-.48,.02-1.3,.06-.03-.03-.05-.1-.05-.2s.02-.15,.05-.15c.1,0,.24-.03,.42-.08,.19-.05,.29-.11,.3-.16,.06-.23,.08-.51,.08-.84v-2.26c0-.31-.06-.53-.17-.65-.08-.1-.18-.16-.29-.2-.12-.04-.21-.05-.29-.05s-.11,0-.11-.02c0-.19,.02-.29,.07-.3,.84-.13,1.39-.23,1.65-.31,0,0,.03,0,.06-.01,.03,0,.05,.03,.06,.1v.15c-.03,.22-.05,.38-.05,.48,0,.03,0,.05,.02,.05,0,0,.02,0,.04-.02,.18-.19,.43-.37,.75-.54,.31-.17,.62-.26,.9-.26v.02Z"/>
  <path class="cls-1" d="M291.87,123.06h-.69s-.06-.08-.06-.25c0-.05,0-.08,.01-.08,.23-.1,.48-.31,.75-.63,.09-.1,.17-.22,.26-.35s.15-.25,.21-.34,.08-.15,.08-.16c.24,0,.36,.02,.36,.06v1.18h1.61c.06,0,.1,.04,.1,.11,0,.14-.04,.29-.12,.45h-1.59v2.93c0,.32,.08,.57,.25,.77,.16,.19,.38,.29,.64,.29,.24,0,.49-.08,.74-.23,.02-.02,.06,.02,.11,.1s.07,.13,.06,.14c-.12,.13-.3,.25-.55,.38s-.5,.19-.77,.19c-.4,0-.73-.13-1-.39-.27-.26-.4-.64-.4-1.12v-3.04h0Z"/>
  <path class="cls-1" d="M297.48,122.33c.37,0,.69,.07,.97,.21s.49,.32,.64,.54,.25,.44,.32,.67c.07,.23,.1,.45,.1,.68,0,.16-.02,.26-.07,.29-.05,.04-.14,.05-.27,.05h-3.01c-.06,0-.1,.02-.1,.06,0,.5,.15,.96,.45,1.39,.3,.42,.74,.63,1.31,.63,.17,0,.33-.02,.48-.05,.15-.03,.28-.07,.39-.11,.11-.04,.2-.09,.27-.13,.08-.04,.14-.09,.2-.13l.08-.06s.07,.05,.07,.16c0,.06-.02,.14-.07,.22-.16,.22-.39,.42-.71,.6-.31,.18-.65,.27-1.02,.27-.66,0-1.23-.25-1.7-.75s-.71-1.11-.71-1.82c0-.84,.23-1.5,.68-1.98,.45-.49,1.01-.73,1.69-.73h0Zm-.12,.43c-.41,0-.73,.18-.95,.53s-.33,.65-.33,.88c0,.06,.02,.08,.07,.08h2.33s.06-.04,.06-.12c0-.25-.11-.55-.32-.88-.21-.33-.5-.5-.86-.5h0Z"/>
  <path class="cls-1" d="M299.96,122.52c.02-.08,.03-.14,.05-.17,.77,.04,1.17,.06,1.2,.06,.02,0,.43-.02,1.25-.06,0,.03,.01,.08,.01,.14,0,.14-.01,.2-.04,.2-.32,0-.48,.07-.48,.2,0,.03,.02,.08,.06,.14l.78,1.21c.06-.09,.14-.21,.25-.38,.11-.16,.2-.29,.27-.39,.07-.1,.13-.21,.19-.32s.08-.2,.08-.25c0-.07-.05-.12-.14-.15-.09-.03-.2-.04-.31-.05-.12,0-.18-.01-.2-.02-.02,0-.04-.07-.04-.19,0-.07,.01-.12,.04-.16,.81,.04,1.23,.06,1.25,.06s.39-.02,1.09-.06c.02,.08,.02,.14,.02,.17,0,.12-.01,.18-.04,.18-.53,.06-.87,.2-1.04,.41l-1.15,1.49s-.02,.05-.02,.08c0,.04,.01,.08,.04,.13l1.28,1.89c.22,.32,.55,.49,1,.53,.02,0,.04,.06,.04,.17,0,.08-.02,.14-.05,.18-.74-.04-1.12-.06-1.12-.06-.02,0-.47,.02-1.33,.06-.02-.08-.02-.13-.02-.16,0-.13,.01-.19,.04-.19,.33-.02,.5-.1,.5-.22,0-.02,0-.04-.02-.07l-.91-1.43-.82,1.23c-.06,.09-.08,.16-.08,.23,0,.14,.2,.23,.6,.26h.06s.04,.06,.04,.18c0,.08-.02,.14-.05,.17-.77-.04-1.17-.06-1.2-.06-.02,0-.4,.02-1.16,.06-.02-.06-.02-.12-.02-.17,0-.12,.02-.18,.05-.18,.53-.08,.89-.25,1.08-.5l1.24-1.66v-.08s0-.04-.02-.07l-1.23-1.8c-.07-.1-.22-.2-.44-.29-.22-.09-.4-.13-.54-.13l-.04-.18v.02Z"/>
  <path class="cls-1" d="M306.35,123.06h-.69s-.06-.08-.06-.25c0-.05,0-.08,.01-.08,.23-.1,.48-.31,.75-.63,.09-.1,.17-.22,.26-.35s.15-.25,.21-.34,.08-.15,.08-.16c.24,0,.36,.02,.36,.06v1.18h1.61c.06,0,.1,.04,.1,.11,0,.14-.04,.29-.12,.45h-1.59v2.93c0,.32,.08,.57,.25,.77,.16,.19,.38,.29,.64,.29,.24,0,.49-.08,.74-.23,.02-.02,.06,.02,.11,.1s.07,.13,.06,.14c-.12,.13-.3,.25-.55,.38s-.5,.19-.77,.19c-.4,0-.73-.13-1-.39-.27-.26-.4-.64-.4-1.12v-3.04h0Z"/>
  <path class="cls-1" d="M311.43,122.31c.17,0,.4,.02,.66,.07,.27,.04,.45,.07,.56,.09,.08,.37,.13,.77,.14,1.22,0,.04-.05,.06-.16,.06s-.17-.03-.18-.08c-.04-.22-.15-.43-.34-.63s-.4-.3-.64-.3c-.57,0-.86,.24-.86,.71,0,.12,.02,.23,.05,.32s.09,.18,.19,.26,.16,.14,.21,.18,.15,.1,.32,.19c.16,.09,.27,.15,.31,.17,.03,.02,.13,.07,.28,.16,.16,.09,.26,.16,.33,.2,.06,.04,.16,.11,.28,.2s.21,.18,.27,.26,.11,.17,.16,.29c.05,.12,.08,.23,.08,.35,0,.47-.18,.86-.55,1.18-.37,.31-.8,.47-1.29,.47-.17,0-.32,0-.46-.03-.14-.02-.3-.05-.5-.1-.19-.05-.34-.08-.44-.1-.05-.13-.09-.33-.14-.6-.04-.27-.07-.49-.07-.65,.06-.05,.11-.07,.14-.07,.12,0,.18,.02,.19,.07,.05,.24,.2,.47,.45,.7s.52,.34,.82,.34c.25,0,.46-.07,.63-.21,.16-.14,.25-.34,.25-.6,0-.14-.03-.26-.08-.38-.05-.12-.14-.22-.25-.31-.12-.09-.22-.17-.32-.23-.1-.06-.24-.14-.42-.23-.18-.1-.32-.17-.41-.23-.62-.36-.93-.78-.93-1.28,0-.43,.17-.78,.52-1.05s.75-.41,1.21-.41h0Z"/>
  <line class="cls-3" x1="212.78" y1="502.23" x2="216.65" y2="419.96"/>
</svg>