<?xml version="1.0" encoding="UTF-8"?>
<svg id="Layer_1" data-name="Layer 1" xmlns="http://www.w3.org/2000/svg" viewBox="0 0 369.94 269.06">
  <defs>
    <style>
      .cls-1 {
        letter-spacing: .05em;
      }

      .cls-2 {
        letter-spacing: .05em;
      }

      .cls-3 {
        fill: #71af56;
        font-family: Larken-Black, Larken-Black;
        font-size: 13.83px;
      }

      .cls-4 {
        letter-spacing: .02em;
      }

      .cls-5 {
        letter-spacing: .02em;
      }

      .cls-6 {
        letter-spacing: .04em;
      }

      .cls-7 {
        letter-spacing: .04em;
      }

      .cls-8 {
        letter-spacing: .04em;
      }

      .cls-9, .cls-10 {
        fill: #2c5e3a;
      }

      .cls-10 {
        font-family: CrimsonText-Regular, 'Crimson Text';
        font-size: 12.57px;
      }

      .cls-11 {
        fill: none;
        stroke: #2c5e3a;
        stroke-miterlimit: 10;
        stroke-width: 1.26px;
      }

      .cls-12 {
        letter-spacing: .05em;
      }

      .cls-13 {
        letter-spacing: .05em;
      }

      .cls-14 {
        letter-spacing: .05em;
      }

      .cls-15 {
        letter-spacing: .05em;
      }

      .cls-16 {
        letter-spacing: .06em;
      }

      .cls-17 {
        letter-spacing: .07em;
      }

      .cls-18 {
        letter-spacing: .03em;
      }

      .cls-19 {
        letter-spacing: .03em;
      }

      .cls-20 {
        letter-spacing: .03em;
      }

      .cls-21 {
        letter-spacing: .05em;
      }

      .cls-22 {
        letter-spacing: .06em;
      }

      .cls-23 {
        letter-spacing: .06em;
      }
    </style>
  </defs>
  <text class="cls-10" transform="translate(162.02 111.16) rotate(130.06)"><tspan x="0" y="0">p</tspan></text>
  <text class="cls-10" transform="translate(157.6 116.4) rotate(130.92)"><tspan x="0" y="0">l</tspan></text>
  <text class="cls-10" transform="translate(155.19 119.2) rotate(131.92)"><tspan x="0" y="0">u</tspan></text>
  <text class="cls-10" transform="translate(150.55 124.34) rotate(133.23)"><tspan x="0" y="0">r</tspan></text>
  <text class="cls-10" transform="translate(146.95 128.16) rotate(134.37)"><tspan x="0" y="0">i</tspan></text>
  <text class="cls-10" transform="translate(144.24 130.94) rotate(135.84)"><tspan x="0" y="0">v</tspan></text>
  <text class="cls-10" transform="translate(139.49 135.54) rotate(137.87)"><tspan x="0" y="0">e</tspan></text>
  <text class="cls-10" transform="translate(135.14 139.45) rotate(139.99)"><tspan x="0" y="0">r</tspan></text>
  <text class="cls-10" transform="translate(131.15 142.79) rotate(142.23)"><tspan x="0" y="0">s</tspan></text>
  <text class="cls-10" transform="translate(127.25 145.81) rotate(145)"><tspan x="0" y="0">e</tspan></text>
  <text class="cls-10" transform="translate(122.46 149.12) rotate(147.73)"><tspan x="0" y="0"> </tspan></text>
  <text class="cls-10" transform="translate(119.6 150.91) rotate(150)"><tspan x="0" y="0"> </tspan></text>
  <text class="cls-10" transform="translate(116.71 152.57) rotate(152.48)"><tspan x="0" y="0"> </tspan></text>
  <text class="cls-10" transform="translate(113.73 154.11) rotate(155.25)"><tspan x="0" y="0"> </tspan></text>
  <text class="cls-10" transform="translate(110.71 155.49) rotate(158.28)"><tspan x="0" y="0"> </tspan></text>
  <text class="cls-10" transform="translate(107.61 156.71) rotate(161.63)"><tspan x="0" y="0"> </tspan></text>
  <text class="cls-10" transform="translate(104.51 157.77) rotate(166.62)"><tspan x="0" y="0">a</tspan></text>
  <text class="cls-10" transform="translate(99.09 159.09) rotate(174.41)"><tspan x="0" y="0">u</tspan></text>
  <text class="cls-10" transform="translate(92.37 159.61) rotate(-179.09)"><tspan x="0" y="0">t</tspan></text>
  <text class="cls-10" transform="translate(88.01 159.57) rotate(-175.57)"><tspan x="0" y="0">o</tspan></text>
  <text class="cls-10" transform="translate(81.3 159.04) rotate(-171.12)"><tspan x="0" y="0">n</tspan></text>
  <text class="cls-10" transform="translate(74.24 157.91) rotate(-166.61)"><tspan x="0" y="0">o</tspan></text>
  <text class="cls-10" transform="translate(67.69 156.42) rotate(-161.01)"><tspan x="0" y="0">m</tspan></text>
  <text class="cls-10" transform="translate(58.03 152.96) rotate(-155.56)"><tspan x="0" y="0">y</tspan></text>
  <text class="cls-10" transform="translate(52.51 150.39) rotate(-152.37)"><tspan x="0" y="0"> </tspan></text>
  <text class="cls-10" transform="translate(49.54 148.83) rotate(-150.08)"><tspan x="0" y="0"> </tspan></text>
  <text class="cls-10" transform="translate(46.63 147.14) rotate(-147.75)"><tspan x="0" y="0"> </tspan></text>
  <text class="cls-10" transform="translate(43.81 145.35) rotate(-145.43)"><tspan x="0" y="0"> </tspan></text>
  <text class="cls-10" transform="translate(41.05 143.43) rotate(-143.07)"><tspan x="0" y="0"> </tspan></text>
  <text class="cls-10" transform="translate(38.36 141.4) rotate(-140.67)"><tspan x="0" y="0"> </tspan></text>
  <text class="cls-10" transform="translate(35.78 139.29) rotate(-137.71)"><tspan x="0" y="0">s</tspan></text>
  <text class="cls-10" transform="translate(32.16 136.02) rotate(-133.47)"><tspan x="0" y="0">o</tspan></text>
  <text class="cls-10" transform="translate(27.56 131.11) rotate(-128.93)"><tspan x="0" y="0">c</tspan></text>
  <text class="cls-10" transform="translate(24.13 126.8) rotate(-125.37)"><tspan x="0" y="0">i</tspan></text>
  <text class="cls-10" transform="translate(21.92 123.7) rotate(-121.69)"><tspan x="0" y="0">a</tspan></text>
  <text class="cls-10" transform="translate(18.97 118.85) rotate(-118.04)"><tspan x="0" y="0">l</tspan></text>
  <text class="cls-10" transform="translate(17.28 115.64) rotate(-115.24)"><tspan x="0" y="0"> </tspan></text>
  <text class="cls-10" transform="translate(15.87 112.61) rotate(-112.33)"><tspan x="0" y="0">i</tspan></text>
  <text class="cls-10" transform="translate(14.39 109.15) rotate(-107.87)"><tspan x="0" y="0">n</tspan></text>
  <text class="cls-10" transform="translate(12.23 102.37) rotate(-101.97)"><tspan x="0" y="0">n</tspan></text>
  <text class="cls-10" transform="translate(10.79 95.42) rotate(-96.22)"><tspan x="0" y="0">o</tspan></text>
  <text class="cls-10" transform="translate(10.1 88.74) rotate(-91.02)"><tspan x="0" y="0">v</tspan></text>
  <text class="cls-10" transform="translate(10.04 82.27) rotate(-85.76)"><tspan x="0" y="0">a</tspan></text>
  <text class="cls-10" transform="translate(10.5 76.61) rotate(-81.59)"><tspan x="0" y="0">t</tspan></text>
  <text class="cls-10" transform="translate(11.17 72.27) rotate(-78.16)"><tspan x="0" y="0">i</tspan></text>
  <text class="cls-10" transform="translate(11.91 68.57) rotate(-73.79)"><tspan x="0" y="0">o</tspan></text>
  <text class="cls-10" transform="translate(13.79 62.14) rotate(-68.11)"><tspan x="0" y="0">n</tspan></text>
  <text class="cls-10" transform="translate(16.53 55.56) rotate(-63.9)"><tspan x="0" y="0"> </tspan></text>
  <text class="cls-10" transform="translate(18.01 52.55) rotate(-61.23)"><tspan x="0" y="0"> </tspan></text>
  <text class="cls-10" transform="translate(19.64 49.62) rotate(-58.59)"><tspan x="0" y="0"> </tspan></text>
  <text class="cls-10" transform="translate(21.4 46.76) rotate(-55.97)"><tspan x="0" y="0"> </tspan></text>
  <text class="cls-10" transform="translate(23.29 43.99) rotate(-53.39)"><tspan x="0" y="0"> </tspan></text>
  <text class="cls-10" transform="translate(25.29 41.31) rotate(-50.85)"><tspan x="0" y="0"> </tspan></text>
  <text class="cls-10" transform="translate(27.41 38.73) rotate(-48.34)"><tspan x="0" y="0"> </tspan></text>
  <text class="cls-10" transform="translate(29.65 36.21) rotate(-45.47)"><tspan x="0" y="0">t</tspan></text>
  <text class="cls-10" transform="translate(32.7 33.12) rotate(-42.01)"><tspan x="0" y="0">r</tspan></text>
  <text class="cls-10" transform="translate(36.54 29.66) rotate(-38.13)"><tspan x="0" y="0">a</tspan></text>
  <text class="cls-10" transform="translate(40.99 26.16) rotate(-33.64)"><tspan x="0" y="0">n</tspan></text>
  <text class="cls-10" transform="translate(46.98 22.25) rotate(-29.47)"><tspan x="0" y="0">s</tspan></text>
  <text class="cls-10" transform="translate(51.29 19.84) rotate(-26.48)"><tspan x="0" y="0">i</tspan></text>
  <text class="cls-10" transform="translate(54.73 18.14) rotate(-23.7)"><tspan x="0" y="0">t</tspan></text>
  <text class="cls-10" transform="translate(58.75 16.39) rotate(-20.94)"><tspan x="0" y="0">i</tspan></text>
  <text class="cls-10" transform="translate(62.3 15) rotate(-17.43)"><tspan x="0" y="0">o</tspan></text>
  <text class="cls-10" transform="translate(68.74 12.99) rotate(-12.86)"><tspan x="0" y="0">n</tspan></text>
  <text class="cls-10" transform="translate(75.73 11.46) rotate(-8.94)"><tspan x="0" y="0">s</tspan></text>
  <text class="cls-10" transform="translate(80.62 10.72) rotate(-6.27)"><tspan x="0" y="0"> </tspan></text>
  <text class="cls-10" transform="translate(83.89 10.25) rotate(-1.95)"><tspan x="0" y="0">m</tspan></text>
  <text class="cls-10" transform="translate(94 9.96) rotate(7.66)"><tspan x="0" y="0">o</tspan></text>
  <text class="cls-10" transform="translate(100.54 10.89) rotate(15.97)"><tspan x="0" y="0">v</tspan></text>
  <text class="cls-10" transform="translate(106.74 12.72) rotate(22.43)"><tspan x="0" y="0">e</tspan></text>
  <text class="cls-10" transform="translate(112.04 14.82) rotate(29.16)"><tspan x="0" y="0">m</tspan></text>
  <text class="cls-10" transform="translate(120.93 19.93) rotate(34.36)"><tspan x="0" y="0">e</tspan></text>
  <text class="cls-10" transform="translate(125.73 23.22) rotate(37.73)"><tspan x="0" y="0">n</tspan></text>
  <text class="cls-10" transform="translate(131.38 27.65) rotate(40.22)"><tspan x="0" y="0">t</tspan></text>
  <text class="cls-10" transform="translate(134.76 30.51) rotate(41.97)"><tspan x="0" y="0">s</tspan></text>
  <text class="cls-10" transform="translate(138.46 33.87) rotate(43.35)"><tspan x="0" y="0"> </tspan></text>
  <text class="cls-10" transform="translate(193.21 78.86) rotate(-52.59)"><tspan x="0" y="0">s</tspan></text>
  <text class="cls-10" transform="translate(196.26 74.87) rotate(-52.14)"><tspan x="0" y="0">p</tspan></text>
  <text class="cls-10" transform="translate(200.49 69.43) rotate(-51.53)"><tspan x="0" y="0">e</tspan></text>
  <text class="cls-10" transform="translate(204.15 64.84) rotate(-50.87)"><tspan x="0" y="0">c</tspan></text>
  <text class="cls-10" transform="translate(207.68 60.5) rotate(-49.99)"><tspan x="0" y="0">u</tspan></text>
  <text class="cls-10" transform="translate(212.15 55.19) rotate(-49.13)"><tspan x="0" y="0">l</tspan></text>
  <text class="cls-10" transform="translate(214.55 52.41) rotate(-48.26)"><tspan x="0" y="0">a</tspan></text>
  <text class="cls-10" transform="translate(218.41 48.1) rotate(-47.19)"><tspan x="0" y="0">t</tspan></text>
  <text class="cls-10" transform="translate(221.44 44.84) rotate(-46.21)"><tspan x="0" y="0">i</tspan></text>
  <text class="cls-10" transform="translate(224.11 42.04) rotate(-44.82)"><tspan x="0" y="0">v</tspan></text>
  <text class="cls-10" transform="translate(228.82 37.37) rotate(-42.9)"><tspan x="0" y="0">e</tspan></text>
  <text class="cls-10" transform="translate(233.14 33.4) rotate(-41.25)"><tspan x="0" y="0"> </tspan></text>
  <text class="cls-10" transform="translate(235.65 31.18) rotate(-39.42)"><tspan x="0" y="0">a</tspan></text>
  <text class="cls-10" transform="translate(240.08 27.53) rotate(-36.38)"><tspan x="0" y="0">n</tspan></text>
  <text class="cls-10" transform="translate(245.84 23.3) rotate(-32.46)"><tspan x="0" y="0">d</tspan></text>
  <text class="cls-10" transform="translate(251.45 19.81) rotate(-29.07)"><tspan x="0" y="0"> </tspan></text>
  <text class="cls-10" transform="translate(254.34 18.18) rotate(-25.73)"><tspan x="0" y="0">r</tspan></text>
  <text class="cls-10" transform="translate(258.98 15.95) rotate(-20.77)"><tspan x="0" y="0">e</tspan></text>
  <text class="cls-10" transform="translate(264.28 13.93) rotate(-14.41)"><tspan x="0" y="0">g</tspan></text>
  <text class="cls-10" transform="translate(270.3 12.42) rotate(-7.05)"><tspan x="0" y="0">e</tspan></text>
  <text class="cls-10" transform="translate(275.9 11.74) rotate(.85)"><tspan x="0" y="0">n</tspan></text>
  <text class="cls-10" transform="translate(283.07 11.88) rotate(4.85)"><tspan x="0" y="0">e</tspan></text>
  <text class="cls-10" transform="translate(288.83 12.39) rotate(8.36)"><tspan x="0" y="0">r</tspan></text>
  <text class="cls-10" transform="translate(293.95 13.15) rotate(11.89)"><tspan x="0" y="0">a</tspan></text>
  <text class="cls-10" transform="translate(299.53 14.36) rotate(15.19)"><tspan x="0" y="0">t</tspan></text>
  <text class="cls-10" transform="translate(303.76 15.53) rotate(17.9)"><tspan x="0" y="0">i</tspan></text>
  <text class="cls-10" transform="translate(307.4 16.68) rotate(21.36)"><tspan x="0" y="0">v</tspan></text>
  <text class="cls-10" transform="translate(313.47 19.09) rotate(25.49)"><tspan x="0" y="0">e</tspan></text>
  <text class="cls-10" transform="translate(318.69 21.63) rotate(28.6)"><tspan x="0" y="0"> </tspan></text>
  <text class="cls-10" transform="translate(321.62 23.19) rotate(32.02)"><tspan x="0" y="0">d</tspan></text>
  <text class="cls-10" transform="translate(327.19 26.71) rotate(36.33)"><tspan x="0" y="0">e</tspan></text>
  <text class="cls-10" transform="translate(331.82 30.15) rotate(40.11)"><tspan x="0" y="0">s</tspan></text>
  <text class="cls-10" transform="translate(335.58 33.35) rotate(43.27)"><tspan x="0" y="0">i</tspan></text>
  <text class="cls-10" transform="translate(338.35 35.92) rotate(46.96)"><tspan x="0" y="0">g</tspan></text>
  <text class="cls-10" transform="translate(342.65 40.53) rotate(52)"><tspan x="0" y="0">n</tspan></text>
  <text class="cls-10" transform="translate(346.98 46.21) rotate(55.99)"><tspan x="0" y="0"> </tspan></text>
  <text class="cls-10" transform="translate(348.85 49) rotate(58.61)"><tspan x="0" y="0"> </tspan></text>
  <text class="cls-10" transform="translate(350.59 51.87) rotate(61.25)"><tspan x="0" y="0"> </tspan></text>
  <text class="cls-10" transform="translate(352.19 54.81) rotate(63.93)"><tspan x="0" y="0"> </tspan></text>
  <text class="cls-10" transform="translate(353.63 57.8) rotate(66.61)"><tspan x="0" y="0"> </tspan></text>
  <text class="cls-10" transform="translate(354.99 60.82) rotate(70.72)"><tspan x="0" y="0">p</tspan></text>
  <text class="cls-10" transform="translate(357.19 67.17) rotate(76.28)"><tspan x="0" y="0">o</tspan></text>
  <text class="cls-10" transform="translate(358.73 73.72) rotate(81.12)"><tspan x="0" y="0">s</tspan></text>
  <text class="cls-10" transform="translate(359.46 78.56) rotate(84.97)"><tspan x="0" y="0">t</tspan></text>
  <text class="cls-10" transform="translate(359.81 82.93) rotate(88.16)"><tspan x="0" y="0"> </tspan></text>
  <text class="cls-10" transform="translate(359.94 86.23) rotate(91.86)"><tspan x="0" y="0">a</tspan></text>
  <text class="cls-10" transform="translate(359.77 91.87) rotate(97.16)"><tspan x="0" y="0">n</tspan></text>
  <text class="cls-10" transform="translate(358.8 98.95) rotate(101.94)"><tspan x="0" y="0">t</tspan></text>
  <text class="cls-10" transform="translate(357.95 103.17) rotate(106.62)"><tspan x="0" y="0">h</tspan></text>
  <text class="cls-10" transform="translate(355.89 109.84) rotate(111.6)"><tspan x="0" y="0">r</tspan></text>
  <text class="cls-10" transform="translate(354.02 114.61) rotate(116.4)"><tspan x="0" y="0">o</tspan></text>
  <text class="cls-10" transform="translate(351.02 120.61) rotate(121.71)"><tspan x="0" y="0">p</tspan></text>
  <text class="cls-10" transform="translate(347.47 126.31) rotate(126.9)"><tspan x="0" y="0">o</tspan></text>
  <text class="cls-10" transform="translate(343.39 131.66) rotate(131.48)"><tspan x="0" y="0">c</tspan></text>
  <text class="cls-10" transform="translate(339.77 135.74) rotate(135.62)"><tspan x="0" y="0">e</tspan></text>
  <text class="cls-10" transform="translate(335.66 139.77) rotate(140.27)"><tspan x="0" y="0">n</tspan></text>
  <text class="cls-10" transform="translate(330.12 144.29) rotate(144.34)"><tspan x="0" y="0">t</tspan></text>
  <text class="cls-10" transform="translate(326.56 146.84) rotate(147.67)"><tspan x="0" y="0">r</tspan></text>
  <text class="cls-10" transform="translate(322.16 149.58) rotate(150.78)"><tspan x="0" y="0">i</tspan></text>
  <text class="cls-10" transform="translate(318.82 151.46) rotate(153.77)"><tspan x="0" y="0">s</tspan></text>
  <text class="cls-10" transform="translate(314.48 153.7) rotate(158.87)"><tspan x="0" y="0">m</tspan></text>
  <text class="cls-10" transform="translate(304.84 157.26) rotate(163.38)"><tspan x="0" y="0"> </tspan></text>
  <text class="cls-10" transform="translate(301.6 158.22) rotate(165.6)"><tspan x="0" y="0"> </tspan></text>
  <text class="cls-10" transform="translate(298.36 159.04) rotate(167.78)"><tspan x="0" y="0"> </tspan></text>
  <text class="cls-10" transform="translate(295.06 159.74) rotate(169.98)"><tspan x="0" y="0"> </tspan></text>
  <text class="cls-10" transform="translate(291.74 160.32) rotate(172.16)"><tspan x="0" y="0"> </tspan></text>
  <text class="cls-10" transform="translate(288.42 160.76) rotate(174.31)"><tspan x="0" y="0"> </tspan></text>
  <text class="cls-10" transform="translate(285.06 161.09) rotate(176.46)"><tspan x="0" y="0"> </tspan></text>
  <text class="cls-10" transform="translate(281.72 161.3) rotate(179.15)"><tspan x="0" y="0">c</tspan></text>
  <text class="cls-10" transform="translate(276.35 161.38) rotate(-174.04)"><tspan x="0" y="0">r</tspan></text>
  <text class="cls-10" transform="translate(271.3 160.79) rotate(-168.06)"><tspan x="0" y="0">i</tspan></text>
  <text class="cls-10" transform="translate(267.62 160) rotate(-163.17)"><tspan x="0" y="0">t</tspan></text>
  <text class="cls-10" transform="translate(263.48 158.71) rotate(-158.82)"><tspan x="0" y="0">i</tspan></text>
  <text class="cls-10" transform="translate(259.96 157.36) rotate(-154.54)"><tspan x="0" y="0">c</tspan></text>
  <text class="cls-10" transform="translate(255.03 154.99) rotate(-150.14)"><tspan x="0" y="0">a</tspan></text>
  <text class="cls-10" transform="translate(250.1 152.11) rotate(-147.05)"><tspan x="0" y="0">l</tspan></text>
  <text class="cls-10" transform="translate(247.06 150.12) rotate(-145.01)"><tspan x="0" y="0"> </tspan></text>
  <text class="cls-10" transform="translate(244.3 148.22) rotate(-142.41)"><tspan x="0" y="0">o</tspan></text>
  <text class="cls-10" transform="translate(238.94 144.07) rotate(-139.53)"><tspan x="0" y="0">b</tspan></text>
  <text class="cls-10" transform="translate(233.86 139.68) rotate(-137.68)"><tspan x="0" y="0">j</tspan></text>
  <text class="cls-10" transform="translate(231.27 137.33) rotate(-136.19)"><tspan x="0" y="0">e</tspan></text>
  <text class="cls-10" transform="translate(227.06 133.28) rotate(-134.6)"><tspan x="0" y="0">c</tspan></text>
  <text class="cls-10" transform="translate(223.16 129.31) rotate(-133.39)"><tspan x="0" y="0">t</tspan></text>
  <text class="cls-10" transform="translate(220.11 126.07) rotate(-132.37)"><tspan x="0" y="0">s</tspan></text>
  <text class="cls-10" transform="translate(216.74 122.37) rotate(-131.55)"><tspan x="0" y="0"> </tspan></text>
  <text class="cls-10" transform="translate(214.47 119.79) rotate(-130.95)"><tspan x="0" y="0"> </tspan></text>
  <text class="cls-10" transform="translate(212.24 117.22) rotate(-130.39)"><tspan x="0" y="0"> </tspan></text>
  <text class="cls-10" transform="translate(210.03 114.62) rotate(-129.88)"><tspan x="0" y="0"> </tspan></text>
  <text class="cls-10" transform="translate(207.83 111.98) rotate(-129.4)"><tspan x="0" y="0"> </tspan></text>
  <text class="cls-10" transform="translate(205.65 109.34) rotate(-128.77)"><tspan x="0" y="0">d</tspan></text>
  <text class="cls-10" transform="translate(201.45 104.1) rotate(-128.1)"><tspan x="0" y="0">e</tspan></text>
  <text class="cls-10" transform="translate(197.83 99.48) rotate(-127.58)"><tspan x="0" y="0">e</tspan></text>
  <text class="cls-10" transform="translate(194.23 94.8) rotate(-127.11)"><tspan x="0" y="0">p</tspan></text>
  <text class="cls-10" transform="translate(190.07 89.29) rotate(-126.81)"><tspan x="0" y="0"> </tspan></text>
  <text class="cls-10" transform="translate(188.02 86.55) rotate(-126.61)"><tspan x="0" y="0">e</tspan></text>
  <text class="cls-10" transform="translate(184.5 81.81) rotate(-126.4)"><tspan x="0" y="0">m</tspan></text>
  <text class="cls-10" transform="translate(178.3 73.39) rotate(-126.42)"><tspan x="0" y="0">p</tspan></text>
  <text class="cls-10" transform="translate(174.21 67.85) rotate(-126.63)"><tspan x="0" y="0">a</tspan></text>
  <text class="cls-10" transform="translate(170.74 63.19) rotate(-126.95)"><tspan x="0" y="0">t</tspan></text>
  <text class="cls-10" transform="translate(168.06 59.61) rotate(-127.54)"><tspan x="0" y="0">h</tspan></text>
  <text class="cls-10" transform="translate(163.73 53.99) rotate(-128.6)"><tspan x="0" y="0">y</tspan></text>
  <text class="cls-10" transform="translate(159.85 49.16) rotate(-129.79)"><tspan x="0" y="0"> </tspan></text>
  <text/>
  <text class="cls-3" transform="translate(257.51 78.7)"><tspan class="cls-15" x="0" y="0">Br</tspan><tspan class="cls-7" x="17.33" y="0">o</tspan><tspan class="cls-20" x="26.08" y="0">k</tspan><tspan class="cls-2" x="34.92" y="0">e</tspan><tspan class="cls-15" x="43.26" y="0">n </tspan><tspan class="cls-4" x="0" y="16.6">N</tspan><tspan class="cls-18" x="10.72" y="16.6">a</tspan><tspan class="cls-13" x="19.22" y="16.6">ture</tspan></text>
  <text class="cls-3" transform="translate(155.67 235.16)"><tspan class="cls-17" x="0" y="0">See</tspan><tspan class="cls-12" x="26.98" y="0">d </tspan><tspan class="cls-1" x="39.75" y="0">o</tspan><tspan class="cls-15" x="48.57" y="0">f </tspan><tspan class="cls-21" x="0" y="16.6">t</tspan><tspan class="cls-12" x="6.31" y="16.6">his </tspan><tspan class="cls-19" x="31.78" y="16.6">w</tspan><tspan class="cls-6" x="43.94" y="16.6">or</tspan><tspan class="cls-12" x="59.75" y="16.6">k</tspan></text>
  <text class="cls-3" transform="translate(49.73 72.09)"><tspan class="cls-16" x="0" y="0">D</tspan><tspan class="cls-12" x="10.93" y="0">esi</tspan><tspan class="cls-22" x="31.87" y="0">g</tspan><tspan class="cls-12" x="40.08" y="0">ns </tspan><tspan class="cls-4" x="0" y="16.6">f</tspan><tspan class="cls-8" x="6.46" y="16.6">o</tspan><tspan class="cls-15" x="15.21" y="16.6">r </tspan><tspan class="cls-21" x="26.06" y="16.6">t</tspan><tspan class="cls-12" x="32.36" y="16.6">he </tspan><tspan class="cls-14" x="0" y="33.19">P</tspan><tspan class="cls-12" x="9.61" y="33.19">luri</tspan><tspan class="cls-5" x="35.42" y="33.19">v</tspan><tspan class="cls-14" x="43.84" y="33.19">e</tspan><tspan class="cls-15" x="52.18" y="33.19">r</tspan><tspan class="cls-23" x="59.37" y="33.19">s</tspan><tspan class="cls-15" x="67.15" y="33.19">e</tspan></text>
  <g>
    <line class="cls-11" x1="184.94" y1="120.97" x2="184.94" y2="200.06"/>
    <polygon class="cls-9" points="180.28 196.53 184.94 198.5 189.6 196.53 184.94 207.56 180.28 196.53"/>
  </g>
</svg>