<?xml version="1.0" encoding="utf-8"?>
<!-- Generator: Adobe Illustrator 26.0.2, SVG Export Plug-In . SVG Version: 6.00 Build 0)  -->
<svg version="1.1" id="Layer_2_00000123409220041163613420000014180054643546480317_"
	 xmlns="http://www.w3.org/2000/svg" xmlns:xlink="http://www.w3.org/1999/xlink" x="0px" y="0px" viewBox="0 0 520 481.9"
	 style="enable-background:new 0 0 520 481.9;" xml:space="preserve">
<style type="text/css">
	.st0{fill:none;stroke:#C93B31;stroke-miterlimit:10;}
	.st1{fill:#8F1E14;}
	.st2{font-family:'ArialMT';}
	.st3{font-size:10px;}
	.st4{fill:#939BB9;}
	.st5{fill:none;}
	.st6{fill:#494463;}
	.st7{font-size:9.85px;}
	.st8{fill:none;stroke:#2C5E3A;stroke-miterlimit:10;}
	.st9{fill:#2C5E3A;}
	.st10{fill:none;stroke:#2C5E3A;stroke-miterlimit:10;stroke-dasharray:0,0,2.02,2.02;}
</style>
<circle class="st0" cx="255" cy="240" r="236.1"/>
<g>
	<text transform="matrix(0.1661 -0.9861 0.9861 0.1661 35.54 210.5697)" class="st1 st2 st3">W</text>
	<text transform="matrix(0.2036 -0.979 0.979 0.2036 37.47 199.5397)" class="st1 st2 st3">h</text>
	<text transform="matrix(0.2273 -0.9738 0.9738 0.2273 38.68 193.7596)" class="st1 st2 st3">a</text>
	<text transform="matrix(0.246 -0.9693 0.9693 0.246 39.79 189.0597)" class="st1 st2 st3">t</text>
	<text transform="matrix(0.2778 -0.9606 0.9606 0.2778 41.5101 182.5204)" class="st1 st2 st3">a</text>
	<text transform="matrix(0.2977 -0.9547 0.9547 0.2977 42.8599 177.8697)" class="st1 st2 st3">r</text>
	<text transform="matrix(0.3178 -0.9482 0.9482 0.3178 44.1901 173.6399)" class="st1 st2 st3">e</text>
	<text transform="matrix(0.3487 -0.9372 0.9372 0.3487 46.75 166.1998)" class="st1 st2 st3">“</text>
	<text transform="matrix(0.3688 -0.9295 0.9295 0.3688 48.0599 162.6897)" class="st1 st2 st3">p</text>
	<text transform="matrix(0.3925 -0.9198 0.9198 0.3925 50.1601 157.4096)" class="st1 st2 st3">o</text>
	<text transform="matrix(0.4109 -0.9117 0.9117 0.4109 52.4301 152.1498)" class="st1 st2 st3">l</text>
	<text transform="matrix(0.4244 -0.9055 0.9055 0.4244 53.7399 149.2598)" class="st1 st2 st3">i</text>
	<text transform="matrix(0.4388 -0.8986 0.8986 0.4388 55.16 146.23)" class="st1 st2 st3">t</text>
	<text transform="matrix(0.4534 -0.8913 0.8913 0.4534 56.8299 142.8296)" class="st1 st2 st3">i</text>
	<text transform="matrix(0.4693 -0.883 0.883 0.4693 58.3501 139.8499)" class="st1 st2 st3">c</text>
	<text transform="matrix(0.4869 -0.8734 0.8734 0.4869 60.55 135.7301)" class="st1 st2 st3">s</text>
	<text transform="matrix(0.5179 -0.8555 0.8555 0.5179 64.0999 129.4697)" class="st1 st2 st3">o</text>
	<text transform="matrix(0.5358 -0.8443 0.8443 0.5358 67.07 124.6)" class="st1 st2 st3">f</text>
	<text transform="matrix(0.5681 -0.8229 0.8229 0.5681 70.6299 119.0499)" class="st1 st2 st3">N</text>
	<text transform="matrix(0.591 -0.8067 0.8067 0.591 75.05 112.6904)" class="st1 st2 st3">a</text>
	<text transform="matrix(0.6064 -0.7952 0.7952 0.6064 77.9299 108.7796)" class="st1 st2 st3">t</text>
	<text transform="matrix(0.6231 -0.7822 0.7822 0.6231 80.2101 105.78)" class="st1 st2 st3">u</text>
	<text transform="matrix(0.6405 -0.7679 0.7679 0.6405 83.82 101.2696)" class="st1 st2 st3">r</text>
	<text transform="matrix(0.6518 -0.7584 0.7584 0.6518 86.6799 97.8704)" class="st1 st2 st3">e</text>
	<text transform="matrix(0.6704 -0.742 0.742 0.6704 89.91 94.1598)" class="st1 st2 st3">”</text>
	<text transform="matrix(0.693 -0.7209 0.7209 0.693 94.4501 89.22)" class="st1 st2 st3">?</text>
	<text transform="matrix(0.7266 -0.6871 0.6871 0.7266 99.46 84.0101)" class="st1 st2 st3">W</text>
	<text transform="matrix(0.7522 -0.659 0.659 0.7522 107.6401 76.36)" class="st1 st2 st3">h</text>
	<text transform="matrix(0.7678 -0.6406 0.6406 0.7678 112.0799 72.4998)" class="st1 st2 st3">a</text>
	<text transform="matrix(0.7802 -0.6255 0.6255 0.7802 115.8101 69.4001)" class="st1 st2 st3">t</text>
	<text transform="matrix(0.8002 -0.5997 0.5997 0.8002 121.1101 65.21)" class="st1 st2 st3">a</text>
	<text transform="matrix(0.8126 -0.5828 0.5828 0.8126 124.99 62.3199)" class="st1 st2 st3">r</text>
	<text transform="matrix(0.8247 -0.5655 0.5655 0.8247 128.6001 59.7399)" class="st1 st2 st3">e</text>
	<text transform="matrix(0.843 -0.5379 0.5379 0.843 135.14 55.3399)" class="st1 st2 st3">t</text>
	<text transform="matrix(0.8545 -0.5194 0.5194 0.8545 138.33 53.2999)" class="st1 st2 st3">h</text>
	<text transform="matrix(0.867 -0.4983 0.4983 0.867 143.3601 50.26)" class="st1 st2 st3">e</text>
	<text transform="matrix(0.8839 -0.4676 0.4676 0.8839 150.23 46.3901)" class="st1 st2 st3">c</text>
	<text transform="matrix(0.8946 -0.4468 0.4468 0.8946 154.3599 44.2)" class="st1 st2 st3">o</text>
	<text transform="matrix(0.906 -0.4233 0.4233 0.906 159.44 41.67)" class="st1 st2 st3">n</text>
	<text transform="matrix(0.9172 -0.3984 0.3984 0.9172 164.89 39.14)" class="st1 st2 st3">n</text>
	<text transform="matrix(0.9267 -0.3757 0.3757 0.9267 170.4199 36.75)" class="st1 st2 st3">e</text>
	<text transform="matrix(0.9346 -0.3558 0.3558 0.9346 174.9501 34.9201)" class="st1 st2 st3">c</text>
	<text transform="matrix(0.9412 -0.3379 0.3379 0.9412 179.3501 33.26)" class="st1 st2 st3">t</text>
	<text transform="matrix(0.9465 -0.3228 0.3228 0.9465 182.91 31.9901)" class="st1 st2 st3">i</text>
	<text transform="matrix(0.9528 -0.3035 0.3035 0.9528 186.07 30.9099)" class="st1 st2 st3">o</text>
	<text transform="matrix(0.9604 -0.2785 0.2785 0.9604 191.49 29.19)" class="st1 st2 st3">n</text>
	<text transform="matrix(0.9666 -0.2565 0.2565 0.9666 197.27 27.53)" class="st1 st2 st3">s</text>
	<text transform="matrix(0.975 -0.2222 0.2222 0.975 204.2401 25.74)" class="st1 st2 st3">b</text>
	<text transform="matrix(0.9799 -0.1994 0.1994 0.9799 209.68 24.51)" class="st1 st2 st3">e</text>
	<text transform="matrix(0.9836 -0.1803 0.1803 0.9836 214.5 23.5401)" class="st1 st2 st3">t</text>
	<text transform="matrix(0.988 -0.1547 0.1547 0.988 218.21 22.8401)" class="st1 st2 st3">w</text>
	<text transform="matrix(0.992 -0.1264 0.1264 0.992 226 21.66)" class="st1 st2 st3">e</text>
	<text transform="matrix(0.9945 -0.1047 0.1047 0.9945 230.88 21.04)" class="st1 st2 st3">e</text>
	<text transform="matrix(0.9968 -8.054686e-02 8.054686e-02 0.9968 235.75 20.53)" class="st1 st2 st3">n</text>
	<text transform="matrix(0.999 -4.553734e-02 4.553734e-02 0.999 244.71 19.89)" class="st1 st2 st3">t</text>
	<text transform="matrix(0.9997 -2.390873e-02 2.390873e-02 0.9997 248.5 19.72)" class="st1 st2 st3">h</text>
	<text transform="matrix(1 0 0 1 254.38 19.59)" class="st1 st2 st3">e</text>
	<text transform="matrix(0.9998 2.041893e-02 -2.041893e-02 0.9998 259.29 19.6)" class="st1 st2 st3">s</text>
	<text transform="matrix(0.9992 4.082935e-02 -4.082935e-02 0.9992 263.52 19.69)" class="st1 st2 st3">e</text>
	<text transform="matrix(0.9966 8.263427e-02 -8.263427e-02 0.9966 271.39 20.06)" class="st1 st2 st3">w</text>
	<text transform="matrix(0.9936 0.1127 -0.1127 0.9936 279.23 20.74)" class="st1 st2 st3">o</text>
	<text transform="matrix(0.9908 0.1352 -0.1352 0.9908 284.88 21.39)" class="st1 st2 st3">r</text>
	<text transform="matrix(0.9876 0.1573 -0.1573 0.9876 289.26 21.99)" class="st1 st2 st3">d</text>
	<text transform="matrix(0.9839 0.179 -0.179 0.9839 294.76 22.88)" class="st1 st2 st3">s</text>
	<text transform="matrix(0.9802 0.1978 -0.1978 0.9802 298.9299 23.65)" class="st1 st2 st3">?</text>
	<text transform="matrix(0.9715 0.2368 -0.2368 0.9715 306.0099 25.1199)" class="st1 st2 st3">H</text>
	<text transform="matrix(0.964 0.2657 -0.2657 0.964 313.4001 26.94)" class="st1 st2 st3">o</text>
	<text transform="matrix(0.9555 0.295 -0.295 0.9555 318.88 28.4501)" class="st1 st2 st3">w</text>
	<text transform="matrix(0.9417 0.3364 -0.3364 0.9417 329.1999 31.75)" class="st1 st2 st3">d</text>
	<text transform="matrix(0.9328 0.3603 -0.3603 0.9328 334.4401 33.6199)" class="st1 st2 st3">o</text>
	<text transform="matrix(0.9198 0.3925 -0.3925 0.9198 342.4902 36.8201)" class="st1 st2 st3">t</text>
	<text transform="matrix(0.9109 0.4126 -0.4126 0.9109 345.9799 38.31)" class="st1 st2 st3">h</text>
	<text transform="matrix(0.9006 0.4346 -0.4346 0.9006 351.3099 40.74)" class="st1 st2 st3">e</text>
	<text transform="matrix(0.8905 0.4549 -0.4549 0.8905 355.7398 42.8799)" class="st1 st2 st3">y</text>
	<text transform="matrix(0.8703 0.4926 -0.4926 0.8703 362.9502 46.6201)" class="st1 st2 st3">w</text>
	<text transform="matrix(0.8548 0.5189 -0.5189 0.8548 369.78 50.5199)" class="st1 st2 st3">o</text>
	<text transform="matrix(0.8428 0.5382 -0.5382 0.8428 374.6298 53.4799)" class="st1 st2 st3">r</text>
	<text transform="matrix(0.8305 0.557 -0.557 0.8305 378.36 55.87)" class="st1 st2 st3">k</text>
	<text transform="matrix(0.8117 0.5841 -0.5841 0.8117 385.3902 60.68)" class="st1 st2 st3">i</text>
	<text transform="matrix(0.7993 0.601 -0.601 0.7993 388.1199 62.64)" class="st1 st2 st3">n</text>
	<text transform="matrix(0.7752 0.6318 -0.6318 0.7752 395.2502 68.0899)" class="st1 st2 st3">o</text>
	<text transform="matrix(0.7648 0.6443 -0.6443 0.7648 399.64 71.7101)" class="st1 st2 st3">u</text>
	<text transform="matrix(0.7436 0.6686 -0.6686 0.7436 404.02 75.4499)" class="st1 st2 st3">r</text>
	<text transform="matrix(0.7216 0.6923 -0.6923 0.7216 409.4797 80.4399)" class="st1 st2 st3">c</text>
	<text transform="matrix(0.7054 0.7088 -0.7088 0.7054 412.85 83.6701)" class="st1 st2 st3">u</text>
	<text transform="matrix(0.6891 0.7247 -0.7247 0.6891 416.9002 87.7699)" class="st1 st2 st3">r</text>
	<text transform="matrix(0.6747 0.7381 -0.7381 0.6747 419.9404 90.9699)" class="st1 st2 st3">r</text>
	<text transform="matrix(0.6591 0.7521 -0.7521 0.6591 422.9295 94.2501)" class="st1 st2 st3">e</text>
	<text transform="matrix(0.6405 0.7679 -0.7679 0.6405 426.16 97.94)" class="st1 st2 st3">n</text>
	<text transform="matrix(0.6233 0.782 -0.782 0.6233 429.9999 102.5801)" class="st1 st2 st3">t</text>
	<text transform="matrix(0.5985 0.8011 -0.8011 0.5985 434.1698 107.8901)" class="st1 st2 st3">s</text>
	<text transform="matrix(0.5804 0.8143 -0.8143 0.5804 436.6995 111.2699)" class="st1 st2 st3">o</text>
	<text transform="matrix(0.5612 0.8277 -0.8277 0.5612 439.9904 115.9101)" class="st1 st2 st3">c</text>
	<text transform="matrix(0.5461 0.8377 -0.8377 0.5461 442.61 119.7999)" class="st1 st2 st3">i</text>
	<text transform="matrix(0.5289 0.8487 -0.8487 0.5289 444.4295 122.59)" class="st1 st2 st3">o</text>
	<text transform="matrix(0.5095 0.8605 -0.8605 0.5095 447.4297 127.4301)" class="st1 st2 st3">-</text>
	<text transform="matrix(0.4914 0.871 -0.871 0.4914 449.6501 131.1901)" class="st1 st2 st3">e</text>
	<text transform="matrix(0.4722 0.8815 -0.8815 0.4722 452.0698 135.49)" class="st1 st2 st3">c</text>
	<text transform="matrix(0.4517 0.8922 -0.8922 0.4517 454.2597 139.6)" class="st1 st2 st3">o</text>
	<text transform="matrix(0.4278 0.9039 -0.9039 0.4278 456.83 144.6801)" class="st1 st2 st3">n</text>
	<text transform="matrix(0.4039 0.9148 -0.9148 0.4039 459.3903 150.1199)" class="st1 st2 st3">o</text>
	<text transform="matrix(0.3746 0.9272 -0.9272 0.3746 461.6902 155.3)" class="st1 st2 st3">m</text>
	<text transform="matrix(0.3496 0.9369 -0.9369 0.3496 464.8502 163.2299)" class="st1 st2 st3">i</text>
	<text transform="matrix(0.3327 0.943 -0.943 0.3327 466.0104 166.3601)" class="st1 st2 st3">c</text>
	<text transform="matrix(0.3012 0.9536 -0.9536 0.3012 468.4904 173.5701)" class="st1 st2 st3">s</text>
	<text transform="matrix(0.281 0.9597 -0.9597 0.281 469.7596 177.6201)" class="st1 st2 st3">y</text>
	<text transform="matrix(0.2608 0.9654 -0.9654 0.2608 471.1998 182.56)" class="st1 st2 st3">s</text>
	<text transform="matrix(0.2434 0.9699 -0.9699 0.2434 472.2903 186.6401)" class="st1 st2 st3">t</text>
	<text transform="matrix(0.2246 0.9744 -0.9744 0.2246 473.2101 190.3201)" class="st1 st2 st3">e</text>
	<text transform="matrix(0.1953 0.9808 -0.9808 0.1953 474.3297 195.09)" class="st1 st2 st3">m</text>
	<text transform="matrix(0.1673 0.9859 -0.9859 0.1673 475.9601 203.45)" class="st1 st2 st3">?</text>
</g>
<path class="st4" d="M255.9,115.4c-69.4,0-125.6,56.2-125.6,125.6s56.2,125.6,125.6,125.6s125.6-56.2,125.6-125.6
	S325.2,115.4,255.9,115.4L255.9,115.4z M255.9,349.1c-59.7,0-108.1-48.4-108.1-108.1s48.4-108.1,108.1-108.1S364,181.2,364,240.9
	S315.6,349.1,255.9,349.1z"/>
<path class="st4" d="M255.9,263.7c12.5,0,22.7-10.2,22.7-22.7s-10.2-22.7-22.7-22.7s-22.7,10.2-22.7,22.7S243.3,263.7,255.9,263.7z"
	/>
<rect x="14.9" class="st5" width="481.9" height="481.9"/>
<circle class="st0" cx="255.9" cy="240.9" r="214"/>
<text transform="matrix(-0.144 -0.9896 0.9896 -0.144 86.22 270.8805)" class="st1 st2 st3">W</text>
<text transform="matrix(-9.445579e-02 -0.9955 0.9955 -9.445579e-02 84.69 259.7993)" class="st1 st2 st3">h</text>
<text transform="matrix(-6.331303e-02 -0.998 0.998 -6.331303e-02 84.16 253.9598)" class="st1 st2 st3">a</text>
<text transform="matrix(-3.786456e-02 -0.9993 0.9993 -3.786456e-02 83.87 249.0999)" class="st1 st2 st3">t</text>
<text transform="matrix(4.537878e-03 -1 1 4.537878e-03 83.68 242.3803)" class="st1 st2 st3">a</text>
<text transform="matrix(3.141081e-02 -0.9995 0.9995 3.141081e-02 83.71 237.5595)" class="st1 st2 st3">r</text>
<text transform="matrix(5.843519e-02 -0.9983 0.9983 5.843519e-02 83.86 233.1404)" class="st1 st2 st3">e</text>
<text transform="matrix(0.1007 -0.9949 0.9949 0.1007 84.4101 225.2798)" class="st1 st2 st3">t</text>
<text transform="matrix(0.1283 -0.9917 0.9917 0.1283 84.78 221.5297)" class="st1 st2 st3">h</text>
<text transform="matrix(0.159 -0.9873 0.9873 0.159 85.56 215.7001)" class="st1 st2 st3">e</text>
<text transform="matrix(0.2093 -0.9779 0.9779 0.2093 86.87 207.9605)" class="st1 st2 st3">a</text>
<text transform="matrix(0.2253 -0.9743 0.9743 0.2253 87.8901 203.1996)" class="st1 st2 st3">l</text>
<text transform="matrix(0.2445 -0.9697 0.9697 0.2445 88.6 200.14)" class="st1 st2 st3">t</text>
<text transform="matrix(0.2688 -0.9632 0.9632 0.2688 89.5299 196.4603)" class="st1 st2 st3">e</text>
<text transform="matrix(0.2945 -0.9556 0.9556 0.2945 90.8599 191.7599)" class="st1 st2 st3">r</text>
<text transform="matrix(0.3234 -0.9463 0.9463 0.3234 92.1599 187.5197)" class="st1 st2 st3">n</text>
<text transform="matrix(0.353 -0.9356 0.9356 0.353 94.1201 181.8595)" class="st1 st2 st3">a</text>
<text transform="matrix(0.3764 -0.9265 0.9265 0.3764 95.84 177.3405)" class="st1 st2 st3">t</text>
<text transform="matrix(0.3957 -0.9184 0.9184 0.3957 97.2801 173.8197)" class="st1 st2 st3">i</text>
<text transform="matrix(0.4191 -0.9079 0.9079 0.4191 98.59 170.7702)" class="st1 st2 st3">v</text>
<text transform="matrix(0.4468 -0.8946 0.8946 0.4468 100.9201 165.7504)" class="st1 st2 st3">e</text>
<text transform="matrix(0.4704 -0.8825 0.8825 0.4704 103.1201 161.3804)" class="st1 st2 st3">s</text>
<text transform="matrix(0.506 -0.8625 0.8625 0.506 106.57 155.0796)" class="st1 st2 st3">t</text>
<text transform="matrix(0.5298 -0.8481 0.8481 0.5298 108.48 151.81)" class="st1 st2 st3">o</text>
<text transform="matrix(0.5719 -0.8204 0.8204 0.5719 113.1299 144.5502)" class="st1 st2 st3">o</text>
<text transform="matrix(0.5989 -0.8008 0.8008 0.5989 116.39 139.8903)" class="st1 st2 st3">u</text>
<text transform="matrix(0.6224 -0.7827 0.7827 0.6224 119.85 135.2996)" class="st1 st2 st3">r</text>
<text transform="matrix(0.6558 -0.7549 0.7549 0.6558 124.49 129.5795)" class="st1 st2 st3">c</text>
<text transform="matrix(0.6764 -0.7366 0.7366 0.6764 127.5501 126.0701)" class="st1 st2 st3">a</text>
<text transform="matrix(0.6987 -0.7154 0.7154 0.6987 130.83 122.5001)" class="st1 st2 st3">p</text>
<text transform="matrix(0.717 -0.697 0.697 0.717 134.8201 118.4502)" class="st1 st2 st3">i</text>
<text transform="matrix(0.7314 -0.682 0.682 0.7314 137.2199 116.1302)" class="st1 st2 st3">t</text>
<text transform="matrix(0.748 -0.6637 0.6637 0.748 139.9799 113.5599)" class="st1 st2 st3">a</text>
<text transform="matrix(0.7632 -0.6461 0.6461 0.7632 143.6201 110.3598)" class="st1 st2 st3">l</text>
<text transform="matrix(0.7753 -0.6316 0.6316 0.7753 146.04 108.3098)" class="st1 st2 st3">i</text>
<text transform="matrix(0.7889 -0.6146 0.6146 0.7889 148.6301 106.2)" class="st1 st2 st3">s</text>
<text transform="matrix(0.8029 -0.5961 0.5961 0.8029 151.9699 103.6199)" class="st1 st2 st3">t</text>
<text transform="matrix(0.8272 -0.5619 0.5619 0.8272 157.4101 99.66)" class="st1 st2 st3">a</text>
<text transform="matrix(0.8443 -0.5358 0.5358 0.8443 161.41 96.94)" class="st1 st2 st3">n</text>
<text transform="matrix(0.8617 -0.5074 0.5074 0.8617 166.4901 93.7402)" class="st1 st2 st3">d</text>
<text transform="matrix(0.8858 -0.4641 0.4641 0.8858 173.8801 89.4901)" class="st1 st2 st3">p</text>
<text transform="matrix(0.8989 -0.4381 0.4381 0.8989 178.92 86.8699)" class="st1 st2 st3">r</text>
<text transform="matrix(0.9114 -0.4115 0.4115 0.9114 182.8801 84.9401)" class="st1 st2 st3">o</text>
<text transform="matrix(0.9243 -0.3816 0.3816 0.9243 188.08 82.6099)" class="st1 st2 st3">d</text>
<text transform="matrix(0.9363 -0.3512 0.3512 0.9363 193.2101 80.4999)" class="st1 st2 st3">u</text>
<text transform="matrix(0.9465 -0.3228 0.3228 0.9465 198.59 78.5101)" class="st1 st2 st3">c</text>
<text transform="matrix(0.9541 -0.2994 0.2994 0.9541 203.0101 77.0101)" class="st1 st2 st3">t</text>
<text transform="matrix(0.9602 -0.2793 0.2793 0.9602 206.64 75.88)" class="st1 st2 st3">i</text>
<text transform="matrix(0.9671 -0.2544 0.2544 0.9671 209.85 74.9501)" class="st1 st2 st3">v</text>
<text transform="matrix(0.9733 -0.2295 0.2295 0.9733 215.1801 73.57)" class="st1 st2 st3">i</text>
<text transform="matrix(0.9781 -0.2079 0.2079 0.9781 218.44 72.8)" class="st1 st2 st3">s</text>
<text transform="matrix(0.9827 -0.185 0.185 0.9827 222.57 71.9399)" class="st1 st2 st3">t</text>
<text transform="matrix(0.9895 -0.1447 0.1447 0.9895 229.22 70.76)" class="st1 st2 st3">s</text>
<text transform="matrix(0.9932 -0.1162 0.1162 0.9932 233.35 70.15)" class="st1 st2 st3">o</text>
<text transform="matrix(0.9963 -8.593860e-02 8.593860e-02 0.9963 239.03 69.51)" class="st1 st2 st3">c</text>
<text transform="matrix(0.998 -6.261633e-02 6.261633e-02 0.998 243.66 69.12)" class="st1 st2 st3">i</text>
<text transform="matrix(0.9993 -3.612046e-02 3.612046e-02 0.9993 247.01 68.91)" class="st1 st2 st3">o</text>
<text transform="matrix(1 -6.806731e-03 6.806731e-03 1 252.68 68.72)" class="st1 st2 st3">-</text>
<text transform="matrix(0.9998 2.024444e-02 -2.024444e-02 0.9998 257.05 68.7)" class="st1 st2 st3">e</text>
<text transform="matrix(0.9988 4.797813e-02 -4.797813e-02 0.9988 261.96 68.81)" class="st1 st2 st3">c</text>
<text transform="matrix(0.997 7.793710e-02 -7.793710e-02 0.997 266.59 69.03)" class="st1 st2 st3">o</text>
<text transform="matrix(0.9938 0.1115 -0.1115 0.9938 272.24 69.48)" class="st1 st2 st3">n</text>
<text transform="matrix(0.9894 0.145 -0.145 0.9894 278.23 70.17)" class="st1 st2 st3">o</text>
<text transform="matrix(0.9841 0.1774 -0.1774 0.9841 283.8499 71.01)" class="st1 st2 st3">m</text>
<text transform="matrix(0.976 0.218 -0.218 0.976 292.19 72.61)" class="st1 st2 st3">i</text>
<text transform="matrix(0.9708 0.2401 -0.2401 0.9708 295.4201 73.33)" class="st1 st2 st3">c</text>
<text transform="matrix(0.9596 0.2813 -0.2813 0.9596 302.8101 75.2401)" class="st1 st2 st3">s</text>
<text transform="matrix(0.9516 0.3072 -0.3072 0.9516 306.8401 76.4199)" class="st1 st2 st3">y</text>
<text transform="matrix(0.943 0.3328 -0.3328 0.943 311.7299 78.0201)" class="st1 st2 st3">s</text>
<text transform="matrix(0.9349 0.3548 -0.3548 0.9349 315.7199 79.4401)" class="st1 st2 st3">t</text>
<text transform="matrix(0.9257 0.3783 -0.3783 0.9257 319.2498 80.78)" class="st1 st2 st3">e</text>
<text transform="matrix(0.9102 0.4142 -0.4142 0.9102 323.7798 82.6101)" class="st1 st2 st3">m</text>
<text transform="matrix(0.8941 0.4479 -0.4479 0.8941 331.5002 86.1801)" class="st1 st2 st3">?</text>
<text transform="matrix(0.8643 0.503 -0.503 0.8643 337.9602 89.42)" class="st1 st2 st3">W</text>
<text transform="matrix(0.8383 0.5452 -0.5452 0.8383 347.5498 95.1)" class="st1 st2 st3">h</text>
<text transform="matrix(0.8208 0.5713 -0.5713 0.8208 352.4898 98.33)" class="st1 st2 st3">a</text>
<text transform="matrix(0.806 0.5919 -0.5919 0.806 356.4597 101.11)" class="st1 st2 st3">t</text>
<text transform="matrix(0.7804 0.6252 -0.6252 0.7804 361.82 105.14)" class="st1 st2 st3">a</text>
<text transform="matrix(0.7631 0.6463 -0.6463 0.7631 365.61 108.1899)" class="st1 st2 st3">r</text>
<text transform="matrix(0.7454 0.6667 -0.6667 0.7454 368.97 111.0399)" class="st1 st2 st3">e</text>
<text transform="matrix(0.7165 0.6975 -0.6975 0.7165 374.7699 116.3401)" class="st1 st2 st3">t</text>
<text transform="matrix(0.6967 0.7174 -0.7174 0.6967 377.4703 118.9699)" class="st1 st2 st3">h</text>
<text transform="matrix(0.6739 0.7388 -0.7388 0.6739 381.5598 123.21)" class="st1 st2 st3">e</text>
<text transform="matrix(0.6382 0.7698 -0.7698 0.6382 386.8005 129.0701)" class="st1 st2 st3">k</text>
<text transform="matrix(0.6147 0.7888 -0.7888 0.6147 390.3298 133.3501)" class="st1 st2 st3">e</text>
<text transform="matrix(0.5916 0.8062 -0.8062 0.5916 393.33 137.2099)" class="st1 st2 st3">y</text>
<text transform="matrix(0.5544 0.8322 -0.8322 0.5544 398.0599 143.7999)" class="st1 st2 st3">c</text>
<text transform="matrix(0.5293 0.8484 -0.8484 0.5293 400.6302 147.6799)" class="st1 st2 st3">o</text>
<text transform="matrix(0.5005 0.8658 -0.8658 0.5005 403.6302 152.4999)" class="st1 st2 st3">n</text>
<text transform="matrix(0.4736 0.8807 -0.8807 0.4736 406.6197 157.7101)" class="st1 st2 st3">c</text>
<text transform="matrix(0.449 0.8935 -0.8935 0.449 408.8205 161.82)" class="st1 st2 st3">e</text>
<text transform="matrix(0.4214 0.9069 -0.9069 0.4214 411.0198 166.2)" class="st1 st2 st3">p</text>
<text transform="matrix(0.3965 0.918 -0.918 0.3965 413.3903 171.3701)" class="st1 st2 st3">t</text>
<text transform="matrix(0.3749 0.9271 -0.9271 0.3749 414.8898 174.86)" class="st1 st2 st3">s</text>
<text transform="matrix(0.3322 0.9432 -0.9432 0.3322 417.5104 181.5)" class="st1 st2 st3">o</text>
<text transform="matrix(0.3064 0.9519 -0.9519 0.3064 419.3797 186.89)" class="st1 st2 st3">f</text>
<text transform="matrix(0.2661 0.964 -0.964 0.2661 421.3395 193.19)" class="st1 st2 st3">e</text>
<text transform="matrix(0.2384 0.9712 -0.9712 0.2384 422.6397 197.94)" class="st1 st2 st3">a</text>
<text transform="matrix(0.2115 0.9774 -0.9774 0.2115 423.7798 202.63)" class="st1 st2 st3">c</text>
<text transform="matrix(0.1814 0.9834 -0.9834 0.1814 424.7598 207.16)" class="st1 st2 st3">h</text>
<text transform="matrix(0.1307 0.9914 -0.9914 0.1307 426.2701 215.89)" class="st1 st2 st3">o</text>
<text transform="matrix(9.688804e-02 0.9953 -0.9953 9.688804e-02 427.0001 221.5)" class="st1 st2 st3">n</text>
<text transform="matrix(6.505486e-02 0.9979 -0.9979 6.505486e-02 427.5603 227.49)" class="st1 st2 st3">e</text>
<text transform="matrix(1.675436e-02 0.9999 -0.9999 1.675436e-02 427.9993 235.33)" class="st1 st2 st3">o</text>
<text transform="matrix(-1.029720e-02 0.9999 -0.9999 -1.029720e-02 428.071 241.01)" class="st1 st2 st3">f</text>
<text transform="matrix(-4.919841e-02 0.9988 -0.9988 -4.919841e-02 427.9292 247.62)" class="st1 st2 st3">t</text>
<text transform="matrix(-7.724108e-02 0.997 -0.997 -7.724108e-02 427.7491 251.41)" class="st1 st2 st3">h</text>
<text transform="matrix(-0.1083 0.9941 -0.9941 -0.1083 427.2803 257.26)" class="st1 st2 st3">e</text>
<text transform="matrix(-0.1466 0.9892 -0.9892 -0.1466 426.7708 262.12)" class="st1 st2 st3">m</text>
<text transform="matrix(-0.1774 0.9841 -0.9841 -0.1774 425.4604 270.5199)" class="st1 st2 st3">?</text>
<text transform="matrix(0.5982 -0.8014 0.8014 0.5982 161.3301 176.2498)" class="st6 st2 st7">H</text>
<text transform="matrix(0.6423 -0.7665 0.7665 0.6423 165.81 170.3201)" class="st6 st2 st7">o</text>
<text transform="matrix(0.6853 -0.7283 0.7283 0.6853 169.3799 166.0503)" class="st6 st2 st7">w</text>
<text transform="matrix(0.7426 -0.6698 0.6698 0.7426 176.79 158.4399)" class="st6 st2 st7">d</text>
<text transform="matrix(0.7735 -0.6338 0.6338 0.7735 180.8401 154.8202)" class="st6 st2 st7">o</text>
<text transform="matrix(0.801 -0.5986 0.5986 0.801 185.16 151.2998)" class="st6 st2 st7">e</text>
<text transform="matrix(0.8236 -0.5671 0.5671 0.8236 189.0501 148.4198)" class="st6 st2 st7">s</text>
<text transform="matrix(0.8594 -0.5113 0.5113 0.8594 194.9 144.52)" class="st6 st2 st7">d</text>
<text transform="matrix(0.8811 -0.4729 0.4729 0.8811 199.5699 141.76)" class="st6 st2 st7">e</text>
<text transform="matrix(0.8987 -0.4385 0.4385 0.8987 203.8201 139.5001)" class="st6 st2 st7">s</text>
<text transform="matrix(0.9124 -0.4093 0.4093 0.9124 207.5701 137.6899)" class="st6 st2 st7">i</text>
<text transform="matrix(0.9269 -0.3753 0.3753 0.9269 210.55 136.3501)" class="st6 st2 st7">g</text>
<text transform="matrix(0.9439 -0.3303 0.3303 0.9439 215.37 134.4)" class="st6 st2 st7">n</text>
<text transform="matrix(0.9634 -0.2682 0.2682 0.9634 223.72 131.65)" class="st6 st2 st7">i</text>
<text transform="matrix(0.9733 -0.2294 0.2294 0.9733 226.89 130.76)" class="st6 st2 st7">n</text>
<text transform="matrix(0.982 -0.1891 0.1891 0.982 232.61 129.45)" class="st6 st2 st7">f</text>
<text transform="matrix(0.9871 -0.1602 0.1602 0.9871 236.15 128.78)" class="st6 st2 st7">l</text>
<text transform="matrix(0.9925 -0.1222 0.1222 0.9925 239.22 128.27)" class="st6 st2 st7">u</text>
<text transform="matrix(0.997 -7.689305e-02 7.689305e-02 0.997 244.82 127.61)" class="st6 st2 st7">e</text>
<text transform="matrix(0.9995 -3.036406e-02 3.036406e-02 0.9995 249.6 127.24)" class="st6 st2 st7">n</text>
<text transform="matrix(0.9999 1.500927e-02 -1.500927e-02 0.9999 255.48 127.09)" class="st6 st2 st7">c</text>
<text transform="matrix(0.9985 5.564724e-02 -5.564724e-02 0.9985 260.05 127.17)" class="st6 st2 st7">e</text>
<text transform="matrix(0.9933 0.1153 -0.1153 0.9933 267.77 127.73)" class="st6 st2 st7">i</text>
<text transform="matrix(0.9861 0.1663 -0.1663 0.9861 270.99 128.06)" class="st6 st2 st7">n</text>
<text transform="matrix(0.9741 0.2263 -0.2263 0.9741 279.6599 129.58)" class="st6 st2 st7">p</text>
<text transform="matrix(0.962 0.273 -0.273 0.962 285.09 130.86)" class="st6 st2 st7">o</text>
<text transform="matrix(0.9511 0.309 -0.309 0.9511 290.4599 132.4201)" class="st6 st2 st7">l</text>
<text transform="matrix(0.9421 0.3355 -0.3355 0.9421 293.4201 133.3901)" class="st6 st2 st7">i</text>
<text transform="matrix(0.9314 0.3639 -0.3639 0.9314 296.5101 134.5)" class="st6 st2 st7">t</text>
<text transform="matrix(0.9199 0.3922 -0.3922 0.9199 299.9499 135.86)" class="st6 st2 st7">i</text>
<text transform="matrix(0.9059 0.4234 -0.4234 0.9059 302.9502 137.14)" class="st6 st2 st7">c</text>
<text transform="matrix(0.8893 0.4574 -0.4574 0.8893 307.07 139.0799)" class="st6 st2 st7">s</text>
<text transform="matrix(0.8581 0.5135 -0.5135 0.8581 313.29 142.3999)" class="st6 st2 st7">a</text>
<text transform="matrix(0.8333 0.5528 -0.5528 0.8333 317.3502 144.83)" class="st6 st2 st7">n</text>
<text transform="matrix(0.805 0.5933 -0.5933 0.805 322.25 148.11)" class="st6 st2 st7">d</text>
<text transform="matrix(0.754 0.6568 -0.6568 0.754 328.89 153.13)" class="st6 st2 st7">N</text>
<text transform="matrix(0.7179 0.6962 -0.6962 0.7179 334.5796 158.1601)" class="st6 st2 st7">a</text>
<text transform="matrix(0.6919 0.722 -0.722 0.6919 337.9899 161.49)" class="st6 st2 st7">t</text>
<text transform="matrix(0.6622 0.7493 -0.7493 0.6622 340.5498 164.1601)" class="st6 st2 st7">u</text>
<text transform="matrix(0.6295 0.777 -0.777 0.6295 344.2603 168.3999)" class="st6 st2 st7">r</text>
<text transform="matrix(0.5983 0.8013 -0.8013 0.5983 346.9896 171.78)" class="st6 st2 st7">e</text>
<text transform="matrix(0.5668 0.8238 -0.8238 0.5668 349.85 175.6399)" class="st6 st2 st7">?</text>
<g>
	<line class="st8" x1="254.7" y1="374" x2="255" y2="476.3"/>
	<polygon class="st9" points="251,376.8 254.7,375.2 258.4,376.8 254.7,368 	"/>
</g>
<text transform="matrix(-2.967024e-03 -1 1 -2.967024e-03 248.06 441.9593)" class="st9 st2 st3">PART A</text>
<g>
	<line class="st8" x1="254.4" y1="271.1" x2="254.4" y2="272.1"/>
	<line class="st10" x1="254.4" y1="274.2" x2="254.7" y2="366"/>
	<line class="st8" x1="254.7" y1="367" x2="254.7" y2="368"/>
	<polygon class="st9" points="250.7,274 254.4,272.4 258.1,274 254.4,265.2 	"/>
</g>
<text transform="matrix(-2.967024e-03 -1 1 -2.967024e-03 247.74 330.64)" class="st9 st2 st3">PART B</text>
<text transform="matrix(-0.7946 -0.6071 0.6071 -0.7946 219.3897 297.2507)" class="st6 st2 st3">W</text>
<text transform="matrix(-0.7124 -0.7018 0.7018 -0.7124 210.7102 290.3609)" class="st6 st2 st3">h</text>
<text transform="matrix(-0.6549 -0.7557 0.7557 -0.6549 206.6202 286.2707)" class="st6 st2 st3">a</text>
<text transform="matrix(-0.6054 -0.7959 0.7959 -0.6054 203.5202 282.6407)" class="st6 st2 st3">t</text>
<text transform="matrix(-0.5161 -0.8565 0.8565 -0.5161 199.6298 277.2504)" class="st6 st2 st3">a</text>
<text transform="matrix(-0.4562 -0.8899 0.8899 -0.4562 197.1898 273.1502)" class="st6 st2 st3">r</text>
<text transform="matrix(-0.3938 -0.9192 0.9192 -0.3938 195.2199 269.2709)" class="st6 st2 st3">e</text>
<text transform="matrix(-0.2812 -0.9597 0.9597 -0.2812 192.35 262.0903)" class="st6 st2 st3">d</text>
<text transform="matrix(-0.2076 -0.9782 0.9782 -0.2076 190.8399 256.8)" class="st6 st2 st3">e</text>
<text transform="matrix(-0.1419 -0.9899 0.9899 -0.1419 189.87 252.0594)" class="st6 st2 st3">s</text>
<text transform="matrix(-8.680806e-02 -0.9962 0.9962 -8.680806e-02 189.31 247.95)" class="st6 st2 st3">i</text>
<text transform="matrix(-2.268739e-02 -0.9997 0.9997 -2.268739e-02 189.02 244.6895)" class="st6 st2 st3">g</text>
<text transform="matrix(6.157113e-02 -0.9981 0.9981 6.157113e-02 188.91 239.4296)" class="st6 st2 st3">n</text>
<text transform="matrix(0.1845 -0.9828 0.9828 0.1845 189.7 230.6401)" class="st6 st2 st3">a</text>
<text transform="matrix(0.2602 -0.9656 0.9656 0.2602 190.5899 225.9599)" class="st6 st2 st3">p</text>
<text transform="matrix(0.3402 -0.9403 0.9403 0.3402 192.0801 220.5396)" class="st6 st2 st3">p</text>
<text transform="matrix(0.409 -0.9125 0.9125 0.409 194.0401 215.27)" class="st6 st2 st3">r</text>
<text transform="matrix(0.4752 -0.8799 0.8799 0.4752 195.8101 211.3103)" class="st6 st2 st3">o</text>
<text transform="matrix(0.5416 -0.8407 0.8407 0.5416 198.52 206.3899)" class="st6 st2 st3">a</text>
<text transform="matrix(0.5987 -0.8009 0.8009 0.5987 201.1301 202.3796)" class="st6 st2 st3">c</text>
<text transform="matrix(0.6587 -0.7524 0.7524 0.6587 203.87 198.7205)" class="st6 st2 st3">h</text>
<text transform="matrix(0.7162 -0.6979 0.6979 0.7162 207.7101 194.39)" class="st6 st2 st3">e</text>
<text transform="matrix(0.7617 -0.648 0.648 0.7617 211.2099 191.03)" class="st6 st2 st3">s</text>
<text transform="matrix(0.8243 -0.5661 0.5661 0.8243 216.7201 186.5899)" class="st6 st2 st3">t</text>
<text transform="matrix(0.8627 -0.5057 0.5057 0.8627 219.7699 184.4899)" class="st6 st2 st3">h</text>
<text transform="matrix(0.9 -0.4359 0.4359 0.9 224.79 181.5999)" class="st6 st2 st3">a</text>
<text transform="matrix(0.9259 -0.3777 0.3777 0.9259 229.1099 179.5501)" class="st6 st2 st3">t</text>
<text transform="matrix(0.9607 -0.2775 0.2775 0.9607 235.31 177.19)" class="st6 st2 st3">a</text>
<text transform="matrix(0.9772 -0.2122 0.2122 0.9772 239.9201 175.89)" class="st6 st2 st3">r</text>
<text transform="matrix(0.9894 -0.1454 0.1454 0.9894 244.16 174.98)" class="st6 st2 st3">e</text>
<text transform="matrix(0.9995 -3.123631e-02 3.123631e-02 0.9995 251.87 174.06)" class="st6 st2 st3">c</text>
<text transform="matrix(0.999 4.536299e-02 -4.536299e-02 0.999 256.45 173.92)" class="st6 st2 st3">o</text>
<text transform="matrix(0.9887 0.1499 -0.1499 0.9887 262.02 174.13)" class="st6 st2 st3">m</text>
<text transform="matrix(0.9677 0.2522 -0.2522 0.9677 270.29 175.49)" class="st6 st2 st3">p</text>
<text transform="matrix(0.9452 0.3264 -0.3264 0.9452 275.7299 176.9501)" class="st6 st2 st3">a</text>
<text transform="matrix(0.9227 0.3856 -0.3856 0.9227 280.23 178.5499)" class="st6 st2 st3">t</text>
<text transform="matrix(0.9012 0.4333 -0.4333 0.9012 283.6701 180.01)" class="st6 st2 st3">i</text>
<text transform="matrix(0.8711 0.4911 -0.4911 0.8711 286.6299 181.4101)" class="st6 st2 st3">b</text>
<text transform="matrix(0.8381 0.5455 -0.5455 0.8381 291.3901 184.1601)" class="st6 st2 st3">l</text>
<text transform="matrix(0.8043 0.5943 -0.5943 0.8043 294.0099 185.86)" class="st6 st2 st3">e</text>
<text transform="matrix(0.7153 0.6988 -0.6988 0.7153 300.1401 190.5701)" class="st6 st2 st3">w</text>
<text transform="matrix(0.6553 0.7554 -0.7554 0.6553 305.6298 196.0899)" class="st6 st2 st3">i</text>
<text transform="matrix(0.6146 0.7889 -0.7889 0.6146 307.7696 198.5799)" class="st6 st2 st3">t</text>
<text transform="matrix(0.5566 0.8308 -0.8308 0.5566 310.0597 201.4899)" class="st6 st2 st3">h</text>
<text transform="matrix(0.4573 0.8893 -0.8893 0.4573 314.6904 208.8799)" class="st6 st2 st3">t</text>
<text transform="matrix(0.3927 0.9197 -0.9197 0.3927 316.3995 212.1701)" class="st6 st2 st3">h</text>
<text transform="matrix(0.3186 0.9479 -0.9479 0.3186 318.6404 217.53)" class="st6 st2 st3">e</text>
<text transform="matrix(0.2091 0.9779 -0.9779 0.2091 320.9099 224.9399)" class="st6 st2 st3">a</text>
<text transform="matrix(0.1516 0.9884 -0.9884 0.1516 321.8701 229.63)" class="st6 st2 st3">l</text>
<text transform="matrix(0.1009 0.9949 -0.9949 0.1009 322.3304 232.71)" class="st6 st2 st3">t</text>
<text transform="matrix(3.681814e-02 0.9993 -0.9993 3.681814e-02 322.6998 236.41)" class="st6 st2 st3">e</text>
<text transform="matrix(-3.245743e-02 0.9995 -0.9995 -3.245743e-02 322.8509 241.25)" class="st6 st2 st3">r</text>
<text transform="matrix(-0.1096 0.994 -0.994 -0.1096 322.7208 245.59)" class="st6 st2 st3">n</text>
<text transform="matrix(-0.1889 0.982 -0.982 -0.1889 322.0196 251.48)" class="st6 st2 st3">a</text>
<text transform="matrix(-0.2511 0.968 -0.968 -0.2511 321.079 256.17)" class="st6 st2 st3">t</text>
<text transform="matrix(-0.3015 0.9535 -0.9535 -0.3015 320.1192 259.77)" class="st6 st2 st3">i</text>
<text transform="matrix(-0.3628 0.9319 -0.9319 -0.3628 319.1509 262.89)" class="st6 st2 st3">v</text>
<text transform="matrix(-0.4326 0.9016 -0.9016 -0.4326 317.1494 267.9401)" class="st6 st2 st3">e</text>
<text transform="matrix(-0.4921 0.8705 -0.8705 -0.4921 315.0091 272.3101)" class="st6 st2 st3">s</text>
<text transform="matrix(-0.5844 0.8115 -0.8115 -0.5844 311.3792 278.3699)" class="st6 st2 st3">a</text>
<text transform="matrix(-0.6468 0.7627 -0.7627 -0.6468 308.6097 282.22)" class="st6 st2 st3">n</text>
<text transform="matrix(-0.7093 0.7049 -0.7049 -0.7093 304.7497 286.7104)" class="st6 st2 st3">d</text>
<text transform="matrix(-0.8024 0.5968 -0.5968 -0.8024 298.6999 292.4895)" class="st6 st2 st3">w</text>
<text transform="matrix(-0.859 0.512 -0.512 -0.859 292.4204 297.0598)" class="st6 st2 st3">h</text>
<text transform="matrix(-0.8978 0.4404 -0.4404 -0.8978 287.4205 299.9896)" class="st6 st2 st3">y</text>
<text transform="matrix(-0.9262 0.377 -0.377 -0.9262 282.8503 302.1898)" class="st6 st2 st3">?</text>
</svg>
