<?xml version="1.0" encoding="UTF-8"?>
<svg id="uuid-3a33a38c-e09b-4366-b24c-652a7873049d" data-name="Layer 1" xmlns="http://www.w3.org/2000/svg" viewBox="0 0 714 325.18">
  <defs>
    <style>
      .uuid-ae60f866-a230-40da-b971-ab93a77ecbd2, .uuid-52b6d8ce-4279-4816-9595-a21edb600d15, .uuid-0fee881d-0e6c-4888-a718-73f4f150d296 {
        fill: #cb8f8f;
      }

      .uuid-275614b8-87ca-4563-b87a-5a3855106adf {
        fill: #d6524b;
      }

      .uuid-0d85379e-31d6-43eb-a0a5-fc1b5747018b {
        fill: #c9453b;
      }

      .uuid-bb2ab951-e6dd-4070-96fb-e940a45b485a {
        fill: #808184;
      }

      .uuid-8a903011-ce9a-4ecc-8c12-0a6172648c60 {
        stroke-width: 1.01px;
      }

      .uuid-8a903011-ce9a-4ecc-8c12-0a6172648c60, .uuid-83a4296b-f369-4363-8e2a-82b5e95a5c04, .uuid-b0aeb86c-33eb-492a-a057-07ec2b6ddeee, .uuid-5471e70b-d56d-4e91-ad11-77965162c6d5, .uuid-a0303bf8-807f-4c97-8270-ba88b2d62ee2, .uuid-eb0ea240-9f7b-4504-9981-ac107694e8b4 {
        fill: none;
        stroke-miterlimit: 10;
      }

      .uuid-8a903011-ce9a-4ecc-8c12-0a6172648c60, .uuid-83a4296b-f369-4363-8e2a-82b5e95a5c04, .uuid-5471e70b-d56d-4e91-ad11-77965162c6d5, .uuid-a0303bf8-807f-4c97-8270-ba88b2d62ee2, .uuid-eb0ea240-9f7b-4504-9981-ac107694e8b4 {
        stroke: #c9453b;
      }

      .uuid-83a4296b-f369-4363-8e2a-82b5e95a5c04 {
        stroke-width: 1.19px;
      }

      .uuid-b0aeb86c-33eb-492a-a057-07ec2b6ddeee {
        stroke: #d07b7b;
      }

      .uuid-a0303bf8-807f-4c97-8270-ba88b2d62ee2 {
        stroke-width: 1.12px;
      }

      .uuid-52b6d8ce-4279-4816-9595-a21edb600d15 {
        letter-spacing: .05em;
      }

      .uuid-52b6d8ce-4279-4816-9595-a21edb600d15, .uuid-0fee881d-0e6c-4888-a718-73f4f150d296 {
        font-family: CrimsonText-Regular, 'Crimson Text';
        font-size: 14.68px;
      }

      .uuid-0fee881d-0e6c-4888-a718-73f4f150d296 {
        letter-spacing: .05em;
      }

      .uuid-eb0ea240-9f7b-4504-9981-ac107694e8b4 {
        stroke-width: 1.3px;
      }
    </style>
  </defs>
  <g>
    <path class="uuid-0d85379e-31d6-43eb-a0a5-fc1b5747018b" d="M60.52,2.37c1.09-1.1,2.48-1.65,4.18-1.65,.94,0,2.31,.21,4.12,.63v3.53h-.1c-.31-.46-.57-.84-.78-1.13-.21-.29-.49-.63-.83-1.03-.34-.4-.68-.7-1.02-.9s-.66-.3-.98-.3c-.71,0-1.33,.49-1.85,1.47-.52,.98-.78,2.22-.78,3.71s.26,2.72,.78,3.7c.52,.98,1.14,1.47,1.85,1.47,.55,0,1.11-.3,1.69-.9,.57-.6,1.22-1.43,1.93-2.5h.1v3.57c-1.78,.43-3.19,.64-4.25,.64-1.64,0-2.99-.55-4.08-1.65-1.08-1.1-1.62-2.55-1.62-4.34s.55-3.23,1.65-4.34Z"/>
    <path class="uuid-0d85379e-31d6-43eb-a0a5-fc1b5747018b" d="M71.93,5.23c.85-.7,1.92-1.05,3.2-1.05s2.35,.35,3.2,1.06c.86,.7,1.28,1.75,1.28,3.14s-.43,2.48-1.3,3.22c-.87,.74-1.93,1.11-3.19,1.11s-2.33-.37-3.19-1.11c-.86-.74-1.28-1.81-1.28-3.22s.43-2.45,1.28-3.15Zm2.12,3.15c0,2.39,.36,3.58,1.08,3.58s1.1-1.2,1.1-3.58-.37-3.47-1.1-3.47-1.08,1.16-1.08,3.47Z"/>
    <path class="uuid-0d85379e-31d6-43eb-a0a5-fc1b5747018b" d="M81.01,12.45s.02-.07,.05-.19c.03-.11,.07-.26,.12-.44,.05-.18,.1-.39,.15-.61,.05-.22,.1-.46,.13-.73s.05-.51,.05-.73v-2.71c0-.23-.02-.47-.05-.74s-.08-.51-.13-.73c-.05-.22-.1-.42-.15-.6-.05-.18-.09-.33-.12-.44-.03-.11-.05-.17-.05-.19v-.06h3.5v1.58c.66-1.12,1.58-1.68,2.76-1.68,.6,0,1.11,.15,1.52,.44,.41,.3,.7,.72,.86,1.28,.63-1.15,1.56-1.73,2.78-1.73,.76,0,1.37,.24,1.82,.71,.45,.47,.68,1.13,.68,1.97v2.89c0,.23,.02,.47,.05,.73,.03,.26,.08,.51,.13,.73,.05,.22,.11,.42,.15,.61,.05,.18,.09,.33,.12,.44,.03,.11,.05,.18,.05,.19v.06h-4v-.06s.02-.07,.05-.19c.03-.11,.07-.26,.12-.44,.05-.18,.1-.39,.15-.61,.05-.22,.1-.46,.13-.73,.03-.26,.05-.51,.05-.73v-2.45c0-.41-.12-.71-.37-.9s-.56-.29-.94-.29c-.28,0-.58,.05-.9,.16,.03,.19,.05,.39,.05,.6v2.89c0,.23,.02,.47,.05,.73,.03,.26,.07,.51,.13,.73,.05,.22,.1,.42,.15,.61,.05,.18,.09,.33,.12,.44,.03,.11,.05,.18,.05,.19v.06h-4v-.06s.02-.07,.05-.19c.03-.11,.07-.26,.12-.44,.05-.18,.1-.39,.15-.61,.05-.22,.1-.46,.13-.73,.03-.26,.05-.51,.05-.73v-2.45c0-.41-.13-.71-.38-.9s-.57-.29-.96-.29c-.31,0-.62,.06-.92,.18v3.47c0,.23,.02,.47,.05,.73,.03,.26,.07,.51,.13,.73,.05,.22,.1,.42,.15,.61,.05,.18,.09,.33,.12,.44,.03,.11,.05,.18,.05,.19v.06h-4v-.06Z"/>
    <path class="uuid-0d85379e-31d6-43eb-a0a5-fc1b5747018b" d="M96.96,15.5c.03-.12,.07-.27,.12-.45,.05-.18,.1-.38,.15-.6,.05-.22,.1-.46,.13-.73s.05-.51,.05-.73V7.04c0-.23-.02-.47-.05-.74s-.08-.51-.13-.73c-.05-.22-.1-.42-.15-.6-.05-.18-.09-.33-.12-.44-.03-.11-.05-.17-.05-.19v-.06h3.53v1.15c.25-.4,.59-.71,1.02-.92s.88-.32,1.36-.32c.89,0,1.65,.36,2.26,1.07s.92,1.74,.92,3.08-.33,2.48-1,3.23c-.67,.75-1.44,1.13-2.31,1.13s-1.65-.36-2.24-1.08v1.37c0,.23,.02,.47,.05,.73,.03,.26,.08,.51,.13,.73,.05,.22,.11,.42,.15,.6,.05,.18,.09,.33,.12,.44,.03,.11,.05,.17,.05,.19v.06h-4.04v-.06s.02-.07,.05-.18Zm3.49-9.35v4.83c.28,.14,.55,.21,.82,.21,.97,0,1.45-.95,1.45-2.86,0-1.63-.46-2.44-1.39-2.44-.3,0-.6,.09-.89,.26Z"/>
    <path class="uuid-0d85379e-31d6-43eb-a0a5-fc1b5747018b" d="M108.97,5.23c.85-.7,1.92-1.05,3.2-1.05s2.35,.35,3.2,1.06c.86,.7,1.28,1.75,1.28,3.14s-.43,2.48-1.3,3.22c-.87,.74-1.93,1.11-3.19,1.11s-2.33-.37-3.19-1.11c-.86-.74-1.28-1.81-1.28-3.22s.43-2.45,1.28-3.15Zm2.12,3.15c0,2.39,.36,3.58,1.08,3.58s1.1-1.2,1.1-3.58-.37-3.47-1.1-3.47-1.08,1.16-1.08,3.47Z"/>
    <path class="uuid-0d85379e-31d6-43eb-a0a5-fc1b5747018b" d="M118.04,12.45s.02-.07,.05-.19c.03-.11,.07-.26,.12-.44,.05-.18,.1-.39,.15-.61,.05-.22,.1-.46,.13-.73s.05-.51,.05-.73v-2.71c0-.23-.02-.47-.05-.74s-.08-.51-.13-.73c-.05-.22-.1-.42-.15-.6-.05-.18-.09-.33-.12-.44-.03-.11-.05-.17-.05-.19v-.06h3.53v1.37c.24-.41,.58-.76,1.02-1.04s.96-.43,1.57-.43c.77,0,1.41,.24,1.92,.72s.76,1.13,.76,1.96v2.89c0,.23,.02,.47,.05,.73,.03,.26,.08,.51,.13,.73,.05,.22,.11,.42,.15,.61,.05,.18,.09,.33,.12,.44,.03,.11,.05,.18,.05,.19v.06h-4.04v-.06s.02-.07,.05-.19c.03-.11,.07-.26,.12-.44,.05-.18,.1-.39,.15-.61,.05-.22,.1-.46,.13-.73,.03-.26,.05-.51,.05-.73v-2.45c0-.83-.39-1.25-1.16-1.28h-.06c-.3,0-.63,.08-1,.24v3.49c0,.23,.02,.47,.05,.73,.03,.26,.08,.51,.13,.73,.05,.22,.11,.42,.15,.61,.05,.18,.09,.33,.12,.44,.03,.11,.05,.18,.05,.19v.06h-4.04v-.06Z"/>
    <path class="uuid-0d85379e-31d6-43eb-a0a5-fc1b5747018b" d="M129.97,5.3c.8-.74,1.86-1.11,3.18-1.11,.73,0,1.37,.12,1.9,.37,.54,.25,.95,.58,1.24,.99s.49,.85,.62,1.31,.19,.94,.19,1.44h-4.97c.21,1.64,.99,2.45,2.34,2.45,.74,0,1.53-.24,2.37-.71l.06,.05c-.19,.64-.63,1.23-1.31,1.78-.68,.55-1.52,.83-2.53,.83-.52,0-1.02-.08-1.52-.25-.49-.17-.95-.42-1.38-.75s-.77-.78-1.02-1.35-.39-1.21-.39-1.93c0-1.33,.4-2.38,1.21-3.13Zm2.08,1.95c0,.14,.01,.35,.03,.63l2.05-.64c0-1.54-.34-2.31-1.03-2.31s-1.05,.73-1.05,2.2v.13Z"/>
    <path class="uuid-0d85379e-31d6-43eb-a0a5-fc1b5747018b" d="M138.62,12.45s.02-.07,.05-.19c.03-.11,.07-.26,.12-.44,.05-.18,.1-.39,.15-.61,.05-.22,.1-.46,.13-.73s.05-.51,.05-.73v-2.71c0-.23-.02-.47-.05-.74s-.08-.51-.13-.73c-.05-.22-.1-.42-.15-.6-.05-.18-.09-.33-.12-.44-.03-.11-.05-.17-.05-.19v-.06h3.53v1.37c.24-.41,.58-.76,1.02-1.04s.96-.43,1.57-.43c.77,0,1.41,.24,1.92,.72s.76,1.13,.76,1.96v2.89c0,.23,.02,.47,.05,.73,.03,.26,.08,.51,.13,.73,.05,.22,.11,.42,.15,.61,.05,.18,.09,.33,.12,.44,.03,.11,.05,.18,.05,.19v.06h-4.04v-.06s.02-.07,.05-.19c.03-.11,.07-.26,.12-.44,.05-.18,.1-.39,.15-.61,.05-.22,.1-.46,.13-.73,.03-.26,.05-.51,.05-.73v-2.45c0-.83-.39-1.25-1.16-1.28h-.06c-.3,0-.63,.08-1,.24v3.49c0,.23,.02,.47,.05,.73,.03,.26,.08,.51,.13,.73,.05,.22,.11,.42,.15,.61,.05,.18,.09,.33,.12,.44,.03,.11,.05,.18,.05,.19v.06h-4.04v-.06Z"/>
    <path class="uuid-0d85379e-31d6-43eb-a0a5-fc1b5747018b" d="M148.94,4.28c1.61-.84,3.01-1.86,4.2-3.07v3.07h2.16v.81h-2.16l.02,4.5c0,.75,.35,1.13,1.03,1.13,.27,0,.61-.08,1.03-.23-.48,1.47-1.39,2.21-2.71,2.21-.74,0-1.33-.24-1.75-.73-.43-.48-.64-1.19-.64-2.11V5.09h-1.18v-.81Z"/>
    <path class="uuid-0d85379e-31d6-43eb-a0a5-fc1b5747018b" d="M156.74,6.78c0-.81,.33-1.44,1-1.9,.67-.46,1.57-.69,2.71-.69,1.08,0,2.1,.18,3.07,.55v2.55h-.08c-.36-.38-.62-.66-.81-.85-.18-.19-.44-.42-.76-.7-.32-.28-.62-.48-.9-.6-.28-.12-.56-.19-.84-.19-.25,0-.46,.05-.63,.16-.17,.11-.26,.27-.26,.5,0,.16,.04,.3,.13,.43,.09,.12,.25,.25,.5,.37,.25,.12,.45,.22,.6,.28s.45,.17,.88,.32c.98,.34,1.66,.75,2.03,1.22,.38,.47,.56,1.01,.56,1.62,0,.95-.35,1.66-1.04,2.13-.69,.47-1.53,.71-2.49,.71-1.02,0-2.15-.2-3.38-.61v-2.65h.08c.1,.1,.31,.31,.64,.63s.57,.56,.73,.7c.16,.14,.38,.32,.65,.53,.28,.21,.53,.36,.77,.45s.47,.14,.7,.14c.27,0,.49-.06,.68-.19,.18-.13,.27-.31,.27-.55,0-.35-.26-.63-.79-.87-.17-.09-.61-.26-1.32-.52-1.81-.66-2.71-1.65-2.71-2.97Z"/>
    <path class="uuid-0d85379e-31d6-43eb-a0a5-fc1b5747018b" d="M171.09,5.23c.85-.7,1.92-1.05,3.2-1.05s2.35,.35,3.2,1.06c.86,.7,1.28,1.75,1.28,3.14s-.43,2.48-1.3,3.22c-.87,.74-1.93,1.11-3.19,1.11s-2.33-.37-3.19-1.11c-.86-.74-1.28-1.81-1.28-3.22s.43-2.45,1.28-3.15Zm2.12,3.15c0,2.39,.36,3.58,1.08,3.58s1.1-1.2,1.1-3.58-.37-3.47-1.1-3.47-1.08,1.16-1.08,3.47Z"/>
    <path class="uuid-0d85379e-31d6-43eb-a0a5-fc1b5747018b" d="M179.92,5.09v-.81h1.31v-.44c0-.62,.1-1.16,.29-1.6,.19-.44,.46-.78,.8-1.02,.34-.24,.7-.41,1.09-.51,.39-.1,.81-.15,1.28-.15,.72,0,1.63,.16,2.71,.48V3.36h-.08c-1.09-1.38-1.91-2.07-2.47-2.07-.16,0-.29,.05-.38,.14-.09,.09-.15,.24-.18,.45-.03,.21-.05,.4-.05,.57s0,.43,.02,.77c.01,.35,.02,.6,.02,.76v.29h2.47v.81h-2.47v4.67c0,.23,.02,.47,.05,.73,.03,.26,.08,.51,.13,.73,.05,.22,.1,.42,.15,.61,.05,.18,.09,.33,.12,.44,.03,.11,.05,.18,.05,.19v.06h-4.04v-.06s.02-.07,.05-.19c.03-.11,.07-.26,.12-.44,.05-.18,.1-.39,.15-.61,.05-.22,.1-.46,.13-.73,.03-.26,.05-.51,.05-.73V5.09h-1.31Z"/>
    <path class="uuid-0d85379e-31d6-43eb-a0a5-fc1b5747018b" d="M192.16,4.28h4.55v.06l-.05,.16c-.03,.1-.06,.22-.09,.38s-.05,.31-.06,.46-.02,.29-.02,.42c0,.09,0,.21,.02,.37,.01,.16,.05,.34,.11,.53l.89,2.71,1.02-2.82c-.13-.3-.29-.63-.48-1-.19-.37-.35-.66-.47-.87s-.18-.33-.18-.34v-.06h4.55v.06l-.05,.16c-.03,.1-.06,.22-.09,.38-.03,.16-.05,.31-.06,.46-.02,.15-.02,.29-.02,.42,0,.09,0,.21,.02,.37,.01,.16,.05,.34,.11,.53l.89,2.71,.99-2.74c.06-.19,.1-.37,.11-.52,.01-.16,.02-.27,.02-.35,0-.14-.01-.29-.03-.44-.02-.15-.05-.3-.09-.45s-.07-.27-.1-.37l-.06-.16v-.06h2.18v.08c-.53,.86-.94,1.71-1.24,2.53l-2.03,5.62h-1.73l-1.81-4.86-1.86,4.86h-1.57l-2.08-5.62c-.12-.33-.29-.71-.5-1.13s-.4-.76-.54-1.02c-.15-.26-.22-.39-.22-.4v-.06Z"/>
    <path class="uuid-0d85379e-31d6-43eb-a0a5-fc1b5747018b" d="M207.8,5.3c.8-.74,1.86-1.11,3.18-1.11,.73,0,1.37,.12,1.9,.37,.54,.25,.95,.58,1.24,.99s.49,.85,.62,1.31,.19,.94,.19,1.44h-4.97c.21,1.64,.99,2.45,2.34,2.45,.74,0,1.53-.24,2.37-.71l.06,.05c-.19,.64-.63,1.23-1.31,1.78-.68,.55-1.52,.83-2.53,.83-.52,0-1.02-.08-1.52-.25-.49-.17-.95-.42-1.38-.75s-.77-.78-1.02-1.35-.39-1.21-.39-1.93c0-1.33,.4-2.38,1.21-3.13Zm2.08,1.95c0,.14,.01,.35,.03,.63l2.05-.64c0-1.54-.34-2.31-1.03-2.31s-1.05,.73-1.05,2.2v.13Z"/>
    <path class="uuid-0d85379e-31d6-43eb-a0a5-fc1b5747018b" d="M216.45,10.01c0-.8,.3-1.44,.9-1.94,.6-.49,1.32-.74,2.16-.74,.66,0,1.28,.12,1.86,.36v-.89c0-.35,0-.6,0-.76s-.02-.34-.04-.53c-.02-.19-.06-.33-.1-.4-.05-.08-.12-.11-.2-.11-.27,0-.72,.19-1.35,.57-.63,.38-1.19,.76-1.69,1.14l-.74,.58h-.08v-2.55c1.6-.37,2.95-.55,4.05-.55s1.94,.26,2.45,.78c.5,.52,.75,1.21,.75,2.08v2.78c0,.56,.05,.91,.15,1.06,.1,.14,.22,.22,.35,.22,.14,0,.31-.05,.52-.16l.05,.05c-.03,.49-.22,.9-.57,1.22-.35,.32-.82,.48-1.41,.48-1.03,0-1.69-.47-1.97-1.4-.2,.38-.51,.71-.93,.98s-.92,.42-1.52,.42c-.82,0-1.46-.27-1.92-.81-.46-.54-.7-1.16-.7-1.86Zm3.47,.6c.2,.29,.5,.44,.89,.44,.23,0,.43-.07,.61-.21-.03-.18-.05-.37-.05-.57v-2.03c-.14-.04-.3-.06-.48-.06-.86,0-1.29,.45-1.29,1.36,0,.44,.11,.8,.32,1.08Z"/>
    <path class="uuid-0d85379e-31d6-43eb-a0a5-fc1b5747018b" d="M227.17,.73l3.08-.32V9.75c0,.23,.02,.47,.05,.73,.03,.26,.07,.51,.13,.73,.05,.22,.1,.42,.15,.61,.05,.18,.09,.33,.12,.44,.03,.11,.05,.18,.05,.19v.06h-4.04v-.06s.02-.07,.05-.19c.03-.11,.07-.26,.12-.44,.05-.18,.1-.39,.15-.61,.05-.22,.1-.46,.13-.73,.03-.26,.05-.51,.05-.73V3.49c0-.23-.02-.47-.06-.73-.04-.26-.08-.5-.13-.71-.05-.21-.1-.4-.15-.58-.05-.18-.1-.32-.14-.43s-.06-.17-.06-.18l-.02-.06,.5-.06Z"/>
    <path class="uuid-0d85379e-31d6-43eb-a0a5-fc1b5747018b" d="M231.9,4.28c1.61-.84,3.01-1.86,4.2-3.07v3.07h2.16v.81h-2.16l.02,4.5c0,.75,.35,1.13,1.03,1.13,.27,0,.61-.08,1.03-.23-.48,1.47-1.39,2.21-2.71,2.21-.74,0-1.33-.24-1.75-.73-.43-.48-.64-1.19-.64-2.11V5.09h-1.18v-.81Z"/>
    <path class="uuid-0d85379e-31d6-43eb-a0a5-fc1b5747018b" d="M239.64,.79l.5-.06,3.08-.32V5.55c.65-.91,1.5-1.37,2.57-1.37,.78,0,1.42,.24,1.92,.72,.5,.48,.76,1.13,.76,1.96v2.89c0,.23,.02,.47,.05,.73,.03,.26,.07,.51,.13,.73,.05,.22,.1,.42,.15,.61,.05,.18,.09,.33,.12,.44,.03,.11,.05,.18,.05,.19v.06h-4.04v-.06s.02-.07,.05-.19c.03-.11,.07-.26,.12-.44,.05-.18,.1-.39,.15-.61,.05-.22,.1-.46,.13-.73,.03-.26,.05-.51,.05-.73v-2.45c0-.84-.42-1.26-1.27-1.26-.28,0-.59,.05-.94,.16v3.55c0,.23,.02,.47,.05,.73s.07,.51,.12,.73c.05,.22,.1,.42,.15,.61,.05,.18,.1,.33,.13,.44,.03,.11,.05,.18,.05,.19v.06h-4.04v-.06s.02-.07,.05-.19c.03-.11,.08-.26,.13-.44,.05-.18,.11-.39,.15-.61,.05-.22,.09-.46,.12-.73,.03-.26,.05-.51,.05-.73V3.49c0-.23-.02-.47-.06-.73s-.08-.5-.14-.71c-.05-.21-.1-.4-.15-.58-.05-.18-.09-.32-.13-.43-.04-.11-.06-.17-.06-.18l-.02-.06Z"/>
    <path class="uuid-0d85379e-31d6-43eb-a0a5-fc1b5747018b" d="M255.83,5.3c.8-.74,1.86-1.11,3.18-1.11,.33,0,.69,.03,1.06,.1s.68,.13,.91,.19c.24,.06,.51,.15,.81,.25,.31,.1,.5,.16,.57,.19l.05,2.82h-.08c-.42-.66-.94-1.29-1.55-1.9-.61-.61-1.18-.91-1.69-.91-.79,0-1.18,.79-1.18,2.36v.13c.03,2.23,.84,3.34,2.42,3.34,.74,0,1.53-.24,2.37-.71l.06,.05c-.2,.65-.64,1.24-1.32,1.79-.67,.55-1.51,.82-2.53,.82-.41,0-.81-.05-1.21-.15s-.79-.27-1.16-.49c-.38-.23-.71-.5-.99-.82s-.51-.73-.69-1.21-.26-1.02-.26-1.6c0-1.33,.4-2.38,1.21-3.13Z"/>
    <path class="uuid-0d85379e-31d6-43eb-a0a5-fc1b5747018b" d="M264.32,.79l.5-.06,3.08-.32V5.55c.65-.91,1.5-1.37,2.57-1.37,.78,0,1.42,.24,1.92,.72,.5,.48,.76,1.13,.76,1.96v2.89c0,.23,.02,.47,.05,.73,.03,.26,.07,.51,.13,.73,.05,.22,.1,.42,.15,.61,.05,.18,.09,.33,.12,.44,.03,.11,.05,.18,.05,.19v.06h-4.04v-.06s.02-.07,.05-.19c.03-.11,.07-.26,.12-.44,.05-.18,.1-.39,.15-.61,.05-.22,.1-.46,.13-.73,.03-.26,.05-.51,.05-.73v-2.45c0-.84-.42-1.26-1.27-1.26-.28,0-.59,.05-.94,.16v3.55c0,.23,.02,.47,.05,.73s.07,.51,.12,.73c.05,.22,.1,.42,.15,.61,.05,.18,.1,.33,.13,.44,.03,.11,.05,.18,.05,.19v.06h-4.04v-.06s.02-.07,.05-.19c.03-.11,.08-.26,.13-.44,.05-.18,.11-.39,.15-.61,.05-.22,.09-.46,.12-.73,.03-.26,.05-.51,.05-.73V3.49c0-.23-.02-.47-.06-.73s-.08-.5-.14-.71c-.05-.21-.1-.4-.15-.58-.05-.18-.09-.32-.13-.43-.04-.11-.06-.17-.06-.18l-.02-.06Z"/>
    <path class="uuid-0d85379e-31d6-43eb-a0a5-fc1b5747018b" d="M275.09,10.01c0-.8,.3-1.44,.9-1.94,.6-.49,1.32-.74,2.16-.74,.66,0,1.28,.12,1.86,.36v-.89c0-.35,0-.6,0-.76s-.02-.34-.04-.53c-.02-.19-.06-.33-.1-.4-.05-.08-.12-.11-.2-.11-.27,0-.72,.19-1.35,.57-.63,.38-1.19,.76-1.69,1.14l-.74,.58h-.08v-2.55c1.6-.37,2.95-.55,4.05-.55s1.94,.26,2.45,.78c.5,.52,.75,1.21,.75,2.08v2.78c0,.56,.05,.91,.15,1.06,.1,.14,.22,.22,.35,.22,.14,0,.31-.05,.52-.16l.05,.05c-.03,.49-.22,.9-.57,1.22-.35,.32-.82,.48-1.41,.48-1.03,0-1.69-.47-1.97-1.4-.2,.38-.51,.71-.93,.98s-.92,.42-1.52,.42c-.82,0-1.46-.27-1.92-.81-.46-.54-.7-1.16-.7-1.86Zm3.47,.6c.2,.29,.5,.44,.89,.44,.23,0,.43-.07,.61-.21-.03-.18-.05-.37-.05-.57v-2.03c-.14-.04-.3-.06-.48-.06-.86,0-1.29,.45-1.29,1.36,0,.44,.11,.8,.32,1.08Z"/>
    <path class="uuid-0d85379e-31d6-43eb-a0a5-fc1b5747018b" d="M285.42,12.45s.02-.07,.05-.19c.03-.11,.07-.26,.12-.44,.05-.18,.1-.39,.15-.61,.05-.22,.1-.46,.13-.73s.05-.51,.05-.73v-2.71c0-.23-.02-.47-.05-.74s-.08-.51-.13-.73c-.05-.22-.1-.42-.15-.6-.05-.18-.09-.33-.12-.44-.03-.11-.05-.17-.05-.19v-.06h3.53v1.37c.24-.41,.58-.76,1.02-1.04s.96-.43,1.57-.43c.77,0,1.41,.24,1.92,.72s.76,1.13,.76,1.96v2.89c0,.23,.02,.47,.05,.73,.03,.26,.08,.51,.13,.73,.05,.22,.11,.42,.15,.61,.05,.18,.09,.33,.12,.44,.03,.11,.05,.18,.05,.19v.06h-4.04v-.06s.02-.07,.05-.19c.03-.11,.07-.26,.12-.44,.05-.18,.1-.39,.15-.61,.05-.22,.1-.46,.13-.73,.03-.26,.05-.51,.05-.73v-2.45c0-.83-.39-1.25-1.16-1.28h-.06c-.3,0-.63,.08-1,.24v3.49c0,.23,.02,.47,.05,.73,.03,.26,.08,.51,.13,.73,.05,.22,.11,.42,.15,.61,.05,.18,.09,.33,.12,.44,.03,.11,.05,.18,.05,.19v.06h-4.04v-.06Z"/>
    <path class="uuid-0d85379e-31d6-43eb-a0a5-fc1b5747018b" d="M296.27,7.07c0-.65,.2-1.2,.61-1.65,.41-.45,.89-.77,1.44-.96s1.11-.28,1.7-.28c.7,0,1.35,.12,1.95,.37,.43-1.22,1.19-1.82,2.29-1.82,.16,0,.32,.01,.48,.03l-.4,2.26-.05,.03c-.4-.23-.81-.34-1.23-.34-.22,0-.43,.03-.65,.08,.91,.53,1.37,1.29,1.37,2.28,0,.94-.4,1.66-1.19,2.16-.79,.51-1.66,.76-2.59,.76-.45,0-.88-.06-1.28-.18-.42,.13-.63,.31-.63,.55,0,.13,.07,.21,.21,.25,.14,.04,.38,.06,.71,.06h2.66c.9,0,1.6,.21,2.08,.64s.72,1.02,.72,1.8c0,1.75-1.47,2.63-4.41,2.63-.27,0-.53,0-.78-.02-.25-.02-.57-.06-.95-.13-.38-.07-.71-.16-.99-.28s-.52-.29-.73-.52c-.2-.23-.31-.5-.31-.82,0-.4,.15-.77,.44-1.11-.3-.32-.45-.75-.45-1.28,0-1.01,.61-1.67,1.84-1.97-1.25-.53-1.87-1.38-1.87-2.55Zm1.6,6.39c.17,1,.98,1.5,2.44,1.5,.59,0,1.14-.07,1.65-.2s.77-.35,.77-.65c0-.19-.09-.33-.27-.41s-.48-.12-.9-.12h-2.68c-.41,0-.75-.04-1.02-.11Zm1.32-6.38c0,1.47,.28,2.21,.82,2.21s.86-.74,.86-2.21-.29-2.2-.86-2.2-.82,.73-.82,2.2Z"/>
    <path class="uuid-0d85379e-31d6-43eb-a0a5-fc1b5747018b" d="M306.86,5.3c.8-.74,1.86-1.11,3.18-1.11,.73,0,1.37,.12,1.9,.37,.54,.25,.95,.58,1.24,.99s.49,.85,.62,1.31,.19,.94,.19,1.44h-4.97c.21,1.64,.99,2.45,2.34,2.45,.74,0,1.53-.24,2.37-.71l.06,.05c-.19,.64-.63,1.23-1.31,1.78-.68,.55-1.52,.83-2.53,.83-.52,0-1.02-.08-1.52-.25-.49-.17-.95-.42-1.38-.75s-.77-.78-1.02-1.35-.39-1.21-.39-1.93c0-1.33,.4-2.38,1.21-3.13Zm2.08,1.95c0,.14,.01,.35,.03,.63l2.05-.64c0-1.54-.34-2.31-1.03-2.31s-1.05,.73-1.05,2.2v.13Z"/>
    <path class="uuid-0d85379e-31d6-43eb-a0a5-fc1b5747018b" d="M319.77,10.01c0-.8,.3-1.44,.9-1.94,.6-.49,1.32-.74,2.16-.74,.66,0,1.28,.12,1.86,.36v-.89c0-.35,0-.6,0-.76s-.02-.34-.04-.53c-.02-.19-.06-.33-.1-.4-.05-.08-.12-.11-.2-.11-.27,0-.72,.19-1.35,.57-.63,.38-1.19,.76-1.69,1.14l-.74,.58h-.08v-2.55c1.6-.37,2.95-.55,4.05-.55s1.94,.26,2.45,.78c.5,.52,.75,1.21,.75,2.08v2.78c0,.56,.05,.91,.15,1.06,.1,.14,.22,.22,.35,.22,.14,0,.31-.05,.52-.16l.05,.05c-.03,.49-.22,.9-.57,1.22-.35,.32-.82,.48-1.41,.48-1.03,0-1.69-.47-1.97-1.4-.2,.38-.51,.71-.93,.98s-.92,.42-1.52,.42c-.82,0-1.46-.27-1.92-.81-.46-.54-.7-1.16-.7-1.86Zm3.47,.6c.2,.29,.5,.44,.89,.44,.23,0,.43-.07,.61-.21-.03-.18-.05-.37-.05-.57v-2.03c-.14-.04-.3-.06-.48-.06-.86,0-1.29,.45-1.29,1.36,0,.44,.11,.8,.32,1.08Z"/>
    <path class="uuid-0d85379e-31d6-43eb-a0a5-fc1b5747018b" d="M330.07,6.78c0-.81,.33-1.44,1-1.9,.67-.46,1.57-.69,2.71-.69,1.08,0,2.1,.18,3.07,.55v2.55h-.08c-.36-.38-.62-.66-.81-.85-.18-.19-.44-.42-.76-.7-.32-.28-.62-.48-.9-.6-.28-.12-.56-.19-.84-.19-.25,0-.46,.05-.63,.16-.17,.11-.26,.27-.26,.5,0,.16,.04,.3,.13,.43,.09,.12,.25,.25,.5,.37,.25,.12,.45,.22,.6,.28s.45,.17,.88,.32c.98,.34,1.66,.75,2.03,1.22,.38,.47,.56,1.01,.56,1.62,0,.95-.35,1.66-1.04,2.13-.69,.47-1.53,.71-2.49,.71-1.02,0-2.15-.2-3.38-.61v-2.65h.08c.1,.1,.31,.31,.64,.63s.57,.56,.73,.7c.16,.14,.38,.32,.65,.53,.28,.21,.53,.36,.77,.45s.47,.14,.7,.14c.27,0,.49-.06,.68-.19,.18-.13,.27-.31,.27-.55,0-.35-.26-.63-.79-.87-.17-.09-.61-.26-1.32-.52-1.81-.66-2.71-1.65-2.71-2.97Z"/>
    <path class="uuid-0d85379e-31d6-43eb-a0a5-fc1b5747018b" d="M344.36,5.3c.8-.74,1.86-1.11,3.18-1.11,.33,0,.69,.03,1.06,.1s.68,.13,.91,.19c.24,.06,.51,.15,.81,.25,.31,.1,.5,.16,.57,.19l.05,2.82h-.08c-.42-.66-.94-1.29-1.55-1.9-.61-.61-1.18-.91-1.69-.91-.79,0-1.18,.79-1.18,2.36v.13c.03,2.23,.84,3.34,2.42,3.34,.74,0,1.53-.24,2.37-.71l.06,.05c-.2,.65-.64,1.24-1.32,1.79-.67,.55-1.51,.82-2.53,.82-.41,0-.81-.05-1.21-.15s-.79-.27-1.16-.49c-.38-.23-.71-.5-.99-.82s-.51-.73-.69-1.21-.26-1.02-.26-1.6c0-1.33,.4-2.38,1.21-3.13Z"/>
    <path class="uuid-0d85379e-31d6-43eb-a0a5-fc1b5747018b" d="M354.11,5.23c.85-.7,1.92-1.05,3.2-1.05s2.35,.35,3.2,1.06c.86,.7,1.28,1.75,1.28,3.14s-.43,2.48-1.3,3.22c-.87,.74-1.93,1.11-3.19,1.11s-2.33-.37-3.19-1.11c-.86-.74-1.28-1.81-1.28-3.22s.43-2.45,1.28-3.15Zm2.12,3.15c0,2.39,.36,3.58,1.08,3.58s1.1-1.2,1.1-3.58-.37-3.47-1.1-3.47-1.08,1.16-1.08,3.47Z"/>
    <path class="uuid-0d85379e-31d6-43eb-a0a5-fc1b5747018b" d="M363.23,4.28h3.54v5.28c0,.82,.37,1.23,1.11,1.23,.3,0,.63-.06,1-.19-.01-.09-.02-.23-.02-.42v-3.13c0-.23-.02-.47-.05-.74-.03-.26-.07-.51-.12-.73-.05-.22-.1-.42-.15-.6-.05-.18-.1-.33-.13-.44-.03-.11-.05-.17-.05-.19v-.06h3.54v5.47c0,.23,.02,.47,.05,.73,.03,.26,.07,.51,.12,.73s.1,.42,.15,.61c.05,.18,.1,.33,.13,.44,.03,.11,.05,.18,.05,.19v.06h-2.76c-.36-.58-.58-1.05-.66-1.42-.6,1.05-1.46,1.58-2.57,1.58-.79,0-1.43-.24-1.93-.72-.5-.48-.75-1.13-.75-1.96v-2.95c0-.23-.02-.47-.05-.74-.03-.26-.07-.51-.12-.73-.05-.22-.1-.42-.15-.6-.05-.18-.1-.33-.13-.44-.03-.11-.05-.17-.05-.19v-.06Z"/>
    <path class="uuid-0d85379e-31d6-43eb-a0a5-fc1b5747018b" d="M373.92,12.45s.02-.07,.05-.19c.03-.11,.07-.26,.12-.44,.05-.18,.1-.39,.15-.61,.05-.22,.1-.46,.13-.73s.05-.51,.05-.73v-2.71c0-.23-.02-.47-.05-.74s-.08-.51-.13-.73c-.05-.22-.1-.42-.15-.6-.05-.18-.09-.33-.12-.44-.03-.11-.05-.17-.05-.19v-.06h3.53v1.37c.24-.41,.58-.76,1.02-1.04s.96-.43,1.57-.43c.77,0,1.41,.24,1.92,.72s.76,1.13,.76,1.96v2.89c0,.23,.02,.47,.05,.73,.03,.26,.08,.51,.13,.73,.05,.22,.11,.42,.15,.61,.05,.18,.09,.33,.12,.44,.03,.11,.05,.18,.05,.19v.06h-4.04v-.06s.02-.07,.05-.19c.03-.11,.07-.26,.12-.44,.05-.18,.1-.39,.15-.61,.05-.22,.1-.46,.13-.73,.03-.26,.05-.51,.05-.73v-2.45c0-.83-.39-1.25-1.16-1.28h-.06c-.3,0-.63,.08-1,.24v3.49c0,.23,.02,.47,.05,.73,.03,.26,.08,.51,.13,.73,.05,.22,.11,.42,.15,.61,.05,.18,.09,.33,.12,.44,.03,.11,.05,.18,.05,.19v.06h-4.04v-.06Z"/>
    <path class="uuid-0d85379e-31d6-43eb-a0a5-fc1b5747018b" d="M384.23,4.28c1.61-.84,3.01-1.86,4.2-3.07v3.07h2.16v.81h-2.16l.02,4.5c0,.75,.35,1.13,1.03,1.13,.27,0,.61-.08,1.03-.23-.48,1.47-1.39,2.21-2.71,2.21-.74,0-1.33-.24-1.75-.73-.43-.48-.64-1.19-.64-2.11V5.09h-1.18v-.81Z"/>
    <path class="uuid-0d85379e-31d6-43eb-a0a5-fc1b5747018b" d="M392.08,4.34v-.06h3.53v1.76c.58-1.31,1.4-1.97,2.47-1.97,.32,0,.67,.06,1.03,.18l-.48,3.2h-.08c-.69-.8-1.38-1.19-2.07-1.19-.29,0-.58,.07-.87,.21v3.29c0,.23,.02,.47,.05,.73,.03,.26,.08,.51,.13,.73,.05,.22,.11,.42,.15,.61,.05,.18,.09,.33,.12,.44,.03,.11,.05,.18,.05,.19v.06h-4.04v-.06s.02-.07,.05-.19c.03-.11,.07-.26,.12-.44,.05-.18,.1-.39,.15-.61,.05-.22,.1-.46,.13-.73s.05-.51,.05-.73v-2.71c0-.23-.02-.47-.05-.74s-.08-.51-.13-.73c-.05-.22-.1-.42-.15-.6-.05-.18-.09-.33-.12-.44-.03-.11-.05-.17-.05-.19Z"/>
    <path class="uuid-0d85379e-31d6-43eb-a0a5-fc1b5747018b" d="M400.57,12.25c.03-.11,.08-.25,.13-.44,.05-.18,.11-.39,.15-.61,.05-.22,.09-.46,.12-.73,.03-.26,.05-.51,.05-.73v-2.71c0-.23-.02-.47-.05-.74-.03-.26-.07-.51-.12-.73-.05-.22-.1-.42-.15-.6-.05-.18-.1-.33-.13-.44-.03-.11-.05-.17-.05-.19v-.06h3.54v5.47c0,.23,.02,.47,.05,.73s.07,.51,.12,.73c.05,.22,.1,.42,.15,.61,.05,.18,.1,.33,.13,.44,.03,.11,.05,.18,.05,.19v.06h-4.04v-.06s.02-.08,.05-.19Zm.53-11.74c.36-.34,.79-.52,1.29-.52s.94,.18,1.29,.52c.36,.35,.53,.77,.53,1.27s-.18,.91-.53,1.26c-.37,.36-.8,.53-1.29,.53s-.92-.17-1.28-.52c-.36-.35-.54-.77-.54-1.27s.18-.92,.53-1.28Z"/>
    <path class="uuid-0d85379e-31d6-43eb-a0a5-fc1b5747018b" d="M407.19,5.3c.8-.74,1.86-1.11,3.18-1.11,.73,0,1.37,.12,1.9,.37,.54,.25,.95,.58,1.24,.99s.49,.85,.62,1.31,.19,.94,.19,1.44h-4.97c.21,1.64,.99,2.45,2.34,2.45,.74,0,1.53-.24,2.37-.71l.06,.05c-.19,.64-.63,1.23-1.31,1.78-.68,.55-1.52,.83-2.53,.83-.52,0-1.02-.08-1.52-.25-.49-.17-.95-.42-1.38-.75s-.77-.78-1.02-1.35-.39-1.21-.39-1.93c0-1.33,.4-2.38,1.21-3.13Zm2.08,1.95c0,.14,.01,.35,.03,.63l2.05-.64c0-1.54-.34-2.31-1.03-2.31s-1.05,.73-1.05,2.2v.13Z"/>
    <path class="uuid-0d85379e-31d6-43eb-a0a5-fc1b5747018b" d="M415.97,6.78c0-.81,.33-1.44,1-1.9,.67-.46,1.57-.69,2.71-.69,1.08,0,2.1,.18,3.07,.55v2.55h-.08c-.36-.38-.62-.66-.81-.85-.18-.19-.44-.42-.76-.7-.32-.28-.62-.48-.9-.6-.28-.12-.56-.19-.84-.19-.25,0-.46,.05-.63,.16-.17,.11-.26,.27-.26,.5,0,.16,.04,.3,.13,.43,.09,.12,.25,.25,.5,.37,.25,.12,.45,.22,.6,.28s.45,.17,.88,.32c.98,.34,1.66,.75,2.03,1.22,.38,.47,.56,1.01,.56,1.62,0,.95-.35,1.66-1.04,2.13-.69,.47-1.53,.71-2.49,.71-1.02,0-2.15-.2-3.38-.61v-2.65h.08c.1,.1,.31,.31,.64,.63s.57,.56,.73,.7c.16,.14,.38,.32,.65,.53,.28,.21,.53,.36,.77,.45s.47,.14,.7,.14c.27,0,.49-.06,.68-.19,.18-.13,.27-.31,.27-.55,0-.35-.26-.63-.79-.87-.17-.09-.61-.26-1.32-.52-1.81-.66-2.71-1.65-2.71-2.97Z"/>
    <path class="uuid-0d85379e-31d6-43eb-a0a5-fc1b5747018b" d="M429.18,7.07c0-.65,.2-1.2,.61-1.65,.41-.45,.89-.77,1.44-.96s1.11-.28,1.7-.28c.7,0,1.35,.12,1.95,.37,.43-1.22,1.19-1.82,2.29-1.82,.16,0,.32,.01,.48,.03l-.4,2.26-.05,.03c-.4-.23-.81-.34-1.23-.34-.22,0-.43,.03-.65,.08,.91,.53,1.37,1.29,1.37,2.28,0,.94-.4,1.66-1.19,2.16-.79,.51-1.66,.76-2.59,.76-.45,0-.88-.06-1.28-.18-.42,.13-.63,.31-.63,.55,0,.13,.07,.21,.21,.25,.14,.04,.38,.06,.71,.06h2.66c.9,0,1.6,.21,2.08,.64s.72,1.02,.72,1.8c0,1.75-1.47,2.63-4.41,2.63-.27,0-.53,0-.78-.02-.25-.02-.57-.06-.95-.13-.38-.07-.71-.16-.99-.28s-.52-.29-.73-.52c-.2-.23-.31-.5-.31-.82,0-.4,.15-.77,.44-1.11-.3-.32-.45-.75-.45-1.28,0-1.01,.61-1.67,1.84-1.97-1.25-.53-1.87-1.38-1.87-2.55Zm1.6,6.39c.17,1,.98,1.5,2.44,1.5,.59,0,1.14-.07,1.65-.2s.77-.35,.77-.65c0-.19-.09-.33-.27-.41s-.48-.12-.9-.12h-2.68c-.41,0-.75-.04-1.02-.11Zm1.32-6.38c0,1.47,.28,2.21,.82,2.21s.86-.74,.86-2.21-.29-2.2-.86-2.2-.82,.73-.82,2.2Z"/>
    <path class="uuid-0d85379e-31d6-43eb-a0a5-fc1b5747018b" d="M438.77,4.34v-.06h3.53v1.76c.58-1.31,1.4-1.97,2.47-1.97,.32,0,.67,.06,1.03,.18l-.48,3.2h-.08c-.69-.8-1.38-1.19-2.07-1.19-.29,0-.58,.07-.87,.21v3.29c0,.23,.02,.47,.05,.73,.03,.26,.08,.51,.13,.73,.05,.22,.11,.42,.15,.61,.05,.18,.09,.33,.12,.44,.03,.11,.05,.18,.05,.19v.06h-4.04v-.06s.02-.07,.05-.19c.03-.11,.07-.26,.12-.44,.05-.18,.1-.39,.15-.61,.05-.22,.1-.46,.13-.73s.05-.51,.05-.73v-2.71c0-.23-.02-.47-.05-.74s-.08-.51-.13-.73c-.05-.22-.1-.42-.15-.6-.05-.18-.09-.33-.12-.44-.03-.11-.05-.17-.05-.19Z"/>
    <path class="uuid-0d85379e-31d6-43eb-a0a5-fc1b5747018b" d="M448.31,5.23c.85-.7,1.92-1.05,3.2-1.05s2.35,.35,3.2,1.06c.86,.7,1.28,1.75,1.28,3.14s-.43,2.48-1.3,3.22c-.87,.74-1.93,1.11-3.19,1.11s-2.33-.37-3.19-1.11c-.86-.74-1.28-1.81-1.28-3.22s.43-2.45,1.28-3.15Zm2.12,3.15c0,2.39,.36,3.58,1.08,3.58s1.1-1.2,1.1-3.58-.37-3.47-1.1-3.47-1.08,1.16-1.08,3.47Z"/>
    <path class="uuid-0d85379e-31d6-43eb-a0a5-fc1b5747018b" d="M456.53,4.28h4.55v.06l-.05,.16c-.03,.1-.06,.22-.09,.38s-.05,.31-.06,.46-.02,.29-.02,.42c0,.09,0,.21,.02,.37,.01,.16,.05,.34,.11,.53l.89,2.71,1.02-2.82c-.13-.3-.29-.63-.48-1-.19-.37-.35-.66-.47-.87s-.18-.33-.18-.34v-.06h4.55v.06l-.05,.16c-.03,.1-.06,.22-.09,.38-.03,.16-.05,.31-.06,.46-.02,.15-.02,.29-.02,.42,0,.09,0,.21,.02,.37,.01,.16,.05,.34,.11,.53l.89,2.71,.99-2.74c.06-.19,.1-.37,.11-.52,.01-.16,.02-.27,.02-.35,0-.14-.01-.29-.03-.44-.02-.15-.05-.3-.09-.45s-.07-.27-.1-.37l-.06-.16v-.06h2.18v.08c-.53,.86-.94,1.71-1.24,2.53l-2.03,5.62h-1.73l-1.81-4.86-1.86,4.86h-1.57l-2.08-5.62c-.12-.33-.29-.71-.5-1.13s-.4-.76-.54-1.02c-.15-.26-.22-.39-.22-.4v-.06Z"/>
  </g>
  <g>
    <path class="uuid-0d85379e-31d6-43eb-a0a5-fc1b5747018b" d="M71.39,299.71v-.05h3.46v.05s-.01,.06-.04,.15c-.03,.09-.06,.21-.1,.36-.04,.15-.08,.32-.13,.49-.04,.18-.08,.38-.11,.59-.03,.22-.04,.42-.04,.6v6.63h1.02c.25,0,.51-.08,.79-.25,.28-.17,.54-.37,.77-.61s.44-.48,.64-.73,.36-.45,.48-.61,.18-.25,.19-.25h.07v3.08h-7v-.05s.01-.06,.04-.15c.03-.09,.06-.21,.1-.36,.04-.15,.08-.32,.12-.5s.08-.38,.11-.59c.03-.21,.04-.42,.04-.6v-4.99c0-.18-.01-.38-.04-.6-.03-.21-.06-.41-.11-.59-.04-.18-.09-.35-.12-.49-.04-.15-.07-.27-.1-.36-.03-.09-.04-.14-.04-.15Z"/>
    <path class="uuid-0d85379e-31d6-43eb-a0a5-fc1b5747018b" d="M80.74,303.21c.7-.57,1.57-.86,2.62-.86s1.92,.29,2.62,.86c.7,.58,1.05,1.43,1.05,2.57s-.36,2.03-1.06,2.63c-.71,.6-1.58,.91-2.61,.91s-1.91-.3-2.61-.91c-.7-.6-1.05-1.48-1.05-2.63s.35-2,1.04-2.58Zm1.73,2.58c0,1.95,.3,2.93,.89,2.93s.9-.98,.9-2.93-.3-2.84-.9-2.84-.89,.95-.89,2.84Z"/>
    <path class="uuid-0d85379e-31d6-43eb-a0a5-fc1b5747018b" d="M87.46,302.43h3.73v.05l-.04,.13c-.03,.08-.05,.18-.07,.31-.02,.13-.04,.25-.05,.38s-.02,.24-.02,.34c0,.07,0,.17,.01,.3s.04,.28,.09,.44l.73,2.22,.83-2.31c-.11-.25-.24-.52-.4-.82-.16-.3-.29-.54-.38-.71-.1-.18-.15-.27-.15-.28v-.05h3.72v.05l-.04,.13c-.03,.08-.05,.18-.07,.31-.02,.13-.04,.25-.05,.38-.01,.12-.02,.24-.02,.34,0,.07,0,.17,.01,.3,0,.13,.04,.28,.09,.44l.73,2.22,.81-2.25c.05-.16,.08-.3,.09-.43,0-.13,.01-.22,.01-.28,0-.11,0-.23-.03-.36s-.04-.25-.07-.37c-.03-.12-.06-.23-.09-.3l-.05-.13v-.05h1.78v.07c-.43,.71-.77,1.4-1.02,2.07l-1.66,4.6h-1.41l-1.48-3.98-1.52,3.98h-1.28l-1.7-4.6c-.1-.27-.23-.58-.41-.92-.18-.34-.32-.62-.44-.83-.12-.21-.18-.32-.18-.33v-.05Z"/>
    <path class="uuid-0d85379e-31d6-43eb-a0a5-fc1b5747018b" d="M103.28,299.71v-.05h3.46v.05s-.01,.06-.04,.15c-.03,.09-.06,.21-.1,.36-.04,.15-.08,.32-.13,.49-.04,.18-.08,.38-.1,.59-.03,.22-.04,.42-.04,.6v4.99c0,.18,.01,.39,.04,.6,.03,.22,.06,.41,.1,.59s.09,.35,.13,.5c.04,.15,.07,.27,.1,.36,.03,.09,.04,.14,.04,.15v.05h-3.46v-.05s.01-.06,.04-.15c.03-.09,.06-.21,.1-.36,.04-.15,.08-.32,.12-.5s.08-.38,.11-.59c.03-.21,.04-.42,.04-.6v-4.99c0-.18-.01-.38-.04-.6-.03-.21-.06-.41-.11-.59-.04-.18-.09-.35-.12-.49-.04-.15-.07-.27-.1-.36-.03-.09-.04-.14-.04-.15Z"/>
    <path class="uuid-0d85379e-31d6-43eb-a0a5-fc1b5747018b" d="M108.27,309.12s.01-.06,.04-.15c.03-.09,.06-.21,.1-.36,.04-.15,.08-.32,.13-.5,.04-.18,.08-.38,.1-.59,.03-.21,.04-.42,.04-.6v-2.22c0-.18-.01-.39-.04-.6-.03-.21-.06-.41-.1-.59-.04-.18-.09-.35-.13-.5-.04-.15-.07-.27-.1-.36-.03-.09-.04-.14-.04-.15v-.05h2.89v1.12c.19-.33,.47-.62,.83-.85s.79-.35,1.28-.35c.63,0,1.16,.19,1.57,.59,.41,.39,.62,.93,.62,1.6v2.36c0,.18,.01,.39,.04,.6,.03,.22,.06,.41,.1,.59,.04,.18,.09,.35,.13,.5,.04,.15,.07,.27,.1,.36,.03,.09,.04,.14,.04,.15v.05h-3.3v-.05s.01-.06,.04-.15c.03-.09,.06-.21,.1-.36,.04-.15,.08-.32,.12-.5s.08-.38,.11-.59c.03-.21,.04-.42,.04-.6v-2.01c0-.68-.32-1.02-.95-1.04h-.05c-.25,0-.52,.07-.82,.2v2.85c0,.18,.01,.39,.04,.6,.03,.22,.06,.41,.11,.59,.04,.18,.09,.35,.13,.5,.04,.15,.07,.27,.1,.36,.03,.09,.04,.14,.04,.15v.05h-3.3v-.05Z"/>
    <path class="uuid-0d85379e-31d6-43eb-a0a5-fc1b5747018b" d="M118.04,303.27c.65-.61,1.52-.91,2.6-.91,.27,0,.56,.03,.87,.08s.55,.11,.75,.16c.19,.05,.42,.12,.67,.2,.25,.08,.41,.13,.47,.15l.04,2.31h-.07c-.34-.54-.77-1.05-1.27-1.55s-.96-.75-1.39-.75c-.64,0-.96,.64-.96,1.93v.11c.03,1.82,.69,2.73,1.98,2.73,.61,0,1.26-.19,1.94-.58l.05,.04c-.17,.53-.53,1.02-1.08,1.47-.55,.45-1.24,.67-2.07,.67-.33,0-.67-.04-.99-.13s-.64-.22-.95-.4c-.31-.18-.58-.41-.81-.67s-.42-.59-.56-.99c-.14-.4-.21-.83-.21-1.31,0-1.09,.33-1.94,.99-2.56Z"/>
    <path class="uuid-0d85379e-31d6-43eb-a0a5-fc1b5747018b" d="M126.02,303.21c.7-.57,1.57-.86,2.62-.86s1.92,.29,2.62,.86c.7,.58,1.05,1.43,1.05,2.57s-.36,2.03-1.06,2.63c-.71,.6-1.58,.91-2.61,.91s-1.91-.3-2.61-.91c-.7-.6-1.05-1.48-1.05-2.63s.35-2,1.04-2.58Zm1.73,2.58c0,1.95,.3,2.93,.89,2.93s.9-.98,.9-2.93-.3-2.84-.9-2.84-.89,.95-.89,2.84Z"/>
    <path class="uuid-0d85379e-31d6-43eb-a0a5-fc1b5747018b" d="M133.44,309.12s.01-.06,.04-.15c.03-.09,.06-.21,.1-.36,.04-.15,.08-.32,.13-.5,.04-.18,.08-.38,.1-.59,.03-.21,.04-.42,.04-.6v-2.22c0-.18-.01-.39-.04-.6-.03-.21-.06-.41-.1-.59-.04-.18-.09-.35-.13-.5-.04-.15-.07-.27-.1-.36-.03-.09-.04-.14-.04-.15v-.05h2.87v1.29c.54-.92,1.29-1.37,2.26-1.37,.49,0,.91,.12,1.25,.36,.34,.24,.57,.59,.71,1.05,.52-.94,1.28-1.41,2.27-1.41,.63,0,1.12,.19,1.49,.58s.55,.92,.55,1.61v2.36c0,.18,.01,.39,.04,.6,.03,.22,.06,.41,.11,.59s.09,.35,.13,.5c.04,.15,.07,.27,.1,.36,.03,.09,.04,.14,.04,.15v.05h-3.28v-.05s.01-.06,.04-.15c.03-.09,.06-.21,.1-.36,.04-.15,.08-.32,.12-.5s.08-.38,.11-.59c.03-.21,.04-.42,.04-.6v-2.01c0-.33-.1-.58-.3-.74-.2-.16-.46-.24-.77-.24-.23,0-.48,.04-.74,.13,.03,.16,.04,.32,.04,.49v2.36c0,.18,.01,.39,.04,.6,.03,.22,.06,.41,.11,.59s.09,.35,.13,.5c.04,.15,.07,.27,.1,.36,.03,.09,.04,.14,.04,.15v.05h-3.27v-.05s.01-.06,.04-.15c.03-.09,.06-.21,.1-.36,.04-.15,.08-.32,.12-.5s.08-.38,.11-.59c.03-.21,.04-.42,.04-.6v-2.01c0-.33-.1-.58-.31-.74-.21-.16-.47-.24-.79-.24-.26,0-.51,.05-.75,.15v2.84c0,.18,.01,.39,.04,.6,.03,.22,.06,.41,.11,.59,.04,.18,.09,.35,.12,.5,.04,.15,.07,.27,.1,.36,.03,.09,.04,.14,.04,.15v.05h-3.28v-.05Z"/>
    <path class="uuid-0d85379e-31d6-43eb-a0a5-fc1b5747018b" d="M147.4,303.27c.65-.61,1.52-.91,2.6-.91,.6,0,1.12,.1,1.56,.3,.44,.2,.78,.47,1.01,.81,.23,.34,.4,.7,.51,1.07,.1,.37,.16,.77,.16,1.18h-4.07c.18,1.34,.81,2.01,1.91,2.01,.61,0,1.26-.19,1.94-.58l.05,.04c-.16,.52-.52,1.01-1.07,1.46s-1.25,.68-2.07,.68c-.42,0-.84-.07-1.24-.2-.41-.14-.78-.34-1.13-.61-.35-.27-.63-.64-.84-1.1-.21-.46-.32-.99-.32-1.58,0-1.09,.33-1.94,.99-2.56Zm1.7,1.6c0,.11,0,.29,.03,.51l1.68-.53c0-1.26-.28-1.89-.85-1.89s-.86,.6-.86,1.8v.11Z"/>
  </g>
  <g>
    <path class="uuid-0d85379e-31d6-43eb-a0a5-fc1b5747018b" d="M206.92,299.71v-.05h3.46v.05s-.01,.06-.04,.15c-.03,.09-.06,.21-.1,.36-.04,.15-.08,.32-.13,.49-.04,.18-.08,.38-.11,.59-.03,.22-.04,.42-.04,.6v6.63h1.02c.25,0,.51-.08,.79-.25,.28-.17,.54-.37,.77-.61s.44-.48,.64-.73,.36-.45,.48-.61,.18-.25,.19-.25h.07v3.08h-7v-.05s.01-.06,.04-.15c.03-.09,.06-.21,.1-.36,.04-.15,.08-.32,.12-.5s.08-.38,.11-.59c.03-.21,.04-.42,.04-.6v-4.99c0-.18-.01-.38-.04-.6-.03-.21-.06-.41-.11-.59-.04-.18-.09-.35-.12-.49-.04-.15-.07-.27-.1-.36-.03-.09-.04-.14-.04-.15Z"/>
    <path class="uuid-0d85379e-31d6-43eb-a0a5-fc1b5747018b" d="M216.27,303.21c.7-.57,1.57-.86,2.62-.86s1.92,.29,2.62,.86c.7,.58,1.05,1.43,1.05,2.57s-.36,2.03-1.06,2.63c-.71,.6-1.58,.91-2.61,.91s-1.91-.3-2.61-.91c-.7-.6-1.05-1.48-1.05-2.63s.35-2,1.04-2.58Zm1.73,2.58c0,1.95,.3,2.93,.89,2.93s.9-.98,.9-2.93-.3-2.84-.9-2.84-.89,.95-.89,2.84Z"/>
    <path class="uuid-0d85379e-31d6-43eb-a0a5-fc1b5747018b" d="M222.99,302.43h3.73v.05l-.04,.13c-.03,.08-.05,.18-.07,.31-.02,.13-.04,.25-.05,.38s-.02,.24-.02,.34c0,.07,0,.17,.01,.3s.04,.28,.09,.44l.73,2.22,.83-2.31c-.11-.25-.24-.52-.4-.82s-.29-.54-.38-.71c-.1-.18-.15-.27-.15-.28v-.05h3.73v.05l-.04,.13c-.03,.08-.05,.18-.07,.31-.02,.13-.04,.25-.05,.38s-.02,.24-.02,.34c0,.07,0,.17,.01,.3,0,.13,.04,.28,.09,.44l.73,2.22,.81-2.25c.05-.16,.08-.3,.09-.43,0-.13,.01-.22,.01-.28,0-.11,0-.23-.03-.36-.02-.12-.04-.25-.07-.37-.03-.12-.06-.23-.09-.3l-.05-.13v-.05h1.78v.07c-.43,.71-.77,1.4-1.02,2.07l-1.66,4.6h-1.41l-1.48-3.98-1.52,3.98h-1.28l-1.7-4.6c-.1-.27-.23-.58-.41-.92-.18-.34-.32-.62-.44-.83-.12-.21-.18-.32-.18-.33v-.05Z"/>
    <path class="uuid-0d85379e-31d6-43eb-a0a5-fc1b5747018b" d="M235.79,303.27c.65-.61,1.52-.91,2.6-.91,.6,0,1.12,.1,1.56,.3,.44,.2,.78,.47,1.01,.81,.23,.34,.4,.7,.51,1.07,.1,.37,.16,.77,.16,1.18h-4.07c.18,1.34,.81,2.01,1.91,2.01,.61,0,1.26-.19,1.94-.58l.05,.04c-.16,.52-.52,1.01-1.07,1.46s-1.25,.68-2.07,.68c-.42,0-.84-.07-1.24-.2s-.78-.34-1.13-.61c-.35-.27-.63-.64-.84-1.1-.21-.46-.32-.99-.32-1.58,0-1.09,.33-1.94,.99-2.56Zm1.7,1.6c0,.11,0,.29,.03,.51l1.68-.53c0-1.26-.28-1.89-.85-1.89s-.86,.6-.86,1.8v.11Z"/>
    <path class="uuid-0d85379e-31d6-43eb-a0a5-fc1b5747018b" d="M242.87,302.49v-.05h2.89v1.44c.47-1.07,1.15-1.61,2.02-1.61,.26,0,.55,.05,.85,.14l-.4,2.62h-.07c-.56-.65-1.13-.98-1.69-.98-.24,0-.47,.06-.71,.17v2.69c0,.18,.01,.39,.04,.6,.03,.22,.06,.41,.11,.59s.09,.35,.13,.5c.04,.15,.07,.27,.1,.36,.03,.09,.04,.14,.04,.15v.05h-3.3v-.05s.01-.06,.04-.15c.03-.09,.06-.21,.1-.36,.04-.15,.08-.32,.13-.5,.04-.18,.08-.38,.1-.59,.03-.21,.04-.42,.04-.6v-2.22c0-.18-.01-.39-.04-.6-.03-.21-.06-.41-.1-.59-.04-.18-.09-.35-.13-.5-.04-.15-.07-.27-.1-.36-.03-.09-.04-.14-.04-.15Z"/>
    <path class="uuid-0d85379e-31d6-43eb-a0a5-fc1b5747018b" d="M253.1,309.17v-.08s.03-.08,.09-.23,.13-.32,.2-.55c.08-.23,.16-.47,.24-.74,.08-.27,.15-.56,.2-.89,.06-.33,.09-.63,.09-.91v-3.86c0-.18-.02-.38-.06-.6-.04-.21-.09-.41-.15-.59-.06-.18-.12-.35-.18-.49-.06-.15-.11-.27-.15-.36-.04-.09-.06-.14-.06-.15v-.05h3.17l2.46,5.92,2.14-5.92h3.05v.05s-.01,.06-.04,.15c-.03,.09-.06,.21-.11,.36-.04,.15-.09,.32-.12,.49-.04,.18-.07,.38-.1,.59-.03,.22-.04,.42-.04,.6v4.99c0,.18,.01,.39,.04,.6,.03,.22,.06,.41,.1,.59,.04,.18,.08,.35,.12,.5,.04,.15,.08,.27,.11,.36,.03,.09,.04,.14,.04,.15v.05h-3.46v-.05s.01-.06,.04-.15c.03-.09,.06-.21,.1-.36,.04-.15,.09-.32,.13-.5s.07-.38,.1-.59c.03-.21,.04-.42,.04-.6v-5.27l-2.71,7.53h-.73l-3.04-7.53c0,.06-.01,.15-.01,.28v3.86c0,.28,.03,.59,.09,.91,.06,.33,.12,.62,.2,.89,.08,.27,.16,.52,.24,.74,.08,.22,.15,.41,.2,.55s.09,.22,.09,.23v.08h-2.31Z"/>
    <path class="uuid-0d85379e-31d6-43eb-a0a5-fc1b5747018b" d="M265.71,308.96c.03-.09,.06-.21,.1-.36,.04-.15,.09-.32,.13-.5s.07-.38,.1-.59c.03-.21,.04-.42,.04-.6v-2.22c0-.18-.01-.39-.04-.6-.03-.21-.06-.41-.1-.59s-.08-.35-.13-.5c-.04-.15-.08-.27-.1-.36-.03-.09-.04-.14-.04-.15v-.05h2.89v4.48c0,.18,.01,.39,.04,.6,.03,.22,.06,.41,.1,.59s.08,.35,.13,.5c.04,.15,.08,.27,.1,.36,.03,.09,.04,.14,.04,.15v.05h-3.3v-.05s.01-.06,.04-.16Zm.44-9.6c.29-.28,.64-.42,1.06-.42s.77,.14,1.06,.43c.29,.29,.44,.63,.44,1.04s-.15,.75-.44,1.03c-.3,.29-.65,.44-1.06,.44s-.76-.14-1.05-.43c-.29-.29-.44-.63-.44-1.04s.14-.75,.44-1.04Z"/>
    <path class="uuid-0d85379e-31d6-43eb-a0a5-fc1b5747018b" d="M270.86,303.23c.5-.58,1.12-.87,1.85-.87,.4,0,.77,.09,1.13,.27,.36,.18,.64,.44,.84,.79v-1.63c0-.18-.02-.38-.07-.59-.04-.21-.1-.41-.16-.58s-.12-.33-.18-.48c-.06-.14-.11-.26-.16-.34l-.08-.15v-.05l3.13-.33v7.65c0,.18,.01,.39,.04,.6,.03,.22,.06,.41,.1,.59,.04,.18,.08,.35,.13,.5,.04,.15,.08,.27,.11,.36,.03,.09,.04,.14,.04,.15v.05h-2.24s-.11-.17-.25-.39c-.14-.21-.23-.4-.28-.55-.48,.72-1.15,1.08-1.98,1.08-.71,0-1.34-.31-1.89-.92s-.82-1.5-.82-2.64,.25-1.93,.75-2.52Zm3.12,4.86c.22,0,.47-.07,.74-.2-.03-.13-.04-.28-.04-.44v-3.47c-.24-.15-.49-.23-.75-.23-.76,0-1.14,.67-1.14,2,0,1.56,.4,2.34,1.19,2.34Z"/>
    <path class="uuid-0d85379e-31d6-43eb-a0a5-fc1b5747018b" d="M279.5,303.23c.5-.58,1.12-.87,1.85-.87,.4,0,.77,.09,1.13,.27,.36,.18,.64,.44,.84,.79v-1.63c0-.18-.02-.38-.07-.59-.04-.21-.1-.41-.16-.58s-.12-.33-.18-.48c-.06-.14-.11-.26-.16-.34l-.08-.15v-.05l3.13-.33v7.65c0,.18,.01,.39,.04,.6,.03,.22,.06,.41,.1,.59,.04,.18,.08,.35,.13,.5,.04,.15,.08,.27,.11,.36,.03,.09,.04,.14,.04,.15v.05h-2.24s-.11-.17-.25-.39c-.14-.21-.23-.4-.28-.55-.48,.72-1.15,1.08-1.98,1.08-.71,0-1.34-.31-1.89-.92s-.82-1.5-.82-2.64,.25-1.93,.75-2.52Zm3.12,4.86c.22,0,.47-.07,.74-.2-.03-.13-.04-.28-.04-.44v-3.47c-.24-.15-.49-.23-.75-.23-.76,0-1.14,.67-1.14,2,0,1.56,.4,2.34,1.19,2.34Z"/>
    <path class="uuid-0d85379e-31d6-43eb-a0a5-fc1b5747018b" d="M287.87,299.53l2.52-.26v7.65c0,.18,.01,.39,.04,.6,.03,.22,.06,.41,.11,.59,.04,.18,.09,.35,.12,.5,.04,.15,.07,.27,.1,.36,.03,.09,.04,.14,.04,.15v.05h-3.3v-.05s.01-.06,.04-.15c.03-.09,.06-.21,.1-.36,.04-.15,.08-.32,.12-.5s.08-.38,.11-.59c.03-.21,.04-.42,.04-.6v-5.13c0-.18-.02-.38-.05-.6-.03-.22-.07-.41-.1-.58-.04-.17-.08-.33-.13-.47-.04-.15-.08-.26-.11-.35-.03-.09-.05-.14-.05-.14v-.05s.4-.05,.4-.05Z"/>
    <path class="uuid-0d85379e-31d6-43eb-a0a5-fc1b5747018b" d="M292.86,303.27c.65-.61,1.52-.91,2.6-.91,.6,0,1.12,.1,1.56,.3,.44,.2,.78,.47,1.01,.81,.23,.34,.4,.7,.51,1.07,.1,.37,.16,.77,.16,1.18h-4.07c.18,1.34,.81,2.01,1.91,2.01,.61,0,1.26-.19,1.94-.58l.05,.04c-.16,.52-.52,1.01-1.07,1.46s-1.25,.68-2.07,.68c-.42,0-.84-.07-1.24-.2s-.78-.34-1.13-.61c-.35-.27-.63-.64-.84-1.1-.21-.46-.32-.99-.32-1.58,0-1.09,.33-1.94,.99-2.56Zm1.7,1.6c0,.11,0,.29,.03,.51l1.68-.53c0-1.26-.28-1.89-.85-1.89s-.86,.6-.86,1.8v.11Z"/>
    <path class="uuid-0d85379e-31d6-43eb-a0a5-fc1b5747018b" d="M206.95,315.56v-.05h3.46v.05s-.01,.06-.04,.15c-.03,.09-.06,.21-.1,.36-.04,.15-.08,.32-.12,.49-.04,.18-.08,.38-.11,.59-.03,.22-.04,.42-.04,.6v4.99c0,.18,.01,.39,.04,.6,.03,.22,.06,.41,.11,.59,.04,.18,.08,.35,.12,.5,.04,.15,.07,.27,.1,.36,.03,.09,.04,.14,.04,.15v.05h-3.46v-.05s.01-.06,.04-.15c.03-.09,.06-.21,.1-.36,.04-.15,.08-.32,.13-.5,.04-.18,.08-.38,.1-.59,.03-.21,.04-.42,.04-.6v-4.99c0-.18-.01-.38-.04-.6-.03-.21-.06-.41-.1-.59-.04-.18-.09-.35-.13-.49-.04-.15-.07-.27-.1-.36-.03-.09-.04-.14-.04-.15Z"/>
    <path class="uuid-0d85379e-31d6-43eb-a0a5-fc1b5747018b" d="M211.94,324.97s.01-.06,.04-.15c.03-.09,.06-.21,.1-.36,.04-.15,.08-.32,.13-.5s.08-.38,.11-.59c.03-.21,.04-.42,.04-.6v-2.22c0-.18-.01-.39-.04-.6-.03-.21-.06-.41-.11-.59s-.09-.35-.13-.5c-.04-.15-.07-.27-.1-.36-.03-.09-.04-.14-.04-.15v-.05h2.89v1.12c.19-.33,.47-.62,.83-.85,.36-.23,.79-.35,1.28-.35,.63,0,1.16,.19,1.57,.59,.41,.39,.62,.93,.62,1.6v2.36c0,.18,.01,.39,.04,.6,.03,.22,.06,.41,.11,.59,.04,.18,.09,.35,.12,.5,.04,.15,.07,.27,.1,.36,.03,.09,.04,.14,.04,.15v.05h-3.3v-.05s.01-.06,.04-.15c.03-.09,.06-.21,.1-.36,.04-.15,.08-.32,.12-.5,.04-.18,.08-.38,.11-.59,.03-.21,.04-.42,.04-.6v-2.01c0-.68-.32-1.02-.95-1.04h-.05c-.25,0-.52,.07-.82,.2v2.85c0,.18,.01,.39,.04,.6,.03,.22,.06,.41,.1,.59,.04,.18,.09,.35,.13,.5,.04,.15,.07,.27,.1,.36,.03,.09,.04,.14,.04,.15v.05h-3.3v-.05Z"/>
    <path class="uuid-0d85379e-31d6-43eb-a0a5-fc1b5747018b" d="M221.7,319.12c.65-.61,1.52-.91,2.6-.91,.27,0,.56,.03,.87,.08s.55,.11,.75,.16c.19,.05,.42,.12,.67,.2,.25,.08,.41,.13,.47,.15l.04,2.31h-.07c-.34-.54-.77-1.05-1.27-1.55s-.96-.75-1.39-.75c-.64,0-.96,.64-.96,1.93v.11c.03,1.82,.69,2.73,1.98,2.73,.61,0,1.25-.19,1.94-.58l.05,.04c-.17,.53-.53,1.02-1.08,1.47-.55,.45-1.24,.67-2.07,.67-.33,0-.67-.04-.99-.13s-.64-.22-.95-.4-.58-.41-.81-.67c-.23-.26-.42-.59-.56-.99-.14-.4-.21-.83-.21-1.31,0-1.09,.33-1.94,.99-2.56Z"/>
    <path class="uuid-0d85379e-31d6-43eb-a0a5-fc1b5747018b" d="M229.68,319.06c.7-.57,1.57-.86,2.62-.86s1.92,.29,2.62,.86c.7,.58,1.05,1.43,1.05,2.57s-.36,2.03-1.06,2.63c-.71,.6-1.58,.91-2.61,.91s-1.91-.3-2.61-.91c-.7-.6-1.05-1.48-1.05-2.63s.35-2,1.04-2.58Zm1.73,2.58c0,1.95,.3,2.93,.89,2.93s.9-.98,.9-2.93-.3-2.84-.9-2.84-.89,.95-.89,2.84Z"/>
    <path class="uuid-0d85379e-31d6-43eb-a0a5-fc1b5747018b" d="M237.1,324.97s.01-.06,.04-.15c.03-.09,.06-.21,.1-.36,.04-.15,.08-.32,.13-.5,.04-.18,.08-.38,.1-.59,.03-.21,.04-.42,.04-.6v-2.22c0-.18-.01-.39-.04-.6-.03-.21-.06-.41-.1-.59-.04-.18-.09-.35-.13-.5-.04-.15-.07-.27-.1-.36-.03-.09-.04-.14-.04-.15v-.05h2.87v1.29c.54-.92,1.29-1.37,2.26-1.37,.49,0,.91,.12,1.25,.36,.34,.24,.57,.59,.71,1.05,.52-.94,1.28-1.41,2.27-1.41,.63,0,1.12,.19,1.49,.58s.55,.92,.55,1.61v2.36c0,.18,.01,.39,.04,.6,.03,.22,.06,.41,.11,.59s.09,.35,.13,.5c.04,.15,.07,.27,.1,.36,.03,.09,.04,.14,.04,.15v.05h-3.28v-.05s.01-.06,.04-.15c.03-.09,.06-.21,.1-.36,.04-.15,.08-.32,.12-.5s.08-.38,.11-.59c.03-.21,.04-.42,.04-.6v-2.01c0-.33-.1-.58-.3-.74-.2-.16-.46-.24-.77-.24-.23,0-.48,.04-.74,.13,.03,.16,.04,.32,.04,.49v2.36c0,.18,.01,.39,.04,.6,.03,.22,.06,.41,.11,.59s.09,.35,.13,.5c.04,.15,.07,.27,.1,.36,.03,.09,.04,.14,.04,.15v.05h-3.27v-.05s.01-.06,.04-.15c.03-.09,.06-.21,.1-.36,.04-.15,.08-.32,.12-.5s.08-.38,.11-.59c.03-.21,.04-.42,.04-.6v-2.01c0-.33-.1-.58-.31-.74-.21-.16-.47-.24-.79-.24-.26,0-.51,.05-.75,.15v2.84c0,.18,.01,.39,.04,.6,.03,.22,.06,.41,.11,.59,.04,.18,.09,.35,.12,.5,.04,.15,.07,.27,.1,.36,.03,.09,.04,.14,.04,.15v.05h-3.28v-.05Z"/>
    <path class="uuid-0d85379e-31d6-43eb-a0a5-fc1b5747018b" d="M251.06,319.12c.65-.61,1.52-.91,2.6-.91,.6,0,1.12,.1,1.56,.3,.44,.2,.78,.47,1.01,.81,.23,.34,.4,.7,.51,1.07,.1,.37,.16,.77,.16,1.18h-4.07c.18,1.34,.81,2.01,1.91,2.01,.61,0,1.26-.19,1.94-.58l.05,.04c-.16,.52-.52,1.01-1.07,1.46s-1.25,.68-2.07,.68c-.42,0-.84-.07-1.24-.2s-.78-.34-1.13-.61c-.35-.27-.63-.64-.84-1.1-.21-.46-.32-.99-.32-1.58,0-1.09,.33-1.94,.99-2.56Zm1.7,1.6c0,.11,0,.29,.03,.51l1.68-.53c0-1.26-.28-1.89-.85-1.89s-.86,.6-.86,1.8v.11Z"/>
  </g>
  <g>
    <path class="uuid-0d85379e-31d6-43eb-a0a5-fc1b5747018b" d="M341.98,299.66h3.46v.05s-.01,.06-.04,.15c-.03,.09-.06,.21-.11,.36-.04,.15-.09,.32-.13,.49-.04,.18-.07,.38-.1,.59-.03,.22-.04,.42-.04,.6v3.55c0,1.85,.69,2.77,2.06,2.77,.66,0,1.18-.23,1.55-.67s.56-1.12,.56-2.01v-2.52c0-.28-.03-.59-.09-.91s-.13-.62-.2-.89c-.08-.26-.16-.51-.24-.73-.08-.23-.15-.41-.2-.55-.06-.14-.09-.21-.09-.22v-.08h2.31v.08s-.03,.08-.09,.22c-.06,.14-.12,.32-.2,.55-.08,.23-.16,.47-.24,.73-.08,.27-.15,.56-.2,.89s-.09,.63-.09,.91v2.52c0,1.29-.32,2.23-.95,2.85-.63,.61-1.48,.92-2.55,.92-.5,0-.98-.07-1.42-.21s-.87-.36-1.27-.67c-.4-.3-.72-.74-.95-1.3-.23-.56-.35-1.23-.35-2v-3.24c0-.18-.01-.38-.04-.6-.03-.21-.06-.41-.1-.59-.04-.18-.08-.35-.13-.49-.04-.15-.08-.27-.11-.36-.03-.09-.04-.14-.04-.15v-.05Z"/>
    <path class="uuid-0d85379e-31d6-43eb-a0a5-fc1b5747018b" d="M351.81,311.61c.03-.1,.06-.22,.1-.37,.04-.15,.08-.32,.13-.5s.08-.38,.11-.59c.03-.22,.04-.42,.04-.6v-4.86c0-.18-.01-.39-.04-.6-.03-.21-.06-.41-.11-.59s-.09-.35-.13-.5c-.04-.15-.07-.27-.1-.36-.03-.09-.04-.14-.04-.15v-.05h2.89v.94c.2-.33,.48-.58,.83-.75,.35-.18,.72-.26,1.11-.26,.73,0,1.35,.29,1.85,.88,.5,.59,.75,1.42,.75,2.52s-.27,2.03-.82,2.64-1.18,.92-1.89,.92-1.35-.29-1.84-.88v1.12c0,.18,.01,.39,.04,.6,.03,.21,.06,.41,.1,.59,.04,.18,.09,.35,.13,.5,.04,.15,.07,.27,.1,.36,.03,.09,.04,.14,.04,.15v.05h-3.3v-.05s.01-.06,.04-.14Zm2.85-7.65v3.95c.23,.11,.45,.17,.67,.17,.79,0,1.19-.78,1.19-2.34,0-1.33-.38-2-1.14-2-.25,0-.49,.07-.73,.21Z"/>
    <path class="uuid-0d85379e-31d6-43eb-a0a5-fc1b5747018b" d="M360.43,311.61c.03-.1,.06-.22,.1-.37,.04-.15,.08-.32,.13-.5s.08-.38,.11-.59c.03-.22,.04-.42,.04-.6v-4.86c0-.18-.01-.39-.04-.6-.03-.21-.06-.41-.11-.59s-.09-.35-.13-.5c-.04-.15-.07-.27-.1-.36-.03-.09-.04-.14-.04-.15v-.05h2.89v.94c.2-.33,.48-.58,.83-.75,.35-.18,.72-.26,1.11-.26,.73,0,1.35,.29,1.85,.88,.5,.59,.75,1.42,.75,2.52s-.27,2.03-.82,2.64c-.55,.62-1.18,.92-1.89,.92s-1.35-.29-1.84-.88v1.12c0,.18,.01,.39,.04,.6,.03,.21,.06,.41,.11,.59,.04,.18,.09,.35,.13,.5,.04,.15,.07,.27,.1,.36,.03,.09,.04,.14,.04,.15v.05h-3.3v-.05s.01-.06,.04-.14Zm2.85-7.65v3.95c.23,.11,.45,.17,.67,.17,.79,0,1.19-.78,1.19-2.34,0-1.33-.38-2-1.14-2-.25,0-.49,.07-.73,.21Z"/>
    <path class="uuid-0d85379e-31d6-43eb-a0a5-fc1b5747018b" d="M370.21,303.27c.65-.61,1.52-.91,2.6-.91,.6,0,1.12,.1,1.56,.3,.44,.2,.78,.47,1.01,.81,.23,.34,.4,.7,.51,1.07,.1,.37,.16,.77,.16,1.18h-4.07c.18,1.34,.81,2.01,1.91,2.01,.61,0,1.26-.19,1.94-.58l.05,.04c-.16,.52-.52,1.01-1.07,1.46s-1.25,.68-2.07,.68c-.42,0-.84-.07-1.24-.2s-.78-.34-1.13-.61c-.35-.27-.63-.64-.84-1.1-.21-.46-.32-.99-.32-1.58,0-1.09,.33-1.94,.99-2.56Zm1.7,1.6c0,.11,0,.29,.03,.51l1.68-.53c0-1.26-.28-1.89-.85-1.89s-.86,.6-.86,1.8v.11Z"/>
    <path class="uuid-0d85379e-31d6-43eb-a0a5-fc1b5747018b" d="M377.29,302.49v-.05h2.89v1.44c.47-1.07,1.15-1.61,2.02-1.61,.26,0,.55,.05,.85,.14l-.4,2.62h-.07c-.56-.65-1.13-.98-1.69-.98-.24,0-.47,.06-.71,.17v2.69c0,.18,.01,.39,.04,.6,.03,.22,.06,.41,.11,.59s.09,.35,.13,.5c.04,.15,.07,.27,.1,.36,.03,.09,.04,.14,.04,.15v.05h-3.3v-.05s.01-.06,.04-.15c.03-.09,.06-.21,.1-.36,.04-.15,.08-.32,.13-.5,.04-.18,.08-.38,.1-.59,.03-.21,.04-.42,.04-.6v-2.22c0-.18-.01-.39-.04-.6-.03-.21-.06-.41-.1-.59-.04-.18-.09-.35-.13-.5-.04-.15-.07-.27-.1-.36-.03-.09-.04-.14-.04-.15Z"/>
    <path class="uuid-0d85379e-31d6-43eb-a0a5-fc1b5747018b" d="M387.51,309.17v-.08s.03-.08,.09-.23,.13-.32,.2-.55c.08-.23,.16-.47,.24-.74,.08-.27,.15-.56,.2-.89,.06-.33,.09-.63,.09-.91v-3.86c0-.18-.02-.38-.06-.6-.04-.21-.09-.41-.15-.59-.06-.18-.12-.35-.18-.49-.06-.15-.11-.27-.15-.36-.04-.09-.06-.14-.06-.15v-.05h3.17l2.46,5.92,2.14-5.92h3.05v.05s-.01,.06-.04,.15c-.03,.09-.06,.21-.11,.36-.04,.15-.09,.32-.12,.49-.04,.18-.07,.38-.1,.59-.03,.22-.04,.42-.04,.6v4.99c0,.18,.01,.39,.04,.6,.03,.22,.06,.41,.1,.59,.04,.18,.08,.35,.12,.5,.04,.15,.08,.27,.11,.36,.03,.09,.04,.14,.04,.15v.05h-3.46v-.05s.01-.06,.04-.15c.03-.09,.06-.21,.1-.36,.04-.15,.09-.32,.13-.5s.07-.38,.1-.59c.03-.21,.04-.42,.04-.6v-5.27l-2.71,7.53h-.73l-3.04-7.53c0,.06-.01,.15-.01,.28v3.86c0,.28,.03,.59,.09,.91,.06,.33,.12,.62,.2,.89,.08,.27,.16,.52,.24,.74,.08,.22,.15,.41,.2,.55s.09,.22,.09,.23v.08h-2.31Z"/>
    <path class="uuid-0d85379e-31d6-43eb-a0a5-fc1b5747018b" d="M400.12,308.96c.03-.09,.06-.21,.1-.36,.04-.15,.09-.32,.13-.5s.07-.38,.1-.59c.03-.21,.04-.42,.04-.6v-2.22c0-.18-.01-.39-.04-.6-.03-.21-.06-.41-.1-.59s-.08-.35-.13-.5c-.04-.15-.08-.27-.1-.36-.03-.09-.04-.14-.04-.15v-.05h2.89v4.48c0,.18,.01,.39,.04,.6,.03,.22,.06,.41,.1,.59s.08,.35,.13,.5c.04,.15,.08,.27,.1,.36,.03,.09,.04,.14,.04,.15v.05h-3.3v-.05s.01-.06,.04-.16Zm.44-9.6c.29-.28,.64-.42,1.06-.42s.77,.14,1.06,.43c.29,.29,.44,.63,.44,1.04s-.15,.75-.44,1.03c-.3,.29-.65,.44-1.06,.44s-.76-.14-1.05-.43c-.29-.29-.44-.63-.44-1.04s.14-.75,.44-1.04Z"/>
    <path class="uuid-0d85379e-31d6-43eb-a0a5-fc1b5747018b" d="M405.28,303.23c.5-.58,1.12-.87,1.85-.87,.4,0,.77,.09,1.13,.27,.36,.18,.64,.44,.84,.79v-1.63c0-.18-.02-.38-.07-.59-.04-.21-.1-.41-.16-.58s-.12-.33-.18-.48c-.06-.14-.11-.26-.16-.34l-.08-.15v-.05l3.13-.33v7.65c0,.18,.01,.39,.04,.6,.03,.22,.06,.41,.1,.59,.04,.18,.08,.35,.13,.5,.04,.15,.08,.27,.11,.36,.03,.09,.04,.14,.04,.15v.05h-2.24s-.11-.17-.25-.39c-.14-.21-.23-.4-.28-.55-.48,.72-1.15,1.08-1.98,1.08-.71,0-1.34-.31-1.89-.92s-.82-1.5-.82-2.64,.25-1.93,.75-2.52Zm3.12,4.86c.22,0,.47-.07,.74-.2-.03-.13-.04-.28-.04-.44v-3.47c-.24-.15-.49-.23-.75-.23-.76,0-1.14,.67-1.14,2,0,1.56,.4,2.34,1.19,2.34Z"/>
    <path class="uuid-0d85379e-31d6-43eb-a0a5-fc1b5747018b" d="M413.92,303.23c.5-.58,1.12-.87,1.85-.87,.4,0,.77,.09,1.13,.27,.36,.18,.64,.44,.84,.79v-1.63c0-.18-.02-.38-.07-.59-.04-.21-.1-.41-.16-.58s-.12-.33-.18-.48c-.06-.14-.11-.26-.16-.34l-.08-.15v-.05l3.13-.33v7.65c0,.18,.01,.39,.04,.6,.03,.22,.06,.41,.1,.59,.04,.18,.08,.35,.13,.5,.04,.15,.08,.27,.11,.36,.03,.09,.04,.14,.04,.15v.05h-2.24s-.11-.17-.25-.39c-.14-.21-.23-.4-.28-.55-.48,.72-1.15,1.08-1.98,1.08-.71,0-1.34-.31-1.89-.92s-.82-1.5-.82-2.64,.25-1.93,.75-2.52Zm3.12,4.86c.22,0,.47-.07,.74-.2-.03-.13-.04-.28-.04-.44v-3.47c-.24-.15-.49-.23-.75-.23-.76,0-1.14,.67-1.14,2,0,1.56,.4,2.34,1.19,2.34Z"/>
    <path class="uuid-0d85379e-31d6-43eb-a0a5-fc1b5747018b" d="M422.28,299.53l2.52-.26v7.65c0,.18,.01,.39,.04,.6,.03,.22,.06,.41,.11,.59,.04,.18,.09,.35,.12,.5,.04,.15,.07,.27,.1,.36,.03,.09,.04,.14,.04,.15v.05h-3.3v-.05s.01-.06,.04-.15c.03-.09,.06-.21,.1-.36,.04-.15,.08-.32,.12-.5s.08-.38,.11-.59c.03-.21,.04-.42,.04-.6v-5.13c0-.18-.02-.38-.05-.6-.03-.22-.07-.41-.1-.58-.04-.17-.08-.33-.13-.47-.04-.15-.08-.26-.11-.35-.03-.09-.05-.14-.05-.14v-.05s.4-.05,.4-.05Z"/>
    <path class="uuid-0d85379e-31d6-43eb-a0a5-fc1b5747018b" d="M427.27,303.27c.65-.61,1.52-.91,2.6-.91,.6,0,1.12,.1,1.56,.3,.44,.2,.78,.47,1.01,.81,.23,.34,.4,.7,.51,1.07,.1,.37,.16,.77,.16,1.18h-4.07c.18,1.34,.81,2.01,1.91,2.01,.61,0,1.26-.19,1.94-.58l.05,.04c-.16,.52-.52,1.01-1.07,1.46s-1.25,.68-2.07,.68c-.42,0-.84-.07-1.24-.2s-.78-.34-1.13-.61c-.35-.27-.63-.64-.84-1.1-.21-.46-.32-.99-.32-1.58,0-1.09,.33-1.94,.99-2.56Zm1.7,1.6c0,.11,0,.29,.03,.51l1.68-.53c0-1.26-.28-1.89-.85-1.89s-.86,.6-.86,1.8v.11Z"/>
    <path class="uuid-0d85379e-31d6-43eb-a0a5-fc1b5747018b" d="M342.07,315.56v-.05h3.46v.05s-.01,.06-.04,.15c-.03,.09-.06,.21-.1,.36-.04,.15-.08,.32-.12,.49-.04,.18-.08,.38-.11,.59-.03,.22-.04,.42-.04,.6v4.99c0,.18,.01,.39,.04,.6,.03,.22,.06,.41,.11,.59,.04,.18,.08,.35,.12,.5,.04,.15,.07,.27,.1,.36,.03,.09,.04,.14,.04,.15v.05h-3.46v-.05s.01-.06,.04-.15c.03-.09,.06-.21,.1-.36,.04-.15,.08-.32,.13-.5,.04-.18,.08-.38,.1-.59,.03-.21,.04-.42,.04-.6v-4.99c0-.18-.01-.38-.04-.6-.03-.21-.06-.41-.1-.59-.04-.18-.09-.35-.13-.49-.04-.15-.07-.27-.1-.36-.03-.09-.04-.14-.04-.15Z"/>
    <path class="uuid-0d85379e-31d6-43eb-a0a5-fc1b5747018b" d="M347.06,324.97s.01-.06,.04-.15c.03-.09,.06-.21,.1-.36,.04-.15,.08-.32,.13-.5s.08-.38,.11-.59c.03-.21,.04-.42,.04-.6v-2.22c0-.18-.01-.39-.04-.6-.03-.21-.06-.41-.11-.59s-.09-.35-.13-.5c-.04-.15-.07-.27-.1-.36-.03-.09-.04-.14-.04-.15v-.05h2.89v1.12c.19-.33,.47-.62,.83-.85,.36-.23,.79-.35,1.28-.35,.63,0,1.16,.19,1.57,.59,.41,.39,.62,.93,.62,1.6v2.36c0,.18,.01,.39,.04,.6,.03,.22,.06,.41,.11,.59,.04,.18,.09,.35,.12,.5,.04,.15,.07,.27,.1,.36,.03,.09,.04,.14,.04,.15v.05h-3.3v-.05s.01-.06,.04-.15c.03-.09,.06-.21,.1-.36,.04-.15,.08-.32,.12-.5,.04-.18,.08-.38,.11-.59,.03-.21,.04-.42,.04-.6v-2.01c0-.68-.32-1.02-.95-1.04h-.05c-.25,0-.52,.07-.82,.2v2.85c0,.18,.01,.39,.04,.6,.03,.22,.06,.41,.1,.59,.04,.18,.09,.35,.13,.5,.04,.15,.07,.27,.1,.36,.03,.09,.04,.14,.04,.15v.05h-3.3v-.05Z"/>
    <path class="uuid-0d85379e-31d6-43eb-a0a5-fc1b5747018b" d="M356.83,319.12c.65-.61,1.52-.91,2.6-.91,.27,0,.56,.03,.87,.08s.55,.11,.75,.16c.19,.05,.42,.12,.67,.2,.25,.08,.41,.13,.47,.15l.04,2.31h-.07c-.34-.54-.77-1.05-1.27-1.55s-.96-.75-1.39-.75c-.64,0-.96,.64-.96,1.93v.11c.03,1.82,.69,2.73,1.98,2.73,.61,0,1.25-.19,1.94-.58l.05,.04c-.17,.53-.53,1.02-1.08,1.47-.55,.45-1.24,.67-2.07,.67-.33,0-.67-.04-.99-.13s-.64-.22-.95-.4-.58-.41-.81-.67c-.23-.26-.42-.59-.56-.99-.14-.4-.21-.83-.21-1.31,0-1.09,.33-1.94,.99-2.56Z"/>
    <path class="uuid-0d85379e-31d6-43eb-a0a5-fc1b5747018b" d="M364.8,319.06c.7-.57,1.57-.86,2.62-.86s1.92,.29,2.62,.86c.7,.58,1.05,1.43,1.05,2.57s-.36,2.03-1.06,2.63c-.71,.6-1.58,.91-2.61,.91s-1.91-.3-2.61-.91c-.7-.6-1.05-1.48-1.05-2.63s.35-2,1.04-2.58Zm1.73,2.58c0,1.95,.3,2.93,.89,2.93s.9-.98,.9-2.93-.3-2.84-.9-2.84-.89,.95-.89,2.84Z"/>
    <path class="uuid-0d85379e-31d6-43eb-a0a5-fc1b5747018b" d="M372.23,324.97s.01-.06,.04-.15c.03-.09,.06-.21,.1-.36,.04-.15,.08-.32,.13-.5,.04-.18,.08-.38,.1-.59,.03-.21,.04-.42,.04-.6v-2.22c0-.18-.01-.39-.04-.6-.03-.21-.06-.41-.1-.59-.04-.18-.09-.35-.13-.5-.04-.15-.07-.27-.1-.36-.03-.09-.04-.14-.04-.15v-.05h2.87v1.29c.54-.92,1.29-1.37,2.26-1.37,.49,0,.91,.12,1.25,.36,.34,.24,.57,.59,.71,1.05,.52-.94,1.28-1.41,2.27-1.41,.63,0,1.12,.19,1.49,.58s.55,.92,.55,1.61v2.36c0,.18,.01,.39,.04,.6,.03,.22,.06,.41,.11,.59s.09,.35,.13,.5c.04,.15,.07,.27,.1,.36,.03,.09,.04,.14,.04,.15v.05h-3.28v-.05s.01-.06,.04-.15c.03-.09,.06-.21,.1-.36,.04-.15,.08-.32,.12-.5s.08-.38,.11-.59c.03-.21,.04-.42,.04-.6v-2.01c0-.33-.1-.58-.3-.74-.2-.16-.46-.24-.77-.24-.23,0-.48,.04-.74,.13,.03,.16,.04,.32,.04,.49v2.36c0,.18,.01,.39,.04,.6,.03,.22,.06,.41,.11,.59s.09,.35,.13,.5c.04,.15,.07,.27,.1,.36,.03,.09,.04,.14,.04,.15v.05h-3.27v-.05s.01-.06,.04-.15c.03-.09,.06-.21,.1-.36,.04-.15,.08-.32,.12-.5s.08-.38,.11-.59c.03-.21,.04-.42,.04-.6v-2.01c0-.33-.1-.58-.31-.74-.21-.16-.47-.24-.79-.24-.26,0-.51,.05-.75,.15v2.84c0,.18,.01,.39,.04,.6,.03,.22,.06,.41,.11,.59,.04,.18,.09,.35,.12,.5,.04,.15,.07,.27,.1,.36,.03,.09,.04,.14,.04,.15v.05h-3.28v-.05Z"/>
    <path class="uuid-0d85379e-31d6-43eb-a0a5-fc1b5747018b" d="M386.19,319.12c.65-.61,1.52-.91,2.6-.91,.6,0,1.12,.1,1.56,.3,.44,.2,.78,.47,1.01,.81,.23,.34,.4,.7,.51,1.07,.1,.37,.16,.77,.16,1.18h-4.07c.18,1.34,.81,2.01,1.91,2.01,.61,0,1.26-.19,1.94-.58l.05,.04c-.16,.52-.52,1.01-1.07,1.46s-1.25,.68-2.07,.68c-.42,0-.84-.07-1.24-.2s-.78-.34-1.13-.61c-.35-.27-.63-.64-.84-1.1-.21-.46-.32-.99-.32-1.58,0-1.09,.33-1.94,.99-2.56Zm1.7,1.6c0,.11,0,.29,.03,.51l1.68-.53c0-1.26-.28-1.89-.85-1.89s-.86,.6-.86,1.8v.11Z"/>
  </g>
  <g>
    <path class="uuid-0d85379e-31d6-43eb-a0a5-fc1b5747018b" d="M475.11,309.12s.01-.06,.04-.15c.03-.09,.06-.21,.1-.36,.04-.15,.08-.32,.13-.5,.04-.18,.08-.38,.1-.59,.03-.21,.04-.42,.04-.6v-4.99c0-.18-.01-.38-.04-.6-.03-.21-.06-.41-.1-.59-.04-.18-.09-.35-.13-.49-.04-.15-.07-.27-.1-.36-.03-.09-.04-.14-.04-.15v-.05h3.46v.05s-.01,.06-.04,.15c-.03,.09-.06,.21-.1,.36-.04,.15-.08,.32-.12,.49-.04,.18-.08,.38-.11,.59-.03,.22-.04,.42-.04,.6v2.18h2.92v-2.18c0-.18-.01-.38-.04-.6-.03-.21-.06-.41-.1-.59-.04-.18-.08-.35-.12-.49-.04-.15-.08-.27-.11-.36-.03-.09-.04-.14-.04-.15v-.05h3.46v.05s-.01,.06-.04,.15c-.03,.09-.06,.21-.11,.36-.04,.15-.08,.32-.12,.49-.04,.18-.07,.38-.1,.59-.03,.22-.04,.42-.04,.6v4.99c0,.18,.01,.39,.04,.6,.03,.22,.06,.41,.1,.59s.08,.35,.12,.5c.04,.15,.08,.27,.11,.36,.03,.09,.04,.14,.04,.15v.05h-3.46v-.05s.01-.06,.04-.15c.03-.09,.06-.21,.11-.36,.04-.15,.09-.32,.12-.5,.04-.18,.07-.38,.1-.59,.03-.21,.04-.42,.04-.6v-2.15h-2.92v2.15c0,.18,.01,.39,.04,.6,.03,.22,.06,.41,.11,.59,.04,.18,.08,.35,.12,.5,.04,.15,.07,.27,.1,.36,.03,.09,.04,.14,.04,.15v.05h-3.46v-.05Z"/>
    <path class="uuid-0d85379e-31d6-43eb-a0a5-fc1b5747018b" d="M485.72,308.96c.03-.09,.06-.21,.11-.36,.04-.15,.09-.32,.13-.5,.04-.18,.07-.38,.1-.59,.03-.21,.04-.42,.04-.6v-2.22c0-.18-.01-.39-.04-.6-.03-.21-.06-.41-.1-.59-.04-.18-.08-.35-.13-.5-.04-.15-.08-.27-.11-.36-.03-.09-.04-.14-.04-.15v-.05h2.89v4.48c0,.18,.01,.39,.04,.6,.03,.22,.06,.41,.1,.59s.08,.35,.12,.5c.04,.15,.08,.27,.11,.36,.03,.09,.04,.14,.04,.15v.05h-3.3v-.05s.01-.06,.04-.16Zm.44-9.6c.29-.28,.64-.42,1.06-.42s.77,.14,1.06,.43c.29,.29,.44,.63,.44,1.04s-.14,.75-.44,1.03c-.3,.29-.65,.44-1.06,.44s-.76-.14-1.05-.43-.44-.63-.44-1.04,.15-.75,.44-1.04Z"/>
    <path class="uuid-0d85379e-31d6-43eb-a0a5-fc1b5747018b" d="M490.25,304.72c0-.53,.17-.98,.5-1.35,.33-.37,.73-.63,1.18-.79,.45-.15,.91-.23,1.39-.23,.57,0,1.11,.1,1.6,.3,.35-1,.98-1.49,1.87-1.49,.13,0,.27,0,.4,.03l-.33,1.85-.04,.03c-.33-.18-.66-.28-1-.28-.17,0-.35,.02-.53,.07,.75,.43,1.12,1.05,1.12,1.86,0,.77-.32,1.36-.97,1.77-.65,.41-1.35,.62-2.12,.62-.37,0-.72-.05-1.04-.14-.34,.11-.52,.26-.52,.45,0,.11,.06,.17,.17,.2,.11,.03,.31,.05,.58,.05h2.18c.74,0,1.31,.17,1.7,.52,.39,.35,.59,.84,.59,1.47,0,1.43-1.2,2.15-3.6,2.15-.22,0-.43,0-.64-.02-.21-.01-.47-.05-.78-.1s-.58-.13-.81-.23c-.23-.09-.43-.23-.59-.42-.17-.19-.25-.41-.25-.67,0-.33,.12-.63,.36-.91-.25-.27-.37-.61-.37-1.04,0-.83,.5-1.37,1.51-1.61-1.02-.43-1.53-1.13-1.53-2.09Zm1.31,5.23c.14,.82,.81,1.23,2,1.23,.48,0,.93-.06,1.35-.16,.42-.11,.63-.29,.63-.54,0-.16-.07-.27-.22-.34s-.39-.1-.73-.1h-2.19c-.34,0-.61-.03-.83-.09Zm1.08-5.22c0,1.21,.22,1.81,.67,1.81s.7-.6,.7-1.81-.23-1.8-.7-1.8-.67,.6-.67,1.8Z"/>
    <path class="uuid-0d85379e-31d6-43eb-a0a5-fc1b5747018b" d="M498.16,299.58l.41-.05,2.52-.26v4.21c.53-.75,1.23-1.12,2.1-1.12,.63,0,1.16,.19,1.57,.59,.41,.39,.62,.93,.62,1.6v2.36c0,.18,.01,.39,.04,.6,.03,.22,.06,.41,.11,.59s.09,.35,.12,.5c.04,.15,.07,.27,.1,.36,.03,.09,.04,.14,.04,.15v.05h-3.3v-.05s.01-.06,.04-.15c.03-.09,.06-.21,.1-.36,.04-.15,.08-.32,.13-.5,.04-.18,.08-.38,.1-.59,.03-.21,.04-.42,.04-.6v-2.01c0-.69-.35-1.03-1.04-1.03-.23,0-.48,.04-.77,.13v2.91c0,.18,.01,.39,.04,.6,.03,.22,.06,.41,.1,.59s.08,.35,.13,.5c.04,.15,.08,.27,.1,.36,.03,.09,.04,.14,.04,.15v.05h-3.3v-.05s.01-.06,.04-.15c.03-.09,.06-.21,.1-.36,.04-.15,.09-.32,.13-.5s.07-.38,.1-.59c.03-.21,.04-.42,.04-.6v-5.13c0-.18-.02-.38-.05-.6-.03-.22-.07-.41-.11-.58-.04-.17-.09-.33-.12-.47-.04-.15-.08-.26-.11-.35-.03-.09-.05-.14-.05-.14v-.05Z"/>
    <path class="uuid-0d85379e-31d6-43eb-a0a5-fc1b5747018b" d="M507.92,303.27c.65-.61,1.52-.91,2.6-.91,.6,0,1.12,.1,1.56,.3,.44,.2,.78,.47,1.01,.81,.23,.34,.4,.7,.51,1.07,.1,.37,.16,.77,.16,1.18h-4.07c.18,1.34,.81,2.01,1.91,2.01,.61,0,1.26-.19,1.94-.58l.05,.04c-.16,.52-.52,1.01-1.07,1.46s-1.25,.68-2.07,.68c-.42,0-.84-.07-1.24-.2s-.78-.34-1.13-.61c-.35-.27-.63-.64-.84-1.1-.21-.46-.32-.99-.32-1.58,0-1.09,.33-1.94,.99-2.56Zm1.7,1.6c0,.11,0,.29,.03,.51l1.68-.53c0-1.26-.28-1.89-.85-1.89s-.86,.6-.86,1.8v.11Z"/>
    <path class="uuid-0d85379e-31d6-43eb-a0a5-fc1b5747018b" d="M515,302.49v-.05h2.89v1.44c.47-1.07,1.15-1.61,2.02-1.61,.26,0,.55,.05,.85,.14l-.4,2.62h-.07c-.56-.65-1.13-.98-1.69-.98-.24,0-.47,.06-.71,.17v2.69c0,.18,.01,.39,.04,.6,.03,.22,.06,.41,.11,.59s.09,.35,.13,.5c.04,.15,.07,.27,.1,.36,.03,.09,.04,.14,.04,.15v.05h-3.3v-.05s.01-.06,.04-.15c.03-.09,.06-.21,.1-.36,.04-.15,.08-.32,.13-.5,.04-.18,.08-.38,.1-.59,.03-.21,.04-.42,.04-.6v-2.22c0-.18-.01-.39-.04-.6-.03-.21-.06-.41-.1-.59-.04-.18-.09-.35-.13-.5-.04-.15-.07-.27-.1-.36-.03-.09-.04-.14-.04-.15Z"/>
    <path class="uuid-0d85379e-31d6-43eb-a0a5-fc1b5747018b" d="M525.52,299.71v-.05h3.46v.05s-.01,.06-.04,.15c-.03,.09-.06,.21-.1,.36-.04,.15-.08,.32-.13,.49-.04,.18-.08,.38-.1,.59-.03,.22-.04,.42-.04,.6v4.99c0,.18,.01,.39,.04,.6,.03,.22,.06,.41,.1,.59s.09,.35,.13,.5c.04,.15,.07,.27,.1,.36,.03,.09,.04,.14,.04,.15v.05h-3.46v-.05s.01-.06,.04-.15c.03-.09,.06-.21,.1-.36,.04-.15,.08-.32,.12-.5s.08-.38,.11-.59c.03-.21,.04-.42,.04-.6v-4.99c0-.18-.01-.38-.04-.6-.03-.21-.06-.41-.11-.59-.04-.18-.09-.35-.12-.49-.04-.15-.07-.27-.1-.36-.03-.09-.04-.14-.04-.15Z"/>
    <path class="uuid-0d85379e-31d6-43eb-a0a5-fc1b5747018b" d="M530.51,309.12s.01-.06,.04-.15c.03-.09,.06-.21,.1-.36,.04-.15,.08-.32,.13-.5,.04-.18,.08-.38,.1-.59,.03-.21,.04-.42,.04-.6v-2.22c0-.18-.01-.39-.04-.6-.03-.21-.06-.41-.1-.59-.04-.18-.09-.35-.13-.5-.04-.15-.07-.27-.1-.36-.03-.09-.04-.14-.04-.15v-.05h2.89v1.12c.19-.33,.47-.62,.83-.85s.79-.35,1.28-.35c.63,0,1.16,.19,1.57,.59,.41,.39,.62,.93,.62,1.6v2.36c0,.18,.01,.39,.04,.6,.03,.22,.06,.41,.1,.59,.04,.18,.09,.35,.13,.5,.04,.15,.07,.27,.1,.36,.03,.09,.04,.14,.04,.15v.05h-3.3v-.05s.01-.06,.04-.15c.03-.09,.06-.21,.1-.36,.04-.15,.08-.32,.12-.5s.08-.38,.11-.59c.03-.21,.04-.42,.04-.6v-2.01c0-.68-.32-1.02-.95-1.04h-.05c-.25,0-.52,.07-.82,.2v2.85c0,.18,.01,.39,.04,.6,.03,.22,.06,.41,.11,.59s.09,.35,.13,.5c.04,.15,.07,.27,.1,.36,.03,.09,.04,.14,.04,.15v.05h-3.3v-.05Z"/>
    <path class="uuid-0d85379e-31d6-43eb-a0a5-fc1b5747018b" d="M540.27,303.27c.65-.61,1.52-.91,2.6-.91,.27,0,.56,.03,.87,.08s.55,.11,.75,.16c.19,.05,.42,.12,.67,.2,.25,.08,.41,.13,.47,.15l.04,2.31h-.07c-.34-.54-.77-1.05-1.27-1.55s-.96-.75-1.39-.75c-.64,0-.96,.64-.96,1.93v.11c.03,1.82,.69,2.73,1.98,2.73,.61,0,1.26-.19,1.94-.58l.05,.04c-.17,.53-.53,1.02-1.08,1.47-.55,.45-1.24,.67-2.07,.67-.33,0-.67-.04-.99-.13s-.64-.22-.95-.4c-.31-.18-.58-.41-.81-.67s-.42-.59-.56-.99c-.14-.4-.21-.83-.21-1.31,0-1.09,.33-1.94,.99-2.56Z"/>
    <path class="uuid-0d85379e-31d6-43eb-a0a5-fc1b5747018b" d="M548.25,303.21c.7-.57,1.57-.86,2.62-.86s1.92,.29,2.62,.86c.7,.58,1.05,1.43,1.05,2.57s-.36,2.03-1.06,2.63c-.71,.6-1.58,.91-2.61,.91s-1.91-.3-2.61-.91c-.7-.6-1.05-1.48-1.05-2.63s.35-2,1.04-2.58Zm1.73,2.58c0,1.95,.3,2.93,.89,2.93s.9-.98,.9-2.93-.3-2.84-.9-2.84-.89,.95-.89,2.84Z"/>
    <path class="uuid-0d85379e-31d6-43eb-a0a5-fc1b5747018b" d="M555.67,309.12s.01-.06,.04-.15c.03-.09,.06-.21,.1-.36,.04-.15,.08-.32,.13-.5,.04-.18,.08-.38,.1-.59,.03-.21,.04-.42,.04-.6v-2.22c0-.18-.01-.39-.04-.6-.03-.21-.06-.41-.1-.59-.04-.18-.09-.35-.13-.5-.04-.15-.07-.27-.1-.36-.03-.09-.04-.14-.04-.15v-.05h2.87v1.29c.54-.92,1.29-1.37,2.26-1.37,.49,0,.91,.12,1.25,.36,.34,.24,.57,.59,.71,1.05,.52-.94,1.28-1.41,2.27-1.41,.63,0,1.12,.19,1.49,.58s.55,.92,.55,1.61v2.36c0,.18,.01,.39,.04,.6,.03,.22,.06,.41,.11,.59s.09,.35,.13,.5c.04,.15,.07,.27,.1,.36,.03,.09,.04,.14,.04,.15v.05h-3.28v-.05s.01-.06,.04-.15c.03-.09,.06-.21,.1-.36,.04-.15,.08-.32,.12-.5s.08-.38,.11-.59c.03-.21,.04-.42,.04-.6v-2.01c0-.33-.1-.58-.3-.74-.2-.16-.46-.24-.77-.24-.23,0-.48,.04-.74,.13,.03,.16,.04,.32,.04,.49v2.36c0,.18,.01,.39,.04,.6,.03,.22,.06,.41,.11,.59s.09,.35,.13,.5c.04,.15,.07,.27,.1,.36,.03,.09,.04,.14,.04,.15v.05h-3.27v-.05s.01-.06,.04-.15c.03-.09,.06-.21,.1-.36,.04-.15,.08-.32,.12-.5s.08-.38,.11-.59c.03-.21,.04-.42,.04-.6v-2.01c0-.33-.1-.58-.31-.74-.21-.16-.47-.24-.79-.24-.26,0-.51,.05-.75,.15v2.84c0,.18,.01,.39,.04,.6,.03,.22,.06,.41,.11,.59,.04,.18,.09,.35,.12,.5,.04,.15,.07,.27,.1,.36,.03,.09,.04,.14,.04,.15v.05h-3.28v-.05Z"/>
    <path class="uuid-0d85379e-31d6-43eb-a0a5-fc1b5747018b" d="M569.63,303.27c.65-.61,1.52-.91,2.6-.91,.6,0,1.12,.1,1.56,.3,.44,.2,.78,.47,1.01,.81,.23,.34,.4,.7,.51,1.07,.1,.37,.16,.77,.16,1.18h-4.07c.18,1.34,.81,2.01,1.91,2.01,.61,0,1.26-.19,1.94-.58l.05,.04c-.16,.52-.52,1.01-1.07,1.46s-1.25,.68-2.07,.68c-.42,0-.84-.07-1.24-.2s-.78-.34-1.13-.61c-.35-.27-.63-.64-.84-1.1-.21-.46-.32-.99-.32-1.58,0-1.09,.33-1.94,.99-2.56Zm1.7,1.6c0,.11,0,.29,.03,.51l1.68-.53c0-1.26-.28-1.89-.85-1.89s-.86,.6-.86,1.8v.11Z"/>
    <path class="uuid-0d85379e-31d6-43eb-a0a5-fc1b5747018b" d="M475.07,325.02v-.08s.03-.08,.09-.23c.06-.14,.12-.32,.2-.55,.08-.23,.16-.47,.24-.74,.08-.27,.15-.56,.2-.89,.06-.33,.09-.63,.09-.91v-3.86c0-.18-.02-.38-.06-.6-.04-.21-.09-.41-.15-.59-.06-.18-.12-.35-.18-.49-.06-.15-.11-.27-.15-.36-.04-.09-.06-.14-.06-.15v-.05h3.17l4.24,6.27v-2.89c0-.28-.03-.59-.09-.91s-.12-.62-.2-.89c-.08-.26-.16-.51-.24-.73-.08-.23-.15-.41-.2-.55-.06-.14-.09-.21-.09-.22v-.08h2.31v.08s-.03,.08-.09,.22c-.06,.14-.13,.32-.2,.55s-.16,.47-.24,.73c-.08,.27-.15,.56-.2,.89s-.09,.63-.09,.91v6.13h-1.65l-5.15-7.54v4.15c0,.28,.03,.59,.09,.91,.06,.33,.13,.62,.2,.89,.08,.27,.16,.52,.24,.74,.08,.22,.15,.41,.2,.55,.06,.14,.08,.22,.08,.23v.08h-2.31Z"/>
    <path class="uuid-0d85379e-31d6-43eb-a0a5-fc1b5747018b" d="M486.15,319.06c.7-.57,1.57-.86,2.62-.86s1.92,.29,2.62,.86c.7,.58,1.05,1.43,1.05,2.57s-.35,2.03-1.06,2.63c-.71,.6-1.58,.91-2.61,.91s-1.91-.3-2.61-.91c-.7-.6-1.05-1.48-1.05-2.63s.35-2,1.04-2.58Zm1.73,2.58c0,1.95,.3,2.93,.88,2.93s.9-.98,.9-2.93-.3-2.84-.9-2.84-.88,.95-.88,2.84Z"/>
    <path class="uuid-0d85379e-31d6-43eb-a0a5-fc1b5747018b" d="M493.58,324.97s.01-.06,.04-.15c.03-.09,.06-.21,.1-.36,.04-.15,.08-.32,.12-.5,.04-.18,.08-.38,.11-.59,.03-.21,.04-.42,.04-.6v-2.22c0-.18-.01-.39-.04-.6-.03-.21-.06-.41-.11-.59-.04-.18-.08-.35-.12-.5-.04-.15-.07-.27-.1-.36-.03-.09-.04-.14-.04-.15v-.05h2.89v1.12c.19-.33,.47-.62,.83-.85s.79-.35,1.28-.35c.63,0,1.16,.19,1.57,.59,.42,.39,.62,.93,.62,1.6v2.36c0,.18,.01,.39,.04,.6,.03,.22,.06,.41,.1,.59,.05,.18,.09,.35,.13,.5,.04,.15,.07,.27,.1,.36,.03,.09,.04,.14,.04,.15v.05h-3.3v-.05s.01-.06,.04-.15c.03-.09,.06-.21,.1-.36,.04-.15,.08-.32,.13-.5,.04-.18,.08-.38,.11-.59,.03-.21,.04-.42,.04-.6v-2.01c0-.68-.32-1.02-.95-1.04h-.05c-.25,0-.52,.07-.82,.2v2.85c0,.18,.01,.39,.04,.6,.03,.22,.06,.41,.11,.59,.05,.18,.09,.35,.13,.5,.04,.15,.07,.27,.1,.36,.03,.09,.04,.14,.04,.15v.05h-3.3v-.05Z"/>
    <path class="uuid-0d85379e-31d6-43eb-a0a5-fc1b5747018b" d="M506.21,321.4v-.66h5.41v.66h-5.41Z"/>
    <path class="uuid-0d85379e-31d6-43eb-a0a5-fc1b5747018b" d="M518.04,316.73c.88-.9,1.99-1.35,3.34-1.35s2.45,.45,3.34,1.35c.89,.9,1.33,2.08,1.33,3.53s-.44,2.64-1.33,3.55c-.88,.9-2,1.35-3.34,1.35s-2.46-.45-3.34-1.35c-.88-.9-1.32-2.09-1.32-3.55s.44-2.64,1.32-3.54Zm1.62,3.57c0,.62,.05,1.23,.15,1.84s.29,1.17,.56,1.67c.27,.5,.61,.75,1,.75s.73-.26,1-.77c.27-.51,.46-1.08,.56-1.7,.1-.62,.15-1.24,.15-1.86s-.05-1.22-.15-1.83c-.1-.61-.29-1.17-.56-1.67-.27-.5-.61-.75-1-.75s-.73,.26-1,.77c-.27,.51-.46,1.08-.56,1.7s-.15,1.24-.15,1.84Z"/>
    <path class="uuid-0d85379e-31d6-43eb-a0a5-fc1b5747018b" d="M527.46,315.56v-.05h7.26v2.87h-.07s-.07-.08-.19-.23c-.12-.15-.28-.34-.48-.56-.2-.22-.41-.44-.64-.66-.23-.22-.48-.41-.77-.56-.28-.15-.55-.23-.79-.23h-1.28v3.78h.12c.25,0,.51-.03,.79-.08,.28-.06,.54-.13,.77-.2,.23-.08,.44-.16,.64-.24,.2-.08,.36-.15,.48-.2s.18-.09,.19-.09h.07v2.17h-.07s-.07-.03-.19-.08-.28-.13-.48-.2c-.2-.08-.41-.16-.64-.24s-.48-.15-.77-.2c-.28-.06-.55-.09-.79-.09h-.12v3.96h1.32c.25,0,.51-.08,.79-.23,.28-.15,.54-.34,.77-.56,.23-.22,.44-.44,.64-.67,.2-.22,.36-.41,.47-.57,.12-.15,.18-.23,.19-.23h.07v2.88h-7.3v-.05s.01-.06,.04-.15c.03-.09,.06-.21,.1-.36,.04-.15,.08-.32,.13-.5s.08-.38,.11-.59c.03-.21,.04-.42,.04-.6v-4.99c0-.18-.01-.38-.04-.6-.03-.21-.06-.41-.11-.59-.04-.18-.09-.35-.13-.49-.04-.15-.07-.27-.1-.36-.03-.09-.04-.14-.04-.15Z"/>
    <path class="uuid-0d85379e-31d6-43eb-a0a5-fc1b5747018b" d="M537.52,316.73c.89-.9,2.03-1.35,3.42-1.35,.77,0,1.89,.17,3.37,.52v2.89h-.08c-.26-.38-.47-.69-.64-.92s-.4-.52-.68-.85-.56-.57-.83-.73c-.27-.16-.54-.25-.81-.25-.58,0-1.08,.4-1.51,1.2s-.64,1.81-.64,3.04,.21,2.22,.64,3.03,.93,1.2,1.51,1.2c.45,0,.91-.25,1.38-.73,.47-.49,1-1.17,1.58-2.04h.08v2.92c-1.45,.35-2.61,.53-3.47,.53-1.34,0-2.45-.45-3.34-1.35-.88-.9-1.33-2.09-1.33-3.55s.45-2.65,1.35-3.55Z"/>
    <path class="uuid-0d85379e-31d6-43eb-a0a5-fc1b5747018b" d="M546.03,324.81c.03-.09,.06-.21,.1-.36,.04-.15,.08-.32,.13-.5s.08-.38,.11-.59c.03-.21,.04-.42,.04-.6v-4.99c0-.18-.01-.38-.04-.6-.03-.21-.06-.41-.11-.59-.04-.18-.09-.35-.13-.49-.04-.15-.07-.27-.1-.36-.03-.09-.04-.14-.04-.15v-.05h4.16c1.34,0,2.45,.44,3.34,1.31,.88,.87,1.33,2.02,1.33,3.43s-.44,2.61-1.33,3.47c-.89,.86-2,1.29-3.34,1.29h-4.16v-.05s.01-.06,.04-.16Zm3.32-.4c.46,0,.86-.12,1.2-.36s.61-.56,.79-.97,.32-.85,.4-1.32c.08-.47,.13-.97,.13-1.51s-.04-1.01-.13-1.47c-.08-.46-.22-.9-.4-1.32s-.45-.75-.79-.99-.74-.36-1.2-.36h-.3v8.31h.3Z"/>
  </g>
  <g>
    <path class="uuid-0d85379e-31d6-43eb-a0a5-fc1b5747018b" d="M609.5,309.12s.01-.06,.04-.15c.03-.09,.06-.21,.1-.36,.04-.15,.08-.32,.12-.5s.08-.38,.11-.59c.03-.21,.04-.42,.04-.6v-4.99c0-.18-.01-.38-.04-.6-.03-.21-.06-.41-.11-.59-.04-.18-.09-.35-.12-.49-.04-.15-.07-.27-.1-.36-.03-.09-.04-.14-.04-.15v-.05h3.46v.05s-.01,.06-.04,.15c-.03,.09-.06,.21-.1,.36-.04,.15-.08,.32-.13,.49-.04,.18-.08,.38-.11,.59-.03,.22-.04,.42-.04,.6v2.18h2.92v-2.18c0-.18-.01-.38-.04-.6-.03-.21-.06-.41-.1-.59-.04-.18-.08-.35-.13-.49-.04-.15-.08-.27-.11-.36-.03-.09-.04-.14-.04-.15v-.05h3.46v.05s-.01,.06-.04,.15c-.03,.09-.06,.21-.11,.36-.04,.15-.09,.32-.13,.49-.04,.18-.07,.38-.1,.59-.03,.22-.04,.42-.04,.6v4.99c0,.18,.01,.39,.04,.6,.03,.22,.06,.41,.1,.59,.04,.18,.08,.35,.13,.5,.04,.15,.08,.27,.11,.36,.03,.09,.04,.14,.04,.15v.05h-3.46v-.05s.01-.06,.04-.15c.03-.09,.06-.21,.11-.36,.04-.15,.09-.32,.13-.5,.04-.18,.07-.38,.1-.59,.03-.21,.04-.42,.04-.6v-2.15h-2.92v2.15c0,.18,.01,.39,.04,.6,.03,.22,.06,.41,.11,.59,.04,.18,.09,.35,.13,.5,.04,.15,.07,.27,.1,.36,.03,.09,.04,.14,.04,.15v.05h-3.46v-.05Z"/>
    <path class="uuid-0d85379e-31d6-43eb-a0a5-fc1b5747018b" d="M620.11,308.96c.03-.09,.06-.21,.11-.36,.04-.15,.09-.32,.12-.5,.04-.18,.07-.38,.1-.59,.03-.21,.04-.42,.04-.6v-2.22c0-.18-.01-.39-.04-.6-.03-.21-.06-.41-.1-.59-.04-.18-.08-.35-.12-.5-.04-.15-.08-.27-.11-.36-.03-.09-.04-.14-.04-.15v-.05h2.89v4.48c0,.18,.01,.39,.04,.6,.03,.22,.06,.41,.1,.59,.04,.18,.08,.35,.13,.5,.04,.15,.08,.27,.11,.36,.03,.09,.04,.14,.04,.15v.05h-3.3v-.05s.01-.06,.04-.16Zm.44-9.6c.29-.28,.64-.42,1.06-.42s.77,.14,1.06,.43c.29,.29,.44,.63,.44,1.04s-.15,.75-.44,1.03c-.3,.29-.65,.44-1.06,.44s-.76-.14-1.05-.43c-.3-.29-.44-.63-.44-1.04s.14-.75,.44-1.04Z"/>
    <path class="uuid-0d85379e-31d6-43eb-a0a5-fc1b5747018b" d="M624.64,304.72c0-.53,.17-.98,.5-1.35,.34-.37,.73-.63,1.18-.79,.45-.15,.91-.23,1.39-.23,.57,0,1.11,.1,1.6,.3,.35-1,.98-1.49,1.88-1.49,.13,0,.27,0,.4,.03l-.33,1.85-.04,.03c-.33-.18-.66-.28-1-.28-.17,0-.35,.02-.53,.07,.75,.43,1.12,1.05,1.12,1.86,0,.77-.32,1.36-.97,1.77-.65,.41-1.35,.62-2.12,.62-.37,0-.72-.05-1.04-.14-.34,.11-.51,.26-.51,.45,0,.11,.06,.17,.17,.2,.11,.03,.31,.05,.58,.05h2.18c.74,0,1.31,.17,1.7,.52,.39,.35,.59,.84,.59,1.47,0,1.43-1.2,2.15-3.61,2.15-.22,0-.43,0-.64-.02-.21-.01-.47-.05-.78-.1s-.58-.13-.81-.23c-.23-.09-.43-.23-.59-.42-.17-.19-.25-.41-.25-.67,0-.33,.12-.63,.36-.91-.25-.27-.37-.61-.37-1.04,0-.83,.5-1.37,1.5-1.61-1.02-.43-1.53-1.13-1.53-2.09Zm1.31,5.23c.14,.82,.81,1.23,1.99,1.23,.48,0,.94-.06,1.35-.16,.42-.11,.63-.29,.63-.54,0-.16-.07-.27-.22-.34-.14-.07-.39-.1-.73-.1h-2.19c-.33,0-.61-.03-.83-.09Zm1.08-5.22c0,1.21,.23,1.81,.67,1.81s.7-.6,.7-1.81-.23-1.8-.7-1.8-.67,.6-.67,1.8Z"/>
    <path class="uuid-0d85379e-31d6-43eb-a0a5-fc1b5747018b" d="M632.55,299.58l.41-.05,2.52-.26v4.21c.53-.75,1.23-1.12,2.1-1.12,.63,0,1.16,.19,1.57,.59,.41,.39,.62,.93,.62,1.6v2.36c0,.18,.01,.39,.04,.6,.03,.22,.06,.41,.11,.59s.09,.35,.12,.5c.04,.15,.07,.27,.1,.36,.03,.09,.04,.14,.04,.15v.05h-3.3v-.05s.01-.06,.04-.15c.03-.09,.06-.21,.1-.36,.04-.15,.08-.32,.13-.5,.04-.18,.08-.38,.1-.59,.03-.21,.04-.42,.04-.6v-2.01c0-.69-.35-1.03-1.04-1.03-.23,0-.48,.04-.77,.13v2.91c0,.18,.01,.39,.04,.6,.03,.22,.06,.41,.1,.59s.08,.35,.13,.5c.04,.15,.08,.27,.1,.36,.03,.09,.04,.14,.04,.15v.05h-3.3v-.05s.01-.06,.04-.15c.03-.09,.06-.21,.1-.36,.04-.15,.09-.32,.13-.5s.07-.38,.1-.59c.03-.21,.04-.42,.04-.6v-5.13c0-.18-.02-.38-.05-.6-.03-.22-.07-.41-.11-.58-.04-.17-.09-.33-.12-.47-.04-.15-.08-.26-.11-.35-.03-.09-.05-.14-.05-.14v-.05Z"/>
    <path class="uuid-0d85379e-31d6-43eb-a0a5-fc1b5747018b" d="M642.31,303.27c.65-.61,1.52-.91,2.6-.91,.6,0,1.12,.1,1.56,.3,.44,.2,.78,.47,1.01,.81,.23,.34,.4,.7,.51,1.07,.1,.37,.16,.77,.16,1.18h-4.07c.18,1.34,.81,2.01,1.91,2.01,.61,0,1.26-.19,1.94-.58l.05,.04c-.16,.52-.52,1.01-1.07,1.46s-1.25,.68-2.07,.68c-.42,0-.84-.07-1.24-.2s-.78-.34-1.13-.61c-.35-.27-.63-.64-.84-1.1-.21-.46-.32-.99-.32-1.58,0-1.09,.33-1.94,.99-2.56Zm1.7,1.6c0,.11,0,.29,.03,.51l1.68-.53c0-1.26-.28-1.89-.85-1.89s-.86,.6-.86,1.8v.11Z"/>
    <path class="uuid-0d85379e-31d6-43eb-a0a5-fc1b5747018b" d="M649.39,302.49v-.05h2.89v1.44c.47-1.07,1.15-1.61,2.02-1.61,.26,0,.55,.05,.85,.14l-.4,2.62h-.07c-.56-.65-1.13-.98-1.69-.98-.24,0-.47,.06-.71,.17v2.69c0,.18,.01,.39,.04,.6,.03,.22,.06,.41,.11,.59s.09,.35,.13,.5c.04,.15,.07,.27,.1,.36,.03,.09,.04,.14,.04,.15v.05h-3.3v-.05s.01-.06,.04-.15c.03-.09,.06-.21,.1-.36,.04-.15,.08-.32,.13-.5,.04-.18,.08-.38,.1-.59,.03-.21,.04-.42,.04-.6v-2.22c0-.18-.01-.39-.04-.6-.03-.21-.06-.41-.1-.59-.04-.18-.09-.35-.13-.5-.04-.15-.07-.27-.1-.36-.03-.09-.04-.14-.04-.15Z"/>
    <path class="uuid-0d85379e-31d6-43eb-a0a5-fc1b5747018b" d="M659.9,299.71v-.05h3.46v.05s-.01,.06-.04,.15c-.03,.09-.06,.21-.1,.36-.04,.15-.08,.32-.13,.49-.04,.18-.08,.38-.1,.59-.03,.22-.04,.42-.04,.6v4.99c0,.18,.01,.39,.04,.6,.03,.22,.06,.41,.1,.59s.09,.35,.13,.5c.04,.15,.07,.27,.1,.36,.03,.09,.04,.14,.04,.15v.05h-3.46v-.05s.01-.06,.04-.15c.03-.09,.06-.21,.1-.36,.04-.15,.08-.32,.12-.5s.08-.38,.11-.59c.03-.21,.04-.42,.04-.6v-4.99c0-.18-.01-.38-.04-.6-.03-.21-.06-.41-.11-.59-.04-.18-.09-.35-.12-.49-.04-.15-.07-.27-.1-.36-.03-.09-.04-.14-.04-.15Z"/>
    <path class="uuid-0d85379e-31d6-43eb-a0a5-fc1b5747018b" d="M664.9,309.12s.01-.06,.04-.15c.03-.09,.06-.21,.1-.36,.04-.15,.08-.32,.13-.5,.04-.18,.08-.38,.1-.59,.03-.21,.04-.42,.04-.6v-2.22c0-.18-.01-.39-.04-.6-.03-.21-.06-.41-.1-.59-.04-.18-.09-.35-.13-.5-.04-.15-.07-.27-.1-.36-.03-.09-.04-.14-.04-.15v-.05h2.89v1.12c.19-.33,.47-.62,.83-.85s.79-.35,1.28-.35c.63,0,1.16,.19,1.57,.59,.41,.39,.62,.93,.62,1.6v2.36c0,.18,.01,.39,.04,.6,.03,.22,.06,.41,.1,.59,.04,.18,.09,.35,.13,.5,.04,.15,.07,.27,.1,.36,.03,.09,.04,.14,.04,.15v.05h-3.3v-.05s.01-.06,.04-.15c.03-.09,.06-.21,.1-.36,.04-.15,.08-.32,.12-.5s.08-.38,.11-.59c.03-.21,.04-.42,.04-.6v-2.01c0-.68-.32-1.02-.95-1.04h-.05c-.25,0-.52,.07-.82,.2v2.85c0,.18,.01,.39,.04,.6,.03,.22,.06,.41,.11,.59s.09,.35,.13,.5c.04,.15,.07,.27,.1,.36,.03,.09,.04,.14,.04,.15v.05h-3.3v-.05Z"/>
    <path class="uuid-0d85379e-31d6-43eb-a0a5-fc1b5747018b" d="M674.66,303.27c.65-.61,1.52-.91,2.6-.91,.27,0,.56,.03,.87,.08s.55,.11,.75,.16c.19,.05,.42,.12,.67,.2,.25,.08,.41,.13,.47,.15l.04,2.31h-.07c-.34-.54-.77-1.05-1.27-1.55s-.96-.75-1.39-.75c-.64,0-.96,.64-.96,1.93v.11c.03,1.82,.69,2.73,1.98,2.73,.61,0,1.26-.19,1.94-.58l.05,.04c-.17,.53-.53,1.02-1.08,1.47-.55,.45-1.24,.67-2.07,.67-.33,0-.67-.04-.99-.13s-.64-.22-.95-.4c-.31-.18-.58-.41-.81-.67s-.42-.59-.56-.99c-.14-.4-.21-.83-.21-1.31,0-1.09,.33-1.94,.99-2.56Z"/>
    <path class="uuid-0d85379e-31d6-43eb-a0a5-fc1b5747018b" d="M682.64,303.21c.7-.57,1.57-.86,2.62-.86s1.92,.29,2.62,.86c.7,.58,1.05,1.43,1.05,2.57s-.36,2.03-1.06,2.63c-.71,.6-1.58,.91-2.61,.91s-1.91-.3-2.61-.91c-.7-.6-1.05-1.48-1.05-2.63s.35-2,1.04-2.58Zm1.73,2.58c0,1.95,.3,2.93,.89,2.93s.9-.98,.9-2.93-.3-2.84-.9-2.84-.89,.95-.89,2.84Z"/>
    <path class="uuid-0d85379e-31d6-43eb-a0a5-fc1b5747018b" d="M690.06,309.12s.01-.06,.04-.15c.03-.09,.06-.21,.1-.36,.04-.15,.08-.32,.13-.5,.04-.18,.08-.38,.1-.59,.03-.21,.04-.42,.04-.6v-2.22c0-.18-.01-.39-.04-.6-.03-.21-.06-.41-.1-.59-.04-.18-.09-.35-.13-.5-.04-.15-.07-.27-.1-.36-.03-.09-.04-.14-.04-.15v-.05h2.87v1.29c.54-.92,1.29-1.37,2.26-1.37,.49,0,.91,.12,1.25,.36,.34,.24,.57,.59,.71,1.05,.52-.94,1.28-1.41,2.27-1.41,.63,0,1.12,.19,1.49,.58s.55,.92,.55,1.61v2.36c0,.18,.01,.39,.04,.6,.03,.22,.06,.41,.11,.59s.09,.35,.13,.5c.04,.15,.07,.27,.1,.36,.03,.09,.04,.14,.04,.15v.05h-3.28v-.05s.01-.06,.04-.15c.03-.09,.06-.21,.1-.36,.04-.15,.08-.32,.12-.5s.08-.38,.11-.59c.03-.21,.04-.42,.04-.6v-2.01c0-.33-.1-.58-.3-.74-.2-.16-.46-.24-.77-.24-.23,0-.48,.04-.74,.13,.03,.16,.04,.32,.04,.49v2.36c0,.18,.01,.39,.04,.6,.03,.22,.06,.41,.11,.59s.09,.35,.13,.5c.04,.15,.07,.27,.1,.36,.03,.09,.04,.14,.04,.15v.05h-3.27v-.05s.01-.06,.04-.15c.03-.09,.06-.21,.1-.36,.04-.15,.08-.32,.12-.5s.08-.38,.11-.59c.03-.21,.04-.42,.04-.6v-2.01c0-.33-.1-.58-.31-.74-.21-.16-.47-.24-.79-.24-.26,0-.51,.05-.75,.15v2.84c0,.18,.01,.39,.04,.6,.03,.22,.06,.41,.11,.59,.04,.18,.09,.35,.12,.5,.04,.15,.07,.27,.1,.36,.03,.09,.04,.14,.04,.15v.05h-3.28v-.05Z"/>
    <path class="uuid-0d85379e-31d6-43eb-a0a5-fc1b5747018b" d="M704.02,303.27c.65-.61,1.52-.91,2.6-.91,.6,0,1.12,.1,1.56,.3,.44,.2,.78,.47,1.01,.81,.23,.34,.4,.7,.51,1.07,.1,.37,.16,.77,.16,1.18h-4.07c.18,1.34,.81,2.01,1.91,2.01,.61,0,1.26-.19,1.94-.58l.05,.04c-.16,.52-.52,1.01-1.07,1.46s-1.25,.68-2.07,.68c-.42,0-.84-.07-1.24-.2s-.78-.34-1.13-.61c-.35-.27-.63-.64-.84-1.1-.21-.46-.32-.99-.32-1.58,0-1.09,.33-1.94,.99-2.56Zm1.7,1.6c0,.11,0,.29,.03,.51l1.68-.53c0-1.26-.28-1.89-.85-1.89s-.86,.6-.86,1.8v.11Z"/>
    <path class="uuid-0d85379e-31d6-43eb-a0a5-fc1b5747018b" d="M610.66,316.73c.88-.9,1.99-1.35,3.34-1.35s2.45,.45,3.34,1.35c.88,.9,1.33,2.08,1.33,3.53s-.44,2.64-1.33,3.55c-.89,.9-2,1.35-3.34,1.35s-2.46-.45-3.34-1.35c-.88-.9-1.32-2.09-1.32-3.55s.44-2.64,1.32-3.54Zm1.62,3.57c0,.62,.05,1.23,.15,1.84,.1,.61,.29,1.17,.56,1.67s.61,.75,1,.75,.73-.26,1-.77c.27-.51,.46-1.08,.56-1.7,.1-.62,.15-1.24,.15-1.86s-.05-1.22-.15-1.83c-.1-.61-.29-1.17-.56-1.67-.27-.5-.61-.75-1-.75s-.73,.26-1,.77-.46,1.08-.56,1.7c-.1,.62-.15,1.24-.15,1.84Z"/>
    <path class="uuid-0d85379e-31d6-43eb-a0a5-fc1b5747018b" d="M620.08,315.56v-.05h7.27v2.87h-.07s-.07-.08-.19-.23c-.12-.15-.28-.34-.48-.56-.2-.22-.41-.44-.64-.66-.23-.22-.48-.41-.77-.56-.28-.15-.55-.23-.79-.23h-1.28v3.78h.12c.25,0,.51-.03,.79-.08,.28-.06,.54-.13,.77-.2,.23-.08,.44-.16,.64-.24,.2-.08,.36-.15,.48-.2,.12-.06,.18-.09,.19-.09h.07v2.17h-.07s-.07-.03-.19-.08c-.12-.06-.28-.13-.48-.2-.2-.08-.41-.16-.64-.24s-.48-.15-.77-.2c-.28-.06-.55-.09-.79-.09h-.12v3.96h1.32c.25,0,.51-.08,.79-.23,.28-.15,.54-.34,.77-.56,.23-.22,.44-.44,.64-.67,.2-.22,.36-.41,.48-.57,.12-.15,.18-.23,.19-.23h.07v2.88h-7.3v-.05s.01-.06,.04-.15c.03-.09,.06-.21,.1-.36,.04-.15,.08-.32,.12-.5s.08-.38,.11-.59c.03-.21,.04-.42,.04-.6v-4.99c0-.18-.01-.38-.04-.6-.03-.21-.06-.41-.11-.59-.04-.18-.09-.35-.12-.49-.04-.15-.07-.27-.1-.36-.03-.09-.04-.14-.04-.15Z"/>
    <path class="uuid-0d85379e-31d6-43eb-a0a5-fc1b5747018b" d="M630.15,316.73c.89-.9,2.03-1.35,3.42-1.35,.77,0,1.89,.17,3.37,.52v2.89h-.08c-.26-.38-.47-.69-.64-.92s-.4-.52-.68-.85-.56-.57-.83-.73c-.27-.16-.54-.25-.81-.25-.58,0-1.08,.4-1.51,1.2s-.64,1.81-.64,3.04,.21,2.22,.64,3.03,.93,1.2,1.51,1.2c.45,0,.91-.25,1.38-.73,.47-.49,1-1.17,1.58-2.04h.08v2.92c-1.45,.35-2.61,.53-3.47,.53-1.34,0-2.45-.45-3.34-1.35s-1.33-2.09-1.33-3.55,.45-2.65,1.35-3.55Z"/>
    <path class="uuid-0d85379e-31d6-43eb-a0a5-fc1b5747018b" d="M638.65,324.81c.03-.09,.06-.21,.1-.36,.04-.15,.08-.32,.13-.5s.08-.38,.11-.59c.03-.21,.04-.42,.04-.6v-4.99c0-.18-.01-.38-.04-.6-.03-.21-.06-.41-.11-.59-.04-.18-.09-.35-.13-.49-.04-.15-.07-.27-.1-.36-.03-.09-.04-.14-.04-.15v-.05h4.16c1.34,0,2.45,.44,3.34,1.31,.88,.87,1.33,2.02,1.33,3.43s-.44,2.61-1.33,3.47c-.89,.86-2,1.29-3.34,1.29h-4.16v-.05s.01-.06,.04-.16Zm3.32-.4c.46,0,.86-.12,1.2-.36s.61-.56,.79-.97,.32-.85,.4-1.32c.08-.47,.13-.97,.13-1.51s-.04-1.01-.13-1.47c-.08-.46-.22-.9-.4-1.32s-.45-.75-.79-.99-.74-.36-1.2-.36h-.3v8.31h.3Z"/>
  </g>
  <text class="uuid-0fee881d-0e6c-4888-a718-73f4f150d296" transform="translate(90.99 38.04)"><tspan x="0" y="0">Produced capital</tspan></text>
  <text class="uuid-0fee881d-0e6c-4888-a718-73f4f150d296" transform="translate(249.99 38.04)"><tspan x="0" y="0">Natural capital</tspan></text>
  <text class="uuid-52b6d8ce-4279-4816-9595-a21edb600d15" transform="translate(393.81 38.04)"><tspan x="0" y="0">Human capital</tspan></text>
  <text class="uuid-52b6d8ce-4279-4816-9595-a21edb600d15" transform="translate(535.2 38.04)"><tspan x="0" y="0">Net Foreign Assets</tspan></text>
  <text class="uuid-52b6d8ce-4279-4816-9595-a21edb600d15" transform="translate(3 282.53)"><tspan x="0" y="0">-20%</tspan></text>
  <text class="uuid-52b6d8ce-4279-4816-9595-a21edb600d15" transform="translate(7 209.53)"><tspan x="0" y="0">20%</tspan></text>
  <text class="uuid-52b6d8ce-4279-4816-9595-a21edb600d15" transform="translate(7 174.53)"><tspan x="0" y="0">40%</tspan></text>
  <text class="uuid-52b6d8ce-4279-4816-9595-a21edb600d15" transform="translate(7 138.53)"><tspan x="0" y="0">60%</tspan></text>
  <text class="uuid-52b6d8ce-4279-4816-9595-a21edb600d15" transform="translate(7 102.53)"><tspan x="0" y="0">80%</tspan></text>
  <text class="uuid-52b6d8ce-4279-4816-9595-a21edb600d15" transform="translate(0 65.53)"><tspan x="0" y="0">100%</tspan></text>
  <text class="uuid-52b6d8ce-4279-4816-9595-a21edb600d15" transform="translate(16 247.53)"><tspan x="0" y="0">0%</tspan></text>
  <rect class="uuid-275614b8-87ca-4563-b87a-5a3855106adf" x="68.66" y="236.09" width="19.73" height="5.38"/>
  <rect class="uuid-bb2ab951-e6dd-4070-96fb-e940a45b485a" x="152.31" y="229.09" width="19.73" height="12.38"/>
  <rect class="uuid-bb2ab951-e6dd-4070-96fb-e940a45b485a" x="510.55" y="26.19" width="19.73" height="18.02"/>
  <rect class="uuid-83a4296b-f369-4363-8e2a-82b5e95a5c04" x="367.34" y="26.19" width="19.73" height="18.02"/>
  <rect class="uuid-ae60f866-a230-40da-b971-ab93a77ecbd2" x="222.92" y="26.19" width="19.73" height="18.02"/>
  <rect class="uuid-275614b8-87ca-4563-b87a-5a3855106adf" x="64.95" y="26.19" width="19.73" height="18.02"/>
  <rect class="uuid-ae60f866-a230-40da-b971-ab93a77ecbd2" x="96.12" y="224.09" width="19.73" height="17.38"/>
  <polyline class="uuid-5471e70b-d56d-4e91-ad11-77965162c6d5" points="124.84 241.47 124.84 93.09 144.57 93.09 144.57 241.47"/>
  <line class="uuid-5471e70b-d56d-4e91-ad11-77965162c6d5" x1="66.46" y1="241.47" x2="714" y2="241.47"/>
  <rect class="uuid-275614b8-87ca-4563-b87a-5a3855106adf" x="204.19" y="188.09" width="19.73" height="53.38"/>
  <rect class="uuid-bb2ab951-e6dd-4070-96fb-e940a45b485a" x="287.85" y="241.47" width="19.73" height="3.62"/>
  <rect class="uuid-bb2ab951-e6dd-4070-96fb-e940a45b485a" x="424.85" y="241.47" width="19.73" height="1.62"/>
  <rect class="uuid-ae60f866-a230-40da-b971-ab93a77ecbd2" x="231.66" y="224.09" width="19.73" height="17.38"/>
  <polyline class="uuid-a0303bf8-807f-4c97-8270-ba88b2d62ee2" points="260.37 241.47 260.37 128.09 280.1 128.09 280.1 241.47"/>
  <rect class="uuid-275614b8-87ca-4563-b87a-5a3855106adf" x="340.87" y="188.09" width="19.73" height="53.38"/>
  <rect class="uuid-ae60f866-a230-40da-b971-ab93a77ecbd2" x="368.34" y="213.09" width="19.73" height="28.38"/>
  <polyline class="uuid-83a4296b-f369-4363-8e2a-82b5e95a5c04" points="397.05 241.47 397.05 142.09 416.78 142.09 416.78 241.47"/>
  <rect class="uuid-275614b8-87ca-4563-b87a-5a3855106adf" x="473.71" y="241.47" width="19.73" height="18.62"/>
  <rect class="uuid-bb2ab951-e6dd-4070-96fb-e940a45b485a" x="557.37" y="224.09" width="19.73" height="17.38"/>
  <rect class="uuid-ae60f866-a230-40da-b971-ab93a77ecbd2" x="501.18" y="157.48" width="19.73" height="83.99"/>
  <polyline class="uuid-8a903011-ce9a-4ecc-8c12-0a6172648c60" points="529.89 241.47 529.89 144.09 549.62 144.09 549.62 241.47"/>
  <rect class="uuid-275614b8-87ca-4563-b87a-5a3855106adf" x="608.87" y="164.08" width="19.73" height="77.39"/>
  <rect class="uuid-bb2ab951-e6dd-4070-96fb-e940a45b485a" x="692.53" y="241.47" width="19.73" height="5.62"/>
  <rect class="uuid-ae60f866-a230-40da-b971-ab93a77ecbd2" x="636.34" y="236.09" width="19.73" height="5.38"/>
  <polyline class="uuid-eb0ea240-9f7b-4504-9981-ac107694e8b4" points="665.05 241.47 665.05 140.09 684.78 140.09 684.78 241.47"/>
  <line class="uuid-b0aeb86c-33eb-492a-a057-07ec2b6ddeee" x1="713.84" y1="279.82" x2="47" y2="279.82"/>
  <line class="uuid-b0aeb86c-33eb-492a-a057-07ec2b6ddeee" x1="59" y1="241.59" x2="47" y2="241.59"/>
  <line class="uuid-b0aeb86c-33eb-492a-a057-07ec2b6ddeee" x1="53.15" y1="241.8" x2="53.15" y2="286.09"/>
  <line class="uuid-b0aeb86c-33eb-492a-a057-07ec2b6ddeee" x1="59" y1="205.59" x2="47" y2="205.59"/>
  <line class="uuid-b0aeb86c-33eb-492a-a057-07ec2b6ddeee" x1="53.15" y1="205.8" x2="53.15" y2="243.38"/>
  <line class="uuid-b0aeb86c-33eb-492a-a057-07ec2b6ddeee" x1="59" y1="169.59" x2="47" y2="169.59"/>
  <line class="uuid-b0aeb86c-33eb-492a-a057-07ec2b6ddeee" x1="53.15" y1="169.8" x2="53.15" y2="207.38"/>
  <line class="uuid-b0aeb86c-33eb-492a-a057-07ec2b6ddeee" x1="59" y1="133.59" x2="47" y2="133.59"/>
  <line class="uuid-b0aeb86c-33eb-492a-a057-07ec2b6ddeee" x1="53.15" y1="133.8" x2="53.15" y2="171.38"/>
  <line class="uuid-b0aeb86c-33eb-492a-a057-07ec2b6ddeee" x1="59" y1="97.59" x2="47" y2="97.59"/>
  <line class="uuid-b0aeb86c-33eb-492a-a057-07ec2b6ddeee" x1="53.15" y1="97.8" x2="53.15" y2="135.38"/>
  <line class="uuid-b0aeb86c-33eb-492a-a057-07ec2b6ddeee" x1="59" y1="61.59" x2="47" y2="61.59"/>
  <line class="uuid-b0aeb86c-33eb-492a-a057-07ec2b6ddeee" x1="53.15" y1="61.8" x2="53.15" y2="99.38"/>
</svg>