<?xml version="1.0" encoding="utf-8"?>
<!-- Generator: Adobe Illustrator 26.5.0, SVG Export Plug-In . SVG Version: 6.00 Build 0)  -->
<svg version="1.1" id="Layer_1" xmlns="http://www.w3.org/2000/svg" xmlns:xlink="http://www.w3.org/1999/xlink" x="0px" y="0px"
	 viewBox="0 0 646.9 634.5" style="enable-background:new 0 0 646.9 634.5;" xml:space="preserve">
<style type="text/css">
	.st0{fill:#8A95B3;}
	.st1{fill:none;}
	.st2{fill:#464764;}
	.st3{font-family:'CrimsonText-Regular';}
	.st4{font-size:12.73px;}
	.st5{fill:none;stroke:#8A95B3;stroke-width:0.9;stroke-miterlimit:10;}
	.st6{fill:#FFFFFF;}
	.st7{font-size:11.46px;}
	.st8{font-size:10.77px;}
	.st9{font-size:10.14px;}
	.st10{font-size:11.41px;}
</style>
<g id="Layer_1_00000175302670579457888660000004128115037762108824_">
	<g>
		<path class="st0" d="M314,159.6c-88.3,0-159.9,71.6-159.9,159.9S225.7,479.4,314,479.4s159.9-71.6,159.9-159.9
			S402.3,159.6,314,159.6z M314,457.2c-76,0-137.7-61.7-137.7-137.7S237.9,181.8,314,181.8s137.7,61.7,137.7,137.7
			S390,457.2,314,457.2z"/>
		<rect x="7.1" y="12.7" class="st1" width="613.7" height="613.7"/>
		<g>
			<text transform="matrix(-0.9429 -0.333 0.333 -0.9429 224.4704 587.5277)" class="st2 st3 st4">a</text>
			<text transform="matrix(-0.9335 -0.3587 0.3587 -0.9335 218.9409 585.5977)" class="st2 st3 st4">w</text>
			<text transform="matrix(-0.9233 -0.384 0.384 -0.9233 209.8908 582.0771)" class="st2 st3 st4">a</text>
			<text transform="matrix(-0.9157 -0.4019 0.4019 -0.9157 204.4811 579.8285)" class="st2 st3 st4">r</text>
			<text transform="matrix(-0.9076 -0.4199 0.4199 -0.9076 199.621 577.6866)" class="st2 st3 st4">e</text>
			<text transform="matrix(-0.8944 -0.4473 0.4473 -0.8944 191.121 573.6683)" class="st2 st3 st4">t</text>
			<text transform="matrix(-0.8851 -0.4655 0.4655 -0.8851 187.081 571.6567)" class="st2 st3 st4">h</text>
			<text transform="matrix(-0.8742 -0.4856 0.4856 -0.8742 180.7204 568.2979)" class="st2 st3 st4">a</text>
			<text transform="matrix(-0.8652 -0.5014 0.5014 -0.8652 175.6204 565.4581)" class="st2 st3 st4">t</text>
			<text transform="matrix(-0.8463 -0.5327 0.5327 -0.8463 168.7504 561.4368)" class="st2 st3 st4">N</text>
			<text transform="matrix(-0.8316 -0.5554 0.5554 -0.8316 160.681 556.3276)" class="st2 st3 st4">a</text>
			<text transform="matrix(-0.8213 -0.5704 0.5704 -0.8213 155.8009 553.0469)" class="st2 st3 st4">t</text>
			<text transform="matrix(-0.8097 -0.5868 0.5868 -0.8097 152.1006 550.4872)" class="st2 st3 st4">u</text>
			<text transform="matrix(-0.7968 -0.6042 0.6042 -0.7968 146.4304 546.3668)" class="st2 st3 st4">r</text>
			<text transform="matrix(-0.7847 -0.6199 0.6199 -0.7847 142.2009 543.1484)" class="st2 st3 st4">e</text>
			<text transform="matrix(-0.766 -0.6428 0.6428 -0.766 134.861 537.2583)" class="st2 st3 st4">i</text>
			<text transform="matrix(-0.7557 -0.6549 0.6549 -0.7557 131.8205 534.7081)" class="st2 st3 st4">s</text>
			<text transform="matrix(-0.7365 -0.6765 0.6765 -0.7365 125.4209 529.0772)" class="st2 st3 st4">t</text>
			<text transform="matrix(-0.7227 -0.6911 0.6911 -0.7227 122.1107 526.0466)" class="st2 st3 st4">o</text>
			<text transform="matrix(-0.6967 -0.7174 0.7174 -0.6967 114.6505 518.8072)" class="st2 st3 st4">u</text>
			<text transform="matrix(-0.6812 -0.7321 0.7321 -0.6812 109.7608 513.7482)" class="st2 st3 st4">s</text>
			<text transform="matrix(-0.6596 -0.7516 0.7516 -0.6596 104.0106 507.468)" class="st2 st3 st4">t</text>
			<text transform="matrix(-0.6439 -0.7651 0.7651 -0.6439 101.0206 504.0866)" class="st2 st3 st4">h</text>
			<text transform="matrix(-0.6259 -0.7799 0.7799 -0.6259 96.4208 498.5873)" class="st2 st3 st4">e</text>
			<text transform="matrix(-0.5978 -0.8017 0.8017 -0.5978 90.6007 491.2373)" class="st2 st3 st4">n</text>
			<text transform="matrix(-0.5787 -0.8155 0.8155 -0.5787 86.2206 485.3374)" class="st2 st3 st4">a</text>
			<text transform="matrix(-0.5547 -0.8321 0.8321 -0.5547 82.8007 480.5666)" class="st2 st3 st4">m</text>
			<text transform="matrix(-0.5304 -0.8478 0.8478 -0.5304 77.0108 471.8076)" class="st2 st3 st4">e</text>
			<text transform="matrix(-0.5135 -0.8581 0.8581 -0.5135 73.8607 466.7469)" class="st2 st3 st4">s</text>
			<text transform="matrix(-0.4804 -0.8771 0.8771 -0.4804 69.5207 459.4475)" class="st2 st3 st4">w</text>
			<text transform="matrix(-0.4559 -0.8901 0.8901 -0.4559 64.8806 450.9082)" class="st2 st3 st4">e</text>
			<text transform="matrix(-0.4251 -0.9051 0.9051 -0.4251 60.6607 442.5074)" class="st2 st3 st4">g</text>
			<text transform="matrix(-0.4085 -0.9128 0.9128 -0.4085 57.9107 436.6172)" class="st2 st3 st4">i</text>
			<text transform="matrix(-0.3912 -0.9203 0.9203 -0.3912 56.2908 433.0281)" class="st2 st3 st4">v</text>
			<text transform="matrix(-0.3707 -0.9287 0.9287 -0.3707 53.6808 426.8378)" class="st2 st3 st4">e</text>
			<text transform="matrix(-0.3425 -0.9395 0.9395 -0.3425 50.2607 418.0767)" class="st2 st3 st4">t</text>
			<text transform="matrix(-0.3236 -0.9462 0.9462 -0.3236 48.7006 413.837)" class="st2 st3 st4">o</text>
			<text transform="matrix(-0.3034 -0.9529 0.9529 -0.3034 45.4607 403.9872)" class="st2 st3 st4">h</text>
			<text transform="matrix(-0.2672 -0.9636 0.9636 -0.2672 43.3507 397.1178)" class="st2 st3 st4">e</text>
			<text transform="matrix(-0.2484 -0.9687 0.9687 -0.2484 41.7707 391.378)" class="st2 st3 st4">r</text>
			<text transform="matrix(5.111587e-02 -0.9987 0.9987 5.111587e-02 32.4707 307.2979)" class="st2 st3 st4">k</text>
			<text transform="matrix(7.602295e-02 -0.9971 0.9971 7.602295e-02 32.8206 300.5477)" class="st2 st3 st4">n</text>
			<text transform="matrix(0.1012 -0.9949 0.9949 0.1012 33.3908 293.2481)" class="st2 st3 st4">o</text>
			<text transform="matrix(0.1305 -0.9914 0.9914 0.1305 34.0807 286.3578)" class="st2 st3 st4">w</text>
			<text transform="matrix(0.1544 -0.988 0.988 0.1544 35.3807 276.7372)" class="st2 st3 st4">i</text>
			<text transform="matrix(0.174 -0.9847 0.9847 0.174 35.9807 272.8272)" class="st2 st3 st4">n</text>
			<text transform="matrix(0.1982 -0.9802 0.9802 0.1982 37.2806 265.5876)" class="st2 st3 st4">g</text>
			<text transform="matrix(0.2375 -0.9714 0.9714 0.2375 39.2907 255.8772)" class="st2 st3 st4">N</text>
			<text transform="matrix(0.2639 -0.9646 0.9646 0.2639 41.5906 246.5973)" class="st2 st3 st4">a</text>
			<text transform="matrix(0.2813 -0.9596 0.9596 0.2813 43.1408 240.9674)" class="st2 st3 st4">t</text>
			<text transform="matrix(0.3007 -0.9537 0.9537 0.3007 44.4108 236.6372)" class="st2 st3 st4">u</text>
			<text transform="matrix(0.3213 -0.947 0.947 0.3213 46.5307 229.9477)" class="st2 st3 st4">r</text>
			<text transform="matrix(0.3399 -0.9405 0.9405 0.3399 48.2407 224.9075)" class="st2 st3 st4">e</text>
			<text transform="matrix(0.3675 -0.93 0.93 0.3675 51.5207 216.0674)" class="st2 st3 st4">i</text>
			<text transform="matrix(0.3822 -0.9241 0.9241 0.3822 52.9708 212.4077)" class="st2 st3 st4">s</text>
			<text transform="matrix(0.4109 -0.9117 0.9117 0.4109 56.2808 204.5478)" class="st2 st3 st4">a</text>
			<text transform="matrix(0.4261 -0.9047 0.9047 0.4261 58.7006 199.2073)" class="st2 st3 st4">l</text>
			<text transform="matrix(0.4379 -0.899 0.899 0.4379 60.2908 195.8374)" class="st2 st3 st4">l</text>
			<text transform="matrix(0.4652 -0.8852 0.8852 0.4652 63.4808 189.3876)" class="st2 st3 st4">b</text>
			<text transform="matrix(0.4863 -0.8738 0.8738 0.4863 66.6408 183.388)" class="st2 st3 st4">u</text>
			<text transform="matrix(0.5039 -0.8637 0.8637 0.5039 70.0708 177.2471)" class="st2 st3 st4">t</text>
			<text transform="matrix(0.532 -0.8468 0.8468 0.532 74.1207 170.3976)" class="st2 st3 st4">n</text>
			<text transform="matrix(0.553 -0.8332 0.8332 0.553 78.0307 164.1877)" class="st2 st3 st4">o</text>
			<text transform="matrix(0.5696 -0.8219 0.8219 0.5696 81.8907 158.4074)" class="st2 st3 st4">t</text>
			<text transform="matrix(0.5943 -0.8043 0.8043 0.5943 86.4608 151.907)" class="st2 st3 st4">e</text>
			<text transform="matrix(0.6129 -0.7902 0.7902 0.6129 89.9907 147.1272)" class="st2 st3 st4">n</text>
			<text transform="matrix(0.6323 -0.7747 0.7747 0.6323 94.5106 141.3172)" class="st2 st3 st4">d</text>
			<text transform="matrix(0.6464 -0.763 0.763 0.6464 98.8007 136.0875)" class="st2 st3 st4">l</text>
			<text transform="matrix(0.6593 -0.7518 0.7518 0.6593 101.2107 133.2374)" class="st2 st3 st4">e</text>
			<text transform="matrix(0.6738 -0.7389 0.7389 0.6738 105.1206 128.7872)" class="st2 st3 st4">s</text>
			<text transform="matrix(0.6868 -0.7268 0.7268 0.6868 108.5606 125.0374)" class="st2 st3 st4">s</text>
			<text transform="matrix(0.8449 -0.5349 0.5349 0.8449 160.2408 80.6076)" class="st2 st3 st4">r</text>
			<text transform="matrix(0.8559 -0.5171 0.5171 0.8559 165.0006 77.6075)" class="st2 st3 st4">e</text>
			<text transform="matrix(0.8663 -0.4995 0.4995 0.8663 170.3706 74.3774)" class="st2 st3 st4">s</text>
			<text transform="matrix(0.8751 -0.4839 0.4839 0.8751 175.0308 71.7077)" class="st2 st3 st4">t</text>
			<text transform="matrix(0.8839 -0.4676 0.4676 0.8839 179.2607 69.3676)" class="st2 st3 st4">r</text>
			<text transform="matrix(0.8944 -0.4473 0.4473 0.8944 184.2307 66.7377)" class="st2 st3 st4">u</text>
			<text transform="matrix(0.9047 -0.4261 0.4261 0.9047 190.8208 63.4673)" class="st2 st3 st4">c</text>
			<text transform="matrix(0.9126 -0.4088 0.4088 0.9126 196.2006 60.9474)" class="st2 st3 st4">t</text>
			<text transform="matrix(0.9212 -0.3891 0.3891 0.9212 200.5907 58.9775)" class="st2 st3 st4">u</text>
			<text transform="matrix(0.9299 -0.3678 0.3678 0.9299 207.3707 56.1374)" class="st2 st3 st4">r</text>
			<text transform="matrix(0.9362 -0.3514 0.3514 0.9362 212.6108 54.0776)" class="st2 st3 st4">i</text>
			<text transform="matrix(0.9435 -0.3315 0.3315 0.9435 216.6207 52.5675)" class="st2 st3 st4">n</text>
			<text transform="matrix(0.9516 -0.3072 0.3072 0.9516 223.8406 50.0474)" class="st2 st3 st4">g</text>
			<text transform="matrix(0.9573 -0.289 0.289 0.9573 230.3307 47.9775)" class="st2 st3 st4">,</text>
			<text transform="matrix(0.9657 -0.2598 0.2598 0.9657 237.6907 45.8174)" class="st2 st3 st4">r</text>
			<text transform="matrix(0.9709 -0.2394 0.2394 0.9709 243.1307 44.3576)" class="st2 st3 st4">e</text>
			<text transform="matrix(0.9763 -0.2166 0.2166 0.9763 249.1907 42.8675)" class="st2 st3 st4">v</text>
			<text transform="matrix(0.9804 -0.197 0.197 0.9804 256.0907 41.3676)" class="st2 st3 st4">i</text>
			<text transform="matrix(0.9836 -0.1802 0.1802 0.9836 260.2708 40.5275)" class="st2 st3 st4">s</text>
			<text transform="matrix(0.9866 -0.1633 0.1633 0.9866 265.5707 39.5675)" class="st2 st3 st4">i</text>
			<text transform="matrix(0.9897 -0.1433 0.1433 0.9897 269.7807 38.8676)" class="st2 st3 st4">o</text>
			<text transform="matrix(0.9931 -0.1174 0.1174 0.9931 276.9407 37.8375)" class="st2 st3 st4">n</text>
			<text transform="matrix(0.9953 -9.636693e-02 9.636693e-02 0.9953 284.5707 36.9675)" class="st2 st3 st4">i</text>
			<text transform="matrix(0.9971 -7.567488e-02 7.567488e-02 0.9971 288.8007 36.5475)" class="st2 st3 st4">n</text>
			<text transform="matrix(0.9987 -5.041863e-02 5.041863e-02 0.9987 296.4407 35.9876)" class="st2 st3 st4">g</text>
			<text transform="matrix(0.9999 -1.483476e-02 1.483476e-02 0.9999 307.0207 35.5374)" class="st2 st3 st4">a</text>
			<text transform="matrix(0.9999 1.623085e-02 -1.623085e-02 0.9999 313.1707 35.4275)" class="st2 st3 st4">n</text>
			<text transform="matrix(0.9994 3.437621e-02 -3.437621e-02 0.9994 320.8307 35.5375)" class="st2 st3 st4">d</text>
			<text transform="matrix(0.9976 6.958237e-02 -6.958237e-02 0.9976 331.6907 35.9975)" class="st2 st3 st4">r</text>
			<text transform="matrix(0.9959 9.045877e-02 -9.045877e-02 0.9959 337.3207 36.3974)" class="st2 st3 st4">e</text>
			<text transform="matrix(0.9941 0.1089 -0.1089 0.9941 343.5508 36.9875)" class="st2 st3 st4">i</text>
			<text transform="matrix(0.9916 0.1297 -0.1297 0.9916 347.7907 37.4375)" class="st2 st3 st4">n</text>
			<text transform="matrix(0.9885 0.1513 -0.1513 0.9885 355.3807 38.4575)" class="st2 st3 st4">t</text>
			<text transform="matrix(0.9853 0.1706 -0.1706 0.9853 360.1407 39.1875)" class="st2 st3 st4">e</text>
			<text transform="matrix(0.9815 0.1913 -0.1913 0.9815 366.3108 40.2676)" class="st2 st3 st4">r</text>
			<text transform="matrix(0.9769 0.2137 -0.2137 0.9769 371.8408 41.3475)" class="st2 st3 st4">p</text>
			<text transform="matrix(0.9718 0.236 -0.236 0.9718 378.9307 42.9175)" class="st2 st3 st4">r</text>
			<text transform="matrix(0.9666 0.2565 -0.2565 0.9666 384.4106 44.2575)" class="st2 st3 st4">e</text>
			<text transform="matrix(0.9614 0.2753 -0.2753 0.9614 390.4507 45.8776)" class="st2 st3 st4">t</text>
			<text transform="matrix(0.9568 0.2909 -0.2909 0.9568 395.1108 47.2176)" class="st2 st3 st4">i</text>
			<text transform="matrix(0.9504 0.311 -0.311 0.9504 399.1707 48.4474)" class="st2 st3 st4">n</text>
			<text transform="matrix(0.9421 0.3353 -0.3353 0.9421 406.4506 50.8475)" class="st2 st3 st4">g</text>
			<text transform="matrix(0.9268 0.3756 -0.3756 0.9268 416.3808 54.4474)" class="st2 st3 st4">w</text>
			<text transform="matrix(0.9147 0.4042 -0.4042 0.9147 425.6509 58.2475)" class="st2 st3 st4">h</text>
			<text transform="matrix(0.9046 0.4263 -0.4263 0.9046 432.5207 61.2974)" class="st2 st3 st4">a</text>
			<text transform="matrix(0.8962 0.4437 -0.4437 0.8962 438.0908 63.9475)" class="st2 st3 st4">t</text>
			<text transform="matrix(0.8779 0.4788 -0.4788 0.8779 445.7707 67.7975)" class="st2 st3 st4">w</text>
			<text transform="matrix(0.8638 0.5038 -0.5038 0.8638 454.5509 72.6276)" class="st2 st3 st4">e</text>
			<text transform="matrix(0.8445 0.5355 -0.5355 0.8445 463.1707 77.7474)" class="st2 st3 st4">u</text>
			<text transform="matrix(0.8301 0.5576 -0.5576 0.8301 469.3506 81.6776)" class="st2 st3 st4">n</text>
			<text transform="matrix(0.8153 0.579 -0.579 0.8153 475.7005 85.9574)" class="st2 st3 st4">d</text>
			<text transform="matrix(0.8016 0.5979 -0.5979 0.8016 481.4705 90.0776)" class="st2 st3 st4">e</text>
			<text transform="matrix(0.7889 0.6146 -0.6146 0.7889 486.501 93.8376)" class="st2 st3 st4">r</text>
			<text transform="matrix(0.7769 0.6296 -0.6296 0.7769 490.9309 97.3076)" class="st2 st3 st4">s</text>
			<text transform="matrix(0.7655 0.6435 -0.6435 0.7655 495.1109 100.7074)" class="st2 st3 st4">t</text>
			<text transform="matrix(0.753 0.658 -0.658 0.753 498.7909 103.8074)" class="st2 st3 st4">a</text>
			<text transform="matrix(0.7369 0.676 -0.676 0.7369 503.4402 107.8675)" class="st2 st3 st4">n</text>
			<text transform="matrix(0.7192 0.6948 -0.6948 0.7192 509.0807 113.0575)" class="st2 st3 st4">d</text>
			<text transform="matrix(0.6934 0.7206 -0.7206 0.6934 516.8309 120.6774)" class="st2 st3 st4">a</text>
			<text transform="matrix(0.6787 0.7344 -0.7344 0.6787 521.1008 125.1375)" class="st2 st3 st4">s</text>
			<text transform="matrix(0.6521 0.7581 -0.7581 0.6521 527.2512 131.8876)" class="st2 st3 st4">h</text>
			<text transform="matrix(0.6322 0.7748 -0.7748 0.6322 532.1404 137.5974)" class="st2 st3 st4">u</text>
			<text transform="matrix(0.6072 0.7945 -0.7945 0.6072 536.771 143.2475)" class="st2 st3 st4">m</text>
			<text transform="matrix(0.5833 0.8123 -0.8123 0.5833 543.3211 151.8975)" class="st2 st3 st4">a</text>
			<text transform="matrix(0.5632 0.8263 -0.8263 0.5632 546.9203 156.9074)" class="st2 st3 st4">n</text>
			<text transform="matrix(0.5442 0.839 -0.839 0.5442 551.2202 163.2576)" class="st2 st3 st4">s</text>
			<text transform="matrix(0.5305 0.8477 -0.8477 0.5305 554.1311 167.7773)" class="st2 st3 st4">,</text>
			<text transform="matrix(0.4983 0.867 -0.867 0.4983 558.161 174.2876)" class="st2 st3 st4">N</text>
			<text transform="matrix(0.4736 0.8807 -0.8807 0.4736 563.0507 182.8577)" class="st2 st3 st4">a</text>
			<text transform="matrix(0.4563 0.8898 -0.8898 0.4563 565.9709 188.3175)" class="st2 st3 st4">t</text>
			<text transform="matrix(0.4371 0.8994 -0.8994 0.4371 568.1704 192.5975)" class="st2 st3 st4">u</text>
			<text transform="matrix(0.4164 0.9092 -0.9092 0.4164 571.3506 199.1875)" class="st2 st3 st4">r</text>
			<text transform="matrix(0.3971 0.9178 -0.9178 0.3971 573.7009 204.3275)" class="st2 st3 st4">e</text>
			<text transform="matrix(0.3646 0.9312 -0.9312 0.3646 577.6006 213.5575)" class="st2 st3 st4">a</text>
			<text transform="matrix(0.3425 0.9395 -0.9395 0.3425 579.8506 219.3275)" class="st2 st3 st4">d</text>
			<text transform="matrix(0.3178 0.9482 -0.9482 0.3178 582.2706 225.9776)" class="st2 st3 st4">n</text>
			<text transform="matrix(0.2838 0.9589 -0.9589 0.2838 585.8005 236.8575)" class="st2 st3 st4">t</text>
			<text transform="matrix(0.2629 0.9648 -0.9648 0.2629 587.1711 241.4675)" class="st2 st3 st4">h</text>
			<text transform="matrix(0.2392 0.971 -0.971 0.2392 589.1306 248.7175)" class="st2 st3 st4">e</text>
			<text transform="matrix(0.2016 0.9795 -0.9795 0.2016 591.451 258.4575)" class="st2 st3 st4">E</text>
			<text transform="matrix(0.1769 0.9842 -0.9842 0.1769 593.0411 266.3075)" class="st2 st3 st4">a</text>
			<text transform="matrix(0.1564 0.9877 -0.9877 0.1564 594.131 272.3975)" class="st2 st3 st4">r</text>
			<text transform="matrix(0.1381 0.9904 -0.9904 0.1381 594.9911 277.9575)" class="st2 st3 st4">t</text>
			<text transform="matrix(0.1167 0.9932 -0.9932 0.1167 595.6603 282.7275)" class="st2 st3 st4">h</text>
			<text transform="matrix(-0.2083 0.9781 -0.9781 -0.2083 592.2697 376.6275)" class="st2 st3 st4">r</text>
			<text transform="matrix(-0.2287 0.9735 -0.9735 -0.2287 591.0911 382.1175)" class="st2 st3 st4">e</text>
			<text transform="matrix(-0.2489 0.9685 -0.9685 -0.2489 589.6409 388.2177)" class="st2 st3 st4">s</text>
			<text transform="matrix(-0.2662 0.9639 -0.9639 -0.2662 588.2999 393.4273)" class="st2 st3 st4">t</text>
			<text transform="matrix(-0.285 0.9585 -0.9585 -0.285 587.0111 398.0777)" class="st2 st3 st4">a</text>
			<text transform="matrix(-0.3075 0.9515 -0.9515 -0.3075 585.2505 403.9774)" class="st2 st3 st4">b</text>
			<text transform="matrix(-0.3262 0.9453 -0.9453 -0.3262 583.0306 410.7477)" class="st2 st3 st4">l</text>
			<text transform="matrix(-0.3402 0.9403 -0.9403 -0.3402 581.7101 414.5675)" class="st2 st3 st4">i</text>
			<text transform="matrix(-0.3562 0.9344 -0.9344 -0.3562 580.2499 418.5877)" class="st2 st3 st4">s</text>
			<text transform="matrix(-0.3775 0.926 -0.926 -0.3775 578.34 423.6174)" class="st2 st3 st4">h</text>
			<text transform="matrix(-0.3968 0.9179 -0.9179 -0.3968 575.4716 430.5673)" class="st2 st3 st4">i</text>
			<text transform="matrix(-0.416 0.9094 -0.9094 -0.416 573.8013 434.4573)" class="st2 st3 st4">n</text>
			<text transform="matrix(-0.4392 0.8984 -0.8984 -0.4392 570.6011 441.4272)" class="st2 st3 st4">g</text>
			<text transform="matrix(-0.4705 0.8824 -0.8824 -0.4705 565.861 450.8976)" class="st2 st3 st4">r</text>
			<text transform="matrix(-0.4889 0.8723 -0.8723 -0.4889 563.22 455.8474)" class="st2 st3 st4">e</text>
			<text transform="matrix(-0.5068 0.8621 -0.8621 -0.5068 560.1309 461.3274)" class="st2 st3 st4">s</text>
			<text transform="matrix(-0.5259 0.8505 -0.8505 -0.5259 557.4103 465.9574)" class="st2 st3 st4">p</text>
			<text transform="matrix(-0.5458 0.8379 -0.8379 -0.5458 553.5815 472.1077)" class="st2 st3 st4">e</text>
			<text transform="matrix(-0.5638 0.8259 -0.8259 -0.5638 550.151 477.3577)" class="st2 st3 st4">c</text>
			<text transform="matrix(-0.5793 0.8151 -0.8151 -0.5793 546.78 482.2774)" class="st2 st3 st4">t</text>
			<text transform="matrix(-0.6033 0.7975 -0.7975 -0.6033 541.7415 489.2371)" class="st2 st3 st4">f</text>
			<text transform="matrix(-0.6199 0.7847 -0.7847 -0.6199 538.9312 492.9676)" class="st2 st3 st4">o</text>
			<text transform="matrix(-0.6374 0.7705 -0.7705 -0.6374 534.4308 498.6278)" class="st2 st3 st4">r</text>
			<text transform="matrix(-0.6682 0.744 -0.744 -0.6682 528.3901 505.8471)" class="st2 st3 st4">w</text>
			<text transform="matrix(-0.6908 0.7231 -0.7231 -0.6908 521.6705 513.2876)" class="st2 st3 st4">h</text>
			<text transform="matrix(-0.7077 0.7065 -0.7065 -0.7077 516.4815 518.6771)" class="st2 st3 st4">a</text>
			<text transform="matrix(-0.7213 0.6926 -0.6926 -0.7213 512.1005 523.0374)" class="st2 st3 st4">t</text>
			<text transform="matrix(-0.7412 0.6713 -0.6713 -0.7412 505.8308 528.9571)" class="st2 st3 st4">i</text>
			<text transform="matrix(-0.7524 0.6587 -0.6587 -0.7524 502.6704 531.8073)" class="st2 st3 st4">s</text>
			<text transform="matrix(-0.7752 0.6318 -0.6318 -0.7752 495.7415 537.7876)" class="st2 st3 st4">o</text>
			<text transform="matrix(-0.791 0.6118 -0.6118 -0.791 490.1314 542.3571)" class="st2 st3 st4">u</text>
			<text transform="matrix(-0.8039 0.5948 -0.5948 -0.8039 484.3002 546.8275)" class="st2 st3 st4">t</text>
			<text transform="matrix(-0.8144 0.5803 -0.5803 -0.8144 480.4301 549.688)" class="st2 st3 st4">s</text>
			<text transform="matrix(-0.8241 0.5664 -0.5664 -0.8241 476.0299 552.8075)" class="st2 st3 st4">i</text>
			<text transform="matrix(-0.8353 0.5498 -0.5498 -0.8353 472.5111 555.2278)" class="st2 st3 st4">d</text>
			<text transform="matrix(-0.848 0.5301 -0.5301 -0.848 466.5699 559.117)" class="st2 st3 st4">e</text>
			<text transform="matrix(-0.8649 0.502 -0.502 -0.8649 458.0108 564.3669)" class="st2 st3 st4">t</text>
			<text transform="matrix(-0.8755 0.4831 -0.4831 -0.8755 453.8715 566.7776)" class="st2 st3 st4">h</text>
			<text transform="matrix(-0.887 0.4617 -0.4617 -0.887 447.3002 570.3873)" class="st2 st3 st4">e</text>
			<text transform="matrix(-0.9118 0.4106 -0.4106 -0.9118 434.9815 576.5975)" class="st2 st3 st4">m</text>
			<text transform="matrix(-0.9238 0.3828 -0.3828 -0.9238 425.0609 581.0077)" class="st2 st3 st4">a</text>
			<text transform="matrix(-0.9329 0.3602 -0.3602 -0.9329 419.3712 583.357)" class="st2 st3 st4">n</text>
			<text transform="matrix(-0.9417 0.3364 -0.3364 -0.9417 412.2206 586.1071)" class="st2 st3 st4">y</text>
			<text transform="matrix(-0.9528 0.3037 -0.3037 -0.9528 402.4614 589.4977)" class="st2 st3 st4">s</text>
			<text transform="matrix(-0.9594 0.2822 -0.2822 -0.9594 397.3198 591.1378)" class="st2 st3 st4">p</text>
			<text transform="matrix(-0.9664 0.2571 -0.2571 -0.9664 390.3715 593.167)" class="st2 st3 st4">h</text>
			<text transform="matrix(-0.9724 0.2334 -0.2334 -0.9724 383.1307 595.0783)" class="st2 st3 st4">e</text>
			<text transform="matrix(-0.9771 0.2129 -0.2129 -0.9771 377.0316 596.5277)" class="st2 st3 st4">r</text>
			<text transform="matrix(-0.9814 0.1922 -0.1922 -0.9814 371.5016 597.727)" class="st2 st3 st4">e</text>
			<text transform="matrix(-0.9851 0.1719 -0.1719 -0.9851 365.3512 598.9166)" class="st2 st3 st4">s</text>
			<text transform="matrix(-0.9906 0.1369 -0.1369 -0.9906 356.3299 600.418)" class="st2 st3 st4">o</text>
			<text transform="matrix(-0.9933 0.116 -0.116 -0.9933 349.1407 601.3874)" class="st2 st3 st4">f</text>
			<text transform="matrix(-0.9963 8.628631e-02 -8.628631e-02 -0.9963 340.7499 602.2967)" class="st2 st3 st4">t</text>
			<text transform="matrix(-0.9979 6.488066e-02 -6.488066e-02 -0.9979 335.9511 602.7181)" class="st2 st3 st4">h</text>
			<text transform="matrix(-0.9992 4.100385e-02 -4.100385e-02 -0.9992 328.4709 603.1875)" class="st2 st3 st4">e</text>
			<text transform="matrix(-0.9999 1.623072e-02 -1.623072e-02 -0.9999 318.4109 603.4966)" class="st2 st3 st4">“</text>
			<text transform="matrix(-1 -7.853848e-03 7.853848e-03 -1 313.6803 603.5485)" class="st2 st3 st4">I</text>
			<text transform="matrix(-0.9997 -2.443207e-02 2.443207e-02 -0.9997 308.801 603.4971)" class="st2 st3 st4">”</text>
		</g>
		<g>
			<line class="st5" x1="293" y1="477.1" x2="276.2" y2="589.4"/>
			<line class="st5" x1="339.5" y1="475.1" x2="356.6" y2="588.7"/>
			<line class="st5" x1="383.1" y1="460.2" x2="433.1" y2="564.7"/>
			<line class="st5" x1="421.6" y1="435.3" x2="499.1" y2="519.5"/>
			<line class="st5" x1="451.8" y1="397.3" x2="549.2" y2="457.2"/>
			<line class="st5" x1="469.4" y1="357.1" x2="579.1" y2="383"/>
			<line class="st5" x1="473.6" y1="310.7" x2="586.5" y2="303.2"/>
			<line class="st5" x1="460.4" y1="264.9" x2="569.6" y2="224.8"/>
			<line class="st5" x1="441.9" y1="223.5" x2="530.8" y2="154.4"/>
			<line class="st5" x1="408.1" y1="190.6" x2="473" y2="98.1"/>
			<line class="st5" x1="365.2" y1="171.2" x2="401" y2="61.3"/>
			<line class="st5" x1="319.2" y1="161.1" x2="321.2" y2="47"/>
			<line class="st5" x1="271.7" y1="165.7" x2="240.6" y2="57.6"/>
			<line class="st5" x1="227.7" y1="184.8" x2="166.2" y2="90.5"/>
			<line class="st5" x1="191.5" y1="216.7" x2="104.8" y2="144.7"/>
			<line class="st5" x1="168.6" y1="258.8" x2="62.5" y2="214.2"/>
			<line class="st5" x1="154.7" y1="304.7" x2="43.7" y2="293.5"/>
			<line class="st5" x1="160.1" y1="352.2" x2="47.7" y2="374.7"/>
			<line class="st5" x1="174.5" y1="397.5" x2="75.2" y2="451.1"/>
			<line class="st5" x1="204.8" y1="434.2" x2="124.6" y2="515.5"/>
			<line class="st5" x1="243" y1="461.6" x2="190.4" y2="562.5"/>
		</g>
		<text transform="matrix(0.2473 -0.9689 0.9689 0.2473 172.6006 285.3876)" class="st6 st3 st7">s</text>
		<text transform="matrix(0.284 -0.9588 0.9588 0.284 173.7108 280.9875)" class="st6 st3 st7">h</text>
		<text transform="matrix(0.3226 -0.9465 0.9465 0.3226 175.5606 274.8272)" class="st6 st3 st7">a</text>
		<text transform="matrix(0.3598 -0.933 0.933 0.3598 177.2508 269.8772)" class="st6 st3 st7">p</text>
		<text transform="matrix(0.3912 -0.9203 0.9203 0.3912 179.5208 264.0674)" class="st6 st3 st7">i</text>
		<text transform="matrix(0.4231 -0.9061 0.9061 0.4231 180.8808 260.8279)" class="st6 st3 st7">n</text>
		<text transform="matrix(0.4613 -0.8873 0.8873 0.4613 183.6708 254.8875)" class="st6 st3 st7">g</text>
		<text transform="matrix(0.5232 -0.8522 0.8522 0.5232 187.8408 247.0372)" class="st6 st3 st7">w</text>
		<text transform="matrix(0.5635 -0.8261 0.8261 0.5635 192.4508 239.6373)" class="st6 st3 st7">a</text>
		<text transform="matrix(0.5938 -0.8046 0.8046 0.5938 195.4106 235.3073)" class="st6 st3 st7">y</text>
		<text transform="matrix(0.6213 -0.7836 0.7836 0.6213 198.7408 230.8272)" class="st6 st3 st7">s</text>
		<text transform="matrix(0.6656 -0.7463 0.7463 0.6656 203.5406 224.8977)" class="st6 st3 st7">o</text>
		<text transform="matrix(0.691 -0.7228 0.7228 0.691 207.7008 220.2774)" class="st6 st3 st7">f</text>
		<text transform="matrix(0.7298 -0.6837 0.6837 0.7298 212.5607 215.2879)" class="st6 st3 st7">d</text>
		<text transform="matrix(0.7578 -0.6525 0.6525 0.7578 216.9906 211.1474)" class="st6 st3 st7">o</text>
		<text transform="matrix(0.7791 -0.6269 0.6269 0.7791 221.7406 207.1075)" class="st6 st3 st7">i</text>
		<text transform="matrix(0.8004 -0.5994 0.5994 0.8004 224.4607 204.8973)" class="st6 st3 st7">n</text>
		<text transform="matrix(0.8251 -0.565 0.565 0.8251 229.7508 200.9575)" class="st6 st3 st7">g</text>
		<text transform="matrix(0.8572 -0.515 0.515 0.8572 237.1608 196.0174)" class="st6 st3 st7">a</text>
		<text transform="matrix(0.8774 -0.4798 0.4798 0.8774 241.6408 193.3275)" class="st6 st3 st7">n</text>
		<text transform="matrix(0.8973 -0.4413 0.4413 0.8973 247.4007 190.1975)" class="st6 st3 st7">d</text>
		<text transform="matrix(0.927 -0.3751 0.3751 0.927 255.6707 186.2176)" class="st6 st3 st7">w</text>
		<text transform="matrix(0.944 -0.33 0.33 0.944 263.7408 183.0175)" class="st6 st3 st7">a</text>
		<text transform="matrix(0.9557 -0.2944 0.2944 0.9557 268.6807 181.2874)" class="st6 st3 st7">y</text>
		<text transform="matrix(0.9654 -0.2607 0.2607 0.9654 274.0407 179.6573)" class="st6 st3 st7">s</text>
		<text transform="matrix(0.9784 -0.2067 0.2067 0.9784 281.4408 177.7576)" class="st6 st3 st7">a</text>
		<text transform="matrix(0.986 -0.1668 0.1668 0.986 286.5507 176.6774)" class="st6 st3 st7">n</text>
		<text transform="matrix(0.9923 -0.1238 0.1238 0.9923 293.0307 175.5975)" class="st6 st3 st7">d</text>
		<text transform="matrix(0.9975 -7.062699e-02 7.062699e-02 0.9975 302.1607 174.5875)" class="st6 st3 st7">l</text>
		<text transform="matrix(0.9989 -4.728079e-02 4.728079e-02 0.9989 305.4807 174.3575)" class="st6 st3 st7">i</text>
		<text transform="matrix(0.9999 -1.623085e-02 1.623085e-02 0.9999 309.0107 174.1875)" class="st6 st3 st7">v</text>
		<text transform="matrix(0.9998 1.745241e-02 -1.745241e-02 0.9998 315.0408 174.1175)" class="st6 st3 st7">i</text>
		<text transform="matrix(0.9987 5.163877e-02 -5.163877e-02 0.9987 318.5607 174.1675)" class="st6 st3 st7">n</text>
		<text transform="matrix(0.9956 9.376080e-02 -9.376080e-02 0.9956 325.1306 174.5176)" class="st6 st3 st7">g</text>
		<text transform="matrix(0.989 0.148 -0.148 0.989 333.9907 175.4775)" class="st6 st3 st7">f</text>
		<text transform="matrix(0.9833 0.1822 -0.1822 0.9833 337.8208 176.0375)" class="st6 st3 st7">o</text>
		<text transform="matrix(0.9756 0.2193 -0.2193 0.9756 343.9307 177.1975)" class="st6 st3 st7">r</text>
		<text transform="matrix(0.9008 0.4343 -0.4343 0.9008 374.8509 187.4276)" class="st6 st3 st7">e</text>
		<text transform="matrix(0.8822 0.4709 -0.4709 0.8822 379.6409 189.7274)" class="st6 st3 st7">n</text>
		<text transform="matrix(0.8623 0.5063 -0.5063 0.8623 385.4307 192.8476)" class="st6 st3 st7">a</text>
		<text transform="matrix(0.842 0.5395 -0.5395 0.842 389.9508 195.5075)" class="st6 st3 st7">b</text>
		<text transform="matrix(0.824 0.5666 -0.5666 0.824 395.0605 198.8176)" class="st6 st3 st7">l</text>
		<text transform="matrix(0.8105 0.5858 -0.5858 0.8105 397.8207 200.7175)" class="st6 st3 st7">i</text>
		<text transform="matrix(0.7897 0.6135 -0.6135 0.7897 400.6809 202.7676)" class="st6 st3 st7">n</text>
		<text transform="matrix(0.763 0.6464 -0.6464 0.763 405.8607 206.8175)" class="st6 st3 st7">g</text>
		<text transform="matrix(0.7213 0.6926 -0.6926 0.7213 412.5912 212.6475)" class="st6 st3 st7">o</text>
		<text transform="matrix(0.6948 0.7192 -0.7192 0.6948 417.0709 216.9876)" class="st6 st3 st7">r</text>
		<text transform="matrix(0.6431 0.7658 -0.7658 0.6431 422.4705 222.6376)" class="st6 st3 st7">m</text>
		<text transform="matrix(0.6036 0.7973 -0.7973 0.6036 428.4908 229.9075)" class="st6 st3 st7">e</text>
		<text transform="matrix(0.572 0.8203 -0.8203 0.572 431.711 234.1574)" class="st6 st3 st7">d</text>
		<text transform="matrix(0.5448 0.8386 -0.8386 0.5448 435.1503 239.1475)" class="st6 st3 st7">i</text>
		<text transform="matrix(0.5192 0.8546 -0.8546 0.5192 437.0709 242.0974)" class="st6 st3 st7">a</text>
		<text transform="matrix(0.4915 0.8709 -0.8709 0.4915 439.7906 246.6074)" class="st6 st3 st7">t</text>
		<text transform="matrix(0.4687 0.8834 -0.8834 0.4687 441.7706 250.1376)" class="st6 st3 st7">i</text>
		<text transform="matrix(0.4377 0.8991 -0.8991 0.4377 443.4311 253.2275)" class="st6 st3 st7">n</text>
		<text transform="matrix(0.3987 0.9171 -0.9171 0.3987 446.3006 259.1574)" class="st6 st3 st7">g</text>
		<text transform="matrix(0.344 0.939 -0.939 0.344 449.7411 267.3676)" class="st6 st3 st7">c</text>
		<text transform="matrix(0.3072 0.9516 -0.9516 0.3072 451.4707 272.0876)" class="st6 st3 st7">o</text>
		<text transform="matrix(0.2553 0.9669 -0.9669 0.2553 453.4008 277.9675)" class="st6 st3 st7">m</text>
		<text transform="matrix(0.2026 0.9793 -0.9793 0.2026 455.7509 287.0975)" class="st6 st3 st7">p</text>
		<text transform="matrix(0.17 0.9854 -0.9854 0.17 456.9903 293.2275)" class="st6 st3 st7">l</text>
		<text transform="matrix(0.1406 0.9901 -0.9901 0.1406 457.561 296.5075)" class="st6 st3 st7">e</text>
		<text transform="matrix(0.103 0.9947 -0.9947 0.103 458.3005 301.7575)" class="st6 st3 st7">x</text>
		<text transform="matrix(4.117813e-02 0.9992 -0.9992 4.117813e-02 459.1104 310.5574)" class="st6 st3 st7">p</text>
		<text transform="matrix(1.623086e-02 0.9999 -0.9999 1.623086e-02 459.3116 316.7576)" class="st6 st3 st7">r</text>
		<text transform="matrix(-3.298073e-02 0.9995 -0.9995 -3.298073e-02 459.3602 321.5374)" class="st6 st3 st7">o</text>
		<text transform="matrix(-7.114930e-02 0.9975 -0.9975 -7.114930e-02 459.1414 327.7375)" class="st6 st3 st7">c</text>
		<text transform="matrix(-0.1066 0.9943 -0.9943 -0.1066 458.7708 332.7775)" class="st6 st3 st7">e</text>
		<text transform="matrix(-0.1402 0.9901 -0.9901 -0.1402 458.1914 338.0676)" class="st6 st3 st7">s</text>
		<text transform="matrix(-0.1711 0.9853 -0.9853 -0.1711 457.5399 342.5574)" class="st6 st3 st7">s</text>
		<text transform="matrix(-0.2043 0.9789 -0.9789 -0.2043 456.7703 346.9976)" class="st6 st3 st7">e</text>
		<text transform="matrix(-0.2377 0.9713 -0.9713 -0.2377 455.6706 352.2177)" class="st6 st3 st7">s</text>
		<text transform="matrix(-0.2867 0.958 -0.958 -0.2867 453.7515 359.6276)" class="st6 st3 st7">f</text>
		<text transform="matrix(-0.3198 0.9475 -0.9475 -0.3198 452.6613 363.3176)" class="st6 st3 st7">o</text>
		<text transform="matrix(-0.3558 0.9346 -0.9346 -0.3558 450.6412 369.2177)" class="st6 st3 st7">r</text>
		<text transform="matrix(-0.5376 0.8432 -0.8432 -0.5376 437.7799 395.7678)" class="st6 st3 st7">r</text>
		<text transform="matrix(-0.5666 0.824 -0.824 -0.5666 435.2215 399.7773)" class="st6 st3 st7">e</text>
		<text transform="matrix(-0.5997 0.8002 -0.8002 -0.5997 432.2098 404.1679)" class="st6 st3 st7">n</text>
		<text transform="matrix(-0.6337 0.7736 -0.7736 -0.6337 428.2599 409.4079)" class="st6 st3 st7">d</text>
		<text transform="matrix(-0.6633 0.7484 -0.7484 -0.6633 424.4009 414.0971)" class="st6 st3 st7">e</text>
		<text transform="matrix(-0.6856 0.728 -0.728 -0.6856 420.8505 418.0577)" class="st6 st3 st7">i</text>
		<text transform="matrix(-0.7104 0.7038 -0.7038 -0.7104 418.4417 420.647)" class="st6 st3 st7">n</text>
		<text transform="matrix(-0.7395 0.6731 -0.6731 -0.7395 413.7613 425.2573)" class="st6 st3 st7">g</text>
		<text transform="matrix(-0.7743 0.6328 -0.6328 -0.7743 407.0802 431.1675)" class="st6 st3 st7">i</text>
		<text transform="matrix(-0.7957 0.6057 -0.6057 -0.7957 404.3716 433.407)" class="st6 st3 st7">n</text>
		<text transform="matrix(-0.8169 0.5767 -0.5767 -0.8169 399.1007 437.3773)" class="st6 st3 st7">f</text>
		<text transform="matrix(-0.8363 0.5483 -0.5483 -0.8363 395.9516 439.6175)" class="st6 st3 st7">o</text>
		<text transform="matrix(-0.8564 0.5162 -0.5162 -0.8564 390.7302 443.0074)" class="st6 st3 st7">r</text>
		<text transform="matrix(-0.8806 0.4738 -0.4738 -0.8806 386.7013 445.4874)" class="st6 st3 st7">m</text>
		<text transform="matrix(-0.9034 0.4288 -0.4288 -0.9034 378.3614 449.8974)" class="st6 st3 st7">a</text>
		<text transform="matrix(-0.9167 0.3995 -0.3995 -0.9167 373.6214 452.1372)" class="st6 st3 st7">t</text>
		<text transform="matrix(-0.9269 0.3754 -0.3754 -0.9269 369.9016 453.7371)" class="st6 st3 st7">i</text>
		<text transform="matrix(-0.939 0.3438 -0.3438 -0.939 366.6312 455.077)" class="st6 st3 st7">o</text>
		<text transform="matrix(-0.9533 0.302 -0.302 -0.9533 360.8112 457.208)" class="st6 st3 st7">n</text>
		<text transform="matrix(-0.9703 0.2419 -0.2419 -0.9703 351.56 459.9977)" class="st6 st3 st7">a</text>
		<text transform="matrix(-0.9783 0.2072 -0.2072 -0.9783 346.451 461.2567)" class="st6 st3 st7">c</text>
		<text transform="matrix(-0.9849 0.173 -0.173 -0.9849 341.5111 462.2966)" class="st6 st3 st7">c</text>
		<text transform="matrix(-0.9905 0.1378 -0.1378 -0.9905 336.5714 463.1568)" class="st6 st3 st7">e</text>
		<text transform="matrix(-0.9946 0.1042 -0.1042 -0.9946 331.29 463.8772)" class="st6 st3 st7">s</text>
		<text transform="matrix(-0.9971 7.671892e-02 -7.671892e-02 -0.9971 326.7703 464.3374)" class="st6 st3 st7">i</text>
		<text transform="matrix(-0.999 4.396819e-02 -4.396819e-02 -0.999 323.2511 464.6169)" class="st6 st3 st7">b</text>
		<text transform="matrix(-0.9999 1.623072e-02 -1.623072e-02 -0.9999 317.1306 464.8481)" class="st6 st3 st7">l</text>
		<text transform="matrix(-0.9999 -1.727800e-02 1.727800e-02 -0.9999 313.8206 464.9066)" class="st6 st3 st7">e</text>
		<text transform="matrix(-0.9977 -6.836351e-02 6.836351e-02 -0.9977 305.3805 464.638)" class="st6 st3 st7">i</text>
		<text transform="matrix(-0.9947 -0.1028 0.1028 -0.9947 301.8706 464.4166)" class="st6 st3 st7">n</text>
		<text transform="matrix(-0.9463 -0.3234 0.3234 -0.9463 271.1508 458.5482)" class="st6 st3 st7">m</text>
		<text transform="matrix(-0.9286 -0.371 0.371 -0.9286 262.2411 455.4381)" class="st6 st3 st7">a</text>
		<text transform="matrix(-0.9162 -0.4008 0.4008 -0.9162 257.3604 453.4683)" class="st6 st3 st7">t</text>
		<text transform="matrix(-0.9027 -0.4302 0.4302 -0.9027 253.6809 451.8582)" class="st6 st3 st7">e</text>
		<text transform="matrix(-0.8873 -0.4613 0.4613 -0.8873 248.891 449.5577)" class="st6 st3 st7">r</text>
		<text transform="matrix(-0.8737 -0.4865 0.4865 -0.8737 244.6607 447.3368)" class="st6 st3 st7">i</text>
		<text transform="matrix(-0.8586 -0.5126 0.5126 -0.8586 241.5808 445.6273)" class="st6 st3 st7">a</text>
		<text transform="matrix(-0.8431 -0.5377 0.5377 -0.8431 237.0709 442.9183)" class="st6 st3 st7">l</text>
		<text transform="matrix(-0.8301 -0.5576 0.5576 -0.8301 234.2504 441.1066)" class="st6 st3 st7">i</text>
		<text transform="matrix(-0.8131 -0.5821 0.5821 -0.8131 231.3112 439.1377)" class="st6 st3 st7">z</text>
		<text transform="matrix(-0.7954 -0.6061 0.6061 -0.7954 227.1405 436.127)" class="st6 st3 st7">i</text>
		<text transform="matrix(-0.774 -0.6332 0.6332 -0.774 224.3308 434.0075)" class="st6 st3 st7">n</text>
		<text transform="matrix(-0.7465 -0.6654 0.6654 -0.7465 219.2512 429.828)" class="st6 st3 st7">g</text>
		<text transform="matrix(-0.7028 -0.7114 0.7114 -0.7028 212.6705 423.8277)" class="st6 st3 st7">n</text>
		<text transform="matrix(-0.6735 -0.7392 0.7392 -0.6735 208.0808 419.147)" class="st6 st3 st7">a</text>
		<text transform="matrix(-0.6479 -0.7618 0.7618 -0.6479 204.5506 415.2468)" class="st6 st3 st7">r</text>
		<text transform="matrix(-0.6225 -0.7826 0.7826 -0.6225 201.4608 411.6077)" class="st6 st3 st7">r</text>
		<text transform="matrix(-0.5954 -0.8034 0.8034 -0.5954 198.5008 407.8871)" class="st6 st3 st7">a</text>
		<text transform="matrix(-0.5696 -0.8219 0.8219 -0.5696 195.3908 403.6566)" class="st6 st3 st7">t</text>
		<text transform="matrix(-0.5479 -0.8366 0.8366 -0.5479 193.0907 400.3182)" class="st6 st3 st7">i</text>
		<text transform="matrix(-0.5203 -0.854 0.854 -0.5203 191.1605 397.3873)" class="st6 st3 st7">v</text>
		<text transform="matrix(-0.4865 -0.8737 0.8737 -0.4865 188.0308 392.2272)" class="st6 st3 st7">e</text>
		<text transform="matrix(-0.4565 -0.8897 0.8897 -0.4565 185.4607 387.577)" class="st6 st3 st7">s</text>
		<text transform="matrix(-0.4067 -0.9135 0.9135 -0.4067 182.0508 380.7369)" class="st6 st3 st7">a</text>
		<text transform="matrix(-0.3691 -0.9294 0.9294 -0.3691 179.9308 375.968)" class="st6 st3 st7">n</text>
		<text transform="matrix(-0.3282 -0.9446 0.9446 -0.3282 177.5207 369.867)" class="st6 st3 st7">d</text>
		<text transform="matrix(-0.2676 -0.9635 0.9635 -0.2676 174.6107 361.1472)" class="st6 st3 st7">v</text>
		<text transform="matrix(-0.2355 -0.9719 0.9719 -0.2355 173.0307 355.3369)" class="st6 st3 st7">i</text>
		<text transform="matrix(-0.2083 -0.9781 0.9781 -0.2083 172.2007 351.907)" class="st6 st3 st7">s</text>
		<text transform="matrix(-0.181 -0.9835 0.9835 -0.181 171.2707 347.4778)" class="st6 st3 st7">i</text>
		<text transform="matrix(-0.148 -0.989 0.989 -0.148 170.6207 344.0175)" class="st6 st3 st7">o</text>
		<text transform="matrix(-0.1044 -0.9945 0.9945 -0.1044 169.7107 337.8779)" class="st6 st3 st7">n</text>
		<text transform="matrix(-6.644800e-02 -0.9978 0.9978 -6.644800e-02 169.0507 331.3084)" class="st6 st3 st7">s</text>
		<text transform="matrix(-1.623086e-02 -0.9999 0.9999 -1.623086e-02 168.6407 323.7081)" class="st6 st3 st7">o</text>
		<text transform="matrix(2.495562e-02 -0.9997 0.9997 2.495562e-02 168.5907 317.4982)" class="st6 st3 st7">f</text>
		<circle class="st5" cx="314" cy="319.5" r="272.5"/>
		<circle class="st5" cx="316.1" cy="318.3" r="300.6"/>
		<g>
			<text transform="matrix(0.6691 0.7431 -0.7431 0.6691 141.4707 126.3274)" class="st2 st3 st7">Slow economies</text>
			<text transform="matrix(0.4226 0.9063 -0.9063 0.4226 208.411 86.2975)" class="st2 st3 st7">Slower lifestyles</text>
			<text transform="matrix(0.1392 0.9903 -0.9903 0.1392 289.7305 62.3975)" class="st2 st3 st7">Reduced</text>
			<text transform="matrix(0.1392 0.9903 -0.9903 0.1392 276.1104 64.3175)" class="st2 st3 st7">consumption</text>
			<text transform="matrix(0.5446 -0.8387 0.8387 0.5446 160.1307 528.1974)" class="st2 st3 st7">Democratic politics</text>
			<text transform="matrix(0.5446 -0.8387 0.8387 0.5446 171.6607 535.6876)" class="st2 st3 st7">of Nature</text>
			<text transform="matrix(0.766 -0.6428 0.6428 0.766 105.4007 469.1476)" class="st2 st3 st7">Means of</text>
			<text transform="matrix(0.766 -0.6428 0.6428 0.766 114.2407 479.6773)" class="st2 st3 st7">production are</text>
			<text transform="matrix(0.766 -0.6428 0.6428 0.766 123.0906 490.2071)" class="st2 st3 st7">collective</text>
			<text transform="matrix(0.8572 0.515 -0.515 0.8572 101.3307 175.8375)" class="st2 st3 st7">Locally sourced</text>
			<text transform="matrix(0.8572 0.515 -0.515 0.8572 94.2409 187.6275)" class="st2 st3 st7">materials</text>
			<text transform="matrix(0.8572 0.515 -0.515 0.8572 87.1608 199.4176)" class="st2 st3 st7">and thoughts</text>
			<text transform="matrix(0.2924 -0.9563 0.9563 0.2924 219.2507 562.308)" class="st2 st3 st7">Human</text>
			<text transform="matrix(0.2924 -0.9563 0.9563 0.2924 232.4006 566.3275)" class="st2 st3 st7">activities that</text>
			<text transform="matrix(0.2924 -0.9563 0.9563 0.2924 245.5608 570.347)" class="st2 st3 st7">respect Nature’s</text>
			<text transform="matrix(0.2924 -0.9563 0.9563 0.2924 258.7107 574.3676)" class="st2 st3 st7">rights</text>
			<text transform="matrix(6.123234e-17 -1 1 6.123234e-17 321.1207 583.3872)" class="st2 st3 st7">Humans and Nature</text>
			<text transform="matrix(6.123234e-17 -1 1 6.123234e-17 334.8707 583.3872)" class="st2 st3 st7">relationship</text>
			<text transform="matrix(6.123234e-17 -1 1 6.123234e-17 307.0007 583.1685)" class="st2 st3 st7">Mutually enhanced</text>
			<text transform="matrix(0.9703 0.2419 -0.2419 0.9703 68.0307 251.6276)" class="st2 st3 st7">Self sufficient</text>
			<text transform="matrix(0.9703 0.2419 -0.2419 0.9703 64.7006 264.9774)" class="st2 st3 st7">communities</text>
			<text transform="matrix(1 0 0 1 56.8307 327.4074)" class="st2 st3 st7">End of predatory</text>
			<text transform="matrix(1 0 0 1 56.8307 341.1574)" class="st2 st3 st7">extraction</text>
			<text transform="matrix(0.9336 -0.3584 0.3584 0.9336 66.2707 400.0476)" class="st2 st3 st7">Consumption of</text>
			<text transform="matrix(0.9336 -0.3584 0.3584 0.9336 71.2007 412.8875)" class="st2 st3 st7">Nature controlled</text>
			<text transform="matrix(0.9336 -0.3584 0.3584 0.9336 76.1306 425.7273)" class="st2 st3 st7">by the people</text>
			<g>
				<text transform="matrix(0.9648 -0.263 0.263 0.9648 483.9107 278.8076)" class="st2 st3 st7">Deep respect of all </text>
				<text transform="matrix(0.9648 -0.263 0.263 0.9648 487.5274 292.0732)" class="st2 st3 st7">Nature’s</text>
				<text transform="matrix(0.9648 -0.263 0.263 0.9648 526.5307 281.8576)" class="st2 st3 st7">beings</text>
			</g>
			<text transform="matrix(0.9979 6.540313e-02 -6.540313e-02 0.9979 490.6407 330.0475)" class="st2 st3 st7">Valuing life creation</text>
			<text transform="matrix(0.9979 6.540313e-02 -6.540313e-02 0.9979 489.7408 343.7775)" class="st2 st3 st7">and maintenance</text>
			<text transform="matrix(0.8457 -0.5336 0.5336 0.8457 472.9906 233.8375)" class="st2 st3 st7">A culture of care</text>
			<text transform="matrix(0.5628 0.8266 -0.8266 0.5628 429.6205 461.5075)" class="st2 st3 st7">Autonomous</text>
			<text transform="matrix(0.5628 0.8266 -0.8266 0.5628 418.2504 469.2475)" class="st2 st3 st7">communities</text>
			<text transform="matrix(0.5628 0.8266 -0.8266 0.5628 406.8803 476.9875)" class="st2 st3 st7">and enviroment</text>
			<text transform="matrix(0.3132 0.9497 -0.9497 0.3132 363.8802 490.3075)" class="st2 st3 st7">Righteous Nature</text>
			<text transform="matrix(0.6915 -0.7224 0.7224 0.6915 441.2508 181.8071)" class="st2 st3 st7">Natural Capital </text>
			<text transform="matrix(0.6915 -0.7224 0.7224 0.6915 451.1831 191.3159)" class="st2 st3 st7">understanding</text>
			<text transform="matrix(0.8116 0.5842 -0.5842 0.8116 458.2106 429.0076)" class="st2 st3 st7">Respect of Nature</text>
			<text transform="matrix(0.8116 0.5842 -0.5842 0.8116 450.1808 440.1675)" class="st2 st3 st7">as a being</text>
			<text transform="matrix(0.481 -0.8767 0.8767 0.481 398.1106 152.6875)" class="st2 st3 st7">Holistic wealth</text>
			<text transform="matrix(0.481 -0.8767 0.8767 0.481 410.1707 159.2979)" class="st2 st3 st7">accounting</text>
			<text transform="matrix(0.9351 0.3543 -0.3543 0.9351 486.6707 381.5076)" class="st2 st3 st7">A happy and</text>
			<text transform="matrix(0.9351 0.3543 -0.3543 0.9351 481.8006 394.3676)" class="st2 st3 st7">balanced life</text>
			<text transform="matrix(0.1693 -0.9856 0.9856 0.1693 343.9508 131.3671)" class="st2 st3 st7">New value</text>
			<text transform="matrix(0.1693 -0.9856 0.9856 0.1693 357.5107 133.6972)" class="st2 st3 st7"> concept</text>
		</g>
		<circle class="st2" cx="269.1" cy="602.9" r="3.7"/>
		<circle class="st2" cx="601.7" cy="330.7" r="3.7"/>
		<circle class="st2" cx="31" cy="353.9" r="4.1"/>
		<circle class="st6" cx="166.8" cy="297.2" r="3.7"/>
		<circle class="st6" cx="362.8" cy="179.6" r="3.7"/>
		<circle class="st6" cx="282.3" cy="464.3" r="3.7"/>
		<circle class="st6" cx="445.6" cy="384.9" r="3.7"/>
		<circle class="st2" cx="128.6" cy="104" r="3.7"/>
	</g>
</g>
<path class="st0" d="M313,348.7c15.9,0,28.8-12.9,28.8-28.8s-12.9-28.8-28.8-28.8s-28.8,12.9-28.8,28.8S297.1,348.7,313,348.7z"/>
<g>
	<path class="st6" d="M294.2,317.4c0-0.1,0-0.2,0.1-0.3s0.1-0.3,0.1-0.4c0-0.2,0.1-0.3,0.1-0.5c0-0.2,0-0.3,0-0.5v-4.1
		c0-0.2,0-0.3,0-0.5c0-0.2,0-0.3-0.1-0.5c0-0.2-0.1-0.3-0.1-0.4s-0.1-0.2-0.1-0.3s0-0.1,0-0.1v0h3.4c1.1,0,2,0.4,2.7,1.1
		s1.1,1.6,1.1,2.8s-0.4,2.1-1.1,2.8s-1.6,1.1-2.7,1.1h-3.4v0C294.2,317.5,294.2,317.5,294.2,317.4L294.2,317.4z M296.9,317.1
		c0.4,0,0.7-0.1,1-0.3c0.3-0.2,0.5-0.5,0.6-0.8s0.3-0.7,0.3-1.1c0.1-0.4,0.1-0.8,0.1-1.2s0-0.8-0.1-1.2s-0.2-0.7-0.3-1.1
		s-0.4-0.6-0.6-0.8c-0.3-0.2-0.6-0.3-1-0.3h-0.2v6.8H296.9z"/>
	<path class="st6" d="M303.3,312.7c0.5-0.5,1.2-0.7,2.1-0.7c0.5,0,0.9,0.1,1.3,0.2s0.6,0.4,0.8,0.7c0.2,0.3,0.3,0.6,0.4,0.9
		c0.1,0.3,0.1,0.6,0.1,1h-3.3c0.1,1.1,0.7,1.6,1.6,1.6c0.5,0,1-0.2,1.6-0.5l0,0c-0.1,0.4-0.4,0.8-0.9,1.2c-0.5,0.4-1,0.6-1.7,0.6
		c-0.3,0-0.7-0.1-1-0.2c-0.3-0.1-0.6-0.3-0.9-0.5s-0.5-0.5-0.7-0.9c-0.2-0.4-0.3-0.8-0.3-1.3C302.5,313.9,302.8,313.2,303.3,312.7
		L303.3,312.7z M304.7,314c0,0.1,0,0.2,0,0.4l1.4-0.4c0-1-0.2-1.5-0.7-1.5S304.7,313,304.7,314L304.7,314L304.7,314z"/>
	<path class="st6" d="M309.3,313.7c0-0.5,0.2-1,0.7-1.3s1-0.5,1.8-0.5c0.7,0,1.4,0.1,2,0.4v1.7h0c-0.2-0.2-0.4-0.4-0.5-0.6
		s-0.3-0.3-0.5-0.5s-0.4-0.3-0.6-0.4c-0.2-0.1-0.4-0.1-0.6-0.1c-0.2,0-0.3,0-0.4,0.1s-0.2,0.2-0.2,0.3c0,0.1,0,0.2,0.1,0.3
		c0.1,0.1,0.2,0.2,0.3,0.2c0.2,0.1,0.3,0.2,0.4,0.2c0.1,0,0.3,0.1,0.6,0.2c0.6,0.2,1.1,0.5,1.4,0.8s0.4,0.7,0.4,1.1
		c0,0.6-0.2,1.1-0.7,1.4s-1,0.5-1.7,0.5c-0.7,0-1.4-0.1-2.2-0.4v-1.8h0c0.1,0.1,0.2,0.2,0.4,0.4c0.2,0.2,0.4,0.4,0.5,0.5
		s0.2,0.2,0.4,0.4c0.2,0.1,0.4,0.2,0.5,0.3s0.3,0.1,0.5,0.1c0.2,0,0.3,0,0.5-0.1c0.1-0.1,0.2-0.2,0.2-0.4c0-0.2-0.2-0.4-0.5-0.6
		c-0.1-0.1-0.4-0.2-0.9-0.3C309.9,315.3,309.3,314.6,309.3,313.7L309.3,313.7z"/>
	<path class="st6" d="M315.4,317.4c0-0.1,0-0.2,0.1-0.3s0.1-0.3,0.1-0.4c0-0.2,0.1-0.3,0.1-0.5c0-0.2,0-0.3,0-0.5v-1.8
		c0-0.2,0-0.3,0-0.5c0-0.2,0-0.3-0.1-0.5s-0.1-0.3-0.1-0.4c0-0.1-0.1-0.2-0.1-0.3c0-0.1,0-0.1,0-0.1v0h2.4v3.7c0,0.2,0,0.3,0,0.5
		c0,0.2,0,0.3,0.1,0.5c0,0.2,0.1,0.3,0.1,0.4c0,0.1,0.1,0.2,0.1,0.3s0,0.1,0,0.1v0h-2.7v0C315.4,317.5,315.4,317.5,315.4,317.4
		L315.4,317.4z M315.8,309.6c0.2-0.2,0.5-0.3,0.9-0.3s0.6,0.1,0.9,0.3s0.4,0.5,0.4,0.8s-0.1,0.6-0.4,0.8c-0.2,0.2-0.5,0.4-0.9,0.4
		s-0.6-0.1-0.9-0.3s-0.4-0.5-0.4-0.8S315.5,309.8,315.8,309.6L315.8,309.6z"/>
	<path class="st6" d="M319.2,313.9c0-0.4,0.1-0.8,0.4-1.1c0.3-0.3,0.6-0.5,1-0.6c0.4-0.1,0.7-0.2,1.1-0.2c0.5,0,0.9,0.1,1.3,0.2
		c0.3-0.8,0.8-1.2,1.5-1.2c0.1,0,0.2,0,0.3,0l-0.3,1.5l0,0c-0.3-0.2-0.5-0.2-0.8-0.2c-0.1,0-0.3,0-0.4,0.1c0.6,0.3,0.9,0.9,0.9,1.5
		c0,0.6-0.3,1.1-0.8,1.4c-0.5,0.3-1.1,0.5-1.7,0.5c-0.3,0-0.6,0-0.9-0.1c-0.3,0.1-0.4,0.2-0.4,0.4c0,0.1,0,0.1,0.1,0.2
		c0.1,0,0.2,0,0.5,0h1.8c0.6,0,1.1,0.1,1.4,0.4c0.3,0.3,0.5,0.7,0.5,1.2c0,1.2-1,1.8-2.9,1.8c-0.2,0-0.4,0-0.5,0s-0.4,0-0.6-0.1
		c-0.2-0.1-0.5-0.1-0.7-0.2c-0.2-0.1-0.4-0.2-0.5-0.3c-0.1-0.2-0.2-0.3-0.2-0.5c0-0.3,0.1-0.5,0.3-0.7c-0.2-0.2-0.3-0.5-0.3-0.8
		c0-0.7,0.4-1.1,1.2-1.3C319.6,315.3,319.2,314.7,319.2,313.9L319.2,313.9z M320.2,318.2c0.1,0.7,0.7,1,1.6,1c0.4,0,0.8,0,1.1-0.1
		s0.5-0.2,0.5-0.4c0-0.1-0.1-0.2-0.2-0.3s-0.3-0.1-0.6-0.1h-1.8C320.6,318.3,320.4,318.2,320.2,318.2L320.2,318.2z M321.1,313.9
		c0,1,0.2,1.5,0.5,1.5s0.6-0.5,0.6-1.5s-0.2-1.5-0.6-1.5S321.1,313,321.1,313.9z"/>
	<path class="st6" d="M325.6,317.5c0,0,0-0.1,0-0.1s0-0.2,0.1-0.3c0-0.1,0.1-0.3,0.1-0.4c0-0.2,0.1-0.3,0.1-0.5c0-0.2,0-0.3,0-0.5
		v-1.8c0-0.2,0-0.3,0-0.5c0-0.2,0-0.3-0.1-0.5s-0.1-0.3-0.1-0.4s-0.1-0.2-0.1-0.3c0-0.1,0-0.1,0-0.1v0h2.4v0.9
		c0.2-0.3,0.4-0.5,0.7-0.7c0.3-0.2,0.6-0.3,1-0.3c0.5,0,0.9,0.2,1.3,0.5s0.5,0.8,0.5,1.3v1.9c0,0.2,0,0.3,0,0.5c0,0.2,0,0.3,0.1,0.5
		c0,0.2,0.1,0.3,0.1,0.4s0.1,0.2,0.1,0.3s0,0.1,0,0.1v0h-2.7v0c0,0,0-0.1,0-0.1s0-0.2,0.1-0.3c0-0.1,0.1-0.3,0.1-0.4
		c0-0.2,0.1-0.3,0.1-0.5c0-0.2,0-0.3,0-0.5v-1.6c0-0.6-0.3-0.8-0.8-0.8h0c-0.2,0-0.4,0.1-0.7,0.2v2.3c0,0.2,0,0.3,0,0.5
		c0,0.2,0,0.3,0.1,0.5c0,0.2,0.1,0.3,0.1,0.4s0.1,0.2,0.1,0.3s0,0.1,0,0.1v0L325.6,317.5L325.6,317.5L325.6,317.5z"/>
	<path class="st6" d="M302.1,328.8c0-0.5,0.2-1,0.6-1.3c0.4-0.3,0.9-0.5,1.4-0.5c0.4,0,0.9,0.1,1.2,0.2v-0.6c0-0.2,0-0.4,0-0.5
		s0-0.2,0-0.4c0-0.1,0-0.2-0.1-0.3s-0.1-0.1-0.1-0.1c-0.2,0-0.5,0.1-0.9,0.4c-0.4,0.2-0.8,0.5-1.1,0.8l-0.5,0.4h0v-1.7
		c1.1-0.2,2-0.4,2.7-0.4s1.3,0.2,1.6,0.5c0.3,0.3,0.5,0.8,0.5,1.4v1.8c0,0.4,0,0.6,0.1,0.7s0.1,0.2,0.2,0.2c0.1,0,0.2,0,0.3-0.1l0,0
		c0,0.3-0.1,0.6-0.4,0.8s-0.5,0.3-0.9,0.3c-0.7,0-1.1-0.3-1.3-0.9c-0.1,0.2-0.3,0.5-0.6,0.7c-0.3,0.2-0.6,0.3-1,0.3
		c-0.5,0-1-0.2-1.3-0.5S302,329.3,302.1,328.8L302.1,328.8z M304.4,329.2c0.1,0.2,0.3,0.3,0.6,0.3c0.1,0,0.3-0.1,0.4-0.1
		c0-0.1,0-0.2,0-0.4v-1.4c-0.1,0-0.2,0-0.3,0c-0.6,0-0.9,0.3-0.9,0.9C304.2,328.8,304.2,329,304.4,329.2L304.4,329.2z"/>
	<path class="st6" d="M309,326.7c0-0.5,0.2-1,0.7-1.3s1-0.5,1.8-0.5c0.7,0,1.4,0.1,2,0.4v1.7h0c-0.2-0.2-0.4-0.4-0.5-0.6
		s-0.3-0.3-0.5-0.5s-0.4-0.3-0.6-0.4c-0.2-0.1-0.4-0.1-0.6-0.1c-0.2,0-0.3,0-0.4,0.1c-0.1,0.1-0.2,0.2-0.2,0.3c0,0.1,0,0.2,0.1,0.3
		c0.1,0.1,0.2,0.2,0.3,0.2c0.2,0.1,0.3,0.2,0.4,0.2c0.1,0,0.3,0.1,0.6,0.2c0.6,0.2,1.1,0.5,1.4,0.8s0.4,0.7,0.4,1.1
		c0,0.6-0.2,1.1-0.7,1.4s-1,0.5-1.7,0.5c-0.7,0-1.4-0.1-2.2-0.4v-1.8h0c0.1,0.1,0.2,0.2,0.4,0.4c0.2,0.2,0.4,0.4,0.5,0.5
		s0.2,0.2,0.4,0.4c0.2,0.1,0.4,0.2,0.5,0.3s0.3,0.1,0.5,0.1c0.2,0,0.3,0,0.5-0.1c0.1-0.1,0.2-0.2,0.2-0.4c0-0.2-0.2-0.4-0.5-0.6
		c-0.1-0.1-0.4-0.2-0.9-0.3C309.6,328.2,309,327.6,309,326.7L309,326.7z"/>
	<path class="st6" d="M317.9,328.8c0-0.5,0.2-1,0.6-1.3c0.4-0.3,0.9-0.5,1.4-0.5c0.4,0,0.9,0.1,1.2,0.2v-0.6c0-0.2,0-0.4,0-0.5
		s0-0.2,0-0.4c0-0.1,0-0.2-0.1-0.3s-0.1-0.1-0.1-0.1c-0.2,0-0.5,0.1-0.9,0.4s-0.8,0.5-1.1,0.8l-0.5,0.4h0v-1.7
		c1.1-0.2,2-0.4,2.7-0.4s1.3,0.2,1.6,0.5c0.3,0.3,0.5,0.8,0.5,1.4v1.8c0,0.4,0,0.6,0.1,0.7s0.1,0.2,0.2,0.2c0.1,0,0.2,0,0.3-0.1l0,0
		c0,0.3-0.1,0.6-0.4,0.8s-0.5,0.3-0.9,0.3c-0.7,0-1.1-0.3-1.3-0.9c-0.1,0.2-0.3,0.5-0.6,0.7c-0.3,0.2-0.6,0.3-1,0.3
		c-0.5,0-1-0.2-1.3-0.5S317.9,329.3,317.9,328.8L317.9,328.8z M320.2,329.2c0.1,0.2,0.3,0.3,0.6,0.3c0.1,0,0.3-0.1,0.4-0.1
		c0-0.1,0-0.2,0-0.4v-1.4c-0.1,0-0.2,0-0.3,0c-0.6,0-0.9,0.3-0.9,0.9C320,328.8,320.1,329,320.2,329.2L320.2,329.2z"/>
</g>
<g>
	<line class="st5" x1="296.9" y1="182.3" x2="312.3" y2="298"/>
	<line class="st5" x1="335.6" y1="300.2" x2="420" y2="227"/>
	<line class="st5" x1="448" y1="352.7" x2="341.6" y2="324.9"/>
	<line class="st5" x1="327.4" y1="344.1" x2="374.5" y2="442.8"/>
	<line class="st5" x1="265.5" y1="447.1" x2="305" y2="344.3"/>
	<line class="st5" x1="287.4" y1="323.3" x2="179.5" y2="345.1"/>
	<line class="st5" x1="206.6" y1="232.9" x2="294.2" y2="303.4"/>
</g>
<g>
	<g>
		<text transform="matrix(-0.9666 0.2561 -0.2561 -0.9666 340.6006 410.3472)" class="st2 st3 st8">n</text>
		<text transform="matrix(-0.9793 0.2023 -0.2023 -0.9793 334.66 411.9076)" class="st2 st3 st8">u</text>
		<text transform="matrix(-0.9878 0.1557 -0.1557 -0.9878 328.8812 413.077)" class="st2 st3 st8">r</text>
		<text transform="matrix(-0.9929 0.1186 -0.1186 -0.9929 324.461 413.7577)" class="st2 st3 st8">t</text>
		<text transform="matrix(-0.9972 7.532693e-02 -7.532693e-02 -0.9972 320.7415 414.2182)" class="st2 st3 st8">u</text>
		<text transform="matrix(-0.9996 2.879385e-02 -2.879385e-02 -0.9996 314.8603 414.6276)" class="st2 st3 st8">r</text>
		<text transform="matrix(-0.9999 -1.413665e-02 1.413665e-02 -0.9999 310.4012 414.7573)" class="st2 st3 st8">e</text>
		<text transform="matrix(-0.9984 -5.738967e-02 5.738967e-02 -0.9984 305.401 414.6684)" class="st2 st3 st8">r</text>
		<text transform="matrix(-0.9914 -0.1309 0.1309 -0.9914 298.071 414.1469)" class="st2 st3 st8">o</text>
		<text transform="matrix(-0.9847 -0.174 0.174 -0.9847 292.3011 413.3471)" class="st2 st3 st8">f</text>
		<text transform="matrix(-0.9582 0.2862 -0.2862 -0.9582 337.7914 396.1378)" class="st2 st3 st8">c</text>
		<text transform="matrix(-0.9734 0.2292 -0.2292 -0.9734 333.3012 397.4777)" class="st2 st3 st8">o</text>
		<text transform="matrix(-0.9837 0.18 -0.18 -0.9837 327.6299 398.7668)" class="st2 st3 st8">l</text>
		<text transform="matrix(-0.9894 0.1454 -0.1454 -0.9894 324.541 399.3283)" class="st2 st3 st8">l</text>
		<text transform="matrix(-0.9949 0.1011 -0.1011 -0.9949 321.4905 399.7879)" class="st2 st3 st8">e</text>
		<text transform="matrix(-0.9988 4.797813e-02 -4.797813e-02 -0.9988 316.552 400.2779)" class="st2 st3 st8">c</text>
		<text transform="matrix(-1 6.980145e-04 -6.980145e-04 -1 311.8308 400.4785)" class="st2 st3 st8">t</text>
		<text transform="matrix(-0.9993 -3.856233e-02 3.856233e-02 -0.9993 308.0706 400.4683)" class="st2 st3 st8">i</text>
		<text transform="matrix(-0.9961 -8.854664e-02 8.854664e-02 -0.9961 304.7909 400.3584)" class="st2 st3 st8">v</text>
		<text transform="matrix(-0.989 -0.148 0.148 -0.989 299.1808 399.8371)" class="st2 st3 st8">e</text>
		<text transform="matrix(-0.9665 0.2566 -0.2566 -0.9665 331.1008 383.2077)" class="st2 st3 st8">v</text>
		<text transform="matrix(-0.9812 0.193 -0.193 -0.9812 325.6604 384.5979)" class="st2 st3 st8">i</text>
		<text transform="matrix(-0.9902 0.1395 -0.1395 -0.9902 322.4801 385.2266)" class="st2 st3 st8">s</text>
		<text transform="matrix(-0.9964 8.524302e-02 -8.524302e-02 -0.9964 318.2816 385.7881)" class="st2 st3 st8">i</text>
		<text transform="matrix(-0.9998 2.041890e-02 -2.041890e-02 -0.9998 315.0507 386.0971)" class="st2 st3 st8">o</text>
		<text transform="matrix(-0.9978 -6.627395e-02 6.627395e-02 -0.9978 309.2803 386.1984)" class="st2 st3 st8">n</text>
		<text transform="matrix(-0.9899 -0.1414 0.1414 -0.9899 303.2009 385.7479)" class="st2 st3 st8">s</text>
	</g>
	<g>
		<path class="st2" d="M316.4,378c-0.6,0.1-1.1-0.1-1.4-0.5s-0.6-0.8-0.6-1.2c-0.1-0.6,0.1-1.1,0.5-1.6c0.4-0.5,0.8-0.8,1.4-0.8
			c0.2,0,0.4,0,0.6,0c0.2,0,0.3,0,0.4,0c0,0,0.1,0,0.2-0.1s0.1-0.1,0.1-0.1c0,0,0.1,0,0.1,0c0,0,0.1,0,0.1,0.1c0,0,0,0.1,0,0.2
			s0,0.2,0,0.4c0,0.2,0,0.4,0,0.6l0.4,3.8c0,0.2,0.1,0.4,0.1,0.6c0,0.1,0.2,0.1,0.5,0.1h0.1c0,0,0.1,0,0.1,0.1c0,0.1,0,0.2,0,0.2
			c-0.2,0-0.4,0.1-0.5,0.1s-0.3,0.1-0.4,0.1s-0.2,0.1-0.2,0.1s-0.1,0.1-0.1,0.1l0,0h0c0,0,0,0-0.1,0c0,0,0-0.1-0.1-0.1
			c0-0.2,0-0.5,0-0.8l-0.2-1.6c0-0.1,0-0.1,0-0.1c0,0,0,0,0,0c-0.1,0.1-0.2,0.2-0.4,0.2C316.7,377.9,316.6,378,316.4,378L316.4,378z
			 M316.7,377.5c0.2,0,0.3-0.1,0.4-0.2c0.1-0.1,0.2-0.2,0.1-0.4l-0.2-2.1c0-0.2-0.1-0.3-0.3-0.4c-0.2-0.1-0.4-0.1-0.6-0.1
			c-0.4,0-0.6,0.2-0.8,0.6s-0.2,0.7-0.2,1.2c0,0.5,0.2,0.9,0.5,1.1S316.3,377.6,316.7,377.5L316.7,377.5z"/>
		<path class="st2" d="M312.5,378.2c-0.1,0-0.2,0-0.3,0s-0.2,0-0.3,0s-0.2,0-0.3,0c0,0,0-0.1,0-0.1c0-0.1,0-0.1,0-0.1
			c0,0,0.1,0,0.2-0.1c0.1-0.1,0.2-0.1,0.2-0.1v0c0-0.1-0.4-0.9-1-2.4l-0.7,2c0,0.1-0.1,0.2-0.1,0.3c0,0.1,0,0.2,0.1,0.2
			s0.2,0.1,0.4,0.1c0,0,0,0,0,0.1c0,0.1,0,0.1,0,0.2c-0.1,0-0.2,0-0.4,0c-0.2,0-0.3,0-0.5,0c-0.1,0-0.3,0-0.4,0s-0.3,0-0.4,0
			c0,0,0-0.1,0-0.1c0-0.1,0-0.1,0-0.1c0.1,0,0.2,0,0.3-0.1s0.2-0.2,0.3-0.3l1.6-4.5c0.1-0.4,0.3-0.7,0.5-0.8
			c0.2-0.2,0.3-0.2,0.5-0.2c0.1,0,0.2,0,0.3,0.1c0.1,0.1,0.1,0.2,0.1,0.2c0,0.1,0,0.2-0.1,0.3c-0.5,0-0.8,0.3-1,0.8
			c0,0.1-0.1,0.2-0.1,0.3s-0.1,0.2-0.1,0.3l1.4,3.2c0.1,0.2,0.1,0.2,0.2,0.3c0.1,0.1,0.1,0.1,0.3,0.1c0.1,0,0.2,0.1,0.3,0.1
			c0,0,0,0,0,0.1c0,0.1,0,0.1,0,0.2C312.9,378.2,312.5,378.2,312.5,378.2L312.5,378.2z"/>
	</g>
</g>
<g>
	<g>
		<text transform="matrix(-0.8418 -0.5398 0.5398 -0.8418 258.6905 406.178)" class="st2 st3 st8">d</text>
		<text transform="matrix(-0.8146 -0.58 0.58 -0.8146 253.9209 403.0978)" class="st2 st3 st8">e</text>
		<text transform="matrix(-0.7766 -0.63 0.63 -0.7766 249.8708 400.2768)" class="st2 st3 st8">m</text>
		<text transform="matrix(-0.7356 -0.6774 0.6774 -0.7356 243.0406 394.6373)" class="st2 st3 st8">a</text>
		<text transform="matrix(-0.7083 -0.7059 0.7059 -0.7083 239.4507 391.2968)" class="st2 st3 st8">t</text>
		<text transform="matrix(-0.6796 -0.7336 0.7336 -0.6796 236.7708 388.6368)" class="st2 st3 st8">e</text>
		<text transform="matrix(-0.6473 -0.7622 0.7622 -0.6473 233.3907 384.9671)" class="st2 st3 st8">r</text>
		<text transform="matrix(-0.6199 -0.7847 0.7847 -0.6199 230.5207 381.5576)" class="st2 st3 st8">i</text>
		<text transform="matrix(-0.5898 -0.8076 0.8076 -0.5898 228.4609 378.9475)" class="st2 st3 st8">a</text>
		<text transform="matrix(-0.5598 -0.8286 0.8286 -0.5598 225.5808 374.9779)" class="st2 st3 st8">l</text>
		<text transform="matrix(-0.5351 -0.8448 0.8448 -0.5351 223.8407 372.3885)" class="st2 st3 st8">i</text>
		<text transform="matrix(-0.503 -0.8643 0.8643 -0.503 222.0605 369.5771)" class="st2 st3 st8">z</text>
		<text transform="matrix(-0.4636 -0.886 0.886 -0.4636 219.6509 365.4272)" class="st2 st3 st8">e</text>
		<text transform="matrix(-0.4247 -0.9053 0.9053 -0.4247 217.3608 361.017)" class="st2 st3 st8">r</text>
		<text transform="matrix(-0.878 -0.4787 0.4787 -0.878 270.5203 397.8878)" class="st2 st3 st8">o</text>
		<text transform="matrix(-0.8514 -0.5246 0.5246 -0.8514 265.4107 395.0578)" class="st2 st3 st8">f</text>
		<text transform="matrix(-0.8035 -0.5952 0.5952 -0.8035 259.9409 391.5768)" class="st2 st3 st8">u</text>
		<text transform="matrix(-0.762 -0.6476 0.6476 -0.762 255.2504 388.0979)" class="st2 st3 st8">n</text>
		<text transform="matrix(-0.7157 -0.6984 0.6984 -0.7157 250.571 384.0974)" class="st2 st3 st8">n</text>
		<text transform="matrix(-0.6712 -0.7413 0.7413 -0.6712 246.2109 379.797)" class="st2 st3 st8">e</text>
		<text transform="matrix(-0.63 -0.7766 0.7766 -0.63 242.8806 376.0982)" class="st2 st3 st8">c</text>
		<text transform="matrix(-0.5872 -0.8094 0.8094 -0.5872 239.9407 372.4574)" class="st2 st3 st8">e</text>
		<text transform="matrix(-0.5446 -0.8387 0.8387 -0.5446 237.0309 368.408)" class="st2 st3 st8">s</text>
		<text transform="matrix(-0.5041 -0.8637 0.8637 -0.5041 234.7405 364.8566)" class="st2 st3 st8">s</text>
		<text transform="matrix(-0.459 -0.8885 0.8885 -0.459 232.6107 361.2066)" class="st2 st3 st8">a</text>
		<text transform="matrix(-0.4115 -0.9114 0.9114 -0.4115 230.3807 356.8569)" class="st2 st3 st8">r</text>
		<text transform="matrix(-0.361 -0.9326 0.9326 -0.361 228.5507 352.7967)" class="st2 st3 st8">y</text>
		<text transform="matrix(-0.8816 -0.4721 0.4721 -0.8816 274.1704 385.5074)" class="st2 st3 st9">p</text>
		<text transform="matrix(-0.8463 -0.5327 0.5327 -0.8463 269.3911 382.9076)" class="st2 st3 st9">r</text>
		<text transform="matrix(-0.8068 -0.5909 0.5909 -0.8068 265.8603 380.6967)" class="st2 st3 st9">o</text>
		<text transform="matrix(-0.7581 -0.6521 0.6521 -0.7581 261.4911 377.4674)" class="st2 st3 st9">d</text>
		<text transform="matrix(-0.7045 -0.7097 0.7097 -0.7045 257.481 374.008)" class="st2 st3 st9">u</text>
		<text transform="matrix(-0.6514 -0.7587 0.7587 -0.6514 253.6208 370.0668)" class="st2 st3 st9">c</text>
		<text transform="matrix(-0.6061 -0.7954 0.7954 -0.6061 250.7508 366.6972)" class="st2 st3 st9">t</text>
		<text transform="matrix(-0.5617 -0.8274 0.8274 -0.5617 248.6207 363.8879)" class="st2 st3 st9">s</text>
		<text transform="matrix(-0.4738 -0.8806 0.8806 -0.4738 244.9906 358.278)" class="st2 st3 st9">a</text>
		<text transform="matrix(-0.4056 -0.914 0.914 -0.4056 242.8306 354.2765)" class="st2 st3 st9">n</text>
		<text transform="matrix(-0.3295 -0.9441 0.9441 -0.3295 240.5107 348.9967)" class="st2 st3 st9">d</text>
		<text transform="matrix(-0.882 -0.4713 0.4713 -0.882 284.1803 377.9277)" class="st2 st3 st8">o</text>
		<text transform="matrix(-0.8299 -0.5579 0.5579 -0.8299 279.1005 375.2677)" class="st2 st3 st8">w</text>
		<text transform="matrix(-0.7682 -0.6402 0.6402 -0.7682 272.4409 370.7077)" class="st2 st3 st8">n</text>
		<text transform="matrix(-0.698 -0.7161 0.7161 -0.698 267.7508 366.8267)" class="st2 st3 st8">w</text>
		<text transform="matrix(-0.627 -0.779 0.779 -0.627 262.1606 360.9676)" class="st2 st3 st8">e</text>
		<text transform="matrix(-0.5723 -0.8201 0.8201 -0.5723 259.0907 357.1066)" class="st2 st3 st8">r</text>
		<text transform="matrix(-0.5192 -0.8546 0.8546 -0.5192 256.5605 353.468)" class="st2 st3 st8">s</text>
		<text transform="matrix(-0.4541 -0.8909 0.8909 -0.4541 254.3806 349.9175)" class="st2 st3 st8">h</text>
		<text transform="matrix(-0.3922 -0.9199 0.9199 -0.3922 251.7106 344.5278)" class="st2 st3 st8">i</text>
		<text transform="matrix(-0.3299 -0.944 0.944 -0.3299 250.4107 341.5576)" class="st2 st3 st8">p</text>
	</g>
	<g>
		<path class="st2" d="M271,358.5c-0.4-0.4-0.6-0.9-0.5-1.4c0-0.5,0.2-0.9,0.5-1.3c0.4-0.4,0.9-0.6,1.5-0.6c0.6,0,1.1,0.2,1.5,0.5
			c0.2,0.2,0.3,0.3,0.4,0.5s0.2,0.3,0.2,0.3c0,0,0.1,0.1,0.2,0.1s0.1,0.1,0.1,0.1c0,0,0,0.1,0.1,0.1c0,0.1,0,0.1,0,0.1
			c0,0,0,0-0.1,0.1c-0.1,0.1-0.2,0.1-0.3,0.3c-0.1,0.1-0.3,0.2-0.5,0.4l-2.7,2.7c-0.1,0.2-0.3,0.3-0.4,0.5c0,0.1,0,0.2,0.2,0.4
			l0.1,0.1c0,0,0,0.1,0,0.1c-0.1,0.1-0.1,0.1-0.1,0.1c-0.1-0.1-0.3-0.2-0.4-0.3c-0.1-0.1-0.2-0.2-0.3-0.2c-0.1,0-0.2-0.1-0.2-0.1
			c-0.1,0-0.1,0-0.1-0.1h0l0,0c0,0,0-0.1,0-0.1c0,0,0-0.1,0-0.1c0.2-0.1,0.4-0.3,0.6-0.5l1.1-1.1c0,0,0.1-0.1,0-0.1c0,0,0,0,0,0
			c-0.1,0-0.2-0.1-0.4-0.1C271.2,358.7,271,358.6,271,358.5L271,358.5z M271.5,358.4c0.1,0.1,0.3,0.2,0.4,0.2s0.3,0,0.4-0.2l1.5-1.5
			c0.1-0.1,0.2-0.3,0.1-0.5c-0.1-0.2-0.2-0.4-0.4-0.5c-0.2-0.2-0.6-0.3-0.9-0.2c-0.4,0.1-0.7,0.3-1,0.6c-0.3,0.3-0.5,0.7-0.6,1.1
			S271.2,358.1,271.5,358.4L271.5,358.4z"/>
		<path class="st2" d="M268.3,355.5c-0.1-0.1-0.1-0.2-0.2-0.2s-0.1-0.1-0.2-0.2s-0.1-0.2-0.2-0.2c0,0,0-0.1,0.1-0.1
			c0.1-0.1,0.1-0.1,0.1-0.1c0,0,0.1,0.1,0.2,0.2s0.2,0.1,0.2,0.1h0c0.1-0.1,0.5-0.8,1.2-2.3l-2,0.8c-0.1,0.1-0.2,0.1-0.3,0.1
			c-0.1,0.1-0.1,0.1-0.1,0.2c0,0.1,0.1,0.2,0.2,0.3c0,0,0,0.1-0.1,0.1c-0.1,0.1-0.1,0.1-0.1,0.1c0-0.1-0.1-0.2-0.2-0.3
			s-0.2-0.2-0.3-0.4c-0.1-0.1-0.2-0.2-0.3-0.3s-0.2-0.2-0.2-0.3c0,0,0-0.1,0.1-0.1c0.1-0.1,0.1-0.1,0.1-0.1c0,0.1,0.1,0.1,0.3,0.2
			c0.1,0.1,0.3,0.1,0.4,0l4.5-1.6c0.4-0.1,0.7-0.2,0.9-0.2c0.2,0,0.4,0.1,0.5,0.2c0.1,0.1,0.1,0.2,0.1,0.3s-0.1,0.2-0.1,0.2
			c-0.1,0.1-0.2,0.1-0.3,0.1c-0.3-0.4-0.8-0.5-1.3-0.3c-0.1,0-0.2,0.1-0.3,0.1c-0.1,0.1-0.2,0.1-0.3,0.1l-1.6,3.1
			c-0.1,0.2-0.1,0.3-0.1,0.3c0,0.1,0,0.2,0.1,0.3c0,0.1,0.1,0.2,0.1,0.2c0,0,0,0.1-0.1,0.1c-0.1,0.1-0.1,0.1-0.1,0.1
			C268.5,355.8,268.3,355.6,268.3,355.5L268.3,355.5z"/>
	</g>
</g>
<g>
	<g>
		<text transform="matrix(-5.529868e-02 -0.9985 0.9985 -5.529868e-02 216.5707 327.7875)" class="st2 st3 st10">m</text>
		<text transform="matrix(1.134442e-02 -0.9999 0.9999 1.134442e-02 216.1407 318.4382)" class="st2 st3 st10">e</text>
		<text transform="matrix(6.296472e-02 -0.998 0.998 6.296472e-02 216.2007 313.1869)" class="st2 st3 st10">d</text>
		<text transform="matrix(0.1066 -0.9943 0.9943 0.1066 216.6207 307.1681)" class="st2 st3 st10">i</text>
		<text transform="matrix(0.1463 -0.9892 0.9892 0.1463 216.9907 303.6874)" class="st2 st3 st10">a</text>
		<text transform="matrix(0.1881 -0.9822 0.9822 0.1881 217.7707 298.5376)" class="st2 st3 st10">t</text>
		<text transform="matrix(0.2341 -0.9722 0.9722 0.2341 218.5107 294.6079)" class="st2 st3 st10">o</text>
		<text transform="matrix(0.2825 -0.9593 0.9593 0.2825 219.9806 288.6276)" class="st2 st3 st10">r</text>
		<text transform="matrix(0.3569 -0.9341 0.9341 0.3569 222.2807 281.1971)" class="st2 st3 st10">o</text>
		<text transform="matrix(0.3997 -0.9166 0.9166 0.3997 224.5207 275.4579)" class="st2 st3 st10">f</text>
		<text transform="matrix(-4.117813e-02 -0.9992 0.9992 -4.117813e-02 230.1407 323.5179)" class="st2 st3 st10">c</text>
		<text transform="matrix(2.129143e-02 -0.9998 0.9998 2.129143e-02 229.9307 318.5367)" class="st2 st3 st10">o</text>
		<text transform="matrix(0.1075 -0.9942 0.9942 0.1075 230.0107 312.4575)" class="st2 st3 st10">m</text>
		<text transform="matrix(0.1939 -0.981 0.981 0.1939 231.1007 303.1674)" class="st2 st3 st10">p</text>
		<text transform="matrix(0.246 -0.9693 0.9693 0.246 232.3507 297.1277)" class="st2 st3 st10">l</text>
		<text transform="matrix(0.2925 -0.9563 0.9563 0.2925 233.1408 293.9476)" class="st2 st3 st10">e</text>
		<text transform="matrix(0.351 -0.9364 0.9364 0.351 234.6808 288.9378)" class="st2 st3 st10">x</text>
		<text transform="matrix(-0.1433 -0.9897 0.9897 -0.1433 246.4807 325.4673)" class="st2 st3 st10">p</text>
		<text transform="matrix(-6.522893e-02 -0.9979 0.9979 -6.522893e-02 245.6507 319.3979)" class="st2 st3 st10">r</text>
		<text transform="matrix(1.343857e-02 -0.9999 0.9999 1.343857e-02 245.3307 314.7581)" class="st2 st3 st10">o</text>
		<text transform="matrix(9.445579e-02 -0.9955 0.9955 9.445579e-02 245.4607 308.6366)" class="st2 st3 st10">c</text>
		<text transform="matrix(0.1687 -0.9857 0.9857 0.1687 245.9407 303.7077)" class="st2 st3 st10">e</text>
		<text transform="matrix(0.2384 -0.9712 0.9712 0.2384 246.8406 298.5674)" class="st2 st3 st10">s</text>
		<text transform="matrix(0.3019 -0.9533 0.9533 0.3019 247.9208 294.2372)" class="st2 st3 st10">s</text>
		<text transform="matrix(0.3691 -0.9294 0.9294 0.3691 249.2608 290.0072)" class="st2 st3 st10">e</text>
		<text transform="matrix(0.4344 -0.9007 0.9007 0.4344 251.2307 285.1472)" class="st2 st3 st10">s</text>
	</g>
	<g>
		<path class="st2" d="M254.4,308.3c0.1-0.6,0.4-1,0.8-1.3c0.5-0.3,0.9-0.4,1.4-0.3c0.6,0.1,1,0.4,1.4,0.9c0.4,0.5,0.5,1,0.5,1.5
			c0,0.2-0.1,0.4-0.1,0.6c-0.1,0.2-0.1,0.3-0.1,0.3c0,0.1,0,0.1,0,0.2s0,0.1,0,0.2c0,0,0,0.1,0,0.1c0,0.1,0,0.1-0.1,0.1
			c0,0-0.1,0-0.1-0.1s-0.2-0.1-0.4-0.1s-0.4-0.1-0.6-0.1l-3.8-0.6c-0.2,0-0.4,0-0.6,0c-0.1,0-0.2,0.2-0.2,0.4v0.1c0,0,0,0.1-0.1,0
			c-0.1,0-0.1,0-0.1-0.1c0-0.2,0-0.4,0-0.5s0-0.3,0-0.4c0-0.1,0-0.2,0-0.2c0-0.1,0-0.1,0-0.2l0,0v0c0,0,0-0.1,0.1-0.1
			c0,0,0.1,0,0.1,0c0.2,0.1,0.4,0.2,0.8,0.2l1.6,0.2c0.1,0,0.1,0,0.1,0c0,0,0,0,0,0c0-0.1-0.1-0.2-0.1-0.4
			C254.4,308.6,254.4,308.4,254.4,308.3L254.4,308.3z M254.8,308.7c0,0.2,0,0.3,0.1,0.5c0.1,0.1,0.2,0.2,0.4,0.2l2.1,0.3
			c0.2,0,0.3,0,0.5-0.2c0.1-0.2,0.2-0.4,0.2-0.6c0-0.3-0.1-0.6-0.4-0.9s-0.6-0.4-1.1-0.5c-0.5-0.1-0.9,0-1.2,0.2
			C255.1,307.9,254.9,308.2,254.8,308.7L254.8,308.7z"/>
		<path class="st2" d="M255.2,304.4c0-0.1,0-0.2,0.1-0.3s0-0.2,0-0.3c0-0.1,0-0.2,0-0.3c0,0,0.1,0,0.1,0c0.1,0,0.1,0,0.1,0.1
			c0,0.1,0,0.1,0,0.2c0,0.1,0,0.2,0.1,0.2h0c0.1,0,1-0.1,2.6-0.4l-1.8-1.2c-0.1-0.1-0.2-0.1-0.3-0.1c-0.1,0-0.2,0-0.2,0.1
			c-0.1,0.1-0.1,0.2-0.2,0.3c0,0,0,0-0.1,0c-0.1,0-0.1,0-0.1-0.1c0-0.1,0.1-0.2,0.1-0.3s0.1-0.3,0.1-0.4c0-0.1,0.1-0.3,0.1-0.4
			c0-0.2,0-0.3,0-0.4c0,0,0.1,0,0.1,0c0.1,0,0.1,0,0.1,0.1c0,0.1,0,0.2,0,0.3s0.1,0.3,0.2,0.3l4,2.6c0.3,0.2,0.6,0.4,0.7,0.7
			c0.1,0.2,0.1,0.4,0.1,0.5c0,0.1-0.1,0.2-0.2,0.2s-0.2,0.1-0.2,0c-0.1,0-0.2-0.1-0.3-0.2c0.1-0.5-0.1-0.9-0.5-1.2
			c-0.1-0.1-0.2-0.1-0.3-0.2c-0.1-0.1-0.2-0.1-0.3-0.2l-3.4,0.5c-0.2,0-0.3,0.1-0.4,0.1s-0.1,0.1-0.2,0.2s-0.1,0.2-0.1,0.2
			c0,0,0,0-0.1,0c-0.1,0-0.1,0-0.1-0.1C255.1,304.7,255.2,304.4,255.2,304.4L255.2,304.4z"/>
	</g>
</g>
<g>
	<g>
		<text transform="matrix(0.7565 -0.6539 0.6539 0.7565 247.3008 243.5974)" class="st2 st3 st10">e</text>
		<text transform="matrix(0.7912 -0.6115 0.6115 0.7912 251.3006 240.1373)" class="st2 st3 st10">n</text>
		<text transform="matrix(0.8229 -0.5681 0.5681 0.8229 256.4607 236.1776)" class="st2 st3 st10">a</text>
		<text transform="matrix(0.8513 -0.5247 0.5247 0.8513 260.7308 233.2377)" class="st2 st3 st10">b</text>
		<text transform="matrix(0.8732 -0.4874 0.4874 0.8732 265.9208 230.0877)" class="st2 st3 st10">l</text>
		<text transform="matrix(0.8918 -0.4524 0.4524 0.8918 268.8008 228.4675)" class="st2 st3 st10">e</text>
		<text transform="matrix(0.9116 -0.411 0.411 0.9116 273.5206 226.0974)" class="st2 st3 st10">r</text>
		<text transform="matrix(0.9408 -0.3389 0.3389 0.9408 280.6607 222.9977)" class="st2 st3 st10">o</text>
		<text transform="matrix(0.9552 -0.2959 0.2959 0.9552 286.4407 220.9474)" class="st2 st3 st10">f</text>
		<text transform="matrix(0.687 -0.7267 0.7267 0.687 249.9607 259.9177)" class="st2 st3 st10">c</text>
		<text transform="matrix(0.7311 -0.6823 0.6823 0.7311 253.3707 256.3071)" class="st2 st3 st10">o</text>
		<text transform="matrix(0.7877 -0.6161 0.6161 0.7877 257.7808 252.1074)" class="st2 st3 st10">m</text>
		<text transform="matrix(0.848 -0.5299 0.5299 0.848 265.1308 246.3876)" class="st2 st3 st10">m</text>
		<text transform="matrix(0.8911 -0.4538 0.4538 0.8911 273.0807 241.5276)" class="st2 st3 st10">u</text>
		<text transform="matrix(0.9212 -0.3891 0.3891 0.9212 278.6107 238.7177)" class="st2 st3 st10">n</text>
		<text transform="matrix(0.9416 -0.3368 0.3368 0.9416 284.6507 236.2276)" class="st2 st3 st10">i</text>
		<text transform="matrix(0.9548 -0.2974 0.2974 0.9548 287.9108 235.0674)" class="st2 st3 st10">t</text>
		<text transform="matrix(0.9693 -0.246 0.246 0.9693 291.7408 233.8675)" class="st2 st3 st10">y</text>
		<text transform="matrix(0.7893 -0.614 0.614 0.7893 270.6306 262.3174)" class="st2 st3 st10">b</text>
		<text transform="matrix(0.841 -0.541 0.541 0.841 275.3507 258.6574)" class="st2 st3 st10">u</text>
		<text transform="matrix(0.8772 -0.4801 0.4801 0.8772 280.5807 255.3674)" class="st2 st3 st10">i</text>
		<text transform="matrix(0.9 -0.4359 0.4359 0.9 283.6507 253.7073)" class="st2 st3 st10">l</text>
		<text transform="matrix(0.9219 -0.3875 0.3875 0.9219 286.5908 252.2874)" class="st2 st3 st10">t</text>
	</g>
	<g>
		<path class="st2" d="M283.2,263.8c0.5-0.3,1-0.4,1.5-0.3c0.5,0.1,0.9,0.4,1.1,0.8c0.3,0.5,0.5,1,0.4,1.6s-0.4,1.1-0.8,1.4
			c-0.2,0.1-0.4,0.2-0.6,0.3s-0.3,0.1-0.3,0.2c0,0-0.1,0.1-0.1,0.2c0,0.1-0.1,0.1-0.1,0.1c0,0-0.1,0-0.1,0c0,0-0.1,0-0.1,0
			c0,0,0-0.1-0.1-0.1s-0.1-0.2-0.2-0.4c-0.1-0.2-0.2-0.3-0.3-0.5l-2.2-3.1c-0.1-0.2-0.2-0.3-0.4-0.4c-0.1-0.1-0.2,0-0.5,0.2
			l-0.1,0.1c0,0-0.1,0-0.1-0.1c-0.1-0.1-0.1-0.1,0-0.2c0.1-0.1,0.3-0.2,0.4-0.3c0.1-0.1,0.2-0.2,0.2-0.3c0-0.1,0.1-0.1,0.1-0.2
			s0.1-0.1,0.1-0.1v0l0,0c0,0,0,0,0.1,0s0.1,0,0.1,0.1c0.1,0.2,0.2,0.4,0.4,0.7l0.9,1.3c0,0.1,0.1,0.1,0.1,0.1c0,0,0,0,0,0
			c0-0.1,0.1-0.2,0.2-0.4C283,264,283.1,263.9,283.2,263.8L283.2,263.8z M283.2,264.3c-0.1,0.1-0.2,0.2-0.3,0.4c0,0.2,0,0.3,0.1,0.4
			l1.2,1.8c0.1,0.2,0.3,0.2,0.5,0.2c0.2,0,0.4-0.1,0.6-0.2c0.3-0.2,0.4-0.5,0.4-0.9c0-0.4-0.2-0.8-0.4-1.1c-0.3-0.4-0.6-0.7-1-0.8
			S283.6,264.1,283.2,264.3L283.2,264.3z"/>
		<path class="st2" d="M286.6,261.7c0.1-0.1,0.2-0.1,0.2-0.2c0.1-0.1,0.2-0.1,0.2-0.2c0.1-0.1,0.2-0.1,0.2-0.2c0,0,0.1,0.1,0.1,0.1
			c0,0.1,0,0.1,0,0.1c0,0-0.1,0.1-0.2,0.2c-0.1,0.1-0.1,0.2-0.1,0.2v0c0.1,0.1,0.8,0.6,2.1,1.6l-0.4-2.1c0-0.1-0.1-0.2-0.1-0.3
			c0-0.1-0.1-0.1-0.2-0.1s-0.2,0-0.4,0.1c0,0,0,0-0.1-0.1c0-0.1,0-0.1,0-0.2c0.1,0,0.2-0.1,0.3-0.2c0.1-0.1,0.3-0.1,0.4-0.2
			c0.1-0.1,0.2-0.2,0.4-0.2s0.2-0.2,0.3-0.2c0,0,0.1,0.1,0.1,0.1c0,0.1,0,0.1,0,0.1c-0.1,0-0.1,0.1-0.2,0.2s-0.1,0.2-0.1,0.4
			l0.8,4.7c0.1,0.4,0.1,0.7,0,0.9c-0.1,0.2-0.2,0.4-0.3,0.4c-0.1,0.1-0.2,0.1-0.3,0c-0.1,0-0.2-0.1-0.2-0.2c-0.1-0.1-0.1-0.2,0-0.3
			c0.4-0.3,0.6-0.7,0.5-1.2c0-0.1,0-0.2-0.1-0.3s0-0.2-0.1-0.3l-2.8-2.1c-0.1-0.1-0.2-0.2-0.3-0.2c-0.1,0-0.2,0-0.3,0
			s-0.2,0.1-0.3,0.1c0,0,0,0-0.1-0.1c0-0.1,0-0.1,0-0.2C286.3,261.8,286.6,261.7,286.6,261.7L286.6,261.7z"/>
	</g>
</g>
<g>
	<g>
		<text transform="matrix(0.986 0.1669 -0.1669 0.986 332.1508 210.3074)" class="st2 st3 st8">c</text>
		<text transform="matrix(0.9768 0.2141 -0.2141 0.9768 336.8007 211.0975)" class="st2 st3 st8">o</text>
		<text transform="matrix(0.9637 0.2669 -0.2669 0.9637 342.4607 212.3475)" class="st2 st3 st8">n</text>
		<text transform="matrix(0.95 0.3122 -0.3122 0.95 348.3908 214.0176)" class="st2 st3 st8">s</text>
		<text transform="matrix(0.9364 0.351 -0.351 0.9364 352.4406 215.3576)" class="st2 st3 st8">c</text>
		<text transform="matrix(0.923 0.3848 -0.3848 0.923 356.8408 217.0274)" class="st2 st3 st8">i</text>
		<text transform="matrix(0.9061 0.4231 -0.4231 0.9061 359.8906 218.2773)" class="st2 st3 st8">o</text>
		<text transform="matrix(0.8821 0.471 -0.471 0.8821 365.1605 220.7575)" class="st2 st3 st8">u</text>
		<text transform="matrix(0.8592 0.5116 -0.5116 0.8592 370.3406 223.5573)" class="st2 st3 st8">s</text>
		<text transform="matrix(0.9996 -2.966624e-02 2.966624e-02 0.9996 313.3707 222.2476)" class="st2 st3 st8">i</text>
		<text transform="matrix(0.9993 3.821341e-02 -3.821341e-02 0.9993 316.6107 222.0675)" class="st2 st3 st8">m</text>
		<text transform="matrix(0.9928 0.1196 -0.1196 0.9928 325.4107 222.4875)" class="st2 st3 st8">p</text>
		<text transform="matrix(0.9856 0.1688 -0.1688 0.9856 331.1907 223.2275)" class="st2 st3 st8">l</text>
		<text transform="matrix(0.977 0.213 -0.213 0.977 334.2307 223.7375)" class="st2 st3 st8">e</text>
		<text transform="matrix(0.9578 0.2874 -0.2874 0.9578 339.0706 224.7275)" class="st2 st3 st8">m</text>
		<text transform="matrix(0.933 0.3598 -0.3598 0.933 347.4707 227.3475)" class="st2 st3 st8">e</text>
		<text transform="matrix(0.9089 0.4171 -0.4171 0.9089 352.1009 229.1275)" class="st2 st3 st8">n</text>
		<text transform="matrix(0.8842 0.4672 -0.4672 0.8842 357.6906 231.7375)" class="st2 st3 st8">t</text>
		<text transform="matrix(0.8601 0.5101 -0.5101 0.8601 361.0109 233.4875)" class="st2 st3 st8">e</text>
		<text transform="matrix(0.832 0.5548 -0.5548 0.832 365.2606 236.0375)" class="st2 st3 st8">r</text>
		<text transform="matrix(0.7784 0.6278 -0.6278 0.7784 371.3005 240.1975)" class="st2 st3 st8">o</text>
		<text transform="matrix(0.7437 0.6685 -0.6685 0.7437 375.7902 243.8774)" class="st2 st3 st8">f</text>
		<text transform="matrix(0.9995 -3.228298e-02 3.228298e-02 0.9995 316.7607 234.8575)" class="st2 st3 st9">t</text>
		<text transform="matrix(0.9996 2.809610e-02 -2.809610e-02 0.9996 320.3007 234.7375)" class="st2 st3 st9">e</text>
		<text transform="matrix(0.9956 9.410831e-02 -9.410831e-02 0.9956 324.9407 234.8876)" class="st2 st3 st9">c</text>
		<text transform="matrix(0.986 0.1668 -0.1668 0.986 329.3207 235.2874)" class="st2 st3 st9">h</text>
		<text transform="matrix(0.9688 0.2478 -0.2478 0.9688 334.8708 236.2376)" class="st2 st3 st9">n</text>
		<text transform="matrix(0.9453 0.3261 -0.3261 0.9453 340.4607 237.6975)" class="st2 st3 st9">o</text>
		<text transform="matrix(0.9238 0.3828 -0.3828 0.9238 345.5807 239.5176)" class="st2 st3 st9">l</text>
		<text transform="matrix(0.8986 0.4388 -0.4388 0.8986 348.2807 240.6076)" class="st2 st3 st9">o</text>
		<text transform="matrix(0.8622 0.5066 -0.5066 0.8622 353.1505 243.0076)" class="st2 st3 st9">g</text>
		<text transform="matrix(0.83 0.5577 -0.5577 0.83 357.5406 245.6375)" class="st2 st3 st9">i</text>
		<text transform="matrix(0.7981 0.6025 -0.6025 0.7981 360.0809 247.3374)" class="st2 st3 st9">c</text>
		<text transform="matrix(0.7563 0.6542 -0.6542 0.7563 363.6007 250.0076)" class="st2 st3 st9">a</text>
		<text transform="matrix(0.7186 0.6954 -0.6954 0.7186 367.0704 253.0576)" class="st2 st3 st9">l</text>
		<text transform="matrix(0.9999 -1.116988e-02 1.116988e-02 0.9999 313.3607 246.2175)" class="st2 st3 st8">i</text>
		<text transform="matrix(0.9983 5.773827e-02 -5.773827e-02 0.9983 316.6307 246.1474)" class="st2 st3 st8">n</text>
		<text transform="matrix(0.9892 0.1463 -0.1463 0.9892 322.7107 246.5175)" class="st2 st3 st8">n</text>
		<text transform="matrix(0.9729 0.2311 -0.2311 0.9729 328.7507 247.4275)" class="st2 st3 st8">o</text>
		<text transform="matrix(0.9506 0.3105 -0.3105 0.9506 334.3408 248.7774)" class="st2 st3 st8">v</text>
		<text transform="matrix(0.9241 0.382 -0.382 0.9241 339.6508 250.5475)" class="st2 st3 st8">a</text>
		<text transform="matrix(0.8984 0.4392 -0.4392 0.8984 344.1206 252.4274)" class="st2 st3 st8">t</text>
		<text transform="matrix(0.8745 0.485 -0.485 0.8745 347.4806 254.0974)" class="st2 st3 st8">i</text>
		<text transform="matrix(0.8405 0.5419 -0.5419 0.8405 350.3407 255.6475)" class="st2 st3 st8">o</text>
		<text transform="matrix(0.79 0.613 -0.613 0.79 355.1705 258.7675)" class="st2 st3 st8">n</text>
		<text transform="matrix(0.7412 0.6713 -0.6713 0.7412 359.9703 262.5574)" class="st2 st3 st8">s</text>
	</g>
	<g>
		<path class="st2" d="M333.5,258.4c0.6,0.2,1,0.5,1.2,1c0.2,0.5,0.3,0.9,0.1,1.4c-0.2,0.6-0.5,1-1,1.3c-0.5,0.3-1.1,0.4-1.6,0.2
			c-0.2-0.1-0.4-0.1-0.6-0.2s-0.3-0.2-0.3-0.2c0,0-0.1,0-0.2,0c-0.1,0-0.1,0-0.1,0c0,0-0.1,0-0.1-0.1c0,0-0.1-0.1-0.1-0.1
			c0,0,0-0.1,0.1-0.1c0-0.1,0.1-0.2,0.2-0.4s0.1-0.4,0.2-0.6l1-3.7c0.1-0.2,0.1-0.4,0.1-0.6c0-0.1-0.1-0.2-0.4-0.3l-0.1,0
			c0,0,0-0.1,0-0.1c0-0.1,0.1-0.1,0.1-0.1c0.2,0,0.4,0.1,0.5,0.1c0.2,0,0.3,0,0.4,0c0.1,0,0.2,0,0.2,0s0.1,0,0.1,0l0,0h0
			c0,0,0,0,0.1,0.1c0,0,0,0.1,0,0.1c-0.1,0.2-0.2,0.4-0.3,0.7l-0.4,1.6c0,0.1,0,0.1,0,0.1c0,0,0,0,0,0c0.1,0,0.2-0.1,0.4-0.1
			C333.2,258.3,333.4,258.3,333.5,258.4L333.5,258.4z M333.1,258.7c-0.2-0.1-0.3,0-0.5,0c-0.1,0.1-0.2,0.2-0.3,0.3l-0.6,2.1
			c0,0.2,0,0.3,0.1,0.5s0.3,0.2,0.6,0.3c0.3,0.1,0.6,0,0.9-0.2s0.5-0.6,0.6-1c0.1-0.5,0.1-0.9,0-1.2S333.5,258.8,333.1,258.7
			L333.1,258.7z"/>
		<path class="st2" d="M337.2,259.7c0.1,0,0.2,0.1,0.3,0.1c0.1,0,0.2,0.1,0.3,0.1c0.1,0,0.2,0.1,0.3,0.1c0,0,0,0.1,0,0.1
			c0,0.1-0.1,0.1-0.1,0.1c0,0-0.1,0-0.2,0c-0.1,0-0.2,0-0.2,0.1v0c0,0.1,0,1,0.1,2.6l1.4-1.6c0.1-0.1,0.1-0.2,0.2-0.2
			c0-0.1,0-0.2,0-0.3c-0.1-0.1-0.2-0.2-0.3-0.2c0,0,0-0.1,0-0.1c0-0.1,0.1-0.1,0.1-0.1c0.1,0,0.2,0.1,0.3,0.2
			c0.1,0.1,0.3,0.1,0.4,0.2c0.1,0.1,0.3,0.1,0.4,0.1c0.1,0,0.3,0.1,0.4,0.1c0,0,0,0.1,0,0.1c0,0.1-0.1,0.1-0.1,0.1
			c-0.1,0-0.2,0-0.3,0c-0.1,0-0.3,0.1-0.4,0.2l-3.1,3.6c-0.3,0.3-0.5,0.5-0.7,0.6s-0.4,0.1-0.5,0c-0.1,0-0.2-0.1-0.2-0.2
			c0-0.1,0-0.2,0-0.3c0-0.1,0.1-0.2,0.2-0.2c0.5,0.2,0.9,0.1,1.2-0.4c0.1-0.1,0.1-0.2,0.2-0.3s0.2-0.2,0.2-0.3l-0.1-3.5
			c0-0.2,0-0.3-0.1-0.4c0-0.1-0.1-0.2-0.2-0.2s-0.2-0.1-0.2-0.2c0,0,0-0.1,0-0.1c0-0.1,0.1-0.1,0.1-0.1
			C336.9,259.5,337.2,259.7,337.2,259.7L337.2,259.7z"/>
	</g>
</g>
<g>
	<g>
		<text transform="matrix(-0.3774 0.9261 -0.9261 -0.3774 405.2914 355.7177)" class="st2 st3 st8">c</text>
		<text transform="matrix(-0.422 0.9066 -0.9066 -0.422 403.5103 360.0977)" class="st2 st3 st8">o</text>
		<text transform="matrix(-0.4712 0.882 -0.882 -0.4712 401.0606 365.3574)" class="st2 st3 st8">n</text>
		<text transform="matrix(-0.5201 0.8541 -0.8541 -0.5201 398.1515 370.7676)" class="st2 st3 st8">n</text>
		<text transform="matrix(-0.5628 0.8266 -0.8266 -0.5628 394.9299 376.0175)" class="st2 st3 st8">e</text>
		<text transform="matrix(-0.5989 0.8008 -0.8008 -0.5989 392.121 380.1179)" class="st2 st3 st8">c</text>
		<text transform="matrix(-0.6296 0.7769 -0.7769 -0.6296 389.26 383.9075)" class="st2 st3 st8">t</text>
		<text transform="matrix(-0.6629 0.7487 -0.7487 -0.6629 386.9012 386.8376)" class="st2 st3 st8">o</text>
		<text transform="matrix(-0.6972 0.7169 -0.7169 -0.6972 383.0403 391.1671)" class="st2 st3 st8">r</text>
		<text transform="matrix(-0.7479 0.6638 -0.6638 -0.7479 377.8202 396.3879)" class="st2 st3 st8">o</text>
		<text transform="matrix(-0.7757 0.6311 -0.6311 -0.7757 373.461 400.208)" class="st2 st3 st8">f</text>
		<text transform="matrix(-0.378 0.9258 -0.9258 -0.378 392.1801 349.9276)" class="st2 st3 st8">p</text>
		<text transform="matrix(-0.4335 0.9012 -0.9012 -0.4335 389.9616 355.2974)" class="st2 st3 st8">e</text>
		<text transform="matrix(-0.4873 0.8733 -0.8733 -0.4873 387.8112 359.7674)" class="st2 st3 st8">o</text>
		<text transform="matrix(-0.543 0.8397 -0.8397 -0.543 384.9806 364.8073)" class="st2 st3 st8">p</text>
		<text transform="matrix(-0.5842 0.8116 -0.8116 -0.5842 381.7798 369.6774)" class="st2 st3 st8">l</text>
		<text transform="matrix(-0.6202 0.7845 -0.7845 -0.6202 379.9808 372.1878)" class="st2 st3 st8">e</text>
		<text transform="matrix(-0.6862 0.7274 -0.7274 -0.6862 375.0002 378.2579)" class="st2 st3 st8">a</text>
		<text transform="matrix(-0.7297 0.6838 -0.6838 -0.7297 371.6512 381.8177)" class="st2 st3 st8">n</text>
		<text transform="matrix(-0.7732 0.6342 -0.6342 -0.7732 367.1514 385.9973)" class="st2 st3 st8">d</text>
		<text transform="matrix(-0.3002 0.9539 -0.9539 -0.3002 378.8615 339.5176)" class="st2 st3 st8">g</text>
		<text transform="matrix(-0.3775 0.926 -0.926 -0.3775 377.2403 344.6476)" class="st2 st3 st8">o</text>
		<text transform="matrix(-0.4537 0.8912 -0.8912 -0.4537 375.0405 349.9778)" class="st2 st3 st8">v</text>
		<text transform="matrix(-0.5206 0.8538 -0.8538 -0.5206 372.4916 354.9276)" class="st2 st3 st8">e</text>
		<text transform="matrix(-0.5781 0.8159 -0.8159 -0.5781 369.89 359.1577)" class="st2 st3 st8">r</text>
		<text transform="matrix(-0.6386 0.7695 -0.7695 -0.6386 367.3712 362.748)" class="st2 st3 st8">n</text>
		<text transform="matrix(-0.698 0.7161 -0.7161 -0.698 363.4413 367.4176)" class="st2 st3 st8">a</text>
		<text transform="matrix(-0.7529 0.6582 -0.6582 -0.7529 360.06 370.8878)" class="st2 st3 st8">n</text>
		<text transform="matrix(-0.8023 0.5969 -0.5969 -0.8023 355.4305 374.8873)" class="st2 st3 st8">c</text>
		<text transform="matrix(-0.8424 0.5389 -0.5389 -0.8424 351.6707 377.6672)" class="st2 st3 st8">e</text>
	</g>
	<g>
		<path class="st2" d="M364.4,355.2c-0.3,0.5-0.8,0.8-1.3,0.8c-0.5,0.1-1,0-1.4-0.3c-0.5-0.3-0.8-0.8-0.9-1.4
			c-0.1-0.6,0-1.1,0.2-1.6c0.1-0.2,0.3-0.4,0.4-0.5s0.2-0.2,0.2-0.3c0-0.1,0-0.1,0.1-0.2c0-0.1,0-0.1,0-0.2c0,0,0-0.1,0.1-0.1
			s0.1,0,0.1,0c0,0,0,0,0.1,0.1c0.1,0.1,0.2,0.2,0.3,0.3s0.3,0.2,0.5,0.4l3.2,2.1c0.2,0.1,0.4,0.2,0.5,0.3c0.1,0,0.2-0.1,0.4-0.3
			l0-0.1c0,0,0.1,0,0.1,0c0.1,0.1,0.1,0.1,0.1,0.1c-0.1,0.2-0.2,0.3-0.2,0.5s-0.1,0.3-0.1,0.4s0,0.2,0,0.2c0,0.1,0,0.1,0,0.2v0.1v0
			c0,0,0,0-0.1,0c0,0-0.1,0-0.1,0c-0.1-0.2-0.3-0.3-0.6-0.5l-1.4-0.9c0,0-0.1-0.1-0.1,0c0,0,0,0,0,0c0,0.1,0,0.2,0,0.4
			C364.5,355,364.5,355.1,364.4,355.2L364.4,355.2z M364.1,354.7c0.1-0.1,0.1-0.3,0.1-0.4s-0.1-0.3-0.2-0.4l-1.8-1.2
			c-0.2-0.1-0.3-0.1-0.5,0c-0.2,0.1-0.3,0.2-0.5,0.4c-0.2,0.3-0.2,0.6,0,1s0.4,0.6,0.8,0.9c0.4,0.3,0.8,0.4,1.2,0.3
			C363.6,355.2,363.9,355,364.1,354.7L364.1,354.7z"/>
		<path class="st2" d="M362,358.4c-0.1,0.1-0.1,0.2-0.2,0.2c0,0.1-0.1,0.2-0.2,0.2c-0.1,0.1-0.1,0.2-0.2,0.2c0,0-0.1,0-0.1-0.1
			c-0.1-0.1-0.1-0.1-0.1-0.1c0,0,0.1-0.1,0.1-0.2c0-0.1,0-0.2,0-0.2h0c-0.1-0.1-0.9-0.3-2.5-0.7l1.2,1.8c0.1,0.1,0.1,0.2,0.2,0.2
			c0.1,0.1,0.2,0.1,0.3,0c0.1,0,0.2-0.1,0.3-0.2c0,0,0,0,0.1,0.1c0.1,0.1,0.1,0.1,0.1,0.1c0,0.1-0.1,0.2-0.2,0.3
			c-0.1,0.1-0.2,0.2-0.3,0.3c-0.1,0.1-0.2,0.2-0.3,0.4s-0.2,0.2-0.2,0.3c0,0-0.1,0-0.1-0.1c-0.1-0.1-0.1-0.1-0.1-0.1
			c0-0.1,0.1-0.2,0.1-0.3c0-0.1,0-0.3,0-0.4l-2.5-4c-0.2-0.3-0.3-0.6-0.3-0.9c0-0.2,0-0.4,0.1-0.5c0.1-0.1,0.2-0.2,0.3-0.2
			c0.1,0,0.2,0,0.2,0.1c0.1,0.1,0.2,0.2,0.1,0.3c-0.3,0.4-0.3,0.8,0,1.3c0,0.1,0.1,0.2,0.2,0.3c0.1,0.1,0.1,0.2,0.2,0.3l3.4,0.9
			c0.2,0,0.3,0.1,0.4,0.1s0.2-0.1,0.3-0.1c0.1-0.1,0.2-0.1,0.2-0.2c0,0,0,0,0.1,0c0.1,0.1,0.1,0.1,0.1,0.1
			C362.3,358.1,362,358.4,362,358.4L362,358.4z"/>
	</g>
</g>
<g>
	<g>
		<text transform="matrix(0.4199 0.9076 -0.9076 0.4199 413.0411 265.4975)" class="st2 st3 st10">i</text>
		<text transform="matrix(0.3775 0.926 -0.926 0.3775 414.5202 268.6574)" class="st2 st3 st10">n</text>
		<text transform="matrix(0.3236 0.9462 -0.9462 0.3236 416.9706 274.6974)" class="st2 st3 st10">v</text>
		<text transform="matrix(0.2704 0.9627 -0.9627 0.2704 418.8804 280.3175)" class="st2 st3 st10">o</text>
		<text transform="matrix(0.228 0.9737 -0.9737 0.228 420.5109 286.2775)" class="st2 st3 st10">l</text>
		<text transform="matrix(0.1858 0.9826 -0.9826 0.1858 421.2805 289.4975)" class="st2 st3 st10">v</text>
		<text transform="matrix(0.135 0.9908 -0.9908 0.135 422.3709 295.3575)" class="st2 st3 st10">e</text>
		<text transform="matrix(8.941577e-02 0.996 -0.996 8.941577e-02 423.0609 300.5875)" class="st2 st3 st10">r</text>
		<text transform="matrix(1.186797e-02 0.9999 -0.9999 1.186797e-02 423.6508 308.3576)" class="st2 st3 st10">o</text>
		<text transform="matrix(-3.315521e-02 0.9995 -0.9995 -3.315521e-02 423.6812 314.5274)" class="st2 st3 st10">f</text>
		<text transform="matrix(0.5606 0.8281 -0.8281 0.5606 392.241 262.5876)" class="st2 st3 st8">h</text>
		<text transform="matrix(0.5044 0.8635 -0.8635 0.5044 395.5911 267.5575)" class="st2 st3 st8">u</text>
		<text transform="matrix(0.4318 0.902 -0.902 0.4318 398.5708 272.5675)" class="st2 st3 st8">m</text>
		<text transform="matrix(0.3608 0.9326 -0.9326 0.3608 402.2907 280.5575)" class="st2 st3 st8">a</text>
		<text transform="matrix(0.302 0.9533 -0.9533 0.302 404.061 285.1075)" class="st2 st3 st8">n</text>
		<text transform="matrix(0.2453 0.9694 -0.9694 0.2453 405.8803 290.9976)" class="st2 st3 st8">s</text>
		<text transform="matrix(0.1632 0.9866 -0.9866 0.1632 407.5005 297.8974)" class="st2 st3 st8">a</text>
		<text transform="matrix(0.1018 0.9948 -0.9948 0.1018 408.3004 302.7075)" class="st2 st3 st8">n</text>
		<text transform="matrix(3.577167e-02 0.9994 -0.9994 3.577167e-02 408.9 308.8275)" class="st2 st3 st8">d</text>
		<text transform="matrix(-6.122278e-02 0.9981 -0.9981 -6.122278e-02 409.0598 317.3675)" class="st2 st3 st8">n</text>
		<text transform="matrix(-0.1272 0.9919 -0.9919 -0.1272 408.6711 323.4876)" class="st2 st3 st8">o</text>
		<text transform="matrix(-0.1934 0.9811 -0.9811 -0.1934 407.9198 329.2274)" class="st2 st3 st8">n</text>
		<text transform="matrix(0.5023 0.8647 -0.8647 0.5023 382.1811 277.4774)" class="st2 st3 st8">h</text>
		<text transform="matrix(0.4255 0.905 -0.905 0.4255 385.1706 282.6474)" class="st2 st3 st8">u</text>
		<text transform="matrix(0.3264 0.9452 -0.9452 0.3264 387.6807 287.8575)" class="st2 st3 st8">m</text>
		<text transform="matrix(0.2297 0.9733 -0.9733 0.2297 390.4404 296.1975)" class="st2 st3 st8">a</text>
		<text transform="matrix(0.1506 0.9886 -0.9886 0.1506 391.561 300.9075)" class="st2 st3 st8">n</text>
		<text transform="matrix(7.567481e-02 0.9971 -0.9971 7.567481e-02 392.4311 306.9475)" class="st2 st3 st8">s</text>
		<text transform="matrix(-3.542275e-02 0.9994 -0.9994 -3.542275e-02 392.8117 313.9976)" class="st2 st3 st8">b</text>
		<text transform="matrix(-0.1155 0.9933 -0.9933 -0.1155 392.5803 319.6476)" class="st2 st3 st8">y</text>
	</g>
	<g>
		<path class="st2" d="M379.8,299.7c0.2,0.6,0.1,1.1-0.1,1.5s-0.6,0.7-1,0.9c-0.5,0.2-1.1,0.2-1.7-0.1c-0.6-0.3-0.9-0.7-1.1-1.1
			c-0.1-0.2-0.1-0.4-0.1-0.6c0-0.2,0-0.3-0.1-0.3c0-0.1-0.1-0.1-0.1-0.2c-0.1-0.1-0.1-0.1-0.1-0.1c0,0,0-0.1,0-0.1
			c0-0.1,0-0.1,0-0.1c0,0,0,0,0.1,0c0.1,0,0.2,0,0.4-0.1s0.4-0.1,0.6-0.2l3.6-1.2c0.2-0.1,0.4-0.2,0.5-0.2c0.1-0.1,0.1-0.2,0-0.5
			l0-0.1c0,0,0-0.1,0.1-0.1c0.1,0,0.1,0,0.2,0c0.1,0.2,0.1,0.3,0.2,0.5c0.1,0.1,0.1,0.2,0.2,0.3c0.1,0.1,0.1,0.1,0.2,0.2
			c0,0.1,0.1,0.1,0.1,0.1l0,0v0c0,0,0,0.1,0,0.1c0,0,0,0.1-0.1,0.1c-0.2,0-0.5,0.1-0.8,0.2l-1.5,0.5c-0.1,0-0.1,0-0.1,0.1
			c0,0,0,0,0,0c0.1,0.1,0.2,0.2,0.3,0.3C379.7,299.5,379.8,299.6,379.8,299.7L379.8,299.7z M379.3,299.6c-0.1-0.2-0.1-0.3-0.3-0.4
			c-0.1-0.1-0.3-0.1-0.5,0l-2,0.7c-0.2,0.1-0.3,0.2-0.3,0.4c0,0.2,0,0.4,0.1,0.6c0.1,0.3,0.4,0.5,0.7,0.6c0.4,0.1,0.8,0.1,1.2-0.1
			c0.5-0.2,0.8-0.4,1-0.7C379.4,300.4,379.4,300,379.3,299.6L379.3,299.6z"/>
		<path class="st2" d="M380.9,303.5c0,0.1,0,0.2,0.1,0.3c0,0.1,0.1,0.2,0.1,0.3s0.1,0.2,0.1,0.3c0,0-0.1,0-0.1,0.1
			c-0.1,0-0.1,0-0.1,0c0-0.1,0-0.1-0.1-0.2s-0.1-0.2-0.2-0.2h0c-0.1,0-0.8,0.5-2.1,1.5l2.1,0.2c0.1,0,0.2,0,0.3,0
			c0.1,0,0.1-0.1,0.2-0.2c0-0.1,0-0.2,0-0.4c0,0,0,0,0.1-0.1c0.1,0,0.1,0,0.1,0c0,0.1,0,0.2,0.1,0.4s0.1,0.3,0.1,0.4
			c0,0.1,0.1,0.3,0.1,0.4s0.1,0.3,0.1,0.3c0,0-0.1,0-0.1,0.1c-0.1,0-0.1,0-0.1,0c0-0.1-0.1-0.2-0.2-0.3s-0.2-0.2-0.3-0.2l-4.7-0.5
			c-0.4-0.1-0.7-0.1-0.9-0.3c-0.2-0.1-0.3-0.3-0.3-0.4c0-0.1,0-0.2,0-0.3c0.1-0.1,0.1-0.1,0.2-0.2c0.1,0,0.2,0,0.3,0.1
			c0.1,0.5,0.5,0.8,1,0.8c0.1,0,0.2,0,0.4,0c0.1,0,0.2,0,0.3,0l2.8-2.1c0.1-0.1,0.2-0.2,0.3-0.2c0-0.1,0.1-0.2,0.1-0.3
			c0-0.1,0-0.2,0-0.3c0,0,0-0.1,0.1-0.1c0.1,0,0.1,0,0.1,0C380.8,303.2,380.9,303.5,380.9,303.5L380.9,303.5z"/>
	</g>
</g>
</svg>
