<?xml version="1.0" encoding="utf-8"?>
<!-- Generator: Adobe Illustrator 26.0.2, SVG Export Plug-In . SVG Version: 6.00 Build 0)  -->
<svg version="1.1" id="Layer_1" xmlns="http://www.w3.org/2000/svg" xmlns:xlink="http://www.w3.org/1999/xlink" x="0px" y="0px"
	 viewBox="0 0 659.7 659.7" style="enable-background:new 0 0 659.7 659.7;" xml:space="preserve">
<style type="text/css">
	.st0{fill:#B18849;}
	.st1{fill:#FFFFFF;}
	.st2{fill:none;}
	.st3{font-family:'ArialMT';}
	.st4{font-size:12.73px;}
	.st5{fill:none;stroke:#FFFFFF;stroke-width:0.9;stroke-miterlimit:10;}
	.st6{fill:#464764;}
	.st7{font-size:11.46px;}
	.st8{font-size:10.77px;}
	.st9{font-size:10.14px;}
	.st10{font-size:11.41px;}
	.st11{fill:none;stroke:#FFFFFF;stroke-miterlimit:10;stroke-dasharray:0,0,2,2;}
	.st12{opacity:0.47;fill:#8C95B1;enable-background:new    ;}
</style>
<g id="Layer_2_00000147905463471920783740000000473983703035989126_">
	<rect x="-5.6" y="-5.6" class="st0" width="670.8" height="670.8"/>
</g>
<g id="Layer_1_00000129197537865085664460000009550715255712327046_">
	<path class="st1" d="M327.8,169.9c-88.3,0-159.9,71.6-159.9,159.9s71.6,159.9,159.9,159.9s159.9-71.6,159.9-159.9
		S416.1,169.9,327.8,169.9L327.8,169.9z M327.8,467.5c-76.1,0-137.7-61.6-137.7-137.7s61.6-137.7,137.7-137.7
		s137.7,61.6,137.7,137.7S403.8,467.5,327.8,467.5z"/>
	<rect x="21" y="23" class="st2" width="613.7" height="613.7"/>
	<g>
		<text transform="matrix(-0.9429 -0.333 0.333 -0.9429 238.3009 597.8613)" class="st1 st3 st4">a</text>
		<text transform="matrix(-0.9335 -0.3587 0.3587 -0.9335 232.7702 595.9213)" class="st1 st3 st4">w</text>
		<text transform="matrix(-0.9233 -0.384 0.384 -0.9233 223.7104 592.4103)" class="st1 st3 st4">a</text>
		<text transform="matrix(-0.9157 -0.4019 0.4019 -0.9157 218.3001 590.1499)" class="st1 st3 st4">r</text>
		<text transform="matrix(-0.9076 -0.4199 0.4199 -0.9076 213.4406 588.0098)" class="st1 st3 st4">e</text>
		<text transform="matrix(-0.8944 -0.4473 0.4473 -0.8944 204.9408 584.0009)" class="st1 st3 st4">t</text>
		<text transform="matrix(-0.8851 -0.4655 0.4655 -0.8851 200.9006 581.9913)" class="st1 st3 st4">h</text>
		<text transform="matrix(-0.8742 -0.4856 0.4856 -0.8742 194.55 578.6305)" class="st1 st3 st4">a</text>
		<text transform="matrix(-0.8652 -0.5014 0.5014 -0.8652 189.4505 575.7809)" class="st1 st3 st4">t</text>
		<text transform="matrix(-0.8463 -0.5327 0.5327 -0.8463 182.5704 571.7709)" class="st1 st3 st4">N</text>
		<text transform="matrix(-0.8316 -0.5554 0.5554 -0.8316 174.5105 566.6512)" class="st1 st3 st4">a</text>
		<text transform="matrix(-0.8213 -0.5704 0.5704 -0.8213 169.6301 563.3807)" class="st1 st3 st4">t</text>
		<text transform="matrix(-0.8097 -0.5868 0.5868 -0.8097 165.9304 560.8204)" class="st1 st3 st4">u</text>
		<text transform="matrix(-0.7968 -0.6042 0.6042 -0.7968 160.2608 556.6911)" class="st1 st3 st4">r</text>
		<text transform="matrix(-0.7847 -0.6199 0.6199 -0.7847 156.0206 553.4708)" class="st1 st3 st4">e</text>
		<text transform="matrix(-0.766 -0.6428 0.6428 -0.766 148.6799 547.5796)" class="st1 st3 st4">i</text>
		<text transform="matrix(-0.7557 -0.6549 0.6549 -0.7557 145.6505 545.0302)" class="st1 st3 st4">s</text>
		<text transform="matrix(-0.7365 -0.6765 0.6765 -0.7365 139.2499 539.3998)" class="st1 st3 st4">t</text>
		<text transform="matrix(-0.7227 -0.6911 0.6911 -0.7227 135.9404 536.3706)" class="st1 st3 st4">o</text>
		<text transform="matrix(-0.6967 -0.7174 0.7174 -0.6967 128.4806 529.1309)" class="st1 st3 st4">u</text>
		<text transform="matrix(-0.6812 -0.7321 0.7321 -0.6812 123.5905 524.0809)" class="st1 st3 st4">s</text>
		<text transform="matrix(-0.6596 -0.7516 0.7516 -0.6596 117.8303 517.8006)" class="st1 st3 st4">t</text>
		<text transform="matrix(-0.6439 -0.7651 0.7651 -0.6439 114.8506 514.4113)" class="st1 st3 st4">h</text>
		<text transform="matrix(-0.6259 -0.7799 0.7799 -0.6259 110.2505 508.9197)" class="st1 st3 st4">e</text>
		<text transform="matrix(-0.5978 -0.8017 0.8017 -0.5978 104.4203 501.5712)" class="st1 st3 st4">n</text>
		<text transform="matrix(-0.5787 -0.8155 0.8155 -0.5787 100.0403 495.66)" class="st1 st3 st4">a</text>
		<text transform="matrix(-0.5547 -0.8321 0.8321 -0.5547 96.6306 490.8998)" class="st1 st3 st4">m</text>
		<text transform="matrix(-0.5304 -0.8478 0.8478 -0.5304 90.8302 482.13)" class="st1 st3 st4">e</text>
		<text transform="matrix(-0.5135 -0.8581 0.8581 -0.5135 87.6804 477.0807)" class="st1 st3 st4">s</text>
		<text transform="matrix(-0.4804 -0.8771 0.8771 -0.4804 83.3505 469.7708)" class="st1 st3 st4">w</text>
		<text transform="matrix(-0.4559 -0.8901 0.8901 -0.4559 78.7105 461.2303)" class="st1 st3 st4">e</text>
		<text transform="matrix(-0.4251 -0.9051 0.9051 -0.4251 74.4805 452.8295)" class="st1 st3 st4">g</text>
		<text transform="matrix(-0.4085 -0.9128 0.9128 -0.4085 71.7304 446.9402)" class="st1 st3 st4">i</text>
		<text transform="matrix(-0.3912 -0.9203 0.9203 -0.3912 70.1204 443.36)" class="st1 st3 st4">v</text>
		<text transform="matrix(-0.3707 -0.9287 0.9287 -0.3707 67.5004 437.1695)" class="st1 st3 st4">e</text>
		<text transform="matrix(-0.3425 -0.9395 0.9395 -0.3425 64.0804 428.4105)" class="st1 st3 st4">t</text>
		<text transform="matrix(-0.3236 -0.9462 0.9462 -0.3236 62.5305 424.1605)" class="st1 st3 st4">o</text>
		<text transform="matrix(-0.3034 -0.9529 0.9529 -0.3034 59.2903 414.3096)" class="st1 st3 st4">h</text>
		<text transform="matrix(-0.2672 -0.9636 0.9636 -0.2672 57.1804 407.441)" class="st1 st3 st4">e</text>
		<text transform="matrix(-0.2484 -0.9687 0.9687 -0.2484 55.5904 401.7)" class="st1 st3 st4">r</text>
		<text transform="matrix(5.111587e-02 -0.9987 0.9987 5.111587e-02 46.3004 317.6301)" class="st1 st3 st4">k</text>
		<text transform="matrix(7.602295e-02 -0.9971 0.9971 7.602295e-02 46.6504 310.8706)" class="st1 st3 st4">n</text>
		<text transform="matrix(0.1012 -0.9949 0.9949 0.1012 47.2104 303.5704)" class="st1 st3 st4">o</text>
		<text transform="matrix(0.1305 -0.9914 0.9914 0.1305 47.9004 296.6803)" class="st1 st3 st4">w</text>
		<text transform="matrix(0.1544 -0.988 0.988 0.1544 49.2105 287.0602)" class="st1 st3 st4">i</text>
		<text transform="matrix(0.174 -0.9847 0.9847 0.174 49.8104 283.1603)" class="st1 st3 st4">n</text>
		<text transform="matrix(0.1982 -0.9802 0.9802 0.1982 51.1004 275.9105)" class="st1 st3 st4">g</text>
		<text transform="matrix(0.2375 -0.9714 0.9714 0.2375 53.1204 266.2)" class="st1 st3 st4">N</text>
		<text transform="matrix(0.2639 -0.9646 0.9646 0.2639 55.4204 256.92)" class="st1 st3 st4">a</text>
		<text transform="matrix(0.2813 -0.9596 0.9596 0.2813 56.9705 251.2906)" class="st1 st3 st4">t</text>
		<text transform="matrix(0.3007 -0.9537 0.9537 0.3007 58.2305 246.9599)" class="st1 st3 st4">u</text>
		<text transform="matrix(0.3213 -0.947 0.947 0.3213 60.3603 240.2704)" class="st1 st3 st4">r</text>
		<text transform="matrix(0.3399 -0.9405 0.9405 0.3399 62.0704 235.2403)" class="st1 st3 st4">e</text>
		<text transform="matrix(0.3675 -0.93 0.93 0.3675 65.3403 226.3999)" class="st1 st3 st4">i</text>
		<text transform="matrix(0.3822 -0.9241 0.9241 0.3822 66.7903 222.73)" class="st1 st3 st4">s</text>
		<text transform="matrix(0.4109 -0.9117 0.9117 0.4109 70.1103 214.8707)" class="st1 st3 st4">a</text>
		<text transform="matrix(0.4261 -0.9047 0.9047 0.4261 72.5304 209.5305)" class="st1 st3 st4">l</text>
		<text transform="matrix(0.4379 -0.899 0.899 0.4379 74.1205 206.1604)" class="st1 st3 st4">l</text>
		<text transform="matrix(0.4652 -0.8852 0.8852 0.4652 77.3004 199.7101)" class="st1 st3 st4">b</text>
		<text transform="matrix(0.4863 -0.8738 0.8738 0.4863 80.4605 193.7107)" class="st1 st3 st4">u</text>
		<text transform="matrix(0.5039 -0.8637 0.8637 0.5039 83.9004 187.5703)" class="st1 st3 st4">t</text>
		<text transform="matrix(0.532 -0.8468 0.8468 0.532 87.9405 180.7303)" class="st1 st3 st4">n</text>
		<text transform="matrix(0.553 -0.8332 0.8332 0.553 91.8603 174.5102)" class="st1 st3 st4">o</text>
		<text transform="matrix(0.5696 -0.8219 0.8219 0.5696 95.7205 168.7399)" class="st1 st3 st4">t</text>
		<text transform="matrix(0.5943 -0.8043 0.8043 0.5943 100.2803 162.2299)" class="st1 st3 st4">e</text>
		<text transform="matrix(0.6129 -0.7902 0.7902 0.6129 103.8104 157.4599)" class="st1 st3 st4">n</text>
		<text transform="matrix(0.6323 -0.7747 0.7747 0.6323 108.3303 151.6409)" class="st1 st3 st4">d</text>
		<text transform="matrix(0.6464 -0.763 0.763 0.6464 112.6304 146.4103)" class="st1 st3 st4">l</text>
		<text transform="matrix(0.6593 -0.7518 0.7518 0.6593 115.0303 143.5706)" class="st1 st3 st4">e</text>
		<text transform="matrix(0.6738 -0.7389 0.7389 0.6738 118.9505 139.1203)" class="st1 st3 st4">s</text>
		<text transform="matrix(0.6868 -0.7268 0.7268 0.6868 122.3805 135.3602)" class="st1 st3 st4">s</text>
		<text transform="matrix(0.8449 -0.5349 0.5349 0.8449 174.0704 90.9402)" class="st1 st3 st4">r</text>
		<text transform="matrix(0.8559 -0.5171 0.5171 0.8559 178.8205 87.9304)" class="st1 st3 st4">e</text>
		<text transform="matrix(0.8663 -0.4995 0.4995 0.8663 184.1904 84.7003)" class="st1 st3 st4">s</text>
		<text transform="matrix(0.8751 -0.4839 0.4839 0.8751 188.8504 82.0306)" class="st1 st3 st4">t</text>
		<text transform="matrix(0.8839 -0.4676 0.4676 0.8839 193.0804 79.7004)" class="st1 st3 st4">r</text>
		<text transform="matrix(0.8944 -0.4473 0.4473 0.8944 198.0504 77.0703)" class="st1 st3 st4">u</text>
		<text transform="matrix(0.9047 -0.4261 0.4261 0.9047 204.6504 73.7903)" class="st1 st3 st4">c</text>
		<text transform="matrix(0.9126 -0.4088 0.4088 0.9126 210.0204 71.2805)" class="st1 st3 st4">t</text>
		<text transform="matrix(0.9212 -0.3891 0.3891 0.9212 214.4204 69.3003)" class="st1 st3 st4">u</text>
		<text transform="matrix(0.9299 -0.3678 0.3678 0.9299 221.1904 66.4605)" class="st1 st3 st4">r</text>
		<text transform="matrix(0.9362 -0.3514 0.3514 0.9362 226.4403 64.4104)" class="st1 st3 st4">i</text>
		<text transform="matrix(0.9435 -0.3315 0.3315 0.9435 230.4404 62.8905)" class="st1 st3 st4">n</text>
		<text transform="matrix(0.9516 -0.3072 0.3072 0.9516 237.6603 60.3804)" class="st1 st3 st4">g</text>
		<text transform="matrix(0.9573 -0.289 0.289 0.9573 244.1504 58.3004)" class="st1 st3 st4">,</text>
		<text transform="matrix(0.9657 -0.2598 0.2598 0.9657 251.5104 56.1404)" class="st1 st3 st4">r</text>
		<text transform="matrix(0.9709 -0.2394 0.2394 0.9709 256.9504 54.6804)" class="st1 st3 st4">e</text>
		<text transform="matrix(0.9763 -0.2166 0.2166 0.9763 263.0204 53.2004)" class="st1 st3 st4">v</text>
		<text transform="matrix(0.9804 -0.197 0.197 0.9804 269.9104 51.6904)" class="st1 st3 st4">i</text>
		<text transform="matrix(0.9836 -0.1802 0.1802 0.9836 274.0904 50.8504)" class="st1 st3 st4">s</text>
		<text transform="matrix(0.9866 -0.1633 0.1633 0.9866 279.4004 49.8904)" class="st1 st3 st4">i</text>
		<text transform="matrix(0.9897 -0.1433 0.1433 0.9897 283.6004 49.1904)" class="st1 st3 st4">o</text>
		<text transform="matrix(0.9931 -0.1174 0.1174 0.9931 290.7604 48.1604)" class="st1 st3 st4">n</text>
		<text transform="matrix(0.9953 -9.636693e-02 9.636693e-02 0.9953 298.3904 47.2904)" class="st1 st3 st4">i</text>
		<text transform="matrix(0.9971 -7.567488e-02 7.567488e-02 0.9971 302.6304 46.8704)" class="st1 st3 st4">n</text>
		<text transform="matrix(0.9987 -5.041863e-02 5.041863e-02 0.9987 310.2704 46.3104)" class="st1 st3 st4">g</text>
		<text transform="matrix(0.9999 -1.483476e-02 1.483476e-02 0.9999 320.8504 45.8704)" class="st1 st3 st4">a</text>
		<text transform="matrix(0.9999 1.623085e-02 -1.623085e-02 0.9999 327.0004 45.7504)" class="st1 st3 st4">n</text>
		<text transform="matrix(0.9994 3.437621e-02 -3.437621e-02 0.9994 334.6604 45.8604)" class="st1 st3 st4">d</text>
		<text transform="matrix(0.9976 6.958237e-02 -6.958237e-02 0.9976 345.5104 46.3304)" class="st1 st3 st4">r</text>
		<text transform="matrix(0.9959 9.045877e-02 -9.045877e-02 0.9959 351.1504 46.7304)" class="st1 st3 st4">e</text>
		<text transform="matrix(0.9941 0.1089 -0.1089 0.9941 357.3804 47.3104)" class="st1 st3 st4">i</text>
		<text transform="matrix(0.9916 0.1297 -0.1297 0.9916 361.6204 47.7703)" class="st1 st3 st4">n</text>
		<text transform="matrix(0.9885 0.1513 -0.1513 0.9885 369.2003 48.7804)" class="st1 st3 st4">t</text>
		<text transform="matrix(0.9853 0.1706 -0.1706 0.9853 373.9604 49.5104)" class="st1 st3 st4">e</text>
		<text transform="matrix(0.9815 0.1913 -0.1913 0.9815 380.1404 50.6004)" class="st1 st3 st4">r</text>
		<text transform="matrix(0.9769 0.2137 -0.2137 0.9769 385.6603 51.6704)" class="st1 st3 st4">p</text>
		<text transform="matrix(0.9718 0.236 -0.236 0.9718 392.7504 53.2504)" class="st1 st3 st4">r</text>
		<text transform="matrix(0.9666 0.2565 -0.2565 0.9666 398.2404 54.5803)" class="st1 st3 st4">e</text>
		<text transform="matrix(0.9614 0.2753 -0.2753 0.9614 404.2803 56.2004)" class="st1 st3 st4">t</text>
		<text transform="matrix(0.9568 0.2909 -0.2909 0.9568 408.9305 57.5503)" class="st1 st3 st4">i</text>
		<text transform="matrix(0.9504 0.311 -0.311 0.9504 413.0004 58.7704)" class="st1 st3 st4">n</text>
		<text transform="matrix(0.9421 0.3353 -0.3353 0.9421 420.2803 61.1703)" class="st1 st3 st4">g</text>
		<text transform="matrix(0.9268 0.3756 -0.3756 0.9268 430.2003 64.7805)" class="st1 st3 st4">w</text>
		<text transform="matrix(0.9147 0.4042 -0.4042 0.9147 439.4805 68.5705)" class="st1 st3 st4">h</text>
		<text transform="matrix(0.9046 0.4263 -0.4263 0.9046 446.3404 71.6303)" class="st1 st3 st4">a</text>
		<text transform="matrix(0.8962 0.4437 -0.4437 0.8962 451.9204 74.2703)" class="st1 st3 st4">t</text>
		<text transform="matrix(0.8779 0.4788 -0.4788 0.8779 459.6002 78.1203)" class="st1 st3 st4">w</text>
		<text transform="matrix(0.8638 0.5038 -0.5038 0.8638 468.3705 82.9504)" class="st1 st3 st4">e</text>
		<text transform="matrix(0.8445 0.5355 -0.5355 0.8445 477.0006 88.0705)" class="st1 st3 st4">u</text>
		<text transform="matrix(0.8301 0.5576 -0.5576 0.8301 483.1803 92.0004)" class="st1 st3 st4">n</text>
		<text transform="matrix(0.8153 0.579 -0.579 0.8153 489.5206 96.2804)" class="st1 st3 st4">d</text>
		<text transform="matrix(0.8016 0.5979 -0.5979 0.8016 495.3002 100.4005)" class="st1 st3 st4">e</text>
		<text transform="matrix(0.7889 0.6146 -0.6146 0.7889 500.3203 104.1704)" class="st1 st3 st4">r</text>
		<text transform="matrix(0.7769 0.6296 -0.6296 0.7769 504.7502 107.6305)" class="st1 st3 st4">s</text>
		<text transform="matrix(0.7655 0.6435 -0.6435 0.7655 508.9405 111.0304)" class="st1 st3 st4">t</text>
		<text transform="matrix(0.753 0.658 -0.658 0.753 512.6206 114.1304)" class="st1 st3 st4">a</text>
		<text transform="matrix(0.7369 0.676 -0.676 0.7369 517.2701 118.2003)" class="st1 st3 st4">n</text>
		<text transform="matrix(0.7192 0.6948 -0.6948 0.7192 522.9001 123.3905)" class="st1 st3 st4">d</text>
		<text transform="matrix(0.6934 0.7206 -0.7206 0.6934 530.6506 131.0104)" class="st1 st3 st4">a</text>
		<text transform="matrix(0.6787 0.7344 -0.7344 0.6787 534.9307 135.4604)" class="st1 st3 st4">s</text>
		<text transform="matrix(0.6521 0.7581 -0.7581 0.6521 541.0804 142.2205)" class="st1 st3 st4">h</text>
		<text transform="matrix(0.6322 0.7748 -0.7748 0.6322 545.9703 147.9205)" class="st1 st3 st4">u</text>
		<text transform="matrix(0.6072 0.7945 -0.7945 0.6072 550.6 153.5704)" class="st1 st3 st4">m</text>
		<text transform="matrix(0.5833 0.8123 -0.8123 0.5833 557.1506 162.2304)" class="st1 st3 st4">a</text>
		<text transform="matrix(0.5632 0.8263 -0.8263 0.5632 560.7503 167.2403)" class="st1 st3 st4">n</text>
		<text transform="matrix(0.5442 0.839 -0.839 0.5442 565.0409 173.5803)" class="st1 st3 st4">s</text>
		<text transform="matrix(0.5305 0.8477 -0.8477 0.5305 567.95 178.1003)" class="st1 st3 st4">,</text>
		<text transform="matrix(0.4983 0.867 -0.867 0.4983 571.9901 184.6104)" class="st1 st3 st4">N</text>
		<text transform="matrix(0.4736 0.8807 -0.8807 0.4736 576.8802 193.1903)" class="st1 st3 st4">a</text>
		<text transform="matrix(0.4563 0.8898 -0.8898 0.4563 579.7902 198.6404)" class="st1 st3 st4">t</text>
		<text transform="matrix(0.4371 0.8994 -0.8994 0.4371 581.9901 202.9304)" class="st1 st3 st4">u</text>
		<text transform="matrix(0.4164 0.9092 -0.9092 0.4164 585.1707 209.5103)" class="st1 st3 st4">r</text>
		<text transform="matrix(0.3971 0.9178 -0.9178 0.3971 587.5205 214.6603)" class="st1 st3 st4">e</text>
		<text transform="matrix(0.3646 0.9312 -0.9312 0.3646 591.4307 223.8904)" class="st1 st3 st4">a</text>
		<text transform="matrix(0.3425 0.9395 -0.9395 0.3425 593.68 229.6502)" class="st1 st3 st4">d</text>
		<text transform="matrix(0.3178 0.9482 -0.9482 0.3178 596.0899 236.3004)" class="st1 st3 st4">n</text>
		<text transform="matrix(0.2838 0.9589 -0.9589 0.2838 599.6302 247.1804)" class="st1 st3 st4">t</text>
		<text transform="matrix(0.2629 0.9648 -0.9648 0.2629 601.0007 251.7904)" class="st1 st3 st4">h</text>
		<text transform="matrix(0.2392 0.971 -0.971 0.2392 602.9499 259.0504)" class="st1 st3 st4">e</text>
		<text transform="matrix(0.2016 0.9795 -0.9795 0.2016 605.28 268.7804)" class="st1 st3 st4">E</text>
		<text transform="matrix(0.1769 0.9842 -0.9842 0.1769 606.8708 276.6304)" class="st1 st3 st4">a</text>
		<text transform="matrix(0.1564 0.9877 -0.9877 0.1564 607.9504 282.7304)" class="st1 st3 st4">r</text>
		<text transform="matrix(0.1381 0.9904 -0.9904 0.1381 608.8204 288.2804)" class="st1 st3 st4">t</text>
		<text transform="matrix(0.1167 0.9932 -0.9932 0.1167 609.4901 293.0504)" class="st1 st3 st4">h</text>
		<text transform="matrix(-0.2083 0.9781 -0.9781 -0.2083 606.0905 386.9505)" class="st1 st3 st4">r</text>
		<text transform="matrix(-0.2287 0.9735 -0.9735 -0.2287 604.9195 392.4504)" class="st1 st3 st4">e</text>
		<text transform="matrix(-0.2489 0.9685 -0.9685 -0.2489 603.4698 398.5504)" class="st1 st3 st4">s</text>
		<text transform="matrix(-0.2662 0.9639 -0.9639 -0.2662 602.12 403.7605)" class="st1 st3 st4">t</text>
		<text transform="matrix(-0.285 0.9585 -0.9585 -0.285 600.8308 408.4003)" class="st1 st3 st4">a</text>
		<text transform="matrix(-0.3075 0.9515 -0.9515 -0.3075 599.0809 414.3103)" class="st1 st3 st4">b</text>
		<text transform="matrix(-0.3262 0.9453 -0.9453 -0.3262 596.8604 421.0805)" class="st1 st3 st4">l</text>
		<text transform="matrix(-0.3402 0.9403 -0.9403 -0.3402 595.5301 424.9003)" class="st1 st3 st4">i</text>
		<text transform="matrix(-0.3562 0.9344 -0.9344 -0.3562 594.0811 428.9104)" class="st1 st3 st4">s</text>
		<text transform="matrix(-0.3775 0.926 -0.926 -0.3775 592.1598 433.9403)" class="st1 st3 st4">h</text>
		<text transform="matrix(-0.3968 0.9179 -0.9179 -0.3968 589.3002 440.8906)" class="st1 st3 st4">i</text>
		<text transform="matrix(-0.416 0.9094 -0.9094 -0.416 587.6301 444.7803)" class="st1 st3 st4">n</text>
		<text transform="matrix(-0.4392 0.8984 -0.8984 -0.4392 584.4202 451.7504)" class="st1 st3 st4">g</text>
		<text transform="matrix(-0.4705 0.8824 -0.8824 -0.4705 579.6912 461.2206)" class="st1 st3 st4">r</text>
		<text transform="matrix(-0.4889 0.8723 -0.8723 -0.4889 577.0413 466.1704)" class="st1 st3 st4">e</text>
		<text transform="matrix(-0.5068 0.8621 -0.8621 -0.5068 573.9595 471.6503)" class="st1 st3 st4">s</text>
		<text transform="matrix(-0.5259 0.8505 -0.8505 -0.5259 571.2305 476.2802)" class="st1 st3 st4">p</text>
		<text transform="matrix(-0.5458 0.8379 -0.8379 -0.5458 567.4108 482.4304)" class="st1 st3 st4">e</text>
		<text transform="matrix(-0.5638 0.8259 -0.8259 -0.5638 563.9799 487.6804)" class="st1 st3 st4">c</text>
		<text transform="matrix(-0.5793 0.8151 -0.8151 -0.5793 560.6111 492.6006)" class="st1 st3 st4">t</text>
		<text transform="matrix(-0.6033 0.7975 -0.7975 -0.6033 555.5712 499.5603)" class="st1 st3 st4">f</text>
		<text transform="matrix(-0.6199 0.7847 -0.7847 -0.6199 552.7512 503.2904)" class="st1 st3 st4">o</text>
		<text transform="matrix(-0.6374 0.7705 -0.7705 -0.6374 548.261 508.9502)" class="st1 st3 st4">r</text>
		<text transform="matrix(-0.6682 0.744 -0.744 -0.6682 542.2199 516.1707)" class="st1 st3 st4">w</text>
		<text transform="matrix(-0.6908 0.7231 -0.7231 -0.6908 535.4901 523.6108)" class="st1 st3 st4">h</text>
		<text transform="matrix(-0.7077 0.7065 -0.7065 -0.7077 530.3101 529.0003)" class="st1 st3 st4">a</text>
		<text transform="matrix(-0.7213 0.6926 -0.6926 -0.7213 525.92 533.3608)" class="st1 st3 st4">t</text>
		<text transform="matrix(-0.7412 0.6713 -0.6713 -0.7412 519.66 539.2807)" class="st1 st3 st4">i</text>
		<text transform="matrix(-0.7524 0.6587 -0.6587 -0.7524 516.501 542.1407)" class="st1 st3 st4">s</text>
		<text transform="matrix(-0.7752 0.6318 -0.6318 -0.7752 509.5712 548.1199)" class="st1 st3 st4">o</text>
		<text transform="matrix(-0.791 0.6118 -0.6118 -0.791 503.9496 552.6807)" class="st1 st3 st4">u</text>
		<text transform="matrix(-0.8039 0.5948 -0.5948 -0.8039 498.1296 557.1505)" class="st1 st3 st4">t</text>
		<text transform="matrix(-0.8144 0.5803 -0.5803 -0.8144 494.2503 560.0099)" class="st1 st3 st4">s</text>
		<text transform="matrix(-0.8241 0.5664 -0.5664 -0.8241 489.8597 563.1307)" class="st1 st3 st4">i</text>
		<text transform="matrix(-0.8353 0.5498 -0.5498 -0.8353 486.3395 565.5605)" class="st1 st3 st4">d</text>
		<text transform="matrix(-0.848 0.5301 -0.5301 -0.848 480.4006 569.4506)" class="st1 st3 st4">e</text>
		<text transform="matrix(-0.8649 0.502 -0.502 -0.8649 471.8409 574.6901)" class="st1 st3 st4">t</text>
		<text transform="matrix(-0.8755 0.4831 -0.4831 -0.8755 467.6899 577.1006)" class="st1 st3 st4">h</text>
		<text transform="matrix(-0.887 0.4617 -0.4617 -0.887 461.1204 580.7104)" class="st1 st3 st4">e</text>
		<text transform="matrix(-0.9118 0.4106 -0.4106 -0.9118 448.8008 586.9208)" class="st1 st3 st4">m</text>
		<text transform="matrix(-0.9238 0.3828 -0.3828 -0.9238 438.8902 591.3307)" class="st1 st3 st4">a</text>
		<text transform="matrix(-0.9329 0.3602 -0.3602 -0.9329 433.2 593.6909)" class="st1 st3 st4">n</text>
		<text transform="matrix(-0.9417 0.3364 -0.3364 -0.9417 426.0397 596.4308)" class="st1 st3 st4">y</text>
		<text transform="matrix(-0.9528 0.3037 -0.3037 -0.9528 416.2808 599.8199)" class="st1 st3 st4">s</text>
		<text transform="matrix(-0.9594 0.2822 -0.2822 -0.9594 411.1508 601.4603)" class="st1 st3 st4">p</text>
		<text transform="matrix(-0.9664 0.2571 -0.2571 -0.9664 404.19 603.4906)" class="st1 st3 st4">h</text>
		<text transform="matrix(-0.9724 0.2334 -0.2334 -0.9724 396.9496 605.4)" class="st1 st3 st4">e</text>
		<text transform="matrix(-0.9771 0.2129 -0.2129 -0.9771 390.8604 606.8501)" class="st1 st3 st4">r</text>
		<text transform="matrix(-0.9814 0.1922 -0.1922 -0.9814 385.3306 608.0505)" class="st1 st3 st4">e</text>
		<text transform="matrix(-0.9851 0.1719 -0.1719 -0.9851 379.1801 609.2402)" class="st1 st3 st4">s</text>
		<text transform="matrix(-0.9906 0.1369 -0.1369 -0.9906 370.1604 610.7505)" class="st1 st3 st4">o</text>
		<text transform="matrix(-0.9933 0.116 -0.116 -0.9933 362.9611 611.72)" class="st1 st3 st4">f</text>
		<text transform="matrix(-0.9963 8.628631e-02 -8.628631e-02 -0.9963 354.58 612.6308)" class="st1 st3 st4">t</text>
		<text transform="matrix(-0.9979 6.488066e-02 -6.488066e-02 -0.9979 349.7807 613.0502)" class="st1 st3 st4">h</text>
		<text transform="matrix(-0.9992 4.100385e-02 -4.100385e-02 -0.9992 342.3012 613.5212)" class="st1 st3 st4">e</text>
		<text transform="matrix(-0.9999 1.623072e-02 -1.623072e-02 -0.9999 332.2408 613.8304)" class="st1 st3 st4">“</text>
		<text transform="matrix(-1 -7.853848e-03 7.853848e-03 -1 327.5005 613.8706)" class="st1 st3 st4">I</text>
		<text transform="matrix(-0.9997 -2.443207e-02 2.443207e-02 -0.9997 322.6208 613.8304)" class="st1 st3 st4">”</text>
	</g>
	<g>
		<line class="st5" x1="306.9" y1="487.4" x2="290" y2="599.8"/>
		<line class="st5" x1="353.4" y1="485.5" x2="370.4" y2="599.1"/>
		<line class="st5" x1="396.9" y1="470.6" x2="446.9" y2="575"/>
		<line class="st5" x1="435.5" y1="445.7" x2="512.9" y2="529.8"/>
		<line class="st5" x1="465.6" y1="407.6" x2="563" y2="467.5"/>
		<line class="st5" x1="483.3" y1="367.5" x2="592.9" y2="393.3"/>
		<line class="st5" x1="487.5" y1="321" x2="600.3" y2="313.6"/>
		<line class="st5" x1="474.2" y1="275.2" x2="583.4" y2="235.1"/>
		<line class="st5" x1="455.7" y1="233.8" x2="544.6" y2="164.7"/>
		<line class="st5" x1="421.9" y1="200.9" x2="486.8" y2="108.5"/>
		<line class="st5" x1="379" y1="181.6" x2="414.9" y2="71.6"/>
		<line class="st5" x1="333" y1="171.4" x2="335" y2="57.3"/>
		<line class="st5" x1="285.6" y1="176" x2="254.5" y2="67.9"/>
		<line class="st5" x1="241.5" y1="195.2" x2="180" y2="100.8"/>
		<line class="st5" x1="205.3" y1="227" x2="118.7" y2="155.1"/>
		<line class="st5" x1="182.4" y1="269.2" x2="76.3" y2="224.6"/>
		<line class="st5" x1="168.6" y1="315" x2="57.6" y2="303.8"/>
		<line class="st5" x1="174" y1="362.5" x2="61.5" y2="385"/>
		<line class="st5" x1="188.3" y1="407.9" x2="89" y2="461.4"/>
		<line class="st5" x1="218.6" y1="444.5" x2="138.4" y2="525.8"/>
		<line class="st5" x1="256.9" y1="471.9" x2="204.2" y2="572.8"/>
	</g>
	<text transform="matrix(0.2473 -0.9689 0.9689 0.2473 186.4203 295.7202)" class="st6 st3 st7">s</text>
	<text transform="matrix(0.284 -0.9588 0.9588 0.284 187.5405 291.3105)" class="st6 st3 st7">h</text>
	<text transform="matrix(0.3226 -0.9465 0.9465 0.3226 189.3903 285.1508)" class="st6 st3 st7">a</text>
	<text transform="matrix(0.3598 -0.933 0.933 0.3598 191.0803 280.2002)" class="st6 st3 st7">p</text>
	<text transform="matrix(0.3912 -0.9203 0.9203 0.3912 193.3503 274.4)" class="st6 st3 st7">i</text>
	<text transform="matrix(0.4231 -0.9061 0.9061 0.4231 194.7104 271.1508)" class="st6 st3 st7">n</text>
	<text transform="matrix(0.4613 -0.8873 0.8873 0.4613 197.5004 265.2206)" class="st6 st3 st7">g</text>
	<text transform="matrix(0.5232 -0.8522 0.8522 0.5232 201.6704 257.3601)" class="st6 st3 st7">w</text>
	<text transform="matrix(0.5635 -0.8261 0.8261 0.5635 206.2803 249.9602)" class="st6 st3 st7">a</text>
	<text transform="matrix(0.5938 -0.8046 0.8046 0.5938 209.2303 245.6401)" class="st6 st3 st7">y</text>
	<text transform="matrix(0.6213 -0.7836 0.7836 0.6213 212.5603 241.1605)" class="st6 st3 st7">s</text>
	<text transform="matrix(0.6656 -0.7463 0.7463 0.6656 217.3704 235.2204)" class="st6 st3 st7">o</text>
	<text transform="matrix(0.691 -0.7228 0.7228 0.691 221.5303 230.6102)" class="st6 st3 st7">f</text>
	<text transform="matrix(0.7298 -0.6837 0.6837 0.7298 226.3905 225.6206)" class="st6 st3 st7">d</text>
	<text transform="matrix(0.7578 -0.6525 0.6525 0.7578 230.8203 221.4801)" class="st6 st3 st7">o</text>
	<text transform="matrix(0.7791 -0.6269 0.6269 0.7791 235.5603 217.4405)" class="st6 st3 st7">i</text>
	<text transform="matrix(0.8004 -0.5994 0.5994 0.8004 238.2903 215.2201)" class="st6 st3 st7">n</text>
	<text transform="matrix(0.8251 -0.565 0.565 0.8251 243.5804 211.2802)" class="st6 st3 st7">g</text>
	<text transform="matrix(0.8572 -0.515 0.515 0.8572 250.9903 206.3504)" class="st6 st3 st7">a</text>
	<text transform="matrix(0.8774 -0.4798 0.4798 0.8774 255.4704 203.6502)" class="st6 st3 st7">n</text>
	<text transform="matrix(0.8973 -0.4413 0.4413 0.8973 261.2305 200.5206)" class="st6 st3 st7">d</text>
	<text transform="matrix(0.927 -0.3751 0.3751 0.927 269.4904 196.5505)" class="st6 st3 st7">w</text>
	<text transform="matrix(0.944 -0.33 0.33 0.944 277.5604 193.3404)" class="st6 st3 st7">a</text>
	<text transform="matrix(0.9557 -0.2944 0.2944 0.9557 282.5104 191.6203)" class="st6 st3 st7">y</text>
	<text transform="matrix(0.9654 -0.2607 0.2607 0.9654 287.8605 189.9905)" class="st6 st3 st7">s</text>
	<text transform="matrix(0.9784 -0.2067 0.2067 0.9784 295.2603 188.0804)" class="st6 st3 st7">a</text>
	<text transform="matrix(0.986 -0.1668 0.1668 0.986 300.3805 187.0004)" class="st6 st3 st7">n</text>
	<text transform="matrix(0.9923 -0.1238 0.1238 0.9923 306.8604 185.9204)" class="st6 st3 st7">d</text>
	<text transform="matrix(0.9975 -7.062699e-02 7.062699e-02 0.9975 315.9904 184.9204)" class="st6 st3 st7">l</text>
	<text transform="matrix(0.9989 -4.728079e-02 4.728079e-02 0.9989 319.3004 184.6904)" class="st6 st3 st7">i</text>
	<text transform="matrix(0.9999 -1.623085e-02 1.623085e-02 0.9999 322.8304 184.5104)" class="st6 st3 st7">v</text>
	<text transform="matrix(0.9998 1.745241e-02 -1.745241e-02 0.9998 328.8704 184.4504)" class="st6 st3 st7">i</text>
	<text transform="matrix(0.9987 5.163877e-02 -5.163877e-02 0.9987 332.3804 184.4904)" class="st6 st3 st7">n</text>
	<text transform="matrix(0.9956 9.376080e-02 -9.376080e-02 0.9956 338.9604 184.8504)" class="st6 st3 st7">g</text>
	<text transform="matrix(0.989 0.148 -0.148 0.989 347.8204 185.8103)" class="st6 st3 st7">f</text>
	<text transform="matrix(0.9833 0.1822 -0.1822 0.9833 351.6404 186.3704)" class="st6 st3 st7">o</text>
	<text transform="matrix(0.9756 0.2193 -0.2193 0.9756 357.7505 187.5204)" class="st6 st3 st7">r</text>
	<text transform="matrix(0.9008 0.4343 -0.4343 0.9008 388.6805 197.7504)" class="st6 st3 st7">e</text>
	<text transform="matrix(0.8822 0.4709 -0.4709 0.8822 393.4604 200.0603)" class="st6 st3 st7">n</text>
	<text transform="matrix(0.8623 0.5063 -0.5063 0.8623 399.2505 203.1703)" class="st6 st3 st7">a</text>
	<text transform="matrix(0.842 0.5395 -0.5395 0.842 403.7804 205.8303)" class="st6 st3 st7">b</text>
	<text transform="matrix(0.824 0.5666 -0.5666 0.824 408.8904 209.1404)" class="st6 st3 st7">l</text>
	<text transform="matrix(0.8105 0.5858 -0.5858 0.8105 411.6404 211.0404)" class="st6 st3 st7">i</text>
	<text transform="matrix(0.7897 0.6135 -0.6135 0.7897 414.5006 213.0903)" class="st6 st3 st7">n</text>
	<text transform="matrix(0.763 0.6464 -0.6464 0.763 419.6902 217.1405)" class="st6 st3 st7">g</text>
	<text transform="matrix(0.7213 0.6926 -0.6926 0.7213 426.4101 222.9704)" class="st6 st3 st7">o</text>
	<text transform="matrix(0.6948 0.7192 -0.7192 0.6948 430.8902 227.3105)" class="st6 st3 st7">r</text>
	<text transform="matrix(0.6431 0.7658 -0.7658 0.6431 436.2906 232.9603)" class="st6 st3 st7">m</text>
	<text transform="matrix(0.6036 0.7973 -0.7973 0.6036 442.3102 240.2303)" class="st6 st3 st7">e</text>
	<text transform="matrix(0.572 0.8203 -0.8203 0.572 445.5304 244.4805)" class="st6 st3 st7">d</text>
	<text transform="matrix(0.5448 0.8386 -0.8386 0.5448 448.9806 249.4705)" class="st6 st3 st7">i</text>
	<text transform="matrix(0.5192 0.8546 -0.8546 0.5192 450.9005 252.4203)" class="st6 st3 st7">a</text>
	<text transform="matrix(0.4915 0.8709 -0.8709 0.4915 453.6201 256.9404)" class="st6 st3 st7">t</text>
	<text transform="matrix(0.4687 0.8834 -0.8834 0.4687 455.6003 260.4603)" class="st6 st3 st7">i</text>
	<text transform="matrix(0.4377 0.8991 -0.8991 0.4377 457.2502 263.5504)" class="st6 st3 st7">n</text>
	<text transform="matrix(0.3987 0.9171 -0.9171 0.3987 460.1208 269.4905)" class="st6 st3 st7">g</text>
	<text transform="matrix(0.344 0.939 -0.939 0.344 463.5604 277.6905)" class="st6 st3 st7">c</text>
	<text transform="matrix(0.3072 0.9516 -0.9516 0.3072 465.3004 282.4204)" class="st6 st3 st7">o</text>
	<text transform="matrix(0.2553 0.9669 -0.9669 0.2553 467.2302 288.3004)" class="st6 st3 st7">m</text>
	<text transform="matrix(0.2026 0.9793 -0.9793 0.2026 469.58 297.4303)" class="st6 st3 st7">p</text>
	<text transform="matrix(0.17 0.9854 -0.9854 0.17 470.8109 303.5504)" class="st6 st3 st7">l</text>
	<text transform="matrix(0.1406 0.9901 -0.9901 0.1406 471.3902 306.8304)" class="st6 st3 st7">e</text>
	<text transform="matrix(0.103 0.9947 -0.9947 0.103 472.12 312.0804)" class="st6 st3 st7">x</text>
	<text transform="matrix(4.117813e-02 0.9992 -0.9992 4.117813e-02 472.9314 320.8904)" class="st6 st3 st7">p</text>
	<text transform="matrix(1.623086e-02 0.9999 -0.9999 1.623086e-02 473.1412 327.0904)" class="st6 st3 st7">r</text>
	<text transform="matrix(-3.298073e-02 0.9995 -0.9995 -3.298073e-02 473.1909 331.8704)" class="st6 st3 st7">o</text>
	<text transform="matrix(-7.114930e-02 0.9975 -0.9975 -7.114930e-02 472.9609 338.0603)" class="st6 st3 st7">c</text>
	<text transform="matrix(-0.1066 0.9943 -0.9943 -0.1066 472.6011 343.1004)" class="st6 st3 st7">e</text>
	<text transform="matrix(-0.1402 0.9901 -0.9901 -0.1402 472.0106 348.4004)" class="st6 st3 st7">s</text>
	<text transform="matrix(-0.1711 0.9853 -0.9853 -0.1711 471.3712 352.8904)" class="st6 st3 st7">s</text>
	<text transform="matrix(-0.2043 0.9789 -0.9789 -0.2043 470.6007 357.3303)" class="st6 st3 st7">e</text>
	<text transform="matrix(-0.2377 0.9713 -0.9713 -0.2377 469.4906 362.5503)" class="st6 st3 st7">s</text>
	<text transform="matrix(-0.2867 0.958 -0.958 -0.2867 467.5811 369.9503)" class="st6 st3 st7">f</text>
	<text transform="matrix(-0.3198 0.9475 -0.9475 -0.3198 466.4813 373.6503)" class="st6 st3 st7">o</text>
	<text transform="matrix(-0.3558 0.9346 -0.9346 -0.3558 464.4711 379.5504)" class="st6 st3 st7">r</text>
	<text transform="matrix(-0.5376 0.8432 -0.8432 -0.5376 451.6103 406.1003)" class="st6 st3 st7">r</text>
	<text transform="matrix(-0.5666 0.824 -0.824 -0.5666 449.0497 410.1002)" class="st6 st3 st7">e</text>
	<text transform="matrix(-0.5997 0.8002 -0.8002 -0.5997 446.031 414.4906)" class="st6 st3 st7">n</text>
	<text transform="matrix(-0.6337 0.7736 -0.7736 -0.6337 442.0809 419.7303)" class="st6 st3 st7">d</text>
	<text transform="matrix(-0.6633 0.7484 -0.7484 -0.6633 438.2201 424.4205)" class="st6 st3 st7">e</text>
	<text transform="matrix(-0.6856 0.728 -0.728 -0.6856 434.6811 428.3906)" class="st6 st3 st7">i</text>
	<text transform="matrix(-0.7104 0.7038 -0.7038 -0.7104 432.2695 430.9709)" class="st6 st3 st7">n</text>
	<text transform="matrix(-0.7395 0.6731 -0.6731 -0.7395 427.5898 435.58)" class="st6 st3 st7">g</text>
	<text transform="matrix(-0.7743 0.6328 -0.6328 -0.7743 420.9105 441.49)" class="st6 st3 st7">i</text>
	<text transform="matrix(-0.7957 0.6057 -0.6057 -0.7957 418.1999 443.73)" class="st6 st3 st7">n</text>
	<text transform="matrix(-0.8169 0.5767 -0.5767 -0.8169 412.9306 447.7007)" class="st6 st3 st7">f</text>
	<text transform="matrix(-0.8363 0.5483 -0.5483 -0.8363 409.7804 449.9404)" class="st6 st3 st7">o</text>
	<text transform="matrix(-0.8564 0.5162 -0.5162 -0.8564 404.5511 453.3403)" class="st6 st3 st7">r</text>
	<text transform="matrix(-0.8806 0.4738 -0.4738 -0.8806 400.5208 455.8203)" class="st6 st3 st7">m</text>
	<text transform="matrix(-0.9034 0.4288 -0.4288 -0.9034 392.1913 460.23)" class="st6 st3 st7">a</text>
	<text transform="matrix(-0.9167 0.3995 -0.3995 -0.9167 387.4398 462.4606)" class="st6 st3 st7">t</text>
	<text transform="matrix(-0.9269 0.3754 -0.3754 -0.9269 383.7307 464.07)" class="st6 st3 st7">i</text>
	<text transform="matrix(-0.939 0.3438 -0.3438 -0.939 380.461 465.4103)" class="st6 st3 st7">o</text>
	<text transform="matrix(-0.9533 0.302 -0.302 -0.9533 374.6396 467.5299)" class="st6 st3 st7">n</text>
	<text transform="matrix(-0.9703 0.2419 -0.2419 -0.9703 365.3903 470.3203)" class="st6 st3 st7">a</text>
	<text transform="matrix(-0.9783 0.2072 -0.2072 -0.9783 360.2812 471.5901)" class="st6 st3 st7">c</text>
	<text transform="matrix(-0.9849 0.173 -0.173 -0.9849 355.3408 472.6205)" class="st6 st3 st7">c</text>
	<text transform="matrix(-0.9905 0.1378 -0.1378 -0.9905 350.3912 473.4804)" class="st6 st3 st7">e</text>
	<text transform="matrix(-0.9946 0.1042 -0.1042 -0.9946 345.1111 474.2)" class="st6 st3 st7">s</text>
	<text transform="matrix(-0.9971 7.671892e-02 -7.671892e-02 -0.9971 340.5907 474.6602)" class="st6 st3 st7">i</text>
	<text transform="matrix(-0.999 4.396819e-02 -4.396819e-02 -0.999 337.0796 474.9409)" class="st6 st3 st7">b</text>
	<text transform="matrix(-0.9999 1.623072e-02 -1.623072e-02 -0.9999 330.9605 475.18)" class="st6 st3 st7">l</text>
	<text transform="matrix(-0.9999 -1.727800e-02 1.727800e-02 -0.9999 327.6503 475.2307)" class="st6 st3 st7">e</text>
	<text transform="matrix(-0.9977 -6.836351e-02 6.836351e-02 -0.9977 319.2104 474.9707)" class="st6 st3 st7">i</text>
	<text transform="matrix(-0.9947 -0.1028 0.1028 -0.9947 315.6905 474.7499)" class="st6 st3 st7">n</text>
	<text transform="matrix(-0.9463 -0.3234 0.3234 -0.9463 284.9805 468.8809)" class="st6 st3 st7">m</text>
	<text transform="matrix(-0.9286 -0.371 0.371 -0.9286 276.0599 465.7597)" class="st6 st3 st7">a</text>
	<text transform="matrix(-0.9162 -0.4008 0.4008 -0.9162 271.1903 463.79)" class="st6 st3 st7">t</text>
	<text transform="matrix(-0.9027 -0.4302 0.4302 -0.9027 267.5101 462.1802)" class="st6 st3 st7">e</text>
	<text transform="matrix(-0.8873 -0.4613 0.4613 -0.8873 262.71 459.8803)" class="st6 st3 st7">r</text>
	<text transform="matrix(-0.8737 -0.4865 0.4865 -0.8737 258.4904 457.6714)" class="st6 st3 st7">i</text>
	<text transform="matrix(-0.8586 -0.5126 0.5126 -0.8586 255.4007 455.9608)" class="st6 st3 st7">a</text>
	<text transform="matrix(-0.8431 -0.5377 0.5377 -0.8431 250.9002 453.2403)" class="st6 st3 st7">l</text>
	<text transform="matrix(-0.8301 -0.5576 0.5576 -0.8301 248.0801 451.4305)" class="st6 st3 st7">i</text>
	<text transform="matrix(-0.8131 -0.5821 0.5821 -0.8131 245.1407 449.4702)" class="st6 st3 st7">z</text>
	<text transform="matrix(-0.7954 -0.6061 0.6061 -0.7954 240.9604 446.4504)" class="st6 st3 st7">i</text>
	<text transform="matrix(-0.774 -0.6332 0.6332 -0.774 238.1503 444.3413)" class="st6 st3 st7">n</text>
	<text transform="matrix(-0.7465 -0.6654 0.6654 -0.7465 233.0806 440.1595)" class="st6 st3 st7">g</text>
	<text transform="matrix(-0.7028 -0.7114 0.7114 -0.7028 226.5002 434.15)" class="st6 st3 st7">n</text>
	<text transform="matrix(-0.6735 -0.7392 0.7392 -0.6735 221.9005 429.4699)" class="st6 st3 st7">a</text>
	<text transform="matrix(-0.6479 -0.7618 0.7618 -0.6479 218.3705 425.5798)" class="st6 st3 st7">r</text>
	<text transform="matrix(-0.6225 -0.7826 0.7826 -0.6225 215.2904 421.9297)" class="st6 st3 st7">r</text>
	<text transform="matrix(-0.5954 -0.8034 0.8034 -0.5954 212.3304 418.2104)" class="st6 st3 st7">a</text>
	<text transform="matrix(-0.5696 -0.8219 0.8219 -0.5696 209.2206 413.9797)" class="st6 st3 st7">t</text>
	<text transform="matrix(-0.5479 -0.8366 0.8366 -0.5479 206.9202 410.6408)" class="st6 st3 st7">i</text>
	<text transform="matrix(-0.5203 -0.854 0.854 -0.5203 204.9803 407.7102)" class="st6 st3 st7">v</text>
	<text transform="matrix(-0.4865 -0.8737 0.8737 -0.4865 201.8602 402.5495)" class="st6 st3 st7">e</text>
	<text transform="matrix(-0.4565 -0.8897 0.8897 -0.4565 199.2905 397.9013)" class="st6 st3 st7">s</text>
	<text transform="matrix(-0.4067 -0.9135 0.9135 -0.4067 195.8804 391.0701)" class="st6 st3 st7">a</text>
	<text transform="matrix(-0.3691 -0.9294 0.9294 -0.3691 193.7504 386.2997)" class="st6 st3 st7">n</text>
	<text transform="matrix(-0.3282 -0.9446 0.9446 -0.3282 191.3403 380.1913)" class="st6 st3 st7">d</text>
	<text transform="matrix(-0.2676 -0.9635 0.9635 -0.2676 188.4403 371.4808)" class="st6 st3 st7">v</text>
	<text transform="matrix(-0.2355 -0.9719 0.9719 -0.2355 186.8504 365.6595)" class="st6 st3 st7">i</text>
	<text transform="matrix(-0.2083 -0.9781 0.9781 -0.2083 186.0204 362.2295)" class="st6 st3 st7">s</text>
	<text transform="matrix(-0.181 -0.9835 0.9835 -0.181 185.0904 357.8004)" class="st6 st3 st7">i</text>
	<text transform="matrix(-0.148 -0.989 0.989 -0.148 184.4404 354.3404)" class="st6 st3 st7">o</text>
	<text transform="matrix(-0.1044 -0.9945 0.9945 -0.1044 183.5304 348.1994)" class="st6 st3 st7">n</text>
	<text transform="matrix(-6.644800e-02 -0.9978 0.9978 -6.644800e-02 182.8704 341.631)" class="st6 st3 st7">s</text>
	<text transform="matrix(-1.623086e-02 -0.9999 0.9999 -1.623086e-02 182.4704 334.0305)" class="st6 st3 st7">o</text>
	<text transform="matrix(2.495562e-02 -0.9997 0.9997 2.495562e-02 182.4204 327.8206)" class="st6 st3 st7">f</text>
	<circle class="st5" cx="327.8" cy="329.8" r="272.5"/>
	<circle class="st5" cx="329.9" cy="328.6" r="300.6"/>
	<g>
		<text transform="matrix(0.6691 0.7431 -0.7431 0.6691 155.3006 136.6604)" class="st1 st3 st7">Slow economies</text>
		<text transform="matrix(0.4226 0.9063 -0.9063 0.4226 222.2304 96.6204)" class="st1 st3 st7">Slower lifestyles</text>
		<text transform="matrix(0.1392 0.9903 -0.9903 0.1392 303.5609 72.7304)" class="st1 st3 st7">Reduced</text>
		<text transform="matrix(0.1392 0.9903 -0.9903 0.1392 289.9408 74.6404)" class="st1 st3 st7">consumption</text>
		<text transform="matrix(0.5446 -0.8387 0.8387 0.5446 173.9604 538.5206)" class="st1 st3 st7">Democratic politics</text>
		<text transform="matrix(0.5446 -0.8387 0.8387 0.5446 185.4904 546.0206)" class="st1 st3 st7">of Nature</text>
		<text transform="matrix(0.766 -0.6428 0.6428 0.766 119.2305 479.4703)" class="st1 st3 st7">Means of</text>
		<text transform="matrix(0.766 -0.6428 0.6428 0.766 128.0704 490.0005)" class="st1 st3 st7">production are</text>
		<text transform="matrix(0.766 -0.6428 0.6428 0.766 136.9104 500.5406)" class="st1 st3 st7">collective</text>
		<text transform="matrix(0.8572 0.515 -0.515 0.8572 115.1502 186.1703)" class="st1 st3 st7">Locally sourced</text>
		<text transform="matrix(0.8572 0.515 -0.515 0.8572 108.0702 197.9604)" class="st1 st3 st7">materials</text>
		<text transform="matrix(0.8572 0.515 -0.515 0.8572 100.9906 209.7504)" class="st1 st3 st7">and thoughts</text>
		<text transform="matrix(0.2924 -0.9563 0.9563 0.2924 233.0805 572.6301)" class="st1 st3 st7">Human</text>
		<text transform="matrix(0.2924 -0.9563 0.9563 0.2924 246.2304 576.6604)" class="st1 st3 st7">activities that</text>
		<text transform="matrix(0.2924 -0.9563 0.9563 0.2924 259.3805 580.6702)" class="st1 st3 st7">respect Nature’s</text>
		<text transform="matrix(0.2924 -0.9563 0.9563 0.2924 272.5304 584.7004)" class="st1 st3 st7">rights</text>
		<text transform="matrix(6.123234e-17 -1 1 6.123234e-17 334.9404 593.7203)" class="st1 st3 st7">Humans and Nature</text>
		<text transform="matrix(6.123234e-17 -1 1 6.123234e-17 348.7004 593.7203)" class="st1 st3 st7">relationship</text>
		<text transform="matrix(6.123234e-17 -1 1 6.123234e-17 320.8204 593.4899)" class="st1 st3 st7">Mutually enhanced</text>
		<text transform="matrix(0.9703 0.2419 -0.2419 0.9703 81.8505 261.9603)" class="st1 st3 st7">Self sufficient</text>
		<text transform="matrix(0.9703 0.2419 -0.2419 0.9703 78.5204 275.3004)" class="st1 st3 st7">communities</text>
		<text transform="matrix(1 0 0 1 70.6504 337.7304)" class="st1 st3 st7">End of predatory</text>
		<text transform="matrix(1 0 0 1 70.6504 351.4804)" class="st1 st3 st7">extraction</text>
		<text transform="matrix(0.9336 -0.3584 0.3584 0.9336 80.1003 410.3804)" class="st1 st3 st7">Consumption of</text>
		<text transform="matrix(0.9336 -0.3584 0.3584 0.9336 85.0303 423.2205)" class="st1 st3 st7">Nature controlled</text>
		<text transform="matrix(0.9336 -0.3584 0.3584 0.9336 89.9504 436.0603)" class="st1 st3 st7">by the people</text>
		<g>
			<text transform="matrix(0.9648 -0.263 0.263 0.9648 497.7304 289.1405)" class="st1 st3 st7">Deep respect of all </text>
			<text transform="matrix(0.9648 -0.263 0.263 0.9648 501.3471 302.4061)" class="st1 st3 st7">Nature’s</text>
			<text transform="matrix(0.9648 -0.263 0.263 0.9648 540.3604 292.1903)" class="st1 st3 st7">beings</text>
		</g>
		<text transform="matrix(0.9979 6.540313e-02 -6.540313e-02 0.9979 504.4704 340.3804)" class="st1 st3 st7">Valuing life creation</text>
		<text transform="matrix(0.9979 6.540313e-02 -6.540313e-02 0.9979 503.5703 354.1004)" class="st1 st3 st7">and maintenance</text>
		<text transform="matrix(0.8457 -0.5336 0.5336 0.8457 486.8103 244.1604)" class="st1 st3 st7">A culture of care</text>
		<text transform="matrix(0.5628 0.8266 -0.8266 0.5628 443.4501 471.8305)" class="st1 st3 st7">Autonomous</text>
		<text transform="matrix(0.5628 0.8266 -0.8266 0.5628 432.08 479.5705)" class="st1 st3 st7">communities</text>
		<text transform="matrix(0.5628 0.8266 -0.8266 0.5628 420.7108 487.3105)" class="st1 st3 st7">and enviroment</text>
		<text transform="matrix(0.3132 0.9497 -0.9497 0.3132 377.7006 500.6304)" class="st1 st3 st7">Righteous Nature</text>
		<text transform="matrix(0.6915 -0.7224 0.7224 0.6915 455.0703 192.1306)" class="st1 st3 st7">Natural Capital </text>
		<text transform="matrix(0.6915 -0.7224 0.7224 0.6915 465.0029 201.6389)" class="st1 st3 st7">understanding</text>
		<text transform="matrix(0.8116 0.5842 -0.5842 0.8116 472.0403 439.3303)" class="st1 st3 st7">Respect of Nature</text>
		<text transform="matrix(0.8116 0.5842 -0.5842 0.8116 464.0106 450.4904)" class="st1 st3 st7">as a being</text>
		<text transform="matrix(0.481 -0.8767 0.8767 0.481 411.9404 163.0102)" class="st1 st3 st7">Holistic wealth</text>
		<text transform="matrix(0.481 -0.8767 0.8767 0.481 424.0004 169.6303)" class="st1 st3 st7">accounting</text>
		<text transform="matrix(0.9351 0.3543 -0.3543 0.9351 500.5003 391.8304)" class="st1 st3 st7">A happy and</text>
		<text transform="matrix(0.9351 0.3543 -0.3543 0.9351 495.6204 404.6903)" class="st1 st3 st7">balanced life</text>
		<text transform="matrix(0.1693 -0.9856 0.9856 0.1693 357.7704 141.7003)" class="st1 st3 st7">New value</text>
		<text transform="matrix(0.1693 -0.9856 0.9856 0.1693 371.3304 144.0304)" class="st1 st3 st7"> concept</text>
	</g>
	<circle class="st1" cx="282.9" cy="613.2" r="3.7"/>
	<circle class="st1" cx="615.6" cy="341" r="3.7"/>
	<circle class="st1" cx="44.8" cy="364.2" r="4.1"/>
	<circle class="st1" cx="180.6" cy="307.6" r="3.7"/>
	<circle class="st1" cx="376.6" cy="190" r="3.7"/>
	<circle class="st1" cx="296.2" cy="474.6" r="3.7"/>
	<circle class="st1" cx="459.4" cy="395.2" r="3.7"/>
	<circle class="st1" cx="142.4" cy="114.3" r="3.7"/>
</g>
<g id="Layer_3">
	<path class="st1" d="M326.8,359c15.9,0,28.8-12.9,28.8-28.8s-12.9-28.8-28.8-28.8S298,314.4,298,330.2S310.9,359,326.8,359z"/>
	<g>
		<path class="st6" d="M308,327.7c0-0.1,0-0.2,0.1-0.3s0.1-0.3,0.1-0.4c0-0.1,0.1-0.3,0.1-0.5c0-0.2,0-0.3,0-0.5V322
			c0-0.1,0-0.3,0-0.5s0-0.3-0.1-0.5c0-0.1-0.1-0.3-0.1-0.4s-0.1-0.2-0.1-0.3s0-0.1,0-0.1v0h3.4c1.1,0,2,0.4,2.7,1.1s1.1,1.6,1.1,2.8
			s-0.4,2.1-1.1,2.8c-0.7,0.7-1.6,1.1-2.7,1.1H308v0C308,327.9,308,327.8,308,327.7L308,327.7z M310.7,327.4c0.4,0,0.7-0.1,1-0.3
			s0.5-0.5,0.6-0.8s0.3-0.7,0.3-1.1c0.1-0.4,0.1-0.8,0.1-1.2s0-0.8-0.1-1.2s-0.2-0.7-0.3-1.1s-0.4-0.6-0.6-0.8s-0.6-0.3-1-0.3h-0.2
			v6.8H310.7z"/>
		<path class="st6" d="M317.2,323.1c0.5-0.5,1.2-0.7,2.1-0.7c0.5,0,0.9,0.1,1.3,0.2s0.6,0.4,0.8,0.7c0.2,0.3,0.3,0.6,0.4,0.9
			c0.1,0.3,0.1,0.6,0.1,1h-3.3c0.1,1.1,0.7,1.6,1.6,1.6c0.5,0,1-0.2,1.6-0.5l0,0c-0.1,0.4-0.4,0.8-0.9,1.2c-0.5,0.4-1,0.5-1.7,0.5
			c-0.3,0-0.7-0.1-1-0.2c-0.3-0.1-0.6-0.3-0.9-0.5s-0.5-0.5-0.7-0.9c-0.2-0.4-0.3-0.8-0.3-1.3C316.4,324.3,316.6,323.6,317.2,323.1
			L317.2,323.1z M318.6,324.4c0,0.1,0,0.2,0,0.4l1.4-0.4c0-1-0.2-1.5-0.7-1.5S318.6,323.3,318.6,324.4L318.6,324.4L318.6,324.4z"/>
		<path class="st6" d="M323.1,324.1c0-0.5,0.2-1,0.7-1.3s1-0.5,1.8-0.5c0.7,0,1.4,0.1,2,0.4v1.7h0c-0.2-0.2-0.4-0.4-0.5-0.6
			s-0.3-0.3-0.5-0.5s-0.4-0.3-0.6-0.4c-0.2-0.1-0.4-0.1-0.6-0.1c-0.2,0-0.3,0-0.4,0.1s-0.2,0.2-0.2,0.3c0,0.1,0,0.2,0.1,0.3
			c0.1,0.1,0.2,0.2,0.3,0.2c0.2,0.1,0.3,0.1,0.4,0.2s0.3,0.1,0.6,0.2c0.6,0.2,1.1,0.5,1.4,0.8s0.4,0.7,0.4,1.1
			c0,0.6-0.2,1.1-0.7,1.4s-1,0.5-1.7,0.5c-0.7,0-1.4-0.1-2.2-0.4v-1.8h0c0.1,0.1,0.2,0.2,0.4,0.4s0.4,0.4,0.5,0.5s0.2,0.2,0.4,0.4
			c0.2,0.1,0.4,0.2,0.5,0.3s0.3,0.1,0.5,0.1c0.2,0,0.3,0,0.5-0.1c0.1-0.1,0.2-0.2,0.2-0.4c0-0.2-0.2-0.4-0.5-0.6
			c-0.1-0.1-0.4-0.2-0.9-0.3C323.7,325.6,323.1,325,323.1,324.1L323.1,324.1z"/>
		<path class="st6" d="M329.2,327.7c0-0.1,0-0.2,0.1-0.3s0.1-0.3,0.1-0.4c0-0.1,0.1-0.3,0.1-0.5c0-0.2,0-0.3,0-0.5v-1.8
			c0-0.1,0-0.3,0-0.5s0-0.3-0.1-0.5s-0.1-0.3-0.1-0.4c0-0.1-0.1-0.2-0.1-0.3c0-0.1,0-0.1,0-0.1v0h2.4v3.6c0,0.1,0,0.3,0,0.5
			s0,0.3,0.1,0.5c0,0.1,0.1,0.3,0.1,0.4c0,0.1,0.1,0.2,0.1,0.3s0,0.1,0,0.1v0h-2.7v0C329.2,327.9,329.2,327.8,329.2,327.7
			L329.2,327.7z M329.6,319.9c0.2-0.2,0.5-0.3,0.9-0.3s0.6,0.1,0.9,0.4s0.4,0.5,0.4,0.9s-0.1,0.6-0.4,0.8c-0.2,0.2-0.5,0.4-0.9,0.4
			s-0.6-0.1-0.9-0.4s-0.4-0.5-0.4-0.9S329.3,320.1,329.6,319.9L329.6,319.9z"/>
		<path class="st6" d="M333,324.3c0-0.4,0.1-0.8,0.4-1.1c0.3-0.3,0.6-0.5,1-0.6c0.4-0.1,0.7-0.2,1.1-0.2c0.5,0,0.9,0.1,1.3,0.2
			c0.3-0.8,0.8-1.2,1.5-1.2c0.1,0,0.2,0,0.3,0l-0.3,1.5l0,0c-0.3-0.1-0.5-0.2-0.8-0.2c-0.1,0-0.3,0-0.4,0c0.6,0.4,0.9,0.9,0.9,1.5
			c0,0.6-0.3,1.1-0.8,1.4c-0.5,0.3-1.1,0.5-1.7,0.5c-0.3,0-0.6,0-0.9-0.1c-0.3,0.1-0.4,0.2-0.4,0.4c0,0.1,0,0.1,0.1,0.2
			c0.1,0,0.2,0,0.5,0h1.8c0.6,0,1.1,0.1,1.4,0.4c0.3,0.3,0.5,0.7,0.5,1.2c0,1.2-1,1.8-2.9,1.8c-0.2,0-0.4,0-0.5,0s-0.4,0-0.6-0.1
			c-0.2,0-0.5-0.1-0.7-0.2c-0.2-0.1-0.4-0.2-0.5-0.3c-0.1-0.1-0.2-0.3-0.2-0.5c0-0.3,0.1-0.5,0.3-0.7c-0.2-0.2-0.3-0.5-0.3-0.9
			c0-0.7,0.4-1.1,1.2-1.3C333.4,325.6,333,325.1,333,324.3L333,324.3z M334.1,328.5c0.1,0.7,0.7,1,1.6,1c0.4,0,0.8,0,1.1-0.1
			s0.5-0.2,0.5-0.4c0-0.1-0.1-0.2-0.2-0.3s-0.3-0.1-0.6-0.1h-1.8C334.5,328.6,334.2,328.6,334.1,328.5L334.1,328.5z M334.9,324.3
			c0,1,0.2,1.5,0.5,1.5s0.6-0.5,0.6-1.5s-0.2-1.5-0.6-1.5S334.9,323.3,334.9,324.3z"/>
		<path class="st6" d="M339.5,327.9c0,0,0,0,0-0.1s0-0.2,0.1-0.3c0-0.1,0.1-0.3,0.1-0.4c0-0.1,0.1-0.3,0.1-0.5c0-0.2,0-0.3,0-0.5
			v-1.8c0-0.1,0-0.3,0-0.5s0-0.3-0.1-0.5s-0.1-0.3-0.1-0.4s-0.1-0.2-0.1-0.3s0-0.1,0-0.1v0h2.4v0.9c0.2-0.3,0.4-0.5,0.7-0.7
			c0.3-0.2,0.6-0.3,1-0.3c0.5,0,0.9,0.2,1.3,0.5s0.5,0.8,0.5,1.3v1.9c0,0.1,0,0.3,0,0.5s0,0.3,0.1,0.5c0,0.1,0.1,0.3,0.1,0.4
			s0.1,0.2,0.1,0.3s0,0.1,0,0.1v0H343v0c0,0,0,0,0-0.1s0-0.2,0.1-0.3c0-0.1,0.1-0.3,0.1-0.4c0-0.1,0.1-0.3,0.1-0.5
			c0-0.2,0-0.3,0-0.5v-1.6c0-0.5-0.3-0.8-0.8-0.9h0c-0.2,0-0.4,0-0.7,0.2v2.3c0,0.1,0,0.3,0,0.5s0,0.3,0.1,0.5
			c0,0.1,0.1,0.3,0.1,0.4s0.1,0.2,0.1,0.3s0,0.1,0,0.1v0L339.5,327.9L339.5,327.9L339.5,327.9z"/>
		<path class="st6" d="M315.9,339.1c0-0.5,0.2-1,0.6-1.3c0.4-0.3,0.9-0.5,1.4-0.5c0.4,0,0.9,0.1,1.2,0.2V337c0-0.2,0-0.4,0-0.5
			c0-0.1,0-0.2,0-0.4c0-0.1,0-0.2-0.1-0.3s-0.1-0.1-0.1-0.1c-0.2,0-0.5,0.1-0.9,0.4c-0.4,0.2-0.8,0.5-1.1,0.8l-0.5,0.4h0v-1.7
			c1.1-0.2,2-0.4,2.7-0.4s1.3,0.2,1.6,0.5c0.3,0.4,0.5,0.8,0.5,1.4v1.9c0,0.4,0,0.6,0.1,0.7s0.1,0.1,0.2,0.1c0.1,0,0.2,0,0.3-0.1
			l0,0c0,0.3-0.1,0.6-0.4,0.8s-0.5,0.3-0.9,0.3c-0.7,0-1.1-0.3-1.3-0.9c-0.1,0.2-0.3,0.5-0.6,0.7s-0.6,0.3-1,0.3
			c-0.5,0-1-0.2-1.3-0.5C316,340,315.9,339.6,315.9,339.1L315.9,339.1z M318.2,339.5c0.1,0.2,0.3,0.3,0.6,0.3c0.1,0,0.3,0,0.4-0.1
			c0-0.1,0-0.2,0-0.4V338c-0.1,0-0.2,0-0.3,0c-0.6,0-0.9,0.3-0.9,0.9C318,339.1,318.1,339.4,318.2,339.5L318.2,339.5z"/>
		<path class="st6" d="M322.8,337c0-0.5,0.2-1,0.7-1.3s1-0.5,1.8-0.5c0.7,0,1.4,0.1,2,0.4v1.7h0c-0.2-0.2-0.4-0.4-0.5-0.6
			s-0.3-0.3-0.5-0.5s-0.4-0.3-0.6-0.4c-0.2-0.1-0.4-0.1-0.6-0.1c-0.2,0-0.3,0-0.4,0.1c-0.1,0.1-0.2,0.2-0.2,0.3c0,0.1,0,0.2,0.1,0.3
			c0.1,0.1,0.2,0.2,0.3,0.2c0.2,0.1,0.3,0.1,0.4,0.2s0.3,0.1,0.6,0.2c0.6,0.2,1.1,0.5,1.4,0.8s0.4,0.7,0.4,1.1
			c0,0.6-0.2,1.1-0.7,1.4s-1,0.5-1.7,0.5c-0.7,0-1.4-0.1-2.2-0.4v-1.8h0c0.1,0.1,0.2,0.2,0.4,0.4c0.2,0.2,0.4,0.4,0.5,0.5
			s0.2,0.2,0.4,0.4c0.2,0.1,0.4,0.2,0.5,0.3s0.3,0.1,0.5,0.1c0.2,0,0.3,0,0.5-0.1c0.1-0.1,0.2-0.2,0.2-0.4c0-0.2-0.2-0.4-0.5-0.6
			c-0.1-0.1-0.4-0.2-0.9-0.3C323.4,338.5,322.8,337.9,322.8,337L322.8,337z"/>
		<path class="st6" d="M331.7,339.1c0-0.5,0.2-1,0.6-1.3c0.4-0.3,0.9-0.5,1.4-0.5c0.4,0,0.9,0.1,1.2,0.2V337c0-0.2,0-0.4,0-0.5
			c0-0.1,0-0.2,0-0.4c0-0.1,0-0.2-0.1-0.3s-0.1-0.1-0.1-0.1c-0.2,0-0.5,0.1-0.9,0.4s-0.8,0.5-1.1,0.8l-0.5,0.4h0v-1.7
			c1.1-0.2,2-0.4,2.7-0.4s1.3,0.2,1.6,0.5c0.3,0.4,0.5,0.8,0.5,1.4v1.9c0,0.4,0,0.6,0.1,0.7s0.1,0.1,0.2,0.1c0.1,0,0.2,0,0.3-0.1
			l0,0c0,0.3-0.1,0.6-0.4,0.8s-0.5,0.3-0.9,0.3c-0.7,0-1.1-0.3-1.3-0.9c-0.1,0.2-0.3,0.5-0.6,0.7s-0.6,0.3-1,0.3
			c-0.5,0-1-0.2-1.3-0.5S331.7,339.6,331.7,339.1L331.7,339.1z M334.1,339.5c0.1,0.2,0.3,0.3,0.6,0.3c0.1,0,0.3,0,0.4-0.1
			c0-0.1,0-0.2,0-0.4V338c-0.1,0-0.2,0-0.3,0c-0.6,0-0.9,0.3-0.9,0.9C333.8,339.1,333.9,339.4,334.1,339.5L334.1,339.5z"/>
	</g>
	<g>
		<line class="st5" x1="310.8" y1="192.6" x2="326.2" y2="308.3"/>
		<line class="st5" x1="349.4" y1="310.6" x2="433.9" y2="237.3"/>
		<line class="st5" x1="461.9" y1="363" x2="355.5" y2="335.3"/>
		<line class="st5" x1="341.2" y1="354.4" x2="388.3" y2="453.2"/>
		<line class="st5" x1="279.4" y1="457.5" x2="318.8" y2="354.6"/>
		<line class="st5" x1="301.3" y1="333.7" x2="193.3" y2="355.4"/>
		<line class="st5" x1="220.5" y1="243.2" x2="308" y2="313.7"/>
	</g>
	<g>
		<g>
			<g>
				<text transform="matrix(-0.9666 0.2561 -0.2561 -0.9666 354.4296 420.6799)" class="st1 st3 st8">n</text>
				<text transform="matrix(-0.9793 0.2023 -0.2023 -0.9793 348.4806 422.2399)" class="st1 st3 st8">u</text>
				<text transform="matrix(-0.9878 0.1557 -0.1557 -0.9878 342.7112 423.4002)" class="st1 st3 st8">r</text>
				<text transform="matrix(-0.9929 0.1186 -0.1186 -0.9929 338.2797 424.0808)" class="st1 st3 st8">t</text>
				<text transform="matrix(-0.9972 7.532693e-02 -7.532693e-02 -0.9972 334.5613 424.5405)" class="st1 st3 st8">u</text>
				<text transform="matrix(-0.9996 2.879385e-02 -2.879385e-02 -0.9996 328.6913 424.9612)" class="st1 st3 st8">r</text>
				<text transform="matrix(-0.9999 -1.413665e-02 1.413665e-02 -0.9999 324.22 425.0807)" class="st1 st3 st8">e</text>
				<text transform="matrix(-0.9984 -5.738967e-02 5.738967e-02 -0.9984 319.22 424.9899)" class="st1 st3 st8">r</text>
				<text transform="matrix(-0.9914 -0.1309 0.1309 -0.9914 311.8901 424.4697)" class="st1 st3 st8">o</text>
				<text transform="matrix(-0.9847 -0.174 0.174 -0.9847 306.1308 423.6798)" class="st1 st3 st8">f</text>
				<text transform="matrix(-0.9582 0.2862 -0.2862 -0.9582 351.6107 406.4602)" class="st1 st3 st8">c</text>
				<text transform="matrix(-0.9734 0.2292 -0.2292 -0.9734 347.1299 407.8107)" class="st1 st3 st8">o</text>
				<text transform="matrix(-0.9837 0.18 -0.18 -0.9837 341.4507 409.1008)" class="st1 st3 st8">l</text>
				<text transform="matrix(-0.9894 0.1454 -0.1454 -0.9894 338.3701 409.65)" class="st1 st3 st8">l</text>
				<text transform="matrix(-0.9949 0.1011 -0.1011 -0.9949 335.3208 410.1102)" class="st1 st3 st8">e</text>
				<text transform="matrix(-0.9988 4.797813e-02 -4.797813e-02 -0.9988 330.3799 410.6001)" class="st1 st3 st8">c</text>
				<text transform="matrix(-1 6.980145e-04 -6.980145e-04 -1 325.6503 410.8008)" class="st1 st3 st8">t</text>
				<text transform="matrix(-0.9993 -3.856233e-02 3.856233e-02 -0.9993 321.8905 410.7912)" class="st1 st3 st8">i</text>
				<text transform="matrix(-0.9961 -8.854664e-02 8.854664e-02 -0.9961 318.6099 410.6794)" class="st1 st3 st8">v</text>
				<text transform="matrix(-0.989 -0.148 0.148 -0.989 313.0107 410.1612)" class="st1 st3 st8">e</text>
				<text transform="matrix(-0.9665 0.2566 -0.2566 -0.9665 344.9304 393.53)" class="st1 st3 st8">v</text>
				<text transform="matrix(-0.9812 0.193 -0.193 -0.9812 339.4905 394.9204)" class="st1 st3 st8">i</text>
				<text transform="matrix(-0.9902 0.1395 -0.1395 -0.9902 336.3001 395.5505)" class="st1 st3 st8">s</text>
				<text transform="matrix(-0.9964 8.524302e-02 -8.524302e-02 -0.9964 332.1112 396.1199)" class="st1 st3 st8">i</text>
				<text transform="matrix(-0.9998 2.041890e-02 -2.041890e-02 -0.9998 328.8799 396.4208)" class="st1 st3 st8">o</text>
				<text transform="matrix(-0.9978 -6.627395e-02 6.627395e-02 -0.9978 323.1107 396.5305)" class="st1 st3 st8">n</text>
				<text transform="matrix(-0.9899 -0.1414 0.1414 -0.9899 317.0204 396.07)" class="st1 st3 st8">s</text>
			</g>
			<g>
				<path class="st1" d="M330.3,388.3c-0.6,0.1-1.1-0.1-1.4-0.5s-0.6-0.8-0.6-1.2c-0.1-0.6,0.1-1.1,0.5-1.6c0.4-0.5,0.8-0.8,1.4-0.8
					c0.2,0,0.4,0,0.6,0c0.2,0,0.3,0,0.4,0c0,0,0.1,0,0.2-0.1s0.1-0.1,0.1-0.1c0,0,0.1,0,0.1,0c0,0,0.1,0,0.1,0.1c0,0,0,0.1,0,0.1
					s0,0.2,0,0.4c0,0.2,0,0.4,0,0.6l0.4,3.8c0,0.2,0.1,0.4,0.1,0.6c0,0.1,0.2,0.1,0.5,0.1h0.1c0,0,0.1,0,0.1,0.1c0,0.1,0,0.1,0,0.1
					c-0.2,0-0.4,0.1-0.5,0.1c-0.1,0-0.3,0.1-0.4,0.1s-0.2,0.1-0.2,0.1s-0.1,0.1-0.1,0.1l0,0h0c0,0,0,0-0.1,0c0,0,0-0.1-0.1-0.1
					c0-0.2,0-0.5,0-0.8l-0.2-1.6c0-0.1,0-0.1,0-0.1c0,0,0,0,0,0c-0.1,0.1-0.2,0.1-0.4,0.2C330.6,388.3,330.4,388.3,330.3,388.3
					L330.3,388.3z M330.5,387.9c0.2,0,0.3-0.1,0.4-0.2c0.1-0.1,0.2-0.2,0.1-0.4l-0.2-2.1c0-0.2-0.1-0.3-0.3-0.4s-0.4-0.1-0.6-0.1
					c-0.4,0-0.6,0.2-0.8,0.6s-0.2,0.7-0.2,1.1c0,0.5,0.2,0.9,0.5,1.1C329.8,387.8,330.1,387.9,330.5,387.9L330.5,387.9z"/>
				<path class="st1" d="M326.3,388.5c-0.1,0-0.2,0-0.3,0s-0.2,0-0.3,0s-0.2,0-0.3,0c0,0,0-0.1,0-0.1c0-0.1,0-0.1,0-0.1
					c0,0,0.1,0,0.2-0.1c0.1,0,0.2-0.1,0.2-0.1v0c0-0.1-0.4-0.9-1-2.4l-0.7,2c0,0.1-0.1,0.2-0.1,0.3c0,0.1,0,0.2,0.1,0.2
					s0.2,0.1,0.4,0.1c0,0,0,0,0,0.1c0,0.1,0,0.1,0,0.1c-0.1,0-0.2,0-0.4,0c-0.2,0-0.3,0-0.5,0c-0.1,0-0.3,0-0.4,0s-0.3,0-0.4,0
					c0,0,0-0.1,0-0.1c0-0.1,0-0.1,0-0.1c0.1,0,0.2,0,0.3-0.1s0.2-0.1,0.3-0.3l1.6-4.5c0.1-0.4,0.3-0.6,0.5-0.8
					c0.2-0.1,0.3-0.2,0.5-0.2c0.1,0,0.2,0,0.3,0.1c0.1,0.1,0.1,0.2,0.1,0.2c0,0.1,0,0.2-0.1,0.3c-0.5,0-0.8,0.3-1,0.8
					c0,0.1-0.1,0.2-0.1,0.3s-0.1,0.2-0.1,0.3l1.4,3.2c0.1,0.1,0.1,0.2,0.2,0.3c0.1,0,0.1,0.1,0.3,0.1c0.1,0,0.2,0,0.3,0
					c0,0,0,0,0,0.1c0,0.1,0,0.1,0,0.1C326.7,388.5,326.3,388.5,326.3,388.5L326.3,388.5z"/>
			</g>
		</g>
		<g>
			<g>
				<text transform="matrix(-0.8418 -0.5398 0.5398 -0.8418 272.5105 416.5109)" class="st1 st3 st8">d</text>
				<text transform="matrix(-0.8146 -0.58 0.58 -0.8146 267.7505 413.4301)" class="st1 st3 st8">e</text>
				<text transform="matrix(-0.7766 -0.63 0.63 -0.7766 263.7006 410.5999)" class="st1 st3 st8">m</text>
				<text transform="matrix(-0.7356 -0.6774 0.6774 -0.7356 256.8704 404.9698)" class="st1 st3 st8">a</text>
				<text transform="matrix(-0.7083 -0.7059 0.7059 -0.7083 253.2703 401.6206)" class="st1 st3 st8">t</text>
				<text transform="matrix(-0.6796 -0.7336 0.7336 -0.6796 250.5904 398.9604)" class="st1 st3 st8">e</text>
				<text transform="matrix(-0.6473 -0.7622 0.7622 -0.6473 247.2206 395.2906)" class="st1 st3 st8">r</text>
				<text transform="matrix(-0.6199 -0.7847 0.7847 -0.6199 244.3504 391.8813)" class="st1 st3 st8">i</text>
				<text transform="matrix(-0.5898 -0.8076 0.8076 -0.5898 242.2804 389.28)" class="st1 st3 st8">a</text>
				<text transform="matrix(-0.5598 -0.8286 0.8286 -0.5598 239.4103 385.3009)" class="st1 st3 st8">l</text>
				<text transform="matrix(-0.5351 -0.8448 0.8448 -0.5351 237.6703 382.71)" class="st1 st3 st8">i</text>
				<text transform="matrix(-0.503 -0.8643 0.8643 -0.503 235.8804 379.9109)" class="st1 st3 st8">z</text>
				<text transform="matrix(-0.4636 -0.886 0.886 -0.4636 233.4804 375.7508)" class="st1 st3 st8">e</text>
				<text transform="matrix(-0.4247 -0.9053 0.9053 -0.4247 231.1804 371.3405)" class="st1 st3 st8">r</text>
				<text transform="matrix(-0.878 -0.4787 0.4787 -0.878 284.3504 408.221)" class="st1 st3 st8">o</text>
				<text transform="matrix(-0.8514 -0.5246 0.5246 -0.8514 279.2401 405.3797)" class="st1 st3 st8">f</text>
				<text transform="matrix(-0.8035 -0.5952 0.5952 -0.8035 273.7705 401.9004)" class="st1 st3 st8">u</text>
				<text transform="matrix(-0.762 -0.6476 0.6476 -0.762 269.0807 398.4204)" class="st1 st3 st8">n</text>
				<text transform="matrix(-0.7157 -0.6984 0.6984 -0.7157 264.4002 394.4198)" class="st1 st3 st8">n</text>
				<text transform="matrix(-0.6712 -0.7413 0.7413 -0.6712 260.0304 390.1201)" class="st1 st3 st8">e</text>
				<text transform="matrix(-0.63 -0.7766 0.7766 -0.63 256.7104 386.4203)" class="st1 st3 st8">c</text>
				<text transform="matrix(-0.5872 -0.8094 0.8094 -0.5872 253.7606 382.7811)" class="st1 st3 st8">e</text>
				<text transform="matrix(-0.5446 -0.8387 0.8387 -0.5446 250.8605 378.74)" class="st1 st3 st8">s</text>
				<text transform="matrix(-0.5041 -0.8637 0.8637 -0.5041 248.5603 375.18)" class="st1 st3 st8">s</text>
				<text transform="matrix(-0.459 -0.8885 0.8885 -0.459 246.4405 371.5402)" class="st1 st3 st8">a</text>
				<text transform="matrix(-0.4115 -0.9114 0.9114 -0.4115 244.2103 367.181)" class="st1 st3 st8">r</text>
				<text transform="matrix(-0.361 -0.9326 0.9326 -0.361 242.3805 363.1313)" class="st1 st3 st8">y</text>
				<text transform="matrix(-0.8816 -0.4721 0.4721 -0.8816 288.0004 395.8409)" class="st1 st3 st9">p</text>
				<text transform="matrix(-0.8463 -0.5327 0.5327 -0.8463 283.2208 393.2299)" class="st1 st3 st9">r</text>
				<text transform="matrix(-0.8068 -0.5909 0.5909 -0.8068 279.6801 391.0196)" class="st1 st3 st9">o</text>
				<text transform="matrix(-0.7581 -0.6521 0.6521 -0.7581 275.3107 387.8003)" class="st1 st3 st9">d</text>
				<text transform="matrix(-0.7045 -0.7097 0.7097 -0.7045 271.3003 384.3297)" class="st1 st3 st9">u</text>
				<text transform="matrix(-0.6514 -0.7587 0.7587 -0.6514 267.4405 380.4005)" class="st1 st3 st9">c</text>
				<text transform="matrix(-0.6061 -0.7954 0.7954 -0.6061 264.5803 377.0198)" class="st1 st3 st9">t</text>
				<text transform="matrix(-0.5617 -0.8274 0.8274 -0.5617 262.4405 374.2107)" class="st1 st3 st9">s</text>
				<text transform="matrix(-0.4738 -0.8806 0.8806 -0.4738 258.8203 368.6095)" class="st1 st3 st9">a</text>
				<text transform="matrix(-0.4056 -0.914 0.914 -0.4056 256.6503 364.6001)" class="st1 st3 st9">n</text>
				<text transform="matrix(-0.3295 -0.9441 0.9441 -0.3295 254.3304 359.3203)" class="st1 st3 st9">d</text>
				<text transform="matrix(-0.882 -0.4713 0.4713 -0.882 298.0008 388.2598)" class="st1 st3 st8">o</text>
				<text transform="matrix(-0.8299 -0.5579 0.5579 -0.8299 292.9303 385.5909)" class="st1 st3 st8">w</text>
				<text transform="matrix(-0.7682 -0.6402 0.6402 -0.7682 286.2702 381.0311)" class="st1 st3 st8">n</text>
				<text transform="matrix(-0.698 -0.7161 0.7161 -0.698 281.5702 377.1599)" class="st1 st3 st8">w</text>
				<text transform="matrix(-0.627 -0.779 0.779 -0.627 275.9904 371.2912)" class="st1 st3 st8">e</text>
				<text transform="matrix(-0.5723 -0.8201 0.8201 -0.5723 272.9104 367.4395)" class="st1 st3 st8">r</text>
				<text transform="matrix(-0.5192 -0.8546 0.8546 -0.5192 270.3902 363.7896)" class="st1 st3 st8">s</text>
				<text transform="matrix(-0.4541 -0.8909 0.8909 -0.4541 268.2105 360.2402)" class="st1 st3 st8">h</text>
				<text transform="matrix(-0.3922 -0.9199 0.9199 -0.3922 265.5303 354.8596)" class="st1 st3 st8">i</text>
				<text transform="matrix(-0.3299 -0.944 0.944 -0.3299 264.2403 351.8811)" class="st1 st3 st8">p</text>
			</g>
			<g>
				<path class="st1" d="M284.8,368.8c-0.4-0.4-0.6-0.9-0.5-1.4c0-0.5,0.2-0.9,0.5-1.3c0.4-0.4,0.9-0.6,1.5-0.6
					c0.6,0,1.1,0.2,1.5,0.5c0.2,0.2,0.3,0.3,0.4,0.5s0.2,0.3,0.2,0.3c0,0,0.1,0.1,0.2,0.1s0.1,0.1,0.1,0.1c0,0,0,0,0.1,0.1
					c0,0,0,0.1,0,0.1c0,0,0,0-0.1,0.1c-0.1,0-0.2,0.1-0.3,0.3c-0.1,0.1-0.3,0.2-0.5,0.4l-2.7,2.7c-0.1,0.1-0.3,0.3-0.4,0.5
					c0,0.1,0,0.2,0.2,0.4l0.1,0.1c0,0,0,0.1,0,0.1c-0.1,0.1-0.1,0.1-0.1,0.1c-0.1-0.1-0.3-0.2-0.4-0.3s-0.2-0.1-0.3-0.2
					c-0.1,0-0.2-0.1-0.2-0.1c-0.1,0-0.1,0-0.1,0h0l0,0c0,0,0,0,0-0.1s0-0.1,0-0.1c0.2-0.1,0.4-0.3,0.6-0.5l1.1-1.1
					c0,0,0.1-0.1,0-0.1c0,0,0,0,0,0c-0.1,0-0.2-0.1-0.4-0.1C285,369,284.9,368.9,284.8,368.8L284.8,368.8z M285.3,368.7
					c0.1,0.1,0.3,0.2,0.4,0.2s0.3,0,0.4-0.2l1.5-1.5c0.1-0.1,0.2-0.3,0.1-0.5c-0.1-0.2-0.2-0.4-0.4-0.5c-0.2-0.2-0.6-0.3-0.9-0.2
					c-0.4,0.1-0.7,0.3-1,0.6c-0.3,0.3-0.5,0.7-0.6,1.1S285,368.4,285.3,368.7L285.3,368.7z"/>
				<path class="st1" d="M282.2,365.9c-0.1-0.1-0.1-0.1-0.2-0.2s-0.1-0.1-0.2-0.2s-0.1-0.2-0.2-0.2c0,0,0-0.1,0.1-0.1
					c0.1,0,0.1-0.1,0.1,0c0,0,0.1,0.1,0.2,0.1s0.2,0.1,0.2,0.1h0c0.1-0.1,0.5-0.9,1.2-2.3l-2,0.8c-0.1,0-0.2,0.1-0.3,0.1
					c-0.1,0.1-0.1,0.1-0.1,0.2c0,0.1,0.1,0.2,0.2,0.4c0,0,0,0-0.1,0.1c-0.1,0-0.1,0.1-0.1,0.1c0-0.1-0.1-0.2-0.2-0.3
					s-0.2-0.2-0.3-0.4c-0.1-0.1-0.2-0.2-0.3-0.3s-0.2-0.2-0.2-0.3c0,0,0-0.1,0.1-0.1c0.1-0.1,0.1-0.1,0.1,0c0,0.1,0.1,0.1,0.3,0.2
					c0.1,0.1,0.3,0.1,0.4,0l4.5-1.6c0.4-0.1,0.7-0.2,0.9-0.1c0.2,0,0.4,0.1,0.5,0.2c0.1,0.1,0.1,0.2,0.1,0.3s-0.1,0.2-0.1,0.2
					c-0.1,0.1-0.2,0.1-0.3,0.1c-0.3-0.4-0.8-0.5-1.3-0.3c-0.1,0-0.2,0.1-0.3,0.1c-0.1,0-0.2,0.1-0.3,0.1l-1.6,3.1
					c-0.1,0.1-0.1,0.3-0.1,0.3c0,0.1,0,0.2,0.1,0.3c0,0.1,0.1,0.2,0.1,0.2c0,0,0,0-0.1,0.1c-0.1,0-0.1,0.1-0.1,0.1
					C282.4,366.2,282.2,365.9,282.2,365.9L282.2,365.9z"/>
			</g>
		</g>
		<g>
			<g>
				<text transform="matrix(-5.529868e-02 -0.9985 0.9985 -5.529868e-02 230.4004 338.1111)" class="st1 st3 st10">m</text>
				<text transform="matrix(1.134442e-02 -0.9999 0.9999 1.134442e-02 229.9704 328.7607)" class="st1 st3 st10">e</text>
				<text transform="matrix(6.296472e-02 -0.998 0.998 6.296472e-02 230.0304 323.5108)" class="st1 st3 st10">d</text>
				<text transform="matrix(0.1066 -0.9943 0.9943 0.1066 230.4504 317.4901)" class="st1 st3 st10">i</text>
				<text transform="matrix(0.1463 -0.9892 0.9892 0.1463 230.8104 314.0104)" class="st1 st3 st10">a</text>
				<text transform="matrix(0.1881 -0.9822 0.9822 0.1881 231.5904 308.8701)" class="st1 st3 st10">t</text>
				<text transform="matrix(0.2341 -0.9722 0.9722 0.2341 232.3304 304.9306)" class="st1 st3 st10">o</text>
				<text transform="matrix(0.2825 -0.9593 0.9593 0.2825 233.8003 298.9601)" class="st1 st3 st10">r</text>
				<text transform="matrix(0.3569 -0.9341 0.9341 0.3569 236.1103 291.5308)" class="st1 st3 st10">o</text>
				<text transform="matrix(0.3997 -0.9166 0.9166 0.3997 238.3503 285.7809)" class="st1 st3 st10">f</text>
				<text transform="matrix(-4.117813e-02 -0.9992 0.9992 -4.117813e-02 243.9704 333.8513)" class="st1 st3 st10">c</text>
				<text transform="matrix(2.129143e-02 -0.9998 0.9998 2.129143e-02 243.7604 328.8609)" class="st1 st3 st10">o</text>
				<text transform="matrix(0.1075 -0.9942 0.9942 0.1075 243.8304 322.7802)" class="st1 st3 st10">m</text>
				<text transform="matrix(0.1939 -0.981 0.981 0.1939 244.9303 313.5006)" class="st1 st3 st10">p</text>
				<text transform="matrix(0.246 -0.9693 0.9693 0.246 246.1704 307.4603)" class="st1 st3 st10">l</text>
				<text transform="matrix(0.2925 -0.9563 0.9563 0.2925 246.9704 304.2703)" class="st1 st3 st10">e</text>
				<text transform="matrix(0.351 -0.9364 0.9364 0.351 248.5103 299.2708)" class="st1 st3 st10">x</text>
				<text transform="matrix(-0.1433 -0.9897 0.9897 -0.1433 260.3104 335.7904)" class="st1 st3 st10">p</text>
				<text transform="matrix(-6.522893e-02 -0.9979 0.9979 -6.522893e-02 259.4704 329.7207)" class="st1 st3 st10">r</text>
				<text transform="matrix(1.343857e-02 -0.9999 0.9999 1.343857e-02 259.1604 325.0805)" class="st1 st3 st10">o</text>
				<text transform="matrix(9.445579e-02 -0.9955 0.9955 9.445579e-02 259.2804 318.9601)" class="st1 st3 st10">c</text>
				<text transform="matrix(0.1687 -0.9857 0.9857 0.1687 259.7604 314.0305)" class="st1 st3 st10">e</text>
				<text transform="matrix(0.2384 -0.9712 0.9712 0.2384 260.6704 308.9003)" class="st1 st3 st10">s</text>
				<text transform="matrix(0.3019 -0.9533 0.9533 0.3019 261.7503 304.5704)" class="st1 st3 st10">s</text>
				<text transform="matrix(0.3691 -0.9294 0.9294 0.3691 263.0903 300.3404)" class="st1 st3 st10">e</text>
				<text transform="matrix(0.4344 -0.9007 0.9007 0.4344 265.0503 295.4699)" class="st1 st3 st10">s</text>
			</g>
			<g>
				<path class="st1" d="M268.2,318.6c0.1-0.6,0.4-1,0.8-1.3c0.5-0.3,0.9-0.4,1.4-0.3c0.6,0.1,1,0.4,1.4,0.9c0.4,0.5,0.5,1,0.5,1.5
					c0,0.2-0.1,0.4-0.1,0.6c-0.1,0.2-0.1,0.3-0.1,0.3c0,0.1,0,0.1,0,0.2s0,0.1,0,0.1c0,0,0,0.1,0,0.1c0,0,0,0.1-0.1,0.1
					c0,0-0.1,0-0.1,0s-0.2-0.1-0.4-0.1s-0.4-0.1-0.6-0.1l-3.8-0.6c-0.2,0-0.4,0-0.6,0c-0.1,0-0.2,0.2-0.2,0.4v0.1c0,0,0,0-0.1,0
					c-0.1,0-0.1,0-0.1-0.1c0-0.2,0-0.4,0-0.5s0-0.3,0-0.4c0-0.1,0-0.2,0-0.2c0-0.1,0-0.1,0-0.1l0,0v0c0,0,0,0,0.1-0.1
					c0,0,0.1,0,0.1,0c0.2,0.1,0.4,0.2,0.8,0.2l1.6,0.2c0.1,0,0.1,0,0.1,0c0,0,0,0,0,0c0-0.1-0.1-0.2-0.1-0.4
					S268.2,318.7,268.2,318.6L268.2,318.6z M268.6,319c0,0.2,0,0.3,0.1,0.5c0.1,0.1,0.2,0.2,0.4,0.2l2.1,0.3c0.2,0,0.3,0,0.5-0.2
					c0.1-0.2,0.2-0.4,0.2-0.6c0-0.4-0.1-0.6-0.4-0.9s-0.6-0.4-1.1-0.5c-0.5-0.1-0.9,0-1.2,0.2C268.9,318.3,268.7,318.6,268.6,319
					L268.6,319z"/>
				<path class="st1" d="M269,314.7c0-0.1,0-0.2,0.1-0.3s0-0.2,0-0.3s0-0.2,0-0.3c0,0,0.1,0,0.1,0c0.1,0,0.1,0,0.1,0.1
					c0,0,0,0.1,0,0.2c0,0.1,0,0.2,0.1,0.2h0c0.1,0,1-0.1,2.6-0.4l-1.8-1.1c-0.1-0.1-0.2-0.1-0.3-0.1c-0.1,0-0.2,0-0.2,0.1
					c-0.1,0.1-0.1,0.2-0.2,0.4c0,0,0,0-0.1,0c-0.1,0-0.1,0-0.1-0.1c0-0.1,0.1-0.2,0.1-0.3s0.1-0.3,0.1-0.4c0-0.1,0.1-0.3,0.1-0.4
					c0-0.2,0-0.3,0-0.4c0,0,0.1,0,0.1,0c0.1,0,0.1,0,0.1,0.1c0,0.1,0,0.2,0,0.3s0.1,0.3,0.2,0.3l4,2.6c0.3,0.2,0.6,0.4,0.7,0.6
					c0.1,0.2,0.1,0.4,0.1,0.5c0,0.1-0.1,0.2-0.2,0.2s-0.2,0-0.2,0c-0.1,0-0.2-0.1-0.3-0.2c0.1-0.5-0.1-0.9-0.5-1.2
					c-0.1,0-0.2-0.1-0.3-0.2s-0.2-0.1-0.3-0.2l-3.4,0.5c-0.2,0-0.3,0.1-0.4,0.1c-0.1,0-0.1,0.1-0.2,0.2s-0.1,0.2-0.1,0.2
					c0,0,0,0-0.1,0c-0.1,0-0.1,0-0.1-0.1C268.9,315.1,269,314.8,269,314.7L269,314.7z"/>
			</g>
		</g>
		<g>
			<g>
				<text transform="matrix(0.7565 -0.6539 0.6539 0.7565 261.1303 253.9205)" class="st1 st3 st10">e</text>
				<text transform="matrix(0.7912 -0.6115 0.6115 0.7912 265.1203 250.4606)" class="st1 st3 st10">n</text>
				<text transform="matrix(0.8229 -0.5681 0.5681 0.8229 270.2805 246.5103)" class="st1 st3 st10">a</text>
				<text transform="matrix(0.8513 -0.5247 0.5247 0.8513 274.5605 243.5603)" class="st1 st3 st10">b</text>
				<text transform="matrix(0.8732 -0.4874 0.4874 0.8732 279.7504 240.4104)" class="st1 st3 st10">l</text>
				<text transform="matrix(0.8918 -0.4524 0.4524 0.8918 282.6305 238.7904)" class="st1 st3 st10">e</text>
				<text transform="matrix(0.9116 -0.411 0.411 0.9116 287.3405 236.4204)" class="st1 st3 st10">r</text>
				<text transform="matrix(0.9408 -0.3389 0.3389 0.9408 294.4804 233.3203)" class="st1 st3 st10">o</text>
				<text transform="matrix(0.9552 -0.2959 0.2959 0.9552 300.2704 231.2704)" class="st1 st3 st10">f</text>
				<text transform="matrix(0.687 -0.7267 0.7267 0.687 263.7904 270.2399)" class="st1 st3 st10">c</text>
				<text transform="matrix(0.7311 -0.6823 0.6823 0.7311 267.1904 266.6304)" class="st1 st3 st10">o</text>
				<text transform="matrix(0.7877 -0.6161 0.6161 0.7877 271.6005 262.4406)" class="st1 st3 st10">m</text>
				<text transform="matrix(0.848 -0.5299 0.5299 0.848 278.9505 256.7105)" class="st1 st3 st10">m</text>
				<text transform="matrix(0.8911 -0.4538 0.4538 0.8911 286.9104 251.8503)" class="st1 st3 st10">u</text>
				<text transform="matrix(0.9212 -0.3891 0.3891 0.9212 292.4404 249.0403)" class="st1 st3 st10">n</text>
				<text transform="matrix(0.9416 -0.3368 0.3368 0.9416 298.4805 246.5504)" class="st1 st3 st10">i</text>
				<text transform="matrix(0.9548 -0.2974 0.2974 0.9548 301.7404 245.3905)" class="st1 st3 st10">t</text>
				<text transform="matrix(0.9693 -0.246 0.246 0.9693 305.5604 244.1905)" class="st1 st3 st10">y</text>
				<text transform="matrix(0.7893 -0.614 0.614 0.7893 284.4603 272.6404)" class="st1 st3 st10">b</text>
				<text transform="matrix(0.841 -0.541 0.541 0.841 289.1703 268.9902)" class="st1 st3 st10">u</text>
				<text transform="matrix(0.8772 -0.4801 0.4801 0.8772 294.4104 265.6903)" class="st1 st3 st10">i</text>
				<text transform="matrix(0.9 -0.4359 0.4359 0.9 297.4805 264.0303)" class="st1 st3 st10">l</text>
				<text transform="matrix(0.9219 -0.3875 0.3875 0.9219 300.4205 262.6103)" class="st1 st3 st10">t</text>
			</g>
			<g>
				<path class="st1" d="M297,274.1c0.5-0.3,1-0.4,1.5-0.3c0.5,0.1,0.9,0.4,1.1,0.8c0.3,0.5,0.5,1,0.4,1.6c-0.1,0.6-0.4,1.1-0.8,1.4
					c-0.2,0.1-0.4,0.2-0.6,0.3s-0.3,0.1-0.3,0.1c0,0-0.1,0.1-0.1,0.2c0,0.1-0.1,0.1-0.1,0.1c0,0-0.1,0-0.1,0c0,0-0.1,0-0.1,0
					c0,0,0,0-0.1-0.1c0-0.1-0.1-0.2-0.2-0.4c-0.1-0.2-0.2-0.3-0.3-0.5l-2.2-3.1c-0.1-0.2-0.2-0.3-0.4-0.5c-0.1-0.1-0.2,0-0.5,0.1
					l-0.1,0c0,0-0.1,0-0.1,0c-0.1-0.1-0.1-0.1,0-0.1c0.1-0.1,0.3-0.2,0.4-0.4c0.1-0.1,0.2-0.2,0.2-0.3c0-0.1,0.1-0.1,0.1-0.2
					s0.1-0.1,0.1-0.1v0l0,0c0,0,0,0,0.1,0s0.1,0,0.1,0c0.1,0.2,0.2,0.4,0.4,0.7l0.9,1.3c0,0,0.1,0.1,0.1,0.1c0,0,0,0,0,0
					c0-0.1,0.1-0.2,0.2-0.4C296.8,274.3,296.9,274.2,297,274.1L297,274.1z M297.1,274.6c-0.1,0.1-0.2,0.2-0.3,0.4
					c0,0.1,0,0.3,0.1,0.4l1.2,1.8c0.1,0.2,0.3,0.2,0.5,0.2c0.2,0,0.4-0.1,0.6-0.2c0.3-0.2,0.4-0.5,0.4-0.9c0-0.4-0.2-0.8-0.4-1.1
					c-0.3-0.4-0.6-0.6-1-0.8S297.4,274.4,297.1,274.6L297.1,274.6z"/>
				<path class="st1" d="M300.4,272c0.1,0,0.2-0.1,0.2-0.1c0.1,0,0.2-0.1,0.2-0.2c0.1-0.1,0.2-0.1,0.2-0.2c0,0,0.1,0.1,0.1,0.1
					c0,0.1,0,0.1,0,0.1c0,0-0.1,0.1-0.2,0.2s-0.1,0.2-0.1,0.2v0c0.1,0.1,0.8,0.6,2.1,1.6l-0.4-2.1c0-0.1-0.1-0.2-0.1-0.3
					c0-0.1-0.1-0.1-0.2-0.1s-0.2,0-0.4,0.1c0,0,0,0-0.1-0.1c0-0.1,0-0.1,0-0.1c0.1,0,0.2-0.1,0.3-0.2s0.3-0.1,0.4-0.2
					c0.1-0.1,0.2-0.1,0.4-0.2s0.2-0.2,0.3-0.2c0,0,0.1,0.1,0.1,0.1c0,0.1,0,0.1,0,0.1c-0.1,0-0.1,0.1-0.2,0.2s-0.1,0.2-0.1,0.4
					l0.8,4.7c0.1,0.4,0.1,0.7,0,0.9c-0.1,0.2-0.2,0.4-0.3,0.4c-0.1,0.1-0.2,0.1-0.3,0c-0.1,0-0.2-0.1-0.2-0.2
					c-0.1-0.1-0.1-0.2,0-0.3c0.4-0.3,0.6-0.6,0.5-1.2c0-0.1,0-0.2-0.1-0.3s0-0.2-0.1-0.3l-2.8-2.1c-0.1-0.1-0.2-0.1-0.3-0.2
					c-0.1,0-0.2,0-0.3,0s-0.2,0-0.3,0.1c0,0,0,0-0.1-0.1c0-0.1,0-0.1,0-0.1C300.1,272.2,300.4,272,300.4,272L300.4,272z"/>
			</g>
		</g>
		<g>
			<g>
				<text transform="matrix(0.986 0.1669 -0.1669 0.986 345.9803 220.6404)" class="st1 st3 st8">c</text>
				<text transform="matrix(0.9768 0.2141 -0.2141 0.9768 350.6205 221.4203)" class="st1 st3 st8">o</text>
				<text transform="matrix(0.9637 0.2669 -0.2669 0.9637 356.2904 222.6705)" class="st1 st3 st8">n</text>
				<text transform="matrix(0.95 0.3122 -0.3122 0.95 362.2104 224.3404)" class="st1 st3 st8">s</text>
				<text transform="matrix(0.9364 0.351 -0.351 0.9364 366.2704 225.6803)" class="st1 st3 st8">c</text>
				<text transform="matrix(0.923 0.3848 -0.3848 0.923 370.6603 227.3503)" class="st1 st3 st8">i</text>
				<text transform="matrix(0.9061 0.4231 -0.4231 0.9061 373.7102 228.6104)" class="st1 st3 st8">o</text>
				<text transform="matrix(0.8821 0.471 -0.471 0.8821 378.9806 231.0804)" class="st1 st3 st8">u</text>
				<text transform="matrix(0.8592 0.5116 -0.5116 0.8592 384.1602 233.8805)" class="st1 st3 st8">s</text>
				<text transform="matrix(0.9996 -2.966624e-02 2.966624e-02 0.9996 327.2004 232.5704)" class="st1 st3 st8">i</text>
				<text transform="matrix(0.9993 3.821341e-02 -3.821341e-02 0.9993 330.4404 232.3904)" class="st1 st3 st8">m</text>
				<text transform="matrix(0.9928 0.1196 -0.1196 0.9928 339.2404 232.8104)" class="st1 st3 st8">p</text>
				<text transform="matrix(0.9856 0.1688 -0.1688 0.9856 345.0104 233.5503)" class="st1 st3 st8">l</text>
				<text transform="matrix(0.977 0.213 -0.213 0.977 348.0504 234.0603)" class="st1 st3 st8">e</text>
				<text transform="matrix(0.9578 0.2874 -0.2874 0.9578 352.9004 235.0603)" class="st1 st3 st8">m</text>
				<text transform="matrix(0.933 0.3598 -0.3598 0.933 361.3004 237.6705)" class="st1 st3 st8">e</text>
				<text transform="matrix(0.9089 0.4171 -0.4171 0.9089 365.9204 239.4504)" class="st1 st3 st8">n</text>
				<text transform="matrix(0.8842 0.4672 -0.4672 0.8842 371.5204 242.0705)" class="st1 st3 st8">t</text>
				<text transform="matrix(0.8601 0.5101 -0.5101 0.8601 374.8403 243.8203)" class="st1 st3 st8">e</text>
				<text transform="matrix(0.832 0.5548 -0.5548 0.832 379.0902 246.3604)" class="st1 st3 st8">r</text>
				<text transform="matrix(0.7784 0.6278 -0.6278 0.7784 385.1203 250.5305)" class="st1 st3 st8">o</text>
				<text transform="matrix(0.7437 0.6685 -0.6685 0.7437 389.6202 254.2003)" class="st1 st3 st8">f</text>
				<text transform="matrix(0.9995 -3.228298e-02 3.228298e-02 0.9995 330.5904 245.1804)" class="st1 st3 st9">t</text>
				<text transform="matrix(0.9996 2.809610e-02 -2.809610e-02 0.9996 334.1304 245.0604)" class="st1 st3 st9">e</text>
				<text transform="matrix(0.9956 9.410831e-02 -9.410831e-02 0.9956 338.7704 245.2103)" class="st1 st3 st9">c</text>
				<text transform="matrix(0.986 0.1668 -0.1668 0.986 343.1503 245.6204)" class="st1 st3 st9">h</text>
				<text transform="matrix(0.9688 0.2478 -0.2478 0.9688 348.7005 246.5704)" class="st1 st3 st9">n</text>
				<text transform="matrix(0.9453 0.3261 -0.3261 0.9453 354.2803 248.0204)" class="st1 st3 st9">o</text>
				<text transform="matrix(0.9238 0.3828 -0.3828 0.9238 359.4104 249.8405)" class="st1 st3 st9">l</text>
				<text transform="matrix(0.8986 0.4388 -0.4388 0.8986 362.1102 250.9303)" class="st1 st3 st9">o</text>
				<text transform="matrix(0.8622 0.5066 -0.5066 0.8622 366.9706 253.3303)" class="st1 st3 st9">g</text>
				<text transform="matrix(0.83 0.5577 -0.5577 0.83 371.3604 255.9605)" class="st1 st3 st9">i</text>
				<text transform="matrix(0.7981 0.6025 -0.6025 0.7981 373.9006 257.6604)" class="st1 st3 st9">c</text>
				<text transform="matrix(0.7563 0.6542 -0.6542 0.7563 377.4206 260.3305)" class="st1 st3 st9">a</text>
				<text transform="matrix(0.7186 0.6954 -0.6954 0.7186 380.9003 263.3805)" class="st1 st3 st9">l</text>
				<text transform="matrix(0.9999 -1.116988e-02 1.116988e-02 0.9999 327.1904 256.5404)" class="st1 st3 st8">i</text>
				<text transform="matrix(0.9983 5.773827e-02 -5.773827e-02 0.9983 330.4504 256.4704)" class="st1 st3 st8">n</text>
				<text transform="matrix(0.9892 0.1463 -0.1463 0.9892 336.5404 256.8403)" class="st1 st3 st8">n</text>
				<text transform="matrix(0.9729 0.2311 -0.2311 0.9729 342.5703 257.7604)" class="st1 st3 st8">o</text>
				<text transform="matrix(0.9506 0.3105 -0.3105 0.9506 348.1604 259.1105)" class="st1 st3 st8">v</text>
				<text transform="matrix(0.9241 0.382 -0.382 0.9241 353.4702 260.8704)" class="st1 st3 st8">a</text>
				<text transform="matrix(0.8984 0.4392 -0.4392 0.8984 357.9503 262.7604)" class="st1 st3 st8">t</text>
				<text transform="matrix(0.8745 0.485 -0.485 0.8745 361.3102 264.4205)" class="st1 st3 st8">i</text>
				<text transform="matrix(0.8405 0.5419 -0.5419 0.8405 364.1703 265.9704)" class="st1 st3 st8">o</text>
				<text transform="matrix(0.79 0.613 -0.613 0.79 368.9903 269.0905)" class="st1 st3 st8">n</text>
				<text transform="matrix(0.7412 0.6713 -0.6713 0.7412 373.8005 272.8904)" class="st1 st3 st8">s</text>
			</g>
			<g>
				<path class="st1" d="M347.3,268.7c0.6,0.2,1,0.5,1.2,1c0.2,0.5,0.3,0.9,0.1,1.4c-0.2,0.6-0.5,1-1,1.3c-0.5,0.3-1.1,0.4-1.6,0.2
					c-0.2-0.1-0.4-0.1-0.6-0.2s-0.3-0.1-0.3-0.2c0,0-0.1,0-0.2,0c-0.1,0-0.1,0-0.1,0c0,0-0.1,0-0.1-0.1c0,0-0.1-0.1-0.1-0.1
					c0,0,0,0,0.1-0.1c0-0.1,0.1-0.2,0.2-0.4s0.1-0.4,0.2-0.6l1-3.7c0.1-0.2,0.1-0.4,0.1-0.6c0-0.1-0.1-0.2-0.4-0.3l-0.1,0
					c0,0,0,0,0-0.1c0-0.1,0.1-0.1,0.1-0.1c0.2,0,0.4,0.1,0.5,0.1s0.3,0,0.4,0c0.1,0,0.2,0,0.2,0s0.1,0,0.1,0l0,0h0c0,0,0,0,0.1,0.1
					c0,0,0,0.1,0,0.1c-0.1,0.2-0.2,0.4-0.3,0.7l-0.4,1.5c0,0.1,0,0.1,0,0.1c0,0,0,0,0,0c0.1,0,0.2-0.1,0.4-0.1
					S347.2,268.7,347.3,268.7L347.3,268.7z M346.9,269.1c-0.2,0-0.3,0-0.5,0c-0.1,0.1-0.2,0.2-0.3,0.3l-0.6,2.1c0,0.2,0,0.3,0.1,0.5
					s0.3,0.2,0.6,0.3c0.3,0.1,0.6,0,0.9-0.2s0.5-0.6,0.6-1c0.1-0.5,0.1-0.9,0-1.2S347.3,269.2,346.9,269.1L346.9,269.1z"/>
				<path class="st1" d="M351.1,270c0.1,0,0.2,0.1,0.3,0.1c0.1,0,0.2,0.1,0.3,0.1c0.1,0,0.2,0.1,0.3,0.1c0,0,0,0.1,0,0.1
					c0,0.1-0.1,0.1-0.1,0.1c0,0-0.1,0-0.2,0c-0.1,0-0.2,0-0.2,0v0c0,0.1,0,1,0.1,2.6l1.4-1.6c0.1-0.1,0.1-0.2,0.2-0.2
					c0-0.1,0-0.2,0-0.3c-0.1-0.1-0.2-0.2-0.3-0.2c0,0,0,0,0-0.1c0-0.1,0.1-0.1,0.1-0.1c0.1,0,0.2,0.1,0.3,0.1
					c0.1,0.1,0.3,0.1,0.4,0.2c0.1,0,0.3,0.1,0.4,0.1c0.1,0,0.3,0.1,0.4,0.1c0,0,0,0.1,0,0.1c0,0.1-0.1,0.1-0.1,0.1
					c-0.1,0-0.2,0-0.3,0c-0.1,0-0.3,0-0.4,0.1l-3.1,3.6c-0.3,0.3-0.5,0.5-0.7,0.6s-0.4,0.1-0.5,0c-0.1,0-0.2-0.1-0.2-0.2
					c0-0.1,0-0.2,0-0.3c0-0.1,0.1-0.2,0.2-0.2c0.5,0.2,0.9,0,1.2-0.4c0.1-0.1,0.1-0.2,0.2-0.3s0.2-0.2,0.2-0.3l-0.1-3.5
					c0-0.2,0-0.3-0.1-0.4c0-0.1-0.1-0.1-0.2-0.2s-0.2-0.1-0.2-0.1c0,0,0,0,0-0.1c0-0.1,0.1-0.1,0.1-0.1
					C350.7,269.9,351,270,351.1,270L351.1,270z"/>
			</g>
		</g>
		<g>
			<g>
				<text transform="matrix(-0.3774 0.9261 -0.9261 -0.3774 419.1199 366.0503)" class="st1 st3 st8">c</text>
				<text transform="matrix(-0.422 0.9066 -0.9066 -0.422 417.341 370.4203)" class="st1 st3 st8">o</text>
				<text transform="matrix(-0.4712 0.882 -0.882 -0.4712 414.8897 375.6803)" class="st1 st3 st8">n</text>
				<text transform="matrix(-0.5201 0.8541 -0.8541 -0.5201 411.981 381.1005)" class="st1 st3 st8">n</text>
				<text transform="matrix(-0.5628 0.8266 -0.8266 -0.5628 408.7512 386.3406)" class="st1 st3 st8">e</text>
				<text transform="matrix(-0.5989 0.8008 -0.8008 -0.5989 405.9397 390.4505)" class="st1 st3 st8">c</text>
				<text transform="matrix(-0.6296 0.7769 -0.7769 -0.6296 403.0814 394.2403)" class="st1 st3 st8">t</text>
				<text transform="matrix(-0.6629 0.7487 -0.7487 -0.6629 400.7305 397.1602)" class="st1 st3 st8">o</text>
				<text transform="matrix(-0.6972 0.7169 -0.7169 -0.6972 396.8608 401.4901)" class="st1 st3 st8">r</text>
				<text transform="matrix(-0.7479 0.6638 -0.6638 -0.7479 391.6497 406.7101)" class="st1 st3 st8">o</text>
				<text transform="matrix(-0.7757 0.6311 -0.6311 -0.7757 387.2913 410.5301)" class="st1 st3 st8">f</text>
				<text transform="matrix(-0.378 0.9258 -0.9258 -0.378 406.0112 360.2606)" class="st1 st3 st8">p</text>
				<text transform="matrix(-0.4335 0.9012 -0.9012 -0.4335 403.7911 365.6202)" class="st1 st3 st8">e</text>
				<text transform="matrix(-0.4873 0.8733 -0.8733 -0.4873 401.6411 370.0905)" class="st1 st3 st8">o</text>
				<text transform="matrix(-0.543 0.8397 -0.8397 -0.543 398.8098 375.1403)" class="st1 st3 st8">p</text>
				<text transform="matrix(-0.5842 0.8116 -0.8116 -0.5842 395.5998 380.0006)" class="st1 st3 st8">l</text>
				<text transform="matrix(-0.6202 0.7845 -0.7845 -0.6202 393.8113 382.5203)" class="st1 st3 st8">e</text>
				<text transform="matrix(-0.6862 0.7274 -0.7274 -0.6862 388.8296 388.5804)" class="st1 st3 st8">a</text>
				<text transform="matrix(-0.7297 0.6838 -0.6838 -0.7297 385.4804 392.1405)" class="st1 st3 st8">n</text>
				<text transform="matrix(-0.7732 0.6342 -0.6342 -0.7732 380.9804 396.3302)" class="st1 st3 st8">d</text>
				<text transform="matrix(-0.3002 0.9539 -0.9539 -0.3002 392.6897 349.8403)" class="st1 st3 st8">g</text>
				<text transform="matrix(-0.3775 0.926 -0.926 -0.3775 391.0699 354.9706)" class="st1 st3 st8">o</text>
				<text transform="matrix(-0.4537 0.8912 -0.8912 -0.4537 388.8712 360.3102)" class="st1 st3 st8">v</text>
				<text transform="matrix(-0.5206 0.8538 -0.8538 -0.5206 386.3197 365.2602)" class="st1 st3 st8">e</text>
				<text transform="matrix(-0.5781 0.8159 -0.8159 -0.5781 383.7097 369.4803)" class="st1 st3 st8">r</text>
				<text transform="matrix(-0.6386 0.7695 -0.7695 -0.6386 381.1907 373.0706)" class="st1 st3 st8">n</text>
				<text transform="matrix(-0.698 0.7161 -0.7161 -0.698 377.2597 377.7405)" class="st1 st3 st8">a</text>
				<text transform="matrix(-0.7529 0.6582 -0.6582 -0.7529 373.8913 381.2208)" class="st1 st3 st8">n</text>
				<text transform="matrix(-0.8023 0.5969 -0.5969 -0.8023 369.2503 385.2104)" class="st1 st3 st8">c</text>
				<text transform="matrix(-0.8424 0.5389 -0.5389 -0.8424 365.5009 387.9906)" class="st1 st3 st8">e</text>
			</g>
			<g>
				<path class="st1" d="M378.2,365.5c-0.3,0.5-0.8,0.8-1.3,0.8c-0.5,0.1-1,0-1.4-0.3c-0.5-0.3-0.8-0.8-0.9-1.4
					c-0.1-0.6,0-1.1,0.2-1.6c0.1-0.2,0.3-0.4,0.4-0.5s0.2-0.2,0.2-0.3c0,0,0-0.1,0.1-0.2c0-0.1,0-0.1,0-0.1c0,0,0,0,0.1-0.1
					s0.1,0,0.1,0c0,0,0,0,0.1,0.1c0.1,0.1,0.2,0.2,0.3,0.3s0.3,0.2,0.5,0.4l3.2,2.1c0.2,0.1,0.4,0.2,0.5,0.3c0.1,0,0.2-0.1,0.4-0.3
					l0-0.1c0,0,0.1,0,0.1,0c0.1,0,0.1,0.1,0.1,0.1c-0.1,0.2-0.2,0.3-0.2,0.5s-0.1,0.3-0.1,0.4s0,0.2,0,0.2c0,0.1,0,0.1,0,0.1v0v0
					c0,0,0,0-0.1,0c0,0-0.1,0-0.1,0c-0.1-0.2-0.3-0.3-0.6-0.5l-1.4-0.9c0,0-0.1,0-0.1,0c0,0,0,0,0,0c0,0.1,0,0.2,0,0.4
					C378.3,365.3,378.3,365.5,378.2,365.5L378.2,365.5z M378,365c0.1-0.1,0.1-0.3,0.1-0.5s-0.1-0.3-0.2-0.4L376,363
					c-0.2-0.1-0.3-0.1-0.5,0c-0.2,0.1-0.3,0.2-0.5,0.5c-0.2,0.3-0.2,0.6,0,1s0.4,0.6,0.8,0.9c0.4,0.3,0.8,0.4,1.2,0.3
					C377.4,365.6,377.7,365.4,378,365L378,365z"/>
				<path class="st1" d="M375.8,368.7c-0.1,0.1-0.1,0.2-0.2,0.2c0,0.1-0.1,0.2-0.2,0.2c-0.1,0.1-0.1,0.2-0.2,0.2c0,0-0.1,0-0.1-0.1
					c-0.1,0-0.1-0.1-0.1-0.1c0,0,0.1-0.1,0.1-0.2c0-0.1,0-0.2,0-0.2h0c-0.1-0.1-0.9-0.3-2.5-0.7l1.2,1.8c0.1,0.1,0.1,0.2,0.2,0.2
					c0.1,0.1,0.2,0.1,0.3,0c0.1,0,0.2-0.1,0.3-0.2c0,0,0,0,0.1,0c0.1,0,0.1,0.1,0.1,0.1c0,0.1-0.1,0.1-0.2,0.3
					c-0.1,0.1-0.2,0.2-0.3,0.4c-0.1,0.1-0.2,0.2-0.3,0.4c-0.1,0.1-0.2,0.2-0.2,0.3c0,0-0.1,0-0.1-0.1c-0.1,0-0.1-0.1-0.1-0.1
					c0-0.1,0.1-0.2,0.1-0.3c0-0.1,0-0.3,0-0.4l-2.5-4c-0.2-0.4-0.3-0.6-0.3-0.9c0-0.2,0-0.4,0.1-0.5c0.1-0.1,0.2-0.1,0.3-0.1
					c0.1,0,0.2,0,0.2,0.1c0.1,0.1,0.2,0.2,0.1,0.3c-0.3,0.4-0.3,0.8,0,1.3c0,0.1,0.1,0.2,0.2,0.3c0.1,0.1,0.1,0.2,0.2,0.3l3.4,1
					c0.2,0,0.3,0,0.4,0s0.2,0,0.3-0.1c0.1-0.1,0.2-0.1,0.2-0.2c0,0,0,0,0.1,0c0.1,0,0.1,0.1,0.1,0.1
					C376.1,368.5,375.9,368.7,375.8,368.7L375.8,368.7z"/>
			</g>
		</g>
		<g>
			<g>
				<text transform="matrix(0.4199 0.9076 -0.9076 0.4199 426.8604 275.8205)" class="st1 st3 st10">i</text>
				<text transform="matrix(0.3775 0.926 -0.926 0.3775 428.3509 278.9804)" class="st1 st3 st10">n</text>
				<text transform="matrix(0.3236 0.9462 -0.9462 0.3236 430.7899 285.0304)" class="st1 st3 st10">v</text>
				<text transform="matrix(0.2704 0.9627 -0.9627 0.2704 432.7002 290.6503)" class="st1 st3 st10">o</text>
				<text transform="matrix(0.228 0.9737 -0.9737 0.228 434.3304 296.6104)" class="st1 st3 st10">l</text>
				<text transform="matrix(0.1858 0.9826 -0.9826 0.1858 435.0999 299.8204)" class="st1 st3 st10">v</text>
				<text transform="matrix(0.135 0.9908 -0.9908 0.135 436.1905 305.6804)" class="st1 st3 st10">e</text>
				<text transform="matrix(8.941577e-02 0.996 -0.996 8.941577e-02 436.8904 310.9104)" class="st1 st3 st10">r</text>
				<text transform="matrix(1.186797e-02 0.9999 -0.9999 1.186797e-02 437.4711 318.6904)" class="st1 st3 st10">o</text>
				<text transform="matrix(-3.315521e-02 0.9995 -0.9995 -3.315521e-02 437.5101 324.8604)" class="st1 st3 st10">f</text>
				<text transform="matrix(0.5606 0.8281 -0.8281 0.5606 406.0704 272.9105)" class="st1 st3 st8">h</text>
				<text transform="matrix(0.5044 0.8635 -0.8635 0.5044 409.41 277.8803)" class="st1 st3 st8">u</text>
				<text transform="matrix(0.4318 0.902 -0.902 0.4318 412.3909 282.8905)" class="st1 st3 st8">m</text>
				<text transform="matrix(0.3608 0.9326 -0.9326 0.3608 416.1207 290.8905)" class="st1 st3 st8">a</text>
				<text transform="matrix(0.302 0.9533 -0.9533 0.302 417.8905 295.4404)" class="st1 st3 st8">n</text>
				<text transform="matrix(0.2453 0.9694 -0.9694 0.2453 419.7106 301.3204)" class="st1 st3 st8">s</text>
				<text transform="matrix(0.1632 0.9866 -0.9866 0.1632 421.32 308.2204)" class="st1 st3 st8">a</text>
				<text transform="matrix(0.1018 0.9948 -0.9948 0.1018 422.13 313.0403)" class="st1 st3 st8">n</text>
				<text transform="matrix(3.577167e-02 0.9994 -0.9994 3.577167e-02 422.7296 319.1504)" class="st1 st3 st8">d</text>
				<text transform="matrix(-6.122278e-02 0.9981 -0.9981 -6.122278e-02 422.8904 327.7004)" class="st1 st3 st8">n</text>
				<text transform="matrix(-0.1272 0.9919 -0.9919 -0.1272 422.4912 333.8104)" class="st1 st3 st8">o</text>
				<text transform="matrix(-0.1934 0.9811 -0.9811 -0.1934 421.75 339.5503)" class="st1 st3 st8">n</text>
				<text transform="matrix(0.5023 0.8647 -0.8647 0.5023 396.0103 287.8005)" class="st1 st3 st8">h</text>
				<text transform="matrix(0.4255 0.905 -0.905 0.4255 398.9904 292.9805)" class="st1 st3 st8">u</text>
				<text transform="matrix(0.3264 0.9452 -0.9452 0.3264 401.5106 298.1805)" class="st1 st3 st8">m</text>
				<text transform="matrix(0.2297 0.9733 -0.9733 0.2297 404.2601 306.5203)" class="st1 st3 st8">a</text>
				<text transform="matrix(0.1506 0.9886 -0.9886 0.1506 405.3803 311.2304)" class="st1 st3 st8">n</text>
				<text transform="matrix(7.567481e-02 0.9971 -0.9971 7.567481e-02 406.2501 317.2804)" class="st1 st3 st8">s</text>
				<text transform="matrix(-3.542275e-02 0.9994 -0.9994 -3.542275e-02 406.6411 324.3204)" class="st1 st3 st8">b</text>
				<text transform="matrix(-0.1155 0.9933 -0.9933 -0.1155 406.4113 329.9704)" class="st1 st3 st8">y</text>
			</g>
			<g>
				<path class="st1" d="M393.7,310.1c0.2,0.6,0.1,1.1-0.1,1.5s-0.6,0.7-1,0.9c-0.5,0.2-1.1,0.1-1.7-0.1c-0.6-0.3-0.9-0.6-1.1-1.1
					c-0.1-0.2-0.1-0.4-0.1-0.6c0-0.2,0-0.3-0.1-0.4c0,0-0.1-0.1-0.1-0.2c-0.1-0.1-0.1-0.1-0.1-0.1c0,0,0-0.1,0-0.1
					c0-0.1,0-0.1,0-0.1c0,0,0,0,0.1,0c0.1,0,0.2,0,0.4-0.1s0.4-0.1,0.6-0.2l3.6-1.2c0.2-0.1,0.4-0.1,0.5-0.2c0.1-0.1,0.1-0.2,0-0.5
					l0-0.1c0,0,0-0.1,0.1-0.1c0.1,0,0.1,0,0.2,0c0.1,0.2,0.1,0.3,0.2,0.5c0.1,0.1,0.1,0.2,0.2,0.3c0.1,0.1,0.1,0.1,0.2,0.2
					c0,0,0.1,0.1,0.1,0.1l0,0v0c0,0,0,0,0,0.1c0,0,0,0.1-0.1,0.1c-0.2,0-0.5,0-0.8,0.2l-1.5,0.5c-0.1,0-0.1,0-0.1,0.1c0,0,0,0,0,0
					c0.1,0.1,0.2,0.2,0.3,0.3C393.6,309.8,393.6,310,393.7,310.1L393.7,310.1z M393.1,309.9c-0.1-0.2-0.1-0.3-0.3-0.4
					c-0.1-0.1-0.3-0.1-0.5,0l-2,0.7c-0.2,0.1-0.3,0.2-0.3,0.4s0,0.4,0.1,0.6c0.1,0.3,0.4,0.5,0.7,0.6c0.4,0.1,0.8,0,1.2-0.1
					c0.5-0.2,0.8-0.4,1-0.7C393.2,310.7,393.3,310.3,393.1,309.9L393.1,309.9z"/>
				<path class="st1" d="M394.7,313.9c0,0.1,0,0.2,0.1,0.3s0.1,0.2,0.1,0.3c0,0.1,0.1,0.2,0.1,0.3c0,0-0.1,0-0.1,0
					c-0.1,0-0.1,0-0.1,0c0,0,0-0.1-0.1-0.2s-0.1-0.1-0.2-0.1h0c-0.1,0-0.8,0.5-2.1,1.5l2.1,0.2c0.1,0,0.2,0,0.3,0
					c0.1,0,0.1-0.1,0.2-0.2c0-0.1,0-0.2,0-0.4c0,0,0,0,0.1-0.1c0.1,0,0.1,0,0.1,0c0,0.1,0,0.2,0.1,0.4c0,0.2,0.1,0.3,0.1,0.5
					c0,0.1,0.1,0.3,0.1,0.4c0,0.1,0.1,0.3,0.1,0.3c0,0-0.1,0-0.1,0c-0.1,0-0.1,0-0.1,0c0-0.1-0.1-0.2-0.2-0.3s-0.2-0.2-0.3-0.2
					l-4.7-0.5c-0.4,0-0.7-0.1-0.9-0.3c-0.2-0.1-0.3-0.3-0.3-0.4c0-0.1,0-0.2,0-0.3s0.1-0.1,0.2-0.1c0.1,0,0.2,0,0.3,0
					c0.1,0.5,0.5,0.8,1,0.8c0.1,0,0.2,0,0.4,0c0.1,0,0.2,0,0.3,0l2.8-2.1c0.1-0.1,0.2-0.2,0.3-0.2c0-0.1,0.1-0.2,0.1-0.3
					c0-0.1,0-0.2,0-0.3c0,0,0,0,0.1-0.1c0.1,0,0.1,0,0.1,0C394.7,313.5,394.7,313.8,394.7,313.9L394.7,313.9z"/>
			</g>
		</g>
	</g>
</g>
<g id="Layer_4">
	<polygon class="st11" points="362.4,114.4 483.4,176.4 465.4,277.4 545.4,349.4 329.4,418.4 	"/>
	<circle class="st12" cx="465.9" cy="278.6" r="21.8"/>
	<circle class="st12" cx="545" cy="347.4" r="21.8"/>
	<circle class="st12" cx="483" cy="176.4" r="21.8"/>
	<circle class="st12" cx="331.1" cy="417.8" r="21.8"/>
	<circle class="st12" cx="361.8" cy="114" r="21.8"/>
</g>
</svg>
