<?xml version="1.0" encoding="UTF-8"?>
<svg id="Layer_1" data-name="Layer 1" xmlns="http://www.w3.org/2000/svg" viewBox="0 0 711.47 670.29">
  <defs>
    <style>
      .cls-1, .cls-2 {
        fill: none;
      }

      .cls-3 {
        fill: #c9453b;
      }

      .cls-4 {
        fill: #231f20;
      }

      .cls-5 {
        font-size: 13.73px;
      }

      .cls-5, .cls-6 {
        fill: #8c1e1c;
        font-family: CrimsonText-Regular, 'Crimson Text';
      }

      .cls-6 {
        font-size: 13.73px;
      }

      .cls-2 {
        stroke: #8c1e1c;
        stroke-miterlimit: 10;
        stroke-width: .5px;
      }
    </style>
  </defs>
  <circle class="cls-2" cx="381.32" cy="329.46" r="324.04"/>
  <circle class="cls-4" cx="686.9" cy="342.77" r="4"/>
  <path class="cls-3" d="M380.73,158.36c-95.2,0-172.38,77.18-172.38,172.38s77.18,172.38,172.38,172.38,172.38-77.18,172.38-172.38-77.18-172.38-172.38-172.38Zm0,320.81c-81.97,0-148.43-66.46-148.43-148.43s66.45-148.43,148.43-148.43,148.43,66.45,148.43,148.43-66.45,148.43-148.43,148.43Z"/>
  <path class="cls-3" d="M380.73,361.92c17.22,0,31.18-13.96,31.18-31.17s-13.96-31.18-31.18-31.18-31.18,13.96-31.18,31.18,13.96,31.17,31.18,31.17Z"/>
  <rect class="cls-1" x="49.99" width="661.48" height="661.48"/>
  <g>
    <text class="cls-5" transform="translate(287.78 620.85) rotate(-161.48)"><tspan x="0" y="0"> </tspan></text>
    <text class="cls-5" transform="translate(284.24 619.67) rotate(-160.54)"><tspan x="0" y="0">a</tspan></text>
    <text class="cls-5" transform="translate(278.31 617.6) rotate(-158.98)"><tspan x="0" y="0">w</tspan></text>
    <text class="cls-5" transform="translate(268.55 613.81) rotate(-157.42)"><tspan x="0" y="0">a</tspan></text>
    <text class="cls-5" transform="translate(262.72 611.37) rotate(-156.29)"><tspan x="0" y="0">r</tspan></text>
    <text class="cls-5" transform="translate(257.48 609.07) rotate(-155.17)"><tspan x="0" y="0">e</tspan></text>
    <text class="cls-5" transform="translate(251.65 606.35) rotate(-154.22)"><tspan x="0" y="0"> </tspan></text>
    <text class="cls-5" transform="translate(248.29 604.73) rotate(-153.42)"><tspan x="0" y="0">t</tspan></text>
    <text class="cls-5" transform="translate(243.96 602.57) rotate(-152.25)"><tspan x="0" y="0">h</tspan></text>
    <text class="cls-5" transform="translate(237.11 598.95) rotate(-150.94)"><tspan x="0" y="0">a</tspan></text>
    <text class="cls-5" transform="translate(231.59 595.87) rotate(-149.9)"><tspan x="0" y="0">t</tspan></text>
    <text class="cls-5" transform="translate(227.4 593.43) rotate(-149.11)"><tspan x="0" y="0"> </tspan></text>
    <text class="cls-5" transform="translate(224.2 591.55) rotate(-147.8)"><tspan x="0" y="0">N</tspan></text>
    <text class="cls-5" transform="translate(215.51 586.04) rotate(-146.26)"><tspan x="0" y="0">a</tspan></text>
    <text class="cls-5" transform="translate(210.27 582.53) rotate(-145.22)"><tspan x="0" y="0">t</tspan></text>
    <text class="cls-5" transform="translate(206.26 579.75) rotate(-144.06)"><tspan x="0" y="0">u</tspan></text>
    <text class="cls-5" transform="translate(200.15 575.3) rotate(-142.82)"><tspan x="0" y="0">r</tspan></text>
    <text class="cls-5" transform="translate(195.59 571.83) rotate(-141.69)"><tspan x="0" y="0">e</tspan></text>
    <text class="cls-5" transform="translate(190.56 567.84) rotate(-140.74)"><tspan x="0" y="0"> </tspan></text>
    <text class="cls-5" transform="translate(187.67 565.48) rotate(-140)"><tspan x="0" y="0">i</tspan></text>
    <text class="cls-5" transform="translate(184.43 562.75) rotate(-139.09)"><tspan x="0" y="0">s</tspan></text>
    <text class="cls-5" transform="translate(180.29 559.15) rotate(-138.23)"><tspan x="0" y="0"> </tspan></text>
    <text class="cls-5" transform="translate(177.51 556.67) rotate(-137.42)"><tspan x="0" y="0">t</tspan></text>
    <text class="cls-5" transform="translate(173.94 553.4) rotate(-136.27)"><tspan x="0" y="0">o</tspan></text>
    <text class="cls-5" transform="translate(168.54 548.2) rotate(-135.22)"><tspan x="0" y="0"> </tspan></text>
    <text class="cls-5" transform="translate(165.9 545.59) rotate(-134.16)"><tspan x="0" y="0">u</tspan></text>
    <text class="cls-5" transform="translate(160.65 540.16) rotate(-132.94)"><tspan x="0" y="0">s</tspan></text>
    <text class="cls-5" transform="translate(156.92 536.14) rotate(-132.07)"><tspan x="0" y="0"> </tspan></text>
    <text class="cls-5" transform="translate(154.42 533.37) rotate(-131.26)"><tspan x="0" y="0">t</tspan></text>
    <text class="cls-5" transform="translate(151.23 529.74) rotate(-130.08)"><tspan x="0" y="0">h</tspan></text>
    <text class="cls-5" transform="translate(146.25 523.8) rotate(-128.75)"><tspan x="0" y="0">e</tspan></text>
    <text class="cls-5" transform="translate(142.26 518.8) rotate(-127.8)"><tspan x="0" y="0"> </tspan></text>
    <text class="cls-5" transform="translate(139.97 515.87) rotate(-126.7)"><tspan x="0" y="0">n</tspan></text>
    <text class="cls-5" transform="translate(135.25 509.51) rotate(-125.36)"><tspan x="0" y="0">a</tspan></text>
    <text class="cls-5" transform="translate(131.58 504.4) rotate(-123.69)"><tspan x="0" y="0">m</tspan></text>
    <text class="cls-5" transform="translate(125.32 494.92) rotate(-122.02)"><tspan x="0" y="0">e</tspan></text>
    <text class="cls-5" transform="translate(121.94 489.5) rotate(-120.9)"><tspan x="0" y="0">s</tspan></text>
    <text class="cls-5" transform="translate(119.15 484.81) rotate(-120.04)"><tspan x="0" y="0"> </tspan></text>
    <text class="cls-5" transform="translate(117.26 481.6) rotate(-118.7)"><tspan x="0" y="0">w</tspan></text>
    <text class="cls-5" transform="translate(112.27 472.42) rotate(-117.12)"><tspan x="0" y="0">e</tspan></text>
    <text class="cls-5" transform="translate(109.35 466.68) rotate(-116.16)"><tspan x="0" y="0"> </tspan></text>
    <text class="cls-5" transform="translate(107.71 463.36) rotate(-115.16)"><tspan x="0" y="0">g</tspan></text>
    <text class="cls-5" transform="translate(104.75 457.02) rotate(-114.11)"><tspan x="0" y="0">i</tspan></text>
    <text class="cls-5" transform="translate(103.01 453.15) rotate(-113.03)"><tspan x="0" y="0">v</tspan></text>
    <text class="cls-5" transform="translate(100.19 446.48) rotate(-111.76)"><tspan x="0" y="0">e</tspan></text>
    <text class="cls-5" transform="translate(97.82 440.5) rotate(-110.82)"><tspan x="0" y="0"> </tspan></text>
    <text class="cls-5" transform="translate(96.49 437.01) rotate(-110.02)"><tspan x="0" y="0">t</tspan></text>
    <text class="cls-5" transform="translate(94.83 432.46) rotate(-108.88)"><tspan x="0" y="0">o</tspan></text>
    <text class="cls-5" transform="translate(92.43 425.37) rotate(-107.85)"><tspan x="0" y="0"> </tspan></text>
    <text class="cls-5" transform="translate(91.33 421.84) rotate(-107.66)"><tspan x="0" y="0">h</tspan></text>
    <text class="cls-5" transform="translate(89.06 414.44) rotate(-105.5)"><tspan x="0" y="0">e</tspan></text>
    <text class="cls-5" transform="translate(87.35 408.25) rotate(-104.38)"><tspan x="0" y="0">r</tspan></text>
    <text class="cls-5" transform="translate(85.94 402.7) rotate(-103.51)"><tspan x="0" y="0"> </tspan></text>
    <text class="cls-5" transform="translate(85.07 399.04) rotate(-102.81)"><tspan x="0" y="0"> </tspan></text>
    <text class="cls-5" transform="translate(84.25 395.42) rotate(-102.12)"><tspan x="0" y="0"> </tspan></text>
    <text class="cls-5" transform="translate(83.47 391.76) rotate(-101.43)"><tspan x="0" y="0"> </tspan></text>
    <text class="cls-5" transform="translate(82.73 388.1) rotate(-100.73)"><tspan x="0" y="0"> </tspan></text>
    <text class="cls-5" transform="translate(82.04 384.45) rotate(-100.04)"><tspan x="0" y="0"> </tspan></text>
    <text class="cls-5" transform="translate(81.4 380.79) rotate(-99.34)"><tspan x="0" y="0"> </tspan></text>
    <text class="cls-5" transform="translate(80.8 377.1) rotate(-98.64)"><tspan x="0" y="0"> </tspan></text>
    <text class="cls-5" transform="translate(80.24 373.42) rotate(-97.94)"><tspan x="0" y="0"> </tspan></text>
    <text class="cls-5" transform="translate(79.73 369.7) rotate(-97.24)"><tspan x="0" y="0"> </tspan></text>
    <text class="cls-5" transform="translate(79.26 366.02) rotate(-96.54)"><tspan x="0" y="0"> </tspan></text>
    <text class="cls-5" transform="translate(78.84 362.31) rotate(-95.84)"><tspan x="0" y="0"> </tspan></text>
    <text class="cls-5" transform="translate(78.46 358.6) rotate(-95.14)"><tspan x="0" y="0"> </tspan></text>
    <text class="cls-5" transform="translate(78.13 354.89) rotate(-94.44)"><tspan x="0" y="0"> </tspan></text>
    <text class="cls-5" transform="translate(77.85 351.16) rotate(-93.73)"><tspan x="0" y="0"> </tspan></text>
    <text class="cls-5" transform="translate(77.61 347.46) rotate(-93.04)"><tspan x="0" y="0"> </tspan></text>
    <text class="cls-5" transform="translate(77.42 343.73) rotate(-92.33)"><tspan x="0" y="0"> </tspan></text>
    <text class="cls-5" transform="translate(77.27 340.01) rotate(-91.63)"><tspan x="0" y="0"> </tspan></text>
    <text class="cls-5" transform="translate(77.17 336.26) rotate(-90.92)"><tspan x="0" y="0"> </tspan></text>
    <text class="cls-5" transform="translate(77.11 332.54) rotate(-90.22)"><tspan x="0" y="0"> </tspan></text>
    <text class="cls-5" transform="translate(77.1 328.8) rotate(-89.52)"><tspan x="0" y="0"> </tspan></text>
    <text class="cls-5" transform="translate(77.14 325.07) rotate(-88.81)"><tspan x="0" y="0"> </tspan></text>
    <text class="cls-5" transform="translate(77.22 321.34) rotate(-88.11)"><tspan x="0" y="0"> </tspan></text>
    <text class="cls-5" transform="translate(77.33 317.62) rotate(-87.07)"><tspan x="0" y="0">k</tspan></text>
    <text class="cls-5" transform="translate(77.71 310.37) rotate(-85.64)"><tspan x="0" y="0">n</tspan></text>
    <text class="cls-5" transform="translate(78.32 302.47) rotate(-84.19)"><tspan x="0" y="0">o</tspan></text>
    <text class="cls-5" transform="translate(79.06 295.07) rotate(-82.51)"><tspan x="0" y="0">w</tspan></text>
    <text class="cls-5" transform="translate(80.47 284.67) rotate(-81.12)"><tspan x="0" y="0">i</tspan></text>
    <text class="cls-5" transform="translate(81.12 280.47) rotate(-79.98)"><tspan x="0" y="0">n</tspan></text>
    <text class="cls-5" transform="translate(82.51 272.69) rotate(-78.58)"><tspan x="0" y="0">g</tspan></text>
    <text class="cls-5" transform="translate(83.91 265.83) rotate(-77.58)"><tspan x="0" y="0"> </tspan></text>
    <text class="cls-5" transform="translate(84.68 262.22) rotate(-76.27)"><tspan x="0" y="0">N</tspan></text>
    <text class="cls-5" transform="translate(87.16 252.21) rotate(-74.71)"><tspan x="0" y="0">a</tspan></text>
    <text class="cls-5" transform="translate(88.84 246.12) rotate(-73.66)"><tspan x="0" y="0">t</tspan></text>
    <text class="cls-5" transform="translate(90.19 241.48) rotate(-72.51)"><tspan x="0" y="0">u</tspan></text>
    <text class="cls-5" transform="translate(92.48 234.27) rotate(-71.27)"><tspan x="0" y="0">r</tspan></text>
    <text class="cls-5" transform="translate(94.33 228.81) rotate(-70.13)"><tspan x="0" y="0">e</tspan></text>
    <text class="cls-5" transform="translate(96.53 222.79) rotate(-69.19)"><tspan x="0" y="0"> </tspan></text>
    <text class="cls-5" transform="translate(97.85 219.31) rotate(-68.44)"><tspan x="0" y="0">i</tspan></text>
    <text class="cls-5" transform="translate(99.42 215.36) rotate(-67.54)"><tspan x="0" y="0">s</tspan></text>
    <text class="cls-5" transform="translate(101.51 210.31) rotate(-66.68)"><tspan x="0" y="0"> </tspan></text>
    <text class="cls-5" transform="translate(102.98 206.89) rotate(-65.75)"><tspan x="0" y="0">a</tspan></text>
    <text class="cls-5" transform="translate(105.59 201.13) rotate(-64.79)"><tspan x="0" y="0">l</tspan></text>
    <text class="cls-5" transform="translate(107.31 197.5) rotate(-64.04)"><tspan x="0" y="0">l</tspan></text>
    <text class="cls-5" transform="translate(109.07 193.88) rotate(-63.32)"><tspan x="0" y="0"> </tspan></text>
    <text class="cls-5" transform="translate(110.74 190.55) rotate(-62.29)"><tspan x="0" y="0">b</tspan></text>
    <text class="cls-5" transform="translate(114.15 184.08) rotate(-60.91)"><tspan x="0" y="0">u</tspan></text>
    <text class="cls-5" transform="translate(117.85 177.46) rotate(-59.75)"><tspan x="0" y="0">t</tspan></text>
    <text class="cls-5" transform="translate(120.3 173.28) rotate(-58.95)"><tspan x="0" y="0"> </tspan></text>
    <text class="cls-5" transform="translate(122.21 170.08) rotate(-57.87)"><tspan x="0" y="0">n</tspan></text>
    <text class="cls-5" transform="translate(126.43 163.38) rotate(-56.44)"><tspan x="0" y="0">o</tspan></text>
    <text class="cls-5" transform="translate(130.57 157.18) rotate(-55.29)"><tspan x="0" y="0">t</tspan></text>
    <text class="cls-5" transform="translate(133.36 153.17) rotate(-54.49)"><tspan x="0" y="0"> </tspan></text>
    <text class="cls-5" transform="translate(135.51 150.14) rotate(-53.55)"><tspan x="0" y="0">e</tspan></text>
    <text class="cls-5" transform="translate(139.31 144.99) rotate(-52.21)"><tspan x="0" y="0">n</tspan></text>
    <text class="cls-5" transform="translate(144.17 138.75) rotate(-50.79)"><tspan x="0" y="0">d</tspan></text>
    <text class="cls-5" transform="translate(148.81 133.09) rotate(-49.73)"><tspan x="0" y="0">l</tspan></text>
    <text class="cls-5" transform="translate(151.39 130.04) rotate(-48.76)"><tspan x="0" y="0">e</tspan></text>
    <text class="cls-5" transform="translate(155.63 125.22) rotate(-47.65)"><tspan x="0" y="0">s</tspan></text>
    <text class="cls-5" transform="translate(159.31 121.19) rotate(-46.63)"><tspan x="0" y="0">s</tspan></text>
    <text class="cls-6" transform="translate(215.02 73.23) rotate(-32.34)"><tspan x="0" y="0">r</tspan></text>
    <text class="cls-6" transform="translate(220.15 69.99) rotate(-31.14)"><tspan x="0" y="0">e</tspan></text>
    <text class="cls-6" transform="translate(225.94 66.51) rotate(-29.97)"><tspan x="0" y="0">s</tspan></text>
    <text class="cls-6" transform="translate(230.96 63.63) rotate(-28.94)"><tspan x="0" y="0">t</tspan></text>
    <text class="cls-6" transform="translate(235.52 61.11) rotate(-27.88)"><tspan x="0" y="0">r</tspan></text>
    <text class="cls-6" transform="translate(240.88 58.28) rotate(-26.57)"><tspan x="0" y="0">u</tspan></text>
    <text class="cls-6" transform="translate(247.97 54.76) rotate(-25.22)"><tspan x="0" y="0">c</tspan></text>
    <text class="cls-6" transform="translate(253.78 52.04) rotate(-24.13)"><tspan x="0" y="0">t</tspan></text>
    <text class="cls-6" transform="translate(258.51 49.91) rotate(-22.9)"><tspan x="0" y="0">u</tspan></text>
    <text class="cls-6" transform="translate(265.82 46.85) rotate(-21.58)"><tspan x="0" y="0">r</tspan></text>
    <text class="cls-6" transform="translate(271.47 44.63) rotate(-20.57)"><tspan x="0" y="0">i</tspan></text>
    <text class="cls-6" transform="translate(275.77 43.01) rotate(-19.36)"><tspan x="0" y="0">n</tspan></text>
    <text class="cls-6" transform="translate(283.55 40.29) rotate(-17.89)"><tspan x="0" y="0">g</tspan></text>
    <text class="cls-6" transform="translate(290.55 38.06) rotate(-16.8)"><tspan x="0" y="0">,</tspan></text>
    <text class="cls-6" transform="translate(294.58 36.85) rotate(-16.02)"><tspan x="0" y="0"> </tspan></text>
    <text class="cls-6" transform="translate(298.48 35.73) rotate(-15.07)"><tspan x="0" y="0">r</tspan></text>
    <text class="cls-6" transform="translate(304.35 34.16) rotate(-13.86)"><tspan x="0" y="0">e</tspan></text>
    <text class="cls-6" transform="translate(310.9 32.55) rotate(-12.51)"><tspan x="0" y="0">v</tspan></text>
    <text class="cls-6" transform="translate(318.32 30.93) rotate(-11.36)"><tspan x="0" y="0">i</tspan></text>
    <text class="cls-6" transform="translate(322.82 30.03) rotate(-10.38)"><tspan x="0" y="0">s</tspan></text>
    <text class="cls-6" transform="translate(328.54 28.99) rotate(-9.41)"><tspan x="0" y="0">i</tspan></text>
    <text class="cls-6" transform="translate(333.07 28.24) rotate(-8.24)"><tspan x="0" y="0">o</tspan></text>
    <text class="cls-6" transform="translate(340.81 27.13) rotate(-6.74)"><tspan x="0" y="0">n</tspan></text>
    <text class="cls-6" transform="translate(349.01 26.19) rotate(-5.54)"><tspan x="0" y="0">i</tspan></text>
    <text class="cls-6" transform="translate(353.58 25.74) rotate(-4.34)"><tspan x="0" y="0">n</tspan></text>
    <text class="cls-6" transform="translate(361.79 25.13) rotate(-2.9)"><tspan x="0" y="0">g</tspan></text>
    <text class="cls-6" transform="translate(369.14 24.78) rotate(-1.85)"><tspan x="0" y="0"> </tspan></text>
    <text class="cls-6" transform="translate(373.2 24.65) rotate(-.86)"><tspan x="0" y="0">a</tspan></text>
    <text class="cls-6" transform="translate(379.84 24.52) rotate(.93)"><tspan x="0" y="0">n</tspan></text>
    <text class="cls-6" transform="translate(388.1 24.64) rotate(1.97)"><tspan x="0" y="0">d</tspan></text>
    <text class="cls-6" transform="translate(395.75 24.93) rotate(3.05)"><tspan x="0" y="0"> </tspan></text>
    <text class="cls-6" transform="translate(399.8 25.14) rotate(3.99)"><tspan x="0" y="0">r</tspan></text>
    <text class="cls-6" transform="translate(405.87 25.57) rotate(5.18)"><tspan x="0" y="0">e</tspan></text>
    <text class="cls-6" transform="translate(412.59 26.2) rotate(6.24)"><tspan x="0" y="0">i</tspan></text>
    <text class="cls-6" transform="translate(417.16 26.69) rotate(7.44)"><tspan x="0" y="0">n</tspan></text>
    <text class="cls-6" transform="translate(425.33 27.79) rotate(8.7)"><tspan x="0" y="0">t</tspan></text>
    <text class="cls-6" transform="translate(430.46 28.57) rotate(9.82)"><tspan x="0" y="0">e</tspan></text>
    <text class="cls-6" transform="translate(437.13 29.74) rotate(11.03)"><tspan x="0" y="0">r</tspan></text>
    <text class="cls-6" transform="translate(443.08 30.9) rotate(12.33)"><tspan x="0" y="0">p</tspan></text>
    <text class="cls-6" transform="translate(450.72 32.6) rotate(13.64)"><tspan x="0" y="0">r</tspan></text>
    <text class="cls-6" transform="translate(456.64 34.04) rotate(14.85)"><tspan x="0" y="0">e</tspan></text>
    <text class="cls-6" transform="translate(463.15 35.78) rotate(15.98)"><tspan x="0" y="0">t</tspan></text>
    <text class="cls-6" transform="translate(468.14 37.22) rotate(16.9)"><tspan x="0" y="0">i</tspan></text>
    <text class="cls-6" transform="translate(472.54 38.55) rotate(18.11)"><tspan x="0" y="0">n</tspan></text>
    <text class="cls-6" transform="translate(480.39 41.14) rotate(19.59)"><tspan x="0" y="0">g</tspan></text>
    <text class="cls-6" transform="translate(487.31 43.62) rotate(20.66)"><tspan x="0" y="0"> </tspan></text>
    <text class="cls-6" transform="translate(491.09 45.02) rotate(22.06)"><tspan x="0" y="0">w</tspan></text>
    <text class="cls-6" transform="translate(501.09 49.11) rotate(23.84)"><tspan x="0" y="0">h</tspan></text>
    <text class="cls-6" transform="translate(508.46 52.39) rotate(25.22)"><tspan x="0" y="0">a</tspan></text>
    <text class="cls-6" transform="translate(514.47 55.24) rotate(26.33)"><tspan x="0" y="0">t</tspan></text>
    <text class="cls-6" transform="translate(519.13 57.56) rotate(27.2)"><tspan x="0" y="0"> </tspan></text>
    <text class="cls-6" transform="translate(522.75 59.39) rotate(28.6)"><tspan x="0" y="0">w</tspan></text>
    <text class="cls-6" transform="translate(532.21 64.59) rotate(30.24)"><tspan x="0" y="0">e</tspan></text>
    <text class="cls-6" transform="translate(538.05 68.02) rotate(31.26)"><tspan x="0" y="0"> </tspan></text>
    <text class="cls-6" transform="translate(541.51 70.11) rotate(32.37)"><tspan x="0" y="0">u</tspan></text>
    <text class="cls-6" transform="translate(548.2 74.36) rotate(33.89)"><tspan x="0" y="0">n</tspan></text>
    <text class="cls-6" transform="translate(555.04 78.98) rotate(35.37)"><tspan x="0" y="0">d</tspan></text>
    <text class="cls-6" transform="translate(561.26 83.41) rotate(36.71)"><tspan x="0" y="0">e</tspan></text>
    <text class="cls-6" transform="translate(566.66 87.46) rotate(37.91)"><tspan x="0" y="0">r</tspan></text>
    <text class="cls-6" transform="translate(571.43 91.19) rotate(39.01)"><tspan x="0" y="0">s</tspan></text>
    <text class="cls-6" transform="translate(575.95 94.86) rotate(40.03)"><tspan x="0" y="0">t</tspan></text>
    <text class="cls-6" transform="translate(579.91 98.19) rotate(41.14)"><tspan x="0" y="0">a</tspan></text>
    <text class="cls-6" transform="translate(584.93 102.58) rotate(42.52)"><tspan x="0" y="0">n</tspan></text>
    <text class="cls-6" transform="translate(591 108.17) rotate(44)"><tspan x="0" y="0">d</tspan></text>
    <text class="cls-6" transform="translate(596.49 113.5) rotate(45.09)"><tspan x="0" y="0"> </tspan></text>
    <text class="cls-6" transform="translate(599.36 116.38) rotate(46.09)"><tspan x="0" y="0">a</tspan></text>
    <text class="cls-6" transform="translate(603.96 121.19) rotate(47.25)"><tspan x="0" y="0">s</tspan></text>
    <text class="cls-6" transform="translate(607.9 125.46) rotate(48.17)"><tspan x="0" y="0"> </tspan></text>
    <text class="cls-6" transform="translate(610.6 128.46) rotate(49.29)"><tspan x="0" y="0">h</tspan></text>
    <text class="cls-6" transform="translate(615.85 134.59) rotate(50.78)"><tspan x="0" y="0">u</tspan></text>
    <text class="cls-6" transform="translate(620.86 140.7) rotate(52.6)"><tspan x="0" y="0">m</tspan></text>
    <text class="cls-6" transform="translate(627.92 150.03) rotate(54.31)"><tspan x="0" y="0">a</tspan></text>
    <text class="cls-6" transform="translate(631.78 155.41) rotate(55.7)"><tspan x="0" y="0">n</tspan></text>
    <text class="cls-6" transform="translate(636.42 162.25) rotate(57.01)"><tspan x="0" y="0">s</tspan></text>
    <text class="cls-6" transform="translate(639.58 167.14) rotate(57.95)"><tspan x="0" y="0">,</tspan></text>
    <text class="cls-6" transform="translate(641.79 170.69) rotate(58.72)"><tspan x="0" y="0"> </tspan></text>
    <text class="cls-6" transform="translate(643.93 174.15) rotate(60.1)"><tspan x="0" y="0">N</tspan></text>
    <text class="cls-6" transform="translate(649.18 183.37) rotate(61.72)"><tspan x="0" y="0">a</tspan></text>
    <text class="cls-6" transform="translate(652.33 189.25) rotate(62.83)"><tspan x="0" y="0">t</tspan></text>
    <text class="cls-6" transform="translate(654.7 193.87) rotate(64.06)"><tspan x="0" y="0">u</tspan></text>
    <text class="cls-6" transform="translate(658.14 201) rotate(65.38)"><tspan x="0" y="0">r</tspan></text>
    <text class="cls-6" transform="translate(660.66 206.51) rotate(66.58)"><tspan x="0" y="0">e</tspan></text>
    <text class="cls-6" transform="translate(663.33 212.73) rotate(67.6)"><tspan x="0" y="0"> </tspan></text>
    <text class="cls-6" transform="translate(664.88 216.49) rotate(68.61)"><tspan x="0" y="0">a</tspan></text>
    <text class="cls-6" transform="translate(667.3 222.67) rotate(69.96)"><tspan x="0" y="0">d</tspan></text>
    <text class="cls-6" transform="translate(669.91 229.84) rotate(71.45)"><tspan x="0" y="0">n</tspan></text>
    <text class="cls-6" transform="translate(672.51 237.7) rotate(72.62)"><tspan x="0" y="0"> </tspan></text>
    <text class="cls-6" transform="translate(673.72 241.56) rotate(73.49)"><tspan x="0" y="0">t</tspan></text>
    <text class="cls-6" transform="translate(675.2 246.54) rotate(74.74)"><tspan x="0" y="0">h</tspan></text>
    <text class="cls-6" transform="translate(677.31 254.35) rotate(76.14)"><tspan x="0" y="0">e</tspan></text>
    <text class="cls-6" transform="translate(678.9 260.91) rotate(77.16)"><tspan x="0" y="0"> </tspan></text>
    <text class="cls-6" transform="translate(679.82 264.85) rotate(78.35)"><tspan x="0" y="0">E</tspan></text>
    <text class="cls-6" transform="translate(681.54 273.31) rotate(79.79)"><tspan x="0" y="0">a</tspan></text>
    <text class="cls-6" transform="translate(682.71 279.88) rotate(80.99)"><tspan x="0" y="0">r</tspan></text>
    <text class="cls-6" transform="translate(683.64 285.87) rotate(82.04)"><tspan x="0" y="0">t</tspan></text>
    <text class="cls-6" transform="translate(684.37 291.03) rotate(83.29)"><tspan x="0" y="0">h</tspan></text>
    <text class="cls-6" transform="translate(685.29 299.05) rotate(84.42)"><tspan x="0" y="0"> </tspan></text>
    <text class="cls-6" transform="translate(685.67 303.11) rotate(85.17)"><tspan x="0" y="0"> </tspan></text>
    <text class="cls-6" transform="translate(686.01 307.17) rotate(85.93)"><tspan x="0" y="0"> </tspan></text>
    <text class="cls-6" transform="translate(686.29 311.22) rotate(86.68)"><tspan x="0" y="0"> </tspan></text>
    <text class="cls-6" transform="translate(686.52 315.29) rotate(87.44)"><tspan x="0" y="0"> </tspan></text>
    <text class="cls-6" transform="translate(686.7 319.37) rotate(88.19)"><tspan x="0" y="0"> </tspan></text>
    <text class="cls-6" transform="translate(686.82 323.43) rotate(88.94)"><tspan x="0" y="0"> </tspan></text>
    <text class="cls-6" transform="translate(686.87 327.53) rotate(89.07)"><tspan x="0" y="0"> </tspan></text>
    <text class="cls-6" transform="translate(686.92 331.56) rotate(90.93)"><tspan x="0" y="0"> </tspan></text>
    <text class="cls-6" transform="translate(686.87 335.63) rotate(91.18)"><tspan x="0" y="0"> </tspan></text>
    <text class="cls-6" transform="translate(686.78 339.69) rotate(91.93)"><tspan x="0" y="0"> </tspan></text>
    <text class="cls-6" transform="translate(686.63 343.77) rotate(92.68)"><tspan x="0" y="0"> </tspan></text>
    <text class="cls-6" transform="translate(686.44 347.83) rotate(93.43)"><tspan x="0" y="0"> </tspan></text>
    <text class="cls-6" transform="translate(686.18 351.92) rotate(94.19)"><tspan x="0" y="0"> </tspan></text>
    <text class="cls-6" transform="translate(685.88 355.95) rotate(94.94)"><tspan x="0" y="0"> </tspan></text>
    <text class="cls-6" transform="translate(685.52 360) rotate(95.7)"><tspan x="0" y="0"> </tspan></text>
    <text class="cls-6" transform="translate(685.11 364.07) rotate(96.47)"><tspan x="0" y="0"> </tspan></text>
    <text class="cls-6" transform="translate(684.65 368.09) rotate(97.22)"><tspan x="0" y="0"> </tspan></text>
    <text class="cls-6" transform="translate(684.13 372.16) rotate(97.99)"><tspan x="0" y="0"> </tspan></text>
    <text class="cls-6" transform="translate(683.56 376.18) rotate(98.75)"><tspan x="0" y="0"> </tspan></text>
    <text class="cls-6" transform="translate(682.93 380.21) rotate(99.51)"><tspan x="0" y="0"> </tspan></text>
    <text class="cls-6" transform="translate(682.25 384.21) rotate(100.28)"><tspan x="0" y="0"> </tspan></text>
    <text class="cls-6" transform="translate(681.52 388.22) rotate(101.04)"><tspan x="0" y="0"> </tspan></text>
    <text class="cls-6" transform="translate(680.74 392.2) rotate(102)"><tspan x="0" y="0">r</tspan></text>
    <text class="cls-6" transform="translate(679.47 398.15) rotate(103.21)"><tspan x="0" y="0">e</tspan></text>
    <text class="cls-6" transform="translate(677.92 404.7) rotate(104.38)"><tspan x="0" y="0">s</tspan></text>
    <text class="cls-6" transform="translate(676.47 410.31) rotate(105.42)"><tspan x="0" y="0">t</tspan></text>
    <text class="cls-6" transform="translate(675.08 415.32) rotate(106.54)"><tspan x="0" y="0">a</tspan></text>
    <text class="cls-6" transform="translate(673.18 421.71) rotate(107.89)"><tspan x="0" y="0">b</tspan></text>
    <text class="cls-6" transform="translate(670.79 429.01) rotate(109.03)"><tspan x="0" y="0">l</tspan></text>
    <text class="cls-6" transform="translate(669.37 433.13) rotate(109.87)"><tspan x="0" y="0">i</tspan></text>
    <text class="cls-6" transform="translate(667.81 437.43) rotate(110.85)"><tspan x="0" y="0">s</tspan></text>
    <text class="cls-6" transform="translate(665.74 442.86) rotate(112.16)"><tspan x="0" y="0">h</tspan></text>
    <text class="cls-6" transform="translate(662.66 450.35) rotate(113.35)"><tspan x="0" y="0">i</tspan></text>
    <text class="cls-6" transform="translate(660.85 454.57) rotate(114.56)"><tspan x="0" y="0">n</tspan></text>
    <text class="cls-6" transform="translate(657.41 462.06) rotate(116.03)"><tspan x="0" y="0">g</tspan></text>
    <text class="cls-6" transform="translate(654.16 468.66) rotate(117.1)"><tspan x="0" y="0"> </tspan></text>
    <text class="cls-6" transform="translate(652.31 472.27) rotate(118.05)"><tspan x="0" y="0">r</tspan></text>
    <text class="cls-6" transform="translate(649.46 477.61) rotate(119.25)"><tspan x="0" y="0">e</tspan></text>
    <text class="cls-6" transform="translate(646.13 483.51) rotate(120.43)"><tspan x="0" y="0">s</tspan></text>
    <text class="cls-6" transform="translate(643.2 488.51) rotate(121.7)"><tspan x="0" y="0">p</tspan></text>
    <text class="cls-6" transform="translate(639.08 495.14) rotate(123.06)"><tspan x="0" y="0">e</tspan></text>
    <text class="cls-6" transform="translate(635.38 500.8) rotate(124.3)"><tspan x="0" y="0">c</tspan></text>
    <text class="cls-6" transform="translate(631.76 506.08) rotate(125.37)"><tspan x="0" y="0">t</tspan></text>
    <text class="cls-6" transform="translate(628.73 510.33) rotate(126.24)"><tspan x="0" y="0"> </tspan></text>
    <text class="cls-6" transform="translate(626.32 513.61) rotate(127.09)"><tspan x="0" y="0">f</tspan></text>
    <text class="cls-6" transform="translate(623.31 517.6) rotate(128.29)"><tspan x="0" y="0">o</tspan></text>
    <text class="cls-6" transform="translate(618.44 523.73) rotate(129.58)"><tspan x="0" y="0">r</tspan></text>
    <text class="cls-6" transform="translate(614.55 528.42) rotate(130.53)"><tspan x="0" y="0"> </tspan></text>
    <text class="cls-6" transform="translate(611.94 531.52) rotate(131.91)"><tspan x="0" y="0">w</tspan></text>
    <text class="cls-6" transform="translate(604.71 539.52) rotate(133.66)"><tspan x="0" y="0">h</tspan></text>
    <text class="cls-6" transform="translate(599.11 545.35) rotate(135.03)"><tspan x="0" y="0">a</tspan></text>
    <text class="cls-6" transform="translate(594.4 550.04) rotate(136.13)"><tspan x="0" y="0">t</tspan></text>
    <text class="cls-6" transform="translate(590.63 553.65) rotate(137)"><tspan x="0" y="0"> </tspan></text>
    <text class="cls-6" transform="translate(587.65 556.41) rotate(137.8)"><tspan x="0" y="0">i</tspan></text>
    <text class="cls-6" transform="translate(584.25 559.5) rotate(138.77)"><tspan x="0" y="0">s</tspan></text>
    <text class="cls-6" transform="translate(579.87 563.31) rotate(139.69)"><tspan x="0" y="0"> </tspan></text>
    <text class="cls-6" transform="translate(576.78 565.95) rotate(140.79)"><tspan x="0" y="0">o</tspan></text>
    <text class="cls-6" transform="translate(570.73 570.87) rotate(142.26)"><tspan x="0" y="0">u</tspan></text>
    <text class="cls-6" transform="translate(564.45 575.69) rotate(143.48)"><tspan x="0" y="0">t</tspan></text>
    <text class="cls-6" transform="translate(560.25 578.79) rotate(144.51)"><tspan x="0" y="0">s</tspan></text>
    <text class="cls-6" transform="translate(555.54 582.14) rotate(145.47)"><tspan x="0" y="0">i</tspan></text>
    <text class="cls-6" transform="translate(551.75 584.76) rotate(146.62)"><tspan x="0" y="0">d</tspan></text>
    <text class="cls-6" transform="translate(545.35 588.95) rotate(147.97)"><tspan x="0" y="0">e</tspan></text>
    <text class="cls-6" transform="translate(539.62 592.51) rotate(148.98)"><tspan x="0" y="0"> </tspan></text>
    <text class="cls-6" transform="translate(536.12 594.61) rotate(149.85)"><tspan x="0" y="0">t</tspan></text>
    <text class="cls-6" transform="translate(531.65 597.21) rotate(151.09)"><tspan x="0" y="0">h</tspan></text>
    <text class="cls-6" transform="translate(524.58 601.1) rotate(152.48)"><tspan x="0" y="0">e</tspan></text>
    <text class="cls-6" transform="translate(518.56 604.21) rotate(153.49)"><tspan x="0" y="0"> </tspan></text>
    <text class="cls-6" transform="translate(514.93 606.02) rotate(154.26)"><tspan x="0" y="0"> </tspan></text>
    <text class="cls-6" transform="translate(511.3 607.81) rotate(155.74)"><tspan x="0" y="0">m</tspan></text>
    <text class="cls-6" transform="translate(500.61 612.56) rotate(157.46)"><tspan x="0" y="0">a</tspan></text>
    <text class="cls-6" transform="translate(494.49 615.11) rotate(158.86)"><tspan x="0" y="0">n</tspan></text>
    <text class="cls-6" transform="translate(486.77 618.07) rotate(160.31)"><tspan x="0" y="0">y</tspan></text>
    <text class="cls-6" transform="translate(480.1 620.43) rotate(161.36)"><tspan x="0" y="0"> </tspan></text>
    <text class="cls-6" transform="translate(476.25 621.73) rotate(162.29)"><tspan x="0" y="0">s</tspan></text>
    <text class="cls-6" transform="translate(470.72 623.49) rotate(163.58)"><tspan x="0" y="0">p</tspan></text>
    <text class="cls-6" transform="translate(463.22 625.69) rotate(165.07)"><tspan x="0" y="0">h</tspan></text>
    <text class="cls-6" transform="translate(455.42 627.75) rotate(166.47)"><tspan x="0" y="0">e</tspan></text>
    <text class="cls-6" transform="translate(448.85 629.32) rotate(167.68)"><tspan x="0" y="0">r</tspan></text>
    <text class="cls-6" transform="translate(442.92 630.61) rotate(168.88)"><tspan x="0" y="0">e</tspan></text>
    <text class="cls-6" transform="translate(436.29 631.89) rotate(170.06)"><tspan x="0" y="0">s</tspan></text>
    <text class="cls-6" transform="translate(430.56 632.88) rotate(170.99)"><tspan x="0" y="0"> </tspan></text>
    <text class="cls-6" transform="translate(426.57 633.52) rotate(172.1)"><tspan x="0" y="0">o</tspan></text>
    <text class="cls-6" transform="translate(418.82 634.57) rotate(173.3)"><tspan x="0" y="0">f</tspan></text>
    <text class="cls-6" transform="translate(413.8 635.15) rotate(174.16)"><tspan x="0" y="0"> </tspan></text>
    <text class="cls-6" transform="translate(409.78 635.56) rotate(175.02)"><tspan x="0" y="0">t</tspan></text>
    <text class="cls-6" transform="translate(404.61 636.02) rotate(176.25)"><tspan x="0" y="0">h</tspan></text>
    <text class="cls-6" transform="translate(396.52 636.53) rotate(177.63)"><tspan x="0" y="0">e</tspan></text>
    <text class="cls-6" transform="translate(389.77 636.79) rotate(178.62)"><tspan x="0" y="0"> </tspan></text>
    <text class="cls-6" transform="translate(385.71 636.87) rotate(179.07)"><tspan x="0" y="0">“</tspan></text>
    <text class="cls-6" transform="translate(380.59 636.92) rotate(-179.58)"><tspan x="0" y="0">I</tspan></text>
    <text class="cls-6" transform="translate(375.33 636.87) rotate(-178.63)"><tspan x="0" y="0">”</tspan></text>
  </g>
  <circle class="cls-2" cx="380.73" cy="330.74" r="293.78"/>
  <circle class="cls-3" cx="332.34" cy="636.2" r="4"/>
  <circle class="cls-3" cx="77.1" cy="365.84" r="4"/>
  <circle class="cls-3" cx="686.9" cy="342.77" r="4"/>
  <circle class="cls-3" cx="180.87" cy="98.45" r="4"/>
</svg>