<?xml version="1.0" encoding="utf-8"?>
<!-- Generator: Adobe Illustrator 26.0.2, SVG Export Plug-In . SVG Version: 6.00 Build 0)  -->
<svg version="1.1" id="Layer_1" xmlns="http://www.w3.org/2000/svg" xmlns:xlink="http://www.w3.org/1999/xlink" x="0px" y="0px"
	 viewBox="0 0 670 670" style="enable-background:new 0 0 670 670;" xml:space="preserve">
<style type="text/css">
	.st0{fill:#B18849;}
	.st1{fill:#FFFFFF;}
	.st2{fill:none;}
	.st3{font-family:'ArialMT';}
	.st4{font-size:12.73px;}
	.st5{font-size:12.7306px;}
	.st6{font-size:12.7296px;}
	.st7{font-size:12.7293px;}
	.st8{font-size:12.7305px;}
	.st9{font-size:12.7295px;}
	.st10{font-size:12.7308px;}
	.st11{font-size:12.7294px;}
	.st12{font-size:12.7304px;}
	.st13{font-size:12.7292px;}
	.st14{font-size:12.7307px;}
	.st15{fill:none;stroke:#FFFFFF;stroke-width:0.9;stroke-miterlimit:10;}
	.st16{fill:#464764;}
	.st17{font-size:11.4596px;}
	.st18{font-size:11.46px;}
	.st19{font-size:11.4606px;}
	.st20{font-size:11.4595px;}
	.st21{font-size:11.4594px;}
	.st22{font-size:11.4604px;}
	.st23{font-size:11.4605px;}
	.st24{font-size:11.4593px;}
	.st25{font-size:11.4597px;}
	.st26{font-size:11.4607px;}
	.st27{font-size:10.7695px;}
	.st28{font-size:10.77px;}
	.st29{font-size:10.7696px;}
	.st30{font-size:10.7704px;}
	.st31{font-size:10.7705px;}
	.st32{font-size:10.7694px;}
	.st33{font-size:10.7697px;}
	.st34{font-size:10.7693px;}
	.st35{font-size:10.7706px;}
	.st36{font-size:10.7703px;}
	.st37{font-size:10.1405px;}
	.st38{font-size:10.14px;}
	.st39{font-size:10.1395px;}
	.st40{font-size:11.41px;}
	.st41{font-size:11.4096px;}
	.st42{font-size:11.4095px;}
	.st43{font-size:11.4106px;}
	.st44{font-size:11.4104px;}
	.st45{font-size:11.4105px;}
	.st46{font-size:11.4093px;}
	.st47{font-size:11.4094px;}
	.st48{font-size:10.1404px;}
	.st49{font-size:10.1397px;}
	.st50{font-size:10.1396px;}
	.st51{fill:none;stroke:#FFFFFF;stroke-miterlimit:10;stroke-dasharray:0,0,2,2;}
	.st52{opacity:0.47;fill:#8C95B1;enable-background:new    ;}
</style>
<g id="uuid-b7ad94af-3f71-44df-955e-feeb0a65d14e">
	<circle class="st0" cx="335" cy="335" r="335"/>
</g>
<g id="uuid-a455832d-789f-48ba-9c2c-e7d4e3d7bf5d">
	<path class="st1" d="M332,174c-88.3,0-159.9,71.6-159.9,159.9S243.7,493.8,332,493.8s159.9-71.6,159.9-159.9S420.3,174,332,174z
		 M332,471.6c-76,0-137.7-61.7-137.7-137.7S256,196.2,332,196.2s137.7,61.7,137.7,137.7S408,471.6,332,471.6z"/>
	<rect x="25.1" y="27.1" class="st2" width="613.7" height="613.7"/>
	<g>
		<text transform="matrix(-0.9429 -0.333 0.333 -0.9429 242.4764 601.9651)" class="st1 st3 st4">a</text>
		<text transform="matrix(-0.9335 -0.3587 0.3587 -0.9335 236.9443 600.0346)" class="st1 st3 st5">w</text>
		<text transform="matrix(-0.9233 -0.384 0.384 -0.9233 227.8945 596.5167)" class="st1 st3 st6">a</text>
		<text transform="matrix(-0.9157 -0.4019 0.4019 -0.9157 222.4866 594.267)" class="st1 st3 st4">r</text>
		<text transform="matrix(-0.9076 -0.4199 0.4199 -0.9076 217.6252 592.1263)" class="st1 st3 st4">e</text>
		<text transform="matrix(-0.8944 -0.4473 0.4473 -0.8944 209.126 588.1052)" class="st1 st3 st4">t</text>
		<text transform="matrix(-0.8851 -0.4655 0.4655 -0.8851 205.0838 586.095)" class="st1 st3 st5">h</text>
		<text transform="matrix(-0.8742 -0.4856 0.4856 -0.8742 198.7263 582.7362)" class="st1 st3 st4">a</text>
		<text transform="matrix(-0.8652 -0.5014 0.5014 -0.8652 193.6253 579.8975)" class="st1 st3 st4">t</text>
		<text transform="matrix(-0.8463 -0.5327 0.5327 -0.8463 186.755 575.8755)" class="st1 st3 st4">N</text>
		<text transform="matrix(-0.8316 -0.5554 0.5554 -0.8316 178.6861 570.7652)" class="st1 st3 st4">a</text>
		<text transform="matrix(-0.8213 -0.5704 0.5704 -0.8213 173.8063 567.4879)" class="st1 st3 st7">t</text>
		<text transform="matrix(-0.8097 -0.5868 0.5868 -0.8097 170.106 564.9277)" class="st1 st3 st4">u</text>
		<text transform="matrix(-0.7968 -0.6042 0.6042 -0.7968 164.4365 560.8053)" class="st1 st3 st4">r</text>
		<text transform="matrix(-0.7847 -0.6199 0.6199 -0.7847 160.2058 557.5872)" class="st1 st3 st4">e</text>
		<text transform="matrix(-0.766 -0.6428 0.6428 -0.766 152.8658 551.6957)" class="st1 st3 st4">i</text>
		<text transform="matrix(-0.7557 -0.6549 0.6549 -0.7557 149.8256 549.1461)" class="st1 st3 st4">s</text>
		<text transform="matrix(-0.7365 -0.6765 0.6765 -0.7365 143.4272 543.5167)" class="st1 st3 st8">t</text>
		<text transform="matrix(-0.7227 -0.6911 0.6911 -0.7227 140.1159 540.4871)" class="st1 st3 st9">o</text>
		<text transform="matrix(-0.6967 -0.7174 0.7174 -0.6967 132.656 533.248)" class="st1 st3 st4">u</text>
		<text transform="matrix(-0.6812 -0.7321 0.7321 -0.6812 127.7657 528.1857)" class="st1 st3 st4">s</text>
		<text transform="matrix(-0.6596 -0.7516 0.7516 -0.6596 122.0158 521.9067)" class="st1 st3 st4">t</text>
		<text transform="matrix(-0.6439 -0.7651 0.7651 -0.6439 119.0258 518.5247)" class="st1 st3 st4">h</text>
		<text transform="matrix(-0.6259 -0.7799 0.7799 -0.6259 114.4258 513.0257)" class="st1 st3 st4">e</text>
		<text transform="matrix(-0.5978 -0.8017 0.8017 -0.5978 108.6054 505.6751)" class="st1 st3 st5">n</text>
		<text transform="matrix(-0.5787 -0.8155 0.8155 -0.5787 104.2257 499.7768)" class="st1 st3 st6">a</text>
		<text transform="matrix(-0.5547 -0.8321 0.8321 -0.5547 100.8055 495.0062)" class="st1 st3 st8">m</text>
		<text transform="matrix(-0.5304 -0.8478 0.8478 -0.5304 95.0158 486.2477)" class="st1 st3 st5">e</text>
		<text transform="matrix(-0.5135 -0.8581 0.8581 -0.5135 91.8657 481.1875)" class="st1 st3 st4">s</text>
		<text transform="matrix(-0.4804 -0.8771 0.8771 -0.4804 87.5259 473.8873)" class="st1 st3 st5">w</text>
		<text transform="matrix(-0.4559 -0.89 0.89 -0.4559 82.8858 465.3473)" class="st1 st3 st10">e</text>
		<text transform="matrix(-0.4251 -0.9051 0.9051 -0.4251 78.6658 456.9448)" class="st1 st3 st9">g</text>
		<text transform="matrix(-0.4085 -0.9128 0.9128 -0.4085 75.9158 451.0564)" class="st1 st3 st8">i</text>
		<text transform="matrix(-0.3912 -0.9203 0.9203 -0.3912 74.2958 447.4671)" class="st1 st3 st4">v</text>
		<text transform="matrix(-0.3707 -0.9287 0.9287 -0.3707 71.6866 441.276)" class="st1 st3 st11">e</text>
		<text transform="matrix(-0.3425 -0.9395 0.9395 -0.3425 68.2658 432.5178)" class="st1 st3 st4">t</text>
		<text transform="matrix(-0.3236 -0.9462 0.9462 -0.3236 66.7058 428.2768)" class="st1 st3 st4">o</text>
		<text transform="matrix(-0.3034 -0.9529 0.9529 -0.3034 63.4658 418.4267)" class="st1 st3 st12">h</text>
		<text transform="matrix(-0.2672 -0.9636 0.9636 -0.2672 61.3554 411.5583)" class="st1 st3 st9">e</text>
		<text transform="matrix(-0.2484 -0.9687 0.9687 -0.2484 59.7758 405.8156)" class="st1 st3 st8">r</text>
		<text transform="matrix(5.111587e-02 -0.9987 0.9987 5.111587e-02 50.4758 321.7355)" class="st1 st3 st4">k</text>
		<text transform="matrix(7.602295e-02 -0.9971 0.9971 7.602295e-02 50.8258 314.9859)" class="st1 st3 st4">n</text>
		<text transform="matrix(0.1012 -0.9949 0.9949 0.1012 51.3959 307.6863)" class="st1 st3 st12">o</text>
		<text transform="matrix(0.1305 -0.9914 0.9914 0.1305 52.0864 300.7965)" class="st1 st3 st11">w</text>
		<text transform="matrix(0.1544 -0.988 0.988 0.1544 53.3858 291.1769)" class="st1 st3 st4">i</text>
		<text transform="matrix(0.174 -0.9847 0.9847 0.174 53.9853 287.2669)" class="st1 st3 st11">n</text>
		<text transform="matrix(0.1982 -0.9802 0.9802 0.1982 55.2868 280.0263)" class="st1 st3 st8">g</text>
		<text transform="matrix(0.2375 -0.9714 0.9714 0.2375 57.296 270.3165)" class="st1 st3 st4">N</text>
		<text transform="matrix(0.2639 -0.9646 0.9646 0.2639 59.5958 261.0364)" class="st1 st3 st5">a</text>
		<text transform="matrix(0.2813 -0.9596 0.9596 0.2813 61.1458 255.4063)" class="st1 st3 st4">t</text>
		<text transform="matrix(0.3007 -0.9537 0.9537 0.3007 62.4157 251.0763)" class="st1 st3 st4">u</text>
		<text transform="matrix(0.3213 -0.947 0.947 0.3213 64.5359 244.3869)" class="st1 st3 st4">r</text>
		<text transform="matrix(0.3399 -0.9405 0.9405 0.3399 66.2457 239.3467)" class="st1 st3 st8">e</text>
		<text transform="matrix(0.3675 -0.93 0.93 0.3675 69.5259 230.5065)" class="st1 st3 st4">i</text>
		<text transform="matrix(0.3822 -0.9241 0.9241 0.3822 70.9758 226.8465)" class="st1 st3 st4">s</text>
		<text transform="matrix(0.4109 -0.9117 0.9117 0.4109 74.2858 218.9865)" class="st1 st3 st4">a</text>
		<text transform="matrix(0.4261 -0.9047 0.9047 0.4261 76.7058 213.647)" class="st1 st3 st4">l</text>
		<text transform="matrix(0.4379 -0.899 0.899 0.4379 78.2956 210.2765)" class="st1 st3 st4">l</text>
		<text transform="matrix(0.4652 -0.8852 0.8852 0.4652 81.4858 203.8266)" class="st1 st3 st4">b</text>
		<text transform="matrix(0.4863 -0.8738 0.8738 0.4863 84.6456 197.8264)" class="st1 st3 st4">u</text>
		<text transform="matrix(0.5039 -0.8637 0.8637 0.5039 88.0757 191.6871)" class="st1 st3 st7">t</text>
		<text transform="matrix(0.532 -0.8468 0.8468 0.532 92.1257 184.8364)" class="st1 st3 st5">n</text>
		<text transform="matrix(0.553 -0.8332 0.8332 0.553 96.0359 178.6261)" class="st1 st3 st4">o</text>
		<text transform="matrix(0.5696 -0.8219 0.8219 0.5696 99.8956 172.8463)" class="st1 st3 st4">t</text>
		<text transform="matrix(0.5943 -0.8043 0.8043 0.5943 104.466 166.3457)" class="st1 st3 st5">e</text>
		<text transform="matrix(0.6129 -0.7902 0.7902 0.6129 107.9958 161.5667)" class="st1 st3 st12">n</text>
		<text transform="matrix(0.6323 -0.7747 0.7747 0.6323 112.5159 155.756)" class="st1 st3 st4">d</text>
		<text transform="matrix(0.6464 -0.763 0.763 0.6464 116.806 150.5263)" class="st1 st3 st4">l</text>
		<text transform="matrix(0.6593 -0.7518 0.7518 0.6593 119.2147 147.6755)" class="st1 st3 st13">e</text>
		<text transform="matrix(0.6738 -0.7389 0.7389 0.6738 123.1256 143.2257)" class="st1 st3 st4">s</text>
		<text transform="matrix(0.6868 -0.7268 0.7268 0.6868 126.5658 139.4758)" class="st1 st3 st6">s</text>
		<text transform="matrix(0.8449 -0.5349 0.5349 0.8449 178.2457 95.0464)" class="st1 st3 st4">r</text>
		<text transform="matrix(0.8559 -0.5171 0.5171 0.8559 183.0058 92.0462)" class="st1 st3 st4">e</text>
		<text transform="matrix(0.8663 -0.4995 0.4995 0.8663 188.376 88.8167)" class="st1 st3 st4">s</text>
		<text transform="matrix(0.8751 -0.4839 0.4839 0.8751 193.0358 86.1465)" class="st1 st3 st4">t</text>
		<text transform="matrix(0.8839 -0.4676 0.4676 0.8839 197.2663 83.8069)" class="st1 st3 st9">r</text>
		<text transform="matrix(0.8944 -0.4473 0.4473 0.8944 202.2357 81.1763)" class="st1 st3 st4">u</text>
		<text transform="matrix(0.9047 -0.4261 0.4261 0.9047 208.8258 77.9063)" class="st1 st3 st4">c</text>
		<text transform="matrix(0.9126 -0.4088 0.4088 0.9126 214.2057 75.3864)" class="st1 st3 st4">t</text>
		<text transform="matrix(0.9212 -0.3891 0.3891 0.9212 218.5958 73.4165)" class="st1 st3 st4">u</text>
		<text transform="matrix(0.9299 -0.3678 0.3678 0.9299 225.3759 70.5763)" class="st1 st3 st4">r</text>
		<text transform="matrix(0.9362 -0.3514 0.3514 0.9362 230.6158 68.5164)" class="st1 st3 st4">i</text>
		<text transform="matrix(0.9435 -0.3315 0.3315 0.9435 234.6254 67.0066)" class="st1 st3 st8">n</text>
		<text transform="matrix(0.9516 -0.3072 0.3072 0.9516 241.8456 64.486)" class="st1 st3 st9">g</text>
		<text transform="matrix(0.9573 -0.289 0.289 0.9573 248.3357 62.4165)" class="st1 st3 st4">,</text>
		<text transform="matrix(0.9657 -0.2598 0.2598 0.9657 255.6957 60.2563)" class="st1 st3 st8">r</text>
		<text transform="matrix(0.9709 -0.2394 0.2394 0.9709 261.1358 58.7964)" class="st1 st3 st4">e</text>
		<text transform="matrix(0.9763 -0.2166 0.2166 0.9763 267.1963 57.3066)" class="st1 st3 st8">v</text>
		<text transform="matrix(0.9804 -0.197 0.197 0.9804 274.0958 55.8065)" class="st1 st3 st4">i</text>
		<text transform="matrix(0.9836 -0.1802 0.1802 0.9836 278.2757 54.9664)" class="st1 st3 st4">s</text>
		<text transform="matrix(0.9866 -0.1633 0.1633 0.9866 283.5759 54.0064)" class="st1 st3 st4">i</text>
		<text transform="matrix(0.9897 -0.1433 0.1433 0.9897 287.7858 53.3063)" class="st1 st3 st4">o</text>
		<text transform="matrix(0.9931 -0.1174 0.1174 0.9931 294.9458 52.2765)" class="st1 st3 st4">n</text>
		<text transform="matrix(0.9953 -9.637133e-02 9.637133e-02 0.9953 302.5762 51.4069)" class="st1 st3 st11">i</text>
		<text transform="matrix(0.9971 -7.567734e-02 7.567734e-02 0.9971 306.8058 50.9861)" class="st1 st3 st6">n</text>
		<text transform="matrix(0.9987 -5.041863e-02 5.041863e-02 0.9987 314.4458 50.4264)" class="st1 st3 st4">g</text>
		<text transform="matrix(0.9999 -1.483476e-02 1.483476e-02 0.9999 325.0258 49.9763)" class="st1 st3 st4">a</text>
		<text transform="matrix(0.9999 1.623034e-02 -1.623034e-02 0.9999 331.176 49.8662)" class="st1 st3 st12">n</text>
		<text transform="matrix(0.9994 3.437621e-02 -3.437621e-02 0.9994 338.8358 49.9763)" class="st1 st3 st4">d</text>
		<text transform="matrix(0.9976 6.958237e-02 -6.958237e-02 0.9976 349.6958 50.4364)" class="st1 st3 st4">r</text>
		<text transform="matrix(0.9959 9.045877e-02 -9.045877e-02 0.9959 355.3259 50.8364)" class="st1 st3 st4">e</text>
		<text transform="matrix(0.9941 0.1089 -0.1089 0.9941 361.5559 51.4264)" class="st1 st3 st5">i</text>
		<text transform="matrix(0.9916 0.1297 -0.1297 0.9916 365.796 51.8759)" class="st1 st3 st5">n</text>
		<text transform="matrix(0.9885 0.1513 -0.1513 0.9885 373.3857 52.8963)" class="st1 st3 st4">t</text>
		<text transform="matrix(0.9853 0.1706 -0.1706 0.9853 378.1455 53.6257)" class="st1 st3 st9">e</text>
		<text transform="matrix(0.9815 0.1913 -0.1913 0.9815 384.3159 54.7066)" class="st1 st3 st6">r</text>
		<text transform="matrix(0.9769 0.2137 -0.2137 0.9769 389.8457 55.7863)" class="st1 st3 st4">p</text>
		<text transform="matrix(0.9718 0.236 -0.236 0.9718 396.9362 57.3562)" class="st1 st3 st5">r</text>
		<text transform="matrix(0.9665 0.2565 -0.2565 0.9665 402.4159 58.6965)" class="st1 st3 st14">e</text>
		<text transform="matrix(0.9614 0.2753 -0.2753 0.9614 408.4562 60.3169)" class="st1 st3 st8">t</text>
		<text transform="matrix(0.9568 0.2909 -0.2909 0.9568 413.1153 61.6561)" class="st1 st3 st5">i</text>
		<text transform="matrix(0.9504 0.311 -0.311 0.9504 417.1759 62.8864)" class="st1 st3 st4">n</text>
		<text transform="matrix(0.9421 0.3353 -0.3353 0.9421 424.4556 65.2863)" class="st1 st3 st4">g</text>
		<text transform="matrix(0.9268 0.3756 -0.3756 0.9268 434.3856 68.8862)" class="st1 st3 st4">w</text>
		<text transform="matrix(0.9147 0.4042 -0.4042 0.9147 443.6558 72.6866)" class="st1 st3 st4">h</text>
		<text transform="matrix(0.9046 0.4263 -0.4263 0.9046 450.526 75.7363)" class="st1 st3 st4">a</text>
		<text transform="matrix(0.8962 0.4437 -0.4437 0.8962 456.0956 78.3864)" class="st1 st3 st4">t</text>
		<text transform="matrix(0.8779 0.4788 -0.4788 0.8779 463.7758 82.2363)" class="st1 st3 st4">w</text>
		<text transform="matrix(0.8638 0.5038 -0.5038 0.8638 472.5558 87.0664)" class="st1 st3 st4">e</text>
		<text transform="matrix(0.8445 0.5355 -0.5355 0.8445 481.176 92.1865)" class="st1 st3 st4">u</text>
		<text transform="matrix(0.8301 0.5576 -0.5576 0.8301 487.3561 96.1163)" class="st1 st3 st4">n</text>
		<text transform="matrix(0.8153 0.579 -0.579 0.8153 493.7054 100.3964)" class="st1 st3 st4">d</text>
		<text transform="matrix(0.8016 0.5979 -0.5979 0.8016 499.4761 104.5164)" class="st1 st3 st4">e</text>
		<text transform="matrix(0.7889 0.6146 -0.6146 0.7889 504.5058 108.2762)" class="st1 st3 st5">r</text>
		<text transform="matrix(0.7769 0.6296 -0.6296 0.7769 508.9359 111.7463)" class="st1 st3 st4">s</text>
		<text transform="matrix(0.7655 0.6435 -0.6435 0.7655 513.1152 115.146)" class="st1 st3 st8">t</text>
		<text transform="matrix(0.753 0.658 -0.658 0.753 516.7957 118.2466)" class="st1 st3 st4">a</text>
		<text transform="matrix(0.7369 0.676 -0.676 0.7369 521.4457 122.3064)" class="st1 st3 st4">n</text>
		<text transform="matrix(0.7192 0.6948 -0.6948 0.7192 527.086 127.4965)" class="st1 st3 st4">d</text>
		<text transform="matrix(0.6934 0.7206 -0.7206 0.6934 534.8356 135.1157)" class="st1 st3 st12">a</text>
		<text transform="matrix(0.6787 0.7344 -0.7344 0.6787 539.1061 139.5763)" class="st1 st3 st4">s</text>
		<text transform="matrix(0.6521 0.7581 -0.7581 0.6521 545.2554 146.3266)" class="st1 st3 st4">h</text>
		<text transform="matrix(0.6322 0.7748 -0.7748 0.6322 550.1459 152.0364)" class="st1 st3 st4">u</text>
		<text transform="matrix(0.6072 0.7945 -0.7945 0.6072 554.7765 157.6864)" class="st1 st3 st9">m</text>
		<text transform="matrix(0.5833 0.8123 -0.8123 0.5833 561.326 166.3373)" class="st1 st3 st12">a</text>
		<text transform="matrix(0.5632 0.8263 -0.8263 0.5632 564.9252 171.3463)" class="st1 st3 st4">n</text>
		<text transform="matrix(0.5442 0.839 -0.839 0.5442 569.2252 177.6971)" class="st1 st3 st8">s</text>
		<text transform="matrix(0.5305 0.8477 -0.8477 0.5305 572.1355 182.2164)" class="st1 st3 st4">,</text>
		<text transform="matrix(0.4983 0.867 -0.867 0.4983 576.1657 188.7261)" class="st1 st3 st4">N</text>
		<text transform="matrix(0.4736 0.8807 -0.8807 0.4736 581.056 197.2967)" class="st1 st3 st6">a</text>
		<text transform="matrix(0.4563 0.8898 -0.8898 0.4563 583.9758 202.7564)" class="st1 st3 st4">t</text>
		<text transform="matrix(0.4371 0.8994 -0.8994 0.4371 586.1765 207.0363)" class="st1 st3 st4">u</text>
		<text transform="matrix(0.4164 0.9092 -0.9092 0.4164 589.3553 213.6264)" class="st1 st3 st4">r</text>
		<text transform="matrix(0.3971 0.9178 -0.9178 0.3971 591.706 218.7664)" class="st1 st3 st4">e</text>
		<text transform="matrix(0.3646 0.9312 -0.9312 0.3646 595.6049 227.9971)" class="st1 st3 st12">a</text>
		<text transform="matrix(0.3415 0.9399 -0.9399 0.3415 597.8564 233.7464)" class="st1 st3 st4">n</text>
		<text transform="matrix(0.3168 0.9485 -0.9485 0.3168 600.4558 240.9465)" class="st1 st3 st4">d</text>
		<text transform="matrix(0.2838 0.9589 -0.9589 0.2838 603.8052 251.2964)" class="st1 st3 st4">t</text>
		<text transform="matrix(0.2629 0.9648 -0.9648 0.2629 605.1761 255.9064)" class="st1 st3 st4">h</text>
		<text transform="matrix(0.2392 0.971 -0.971 0.2392 607.1359 263.1565)" class="st1 st3 st4">e</text>
		<text transform="matrix(0.2016 0.9795 -0.9795 0.2016 609.4562 272.896)" class="st1 st3 st12">E</text>
		<text transform="matrix(0.1769 0.9842 -0.9842 0.1769 611.0458 280.7462)" class="st1 st3 st4">a</text>
		<text transform="matrix(0.1564 0.9877 -0.9877 0.1564 612.1353 286.8363)" class="st1 st3 st4">r</text>
		<text transform="matrix(0.1381 0.9904 -0.9904 0.1381 612.9961 292.3964)" class="st1 st3 st4">t</text>
		<text transform="matrix(0.1167 0.9932 -0.9932 0.1167 613.6649 297.1657)" class="st1 st3 st12">h</text>
		<text transform="matrix(-0.2083 0.9781 -0.9781 -0.2083 610.277 391.0665)" class="st1 st3 st12">r</text>
		<text transform="matrix(-0.2287 0.9735 -0.9735 -0.2287 609.0956 396.5564)" class="st1 st3 st4">e</text>
		<text transform="matrix(-0.2489 0.9685 -0.9685 -0.2489 607.6458 402.6564)" class="st1 st3 st4">s</text>
		<text transform="matrix(-0.2662 0.9639 -0.9639 -0.2662 606.3062 407.8665)" class="st1 st3 st4">t</text>
		<text transform="matrix(-0.285 0.9585 -0.9585 -0.285 605.0142 412.5165)" class="st1 st3 st4">a</text>
		<text transform="matrix(-0.3075 0.9515 -0.9515 -0.3075 603.2549 418.4156)" class="st1 st3 st11">b</text>
		<text transform="matrix(-0.3262 0.9453 -0.9453 -0.3262 601.0369 425.1866)" class="st1 st3 st4">l</text>
		<text transform="matrix(-0.3402 0.9403 -0.9403 -0.3402 599.7169 429.006)" class="st1 st3 st11">i</text>
		<text transform="matrix(-0.3562 0.9344 -0.9344 -0.3562 598.2553 433.0265)" class="st1 st3 st4">s</text>
		<text transform="matrix(-0.3775 0.926 -0.926 -0.3775 596.3459 438.0565)" class="st1 st3 st4">h</text>
		<text transform="matrix(-0.3968 0.9179 -0.9179 -0.3968 593.4771 445.0065)" class="st1 st3 st4">i</text>
		<text transform="matrix(-0.416 0.9094 -0.9094 -0.416 591.8062 448.8957)" class="st1 st3 st12">n</text>
		<text transform="matrix(-0.4392 0.8984 -0.8984 -0.4392 588.6072 455.8661)" class="st1 st3 st4">g</text>
		<text transform="matrix(-0.4705 0.8824 -0.8824 -0.4705 583.8663 465.3365)" class="st1 st3 st4">r</text>
		<text transform="matrix(-0.4889 0.8723 -0.8723 -0.4889 581.2242 470.286)" class="st1 st3 st6">e</text>
		<text transform="matrix(-0.5068 0.8621 -0.8621 -0.5068 578.1356 475.7665)" class="st1 st3 st12">s</text>
		<text transform="matrix(-0.5259 0.8505 -0.8505 -0.5259 575.4146 480.396)" class="st1 st3 st9">p</text>
		<text transform="matrix(-0.5458 0.8379 -0.8379 -0.5458 571.5849 486.5461)" class="st1 st3 st4">e</text>
		<text transform="matrix(-0.5638 0.8259 -0.8259 -0.5638 568.1569 491.7963)" class="st1 st3 st4">c</text>
		<text transform="matrix(-0.5793 0.8151 -0.8151 -0.5793 564.7847 496.7164)" class="st1 st3 st4">t</text>
		<text transform="matrix(-0.6033 0.7975 -0.7975 -0.6033 559.7447 503.6766)" class="st1 st3 st4">f</text>
		<text transform="matrix(-0.6199 0.7847 -0.7847 -0.6199 556.9344 507.4069)" class="st1 st3 st4">o</text>
		<text transform="matrix(-0.6374 0.7705 -0.7705 -0.6374 552.4362 513.066)" class="st1 st3 st4">r</text>
		<text transform="matrix(-0.6682 0.744 -0.744 -0.6682 546.3958 520.2861)" class="st1 st3 st4">w</text>
		<text transform="matrix(-0.6908 0.7231 -0.7231 -0.6908 539.6772 527.7258)" class="st1 st3 st8">h</text>
		<text transform="matrix(-0.7077 0.7065 -0.7065 -0.7077 534.487 533.117)" class="st1 st3 st4">a</text>
		<text transform="matrix(-0.7213 0.6926 -0.6926 -0.7213 530.106 537.4758)" class="st1 st3 st4">t</text>
		<text transform="matrix(-0.7412 0.6713 -0.6713 -0.7412 523.8368 543.3959)" class="st1 st3 st4">i</text>
		<text transform="matrix(-0.7524 0.6587 -0.6587 -0.7524 520.6745 546.2459)" class="st1 st3 st4">s</text>
		<text transform="matrix(-0.7752 0.6318 -0.6318 -0.7752 513.7437 552.226)" class="st1 st3 st14">o</text>
		<text transform="matrix(-0.791 0.6118 -0.6118 -0.791 508.135 556.7957)" class="st1 st3 st4">u</text>
		<text transform="matrix(-0.8039 0.5948 -0.5948 -0.8039 502.3067 561.2673)" class="st1 st3 st4">t</text>
		<text transform="matrix(-0.8144 0.5803 -0.5803 -0.8144 498.4356 564.1262)" class="st1 st3 st4">s</text>
		<text transform="matrix(-0.8241 0.5664 -0.5664 -0.8241 494.0364 567.2459)" class="st1 st3 st4">i</text>
		<text transform="matrix(-0.8353 0.5498 -0.5498 -0.8353 490.5162 569.666)" class="st1 st3 st4">d</text>
		<text transform="matrix(-0.848 0.5301 -0.5301 -0.848 484.5776 573.5565)" class="st1 st3 st14">e</text>
		<text transform="matrix(-0.8649 0.502 -0.502 -0.8649 476.0149 578.8062)" class="st1 st3 st4">t</text>
		<text transform="matrix(-0.8755 0.4831 -0.4831 -0.8755 471.8756 581.2155)" class="st1 st3 st7">h</text>
		<text transform="matrix(-0.887 0.4617 -0.4617 -0.887 465.3056 584.8267)" class="st1 st3 st6">e</text>
		<text transform="matrix(-0.9118 0.4106 -0.4106 -0.9118 452.9849 591.0357)" class="st1 st3 st4">m</text>
		<text transform="matrix(-0.9238 0.3828 -0.3828 -0.9238 443.0655 595.4463)" class="st1 st3 st4">a</text>
		<text transform="matrix(-0.9329 0.3602 -0.3602 -0.9329 437.3769 597.796)" class="st1 st3 st4">n</text>
		<text transform="matrix(-0.9417 0.3364 -0.3364 -0.9417 430.2265 600.546)" class="st1 st3 st4">y</text>
		<text transform="matrix(-0.9528 0.3037 -0.3037 -0.9528 420.4669 603.9379)" class="st1 st3 st12">s</text>
		<text transform="matrix(-0.9594 0.2822 -0.2822 -0.9594 415.325 605.5764)" class="st1 st3 st8">p</text>
		<text transform="matrix(-0.9664 0.2571 -0.2571 -0.9664 408.376 607.6055)" class="st1 st3 st4">h</text>
		<text transform="matrix(-0.9724 0.2334 -0.2334 -0.9724 401.1363 609.5161)" class="st1 st3 st4">e</text>
		<text transform="matrix(-0.9771 0.2129 -0.2129 -0.9771 395.0359 610.9671)" class="st1 st3 st4">r</text>
		<text transform="matrix(-0.9814 0.1922 -0.1922 -0.9814 389.5053 612.1675)" class="st1 st3 st5">e</text>
		<text transform="matrix(-0.9851 0.1719 -0.1719 -0.9851 383.356 613.3568)" class="st1 st3 st4">s</text>
		<text transform="matrix(-0.9906 0.1369 -0.1369 -0.9906 374.3362 614.8564)" class="st1 st3 st4">o</text>
		<text transform="matrix(-0.9932 0.116 -0.116 -0.9932 367.1463 615.8267)" class="st1 st3 st5">f</text>
		<text transform="matrix(-0.9963 8.628631e-02 -8.628631e-02 -0.9963 358.7571 616.7365)" class="st1 st3 st4">t</text>
		<text transform="matrix(-0.9979 6.488066e-02 -6.488066e-02 -0.9979 353.9552 617.1566)" class="st1 st3 st4">h</text>
		<text transform="matrix(-0.9992 4.100217e-02 -4.100217e-02 -0.9992 346.4755 617.6241)" class="st1 st3 st8">e</text>
		<text transform="matrix(-0.9999 1.623021e-02 -1.623021e-02 -0.9999 336.4153 617.9371)" class="st1 st3 st12">“</text>
		<text transform="matrix(-1 -7.853606e-03 7.853606e-03 -1 331.6856 617.9885)" class="st1 st3 st12">I</text>
		<text transform="matrix(-0.9997 -2.443207e-02 2.443207e-02 -0.9997 326.8056 617.9374)" class="st1 st3 st4">”</text>
	</g>
	<g>
		<line class="st15" x1="311" y1="491.5" x2="294.2" y2="603.9"/>
		<line class="st15" x1="357.5" y1="489.6" x2="374.6" y2="603.2"/>
		<line class="st15" x1="401.1" y1="474.7" x2="451.1" y2="579.2"/>
		<line class="st15" x1="439.6" y1="449.8" x2="517.1" y2="533.9"/>
		<line class="st15" x1="469.8" y1="411.7" x2="567.2" y2="471.6"/>
		<line class="st15" x1="487.4" y1="371.6" x2="597.1" y2="397.4"/>
		<line class="st15" x1="491.6" y1="325.1" x2="604.5" y2="317.7"/>
		<line class="st15" x1="478.4" y1="279.3" x2="587.6" y2="239.2"/>
		<line class="st15" x1="459.9" y1="237.9" x2="548.8" y2="168.8"/>
		<line class="st15" x1="426.1" y1="205" x2="491" y2="112.6"/>
		<line class="st15" x1="383.2" y1="185.7" x2="419" y2="75.7"/>
		<line class="st15" x1="337.2" y1="175.5" x2="339.2" y2="61.4"/>
		<line class="st15" x1="289.7" y1="180.1" x2="258.6" y2="72"/>
		<line class="st15" x1="245.7" y1="199.3" x2="184.2" y2="104.9"/>
		<line class="st15" x1="209.5" y1="231.1" x2="122.8" y2="159.2"/>
		<line class="st15" x1="186.6" y1="273.3" x2="80.5" y2="228.7"/>
		<line class="st15" x1="172.7" y1="319.1" x2="61.7" y2="307.9"/>
		<line class="st15" x1="178.1" y1="366.6" x2="65.7" y2="389.1"/>
		<line class="st15" x1="192.5" y1="412" x2="93.2" y2="465.5"/>
		<line class="st15" x1="222.8" y1="448.6" x2="142.6" y2="529.9"/>
		<line class="st15" x1="261" y1="476" x2="208.4" y2="576.9"/>
	</g>
	<text transform="matrix(0.2473 -0.9689 0.9689 0.2473 190.6059 299.8274)" class="st16 st3 st17">s</text>
	<text transform="matrix(0.284 -0.9588 0.9588 0.284 191.7157 295.4264)" class="st16 st3 st18">h</text>
	<text transform="matrix(0.3226 -0.9465 0.9465 0.3226 193.5652 289.2655)" class="st16 st3 st17">a</text>
	<text transform="matrix(0.3598 -0.933 0.933 0.3598 195.2559 284.3161)" class="st16 st3 st18">p</text>
	<text transform="matrix(0.3912 -0.9203 0.9203 0.3912 197.5258 278.5063)" class="st16 st3 st18">i</text>
	<text transform="matrix(0.4231 -0.9061 0.9061 0.4231 198.8858 275.2663)" class="st16 st3 st18">n</text>
	<text transform="matrix(0.4613 -0.8873 0.8873 0.4613 201.6757 269.3256)" class="st16 st3 st19">g</text>
	<text transform="matrix(0.5232 -0.8522 0.8522 0.5232 205.846 261.4762)" class="st16 st3 st18">w</text>
	<text transform="matrix(0.5635 -0.8261 0.8261 0.5635 210.4557 254.0769)" class="st16 st3 st18">a</text>
	<text transform="matrix(0.5938 -0.8046 0.8046 0.5938 213.4157 249.7467)" class="st16 st3 st18">y</text>
	<text transform="matrix(0.6213 -0.7836 0.7836 0.6213 216.7458 245.2662)" class="st16 st3 st18">s</text>
	<text transform="matrix(0.6656 -0.7463 0.7463 0.6656 221.5458 239.3365)" class="st16 st3 st18">o</text>
	<text transform="matrix(0.691 -0.7228 0.7228 0.691 225.7061 234.7164)" class="st16 st3 st20">f</text>
	<text transform="matrix(0.7298 -0.6837 0.6837 0.7298 230.5657 229.7268)" class="st16 st3 st18">d</text>
	<text transform="matrix(0.7578 -0.6525 0.6525 0.7578 234.9959 225.5862)" class="st16 st3 st18">o</text>
	<text transform="matrix(0.7791 -0.6269 0.6269 0.7791 239.7458 221.5464)" class="st16 st3 st18">i</text>
	<text transform="matrix(0.8004 -0.5994 0.5994 0.8004 242.4657 219.3369)" class="st16 st3 st20">n</text>
	<text transform="matrix(0.8251 -0.565 0.565 0.8251 247.7557 215.3966)" class="st16 st3 st18">g</text>
	<text transform="matrix(0.8572 -0.515 0.515 0.8572 255.1658 210.4562)" class="st16 st3 st18">a</text>
	<text transform="matrix(0.8774 -0.4798 0.4798 0.8774 259.646 207.7666)" class="st16 st3 st18">n</text>
	<text transform="matrix(0.8973 -0.4413 0.4413 0.8973 265.4052 204.6361)" class="st16 st3 st21">d</text>
	<text transform="matrix(0.927 -0.3751 0.3751 0.927 273.6759 200.6563)" class="st16 st3 st18">w</text>
	<text transform="matrix(0.944 -0.33 0.33 0.944 281.7459 197.4564)" class="st16 st3 st18">a</text>
	<text transform="matrix(0.9557 -0.2944 0.2944 0.9557 286.6858 195.7263)" class="st16 st3 st18">y</text>
	<text transform="matrix(0.9654 -0.2607 0.2607 0.9654 292.0458 194.0963)" class="st16 st3 st18">s</text>
	<text transform="matrix(0.9784 -0.2067 0.2067 0.9784 299.4458 192.1964)" class="st16 st3 st18">a</text>
	<text transform="matrix(0.986 -0.1668 0.1668 0.986 304.5558 191.1163)" class="st16 st3 st18">n</text>
	<text transform="matrix(0.9923 -0.1238 0.1238 0.9923 311.0358 190.0364)" class="st16 st3 st18">d</text>
	<text transform="matrix(0.9975 -7.062699e-02 7.062699e-02 0.9975 320.1658 189.0263)" class="st16 st3 st18">l</text>
	<text transform="matrix(0.9989 -4.728079e-02 4.728079e-02 0.9989 323.4858 188.7963)" class="st16 st3 st18">i</text>
	<text transform="matrix(0.9999 -1.623034e-02 1.623034e-02 0.9999 327.0157 188.6258)" class="st16 st3 st22">v</text>
	<text transform="matrix(0.9998 1.745324e-02 -1.745324e-02 0.9998 333.0465 188.5564)" class="st16 st3 st20">i</text>
	<text transform="matrix(0.9987 5.163701e-02 -5.163701e-02 0.9987 336.5652 188.606)" class="st16 st3 st22">n</text>
	<text transform="matrix(0.9956 9.376080e-02 -9.376080e-02 0.9956 343.1358 188.9563)" class="st16 st3 st18">g</text>
	<text transform="matrix(0.989 0.148 -0.148 0.989 351.9958 189.9164)" class="st16 st3 st18">f</text>
	<text transform="matrix(0.9833 0.1822 -0.1822 0.9833 355.8256 190.4765)" class="st16 st3 st22">o</text>
	<text transform="matrix(0.9757 0.2193 -0.2193 0.9757 361.9356 191.6361)" class="st16 st3 st21">r</text>
	<text transform="matrix(0.9008 0.4343 -0.4343 0.9008 392.8557 201.8665)" class="st16 st3 st18">e</text>
	<text transform="matrix(0.8822 0.4709 -0.4709 0.8822 397.6457 204.1662)" class="st16 st3 st18">n</text>
	<text transform="matrix(0.8623 0.5063 -0.5063 0.8623 403.4362 207.2863)" class="st16 st3 st21">a</text>
	<text transform="matrix(0.842 0.5395 -0.5395 0.842 407.9558 209.9466)" class="st16 st3 st18">b</text>
	<text transform="matrix(0.824 0.5666 -0.5666 0.824 413.0657 213.2563)" class="st16 st3 st18">l</text>
	<text transform="matrix(0.8105 0.5858 -0.5858 0.8105 415.826 215.1571)" class="st16 st3 st22">i</text>
	<text transform="matrix(0.7897 0.6135 -0.6135 0.7897 418.6858 217.2063)" class="st16 st3 st18">n</text>
	<text transform="matrix(0.763 0.6464 -0.6464 0.763 423.8657 221.2563)" class="st16 st3 st18">g</text>
	<text transform="matrix(0.7213 0.6926 -0.6926 0.7213 430.5961 227.0862)" class="st16 st3 st18">o</text>
	<text transform="matrix(0.6948 0.7192 -0.7192 0.6948 435.076 231.4264)" class="st16 st3 st18">r</text>
	<text transform="matrix(0.6431 0.7658 -0.7658 0.6431 440.4753 237.0762)" class="st16 st3 st18">m</text>
	<text transform="matrix(0.6036 0.7973 -0.7973 0.6036 446.4964 244.3464)" class="st16 st3 st18">e</text>
	<text transform="matrix(0.572 0.8203 -0.8203 0.572 449.7154 248.5961)" class="st16 st3 st22">d</text>
	<text transform="matrix(0.5448 0.8386 -0.8386 0.5448 453.1559 253.5863)" class="st16 st3 st18">i</text>
	<text transform="matrix(0.5192 0.8546 -0.8546 0.5192 455.0759 256.5363)" class="st16 st3 st20">a</text>
	<text transform="matrix(0.4915 0.8709 -0.8709 0.4915 457.7964 261.0465)" class="st16 st3 st18">t</text>
	<text transform="matrix(0.4687 0.8834 -0.8834 0.4687 459.7748 264.5768)" class="st16 st3 st22">i</text>
	<text transform="matrix(0.4377 0.8991 -0.8991 0.4377 461.4363 267.6663)" class="st16 st3 st18">n</text>
	<text transform="matrix(0.3987 0.9171 -0.9171 0.3987 464.306 273.5962)" class="st16 st3 st18">g</text>
	<text transform="matrix(0.344 0.939 -0.939 0.344 467.7455 281.8063)" class="st16 st3 st18">c</text>
	<text transform="matrix(0.3072 0.9516 -0.9516 0.3072 469.476 286.5261)" class="st16 st3 st20">o</text>
	<text transform="matrix(0.2553 0.9669 -0.9669 0.2553 471.4062 292.4065)" class="st16 st3 st22">m</text>
	<text transform="matrix(0.2026 0.9793 -0.9793 0.2026 473.7554 301.5362)" class="st16 st3 st22">p</text>
	<text transform="matrix(0.17 0.9854 -0.9854 0.17 474.9957 307.6666)" class="st16 st3 st20">l</text>
	<text transform="matrix(0.1406 0.9901 -0.9901 0.1406 475.5642 310.9467)" class="st16 st3 st22">e</text>
	<text transform="matrix(0.103 0.9947 -0.9947 0.103 476.3063 316.1964)" class="st16 st3 st18">x</text>
	<text transform="matrix(4.117615e-02 0.9992 -0.9992 4.117615e-02 477.1163 324.9964)" class="st16 st3 st19">p</text>
	<text transform="matrix(1.623035e-02 0.9999 -0.9999 1.623035e-02 477.3154 331.1963)" class="st16 st3 st22">r</text>
	<text transform="matrix(-3.297928e-02 0.9995 -0.9995 -3.297928e-02 477.366 335.9764)" class="st16 st3 st23">o</text>
	<text transform="matrix(-7.114686e-02 0.9975 -0.9975 -7.114686e-02 477.1441 342.1763)" class="st16 st3 st22">c</text>
	<text transform="matrix(-0.1066 0.9943 -0.9943 -0.1066 476.7754 347.2161)" class="st16 st3 st18">e</text>
	<text transform="matrix(-0.1402 0.9901 -0.9901 -0.1402 476.1971 352.5063)" class="st16 st3 st18">s</text>
	<text transform="matrix(-0.1711 0.9853 -0.9853 -0.1711 475.5456 356.9962)" class="st16 st3 st23">s</text>
	<text transform="matrix(-0.2043 0.9789 -0.9789 -0.2043 474.7741 361.4363)" class="st16 st3 st18">e</text>
	<text transform="matrix(-0.2377 0.9713 -0.9713 -0.2377 473.6768 366.6567)" class="st16 st3 st17">s</text>
	<text transform="matrix(-0.2867 0.958 -0.958 -0.2867 471.7559 374.0666)" class="st16 st3 st18">f</text>
	<text transform="matrix(-0.3198 0.9475 -0.9475 -0.3198 470.6647 377.7565)" class="st16 st3 st18">o</text>
	<text transform="matrix(-0.3558 0.9346 -0.9346 -0.3558 468.6461 383.6563)" class="st16 st3 st22">r</text>
	<text transform="matrix(-0.5376 0.8432 -0.8432 -0.5376 455.7873 410.2064)" class="st16 st3 st18">r</text>
	<text transform="matrix(-0.5666 0.824 -0.824 -0.5666 453.2268 414.2165)" class="st16 st3 st18">e</text>
	<text transform="matrix(-0.5997 0.8002 -0.8002 -0.5997 450.215 418.606)" class="st16 st3 st18">n</text>
	<text transform="matrix(-0.6337 0.7736 -0.7736 -0.6337 446.2648 423.8464)" class="st16 st3 st18">d</text>
	<text transform="matrix(-0.6633 0.7484 -0.7484 -0.6633 442.4052 428.5367)" class="st16 st3 st22">e</text>
	<text transform="matrix(-0.6856 0.728 -0.728 -0.6856 438.8555 432.4957)" class="st16 st3 st18">i</text>
	<text transform="matrix(-0.7104 0.7038 -0.7038 -0.7104 436.4466 435.0865)" class="st16 st3 st18">n</text>
	<text transform="matrix(-0.7395 0.6731 -0.6731 -0.7395 431.7654 439.6958)" class="st16 st3 st17">g</text>
	<text transform="matrix(-0.7743 0.6328 -0.6328 -0.7743 425.0873 445.6066)" class="st16 st3 st18">i</text>
	<text transform="matrix(-0.7957 0.6057 -0.6057 -0.7957 422.3769 447.8466)" class="st16 st3 st18">n</text>
	<text transform="matrix(-0.8169 0.5767 -0.5767 -0.8169 417.1037 451.8153)" class="st16 st3 st20">f</text>
	<text transform="matrix(-0.8363 0.5483 -0.5483 -0.8363 413.9565 454.0571)" class="st16 st3 st18">o</text>
	<text transform="matrix(-0.8564 0.5162 -0.5162 -0.8564 408.7352 457.4479)" class="st16 st3 st24">r</text>
	<text transform="matrix(-0.8806 0.4738 -0.4738 -0.8806 404.7072 459.9266)" class="st16 st3 st18">m</text>
	<text transform="matrix(-0.9034 0.4288 -0.4288 -0.9034 396.3649 464.3368)" class="st16 st3 st18">a</text>
	<text transform="matrix(-0.9167 0.3995 -0.3995 -0.9167 391.6266 466.5768)" class="st16 st3 st18">t</text>
	<text transform="matrix(-0.9269 0.3754 -0.3754 -0.9269 387.9039 468.1762)" class="st16 st3 st22">i</text>
	<text transform="matrix(-0.939 0.3438 -0.3438 -0.939 384.6346 469.5168)" class="st16 st3 st20">o</text>
	<text transform="matrix(-0.9533 0.302 -0.302 -0.9533 378.8167 471.6465)" class="st16 st3 st18">n</text>
	<text transform="matrix(-0.9703 0.2419 -0.2419 -0.9703 369.5667 474.437)" class="st16 st3 st18">a</text>
	<text transform="matrix(-0.9783 0.2072 -0.2072 -0.9783 364.4555 475.696)" class="st16 st3 st18">c</text>
	<text transform="matrix(-0.9849 0.173 -0.173 -0.9849 359.5151 476.7362)" class="st16 st3 st18">c</text>
	<text transform="matrix(-0.9905 0.1378 -0.1378 -0.9905 354.5764 477.5973)" class="st16 st3 st23">e</text>
	<text transform="matrix(-0.9946 0.1042 -0.1042 -0.9946 349.2951 478.3163)" class="st16 st3 st23">s</text>
	<text transform="matrix(-0.9971 7.671531e-02 -7.671531e-02 -0.9971 344.7771 478.7766)" class="st16 st3 st23">i</text>
	<text transform="matrix(-0.999 4.396963e-02 -4.396963e-02 -0.999 341.2548 479.0573)" class="st16 st3 st17">b</text>
	<text transform="matrix(-0.9999 1.623021e-02 -1.623021e-02 -0.9999 335.1355 479.2852)" class="st16 st3 st22">l</text>
	<text transform="matrix(-0.9999 -1.727715e-02 1.727715e-02 -0.9999 331.8269 479.3477)" class="st16 st3 st19">e</text>
	<text transform="matrix(-0.9977 -6.836081e-02 6.836081e-02 -0.9977 323.3851 479.0771)" class="st16 st3 st23">i</text>
	<text transform="matrix(-0.9947 -0.1028 0.1028 -0.9947 319.8759 478.8569)" class="st16 st3 st18">n</text>
	<text transform="matrix(-0.9463 -0.3234 0.3234 -0.9463 289.1575 472.9857)" class="st16 st3 st22">m</text>
	<text transform="matrix(-0.9286 -0.371 0.371 -0.9286 280.2458 469.8756)" class="st16 st3 st18">a</text>
	<text transform="matrix(-0.9162 -0.4008 0.4008 -0.9162 275.3656 467.9066)" class="st16 st3 st22">t</text>
	<text transform="matrix(-0.9027 -0.4302 0.4302 -0.9027 271.6868 466.2964)" class="st16 st3 st18">e</text>
	<text transform="matrix(-0.8873 -0.4613 0.4613 -0.8873 266.8962 463.9976)" class="st16 st3 st19">r</text>
	<text transform="matrix(-0.8737 -0.4865 0.4865 -0.8737 262.6656 461.7766)" class="st16 st3 st18">i</text>
	<text transform="matrix(-0.8586 -0.5126 0.5126 -0.8586 259.5858 460.0667)" class="st16 st3 st18">a</text>
	<text transform="matrix(-0.8431 -0.5377 0.5377 -0.8431 255.0741 457.3571)" class="st16 st3 st25">l</text>
	<text transform="matrix(-0.8301 -0.5576 0.5576 -0.8301 252.2562 455.5464)" class="st16 st3 st18">i</text>
	<text transform="matrix(-0.8131 -0.5821 0.5821 -0.8131 249.3163 453.5774)" class="st16 st3 st18">z</text>
	<text transform="matrix(-0.7954 -0.6061 0.6061 -0.7954 245.1451 450.5669)" class="st16 st3 st18">i</text>
	<text transform="matrix(-0.774 -0.6332 0.6332 -0.774 242.3361 448.4454)" class="st16 st3 st18">n</text>
	<text transform="matrix(-0.7465 -0.6654 0.6654 -0.7465 237.2562 444.2666)" class="st16 st3 st18">g</text>
	<text transform="matrix(-0.7028 -0.7114 0.7114 -0.7028 230.676 438.2654)" class="st16 st3 st18">n</text>
	<text transform="matrix(-0.6735 -0.7392 0.7392 -0.6735 226.0858 433.5856)" class="st16 st3 st18">a</text>
	<text transform="matrix(-0.6479 -0.7618 0.7618 -0.6479 222.5566 429.6853)" class="st16 st3 st26">r</text>
	<text transform="matrix(-0.6225 -0.7826 0.7826 -0.6225 219.4655 426.0458)" class="st16 st3 st18">r</text>
	<text transform="matrix(-0.5954 -0.8034 0.8034 -0.5954 216.5057 422.3271)" class="st16 st3 st18">a</text>
	<text transform="matrix(-0.5696 -0.8219 0.8219 -0.5696 213.3957 418.0962)" class="st16 st3 st18">t</text>
	<text transform="matrix(-0.5479 -0.8366 0.8366 -0.5479 211.0962 414.757)" class="st16 st3 st23">i</text>
	<text transform="matrix(-0.5203 -0.854 0.854 -0.5203 209.1658 411.8261)" class="st16 st3 st18">v</text>
	<text transform="matrix(-0.4865 -0.8737 0.8737 -0.4865 206.0358 406.6667)" class="st16 st3 st18">e</text>
	<text transform="matrix(-0.4565 -0.8897 0.8897 -0.4565 203.4658 402.0148)" class="st16 st3 st18">s</text>
	<text transform="matrix(-0.4067 -0.9136 0.9136 -0.4067 200.0558 395.1775)" class="st16 st3 st21">a</text>
	<text transform="matrix(-0.3691 -0.9294 0.9294 -0.3691 197.9359 390.4055)" class="st16 st3 st18">n</text>
	<text transform="matrix(-0.3282 -0.9446 0.9446 -0.3282 195.5257 384.3064)" class="st16 st3 st18">d</text>
	<text transform="matrix(-0.2676 -0.9635 0.9635 -0.2676 192.6159 375.5856)" class="st16 st3 st18">v</text>
	<text transform="matrix(-0.2355 -0.9719 0.9719 -0.2355 191.0358 369.7766)" class="st16 st3 st18">i</text>
	<text transform="matrix(-0.2083 -0.9781 0.9781 -0.2083 190.2055 366.3461)" class="st16 st3 st22">s</text>
	<text transform="matrix(-0.181 -0.9835 0.9835 -0.181 189.2759 361.9159)" class="st16 st3 st18">i</text>
	<text transform="matrix(-0.148 -0.989 0.989 -0.148 188.6258 358.4576)" class="st16 st3 st18">o</text>
	<text transform="matrix(-0.1044 -0.9945 0.9945 -0.1044 187.7154 352.3169)" class="st16 st3 st17">n</text>
	<text transform="matrix(-6.644800e-02 -0.9978 0.9978 -6.644800e-02 187.0558 345.747)" class="st16 st3 st18">s</text>
	<text transform="matrix(-1.623035e-02 -0.9999 0.9999 -1.623035e-02 186.6453 338.1463)" class="st16 st3 st22">o</text>
	<text transform="matrix(2.495562e-02 -0.9997 0.9997 2.495562e-02 186.5958 331.9369)" class="st16 st3 st18">f</text>
	<circle class="st15" cx="332" cy="333.9" r="272.5"/>
	<circle class="st15" cx="334.1" cy="332.8" r="300.6"/>
	<g>
		<text transform="matrix(0.6691 0.7431 -0.7431 0.6691 159.4753 140.7662)" class="st1 st3 st21">Slow economies</text>
		<text transform="matrix(0.4226 0.9063 -0.9063 0.4226 226.4153 100.7362)" class="st1 st3 st18">Slower lifestyles</text>
		<text transform="matrix(0.1392 0.9903 -0.9903 0.1392 307.7357 76.8363)" class="st1 st3 st22">Reduced</text>
		<text transform="matrix(0.1392 0.9903 -0.9903 0.1392 294.1154 78.7558)" class="st1 st3 st22">consumption</text>
		<text transform="matrix(0.5446 -0.8387 0.8387 0.5446 178.1357 542.6357)" class="st1 st3 st18">Democratic politics</text>
		<text transform="matrix(0.5446 -0.8387 0.8387 0.5446 189.666 550.126)" class="st1 st3 st18">of Nature</text>
		<text transform="matrix(0.766 -0.6428 0.6428 0.766 123.4057 483.5864)" class="st1 st3 st18">Means of</text>
		<text transform="matrix(0.766 -0.6428 0.6428 0.766 132.2458 494.1157)" class="st1 st3 st18">production are</text>
		<text transform="matrix(0.766 -0.6428 0.6428 0.766 141.0959 504.6459)" class="st1 st3 st18">collective</text>
		<text transform="matrix(0.8572 0.515 -0.515 0.8572 119.3357 190.2763)" class="st1 st3 st18">Locally sourced</text>
		<text transform="matrix(0.8572 0.515 -0.515 0.8572 112.2458 202.0663)" class="st1 st3 st18">materials</text>
		<text transform="matrix(0.8572 0.515 -0.515 0.8572 105.1658 213.8561)" class="st1 st3 st18">and thoughts</text>
		<text transform="matrix(0.2924 -0.9563 0.9563 0.2924 237.256 576.7465)" class="st1 st3 st18">Human</text>
		<text transform="matrix(0.2924 -0.9563 0.9563 0.2924 250.4059 580.767)" class="st1 st3 st18">activities that</text>
		<text transform="matrix(0.2924 -0.9563 0.9563 0.2924 263.5658 584.7866)" class="st1 st3 st18">respect Nature’s</text>
		<text transform="matrix(0.2924 -0.9563 0.9563 0.2924 276.716 588.8061)" class="st1 st3 st18">rights</text>
		<text transform="matrix(6.123234e-17 -1 1 6.123234e-17 339.1258 597.8265)" class="st1 st3 st18">Humans and Nature</text>
		<text transform="matrix(6.123234e-17 -1 1 6.123234e-17 352.8758 597.8265)" class="st1 st3 st18">relationship</text>
		<text transform="matrix(6.123234e-17 -1 1 6.123234e-17 325.0058 597.6058)" class="st1 st3 st18">Mutually enhanced</text>
		<text transform="matrix(0.9703 0.2419 -0.2419 0.9703 86.0357 266.0664)" class="st1 st3 st18">Self sufficient</text>
		<text transform="matrix(0.9703 0.2419 -0.2419 0.9703 82.7058 279.4164)" class="st1 st3 st18">communities</text>
		<text transform="matrix(1 0 0 1 74.8358 341.8464)" class="st1 st3 st18">End of predatory</text>
		<text transform="matrix(1 0 0 1 74.8358 355.5964)" class="st1 st3 st18">extraction</text>
		<text transform="matrix(0.9336 -0.3584 0.3584 0.9336 84.2759 414.4862)" class="st1 st3 st18">Consumption of</text>
		<text transform="matrix(0.9336 -0.3584 0.3584 0.9336 89.2058 427.3265)" class="st1 st3 st18">Nature controlled</text>
		<text transform="matrix(0.9336 -0.3584 0.3584 0.9336 94.136 440.1664)" class="st1 st3 st18">by the people</text>
		<g>
			<text transform="matrix(0.9648 -0.263 0.263 0.9648 501.9158 293.2462)" class="st1 st3 st18">Deep respect of all </text>
			<text transform="matrix(0.9648 -0.263 0.263 0.9648 505.5325 306.5121)" class="st1 st3 st18">Nature’s</text>
			<text transform="matrix(0.9648 -0.263 0.263 0.9648 544.5358 296.2963)" class="st1 st3 st18">beings</text>
		</g>
		<text transform="matrix(0.9979 6.540045e-02 -6.540045e-02 0.9979 508.6461 344.4864)" class="st1 st3 st23">Valuing life creation</text>
		<text transform="matrix(0.9979 6.540045e-02 -6.540045e-02 0.9979 507.7463 358.2162)" class="st1 st3 st23">and maintenance</text>
		<text transform="matrix(0.8457 -0.5336 0.5336 0.8457 490.9953 248.276)" class="st1 st3 st17">A culture of care</text>
		<text transform="matrix(0.5628 0.8266 -0.8266 0.5628 447.6259 475.9463)" class="st1 st3 st18">Autonomous</text>
		<text transform="matrix(0.5628 0.8266 -0.8266 0.5628 436.2558 483.6865)" class="st1 st3 st18">communities</text>
		<text transform="matrix(0.5628 0.8266 -0.8266 0.5628 424.8857 491.4262)" class="st1 st3 st18">and enviroment</text>
		<text transform="matrix(0.3132 0.9497 -0.9497 0.3132 381.8856 504.7463)" class="st1 st3 st18">Righteous Nature</text>
		<text transform="matrix(0.6915 -0.7224 0.7224 0.6915 459.2559 196.2465)" class="st1 st3 st18">Natural Capital </text>
		<text transform="matrix(0.6915 -0.7224 0.7224 0.6915 469.1885 205.7543)" class="st1 st3 st18">understanding</text>
		<text transform="matrix(0.8116 0.5842 -0.5842 0.8116 476.2158 443.4465)" class="st1 st3 st18">Respect of Nature</text>
		<text transform="matrix(0.8116 0.5842 -0.5842 0.8116 468.1855 454.6062)" class="st1 st3 st18">as a being</text>
		<text transform="matrix(0.481 -0.8767 0.8767 0.481 416.1159 167.1265)" class="st1 st3 st18">Holistic wealth</text>
		<text transform="matrix(0.481 -0.8767 0.8767 0.481 428.176 173.7358)" class="st1 st3 st18">accounting</text>
		<text transform="matrix(0.9351 0.3543 -0.3543 0.9351 504.6757 395.9465)" class="st1 st3 st18">A happy and</text>
		<text transform="matrix(0.9351 0.3543 -0.3543 0.9351 499.8058 408.8063)" class="st1 st3 st18">balanced life</text>
		<text transform="matrix(0.1693 -0.9856 0.9856 0.1693 361.9565 145.8062)" class="st1 st3 st22">New value</text>
		<text transform="matrix(0.1693 -0.9856 0.9856 0.1693 375.5157 148.1353)" class="st1 st3 st22"> concept</text>
	</g>
	<circle class="st1" cx="287.1" cy="617.3" r="3.7"/>
	<circle class="st1" cx="619.7" cy="345.1" r="3.7"/>
	<circle class="st1" cx="49" cy="368.3" r="4.1"/>
	<circle class="st1" cx="184.8" cy="311.7" r="3.7"/>
	<circle class="st1" cx="380.8" cy="194.1" r="3.7"/>
	<circle class="st1" cx="300.3" cy="478.7" r="3.7"/>
	<circle class="st1" cx="463.6" cy="399.3" r="3.7"/>
	<circle class="st1" cx="146.6" cy="118.4" r="3.7"/>
</g>
<g id="uuid-fa3dd8da-c330-403e-8c25-3fdcbb0d6f54">
	<path class="st1" d="M331,363.1c15.9,0,28.8-12.9,28.8-28.8s-12.9-28.8-28.8-28.8s-28.8,12.9-28.8,28.8S315.1,363.1,331,363.1z"/>
	<g>
		<path class="st16" d="M312.2,331.8c0-0.1,0-0.2,0.1-0.3s0.1-0.3,0.1-0.4c0-0.2,0.1-0.3,0.1-0.5s0-0.3,0-0.5V326c0-0.2,0-0.3,0-0.5
			s0-0.3-0.1-0.5c0-0.2-0.1-0.3-0.1-0.4s-0.1-0.2-0.1-0.3s0-0.1,0-0.1l0,0h3.4c1.1,0,2,0.4,2.7,1.1s1.1,1.6,1.1,2.8
			s-0.4,2.1-1.1,2.8s-1.6,1.1-2.7,1.1h-3.4l0,0C312.2,332,312.2,331.9,312.2,331.8L312.2,331.8z M314.9,331.5c0.4,0,0.7-0.1,1-0.3
			c0.3-0.2,0.5-0.5,0.6-0.8s0.3-0.7,0.3-1.1c0.1-0.4,0.1-0.8,0.1-1.2s0-0.8-0.1-1.2s-0.2-0.7-0.3-1.1s-0.4-0.6-0.6-0.8
			c-0.3-0.2-0.6-0.3-1-0.3h-0.2v6.8H314.9z"/>
		<path class="st16" d="M321.3,327.2c0.5-0.5,1.2-0.7,2.1-0.7c0.5,0,0.9,0.1,1.3,0.2s0.6,0.4,0.8,0.7c0.2,0.3,0.3,0.6,0.4,0.9
			s0.1,0.6,0.1,1h-3.3c0.1,1.1,0.7,1.6,1.6,1.6c0.5,0,1-0.2,1.6-0.5l0,0c-0.1,0.4-0.4,0.8-0.9,1.2c-0.5,0.4-1,0.6-1.7,0.6
			c-0.3,0-0.7-0.1-1-0.2s-0.6-0.3-0.9-0.5s-0.5-0.5-0.7-0.9s-0.3-0.8-0.3-1.3C320.5,328.4,320.8,327.7,321.3,327.2L321.3,327.2z
			 M322.7,328.5c0,0.1,0,0.2,0,0.4l1.4-0.4c0-1-0.2-1.5-0.7-1.5S322.7,327.4,322.7,328.5L322.7,328.5L322.7,328.5z"/>
		<path class="st16" d="M327.3,328.2c0-0.5,0.2-1,0.7-1.3s1-0.5,1.8-0.5c0.7,0,1.4,0.1,2,0.4v1.7l0,0c-0.2-0.2-0.4-0.4-0.5-0.6
			s-0.3-0.3-0.5-0.5s-0.4-0.3-0.6-0.4s-0.4-0.1-0.6-0.1s-0.3,0-0.4,0.1s-0.2,0.2-0.2,0.3c0,0.1,0,0.2,0.1,0.3
			c0.1,0.1,0.2,0.2,0.3,0.2c0.2,0.1,0.3,0.2,0.4,0.2s0.3,0.1,0.6,0.2c0.6,0.2,1.1,0.5,1.4,0.8s0.4,0.7,0.4,1.1
			c0,0.6-0.2,1.1-0.7,1.4s-1,0.5-1.7,0.5s-1.4-0.1-2.2-0.4v-1.8l0,0c0.1,0.1,0.2,0.2,0.4,0.4c0.2,0.2,0.4,0.4,0.5,0.5
			s0.2,0.2,0.4,0.4c0.2,0.1,0.4,0.2,0.5,0.3s0.3,0.1,0.5,0.1s0.3,0,0.5-0.1c0.1-0.1,0.2-0.2,0.2-0.4c0-0.2-0.2-0.4-0.5-0.6
			c-0.1-0.1-0.4-0.2-0.9-0.3C327.9,329.7,327.3,329.1,327.3,328.2L327.3,328.2z"/>
		<path class="st16" d="M333.4,331.8c0-0.1,0-0.2,0.1-0.3s0.1-0.3,0.1-0.4c0-0.2,0.1-0.3,0.1-0.5s0-0.3,0-0.5v-1.7
			c0-0.2,0-0.3,0-0.5s0-0.3-0.1-0.5s-0.1-0.3-0.1-0.4s-0.1-0.2-0.1-0.3c0-0.1,0-0.1,0-0.1l0,0h2.4v3.7c0,0.2,0,0.3,0,0.5
			s0,0.3,0.1,0.5c0,0.2,0.1,0.3,0.1,0.4s0.1,0.2,0.1,0.3s0,0.1,0,0.1l0,0h-2.7l0,0C333.4,332,333.4,331.9,333.4,331.8L333.4,331.8z
			 M333.8,324c0.2-0.2,0.5-0.3,0.9-0.3s0.6,0.1,0.9,0.3s0.4,0.5,0.4,0.8s-0.1,0.6-0.4,0.8c-0.2,0.2-0.5,0.4-0.9,0.4
			s-0.6-0.1-0.9-0.3s-0.4-0.5-0.4-0.8S333.5,324.2,333.8,324L333.8,324z"/>
		<path class="st16" d="M337.2,328.4c0-0.4,0.1-0.8,0.4-1.1c0.3-0.3,0.6-0.5,1-0.6s0.7-0.2,1.1-0.2c0.5,0,0.9,0.1,1.3,0.2
			c0.3-0.8,0.8-1.2,1.5-1.2c0.1,0,0.2,0,0.3,0l-0.3,1.5l0,0c-0.3-0.2-0.5-0.2-0.8-0.2c-0.1,0-0.3,0-0.4,0.1c0.6,0.3,0.9,0.9,0.9,1.5
			s-0.3,1.1-0.8,1.4s-1.1,0.5-1.7,0.5c-0.3,0-0.6,0-0.9-0.1c-0.3,0.1-0.4,0.2-0.4,0.4c0,0.1,0,0.1,0.1,0.2c0.1,0,0.2,0,0.5,0h1.8
			c0.6,0,1.1,0.1,1.4,0.4s0.5,0.7,0.5,1.2c0,1.2-1,1.8-2.9,1.8c-0.2,0-0.4,0-0.5,0s-0.4,0-0.6-0.1s-0.5-0.1-0.7-0.2
			s-0.4-0.2-0.5-0.3c-0.1-0.2-0.2-0.3-0.2-0.5c0-0.3,0.1-0.5,0.3-0.7c-0.2-0.2-0.3-0.5-0.3-0.8c0-0.7,0.4-1.1,1.2-1.3
			C337.6,329.7,337.2,329.2,337.2,328.4L337.2,328.4z M338.2,332.6c0.1,0.7,0.7,1,1.6,1c0.4,0,0.8,0,1.1-0.1s0.5-0.2,0.5-0.4
			c0-0.1-0.1-0.2-0.2-0.3s-0.3-0.1-0.6-0.1h-1.8C338.6,332.7,338.4,332.7,338.2,332.6L338.2,332.6z M339.1,328.4
			c0,1,0.2,1.5,0.5,1.5s0.6-0.5,0.6-1.5s-0.2-1.5-0.6-1.5S339.1,327.4,339.1,328.4z"/>
		<path class="st16" d="M343.6,332v-0.1c0,0,0-0.2,0.1-0.3c0-0.1,0.1-0.3,0.1-0.4c0-0.2,0.1-0.3,0.1-0.5s0-0.3,0-0.5v-1.8
			c0-0.2,0-0.3,0-0.5s0-0.3-0.1-0.5s-0.1-0.3-0.1-0.4s-0.1-0.2-0.1-0.3c0-0.1,0-0.1,0-0.1l0,0h2.4v0.9c0.2-0.3,0.4-0.5,0.7-0.7
			c0.3-0.2,0.6-0.3,1-0.3c0.5,0,0.9,0.2,1.3,0.5s0.5,0.8,0.5,1.3v1.9c0,0.2,0,0.3,0,0.5s0,0.3,0.1,0.5c0,0.2,0.1,0.3,0.1,0.4
			s0.1,0.2,0.1,0.3s0,0.1,0,0.1l0,0h-2.7l0,0v-0.1c0,0,0-0.2,0.1-0.3c0-0.1,0.1-0.3,0.1-0.4c0-0.2,0.1-0.3,0.1-0.5s0-0.3,0-0.5v-1.6
			c0-0.6-0.3-0.8-0.8-0.8l0,0c-0.2,0-0.4,0.1-0.7,0.2v2.3c0,0.2,0,0.3,0,0.5s0,0.3,0.1,0.5c0,0.2,0.1,0.3,0.1,0.4s0.1,0.2,0.1,0.3
			s0,0.1,0,0.1l0,0L343.6,332L343.6,332L343.6,332z"/>
		<path class="st16" d="M320.1,343.3c0-0.5,0.2-1,0.6-1.3s0.9-0.5,1.4-0.5c0.4,0,0.9,0.1,1.2,0.2v-0.6c0-0.2,0-0.4,0-0.5
			s0-0.2,0-0.4c0-0.1,0-0.2-0.1-0.3s-0.1-0.1-0.1-0.1c-0.2,0-0.5,0.1-0.9,0.4c-0.4,0.2-0.8,0.5-1.1,0.8l-0.5,0.4l0,0v-1.7
			c1.1-0.2,2-0.4,2.7-0.4s1.3,0.2,1.6,0.5c0.3,0.3,0.5,0.8,0.5,1.4v1.8c0,0.4,0,0.6,0.1,0.7s0.1,0.2,0.2,0.2s0.2,0,0.3-0.1l0,0
			c0,0.3-0.1,0.6-0.4,0.8s-0.5,0.3-0.9,0.3c-0.7,0-1.1-0.3-1.3-0.9c-0.1,0.2-0.3,0.5-0.6,0.7c-0.3,0.2-0.6,0.3-1,0.3
			c-0.5,0-1-0.2-1.3-0.5S320,343.7,320.1,343.3L320.1,343.3z M322.4,343.7c0.1,0.2,0.3,0.3,0.6,0.3c0.1,0,0.3-0.1,0.4-0.1
			c0-0.1,0-0.2,0-0.4v-1.4c-0.1,0-0.2,0-0.3,0c-0.6,0-0.9,0.3-0.9,0.9C322.2,343.2,322.2,343.5,322.4,343.7L322.4,343.7z"/>
		<path class="st16" d="M327,341.1c0-0.5,0.2-1,0.7-1.3s1-0.5,1.8-0.5c0.7,0,1.4,0.1,2,0.4v1.7l0,0c-0.2-0.2-0.4-0.4-0.5-0.6
			s-0.3-0.3-0.5-0.5s-0.4-0.3-0.6-0.4s-0.4-0.1-0.6-0.1s-0.3,0-0.4,0.1s-0.2,0.2-0.2,0.3c0,0.1,0,0.2,0.1,0.3
			c0.1,0.1,0.2,0.2,0.3,0.2c0.2,0.1,0.3,0.2,0.4,0.2s0.3,0.1,0.6,0.2c0.6,0.2,1.1,0.5,1.4,0.8s0.4,0.7,0.4,1.1
			c0,0.6-0.2,1.1-0.7,1.4s-1,0.5-1.7,0.5s-1.4-0.1-2.2-0.4v-1.8l0,0c0.1,0.1,0.2,0.2,0.4,0.4c0.2,0.2,0.4,0.4,0.5,0.5
			s0.2,0.2,0.4,0.4c0.2,0.1,0.4,0.2,0.5,0.3s0.3,0.1,0.5,0.1s0.3,0,0.5-0.1c0.1-0.1,0.2-0.2,0.2-0.4c0-0.2-0.2-0.4-0.5-0.6
			c-0.1-0.1-0.4-0.2-0.9-0.3C327.6,342.7,327,342,327,341.1L327,341.1z"/>
		<path class="st16" d="M335.9,343.3c0-0.5,0.2-1,0.6-1.3s0.9-0.5,1.4-0.5c0.4,0,0.9,0.1,1.2,0.2v-0.6c0-0.2,0-0.4,0-0.5
			s0-0.2,0-0.4c0-0.1,0-0.2-0.1-0.3s-0.1-0.1-0.1-0.1c-0.2,0-0.5,0.1-0.9,0.4s-0.8,0.5-1.1,0.8l-0.5,0.4l0,0v-1.7
			c1.1-0.2,2-0.4,2.7-0.4s1.3,0.2,1.6,0.5c0.3,0.3,0.5,0.8,0.5,1.4v1.8c0,0.4,0,0.6,0.1,0.7s0.1,0.2,0.2,0.2s0.2,0,0.3-0.1l0,0
			c0,0.3-0.1,0.6-0.4,0.8s-0.5,0.3-0.9,0.3c-0.7,0-1.1-0.3-1.3-0.9c-0.1,0.2-0.3,0.5-0.6,0.7c-0.3,0.2-0.6,0.3-1,0.3
			c-0.5,0-1-0.2-1.3-0.5S335.9,343.7,335.9,343.3L335.9,343.3z M338.2,343.7c0.1,0.2,0.3,0.3,0.6,0.3c0.1,0,0.3-0.1,0.4-0.1
			c0-0.1,0-0.2,0-0.4v-1.4c-0.1,0-0.2,0-0.3,0c-0.6,0-0.9,0.3-0.9,0.9C338,343.2,338.1,343.5,338.2,343.7L338.2,343.7z"/>
	</g>
	<g>
		<line class="st15" x1="314.9" y1="196.7" x2="330.3" y2="312.4"/>
		<line class="st15" x1="353.6" y1="314.7" x2="438" y2="241.4"/>
		<line class="st15" x1="466" y1="367.1" x2="359.6" y2="339.4"/>
		<line class="st15" x1="345.4" y1="358.5" x2="392.5" y2="457.3"/>
		<line class="st15" x1="283.5" y1="461.6" x2="323" y2="358.7"/>
		<line class="st15" x1="305.4" y1="337.8" x2="197.5" y2="359.5"/>
		<line class="st15" x1="224.6" y1="247.3" x2="312.2" y2="317.8"/>
	</g>
	<g>
		<g>
			<g>
				<text transform="matrix(-0.9666 0.2561 -0.2561 -0.9666 358.6064 424.7866)" class="st1 st3 st27">n</text>
				<text transform="matrix(-0.9793 0.2023 -0.2023 -0.9793 352.666 426.3463)" class="st1 st3 st28">u</text>
				<text transform="matrix(-0.9878 0.1557 -0.1557 -0.9878 346.8851 427.5168)" class="st1 st3 st28">r</text>
				<text transform="matrix(-0.9929 0.1186 -0.1186 -0.9929 342.4654 428.1972)" class="st1 st3 st29">t</text>
				<text transform="matrix(-0.9972 7.532384e-02 -7.532384e-02 -0.9972 338.7456 428.6568)" class="st1 st3 st30">u</text>
				<text transform="matrix(-0.9996 2.879385e-02 -2.879385e-02 -0.9996 332.8661 429.066)" class="st1 st3 st28">r</text>
				<text transform="matrix(-0.9999 -1.413665e-02 1.413665e-02 -0.9999 328.4062 429.1973)" class="st1 st3 st28">e</text>
				<text transform="matrix(-0.9984 -5.738691e-02 5.738691e-02 -0.9984 323.4068 429.1061)" class="st1 st3 st31">r</text>
				<text transform="matrix(-0.9914 -0.1309 0.1309 -0.9914 316.0761 428.5851)" class="st1 st3 st28">o</text>
				<text transform="matrix(-0.9847 -0.174 0.174 -0.9847 310.3067 427.785)" class="st1 st3 st27">f</text>
				<text transform="matrix(-0.9582 0.2862 -0.2862 -0.9582 355.7976 410.5766)" class="st1 st3 st28">c</text>
				<text transform="matrix(-0.9734 0.2292 -0.2292 -0.9734 351.3062 411.9166)" class="st1 st3 st28">o</text>
				<text transform="matrix(-0.9837 0.18 -0.18 -0.9837 345.6362 413.2079)" class="st1 st3 st30">l</text>
				<text transform="matrix(-0.9894 0.1454 -0.1454 -0.9894 342.5455 413.7662)" class="st1 st3 st28">l</text>
				<text transform="matrix(-0.9949 0.1011 -0.1011 -0.9949 339.4945 414.2267)" class="st1 st3 st28">e</text>
				<text transform="matrix(-0.9988 4.798045e-02 -4.798045e-02 -0.9988 334.5563 414.7161)" class="st1 st3 st27">c</text>
				<text transform="matrix(-1 6.980145e-04 -6.980145e-04 -1 329.836 414.9168)" class="st1 st3 st28">t</text>
				<text transform="matrix(-0.9993 -3.856064e-02 3.856064e-02 -0.9993 326.0751 414.9041)" class="st1 st3 st31">i</text>
				<text transform="matrix(-0.9961 -8.854664e-02 8.854664e-02 -0.9961 322.7963 414.7953)" class="st1 st3 st28">v</text>
				<text transform="matrix(-0.989 -0.148 0.148 -0.989 317.1863 414.2753)" class="st1 st3 st28">e</text>
				<text transform="matrix(-0.9665 0.2566 -0.2566 -0.9665 349.1067 397.646)" class="st1 st3 st28">v</text>
				<text transform="matrix(-0.9812 0.193 -0.193 -0.9812 343.6662 399.0371)" class="st1 st3 st28">i</text>
				<text transform="matrix(-0.9902 0.1395 -0.1395 -0.9902 340.4861 399.6659)" class="st1 st3 st28">s</text>
				<text transform="matrix(-0.9964 8.523963e-02 -8.523963e-02 -0.9964 336.2851 400.226)" class="st1 st3 st30">i</text>
				<text transform="matrix(-0.9998 2.041890e-02 -2.041890e-02 -0.9998 333.0559 400.5375)" class="st1 st3 st28">o</text>
				<text transform="matrix(-0.9978 -6.627395e-02 6.627395e-02 -0.9978 327.2857 400.6375)" class="st1 st3 st28">n</text>
				<text transform="matrix(-0.99 -0.1414 0.1414 -0.99 321.2052 400.1874)" class="st1 st3 st32">s</text>
			</g>
			<g>
				<path class="st1" d="M334.4,392.5c-0.6,0.1-1.1-0.1-1.4-0.5s-0.6-0.8-0.6-1.2c-0.1-0.6,0.1-1.1,0.5-1.6s0.8-0.8,1.4-0.8
					c0.2,0,0.4,0,0.6,0s0.3,0,0.4,0c0,0,0.1,0,0.2-0.1s0.1-0.1,0.1-0.1h0.1c0,0,0.1,0,0.1,0.1c0,0,0,0.1,0,0.2s0,0.2,0,0.4
					c0,0.2,0,0.4,0,0.6l0.4,3.8c0,0.2,0.1,0.4,0.1,0.6c0,0.1,0.2,0.1,0.5,0.1h0.1c0,0,0.1,0,0.1,0.1s0,0.2,0,0.2
					c-0.2,0-0.4,0.1-0.5,0.1s-0.3,0.1-0.4,0.1s-0.2,0.1-0.2,0.1l-0.1,0.1l0,0l0,0c0,0,0,0-0.1,0c0,0,0-0.1-0.1-0.1
					c0-0.2,0-0.5,0-0.8l-0.2-1.6c0-0.1,0-0.1,0-0.1l0,0c-0.1,0.1-0.2,0.2-0.4,0.2C334.7,392.4,334.6,392.4,334.4,392.5L334.4,392.5z
					 M334.7,392c0.2,0,0.3-0.1,0.4-0.2s0.2-0.2,0.1-0.4l-0.2-2.1c0-0.2-0.1-0.3-0.3-0.4c-0.2-0.1-0.4-0.1-0.6-0.1
					c-0.4,0-0.6,0.2-0.8,0.6s-0.2,0.7-0.2,1.2s0.2,0.9,0.5,1.1S334.3,392,334.7,392L334.7,392z"/>
				<path class="st1" d="M330.5,392.6c-0.1,0-0.2,0-0.3,0s-0.2,0-0.3,0s-0.2,0-0.3,0v-0.1c0-0.1,0-0.1,0-0.1s0.1,0,0.2-0.1
					s0.2-0.1,0.2-0.1l0,0c0-0.1-0.4-0.9-1-2.4l-0.7,2c0,0.1-0.1,0.2-0.1,0.3c0,0.1,0,0.2,0.1,0.2s0.2,0.1,0.4,0.1c0,0,0,0,0,0.1
					s0,0.1,0,0.2c-0.1,0-0.2,0-0.4,0c-0.2,0-0.3,0-0.5,0c-0.1,0-0.3,0-0.4,0s-0.3,0-0.4,0v-0.1c0-0.1,0-0.1,0-0.1
					c0.1,0,0.2,0,0.3-0.1s0.2-0.2,0.3-0.3l1.6-4.5c0.1-0.4,0.3-0.7,0.5-0.8c0.2-0.2,0.3-0.2,0.5-0.2c0.1,0,0.2,0,0.3,0.1
					c0.1,0.1,0.1,0.2,0.1,0.2c0,0.1,0,0.2-0.1,0.3c-0.5,0-0.8,0.3-1,0.8c0,0.1-0.1,0.2-0.1,0.3s-0.1,0.2-0.1,0.3l1.4,3.2
					c0.1,0.2,0.1,0.2,0.2,0.3c0.1,0.1,0.1,0.1,0.3,0.1c0.1,0,0.2,0.1,0.3,0.1c0,0,0,0,0,0.1s0,0.1,0,0.2
					C330.9,392.6,330.5,392.6,330.5,392.6L330.5,392.6z"/>
			</g>
		</g>
		<g>
			<g>
				<text transform="matrix(-0.8418 -0.5398 0.5398 -0.8418 276.6953 420.615)" class="st1 st3 st28">d</text>
				<text transform="matrix(-0.8146 -0.58 0.58 -0.8146 271.9261 417.5365)" class="st1 st3 st28">e</text>
				<text transform="matrix(-0.7766 -0.63 0.63 -0.7766 267.8755 414.7161)" class="st1 st3 st28">m</text>
				<text transform="matrix(-0.7356 -0.6774 0.6774 -0.7356 261.0453 409.076)" class="st1 st3 st28">a</text>
				<text transform="matrix(-0.7083 -0.7059 0.7059 -0.7083 257.4557 405.737)" class="st1 st3 st28">t</text>
				<text transform="matrix(-0.6796 -0.7336 0.7336 -0.6796 254.7758 403.076)" class="st1 st3 st28">e</text>
				<text transform="matrix(-0.6473 -0.7622 0.7622 -0.6473 251.3958 399.4062)" class="st1 st3 st28">r</text>
				<text transform="matrix(-0.6199 -0.7847 0.7847 -0.6199 248.5257 395.9954)" class="st1 st3 st28">i</text>
				<text transform="matrix(-0.5898 -0.8076 0.8076 -0.5898 246.4653 393.3866)" class="st1 st3 st30">a</text>
				<text transform="matrix(-0.5598 -0.8286 0.8286 -0.5598 243.586 389.4165)" class="st1 st3 st28">l</text>
				<text transform="matrix(-0.5351 -0.8448 0.8448 -0.5351 241.8462 386.8253)" class="st1 st3 st28">i</text>
				<text transform="matrix(-0.503 -0.8643 0.8643 -0.503 240.0659 384.016)" class="st1 st3 st28">z</text>
				<text transform="matrix(-0.4636 -0.886 0.886 -0.4636 237.6551 379.8674)" class="st1 st3 st29">e</text>
				<text transform="matrix(-0.4247 -0.9053 0.9053 -0.4247 235.3662 375.4579)" class="st1 st3 st33">r</text>
				<text transform="matrix(-0.878 -0.4787 0.4787 -0.878 288.526 412.3252)" class="st1 st3 st28">o</text>
				<text transform="matrix(-0.8514 -0.5246 0.5246 -0.8514 283.4142 409.4955)" class="st1 st3 st31">f</text>
				<text transform="matrix(-0.8036 -0.5952 0.5952 -0.8036 277.9456 406.0163)" class="st1 st3 st34">u</text>
				<text transform="matrix(-0.762 -0.6476 0.6476 -0.762 273.2559 402.5369)" class="st1 st3 st28">n</text>
				<text transform="matrix(-0.7157 -0.6984 0.6984 -0.7157 268.5757 398.5354)" class="st1 st3 st28">n</text>
				<text transform="matrix(-0.6712 -0.7413 0.7413 -0.6712 264.2161 394.237)" class="st1 st3 st28">e</text>
				<text transform="matrix(-0.63 -0.7766 0.7766 -0.63 260.886 390.5374)" class="st1 st3 st28">c</text>
				<text transform="matrix(-0.5872 -0.8094 0.8094 -0.5872 257.9457 386.8954)" class="st1 st3 st29">e</text>
				<text transform="matrix(-0.5446 -0.8387 0.8387 -0.5446 255.0356 382.8472)" class="st1 st3 st28">s</text>
				<text transform="matrix(-0.5041 -0.8637 0.8637 -0.5041 252.7464 379.2964)" class="st1 st3 st31">s</text>
				<text transform="matrix(-0.459 -0.8884 0.8884 -0.459 250.6156 375.6469)" class="st1 st3 st35">a</text>
				<text transform="matrix(-0.4115 -0.9114 0.9114 -0.4115 248.3857 371.2968)" class="st1 st3 st28">r</text>
				<text transform="matrix(-0.361 -0.9326 0.9326 -0.361 246.5556 367.2367)" class="st1 st3 st36">y</text>
				<text transform="matrix(-0.8816 -0.4721 0.4721 -0.8816 292.1746 399.9467)" class="st1 st3 st37">p</text>
				<text transform="matrix(-0.8463 -0.5327 0.5327 -0.8463 287.3965 397.3463)" class="st1 st3 st38">r</text>
				<text transform="matrix(-0.8068 -0.5909 0.5909 -0.8068 283.8666 395.1369)" class="st1 st3 st37">o</text>
				<text transform="matrix(-0.7581 -0.6521 0.6521 -0.7581 279.4953 391.9065)" class="st1 st3 st38">d</text>
				<text transform="matrix(-0.7045 -0.7097 0.7097 -0.7045 275.4858 388.4455)" class="st1 st3 st38">u</text>
				<text transform="matrix(-0.6514 -0.7587 0.7587 -0.6514 271.626 384.5072)" class="st1 st3 st38">c</text>
				<text transform="matrix(-0.6061 -0.7954 0.7954 -0.6061 268.7559 381.1357)" class="st1 st3 st38">t</text>
				<text transform="matrix(-0.5617 -0.8274 0.8274 -0.5617 266.6257 378.3256)" class="st1 st3 st37">s</text>
				<text transform="matrix(-0.4738 -0.8806 0.8806 -0.4738 262.9961 372.7154)" class="st1 st3 st38">a</text>
				<text transform="matrix(-0.4056 -0.914 0.914 -0.4056 260.8358 368.7152)" class="st1 st3 st39">n</text>
				<text transform="matrix(-0.3295 -0.9441 0.9441 -0.3295 258.5154 363.4358)" class="st1 st3 st39">d</text>
				<text transform="matrix(-0.882 -0.4713 0.4713 -0.882 302.1858 392.3664)" class="st1 st3 st28">o</text>
				<text transform="matrix(-0.8299 -0.5579 0.5579 -0.8299 297.1055 389.7073)" class="st1 st3 st28">w</text>
				<text transform="matrix(-0.7682 -0.6402 0.6402 -0.7682 290.4455 385.1457)" class="st1 st3 st28">n</text>
				<text transform="matrix(-0.698 -0.7161 0.7161 -0.698 285.7556 381.266)" class="st1 st3 st28">w</text>
				<text transform="matrix(-0.627 -0.779 0.779 -0.627 280.1655 375.4063)" class="st1 st3 st28">e</text>
				<text transform="matrix(-0.5723 -0.8201 0.8201 -0.5723 277.0964 371.5473)" class="st1 st3 st31">r</text>
				<text transform="matrix(-0.5192 -0.8546 0.8546 -0.5192 274.5663 367.9049)" class="st1 st3 st27">s</text>
				<text transform="matrix(-0.4541 -0.8909 0.8909 -0.4541 272.3853 364.3557)" class="st1 st3 st27">h</text>
				<text transform="matrix(-0.3922 -0.9199 0.9199 -0.3922 269.7157 358.967)" class="st1 st3 st28">i</text>
				<text transform="matrix(-0.3299 -0.944 0.944 -0.3299 268.4159 355.9952)" class="st1 st3 st28">p</text>
			</g>
			<g>
				<path class="st1" d="M289,372.9c-0.4-0.4-0.6-0.9-0.5-1.4c0-0.5,0.2-0.9,0.5-1.3c0.4-0.4,0.9-0.6,1.5-0.6s1.1,0.2,1.5,0.5
					c0.2,0.2,0.3,0.3,0.4,0.5s0.2,0.3,0.2,0.3s0.1,0.1,0.2,0.1s0.1,0.1,0.1,0.1s0,0.1,0.1,0.1c0,0.1,0,0.1,0,0.1s0,0-0.1,0.1
					s-0.2,0.1-0.3,0.3c-0.1,0.1-0.3,0.2-0.5,0.4l-2.7,2.7c-0.1,0.2-0.3,0.3-0.4,0.5c0,0.1,0,0.2,0.2,0.4l0.1,0.1v0.1
					c-0.1,0.1-0.1,0.1-0.1,0.1c-0.1-0.1-0.3-0.2-0.4-0.3c-0.1-0.1-0.2-0.2-0.3-0.2c-0.1,0-0.2-0.1-0.2-0.1c-0.1,0-0.1,0-0.1-0.1l0,0
					l0,0v-0.1v-0.1c0.2-0.1,0.4-0.3,0.6-0.5l1.1-1.1c0,0,0.1-0.1,0-0.1l0,0c-0.1,0-0.2-0.1-0.4-0.1C289.2,373.1,289,373,289,372.9
					L289,372.9z M289.5,372.8c0.1,0.1,0.3,0.2,0.4,0.2s0.3,0,0.4-0.2l1.5-1.5c0.1-0.1,0.2-0.3,0.1-0.5s-0.2-0.4-0.4-0.5
					c-0.2-0.2-0.6-0.3-0.9-0.2c-0.4,0.1-0.7,0.3-1,0.6c-0.3,0.3-0.5,0.7-0.6,1.1S289.2,372.5,289.5,372.8L289.5,372.8z"/>
				<path class="st1" d="M286.3,370c-0.1-0.1-0.1-0.2-0.2-0.2s-0.1-0.1-0.2-0.2s-0.1-0.2-0.2-0.2c0,0,0-0.1,0.1-0.1
					c0.1-0.1,0.1-0.1,0.1-0.1s0.1,0.1,0.2,0.2s0.2,0.1,0.2,0.1l0,0c0.1-0.1,0.5-0.8,1.2-2.3l-2,0.8c-0.1,0.1-0.2,0.1-0.3,0.1
					c-0.1,0.1-0.1,0.1-0.1,0.2s0.1,0.2,0.2,0.3c0,0,0,0.1-0.1,0.1c-0.1,0.1-0.1,0.1-0.1,0.1c0-0.1-0.1-0.2-0.2-0.3s-0.2-0.2-0.3-0.4
					c-0.1-0.1-0.2-0.2-0.3-0.3s-0.2-0.2-0.2-0.3c0,0,0-0.1,0.1-0.1c0.1-0.1,0.1-0.1,0.1-0.1c0,0.1,0.1,0.1,0.3,0.2
					c0.1,0.1,0.3,0.1,0.4,0l4.5-1.6c0.4-0.1,0.7-0.2,0.9-0.2c0.2,0,0.4,0.1,0.5,0.2s0.1,0.2,0.1,0.3s-0.1,0.2-0.1,0.2
					c-0.1,0.1-0.2,0.1-0.3,0.1c-0.3-0.4-0.8-0.5-1.3-0.3c-0.1,0-0.2,0.1-0.3,0.1c-0.1,0.1-0.2,0.1-0.3,0.1l-1.6,3.1
					c-0.1,0.2-0.1,0.3-0.1,0.3c0,0.1,0,0.2,0.1,0.3c0,0.1,0.1,0.2,0.1,0.2s0,0.1-0.1,0.1c-0.1,0.1-0.1,0.1-0.1,0.1
					C286.5,370.3,286.3,370,286.3,370L286.3,370z"/>
			</g>
		</g>
		<g>
			<g>
				<text transform="matrix(-5.529868e-02 -0.9985 0.9985 -5.529868e-02 234.5758 342.2249)" class="st1 st3 st40">m</text>
				<text transform="matrix(1.134482e-02 -0.9999 0.9999 1.134482e-02 234.1461 332.8765)" class="st1 st3 st41">e</text>
				<text transform="matrix(6.296472e-02 -0.998 0.998 6.296472e-02 234.2058 327.6263)" class="st1 st3 st40">d</text>
				<text transform="matrix(0.1066 -0.9943 0.9943 0.1066 234.6257 321.6062)" class="st1 st3 st40">i</text>
				<text transform="matrix(0.1463 -0.9892 0.9892 0.1463 234.9959 318.1259)" class="st1 st3 st42">a</text>
				<text transform="matrix(0.1881 -0.9822 0.9822 0.1881 235.7747 312.9764)" class="st1 st3 st43">t</text>
				<text transform="matrix(0.2341 -0.9722 0.9722 0.2341 236.5158 309.0465)" class="st1 st3 st40">o</text>
				<text transform="matrix(0.2825 -0.9593 0.9593 0.2825 237.985 303.0657)" class="st1 st3 st44">r</text>
				<text transform="matrix(0.3569 -0.9341 0.9341 0.3569 240.2855 295.6359)" class="st1 st3 st42">o</text>
				<text transform="matrix(0.3997 -0.9166 0.9166 0.3997 242.5255 289.8961)" class="st1 st3 st42">f</text>
				<text transform="matrix(-4.117615e-02 -0.9992 0.9992 -4.117615e-02 248.1461 337.9551)" class="st1 st3 st45">c</text>
				<text transform="matrix(2.129143e-02 -0.9998 0.9998 2.129143e-02 247.9358 332.9767)" class="st1 st3 st40">o</text>
				<text transform="matrix(0.1075 -0.9942 0.9942 0.1075 248.0159 326.8954)" class="st1 st3 st40">m</text>
				<text transform="matrix(0.1939 -0.981 0.981 0.1939 249.1058 317.6056)" class="st1 st3 st40">p</text>
				<text transform="matrix(0.246 -0.9693 0.9693 0.246 250.3559 311.5669)" class="st1 st3 st40">l</text>
				<text transform="matrix(0.2925 -0.9563 0.9563 0.2925 251.1464 308.3862)" class="st1 st3 st44">e</text>
				<text transform="matrix(0.351 -0.9364 0.9364 0.351 252.6858 303.3764)" class="st1 st3 st40">x</text>
				<text transform="matrix(-0.1433 -0.9897 0.9897 -0.1433 264.4858 339.9059)" class="st1 st3 st40">p</text>
				<text transform="matrix(-6.522893e-02 -0.9979 0.9979 -6.522893e-02 263.6558 333.8364)" class="st1 st3 st40">r</text>
				<text transform="matrix(1.343857e-02 -0.9999 0.9999 1.343857e-02 263.3358 329.1972)" class="st1 st3 st40">o</text>
				<text transform="matrix(9.445579e-02 -0.9955 0.9955 9.445579e-02 263.4658 323.0771)" class="st1 st3 st40">c</text>
				<text transform="matrix(0.1687 -0.9857 0.9857 0.1687 263.946 318.1472)" class="st1 st3 st44">e</text>
				<text transform="matrix(0.2384 -0.9712 0.9712 0.2384 264.8455 313.0077)" class="st1 st3 st44">s</text>
				<text transform="matrix(0.3019 -0.9533 0.9533 0.3019 265.9268 308.6757)" class="st1 st3 st41">s</text>
				<text transform="matrix(0.3691 -0.9294 0.9294 0.3691 267.2657 304.4456)" class="st1 st3 st40">e</text>
				<text transform="matrix(0.4344 -0.9007 0.9007 0.4344 269.2358 299.586)" class="st1 st3 st40">s</text>
			</g>
			<g>
				<path class="st1" d="M272.4,322.7c0.1-0.6,0.4-1,0.8-1.3c0.5-0.3,0.9-0.4,1.4-0.3c0.6,0.1,1,0.4,1.4,0.9s0.5,1,0.5,1.5
					c0,0.2-0.1,0.4-0.1,0.6c-0.1,0.2-0.1,0.3-0.1,0.3c0,0.1,0,0.1,0,0.2s0,0.1,0,0.2v0.1c0,0.1,0,0.1-0.1,0.1c0,0-0.1,0-0.1-0.1
					s-0.2-0.1-0.4-0.1s-0.4-0.1-0.6-0.1l-3.8-0.6c-0.2,0-0.4,0-0.6,0c-0.1,0-0.2,0.2-0.2,0.4v0.1c0,0,0,0.1-0.1,0
					c-0.1,0-0.1,0-0.1-0.1c0-0.2,0-0.4,0-0.5s0-0.3,0-0.4s0-0.2,0-0.2c0-0.1,0-0.1,0-0.2l0,0l0,0c0,0,0-0.1,0.1-0.1h0.1
					c0.2,0.1,0.4,0.2,0.8,0.2l1.6,0.2c0.1,0,0.1,0,0.1,0l0,0c0-0.1-0.1-0.2-0.1-0.4C272.4,323,272.4,322.8,272.4,322.7L272.4,322.7z
					 M272.8,323.1c0,0.2,0,0.3,0.1,0.5c0.1,0.1,0.2,0.2,0.4,0.2l2.1,0.3c0.2,0,0.3,0,0.5-0.2c0.1-0.2,0.2-0.4,0.2-0.6
					c0-0.3-0.1-0.6-0.4-0.9s-0.6-0.4-1.1-0.5s-0.9,0-1.2,0.2C273.1,322.4,272.9,322.7,272.8,323.1L272.8,323.1z"/>
				<path class="st1" d="M273.2,318.8c0-0.1,0-0.2,0.1-0.3s0-0.2,0-0.3c0-0.1,0-0.2,0-0.3h0.1c0.1,0,0.1,0,0.1,0.1s0,0.1,0,0.2
					s0,0.2,0.1,0.2l0,0c0.1,0,1-0.1,2.6-0.4l-1.8-1.2c-0.1-0.1-0.2-0.1-0.3-0.1c-0.1,0-0.2,0-0.2,0.1c-0.1,0.1-0.1,0.2-0.2,0.3
					c0,0,0,0-0.1,0s-0.1,0-0.1-0.1s0.1-0.2,0.1-0.3s0.1-0.3,0.1-0.4s0.1-0.3,0.1-0.4c0-0.2,0-0.3,0-0.4h0.1c0.1,0,0.1,0,0.1,0.1
					s0,0.2,0,0.3s0.1,0.3,0.2,0.3l4,2.6c0.3,0.2,0.6,0.4,0.7,0.7c0.1,0.2,0.1,0.4,0.1,0.5s-0.1,0.2-0.2,0.2s-0.2,0.1-0.2,0
					c-0.1,0-0.2-0.1-0.3-0.2c0.1-0.5-0.1-0.9-0.5-1.2c-0.1-0.1-0.2-0.1-0.3-0.2c-0.1-0.1-0.2-0.1-0.3-0.2l-3.4,0.5
					c-0.2,0-0.3,0.1-0.4,0.1s-0.1,0.1-0.2,0.2s-0.1,0.2-0.1,0.2s0,0-0.1,0s-0.1,0-0.1-0.1C273.1,319.2,273.2,318.9,273.2,318.8
					L273.2,318.8z"/>
			</g>
		</g>
		<g>
			<g>
				<text transform="matrix(0.7565 -0.6539 0.6539 0.7565 265.3061 258.0368)" class="st1 st3 st46">e</text>
				<text transform="matrix(0.7912 -0.6115 0.6115 0.7912 269.3062 254.5771)" class="st1 st3 st41">n</text>
				<text transform="matrix(0.8229 -0.5681 0.5681 0.8229 274.4656 250.6167)" class="st1 st3 st47">a</text>
				<text transform="matrix(0.8513 -0.5247 0.5247 0.8513 278.7359 247.6766)" class="st1 st3 st40">b</text>
				<text transform="matrix(0.8732 -0.4874 0.4874 0.8732 283.9258 244.526)" class="st1 st3 st40">l</text>
				<text transform="matrix(0.8918 -0.4524 0.4524 0.8918 286.8057 242.9063)" class="st1 st3 st40">e</text>
				<text transform="matrix(0.9116 -0.411 0.411 0.9116 291.5251 240.5361)" class="st1 st3 st41">r</text>
				<text transform="matrix(0.9408 -0.3389 0.3389 0.9408 298.6657 237.4363)" class="st1 st3 st40">o</text>
				<text transform="matrix(0.9552 -0.2959 0.2959 0.9552 304.4458 235.3863)" class="st1 st3 st40">f</text>
				<text transform="matrix(0.687 -0.7267 0.7267 0.687 267.9652 274.3557)" class="st1 st3 st44">c</text>
				<text transform="matrix(0.7311 -0.6823 0.6823 0.7311 271.3758 270.7462)" class="st1 st3 st40">o</text>
				<text transform="matrix(0.7877 -0.6161 0.6161 0.7877 275.7856 266.5468)" class="st1 st3 st40">m</text>
				<text transform="matrix(0.848 -0.5299 0.5299 0.848 283.1355 260.8264)" class="st1 st3 st47">m</text>
				<text transform="matrix(0.8911 -0.4538 0.4538 0.8911 291.0859 255.9661)" class="st1 st3 st40">u</text>
				<text transform="matrix(0.9212 -0.3891 0.3891 0.9212 296.6158 253.1563)" class="st1 st3 st40">n</text>
				<text transform="matrix(0.9416 -0.3368 0.3368 0.9416 302.6558 250.6663)" class="st1 st3 st40">i</text>
				<text transform="matrix(0.9548 -0.2974 0.2974 0.9548 305.9163 249.5064)" class="st1 st3 st45">t</text>
				<text transform="matrix(0.9693 -0.246 0.246 0.9693 309.7458 248.3062)" class="st1 st3 st40">y</text>
				<text transform="matrix(0.7893 -0.614 0.614 0.7893 288.6359 276.7564)" class="st1 st3 st40">b</text>
				<text transform="matrix(0.841 -0.541 0.541 0.841 293.3558 273.0965)" class="st1 st3 st40">u</text>
				<text transform="matrix(0.8772 -0.4801 0.4801 0.8772 298.5859 269.8066)" class="st1 st3 st40">i</text>
				<text transform="matrix(0.9 -0.4359 0.4359 0.9 301.6557 268.1461)" class="st1 st3 st40">l</text>
				<text transform="matrix(0.9219 -0.3875 0.3875 0.9219 304.5956 266.7262)" class="st1 st3 st40">t</text>
			</g>
			<g>
				<path class="st1" d="M301.2,278.2c0.5-0.3,1-0.4,1.5-0.3s0.9,0.4,1.1,0.8c0.3,0.5,0.5,1,0.4,1.6s-0.4,1.1-0.8,1.4
					c-0.2,0.1-0.4,0.2-0.6,0.3s-0.3,0.1-0.3,0.2c0,0-0.1,0.1-0.1,0.2s-0.1,0.1-0.1,0.1h-0.1h-0.1c0,0,0-0.1-0.1-0.1
					s-0.1-0.2-0.2-0.4c-0.1-0.2-0.2-0.3-0.3-0.5l-2.2-3.1c-0.1-0.2-0.2-0.3-0.4-0.4c-0.1-0.1-0.2,0-0.5,0.2l-0.1,0.1
					c0,0-0.1,0-0.1-0.1c-0.1-0.1-0.1-0.1,0-0.2s0.3-0.2,0.4-0.3c0.1-0.1,0.2-0.2,0.2-0.3c0-0.1,0.1-0.1,0.1-0.2s0.1-0.1,0.1-0.1l0,0
					l0,0c0,0,0,0,0.1,0s0.1,0,0.1,0.1c0.1,0.2,0.2,0.4,0.4,0.7l0.9,1.3c0,0.1,0.1,0.1,0.1,0.1l0,0c0-0.1,0.1-0.2,0.2-0.4
					C301,278.4,301.1,278.3,301.2,278.2L301.2,278.2z M301.2,278.7c-0.1,0.1-0.2,0.2-0.3,0.4c0,0.2,0,0.3,0.1,0.4l1.2,1.8
					c0.1,0.2,0.3,0.2,0.5,0.2s0.4-0.1,0.6-0.2c0.3-0.2,0.4-0.5,0.4-0.9s-0.2-0.8-0.4-1.1c-0.3-0.4-0.6-0.7-1-0.8
					S301.6,278.5,301.2,278.7L301.2,278.7z"/>
				<path class="st1" d="M304.6,276.1c0.1-0.1,0.2-0.1,0.2-0.2c0.1-0.1,0.2-0.1,0.2-0.2c0.1-0.1,0.2-0.1,0.2-0.2l0.1,0.1
					c0,0.1,0,0.1,0,0.1s-0.1,0.1-0.2,0.2s-0.1,0.2-0.1,0.2l0,0c0.1,0.1,0.8,0.6,2.1,1.6l-0.4-2.1c0-0.1-0.1-0.2-0.1-0.3
					c0-0.1-0.1-0.1-0.2-0.1s-0.2,0-0.4,0.1c0,0,0,0-0.1-0.1c0-0.1,0-0.1,0-0.2c0.1,0,0.2-0.1,0.3-0.2c0.1-0.1,0.3-0.1,0.4-0.2
					s0.2-0.2,0.4-0.2s0.2-0.2,0.3-0.2l0.1,0.1c0,0.1,0,0.1,0,0.1c-0.1,0-0.1,0.1-0.2,0.2s-0.1,0.2-0.1,0.4l0.8,4.7
					c0.1,0.4,0.1,0.7,0,0.9c-0.1,0.2-0.2,0.4-0.3,0.4c-0.1,0.1-0.2,0.1-0.3,0c-0.1,0-0.2-0.1-0.2-0.2c-0.1-0.1-0.1-0.2,0-0.3
					c0.4-0.3,0.6-0.7,0.5-1.2c0-0.1,0-0.2-0.1-0.3s0-0.2-0.1-0.3l-2.8-2.1c-0.1-0.1-0.2-0.2-0.3-0.2c-0.1,0-0.2,0-0.3,0
					s-0.2,0.1-0.3,0.1c0,0,0,0-0.1-0.1c0-0.1,0-0.1,0-0.2C304.3,276.3,304.6,276.1,304.6,276.1L304.6,276.1z"/>
			</g>
		</g>
		<g>
			<g>
				<text transform="matrix(0.986 0.1669 -0.1669 0.986 350.1558 224.7464)" class="st1 st3 st28">c</text>
				<text transform="matrix(0.9768 0.2141 -0.2141 0.9768 354.8056 225.5364)" class="st1 st3 st28">o</text>
				<text transform="matrix(0.9637 0.2669 -0.2669 0.9637 360.4659 226.7863)" class="st1 st3 st28">n</text>
				<text transform="matrix(0.95 0.3122 -0.3122 0.95 366.3959 228.4566)" class="st1 st3 st28">s</text>
				<text transform="matrix(0.9364 0.351 -0.351 0.9364 370.4457 229.7963)" class="st1 st3 st28">c</text>
				<text transform="matrix(0.923 0.3848 -0.3848 0.923 374.8458 231.4663)" class="st1 st3 st28">i</text>
				<text transform="matrix(0.9061 0.4231 -0.4231 0.9061 377.8958 232.7163)" class="st1 st3 st28">o</text>
				<text transform="matrix(0.8821 0.471 -0.471 0.8821 383.1658 235.1964)" class="st1 st3 st28">u</text>
				<text transform="matrix(0.8592 0.5116 -0.5116 0.8592 388.3457 237.9965)" class="st1 st3 st28">s</text>
				<text transform="matrix(0.9996 -2.966505e-02 2.966505e-02 0.9996 331.3763 236.687)" class="st1 st3 st30">i</text>
				<text transform="matrix(0.9993 3.821341e-02 -3.821341e-02 0.9993 334.6158 236.5064)" class="st1 st3 st28">m</text>
				<text transform="matrix(0.9928 0.1196 -0.1196 0.9928 343.4158 236.9264)" class="st1 st3 st28">p</text>
				<text transform="matrix(0.9856 0.1688 -0.1688 0.9856 349.1959 237.6663)" class="st1 st3 st27">l</text>
				<text transform="matrix(0.977 0.213 -0.213 0.977 352.2357 238.1769)" class="st1 st3 st27">e</text>
				<text transform="matrix(0.9578 0.2874 -0.2874 0.9578 357.076 239.1663)" class="st1 st3 st28">m</text>
				<text transform="matrix(0.933 0.3598 -0.3598 0.933 365.4758 241.7863)" class="st1 st3 st28">e</text>
				<text transform="matrix(0.9089 0.4171 -0.4171 0.9089 370.1064 243.5669)" class="st1 st3 st30">n</text>
				<text transform="matrix(0.8842 0.4672 -0.4672 0.8842 375.6948 246.1758)" class="st1 st3 st31">t</text>
				<text transform="matrix(0.8601 0.5101 -0.5101 0.8601 379.016 247.9264)" class="st1 st3 st28">e</text>
				<text transform="matrix(0.832 0.5548 -0.5548 0.832 383.2659 250.4764)" class="st1 st3 st28">r</text>
				<text transform="matrix(0.7784 0.6278 -0.6278 0.7784 389.3058 254.6363)" class="st1 st3 st28">o</text>
				<text transform="matrix(0.7437 0.6685 -0.6685 0.7437 393.7958 258.3162)" class="st1 st3 st28">f</text>
				<text transform="matrix(0.9995 -3.228298e-02 3.228298e-02 0.9995 334.7658 249.2964)" class="st1 st3 st38">t</text>
				<text transform="matrix(0.9996 2.809610e-02 -2.809610e-02 0.9996 338.3058 249.1765)" class="st1 st3 st38">e</text>
				<text transform="matrix(0.9956 9.410475e-02 -9.410475e-02 0.9956 342.946 249.3272)" class="st1 st3 st48">c</text>
				<text transform="matrix(0.986 0.1668 -0.1668 0.986 347.3258 249.7263)" class="st1 st3 st38">h</text>
				<text transform="matrix(0.9688 0.2478 -0.2478 0.9688 352.8757 250.6764)" class="st1 st3 st38">n</text>
				<text transform="matrix(0.9453 0.3261 -0.3261 0.9453 358.4651 252.1357)" class="st1 st3 st49">o</text>
				<text transform="matrix(0.9238 0.3828 -0.3828 0.9238 363.5854 253.9564)" class="st1 st3 st38">l</text>
				<text transform="matrix(0.8986 0.4388 -0.4388 0.8986 366.286 255.0464)" class="st1 st3 st38">o</text>
				<text transform="matrix(0.8622 0.5066 -0.5066 0.8622 371.1555 257.4463)" class="st1 st3 st38">g</text>
				<text transform="matrix(0.83 0.5577 -0.5577 0.83 375.5464 260.0767)" class="st1 st3 st50">i</text>
				<text transform="matrix(0.7981 0.6025 -0.6025 0.7981 378.0856 261.7765)" class="st1 st3 st38">c</text>
				<text transform="matrix(0.7563 0.6542 -0.6542 0.7563 381.606 264.4462)" class="st1 st3 st38">a</text>
				<text transform="matrix(0.7186 0.6954 -0.6954 0.7186 385.0756 267.4964)" class="st1 st3 st38">l</text>
				<text transform="matrix(0.9999 -1.117030e-02 1.117030e-02 0.9999 331.3657 260.6565)" class="st1 st3 st29">i</text>
				<text transform="matrix(0.9983 5.774010e-02 -5.774010e-02 0.9983 334.6351 260.5867)" class="st1 st3 st33">n</text>
				<text transform="matrix(0.9892 0.1463 -0.1463 0.9892 340.7155 260.9562)" class="st1 st3 st29">n</text>
				<text transform="matrix(0.9729 0.2311 -0.2311 0.9729 346.7557 261.8663)" class="st1 st3 st28">o</text>
				<text transform="matrix(0.9506 0.3105 -0.3105 0.9506 352.346 263.2164)" class="st1 st3 st28">v</text>
				<text transform="matrix(0.9242 0.382 -0.382 0.9242 357.656 264.9867)" class="st1 st3 st32">a</text>
				<text transform="matrix(0.8984 0.4392 -0.4392 0.8984 362.1259 266.8664)" class="st1 st3 st28">t</text>
				<text transform="matrix(0.8745 0.485 -0.485 0.8745 365.486 268.5364)" class="st1 st3 st28">i</text>
				<text transform="matrix(0.8405 0.5419 -0.5419 0.8405 368.3454 270.086)" class="st1 st3 st31">o</text>
				<text transform="matrix(0.7901 0.613 -0.613 0.7901 373.1759 273.2063)" class="st1 st3 st34">n</text>
				<text transform="matrix(0.7412 0.6713 -0.6713 0.7412 377.9759 276.9965)" class="st1 st3 st28">s</text>
			</g>
			<g>
				<path class="st1" d="M351.5,272.8c0.6,0.2,1,0.5,1.2,1s0.3,0.9,0.1,1.4c-0.2,0.6-0.5,1-1,1.3s-1.1,0.4-1.6,0.2
					c-0.2-0.1-0.4-0.1-0.6-0.2s-0.3-0.2-0.3-0.2s-0.1,0-0.2,0s-0.1,0-0.1,0s-0.1,0-0.1-0.1l-0.1-0.1c0,0,0-0.1,0.1-0.1
					c0-0.1,0.1-0.2,0.2-0.4s0.1-0.4,0.2-0.6l1-3.7c0.1-0.2,0.1-0.4,0.1-0.6c0-0.1-0.1-0.2-0.4-0.3h-0.1v-0.1c0-0.1,0.1-0.1,0.1-0.1
					c0.2,0,0.4,0.1,0.5,0.1c0.2,0,0.3,0,0.4,0s0.2,0,0.2,0h0.1l0,0l0,0c0,0,0,0,0.1,0.1v0.1c-0.1,0.2-0.2,0.4-0.3,0.7l-0.4,1.6
					c0,0.1,0,0.1,0,0.1l0,0c0.1,0,0.2-0.1,0.4-0.1C351.2,272.7,351.4,272.8,351.5,272.8L351.5,272.8z M351.1,273.2
					c-0.2-0.1-0.3,0-0.5,0c-0.1,0.1-0.2,0.2-0.3,0.3l-0.6,2.1c0,0.2,0,0.3,0.1,0.5s0.3,0.2,0.6,0.3c0.3,0.1,0.6,0,0.9-0.2
					s0.5-0.6,0.6-1c0.1-0.5,0.1-0.9,0-1.2S351.5,273.3,351.1,273.2L351.1,273.2z"/>
				<path class="st1" d="M355.2,274.1c0.1,0,0.2,0.1,0.3,0.1c0.1,0,0.2,0.1,0.3,0.1c0.1,0,0.2,0.1,0.3,0.1v0.1
					c0,0.1-0.1,0.1-0.1,0.1s-0.1,0-0.2,0s-0.2,0-0.2,0.1l0,0c0,0.1,0,1,0.1,2.6l1.4-1.6c0.1-0.1,0.1-0.2,0.2-0.2c0-0.1,0-0.2,0-0.3
					c-0.1-0.1-0.2-0.2-0.3-0.2v-0.1c0-0.1,0.1-0.1,0.1-0.1c0.1,0,0.2,0.1,0.3,0.2c0.1,0.1,0.3,0.1,0.4,0.2s0.3,0.1,0.4,0.1
					s0.3,0.1,0.4,0.1v0.1c0,0.1-0.1,0.1-0.1,0.1c-0.1,0-0.2,0-0.3,0c-0.1,0-0.3,0.1-0.4,0.2l-3.1,3.6c-0.3,0.3-0.5,0.5-0.7,0.6
					s-0.4,0.1-0.5,0c-0.1,0-0.2-0.1-0.2-0.2s0-0.2,0-0.3c0-0.1,0.1-0.2,0.2-0.2c0.5,0.2,0.9,0.1,1.2-0.4c0.1-0.1,0.1-0.2,0.2-0.3
					s0.2-0.2,0.2-0.3l-0.1-3.5c0-0.2,0-0.3-0.1-0.4c0-0.1-0.1-0.2-0.2-0.2s-0.2-0.1-0.2-0.2v-0.1c0-0.1,0.1-0.1,0.1-0.1
					C354.9,274,355.2,274.1,355.2,274.1L355.2,274.1z"/>
			</g>
		</g>
		<g>
			<g>
				<text transform="matrix(-0.3774 0.9261 -0.9261 -0.3774 423.2954 370.1556)" class="st1 st3 st31">c</text>
				<text transform="matrix(-0.422 0.9066 -0.9066 -0.422 421.5145 374.5359)" class="st1 st3 st28">o</text>
				<text transform="matrix(-0.4712 0.882 -0.882 -0.4712 419.0652 379.7968)" class="st1 st3 st28">n</text>
				<text transform="matrix(-0.5201 0.8541 -0.8541 -0.5201 416.1562 385.2067)" class="st1 st3 st28">n</text>
				<text transform="matrix(-0.5628 0.8266 -0.8266 -0.5628 412.936 390.4566)" class="st1 st3 st28">e</text>
				<text transform="matrix(-0.5989 0.8008 -0.8008 -0.5989 410.1259 394.5559)" class="st1 st3 st28">c</text>
				<text transform="matrix(-0.6296 0.7769 -0.7769 -0.6296 407.2663 398.3465)" class="st1 st3 st28">t</text>
				<text transform="matrix(-0.6629 0.7487 -0.7487 -0.6629 404.9067 401.2765)" class="st1 st3 st28">o</text>
				<text transform="matrix(-0.6972 0.7169 -0.7169 -0.6972 401.0464 405.6067)" class="st1 st3 st28">r</text>
				<text transform="matrix(-0.7479 0.6638 -0.6638 -0.7479 395.8267 410.8267)" class="st1 st3 st28">o</text>
				<text transform="matrix(-0.7757 0.6311 -0.6311 -0.7757 391.4665 414.6467)" class="st1 st3 st28">f</text>
				<text transform="matrix(-0.378 0.9258 -0.9258 -0.378 410.1849 364.3661)" class="st1 st3 st28">p</text>
				<text transform="matrix(-0.4335 0.9012 -0.9012 -0.4335 407.9649 369.7367)" class="st1 st3 st31">e</text>
				<text transform="matrix(-0.4873 0.8733 -0.8733 -0.4873 405.8145 374.2057)" class="st1 st3 st35">o</text>
				<text transform="matrix(-0.543 0.8397 -0.8397 -0.543 402.9865 379.2465)" class="st1 st3 st28">p</text>
				<text transform="matrix(-0.5842 0.8116 -0.8116 -0.5842 399.7849 384.1161)" class="st1 st3 st28">l</text>
				<text transform="matrix(-0.6202 0.7845 -0.7845 -0.6202 397.9857 386.6267)" class="st1 st3 st31">e</text>
				<text transform="matrix(-0.6862 0.7274 -0.7274 -0.6862 393.0055 392.6962)" class="st1 st3 st28">a</text>
				<text transform="matrix(-0.7297 0.6838 -0.6838 -0.7297 389.6573 396.2566)" class="st1 st3 st28">n</text>
				<text transform="matrix(-0.7732 0.6342 -0.6342 -0.7732 385.1573 400.4371)" class="st1 st3 st28">d</text>
				<text transform="matrix(-0.3002 0.9539 -0.9539 -0.3002 396.8661 353.9564)" class="st1 st3 st28">g</text>
				<text transform="matrix(-0.3775 0.926 -0.926 -0.3775 395.2463 359.0863)" class="st1 st3 st28">o</text>
				<text transform="matrix(-0.4537 0.8912 -0.8912 -0.4537 393.0447 364.4153)" class="st1 st3 st30">v</text>
				<text transform="matrix(-0.5206 0.8538 -0.8538 -0.5206 390.4962 369.3662)" class="st1 st3 st28">e</text>
				<text transform="matrix(-0.5781 0.8159 -0.8159 -0.5781 387.8961 373.5956)" class="st1 st3 st32">r</text>
				<text transform="matrix(-0.6386 0.7695 -0.7695 -0.6386 385.3774 377.1866)" class="st1 st3 st28">n</text>
				<text transform="matrix(-0.698 0.7161 -0.7161 -0.698 381.4457 381.8561)" class="st1 st3 st28">a</text>
				<text transform="matrix(-0.7529 0.6582 -0.6582 -0.7529 378.0652 385.3263)" class="st1 st3 st31">n</text>
				<text transform="matrix(-0.8023 0.5969 -0.5969 -0.8023 373.4365 389.3266)" class="st1 st3 st28">c</text>
				<text transform="matrix(-0.8424 0.5389 -0.5389 -0.8424 369.6756 392.1063)" class="st1 st3 st28">e</text>
			</g>
			<g>
				<path class="st1" d="M382.4,369.6c-0.3,0.5-0.8,0.8-1.3,0.8c-0.5,0.1-1,0-1.4-0.3c-0.5-0.3-0.8-0.8-0.9-1.4s0-1.1,0.2-1.6
					c0.1-0.2,0.3-0.4,0.4-0.5s0.2-0.2,0.2-0.3c0-0.1,0-0.1,0.1-0.2c0-0.1,0-0.1,0-0.2c0,0,0-0.1,0.1-0.1s0.1,0,0.1,0s0,0,0.1,0.1
					s0.2,0.2,0.3,0.3s0.3,0.2,0.5,0.4l3.2,2.1c0.2,0.1,0.4,0.2,0.5,0.3c0.1,0,0.2-0.1,0.4-0.3v-0.1h0.1c0.1,0.1,0.1,0.1,0.1,0.1
					c-0.1,0.2-0.2,0.3-0.2,0.5s-0.1,0.3-0.1,0.4s0,0.2,0,0.2c0,0.1,0,0.1,0,0.2v0.1l0,0c0,0,0,0-0.1,0h-0.1
					c-0.1-0.2-0.3-0.3-0.6-0.5l-1.4-0.9c0,0-0.1-0.1-0.1,0l0,0c0,0.1,0,0.2,0,0.4C382.5,369.4,382.5,369.6,382.4,369.6L382.4,369.6z
					 M382.1,369.1c0.1-0.1,0.1-0.3,0.1-0.4s-0.1-0.3-0.2-0.4l-1.8-1.2c-0.2-0.1-0.3-0.1-0.5,0s-0.3,0.2-0.5,0.4
					c-0.2,0.3-0.2,0.6,0,1s0.4,0.6,0.8,0.9s0.8,0.4,1.2,0.3C381.6,369.7,381.9,369.5,382.1,369.1L382.1,369.1z"/>
				<path class="st1" d="M380,372.8c-0.1,0.1-0.1,0.2-0.2,0.2c0,0.1-0.1,0.2-0.2,0.2c-0.1,0.1-0.1,0.2-0.2,0.2c0,0-0.1,0-0.1-0.1
					c-0.1-0.1-0.1-0.1-0.1-0.1s0.1-0.1,0.1-0.2s0-0.2,0-0.2l0,0c-0.1-0.1-0.9-0.3-2.5-0.7l1.2,1.8c0.1,0.1,0.1,0.2,0.2,0.2
					c0.1,0.1,0.2,0.1,0.3,0c0.1,0,0.2-0.1,0.3-0.2c0,0,0,0,0.1,0.1s0.1,0.1,0.1,0.1c0,0.1-0.1,0.2-0.2,0.3c-0.1,0.1-0.2,0.2-0.3,0.3
					c-0.1,0.1-0.2,0.2-0.3,0.4s-0.2,0.2-0.2,0.3c0,0-0.1,0-0.1-0.1c-0.1-0.1-0.1-0.1-0.1-0.1c0-0.1,0.1-0.2,0.1-0.3
					c0-0.1,0-0.3,0-0.4l-2.5-4c-0.2-0.3-0.3-0.6-0.3-0.9c0-0.2,0-0.4,0.1-0.5s0.2-0.2,0.3-0.2c0.1,0,0.2,0,0.2,0.1
					c0.1,0.1,0.2,0.2,0.1,0.3c-0.3,0.4-0.3,0.8,0,1.3c0,0.1,0.1,0.2,0.2,0.3c0.1,0.1,0.1,0.2,0.2,0.3l3.4,0.9c0.2,0,0.3,0.1,0.4,0.1
					s0.2-0.1,0.3-0.1c0.1-0.1,0.2-0.1,0.2-0.2c0,0,0,0,0.1,0c0.1,0.1,0.1,0.1,0.1,0.1C380.3,372.6,380,372.8,380,372.8L380,372.8z"
					/>
			</g>
		</g>
		<g>
			<g>
				<text transform="matrix(0.4199 0.9076 -0.9076 0.4199 431.0456 279.9364)" class="st1 st3 st40">i</text>
				<text transform="matrix(0.3775 0.926 -0.926 0.3775 432.5265 283.0963)" class="st1 st3 st40">n</text>
				<text transform="matrix(0.3236 0.9462 -0.9462 0.3236 434.9761 289.1363)" class="st1 st3 st40">v</text>
				<text transform="matrix(0.2704 0.9627 -0.9627 0.2704 436.8861 294.7563)" class="st1 st3 st42">o</text>
				<text transform="matrix(0.228 0.9737 -0.9737 0.228 438.5151 300.7156)" class="st1 st3 st44">l</text>
				<text transform="matrix(0.1858 0.9826 -0.9826 0.1858 439.2858 303.9365)" class="st1 st3 st40">v</text>
				<text transform="matrix(0.135 0.9908 -0.9908 0.135 440.3757 309.7963)" class="st1 st3 st42">e</text>
				<text transform="matrix(8.941577e-02 0.996 -0.996 8.941577e-02 441.0652 315.0264)" class="st1 st3 st40">r</text>
				<text transform="matrix(1.186797e-02 0.9999 -0.9999 1.186797e-02 441.6559 322.7964)" class="st1 st3 st40">o</text>
				<text transform="matrix(-3.315356e-02 0.9995 -0.9995 -3.315356e-02 441.6855 328.9662)" class="st1 st3 st43">f</text>
				<text transform="matrix(0.5606 0.8281 -0.8281 0.5606 410.2457 277.0266)" class="st1 st3 st28">h</text>
				<text transform="matrix(0.5044 0.8635 -0.8635 0.5044 413.5958 281.9965)" class="st1 st3 st28">u</text>
				<text transform="matrix(0.4318 0.902 -0.902 0.4318 416.576 287.0063)" class="st1 st3 st28">m</text>
				<text transform="matrix(0.3608 0.9326 -0.9326 0.3608 420.2957 294.9955)" class="st1 st3 st29">a</text>
				<text transform="matrix(0.302 0.9533 -0.9533 0.302 422.066 299.5465)" class="st1 st3 st28">n</text>
				<text transform="matrix(0.2453 0.9694 -0.9694 0.2453 423.886 305.4366)" class="st1 st3 st27">s</text>
				<text transform="matrix(0.1632 0.9866 -0.9866 0.1632 425.506 312.3363)" class="st1 st3 st28">a</text>
				<text transform="matrix(0.1018 0.9948 -0.9948 0.1018 426.3062 317.1464)" class="st1 st3 st28">n</text>
				<text transform="matrix(3.577024e-02 0.9994 -0.9994 3.577024e-02 426.9067 323.2663)" class="st1 st3 st30">d</text>
				<text transform="matrix(-6.122278e-02 0.9981 -0.9981 -6.122278e-02 427.0668 331.8064)" class="st1 st3 st28">n</text>
				<text transform="matrix(-0.1272 0.9919 -0.9919 -0.1272 426.6744 337.9265)" class="st1 st3 st28">o</text>
				<text transform="matrix(-0.1934 0.9811 -0.9811 -0.1934 425.9254 343.6664)" class="st1 st3 st28">n</text>
				<text transform="matrix(0.5023 0.8647 -0.8647 0.5023 400.1855 291.9164)" class="st1 st3 st28">h</text>
				<text transform="matrix(0.4255 0.905 -0.905 0.4255 403.1757 297.0863)" class="st1 st3 st30">u</text>
				<text transform="matrix(0.3264 0.9452 -0.9452 0.3264 405.6862 302.2965)" class="st1 st3 st28">m</text>
				<text transform="matrix(0.2297 0.9733 -0.9733 0.2297 408.4467 310.6362)" class="st1 st3 st30">a</text>
				<text transform="matrix(0.1506 0.9886 -0.9886 0.1506 409.5663 315.3463)" class="st1 st3 st28">n</text>
				<text transform="matrix(7.567727e-02 0.9971 -0.9971 7.567727e-02 410.4361 321.3863)" class="st1 st3 st33">s</text>
				<text transform="matrix(-3.542275e-02 0.9994 -0.9994 -3.542275e-02 410.815 328.4364)" class="st1 st3 st28">b</text>
				<text transform="matrix(-0.1155 0.9933 -0.9933 -0.1155 410.5849 334.0862)" class="st1 st3 st28">y</text>
			</g>
			<g>
				<path class="st1" d="M397.8,314.2c0.2,0.6,0.1,1.1-0.1,1.5s-0.6,0.7-1,0.9c-0.5,0.2-1.1,0.2-1.7-0.1c-0.6-0.3-0.9-0.7-1.1-1.1
					c-0.1-0.2-0.1-0.4-0.1-0.6s0-0.3-0.1-0.3c0-0.1-0.1-0.1-0.1-0.2c-0.1-0.1-0.1-0.1-0.1-0.1v-0.1c0-0.1,0-0.1,0-0.1s0,0,0.1,0
					s0.2,0,0.4-0.1s0.4-0.1,0.6-0.2l3.6-1.2c0.2-0.1,0.4-0.2,0.5-0.2c0.1-0.1,0.1-0.2,0-0.5v-0.1c0,0,0-0.1,0.1-0.1s0.1,0,0.2,0
					c0.1,0.2,0.1,0.3,0.2,0.5c0.1,0.1,0.1,0.2,0.2,0.3c0.1,0.1,0.1,0.1,0.2,0.2c0,0.1,0.1,0.1,0.1,0.1l0,0l0,0v0.1
					c0,0,0,0.1-0.1,0.1c-0.2,0-0.5,0.1-0.8,0.2l-1.5,0.5c-0.1,0-0.1,0-0.1,0.1l0,0c0.1,0.1,0.2,0.2,0.3,0.3
					C397.7,313.9,397.8,314.1,397.8,314.2L397.8,314.2z M397.3,314c-0.1-0.2-0.1-0.3-0.3-0.4c-0.1-0.1-0.3-0.1-0.5,0l-2,0.7
					c-0.2,0.1-0.3,0.2-0.3,0.4c0,0.2,0,0.4,0.1,0.6c0.1,0.3,0.4,0.5,0.7,0.6c0.4,0.1,0.8,0.1,1.2-0.1c0.5-0.2,0.8-0.4,1-0.7
					C397.4,314.8,397.4,314.4,397.3,314L397.3,314z"/>
				<path class="st1" d="M398.9,318c0,0.1,0,0.2,0.1,0.3c0,0.1,0.1,0.2,0.1,0.3s0.1,0.2,0.1,0.3c0,0-0.1,0-0.1,0.1
					c-0.1,0-0.1,0-0.1,0c0-0.1,0-0.1-0.1-0.2s-0.1-0.2-0.2-0.2l0,0c-0.1,0-0.8,0.5-2.1,1.5l2.1,0.2c0.1,0,0.2,0,0.3,0
					c0.1,0,0.1-0.1,0.2-0.2c0-0.1,0-0.2,0-0.4c0,0,0,0,0.1-0.1c0.1,0,0.1,0,0.1,0c0,0.1,0,0.2,0.1,0.4s0.1,0.3,0.1,0.4
					s0.1,0.3,0.1,0.4s0.1,0.3,0.1,0.3s-0.1,0-0.1,0.1c-0.1,0-0.1,0-0.1,0c0-0.1-0.1-0.2-0.2-0.3s-0.2-0.2-0.3-0.2l-4.7-0.5
					c-0.4-0.1-0.7-0.1-0.9-0.3c-0.2-0.1-0.3-0.3-0.3-0.4s0-0.2,0-0.3c0.1-0.1,0.1-0.1,0.2-0.2c0.1,0,0.2,0,0.3,0.1
					c0.1,0.5,0.5,0.8,1,0.8c0.1,0,0.2,0,0.4,0c0.1,0,0.2,0,0.3,0l2.8-2.1c0.1-0.1,0.2-0.2,0.3-0.2c0-0.1,0.1-0.2,0.1-0.3
					c0-0.1,0-0.2,0-0.3c0,0,0-0.1,0.1-0.1s0.1,0,0.1,0C398.8,317.6,398.9,318,398.9,318L398.9,318z"/>
			</g>
		</g>
	</g>
</g>
<g id="uuid-442945ee-592e-45dc-9b7e-b759f8466858">
	<polygon class="st51" points="112.2,348.6 305.5,115.5 466,271.1 359.5,250.5 	"/>
	<circle class="st52" cx="360.1" cy="251.7" r="21.8"/>
	<circle class="st52" cx="463.2" cy="270.5" r="21.8"/>
	<circle class="st52" cx="112.2" cy="347.9" r="21.8"/>
	<circle class="st52" cx="305.9" cy="115.1" r="21.8"/>
</g>
</svg>
