<?xml version="1.0" encoding="UTF-8"?>
<svg id="Layer_1" data-name="Layer 1" xmlns="http://www.w3.org/2000/svg" viewBox="0 0 423.54 438.1">
  <defs>
    <style>
      .cls-1, .cls-2, .cls-3, .cls-4 {
        fill: #8a95b3;
      }

      .cls-5 {
        fill: #464764;
      }

      .cls-6 {
        letter-spacing: .06em;
      }

      .cls-7, .cls-8, .cls-9, .cls-10, .cls-11 {
        fill: none;
        stroke: #464764;
        stroke-miterlimit: 10;
      }

      .cls-7, .cls-10 {
        stroke-width: .66px;
      }

      .cls-2 {
        font-family: Larken-Black, Larken-Black;
      }

      .cls-2, .cls-3, .cls-4 {
        font-size: 23.79px;
      }

      .cls-12 {
        font-family: CrimsonText-Italic, 'Crimson Text';
      }

      .cls-8 {
        stroke-dasharray: 0 0 1.66 3.32;
      }

      .cls-8, .cls-11 {
        stroke-width: .63px;
      }

      .cls-13 {
        letter-spacing: .07em;
      }

      .cls-9 {
        stroke-width: 2px;
      }

      .cls-10 {
        stroke-dasharray: 0 0 1.8 3.6;
      }

      .cls-14 {
        letter-spacing: .02em;
      }

      .cls-15 {
        letter-spacing: .08em;
      }

      .cls-16 {
        letter-spacing: .08em;
      }

      .cls-17, .cls-4 {
        font-family: CrimsonText-Regular, 'Crimson Text';
      }

      .cls-18 {
        letter-spacing: .08em;
      }

      .cls-19 {
        letter-spacing: .08em;
      }

      .cls-20 {
        letter-spacing: .08em;
      }
    </style>
  </defs>
  <text class="cls-2" transform="translate(8.87 120.16)"><tspan class="cls-16" x="0" y="0" xml:space="preserve">THE  </tspan><tspan class="cls-19" x="68.58" y="0">D</tspan><tspan class="cls-15" x="87.71" y="0">E</tspan><tspan class="cls-13" x="104.5" y="0">S</tspan><tspan class="cls-18" x="121.29" y="0">I</tspan><tspan class="cls-6" x="131.14" y="0">G</tspan><tspan class="cls-16" x="150.29" y="0" xml:space="preserve">N  P</tspan><tspan class="cls-14" x="201.41" y="0">R</tspan><tspan class="cls-20" x="219.3" y="0">O</tspan><tspan class="cls-16" x="239.04" y="0">BLEM</tspan></text>
  <g>
    <path class="cls-1" d="M15.75,.24V6.23h-.12s-.13-.16-.35-.49-.5-.72-.86-1.19c-.36-.47-.74-.94-1.15-1.41-.41-.48-.87-.88-1.38-1.2-.51-.33-.98-.49-1.43-.49h-.21V13.3c0,.33,.02,.69,.07,1.08s.11,.75,.19,1.07,.15,.62,.23,.89c.07,.27,.13,.49,.18,.65,.05,.17,.07,.26,.07,.27v.1H4.76v-.1s.02-.11,.07-.27c.05-.16,.11-.38,.18-.65,.07-.27,.15-.57,.23-.89,.08-.33,.14-.68,.19-1.07s.07-.75,.07-1.08V1.45h-.21c-.43,0-.9,.16-1.4,.49-.51,.33-.97,.73-1.39,1.2s-.81,.95-1.17,1.41c-.36,.47-.64,.87-.86,1.19s-.33,.49-.35,.49h-.12V.24H15.75Z"/>
    <path class="cls-1" d="M18.67,17.27s.02-.11,.07-.27c.05-.16,.11-.38,.18-.65,.07-.27,.15-.57,.23-.89s.14-.68,.19-1.07,.07-.75,.07-1.08V4.31c0-.33-.02-.69-.07-1.08s-.11-.75-.19-1.07-.15-.62-.23-.89c-.07-.27-.13-.49-.18-.65-.05-.17-.07-.26-.07-.27v-.1h6.23v.1s-.02,.11-.07,.27c-.05,.16-.11,.38-.18,.65-.07,.27-.15,.57-.23,.89s-.14,.68-.19,1.07-.07,.75-.07,1.08v3.93h5.26v-3.93c0-.33-.02-.69-.07-1.08-.05-.39-.11-.75-.18-1.07-.07-.33-.15-.62-.23-.89-.08-.27-.14-.49-.19-.65-.05-.17-.07-.26-.07-.27v-.1h6.23v.1s-.03,.11-.07,.27c-.05,.16-.11,.38-.19,.65-.08,.27-.16,.57-.22,.89-.07,.33-.13,.68-.18,1.07-.05,.39-.07,.75-.07,1.08V13.3c0,.33,.03,.69,.07,1.08,.05,.39,.11,.75,.18,1.07,.07,.33,.14,.62,.22,.89,.08,.27,.14,.49,.19,.65,.05,.17,.07,.26,.07,.27v.1h-6.23v-.1s.02-.11,.07-.27c.05-.16,.11-.38,.19-.65,.08-.27,.15-.57,.23-.89,.07-.33,.13-.68,.18-1.07,.05-.39,.07-.75,.07-1.08v-3.88h-5.26v3.88c0,.33,.02,.69,.07,1.08s.11,.75,.19,1.07,.16,.62,.23,.89c.07,.27,.13,.49,.18,.65,.05,.17,.07,.26,.07,.27v.1h-6.23v-.1Z"/>
    <path class="cls-1" d="M38.56,.33v-.1h13.08V5.4h-.12s-.13-.14-.34-.42c-.22-.28-.5-.61-.86-1.01-.36-.39-.74-.79-1.15-1.19-.41-.39-.87-.73-1.38-1.01-.51-.28-.98-.42-1.43-.42h-2.31v6.8h.22c.44,0,.92-.05,1.43-.15,.51-.1,.97-.23,1.38-.37,.41-.14,.8-.29,1.15-.43,.36-.14,.64-.26,.86-.37,.21-.1,.33-.16,.34-.16h.12v3.9h-.12s-.13-.05-.34-.15c-.22-.1-.5-.23-.86-.37s-.74-.29-1.15-.43c-.41-.14-.87-.26-1.38-.37-.51-.1-.98-.16-1.43-.16h-.22v7.14h2.38c.44,0,.92-.14,1.43-.42,.51-.28,.97-.61,1.38-1.01,.41-.4,.8-.8,1.15-1.2,.36-.41,.64-.75,.86-1.02,.21-.28,.33-.42,.34-.42h.12v5.19h-13.15v-.1s.03-.11,.07-.27c.05-.16,.11-.38,.18-.65,.07-.27,.15-.57,.23-.89,.08-.33,.14-.68,.19-1.07,.05-.39,.07-.75,.07-1.08V4.31c0-.33-.02-.69-.07-1.08-.05-.39-.11-.75-.19-1.07-.08-.33-.16-.62-.23-.89-.07-.27-.13-.49-.18-.65-.05-.17-.07-.26-.07-.27Z"/>
    <path class="cls-1" d="M69.36,16.99c.05-.16,.11-.37,.18-.64,.07-.27,.15-.57,.23-.89,.08-.33,.14-.68,.19-1.07,.05-.39,.07-.75,.07-1.08V4.31c0-.33-.02-.69-.07-1.08-.05-.39-.11-.75-.19-1.07-.08-.33-.16-.62-.23-.89-.07-.27-.13-.49-.18-.65-.05-.17-.07-.26-.07-.27v-.1h7.49c2.41,0,4.41,.79,6.01,2.35,1.59,1.57,2.39,3.63,2.39,6.19s-.8,4.7-2.39,6.26c-1.59,1.55-3.6,2.33-6.01,2.33h-7.49v-.1s.03-.11,.07-.29Zm5.97-.71c.83,0,1.55-.22,2.16-.64,.62-.43,1.09-1.01,1.43-1.75s.57-1.53,.73-2.38c.15-.85,.23-1.75,.23-2.72s-.08-1.82-.23-2.65c-.15-.83-.39-1.63-.73-2.38-.33-.75-.81-1.35-1.43-1.78-.62-.44-1.34-.65-2.16-.65h-.55v14.96h.55Z"/>
    <path class="cls-1" d="M88.42,.33v-.1h13.08V5.4h-.12s-.13-.14-.34-.42c-.22-.28-.5-.61-.86-1.01-.36-.39-.74-.79-1.15-1.19-.41-.39-.87-.73-1.38-1.01-.51-.28-.98-.42-1.43-.42h-2.31v6.8h.22c.44,0,.92-.05,1.43-.15,.51-.1,.97-.23,1.38-.37,.41-.14,.8-.29,1.15-.43,.36-.14,.64-.26,.86-.37,.21-.1,.33-.16,.34-.16h.12v3.9h-.12s-.13-.05-.34-.15c-.22-.1-.5-.23-.86-.37s-.74-.29-1.15-.43c-.41-.14-.87-.26-1.38-.37-.51-.1-.98-.16-1.43-.16h-.22v7.14h2.38c.44,0,.92-.14,1.43-.42,.51-.28,.97-.61,1.38-1.01,.41-.4,.8-.8,1.15-1.2,.36-.41,.64-.75,.86-1.02,.21-.28,.33-.42,.34-.42h.12v5.19h-13.15v-.1s.03-.11,.07-.27c.05-.16,.11-.38,.18-.65,.07-.27,.15-.57,.23-.89,.08-.33,.14-.68,.19-1.07,.05-.39,.07-.75,.07-1.08V4.31c0-.33-.02-.69-.07-1.08-.05-.39-.11-.75-.19-1.07-.08-.33-.16-.62-.23-.89-.07-.27-.13-.49-.18-.65-.05-.17-.07-.26-.07-.27Z"/>
    <path class="cls-1" d="M104.97,5.5c0-1.49,.61-2.78,1.83-3.86s2.92-1.63,5.11-1.63c1.66,0,3.7,.39,6.11,1.17V5.78h-.14c-.1-.08-.67-.62-1.73-1.62-1.05-1-1.97-1.74-2.73-2.22s-1.51-.72-2.22-.72c-.64,0-1.13,.18-1.49,.55s-.54,.79-.54,1.28c0,.33,.08,.64,.25,.9,.16,.27,.44,.52,.83,.76,.39,.24,.74,.43,1.05,.58,.31,.15,.78,.35,1.4,.62s1.09,.46,1.39,.58c3.2,1.44,4.8,3.37,4.8,5.78,0,1.73-.69,3.06-2.06,3.98-1.37,.93-3.02,1.39-4.94,1.39-2.08,0-4.27-.44-6.57-1.31v-4.64h.19c.19,.16,.58,.52,1.17,1.08,.59,.56,1.06,1,1.43,1.31,.36,.31,.82,.67,1.37,1.08s1.07,.72,1.57,.91c.5,.2,.98,.3,1.44,.3,.56,0,1.04-.17,1.45-.51,.41-.34,.62-.84,.62-1.49,0-.38-.09-.73-.27-1.05-.18-.32-.38-.58-.6-.8s-.57-.45-1.06-.71-.89-.46-1.19-.58c-.3-.13-.79-.33-1.48-.59-.73-.29-1.34-.56-1.84-.82-.5-.26-1.02-.6-1.56-1.01-.54-.41-.94-.9-1.21-1.45s-.4-1.18-.4-1.88Z"/>
    <path class="cls-1" d="M122.05,.33v-.1h6.23v.1s-.02,.11-.07,.27c-.05,.16-.11,.38-.18,.65-.07,.27-.15,.57-.23,.89-.08,.33-.14,.68-.19,1.07-.05,.39-.07,.75-.07,1.08V13.3c0,.33,.02,.69,.07,1.08,.05,.39,.11,.75,.19,1.07,.08,.33,.15,.62,.23,.89,.07,.27,.13,.49,.18,.65,.05,.17,.07,.26,.07,.27v.1h-6.23v-.1s.02-.11,.07-.27c.05-.16,.11-.38,.18-.65,.07-.27,.15-.57,.23-.89s.14-.68,.19-1.07c.05-.39,.07-.75,.07-1.08V4.31c0-.33-.02-.69-.07-1.08-.05-.39-.11-.75-.19-1.07s-.15-.62-.23-.89c-.07-.27-.13-.49-.18-.65-.05-.17-.07-.26-.07-.27Z"/>
    <path class="cls-1" d="M134.14,2.55c1.7-1.7,3.83-2.55,6.4-2.55,1.89,0,4,.45,6.35,1.33V6.45h-.21s-.14-.23-.42-.63c-.28-.4-.53-.76-.75-1.06-.22-.3-.54-.69-.95-1.17s-.8-.87-1.17-1.18c-.37-.31-.78-.58-1.26-.82-.48-.24-.94-.36-1.38-.36h-.05c-1.14,0-2.04,.69-2.71,2.06-.67,1.37-1,3.21-1,5.51s.35,4.14,1.03,5.52c.69,1.38,1.68,2.08,2.96,2.09,.58,0,1.2-.13,1.83-.38v-3.47c0-.33-.06-.69-.19-1.08s-.28-.75-.45-1.07c-.18-.33-.35-.62-.54-.89-.18-.27-.34-.49-.46-.65s-.19-.26-.19-.27v-.1h6.97v.1s-.01,.11-.04,.27-.05,.38-.1,.65-.08,.57-.12,.89c-.04,.33-.07,.68-.1,1.07-.03,.39-.04,.75-.04,1.08v3.19c-.86,.44-1.99,.87-3.4,1.27-1.41,.4-2.77,.61-4.09,.61-2.46,0-4.49-.82-6.1-2.46s-2.41-3.76-2.41-6.36c0-2.46,.86-4.54,2.57-6.26Z"/>
    <path class="cls-1" d="M150.93,17.37v-.14s.05-.15,.16-.4c.1-.25,.23-.58,.37-.99,.14-.4,.29-.85,.43-1.33s.27-1.02,.37-1.61c.1-.58,.15-1.13,.15-1.64V4.31c0-.33-.04-.69-.11-1.08s-.16-.75-.27-1.07c-.11-.33-.22-.62-.33-.89-.11-.27-.2-.49-.27-.65-.07-.17-.11-.26-.11-.27v-.1h5.71l7.64,11.3V6.33c0-.51-.05-1.06-.15-1.64-.1-.58-.23-1.12-.37-1.59-.14-.48-.29-.92-.43-1.32-.14-.4-.27-.73-.37-.99-.1-.25-.16-.39-.16-.4V.24h4.16v.14s-.05,.15-.16,.4-.23,.58-.37,.99c-.14,.41-.29,.84-.43,1.32-.14,.48-.27,1.01-.37,1.59-.1,.59-.15,1.13-.15,1.64v11.04h-2.97l-9.28-13.58v7.47c0,.51,.05,1.06,.15,1.64,.1,.59,.23,1.12,.37,1.61,.14,.48,.29,.93,.43,1.33,.14,.41,.27,.73,.37,.99,.1,.25,.16,.39,.16,.4v.14h-4.16Z"/>
    <path class="cls-1" d="M184.66,17.27s.02-.11,.07-.27c.05-.16,.11-.38,.19-.65,.08-.27,.15-.57,.23-.89s.13-.68,.18-1.07c.05-.39,.07-.75,.07-1.08V4.31c0-.33-.02-.69-.07-1.08-.05-.39-.11-.75-.18-1.07s-.15-.62-.23-.89c-.08-.27-.14-.49-.19-.65-.05-.17-.07-.26-.07-.27v-.1h8.61c1.67,0,3.03,.5,4.09,1.49s1.59,2.21,1.59,3.65c0,1.16-.35,2.15-1.03,2.96-.69,.82-1.52,1.4-2.5,1.74-.98,.34-2.02,.51-3.13,.51h-2.14v2.71c0,.33,.02,.69,.07,1.08,.05,.39,.11,.75,.18,1.07s.15,.62,.23,.89c.08,.27,.14,.49,.19,.65,.05,.17,.07,.26,.07,.27v.1h-6.23v-.1Zm5.5-7.9h1.43c.51,0,.93-.13,1.27-.4,.34-.27,.59-.63,.75-1.08s.27-.87,.32-1.26,.08-.8,.08-1.25c0-.4-.03-.79-.08-1.18s-.16-.8-.32-1.25-.41-.8-.75-1.08c-.34-.28-.76-.42-1.27-.42h-1.43v7.92Z"/>
    <path class="cls-1" d="M202.2,16.99c.05-.16,.11-.37,.18-.64,.07-.27,.15-.57,.23-.89,.08-.33,.14-.68,.19-1.07,.05-.39,.07-.75,.07-1.08V4.31c0-.33-.02-.69-.07-1.08-.05-.39-.11-.75-.19-1.07-.08-.33-.16-.62-.23-.89-.07-.27-.13-.49-.18-.65-.05-.17-.07-.26-.07-.27v-.1h8.71c1.68,0,3.05,.41,4.12,1.24,1.06,.82,1.59,1.88,1.59,3.16,0,1.35-.48,2.38-1.44,3.1-.96,.72-2.3,1.14-4.01,1.25,1.82,.32,3.21,1.25,4.16,2.78,.27,.43,.6,1.05,1,1.87,.4,.82,.78,1.52,1.15,2.11,.37,.59,.8,1.09,1.3,1.5v.12h-5.66c-.52-.41-1.28-1.82-2.28-4.21-.86-2.01-1.9-3.26-3.14-3.73v3.88c0,.33,.02,.69,.07,1.08s.11,.75,.19,1.07,.15,.62,.23,.89c.07,.27,.13,.49,.18,.65,.05,.17,.07,.26,.07,.27v.1h-6.23v-.1s.03-.11,.07-.29Zm5.42-15.77v7.11h1.52c1.55,0,2.33-1.14,2.33-3.43,0-1.11-.19-2-.57-2.68-.38-.67-.97-1.01-1.76-1.01h-1.52Z"/>
    <path class="cls-1" d="M222.1,2.43c1.59-1.62,3.59-2.43,6.02-2.43s4.41,.81,6.01,2.44c1.59,1.63,2.39,3.75,2.39,6.36s-.8,4.76-2.39,6.39c-1.59,1.63-3.59,2.44-6.01,2.44s-4.43-.81-6.02-2.44c-1.59-1.62-2.38-3.75-2.38-6.39s.79-4.76,2.38-6.38Zm2.93,6.42c0,1.11,.09,2.22,.27,3.32,.18,1.1,.52,2.11,1.01,3.01s1.09,1.36,1.81,1.36,1.32-.46,1.81-1.38c.49-.92,.83-1.94,1.01-3.06s.27-2.23,.27-3.34-.09-2.19-.27-3.29c-.18-1.1-.52-2.1-1.01-3.01-.49-.9-1.09-1.36-1.81-1.36s-1.32,.46-1.81,1.38c-.49,.92-.83,1.94-1.01,3.06-.18,1.12-.27,2.22-.27,3.32Z"/>
    <path class="cls-1" d="M239.83,16.99c.05-.16,.11-.37,.18-.64,.07-.27,.15-.57,.23-.89,.08-.33,.14-.68,.19-1.07,.05-.39,.07-.75,.07-1.08V4.31c0-.33-.02-.69-.07-1.08-.05-.39-.11-.75-.19-1.07-.08-.33-.16-.62-.23-.89-.07-.27-.13-.49-.18-.65-.05-.17-.07-.26-.07-.27v-.1h8.54c1.66,0,3.03,.43,4.09,1.3s1.59,1.95,1.59,3.25c0,1.86-1.2,3.15-3.59,3.88,1.27,.27,2.32,.75,3.15,1.44,.83,.69,1.25,1.64,1.25,2.84,0,1.43-.58,2.52-1.74,3.28-1.16,.76-2.58,1.14-4.28,1.14h-9.02v-.1s.03-.11,.07-.29Zm5.42-15.58v6.78h1.36c.76,0,1.36-.37,1.78-1.09s.64-1.5,.64-2.31-.21-1.57-.64-2.3c-.43-.72-1.02-1.08-1.78-1.08h-1.36Zm0,7.92v6.87h1.83c1.85,0,2.78-1.11,2.78-3.33,0-1-.22-1.84-.65-2.52-.44-.68-1.15-1.02-2.13-1.02h-1.83Z"/>
    <path class="cls-1" d="M257.88,.33v-.1h6.23v.1s-.02,.11-.07,.27c-.05,.16-.11,.38-.18,.65-.07,.27-.15,.57-.23,.89s-.14,.68-.19,1.07-.07,.75-.07,1.08v11.94h1.83c.44,0,.92-.15,1.43-.45,.51-.3,.97-.67,1.38-1.11,.41-.44,.8-.87,1.15-1.31,.36-.44,.64-.8,.86-1.1,.21-.3,.33-.45,.34-.45h.12v5.54h-12.61v-.1s.03-.11,.07-.27c.05-.16,.11-.38,.18-.65,.07-.27,.15-.57,.23-.89,.08-.33,.14-.68,.19-1.07,.05-.39,.07-.75,.07-1.08V4.31c0-.33-.02-.69-.07-1.08-.05-.39-.11-.75-.19-1.07-.08-.33-.16-.62-.23-.89-.07-.27-.13-.49-.18-.65-.05-.17-.07-.26-.07-.27Z"/>
    <path class="cls-1" d="M273.65,.33v-.1h13.08V5.4h-.12s-.13-.14-.34-.42c-.22-.28-.5-.61-.86-1.01-.36-.39-.74-.79-1.15-1.19-.41-.39-.87-.73-1.38-1.01-.51-.28-.98-.42-1.43-.42h-2.31v6.8h.22c.44,0,.92-.05,1.43-.15,.51-.1,.97-.23,1.38-.37,.41-.14,.8-.29,1.15-.43,.36-.14,.64-.26,.86-.37,.21-.1,.33-.16,.34-.16h.12v3.9h-.12s-.13-.05-.34-.15c-.22-.1-.5-.23-.86-.37s-.74-.29-1.15-.43c-.41-.14-.87-.26-1.38-.37-.51-.1-.98-.16-1.43-.16h-.22v7.14h2.38c.44,0,.92-.14,1.43-.42,.51-.28,.97-.61,1.38-1.01,.41-.4,.8-.8,1.15-1.2,.36-.41,.64-.75,.86-1.02,.21-.28,.33-.42,.34-.42h.12v5.19h-13.15v-.1s.03-.11,.07-.27c.05-.16,.11-.38,.18-.65,.07-.27,.15-.57,.23-.89,.08-.33,.14-.68,.19-1.07,.05-.39,.07-.75,.07-1.08V4.31c0-.33-.02-.69-.07-1.08-.05-.39-.11-.75-.19-1.07-.08-.33-.16-.62-.23-.89-.07-.27-.13-.49-.18-.65-.05-.17-.07-.26-.07-.27Z"/>
    <path class="cls-1" d="M289.97,17.37v-.14s.05-.15,.15-.4,.23-.58,.37-.99c.14-.4,.29-.85,.43-1.33,.14-.48,.26-1.02,.37-1.61,.1-.58,.15-1.13,.15-1.64V4.31c0-.33-.04-.69-.11-1.08-.07-.39-.16-.75-.27-1.07s-.22-.62-.33-.89c-.11-.27-.2-.49-.27-.65-.07-.17-.11-.26-.11-.27v-.1h5.71l4.42,10.66,3.85-10.66h5.5v.1s-.02,.11-.07,.27c-.05,.16-.11,.38-.19,.65-.08,.27-.15,.57-.23,.89-.07,.33-.13,.68-.18,1.07s-.07,.75-.07,1.08V13.3c0,.33,.02,.69,.07,1.08s.11,.75,.18,1.07c.07,.33,.15,.62,.23,.89,.08,.27,.14,.49,.19,.65,.05,.17,.07,.26,.07,.27v.1h-6.23v-.1s.02-.11,.07-.27c.05-.16,.11-.38,.19-.65,.08-.27,.15-.57,.23-.89s.13-.68,.18-1.07c.05-.39,.07-.75,.07-1.08V3.81l-4.88,13.56h-1.31l-5.47-13.56c-.02,.11-.02,.28-.02,.5v6.95c0,.51,.05,1.06,.15,1.64,.1,.59,.23,1.12,.37,1.61,.14,.48,.29,.93,.43,1.33,.14,.41,.27,.73,.37,.99s.15,.39,.15,.4v.14h-4.16Z"/>
  </g>
  <text class="cls-4" transform="translate(275.35 197.19)"><tspan x="0" y="0">The designer’s </tspan><tspan x="0" y="28.55">share</tspan></text>
  <text class="cls-3" transform="translate(291.37 365.67)"><tspan class="cls-17" x="0" y="0">The </tspan><tspan class="cls-12" x="43.16" y="0">real</tspan><tspan class="cls-17" x="76.13" y="0"> </tspan><tspan class="cls-17"><tspan x="0" y="28.55">problem</tspan></tspan></text>
  <polygon class="cls-9" points="148.39 189.57 293.13 437.1 3.06 437.1 148.39 189.57"/>
  <line class="cls-9" x1="102.85" y1="205.11" x2="197.89" y2="205.11"/>
  <polygon class="cls-5" points="148.39 189.57 156.55 204.67 139.52 204.67 148.39 189.57"/>
  <g>
    <line class="cls-7" x1="192.4" y1="358.5" x2="193.28" y2="358.5"/>
    <line class="cls-10" x1="196.89" y1="358.5" x2="276.16" y2="358.5"/>
    <line class="cls-7" x1="277.96" y1="358.5" x2="278.84" y2="358.5"/>
  </g>
  <g>
    <line class="cls-11" x1="152.84" y1="191.74" x2="153.68" y2="191.74"/>
    <line class="cls-8" x1="157" y1="191.74" x2="265.05" y2="191.74"/>
    <line class="cls-11" x1="266.71" y1="191.74" x2="267.55" y2="191.74"/>
  </g>
</svg>