<?xml version="1.0" encoding="utf-8"?>
<!-- Generator: Adobe Illustrator 26.0.2, SVG Export Plug-In . SVG Version: 6.00 Build 0)  -->
<svg version="1.1" id="Layer_1" xmlns="http://www.w3.org/2000/svg" xmlns:xlink="http://www.w3.org/1999/xlink" x="0px" y="0px"
	 viewBox="0 0 645.8 573.1" style="enable-background:new 0 0 645.8 573.1;" xml:space="preserve">
<style type="text/css">
	.st0{fill:#3F456C;}
	.st1{fill:#FFFFFF;}
	.st2{font-family:'CrimsonText-Regular';}
	.st3{font-size:15.91px;}
	.st4{font-size:12.24px;}
	.st5{font-size:11.02px;}
	.st6{font-size:8.57px;}
	.st7{font-size:7.34px;}
	.st8{font-size:6.12px;}
	.st9{font-size:9.79px;}
</style>
<g>
	<path class="st0" d="M214.6,244.8c-28.5,0-51.7-23.2-51.7-51.7s23.2-51.7,51.7-51.7s51.7,23.2,51.7,51.7S243.1,244.8,214.6,244.8z
		 M214.6,145.4c-26.3,0-47.7,21.4-47.7,47.7s21.4,47.7,47.7,47.7s47.7-21.4,47.7-47.7S240.9,145.4,214.6,145.4z"/>
</g>
<g>
	<path class="st0" d="M418.8,244.8c-28.5,0-51.7-23.2-51.7-51.7s23.2-51.7,51.7-51.7s51.7,23.2,51.7,51.7S447.4,244.8,418.8,244.8z
		 M418.8,145.4c-26.3,0-47.7,21.4-47.7,47.7s21.4,47.7,47.7,47.7c26.3,0,47.7-21.4,47.7-47.7S445.2,145.4,418.8,145.4z"/>
</g>
<g>
	<path class="st0" d="M418.8,422c-28.5,0-51.7-23.2-51.7-51.7s23.2-51.7,51.7-51.7s51.7,23.2,51.7,51.7S447.4,422,418.8,422z
		 M418.8,322.5c-26.3,0-47.7,21.4-47.7,47.7c0,26.3,21.4,47.7,47.7,47.7c26.3,0,47.7-21.4,47.7-47.7
		C466.6,343.9,445.2,322.5,418.8,322.5z"/>
</g>
<g>
	<path class="st0" d="M221.4,422c-28.5,0-51.7-23.2-51.7-51.7s23.2-51.7,51.7-51.7s51.7,23.2,51.7,51.7S249.9,422,221.4,422z
		 M221.4,322.5c-26.3,0-47.7,21.4-47.7,47.7c0,26.3,21.4,47.7,47.7,47.7s47.7-21.4,47.7-47.7C269.1,343.9,247.7,322.5,221.4,322.5z"
		/>
</g>
<g>
	<path class="st0" d="M144.5,324.2c-19.9,0-36.2-16.2-36.2-36.2s16.2-36.2,36.2-36.2s36.2,16.2,36.2,36.2S164.4,324.2,144.5,324.2z
		 M144.5,254.7c-18.4,0-33.4,15-33.4,33.4s15,33.4,33.4,33.4s33.4-15,33.4-33.4S162.9,254.7,144.5,254.7z"/>
</g>
<g>
	<path class="st0" d="M82.4,298.2c-13.9,0-25.2-11.3-25.2-25.2s11.3-25.2,25.2-25.2s25.2,11.3,25.2,25.2S96.3,298.2,82.4,298.2z
		 M82.4,249.7c-12.8,0-23.3,10.4-23.3,23.3s10.4,23.3,23.3,23.3s23.3-10.4,23.3-23.3S95.2,249.7,82.4,249.7z"/>
</g>
<g>
	<path class="st0" d="M58.1,359.1c-13.9,0-25.2-11.3-25.2-25.2c0-13.9,11.3-25.2,25.2-25.2s25.2,11.3,25.2,25.2
		C83.3,347.8,72,359.1,58.1,359.1z M58.1,310.6c-12.8,0-23.3,10.4-23.3,23.3c0,12.8,10.4,23.3,23.3,23.3s23.3-10.4,23.3-23.3
		C81.4,321.1,70.9,310.6,58.1,310.6z"/>
</g>
<g>
	<path class="st0" d="M25.2,407.6C11.3,407.6,0,396.3,0,382.4s11.3-25.2,25.2-25.2s25.2,11.3,25.2,25.2S39.1,407.6,25.2,407.6z
		 M25.2,359.1c-12.8,0-23.3,10.4-23.3,23.3s10.4,23.3,23.3,23.3s23.3-10.4,23.3-23.3S38.1,359.1,25.2,359.1z"/>
</g>
<g>
	<path class="st0" d="M49.5,457.9c-13.9,0-25.2-11.3-25.2-25.2s11.3-25.2,25.2-25.2s25.2,11.3,25.2,25.2S63.4,457.9,49.5,457.9z
		 M49.5,409.3c-12.8,0-23.3,10.4-23.3,23.3s10.4,23.3,23.3,23.3s23.3-10.4,23.3-23.3S62.3,409.3,49.5,409.3z"/>
</g>
<g>
	<path class="st0" d="M100.2,474.5c-13.9,0-25.2-11.3-25.2-25.2c0-13.9,11.3-25.2,25.2-25.2s25.2,11.3,25.2,25.2
		C125.4,463.2,114.1,474.5,100.2,474.5z M100.2,426c-12.8,0-23.3,10.4-23.3,23.3c0,12.8,10.4,23.3,23.3,23.3s23.3-10.4,23.3-23.3
		C123.5,436.4,113,426,100.2,426z"/>
</g>
<g>
	<path class="st0" d="M36.3,274c-13.9,0-25.2-11.3-25.2-25.2s11.3-25.2,25.2-25.2s25.2,11.3,25.2,25.2S50.2,274,36.3,274z
		 M36.3,225.5c-12.8,0-23.3,10.4-23.3,23.3S23.5,272,36.3,272s23.3-10.4,23.3-23.3S49.2,225.5,36.3,225.5z"/>
</g>
<g>
	<path class="st0" d="M30.1,218.3c-13.9,0-25.2-11.3-25.2-25.2s11.3-25.2,25.2-25.2s25.2,11.3,25.2,25.2S44,218.3,30.1,218.3z
		 M30.1,169.8c-12.8,0-23.3,10.4-23.3,23.3s10.4,23.3,23.3,23.3s23.3-10.4,23.3-23.3S42.9,169.8,30.1,169.8z"/>
</g>
<g>
	<path class="st0" d="M73.8,181.3c-13.9,0-25.2-11.3-25.2-25.2s11.3-25.2,25.2-25.2S99,142.1,99,156S87.7,181.3,73.8,181.3z
		 M73.8,132.7c-12.8,0-23.3,10.4-23.3,23.3s10.4,23.3,23.3,23.3S97,168.9,97,156S86.6,132.7,73.8,132.7z"/>
</g>
<g>
	<path class="st0" d="M124.9,146.7c-13.9,0-25.2-11.3-25.2-25.2s11.3-25.2,25.2-25.2s25.2,11.3,25.2,25.2S138.9,146.7,124.9,146.7z
		 M124.9,98.2c-12.8,0-23.3,10.4-23.3,23.3s10.4,23.3,23.3,23.3s23.3-10.4,23.3-23.3S137.8,98.2,124.9,98.2z"/>
</g>
<g>
	<path class="st0" d="M126.6,94.9c-13.9,0-25.2-11.3-25.2-25.2s11.3-25.2,25.2-25.2s25.2,11.3,25.2,25.2S140.6,94.9,126.6,94.9z
		 M126.6,46.4c-12.8,0-23.3,10.4-23.3,23.3S113.8,93,126.6,93s23.3-10.4,23.3-23.3S139.5,46.4,126.6,46.4z"/>
</g>
<g>
	<path class="st0" d="M173.1,68.2c-13.9,0-25.2-11.3-25.2-25.2s11.3-25.2,25.2-25.2s25.2,11.3,25.2,25.2S187.1,68.2,173.1,68.2z
		 M173.1,19.7c-12.8,0-23.3,10.4-23.3,23.3s10.4,23.3,23.3,23.3s23.3-10.4,23.3-23.3S186,19.7,173.1,19.7z"/>
</g>
<g>
	<path class="st0" d="M257.5,87.7c-13.9,0-25.2-11.3-25.2-25.2s11.3-25.2,25.2-25.2s25.2,11.3,25.2,25.2S271.4,87.7,257.5,87.7z
		 M257.5,39.2c-12.8,0-23.3,10.4-23.3,23.3s10.4,23.3,23.3,23.3s23.3-10.4,23.3-23.3S270.4,39.2,257.5,39.2z"/>
</g>
<g>
	<path class="st0" d="M302.8,59.9c-13.9,0-25.2-11.3-25.2-25.2s11.3-25.2,25.2-25.2S328,20.8,328,34.7S316.7,59.9,302.8,59.9z
		 M302.8,11.4c-12.8,0-23.3,10.4-23.3,23.3S289.9,58,302.8,58s23.3-10.4,23.3-23.3S315.6,11.4,302.8,11.4z"/>
</g>
<g>
	<path class="st0" d="M341,101.4c-13.9,0-25.2-11.3-25.2-25.2S327,51,341,51c13.9,0,25.2,11.3,25.2,25.2S354.9,101.4,341,101.4z
		 M341,52.9c-12.8,0-23.3,10.4-23.3,23.3s10.4,23.3,23.3,23.3c12.8,0,23.3-10.4,23.3-23.3S353.8,52.9,341,52.9z"/>
</g>
<g>
	<path class="st0" d="M356.2,157c-13.9,0-25.2-11.3-25.2-25.2s11.3-25.2,25.2-25.2s25.2,11.3,25.2,25.2S370.1,157,356.2,157z
		 M356.2,108.5c-12.8,0-23.3,10.4-23.3,23.3s10.4,23.3,23.3,23.3s23.3-10.4,23.3-23.3S369,108.5,356.2,108.5z"/>
</g>
<g>
	<path class="st0" d="M395.4,58.9c-13.9,0-25.2-11.3-25.2-25.2s11.3-25.2,25.2-25.2s25.2,11.3,25.2,25.2S409.3,58.9,395.4,58.9z
		 M395.4,10.4c-12.8,0-23.3,10.4-23.3,23.3S382.6,57,395.4,57s23.3-10.4,23.3-23.3S408.3,10.4,395.4,10.4z"/>
</g>
<g>
	<path class="st0" d="M465.9,50.5c-13.9,0-25.2-11.3-25.2-25.2S452,0,465.9,0c13.9,0,25.2,11.3,25.2,25.2S479.9,50.5,465.9,50.5z
		 M465.9,1.9c-12.8,0-23.3,10.4-23.3,23.3s10.4,23.3,23.3,23.3c12.8,0,23.3-10.4,23.3-23.3S478.8,1.9,465.9,1.9z"/>
</g>
<g>
	<path class="st0" d="M513.2,101.4c-13.9,0-25.2-11.3-25.2-25.2S499.3,51,513.2,51c13.9,0,25.2,11.3,25.2,25.2
		S527.1,101.4,513.2,101.4z M513.2,52.9c-12.8,0-23.3,10.4-23.3,23.3s10.4,23.3,23.3,23.3c12.8,0,23.3-10.4,23.3-23.3
		S526.1,52.9,513.2,52.9z"/>
</g>
<g>
	<path class="st0" d="M498.1,157c-13.9,0-25.2-11.3-25.2-25.2s11.3-25.2,25.2-25.2c13.9,0,25.2,11.3,25.2,25.2S512,157,498.1,157z
		 M498.1,108.5c-12.8,0-23.3,10.4-23.3,23.3s10.4,23.3,23.3,23.3c12.8,0,23.3-10.4,23.3-23.3S510.9,108.5,498.1,108.5z"/>
</g>
<g>
	<path class="st0" d="M580.4,184c-13.9,0-25.2-11.3-25.2-25.2s11.3-25.2,25.2-25.2c13.9,0,25.2,11.3,25.2,25.2S594.3,184,580.4,184z
		 M580.4,135.5c-12.8,0-23.3,10.4-23.3,23.3s10.4,23.3,23.3,23.3c12.8,0,23.3-10.4,23.3-23.3S593.3,135.5,580.4,135.5z"/>
</g>
<g>
	<path class="st0" d="M604.7,233.2c-13.9,0-25.2-11.3-25.2-25.2s11.3-25.2,25.2-25.2c13.9,0,25.2,11.3,25.2,25.2
		S618.6,233.2,604.7,233.2z M604.7,184.7c-12.8,0-23.3,10.4-23.3,23.3s10.4,23.3,23.3,23.3c12.8,0,23.3-10.4,23.3-23.3
		S617.5,184.7,604.7,184.7z"/>
</g>
<g>
	<path class="st0" d="M604.7,307.2c-13.9,0-25.2-11.3-25.2-25.2s11.3-25.2,25.2-25.2c13.9,0,25.2,11.3,25.2,25.2
		S618.6,307.2,604.7,307.2z M604.7,258.7c-12.8,0-23.3,10.4-23.3,23.3s10.4,23.3,23.3,23.3c12.8,0,23.3-10.4,23.3-23.3
		S617.5,258.7,604.7,258.7z"/>
</g>
<g>
	<path class="st0" d="M553.4,321.7c-13.9,0-25.2-11.3-25.2-25.2c0-13.9,11.3-25.2,25.2-25.2s25.2,11.3,25.2,25.2
		C578.7,310.4,567.3,321.7,553.4,321.7z M553.4,273.2c-12.8,0-23.3,10.4-23.3,23.3c0,12.8,10.4,23.3,23.3,23.3s23.3-10.4,23.3-23.3
		C576.7,283.6,566.3,273.2,553.4,273.2z"/>
</g>
<g>
	<path class="st0" d="M594.8,363c-13.9,0-25.2-11.3-25.2-25.2c0-13.9,11.3-25.2,25.2-25.2s25.2,11.3,25.2,25.2
		C620,351.7,608.7,363,594.8,363z M594.8,314.5c-12.8,0-23.3,10.4-23.3,23.3c0,12.8,10.4,23.3,23.3,23.3s23.3-10.4,23.3-23.3
		C618.1,325,607.6,314.5,594.8,314.5z"/>
</g>
<g>
	<path class="st0" d="M551,232.5c-13.9,0-25.2-11.3-25.2-25.2S537.1,182,551,182c13.9,0,25.2,11.3,25.2,25.2S564.9,232.5,551,232.5z
		 M551,184c-12.8,0-23.3,10.4-23.3,23.3s10.4,23.3,23.3,23.3c12.8,0,23.3-10.4,23.3-23.3S563.8,184,551,184z"/>
</g>
<g>
	<path class="st0" d="M264.3,503.5c-19.9,0-36.2-16.2-36.2-36.2s16.2-36.2,36.2-36.2c19.9,0,36.2,16.2,36.2,36.2
		S284.2,503.5,264.3,503.5z M264.3,434c-18.4,0-33.4,15-33.4,33.4s15,33.4,33.4,33.4c18.4,0,33.4-15,33.4-33.4S282.7,434,264.3,434z
		"/>
</g>
<g>
	<path class="st0" d="M327,411.1c-19.9,0-36.2-16.2-36.2-36.2c0-19.9,16.2-36.2,36.2-36.2s36.2,16.2,36.2,36.2
		C363.2,394.8,347,411.1,327,411.1z M327,341.5c-18.4,0-33.4,15-33.4,33.4c0,18.4,15,33.4,33.4,33.4s33.4-15,33.4-33.4
		C360.4,356.5,345.4,341.5,327,341.5z"/>
</g>
<g>
	<path class="st0" d="M361.8,482.8c-19.9,0-36.2-16.2-36.2-36.2c0-19.9,16.2-36.2,36.2-36.2c19.9,0,36.2,16.2,36.2,36.2
		C398,466.6,381.7,482.8,361.8,482.8z M361.8,413.3c-18.4,0-33.4,15-33.4,33.4c0,18.4,15,33.4,33.4,33.4c18.4,0,33.4-15,33.4-33.4
		C395.2,428.3,380.2,413.3,361.8,413.3z"/>
</g>
<g>
	<path class="st0" d="M439.1,503.5c-19.9,0-36.2-16.2-36.2-36.2s16.2-36.2,36.2-36.2s36.2,16.2,36.2,36.2S459,503.5,439.1,503.5z
		 M439.1,434c-18.4,0-33.4,15-33.4,33.4s15,33.4,33.4,33.4s33.4-15,33.4-33.4S457.5,434,439.1,434z"/>
</g>
<g>
	<path class="st0" d="M506.9,456.1c-19.9,0-36.2-16.2-36.2-36.2s16.2-36.2,36.2-36.2c19.9,0,36.2,16.2,36.2,36.2
		S526.8,456.1,506.9,456.1z M506.9,386.6c-18.4,0-33.4,15-33.4,33.4s15,33.4,33.4,33.4c18.4,0,33.4-15,33.4-33.4
		S525.3,386.6,506.9,386.6z"/>
</g>
<g>
	<path class="st0" d="M502,373.9c-19.9,0-36.2-16.2-36.2-36.2s16.2-36.2,36.2-36.2s36.2,16.2,36.2,36.2S521.9,373.9,502,373.9z
		 M502,304.4c-18.4,0-33.4,15-33.4,33.4s15,33.4,33.4,33.4s33.4-15,33.4-33.4S520.4,304.4,502,304.4z"/>
</g>
<g>
	<path class="st0" d="M506.9,289.5c-19.9,0-36.2-16.2-36.2-36.2c0-19.9,16.2-36.2,36.2-36.2c19.9,0,36.2,16.2,36.2,36.2
		C543,273.3,526.8,289.5,506.9,289.5z M506.9,220c-18.4,0-33.4,15-33.4,33.4c0,18.4,15,33.4,33.4,33.4c18.4,0,33.4-15,33.4-33.4
		C540.2,234.9,525.3,220,506.9,220z"/>
</g>
<g>
	<path class="st0" d="M292.3,154.1c-19.9,0-36.2-16.2-36.2-36.2c0-19.9,16.2-36.2,36.2-36.2c19.9,0,36.2,16.2,36.2,36.2
		C328.4,137.8,312.2,154.1,292.3,154.1z M292.3,84.5c-18.4,0-33.4,15-33.4,33.4c0,18.4,15,33.4,33.4,33.4c18.4,0,33.4-15,33.4-33.4
		C325.6,99.5,310.7,84.5,292.3,84.5z"/>
</g>
<g>
	<path class="st0" d="M442.9,122.9c-19.9,0-36.2-16.2-36.2-36.2c0-19.9,16.2-36.2,36.2-36.2c19.9,0,36.2,16.2,36.2,36.2
		C479.1,106.6,462.8,122.9,442.9,122.9z M442.9,53.3c-18.4,0-33.4,15-33.4,33.4c0,18.4,15,33.4,33.4,33.4c18.4,0,33.4-15,33.4-33.4
		C476.3,68.3,461.3,53.3,442.9,53.3z"/>
</g>
<g>
	<path class="st0" d="M186.6,140.6c-19.9,0-36.2-16.2-36.2-36.2c0-19.9,16.2-36.2,36.2-36.2c19.9,0,36.2,16.2,36.2,36.2
		C222.8,124.4,206.6,140.6,186.6,140.6z M186.6,71.1c-18.4,0-33.4,15-33.4,33.4c0,18.4,15,33.4,33.4,33.4c18.4,0,33.4-15,33.4-33.4
		C220,86.1,205,71.1,186.6,71.1z"/>
</g>
<g>
	<path class="st0" d="M109.7,244.2c-19.9,0-36.2-16.2-36.2-36.2s16.2-36.2,36.2-36.2c19.9,0,36.2,16.2,36.2,36.2
		S129.7,244.2,109.7,244.2z M109.7,174.6c-18.4,0-33.4,15-33.4,33.4s15,33.4,33.4,33.4c18.4,0,33.4-15,33.4-33.4
		S128.1,174.6,109.7,174.6z"/>
</g>
<g>
	<path class="st0" d="M106.6,416.2c-19.9,0-36.2-16.2-36.2-36.2s16.2-36.2,36.2-36.2c19.9,0,36.2,16.2,36.2,36.2
		S126.6,416.2,106.6,416.2z M106.6,346.7c-18.4,0-33.4,15-33.4,33.4s15,33.4,33.4,33.4c18.4,0,33.4-15,33.4-33.4
		S125,346.7,106.6,346.7z"/>
</g>
<g>
	<path class="st0" d="M161.4,503.5c-19.9,0-36.2-16.2-36.2-36.2s16.2-36.2,36.2-36.2c19.9,0,36.2,16.2,36.2,36.2
		S181.3,503.5,161.4,503.5z M161.4,434c-18.4,0-33.4,15-33.4,33.4s15,33.4,33.4,33.4c18.4,0,33.4-15,33.4-33.4S179.8,434,161.4,434z
		"/>
</g>
<g>
	<path class="st0" d="M212.8,573.1c-19.9,0-36.2-16.2-36.2-36.2c0-19.9,16.2-36.2,36.2-36.2c19.9,0,36.2,16.2,36.2,36.2
		C248.9,556.9,232.7,573.1,212.8,573.1z M212.8,503.6c-18.4,0-33.4,15-33.4,33.4c0,18.4,15,33.4,33.4,33.4c18.4,0,33.4-15,33.4-33.4
		C246.1,518.6,231.2,503.6,212.8,503.6z"/>
</g>
<g>
	<circle class="st0" cx="316.7" cy="257.7" r="49.7"/>
</g>
<g>
	
		<rect x="63.7" y="189.2" transform="matrix(0.241 -0.9705 0.9705 0.241 -144.8724 214.4352)" class="st0" width="1.9" height="21.2"/>
</g>
<g>
	
		<rect x="55.6" y="229.6" transform="matrix(0.9186 -0.3952 0.3952 0.9186 -85.5679 45.7265)" class="st0" width="25.1" height="1.9"/>
</g>
<g>
	<rect x="88" y="245.2" transform="matrix(0.5528 -0.8333 0.8333 0.5528 -162.869 188.7478)" class="st0" width="12.9" height="2"/>
</g>
<g>
	<path class="st0" d="M144.9,205.7l-0.3-0.9l-0.1,0l-1-0.2c0.1-0.7,0.1-0.7,11.1-3.3c5.2-1.2,10.4-2.4,10.4-2.4l0.4,1.9
		C157.6,202.6,145.7,205.4,144.9,205.7z"/>
</g>
<g>
	<rect x="86.9" y="176.1" transform="matrix(0.8698 -0.4934 0.4934 0.8698 -76.2315 66.4779)" class="st0" width="2" height="3.2"/>
</g>
<g>
	<path class="st0" d="M149.2,116.3l-0.6-1.9c0.3-0.1,2.3-1,4.1-1.8l0.8,1.8C152.6,114.8,149.7,116.1,149.2,116.3z"/>
</g>
<g>
	<path class="st0" d="M157.3,84.1c-3.1-1.1-8-2.7-8.3-2.8l0.6-1.9c0.5,0.2,7.6,2.5,8.4,2.8L157.3,84.1z"/>
</g>
<g>
	
		<rect x="177.9" y="66.6" transform="matrix(0.9857 -0.1686 0.1686 0.9857 -9.0007 31.1428)" class="st0" width="1.9" height="3.9"/>
</g>
<g>
	
		<rect x="198.7" y="137" transform="matrix(0.9625 -0.2711 0.2711 0.9625 -30.8157 59.4147)" class="st0" width="1.9" height="8.4"/>
</g>
<g>
	<path class="st0" d="M243.5,152.5v-1l-0.5-0.8c1-0.7,11.4-11.1,17.7-17.5l1.4,1.4C244.4,152.5,244,152.5,243.5,152.5z"/>
</g>
<g>
	<rect x="268.8" y="83.8" transform="matrix(0.838 -0.5457 0.5457 0.838 -3.5496 161.2448)" class="st0" width="1.9" height="5.7"/>
</g>
<g>
	
		<rect x="287.4" y="69.4" transform="matrix(0.1598 -0.9872 0.9872 0.1598 181.7023 354.185)" class="st0" width="23.1" height="1.9"/>
</g>
<g>
	<rect x="319.6" y="94.6" transform="matrix(0.7286 -0.685 0.685 0.7286 22.0332 246.6705)" class="st0" width="5.3" height="2"/>
</g>
<g>
	
		<rect x="328.8" y="123.5" transform="matrix(0.2315 -0.9728 0.9728 0.2315 130.5819 417.8036)" class="st0" width="2" height="5.5"/>
</g>
<g>
	
		<rect x="410.7" y="54.2" transform="matrix(0.7391 -0.6736 0.6736 0.7391 67.4068 292.7831)" class="st0" width="2" height="10.4"/>
</g>
<g>
	
		<rect x="452.9" y="50" transform="matrix(0.3931 -0.9195 0.9195 0.3931 229.9345 450.4205)" class="st0" width="6.6" height="1.9"/>
</g>
<g>
	
		<rect x="477.2" y="79.3" transform="matrix(0.9849 -0.1733 0.1733 0.9849 -6.5981 84.9522)" class="st0" width="11.9" height="1.9"/>
</g>
<g>
	
		<rect x="471.5" y="108.8" transform="matrix(0.562 -0.8271 0.8271 0.562 111.6919 441.2005)" class="st0" width="2" height="12.7"/>
</g>
<g>
	
		<rect x="418.7" y="131.9" transform="matrix(0.2555 -0.9668 0.9668 0.2555 192.7919 516.1645)" class="st0" width="25.6" height="1.9"/>
</g>
<g>
	
		<rect x="353.6" y="222.2" transform="matrix(0.826 -0.5637 0.5637 0.826 -62.2171 244.7523)" class="st0" width="23.5" height="2"/>
</g>
<g>
	<path class="st0" d="M277.6,234.1c-0.4,0-1.6,0-20.9-14.8l1.2-1.5c8.7,6.7,18.6,14,19.9,14.4c0,0-0.1,0-0.2,0V234.1z"/>
</g>
<g>
	
		<rect x="364.9" y="286.8" transform="matrix(0.7634 -0.646 0.646 0.7634 -116.7676 310.8253)" class="st0" width="1.9" height="56"/>
</g>
<g>
	<path class="st0" d="M258.3,336.8l-1.5-1.3c0.9-1,21.6-30.2,29.5-41.4l1.6,1.1C286.8,296.9,259.4,335.5,258.3,336.8z"/>
</g>
<g>
	<path class="st0" d="M185.2,332.9c-7.1-6.6-18.1-16.6-18.9-17.2l0.5-0.8l-0.7-0.8c0.8-0.6,0.8-0.6,10.9,8.7
		c4.8,4.4,9.5,8.7,9.5,8.7L185.2,332.9z"/>
</g>
<g>
	<rect x="141.4" y="374.8" class="st0" width="30.5" height="1.9"/>
</g>
<g>
	
		<rect x="74.7" y="351.9" transform="matrix(0.6573 -0.7536 0.7536 0.6573 -242.0923 178.9119)" class="st0" width="1.9" height="7.6"/>
</g>
<g>
	<rect x="49.5" y="381.4" class="st0" width="22.4" height="1.9"/>
</g>
<g>
	
		<rect x="65.1" y="408" transform="matrix(0.7512 -0.6601 0.6601 0.7512 -251.5447 150.5882)" class="st0" width="17.7" height="1.9"/>
</g>
<g>
	
		<rect x="98.4" y="419" transform="matrix(0.2805 -0.9598 0.9598 0.2805 -328.4492 401.712)" class="st0" width="10.8" height="1.9"/>
</g>
<g>
	
		<rect x="174.6" y="425.4" transform="matrix(0.5949 -0.8038 0.8038 0.5949 -265.9363 325.056)" class="st0" width="29.9" height="2"/>
</g>
<g>
	<path class="st0" d="M251.5,435.3c-4.3-6.6-10.9-16.6-11.3-17.2l0.8-0.6l-0.3-1c0.7-0.2,0.7-0.2,2.9,3.1c1.1,1.6,2.5,3.8,3.9,6
		c2.8,4.3,5.7,8.7,5.7,8.7L251.5,435.3z"/>
</g>
<g>
	
		<rect x="380.2" y="413.8" transform="matrix(0.6401 -0.7683 0.7683 0.6401 -180.1362 444.9259)" class="st0" width="9.2" height="1.9"/>
</g>
<g>
	<rect x="361.8" y="372.4" class="st0" width="7.5" height="1.9"/>
</g>
<g>
	<path class="st0" d="M428.6,434.9c-0.5-0.3-0.5-0.3-1.7-14.8l1.9-0.2c0.4,5.3,1.1,13.4,1.2,14l-1,0.2L428.6,434.9z"/>
</g>
<g>
	
		<rect x="469.7" y="388.1" transform="matrix(0.4577 -0.8891 0.8891 0.4577 -97.273 633.5479)" class="st0" width="2" height="16.8"/>
</g>
<g>
	
		<rect x="464.4" y="348.9" transform="matrix(0.9888 -0.1493 0.1493 0.9888 -46.9924 73.6031)" class="st0" width="4.9" height="1.9"/>
</g>
<g>
	<path class="st0" d="M577.2,322.2c-0.8,0-2.4-1.3-8.7-6.6l1.3-1.5c3.3,2.8,7.1,5.8,7.6,6.1c-0.2-0.1-0.7-0.1-1,0.2l1.4,1.4
		C577.6,322.1,577.5,322.2,577.2,322.2z"/>
</g>
<g>
	<rect x="575.2" y="284.1" class="st0" width="5.4" height="2"/>
</g>
<g>
	
		<rect x="533.4" y="275.6" transform="matrix(0.6985 -0.7156 0.7156 0.6985 -37.3536 466.0125)" class="st0" width="1.9" height="3.5"/>
</g>
<g>
	
		<rect x="468.5" y="216.9" transform="matrix(0.4973 -0.8676 0.8676 0.4973 38.9085 521.4886)" class="st0" width="1.9" height="20.5"/>
</g>
<g>
	<path class="st0" d="M531.9,230.6l-0.3-0.8c0-0.4,0.1-0.9,4.2-3.9l1.2,1.6c-1.5,1.1-3.3,2.5-3.6,2.9c0.1-0.2,0.2-0.7-0.1-1.1
		L531.9,230.6z"/>
</g>
<g>
	<path class="st0" d="M557.1,184.7c0,0,0-0.1,0-0.1l-1.9-0.1c0-0.3,0.1-1.2,6.7-9.8l1.5,1.2C560.5,179.6,557.4,183.9,557.1,184.7z"
		/>
</g>
<g>
	<path class="st0" d="M581,206.4c-2.2-0.1-5-0.2-5.5-0.1l-0.6-1.8c1-0.3,4.7-0.2,6.3-0.1L581,206.4z"/>
</g>
<text transform="matrix(1 0 0 1 285.12 242.35)" class="st1 st2 st3">Design + </text>
<text transform="matrix(1 0 0 1 285.12 261.44)" class="st1 st2 st3">Goverment</text>
<text transform="matrix(1 0 0 1 285.12 280.54)" class="st1 st2 st3">(Policy)</text>
<text transform="matrix(1 0 0 1 187.16 188.08)" class="st0 st2 st3">Policy as </text>
<text transform="matrix(1 0 0 1 187.16 207.17)" class="st0 st2 st3">Designed</text>
<g>
	<g>
		<path class="st0" d="M389.5,179.8c0-0.6,0-1.1-0.1-1.4c0-0.1-0.2-0.2-0.4-0.2c-0.3-0.1-0.5-0.1-0.6-0.1c0,0-0.1-0.1-0.1-0.2
			c0-0.1,0-0.2,0.1-0.2c1.2,0.1,1.8,0.1,1.9,0.1c0.2,0,0.8,0,1.8-0.1c0,0.1,0,0.1,0,0.2c0,0.1,0,0.2-0.1,0.2c-0.1,0-0.3,0-0.6,0.1
			s-0.4,0.1-0.4,0.2c-0.1,0.4-0.1,0.8-0.1,1.4v5.9c0,0.6,0,1.1,0.1,1.4c0,0.1,0.2,0.1,0.4,0.2s0.5,0.1,0.6,0.1c0,0,0.1,0.1,0.1,0.2
			c0,0.1,0,0.2,0,0.2c-1-0.1-1.6-0.1-1.8-0.1c0,0-0.7,0-1.9,0.1c0,0-0.1-0.1-0.1-0.2c0-0.1,0-0.2,0.1-0.2c0.1,0,0.3,0,0.6-0.1
			c0.3-0.1,0.4-0.1,0.4-0.2c0.1-0.3,0.1-0.7,0.1-1.4V179.8z"/>
	</g>
	<g>
		<path class="st0" d="M397.7,181.1c0.7,0,1.2,0.3,1.5,0.8s0.4,1.4,0.4,2.5v1.4c0,0.6,0,1.1,0.1,1.4c0,0.1,0.2,0.1,0.4,0.2
			c0.2,0.1,0.4,0.1,0.5,0.1c0,0,0,0.1,0.1,0.2c0,0.1,0,0.2,0,0.3c-1-0.1-1.6-0.1-1.7-0.1c0,0-0.6,0-1.6,0.1c0,0-0.1-0.1-0.1-0.3
			s0-0.2,0.1-0.2c0.1,0,0.3,0,0.5-0.1s0.3-0.1,0.4-0.2c0.1-0.3,0.1-0.7,0.1-1.1v-1.6c0-1-0.1-1.6-0.4-2s-0.6-0.5-1.2-0.5
			c-0.3,0-0.6,0.1-1,0.4c-0.3,0.2-0.5,0.5-0.5,0.7v2.7c0,0.6,0,1.1,0.1,1.4c0,0.1,0.2,0.1,0.4,0.2c0.2,0.1,0.4,0.1,0.5,0.1
			c0,0,0,0.1,0.1,0.2c0,0.1,0,0.2,0,0.3c-1-0.1-1.6-0.1-1.7-0.1c-0.1,0-0.6,0-1.7,0.1c0,0-0.1-0.1-0.1-0.3s0-0.2,0.1-0.2
			c0.1,0,0.3,0,0.5-0.1s0.4-0.1,0.4-0.2c0.1-0.3,0.1-0.7,0.1-1.1v-2.9c0-0.4-0.1-0.7-0.2-0.8c-0.1-0.1-0.2-0.2-0.4-0.3
			c-0.1-0.1-0.3-0.1-0.4-0.1s-0.1,0-0.1,0c0-0.2,0-0.4,0.1-0.4c1.1-0.2,1.8-0.3,2.1-0.4c0,0,0,0,0.1,0c0,0,0.1,0,0.1,0.1
			c0,0.1,0,0.1,0,0.2c0,0.3-0.1,0.5-0.1,0.6c0,0,0,0.1,0,0.1c0,0,0,0,0,0c0.2-0.2,0.6-0.5,1-0.7S397.3,181.1,397.7,181.1
			L397.7,181.1z"/>
	</g>
	<g>
		<path class="st0" d="M406.1,181.1c0.7,0,1.2,0.3,1.5,0.8s0.4,1.4,0.4,2.5v1.4c0,0.6,0,1.1,0.1,1.4c0,0.1,0.2,0.1,0.4,0.2
			c0.2,0.1,0.4,0.1,0.5,0.1c0,0,0,0.1,0.1,0.2c0,0.1,0,0.2,0,0.3c-1-0.1-1.6-0.1-1.7-0.1c0,0-0.6,0-1.6,0.1c0,0-0.1-0.1-0.1-0.3
			s0-0.2,0.1-0.2c0.1,0,0.3,0,0.5-0.1s0.3-0.1,0.4-0.2c0.1-0.3,0.1-0.7,0.1-1.1v-1.6c0-1-0.1-1.6-0.4-2s-0.6-0.5-1.2-0.5
			c-0.3,0-0.6,0.1-1,0.4c-0.3,0.2-0.5,0.5-0.5,0.7v2.7c0,0.6,0,1.1,0.1,1.4c0,0.1,0.2,0.1,0.4,0.2c0.2,0.1,0.4,0.1,0.5,0.1
			c0,0,0,0.1,0.1,0.2c0,0.1,0,0.2,0,0.3c-1-0.1-1.6-0.1-1.7-0.1c-0.1,0-0.6,0-1.7,0.1c0,0-0.1-0.1-0.1-0.3s0-0.2,0.1-0.2
			c0.1,0,0.3,0,0.5-0.1s0.4-0.1,0.4-0.2c0.1-0.3,0.1-0.7,0.1-1.1v-2.9c0-0.4-0.1-0.7-0.2-0.8c-0.1-0.1-0.2-0.2-0.4-0.3
			c-0.1-0.1-0.3-0.1-0.4-0.1s-0.1,0-0.1,0c0-0.2,0-0.4,0.1-0.4c1.1-0.2,1.8-0.3,2.1-0.4c0,0,0,0,0.1,0c0,0,0.1,0,0.1,0.1
			c0,0.1,0,0.1,0,0.2c0,0.3-0.1,0.5-0.1,0.6c0,0,0,0.1,0,0.1c0,0,0,0,0,0c0.2-0.2,0.6-0.5,1-0.7S405.7,181.1,406.1,181.1
			L406.1,181.1z"/>
	</g>
	<g>
		<path class="st0" d="M413.5,181.1c0.9,0,1.7,0.3,2.4,1s1,1.5,1,2.4s-0.3,1.8-1,2.4s-1.4,1-2.4,1s-1.8-0.3-2.4-1
			c-0.7-0.7-1-1.5-1-2.4s0.3-1.8,1-2.4C411.7,181.4,412.5,181.1,413.5,181.1L413.5,181.1z M413.3,181.7c-0.5,0-1,0.2-1.3,0.8
			s-0.5,1.1-0.5,1.8c0,0.9,0.2,1.6,0.7,2.2s1,0.9,1.5,0.9c0.5,0,1-0.3,1.4-0.8s0.5-1.1,0.5-1.9c0-0.8-0.2-1.6-0.7-2.1
			C414.4,182,413.9,181.7,413.3,181.7L413.3,181.7z"/>
	</g>
	<g>
		<path class="st0" d="M423.4,182.1c0-0.3-0.4-0.5-1.1-0.5c0,0-0.1-0.1-0.1-0.2s0-0.2,0.1-0.3c0.1,0,0.3,0,0.6,0.1
			c0.3,0,0.6,0,0.8,0l1.5-0.1c0,0.1,0,0.1,0,0.2c0,0.1,0,0.2-0.1,0.2c-0.1,0-0.3,0-0.6,0.1s-0.4,0.2-0.5,0.4l-2.5,5.6
			c0,0.1-0.1,0.1-0.2,0.2c-0.1,0.1-0.2,0.1-0.3,0.1s-0.1,0-0.1-0.1c-0.2-0.4-0.6-1.3-1.2-2.7s-1.1-2.5-1.6-3.4
			c-0.1-0.2-0.4-0.3-0.9-0.3c0,0-0.1-0.1-0.1-0.2c0-0.1,0-0.2,0.1-0.2c1.1,0.1,1.6,0.1,1.6,0.1l1.5-0.1c0,0,0,0.1,0,0.3
			s0,0.2-0.1,0.2c-0.5,0-0.8,0.1-0.8,0.3c0,0,0,0,0,0.1l1.9,4.2l1.6-3.6C423.4,182.3,423.4,182.2,423.4,182.1L423.4,182.1z"/>
	</g>
	<g>
		<path class="st0" d="M428.8,181.1c0.6,0,1,0.1,1.2,0.4s0.4,0.7,0.4,1.3v3.6c0,0.2,0.1,0.4,0.2,0.5c0.1,0.1,0.3,0.2,0.5,0.2
			c0.1,0,0.3-0.1,0.5-0.2c0,0,0.1,0,0.1,0.1c0,0.1,0,0.2-0.1,0.3c-0.4,0.4-0.8,0.5-1.1,0.5c-0.2,0-0.5-0.1-0.7-0.3
			c-0.2-0.2-0.4-0.4-0.5-0.6c0,0,0,0-0.1,0.1s-0.2,0.1-0.3,0.2c-0.1,0.1-0.2,0.2-0.4,0.3c-0.1,0.1-0.3,0.2-0.5,0.2s-0.4,0.1-0.6,0.1
			c-0.5,0-0.9-0.1-1.2-0.4s-0.5-0.6-0.5-1.1c0-0.2,0.1-0.4,0.2-0.6c0.1-0.2,0.2-0.4,0.4-0.5c0.2-0.1,0.4-0.3,0.6-0.4
			c0.3-0.1,0.5-0.2,0.7-0.3c0.2-0.1,0.4-0.1,0.8-0.3c0.3-0.1,0.5-0.2,0.6-0.2c0.1,0,0.1-0.1,0.1-0.2v-1.2c0-0.3-0.1-0.6-0.3-0.8
			c-0.2-0.2-0.5-0.3-0.8-0.3c-0.3,0-0.6,0.1-0.8,0.3s-0.3,0.5-0.3,0.8c0,0.4-0.2,0.5-0.6,0.5c-0.3,0-0.5-0.1-0.6-0.3
			c0-0.4,0.3-0.9,1-1.3C427.4,181.3,428.1,181.1,428.8,181.1L428.8,181.1z M427.3,186.9c0.2,0.1,0.4,0.2,0.7,0.2s0.5-0.1,0.8-0.3
			s0.4-0.3,0.4-0.5v-1.6c-0.1,0-0.3,0.1-0.6,0.2c-0.3,0.1-0.6,0.2-0.8,0.3s-0.4,0.2-0.5,0.4s-0.3,0.4-0.3,0.6
			C427,186.5,427.1,186.7,427.3,186.9L427.3,186.9z"/>
	</g>
	<g>
		<path class="st0" d="M433,182.1h-0.9c0,0-0.1-0.1-0.1-0.3c0-0.1,0-0.1,0-0.1c0.3-0.1,0.6-0.4,1-0.8c0.1-0.1,0.2-0.3,0.3-0.5
			s0.2-0.3,0.3-0.4c0.1-0.1,0.1-0.2,0.1-0.2c0.3,0,0.5,0,0.5,0.1v1.5c0.3,0,0.7,0,1.2,0s0.8,0,0.9,0c0.1,0,0.1,0.1,0.1,0.1
			c0,0.2,0,0.4-0.2,0.6h-2.1v3.8c0,0.4,0.1,0.8,0.3,1c0.2,0.2,0.5,0.4,0.8,0.4c0.3,0,0.6-0.1,1-0.3c0,0,0.1,0,0.1,0.1
			c0.1,0.1,0.1,0.2,0.1,0.2c-0.2,0.2-0.4,0.3-0.7,0.5c-0.3,0.2-0.6,0.2-1,0.2c-0.5,0-1-0.2-1.3-0.5c-0.4-0.3-0.5-0.8-0.5-1.5V182.1
			L433,182.1z"/>
	</g>
	<g>
		<path class="st0" d="M439.4,185.8c0,0.6,0,1.1,0.1,1.4c0,0.1,0.2,0.1,0.4,0.2s0.4,0.1,0.5,0.1c0,0,0,0.1,0.1,0.2
			c0,0.1,0,0.2,0,0.3c-1-0.1-1.6-0.1-1.7-0.1s-0.6,0-1.7,0.1c0,0-0.1-0.1-0.1-0.3s0-0.2,0.1-0.2c0.1,0,0.3,0,0.5-0.1
			s0.4-0.1,0.4-0.2c0.1-0.3,0.1-0.7,0.1-1.1v-2.9c0-0.4-0.1-0.7-0.2-0.8c-0.1-0.1-0.2-0.2-0.4-0.3c-0.1-0.1-0.3-0.1-0.4-0.1
			s-0.1,0-0.1,0c0-0.2,0-0.4,0.1-0.4c1.1-0.2,1.8-0.3,2.1-0.4l0,0h0c0,0,0.1,0,0.1,0.1c0,0.1,0,0.1,0,0.2c0,0.4-0.1,0.8-0.1,1.1
			L439.4,185.8L439.4,185.8z M438.1,179.2c-0.1-0.1-0.2-0.3-0.2-0.6s0.1-0.4,0.2-0.6c0.1-0.1,0.3-0.2,0.5-0.2s0.4,0.1,0.5,0.2
			s0.2,0.3,0.2,0.6s-0.1,0.4-0.2,0.6s-0.3,0.2-0.5,0.2S438.3,179.4,438.1,179.2z"/>
	</g>
	<g>
		<path class="st0" d="M444.7,181.1c0.9,0,1.7,0.3,2.4,1s1,1.5,1,2.4s-0.3,1.8-1,2.4s-1.4,1-2.4,1s-1.8-0.3-2.4-1
			c-0.7-0.7-1-1.5-1-2.4s0.3-1.8,1-2.4C442.9,181.4,443.8,181.1,444.7,181.1L444.7,181.1z M444.5,181.7c-0.5,0-1,0.2-1.3,0.8
			s-0.5,1.1-0.5,1.8c0,0.9,0.2,1.6,0.7,2.2s1,0.9,1.5,0.9c0.5,0,1-0.3,1.4-0.8s0.5-1.1,0.5-1.9c0-0.8-0.2-1.6-0.7-2.1
			C445.7,182,445.1,181.7,444.5,181.7L444.5,181.7z"/>
	</g>
	<g>
		<path class="st0" d="M453.7,181.1c0.7,0,1.2,0.3,1.5,0.8s0.4,1.4,0.4,2.5v1.4c0,0.6,0,1.1,0.1,1.4c0,0.1,0.2,0.1,0.4,0.2
			c0.2,0.1,0.4,0.1,0.5,0.1c0,0,0,0.1,0.1,0.2c0,0.1,0,0.2,0,0.3c-1-0.1-1.6-0.1-1.7-0.1c0,0-0.6,0-1.6,0.1c0,0-0.1-0.1-0.1-0.3
			s0-0.2,0.1-0.2c0.1,0,0.3,0,0.5-0.1s0.3-0.1,0.4-0.2c0.1-0.3,0.1-0.7,0.1-1.1v-1.6c0-1-0.1-1.6-0.4-2s-0.6-0.5-1.2-0.5
			c-0.3,0-0.6,0.1-1,0.4c-0.3,0.2-0.5,0.5-0.5,0.7v2.7c0,0.6,0,1.1,0.1,1.4c0,0.1,0.2,0.1,0.4,0.2c0.2,0.1,0.4,0.1,0.5,0.1
			c0,0,0,0.1,0.1,0.2c0,0.1,0,0.2,0,0.3c-1-0.1-1.6-0.1-1.7-0.1c-0.1,0-0.6,0-1.7,0.1c0,0-0.1-0.1-0.1-0.3s0-0.2,0.1-0.2
			c0.1,0,0.3,0,0.5-0.1s0.4-0.1,0.4-0.2c0.1-0.3,0.1-0.7,0.1-1.1v-2.9c0-0.4-0.1-0.7-0.2-0.8c-0.1-0.1-0.2-0.2-0.4-0.3
			c-0.1-0.1-0.3-0.1-0.4-0.1s-0.1,0-0.1,0c0-0.2,0-0.4,0.1-0.4c1.1-0.2,1.8-0.3,2.1-0.4c0,0,0,0,0.1,0c0,0,0.1,0,0.1,0.1
			c0,0.1,0,0.1,0,0.2c0,0.3-0.1,0.5-0.1,0.6c0,0,0,0.1,0,0.1c0,0,0,0,0,0c0.2-0.2,0.6-0.5,1-0.7S453.3,181.1,453.7,181.1
			L453.7,181.1z"/>
	</g>
	<g>
		<path class="st0" d="M390.3,196.8c0.3,0,0.7,0,1.1,0s0.8,0,1.1,0c0.3,0,0.7,0.1,1,0.2s0.7,0.3,1,0.5s0.6,0.5,0.8,0.9
			c0.2,0.4,0.3,0.8,0.3,1.3c0,0.3-0.1,0.6-0.2,1s-0.3,0.7-0.6,1s-0.6,0.6-1,0.8s-0.9,0.3-1.4,0.3c-0.6,0-1-0.1-1.2-0.4
			c-0.1-0.1-0.1-0.2,0-0.4c0,0,0-0.1,0-0.1c0.3,0.1,0.7,0.2,1,0.2c0.5,0,1-0.2,1.3-0.6s0.6-0.9,0.6-1.6c0-0.7-0.2-1.3-0.5-1.8
			s-0.8-0.6-1.5-0.6c-0.5,0-0.8,0-1.1,0.1c0,0-0.1,0.1-0.1,0.1s0,0.2,0,0.5c0,0.2,0,0.6,0,1.1v5.6c0,0.7,0,1.1,0.1,1.4
			c0,0.1,0.2,0.2,0.5,0.3c0.3,0.1,0.5,0.1,0.7,0.1c0,0,0.1,0.1,0.1,0.2c0,0.1,0,0.2,0,0.2c-1-0.1-1.7-0.1-2-0.1l-1.9,0.1
			c0,0,0-0.1,0-0.3c0-0.1,0-0.2,0-0.2c0.1,0,0.4,0,0.6-0.1c0.3-0.1,0.4-0.1,0.5-0.2c0.1-0.1,0.1-0.6,0.1-1.5v-5.9
			c0-0.6,0-1.1-0.1-1.3c0-0.1-0.2-0.2-0.5-0.2c-0.3-0.1-0.5-0.1-0.6-0.1c0,0-0.1-0.1-0.1-0.2s0-0.2,0.1-0.3L390.3,196.8L390.3,196.8
			z"/>
	</g>
	<g>
		<path class="st0" d="M400.1,200.2c0.9,0,1.7,0.3,2.4,1s1,1.5,1,2.4s-0.3,1.8-1,2.4s-1.4,1-2.4,1s-1.8-0.3-2.4-1
			c-0.7-0.7-1-1.5-1-2.4s0.3-1.8,1-2.4C398.4,200.5,399.2,200.2,400.1,200.2L400.1,200.2z M400,200.8c-0.5,0-1,0.2-1.3,0.8
			s-0.5,1.1-0.5,1.8c0,0.9,0.2,1.6,0.7,2.2s1,0.9,1.5,0.9c0.5,0,1-0.3,1.4-0.8s0.5-1.1,0.5-1.9c0-0.8-0.2-1.6-0.7-2.1
			C401.1,201.1,400.6,200.8,400,200.8L400,200.8z"/>
	</g>
	<g>
		<path class="st0" d="M405.5,205.2v-6.7c0-0.4,0-0.7-0.1-1c0-0.2-0.3-0.2-0.8-0.2h-0.1c-0.1,0-0.1-0.1-0.1-0.2c0-0.2,0-0.2,0.1-0.2
			c0.3,0,0.6-0.1,0.9-0.1c0.3-0.1,0.5-0.1,0.6-0.2c0.1-0.1,0.3-0.1,0.4-0.1c0.1-0.1,0.2-0.1,0.2-0.1l0.1-0.1h0c0,0,0.1,0,0.1,0.1
			s0.1,0.1,0.1,0.2c-0.1,0.3-0.2,0.8-0.2,1.4v7.1c0,0.6,0,1.1,0.1,1.4c0,0.1,0.2,0.1,0.4,0.2c0.2,0.1,0.4,0.1,0.5,0.1
			c0,0,0,0.1,0.1,0.2c0,0.1,0,0.2,0,0.3c-1-0.1-1.6-0.1-1.7-0.1c-0.1,0-0.6,0-1.7,0.1c0,0-0.1-0.1-0.1-0.3s0-0.2,0.1-0.2
			c0.1,0,0.3,0,0.5-0.1s0.4-0.1,0.4-0.2C405.4,206,405.5,205.6,405.5,205.2L405.5,205.2z"/>
	</g>
	<g>
		<path class="st0" d="M410.8,204.9c0,0.6,0,1.1,0.1,1.4c0,0.1,0.2,0.1,0.4,0.2s0.4,0.1,0.5,0.1c0,0,0,0.1,0.1,0.2
			c0,0.1,0,0.2,0,0.3c-1-0.1-1.6-0.1-1.7-0.1s-0.6,0-1.7,0.1c0,0-0.1-0.1-0.1-0.3s0-0.2,0.1-0.2c0.1,0,0.3,0,0.5-0.1
			s0.4-0.1,0.4-0.2c0.1-0.3,0.1-0.7,0.1-1.1v-2.9c0-0.4-0.1-0.7-0.2-0.8c-0.1-0.1-0.2-0.2-0.4-0.3c-0.1-0.1-0.3-0.1-0.4-0.1
			s-0.1,0-0.1,0c0-0.2,0-0.4,0.1-0.4c1.1-0.2,1.8-0.3,2.1-0.4l0,0h0c0,0,0.1,0,0.1,0.1c0,0.1,0,0.1,0,0.2c0,0.4-0.1,0.8-0.1,1.1
			L410.8,204.9L410.8,204.9z M409.6,198.3c-0.1-0.1-0.2-0.3-0.2-0.6s0.1-0.4,0.2-0.6c0.1-0.1,0.3-0.2,0.5-0.2s0.4,0.1,0.5,0.2
			s0.2,0.3,0.2,0.6s-0.1,0.4-0.2,0.6s-0.3,0.2-0.5,0.2S409.7,198.5,409.6,198.3z"/>
	</g>
	<g>
		<path class="st0" d="M415.8,200.2c1.1,0,1.9,0.3,2.4,0.8c0,0.7-0.2,1-0.6,1c-0.2,0-0.3,0-0.4-0.1s-0.2-0.2-0.4-0.4
			c-0.3-0.5-0.7-0.7-1.1-0.7s-0.8,0.2-1.2,0.6c-0.4,0.4-0.5,1-0.5,1.8s0.2,1.5,0.6,2.1c0.4,0.6,1,0.8,1.7,0.8c0.2,0,0.4,0,0.6-0.1
			c0.2,0,0.4-0.1,0.5-0.1s0.3-0.1,0.4-0.2c0.1-0.1,0.2-0.1,0.3-0.2l0.1-0.1c0.1,0,0.1,0.1,0.1,0.2c0,0.1,0,0.2-0.1,0.3
			c-0.2,0.3-0.5,0.6-0.9,0.8c-0.4,0.2-0.8,0.4-1.3,0.4c-0.9,0-1.6-0.3-2.2-1s-0.9-1.4-0.9-2.4s0.3-1.8,0.8-2.5
			S414.8,200.2,415.8,200.2L415.8,200.2z"/>
	</g>
	<g>
		<path class="st0" d="M420.3,200.3c0.2,0,0.3,0,0.5,0c0.1,0,0.3,0,0.5,0s0.4,0,0.5,0c0,0.1,0,0.1,0,0.2c0,0.1,0,0.2-0.1,0.2
			c-0.1,0-0.2,0-0.4,0.1S421,201,421,201v0c0,0.2,0.5,1.5,1.7,4.1l1.2-3.4c0.1-0.2,0.1-0.4,0.1-0.5c0-0.2-0.1-0.3-0.2-0.4
			s-0.4-0.1-0.6-0.1c0,0-0.1-0.1-0.1-0.2c0-0.1,0-0.2,0.1-0.2c0.1,0,0.3,0,0.6,0.1s0.5,0,0.8,0c0.2,0,0.5,0,0.8,0s0.5,0,0.6-0.1
			c0,0.1,0,0.1,0,0.2c0,0.1,0,0.2-0.1,0.2c-0.1,0-0.3,0.1-0.5,0.1c-0.2,0.1-0.4,0.2-0.5,0.4l-2.8,7.5c-0.2,0.6-0.5,1.1-0.8,1.3
			s-0.6,0.4-0.8,0.4c-0.2,0-0.4-0.1-0.5-0.2s-0.2-0.3-0.2-0.4c0-0.2,0.1-0.4,0.2-0.5c0.9,0,1.4-0.4,1.7-1.3c0-0.2,0.1-0.3,0.2-0.6
			c0.1-0.2,0.1-0.4,0.2-0.5l-2.2-5.4c-0.1-0.2-0.2-0.4-0.3-0.5c-0.1-0.1-0.2-0.2-0.4-0.2s-0.3-0.1-0.5-0.1c0,0-0.1-0.1-0.1-0.2
			c0-0.1,0-0.2,0.1-0.2C419.7,200.3,420.2,200.3,420.3,200.3L420.3,200.3z"/>
	</g>
</g>
<text transform="matrix(1 0 0 1 387.78 363.98)" class="st0 st2 st3">Design </text>
<text transform="matrix(1 0 0 1 387.78 383.07)" class="st0 st2 st3">Promotion</text>
<text transform="matrix(1 0 0 1 193.71 363.98)" class="st0 st2 st3">Design </text>
<text transform="matrix(1 0 0 1 193.71 383.07)" class="st0 st2 st3">Standards</text>
<text transform="matrix(1 0 0 1 185.59 541.98)" class="st0 st2 st4">Exhibitions</text>
<text transform="matrix(1 0 0 1 475.25 340.73)" class="st0 st2 st4">Exhibitions</text>
<g>
	<path class="st0" d="M491.4,410.2c0.3,0,0.7,0,1.1,0c0.5,0,0.8,0,0.9,0c1.3,0,2.3,0.4,3,1.1s1.1,1.7,1.1,2.7c0,1.2-0.4,2.1-1.1,2.9
		c-0.7,0.8-1.8,1.2-3,1.2c-0.1,0-0.4,0-0.9,0s-0.9,0-1.2,0l-1.5,0c0,0,0-0.1,0-0.2c0-0.1,0-0.2,0-0.2c0.1,0,0.3,0,0.5-0.1
		s0.3-0.1,0.4-0.2c0.1-0.1,0.1-0.5,0.1-1.1v-4.5c0-0.5,0-0.8-0.1-1c0-0.1-0.1-0.1-0.4-0.2s-0.4-0.1-0.5-0.1c0,0,0,0,0-0.1
		c0-0.1,0-0.2,0-0.2C490.4,410.2,490.8,410.2,491.4,410.2L491.4,410.2z M491.9,411.6v4.7c0,0.3,0.1,0.6,0.2,0.9
		c0,0.1,0.2,0.1,0.6,0.2c0.4,0,0.7,0.1,0.9,0.1c1.8,0,2.8-1.2,2.8-3.5c0-0.9-0.2-1.7-0.7-2.3s-1.2-1-2.1-1h-0.1
		c-0.9,0-1.3,0.1-1.4,0.2C492,411,491.9,411.3,491.9,411.6L491.9,411.6z"/>
</g>
<g>
	<path class="st0" d="M500.9,412.8c0.4,0,0.7,0.1,1,0.2c0.3,0.1,0.5,0.3,0.6,0.5c0.1,0.2,0.2,0.4,0.3,0.7s0.1,0.5,0.1,0.7
		c0,0.2,0,0.3-0.1,0.3c0,0-0.1,0-0.3,0h-3c-0.1,0-0.1,0-0.1,0.1c0,0.5,0.1,1,0.5,1.4c0.3,0.4,0.7,0.6,1.3,0.6c0.2,0,0.3,0,0.5,0
		c0.1,0,0.3-0.1,0.4-0.1c0.1,0,0.2-0.1,0.3-0.1s0.1-0.1,0.2-0.1l0.1-0.1c0,0,0.1,0,0.1,0.2c0,0.1,0,0.1-0.1,0.2
		c-0.2,0.2-0.4,0.4-0.7,0.6c-0.3,0.2-0.6,0.3-1,0.3c-0.7,0-1.2-0.2-1.7-0.8s-0.7-1.1-0.7-1.8c0-0.8,0.2-1.5,0.7-2
		C499.7,413,500.2,412.8,500.9,412.8L500.9,412.8z M500.8,413.2c-0.4,0-0.7,0.2-1,0.5s-0.3,0.6-0.3,0.9c0,0.1,0,0.1,0.1,0.1h2.3
		c0,0,0.1,0,0.1-0.1c0-0.2-0.1-0.5-0.3-0.9C501.5,413.4,501.2,413.2,500.8,413.2L500.8,413.2z"/>
</g>
<g>
	<path class="st0" d="M505.5,412.8c0.2,0,0.4,0,0.7,0.1s0.5,0.1,0.6,0.1c0.1,0.4,0.1,0.8,0.1,1.2c0,0,0,0.1-0.2,0.1
		c-0.1,0-0.2,0-0.2-0.1c0-0.2-0.1-0.4-0.3-0.6s-0.4-0.3-0.6-0.3c-0.6,0-0.9,0.2-0.9,0.7c0,0.1,0,0.2,0,0.3c0,0.1,0.1,0.2,0.2,0.3
		c0.1,0.1,0.2,0.1,0.2,0.2s0.1,0.1,0.3,0.2c0.2,0.1,0.3,0.1,0.3,0.2c0,0,0.1,0.1,0.3,0.2s0.3,0.2,0.3,0.2s0.2,0.1,0.3,0.2
		c0.1,0.1,0.2,0.2,0.3,0.3c0.1,0.1,0.1,0.2,0.2,0.3c0,0.1,0.1,0.2,0.1,0.4c0,0.5-0.2,0.9-0.5,1.2s-0.8,0.5-1.3,0.5
		c-0.2,0-0.3,0-0.5,0c-0.1,0-0.3,0-0.5-0.1s-0.3-0.1-0.4-0.1c0-0.1-0.1-0.3-0.1-0.6c0-0.3-0.1-0.5-0.1-0.6c0.1,0,0.1-0.1,0.1-0.1
		c0.1,0,0.2,0,0.2,0.1c0,0.2,0.2,0.5,0.5,0.7s0.5,0.3,0.8,0.3c0.2,0,0.5-0.1,0.6-0.2c0.2-0.1,0.2-0.3,0.2-0.6c0-0.1,0-0.3-0.1-0.4
		s-0.1-0.2-0.2-0.3c-0.1-0.1-0.2-0.2-0.3-0.2s-0.2-0.1-0.4-0.2c-0.2-0.1-0.3-0.2-0.4-0.2c-0.6-0.4-0.9-0.8-0.9-1.3
		c0-0.4,0.2-0.8,0.5-1C504.7,412.9,505.1,412.8,505.5,412.8L505.5,412.8z"/>
</g>
<g>
	<path class="st0" d="M509.7,416.4c0,0.5,0,0.8,0.1,1.1c0,0.1,0.1,0.1,0.3,0.2c0.2,0,0.3,0.1,0.4,0.1c0,0,0,0,0,0.1
		c0,0.1,0,0.2,0,0.2c-0.8,0-1.2-0.1-1.3-0.1s-0.5,0-1.3,0.1c0,0,0-0.1,0-0.2s0-0.1,0-0.1c0.1,0,0.2,0,0.4-0.1s0.3-0.1,0.3-0.2
		c0.1-0.2,0.1-0.5,0.1-0.8v-2.3c0-0.3-0.1-0.5-0.2-0.6c-0.1-0.1-0.2-0.2-0.3-0.2c-0.1,0-0.2,0-0.3,0s-0.1,0-0.1,0
		c0-0.2,0-0.3,0.1-0.3c0.8-0.1,1.4-0.2,1.6-0.3h0c0,0,0,0,0,0c0,0,0,0,0.1,0.1c0,0.1,0,0.1,0,0.1c0,0.3-0.1,0.6-0.1,0.9L509.7,416.4
		L509.7,416.4z M508.7,411.4c-0.1-0.1-0.2-0.3-0.2-0.4s0.1-0.3,0.2-0.4s0.3-0.2,0.4-0.2s0.3,0.1,0.4,0.2c0.1,0.1,0.2,0.3,0.2,0.4
		s-0.1,0.3-0.2,0.4s-0.3,0.2-0.4,0.2S508.9,411.5,508.7,411.4z"/>
</g>
<g>
	<path class="st0" d="M513.4,412.9c0.3,0,0.6,0,1,0.2c0.4,0.1,0.7,0.2,0.9,0.2h0.7c0,0,0.1,0.1,0.1,0.3c0,0.1,0,0.2-0.1,0.2h-0.8
		c0,0,0,0,0,0l0.1,0.3c0.1,0.2,0.1,0.4,0.1,0.6c0,0.4-0.2,0.8-0.6,1.2s-0.8,0.5-1.4,0.5c-0.2,0-0.5,0-0.7,0
		c-0.1,0.1-0.2,0.2-0.3,0.3c-0.1,0.1-0.2,0.3-0.2,0.4s0,0.2,0.1,0.3c0.1,0.1,0.2,0.1,0.3,0.1c0.1,0,0.2,0,0.4,0.1c0.1,0,0.2,0,0.4,0
		h0.1c1,0,1.7,0.1,2.1,0.3c0.4,0.2,0.6,0.5,0.6,0.8c0,0.6-0.3,1.1-0.8,1.6c-0.5,0.4-1.2,0.7-2,0.7c-0.6,0-1.1-0.1-1.5-0.3
		c-0.5-0.2-0.7-0.6-0.7-1c0-0.5,0.4-0.9,1.2-1.3c-0.2,0-0.4-0.1-0.6-0.3c-0.2-0.2-0.3-0.4-0.3-0.6c0-0.2,0.1-0.4,0.3-0.6
		c0.2-0.2,0.4-0.4,0.6-0.5c-0.2-0.1-0.5-0.3-0.7-0.6s-0.3-0.6-0.3-0.9c0-0.5,0.2-0.9,0.6-1.2C512.3,413,512.8,412.8,513.4,412.9
		L513.4,412.9z M515.3,419c0-0.3-0.2-0.6-0.5-0.7c-0.3-0.1-1-0.2-2-0.2c0,0,0,0-0.1,0c0,0,0,0-0.1,0c-0.1,0-0.1,0-0.1,0s0,0-0.1,0.1
		s-0.1,0.1-0.1,0.1s0,0-0.1,0.1c-0.1,0-0.1,0.1-0.1,0.1c0,0,0,0.1-0.1,0.1s0,0.1-0.1,0.1c0,0,0,0.1,0,0.1s0,0.1,0,0.2
		c0,0.3,0.2,0.6,0.5,0.8c0.3,0.2,0.8,0.3,1.2,0.3c0.5,0,0.9-0.1,1.2-0.4C515.1,419.7,515.3,419.4,515.3,419L515.3,419z M512.2,414.5
		c0,0.4,0.1,0.7,0.3,0.9c0.2,0.2,0.5,0.4,0.8,0.4s0.6-0.1,0.8-0.4c0.2-0.2,0.3-0.5,0.3-0.9c0-0.4-0.1-0.7-0.3-0.9s-0.5-0.4-0.8-0.4
		c-0.3,0-0.6,0.1-0.8,0.4S512.2,414.2,512.2,414.5L512.2,414.5z"/>
</g>
<g>
	<path class="st0" d="M520.3,412.8c0.6,0,1,0.2,1.2,0.6s0.3,1,0.3,1.9v1.1c0,0.5,0,0.8,0.1,1.1c0,0.1,0.1,0.1,0.3,0.2
		c0.2,0,0.3,0.1,0.4,0.1c0,0,0,0,0.1,0.1c0,0.1,0,0.2,0,0.2c-0.8,0-1.2-0.1-1.3-0.1c0,0-0.4,0-1.2,0.1c0,0-0.1-0.1-0.1-0.2
		s0-0.1,0.1-0.1c0.1,0,0.2,0,0.4-0.1c0.2,0,0.3-0.1,0.3-0.2c0.1-0.2,0.1-0.5,0.1-0.8v-1.2c0-0.7-0.1-1.2-0.3-1.5
		c-0.2-0.3-0.5-0.4-0.9-0.4c-0.2,0-0.5,0.1-0.7,0.3c-0.2,0.2-0.3,0.4-0.3,0.5v2.1c0,0.5,0,0.8,0.1,1.1c0,0.1,0.1,0.1,0.3,0.2
		c0.2,0.1,0.3,0.1,0.4,0.1c0,0,0,0,0.1,0.1s0,0.2,0,0.2c-0.8,0-1.2-0.1-1.3-0.1c0,0-0.5,0-1.3,0.1c0,0,0-0.1,0-0.2s0-0.1,0-0.1
		c0.1,0,0.2,0,0.4-0.1c0.2,0,0.3-0.1,0.3-0.2c0.1-0.2,0.1-0.5,0.1-0.8v-2.3c0-0.3-0.1-0.5-0.2-0.6c-0.1-0.1-0.2-0.2-0.3-0.2
		s-0.2,0-0.3,0c-0.1,0-0.1,0-0.1,0c0-0.2,0-0.3,0.1-0.3c0.8-0.1,1.4-0.2,1.7-0.3c0,0,0,0,0.1,0c0,0,0,0,0.1,0.1s0,0.1,0,0.1
		c0,0.2,0,0.4,0,0.5c0,0,0,0,0,0c0,0,0,0,0,0c0.2-0.2,0.4-0.4,0.8-0.5C519.7,412.8,520,412.8,520.3,412.8L520.3,412.8z"/>
</g>
<g>
	<path class="st0" d="M496.3,430.4c0,0.1-0.1,0.4-0.2,0.9c-0.1,0.5-0.2,0.8-0.2,0.8c-0.6,0.4-1.5,0.5-2.9,0.5c-1,0-2-0.4-2.7-1.2
		c-0.7-0.8-1.1-1.7-1.1-2.8c0-1.1,0.4-2.1,1.1-2.9c0.8-0.8,1.7-1.2,2.8-1.2c0.9,0,1.9,0.1,2.9,0.3c0,1.1,0,1.6,0,1.7
		c0,0.1-0.1,0.2-0.2,0.2c-0.1,0-0.1,0-0.2-0.1c0-0.1,0-0.2-0.1-0.3c0-0.1-0.1-0.2-0.2-0.4c-0.1-0.2-0.2-0.3-0.4-0.4
		c-0.2-0.1-0.4-0.2-0.7-0.3c-0.3-0.1-0.6-0.1-1-0.1c-0.8,0-1.5,0.3-2,1s-0.8,1.5-0.8,2.3c0,0.7,0.1,1.2,0.3,1.8
		c0.2,0.5,0.6,1,1.1,1.3c0.5,0.4,1,0.5,1.7,0.5c0.8,0,1.4-0.2,1.8-0.7c0.1-0.1,0.2-0.3,0.3-0.5s0.2-0.4,0.2-0.5s0.1-0.2,0.1-0.2
		c0,0,0.1,0,0.2,0C496.1,430.4,496.1,430.4,496.3,430.4L496.3,430.4L496.3,430.4z"/>
</g>
<g>
	<path class="st0" d="M499.3,427.4c0.4,0,0.7,0.1,1,0.2c0.3,0.1,0.5,0.3,0.6,0.5c0.2,0.2,0.2,0.4,0.3,0.7c0.1,0.2,0.1,0.5,0.1,0.7
		c0,0.2,0,0.3-0.1,0.3c0,0-0.1,0-0.3,0h-3c-0.1,0-0.1,0-0.1,0.1c0,0.5,0.2,1,0.5,1.4c0.3,0.4,0.7,0.6,1.3,0.6c0.2,0,0.3,0,0.5,0
		c0.2,0,0.3-0.1,0.4-0.1c0.1,0,0.2-0.1,0.3-0.1c0.1,0,0.1-0.1,0.2-0.1l0.1-0.1c0,0,0.1,0,0.1,0.2c0,0.1,0,0.1-0.1,0.2
		c-0.2,0.2-0.4,0.4-0.7,0.6c-0.3,0.2-0.7,0.3-1,0.3c-0.7,0-1.2-0.2-1.7-0.8c-0.5-0.5-0.7-1.1-0.7-1.8c0-0.8,0.2-1.5,0.7-2
		C498,427.6,498.6,427.4,499.3,427.4L499.3,427.4z M499.2,427.8c-0.4,0-0.7,0.2-1,0.5c-0.2,0.3-0.3,0.6-0.3,0.9c0,0.1,0,0.1,0.1,0.1
		h2.3c0,0,0.1,0,0.1-0.1c0-0.2-0.1-0.5-0.3-0.9C499.9,428,499.6,427.8,499.2,427.8L499.2,427.8z"/>
</g>
<g>
	<path class="st0" d="M505.5,427.4c0.6,0,1,0.2,1.2,0.6c0.2,0.4,0.3,1,0.3,1.9v1.1c0,0.5,0,0.8,0.1,1.1c0,0.1,0.1,0.1,0.3,0.2
		s0.3,0.1,0.4,0.1c0,0,0,0,0,0.1c0,0.1,0,0.2,0,0.2c-0.8,0-1.2-0.1-1.3-0.1c0,0-0.4,0-1.2,0.1c0,0,0-0.1,0-0.2c0-0.1,0-0.2,0-0.2
		c0.1,0,0.2,0,0.4-0.1c0.2,0,0.3-0.1,0.3-0.2c0.1-0.2,0.1-0.5,0.1-0.8V430c0-0.7-0.1-1.2-0.3-1.5c-0.2-0.3-0.5-0.4-0.9-0.4
		c-0.2,0-0.5,0.1-0.7,0.3c-0.2,0.2-0.3,0.4-0.3,0.5v2.1c0,0.5,0,0.8,0.1,1.1c0,0.1,0.1,0.1,0.3,0.2c0.2,0.1,0.3,0.1,0.4,0.1
		c0,0,0,0,0,0.1s0,0.2,0,0.2c-0.8,0-1.2-0.1-1.3-0.1c0,0-0.5,0-1.3,0.1c0,0,0-0.1,0-0.2c0-0.1,0-0.2,0-0.2c0.1,0,0.2,0,0.4-0.1
		c0.2,0,0.3-0.1,0.3-0.2c0.1-0.2,0.1-0.5,0.1-0.8v-2.3c0-0.3-0.1-0.5-0.2-0.7c-0.1-0.1-0.2-0.2-0.3-0.2c-0.1,0-0.2,0-0.3,0
		s-0.1,0-0.1,0c0-0.2,0-0.3,0.1-0.3c0.8-0.1,1.4-0.2,1.7-0.3c0,0,0,0,0.1,0c0,0,0,0,0.1,0.1s0,0.1,0,0.2c0,0.2,0,0.4,0,0.5
		c0,0,0,0,0,0c0,0,0,0,0,0c0.2-0.2,0.4-0.4,0.8-0.5C504.9,427.4,505.2,427.4,505.5,427.4L505.5,427.4z"/>
</g>
<path class="st0" d="M509,428.2h-0.7c0,0-0.1-0.1-0.1-0.2c0,0,0-0.1,0-0.1c0.2-0.1,0.5-0.3,0.8-0.6c0.1-0.1,0.2-0.2,0.3-0.4
	c0.1-0.1,0.2-0.2,0.2-0.3s0.1-0.1,0.1-0.2c0.2,0,0.4,0,0.4,0.1v1.2c0.2,0,0.5,0,0.9,0c0.4,0,0.6,0,0.7,0c0.1,0,0.1,0,0.1,0.1
	c0,0.1,0,0.3-0.1,0.5h-1.6v2.9c0,0.3,0.1,0.6,0.2,0.8c0.2,0.2,0.4,0.3,0.6,0.3c0.2,0,0.5-0.1,0.7-0.2c0,0,0.1,0,0.1,0.1
	c0,0.1,0.1,0.1,0.1,0.1c-0.1,0.1-0.3,0.2-0.5,0.4c-0.2,0.1-0.5,0.2-0.8,0.2c-0.4,0-0.7-0.1-1-0.4c-0.3-0.3-0.4-0.6-0.4-1.1
	L509,428.2L509,428.2z"/>
<g>
	<path class="st0" d="M515.3,427.5c0.5,0,0.8,0.1,0.9,0.4c0,0.3,0,0.5-0.1,0.6c-0.1,0.1-0.2,0.2-0.3,0.2c-0.1,0-0.3-0.1-0.4-0.2
		c-0.1-0.1-0.3-0.2-0.5-0.2c-0.2,0-0.5,0.1-0.6,0.4c-0.2,0.2-0.3,0.5-0.3,0.7v1.8c0,0.5,0,0.8,0.1,1.1c0,0.1,0.1,0.1,0.3,0.2
		s0.3,0.1,0.4,0.1c0,0,0,0,0,0.1c0,0.1,0,0.2,0,0.2c-0.8,0-1.2-0.1-1.3-0.1c0,0-0.5,0-1.3,0.1c0,0,0-0.1,0-0.2s0-0.1,0-0.1
		c0.1,0,0.2,0,0.4-0.1c0.2,0,0.3-0.1,0.3-0.2c0.1-0.2,0.1-0.5,0.1-0.8v-2.3c0-0.3-0.1-0.5-0.2-0.6c-0.1-0.1-0.2-0.2-0.3-0.2
		c-0.1,0-0.2,0-0.3,0s-0.1,0-0.1,0c0-0.2,0-0.3,0.1-0.3c0.8-0.1,1.4-0.2,1.7-0.3c0,0,0,0,0.1,0c0,0,0,0,0.1,0.1s0,0.1,0,0.1
		l-0.1,0.6c0.1-0.2,0.3-0.4,0.6-0.6S515,427.5,515.3,427.5L515.3,427.5z"/>
</g>
<g>
	<path class="st0" d="M519.1,427.5c0.4,0,0.7,0.1,1,0.2c0.3,0.1,0.5,0.3,0.6,0.5s0.2,0.4,0.3,0.7s0.1,0.5,0.1,0.7
		c0,0.2,0,0.3-0.1,0.3c0,0-0.1,0-0.3,0h-3c-0.1,0-0.1,0-0.1,0.1c0,0.5,0.1,1,0.5,1.4c0.3,0.4,0.7,0.6,1.3,0.6c0.2,0,0.3,0,0.5,0
		s0.3-0.1,0.4-0.1c0.1,0,0.2-0.1,0.3-0.1c0.1,0,0.1-0.1,0.2-0.1l0.1-0.1c0,0,0.1,0,0.1,0.2c0,0.1,0,0.1-0.1,0.2
		c-0.2,0.2-0.4,0.4-0.7,0.6c-0.3,0.2-0.7,0.3-1,0.3c-0.7,0-1.2-0.2-1.7-0.8c-0.5-0.5-0.7-1.1-0.7-1.8c0-0.8,0.2-1.5,0.7-2
		C517.8,427.7,518.4,427.5,519.1,427.5L519.1,427.5z M519,427.9c-0.4,0-0.7,0.2-1,0.5c-0.2,0.4-0.3,0.6-0.3,0.9c0,0.1,0,0.1,0.1,0.1
		h2.3c0,0,0.1,0,0.1-0.1c0-0.2-0.1-0.5-0.3-0.9C519.6,428.1,519.4,427.9,519,427.9L519,427.9z"/>
</g>
<g>
	<path class="st0" d="M523.7,427.5c0.2,0,0.4,0,0.7,0.1s0.5,0.1,0.6,0.1c0.1,0.4,0.1,0.8,0.1,1.2c0,0,0,0.1-0.2,0.1s-0.2,0-0.2-0.1
		c0-0.2-0.2-0.4-0.3-0.6s-0.4-0.3-0.6-0.3c-0.6,0-0.9,0.2-0.9,0.7c0,0.1,0,0.2,0,0.3c0,0.1,0.1,0.2,0.2,0.3c0.1,0.1,0.2,0.1,0.2,0.2
		s0.1,0.1,0.3,0.2c0.2,0.1,0.3,0.1,0.3,0.2c0,0,0.1,0.1,0.3,0.2c0.2,0.1,0.3,0.2,0.3,0.2s0.2,0.1,0.3,0.2c0.1,0.1,0.2,0.2,0.3,0.3
		c0.1,0.1,0.1,0.2,0.2,0.3s0.1,0.2,0.1,0.4c0,0.5-0.2,0.9-0.5,1.2s-0.8,0.5-1.3,0.5c-0.2,0-0.3,0-0.5,0c-0.1,0-0.3,0-0.5-0.1
		s-0.3-0.1-0.4-0.1c0-0.1-0.1-0.3-0.1-0.6c0-0.3-0.1-0.5-0.1-0.6c0.1,0,0.1-0.1,0.1-0.1c0.1,0,0.2,0,0.2,0.1c0,0.2,0.2,0.5,0.5,0.7
		s0.5,0.3,0.8,0.3c0.2,0,0.5-0.1,0.6-0.2c0.2-0.1,0.2-0.3,0.2-0.6c0-0.1,0-0.3-0.1-0.4s-0.1-0.2-0.2-0.3c-0.1-0.1-0.2-0.2-0.3-0.2
		c-0.1-0.1-0.2-0.1-0.4-0.2c-0.2-0.1-0.3-0.2-0.4-0.2c-0.6-0.4-0.9-0.8-0.9-1.3c0-0.4,0.2-0.8,0.5-1S523.2,427.5,523.7,427.5
		L523.7,427.5z"/>
</g>
<text transform="matrix(1 0 0 1 408.84 470.33)" class="st0 st2 st5">Competitions</text>
<text transform="matrix(1 0 0 1 346.58 451.3)" class="st0 st2 st4">Shops</text>
<text transform="matrix(1 0 0 1 133.68 471.87)" class="st0 st2 st5">Sustainability</text>
<text transform="matrix(1 0 0 1 246.48 471.16)" class="st0 st2 st4">Quality</text>
<text transform="matrix(1 0 0 1 129.09 291.51)" class="st0 st2 st4">Safety</text>
<text transform="matrix(1 0 0 1 82.36 383.93)" class="st0 st2 st4">Inclusion</text>
<text transform="matrix(1 0 0 1 87.84 203.98)" class="st0 st2 st4">Policy</text>
<text transform="matrix(1 0 0 1 87.84 218.67)" class="st0 st2 st4">Creation</text>
<text transform="matrix(1 0 0 1 57.82 153.43)" class="st0 st2 st6">Goals and </text>
<text transform="matrix(1 0 0 1 57.82 163.71)" class="st0 st2 st6">Problems</text>
<text transform="matrix(1 0 0 1 22.31 240.49)" class="st0 st2 st6">Targets, </text>
<text transform="matrix(1 0 0 1 22.03 250.77)" class="st0 st2 st6">Rules, &amp; </text>
<text transform="matrix(1 0 0 1 26.45 261.05)" class="st0 st2 st6">Tools</text>
<text transform="matrix(1 0 0 1 88.14 445.85)" class="st0 st2 st6">Multi-</text>
<text transform="matrix(1 0 0 1 88.14 456.13)" class="st0 st2 st6">Lingual</text>
<text transform="matrix(1 0 0 1 34.75 435.86)" class="st0 st2 st6">Literacy</text>
<text transform="matrix(1 0 0 1 63.7 270.88)" class="st0 st2 st7">Rationales &amp; </text>
<text transform="matrix(1 0 0 1 63.7 279.69)" class="st0 st2 st7">Assumptions</text>
<text transform="matrix(1 0 0 1 41.74 330.36)" class="st0 st2 st7">Cognitive </text>
<text transform="matrix(1 0 0 1 41.74 339.17)" class="st0 st2 st7">Disabilities</text>
<text transform="matrix(1 0 0 1 11.4 379.05)" class="st0 st2 st7">Physical </text>
<text transform="matrix(1 0 0 1 11.4 387.86)" class="st0 st2 st7">Disabilities</text>
<text transform="matrix(1 0 0 1 10.49 187.28)" class="st0 st2 st8">Agents &amp; </text>
<text transform="matrix(1 0 0 1 10.49 194.62)" class="st0 st2 st8">Implementation </text>
<text transform="matrix(1 0 0 1 10.49 201.97)" class="st0 st2 st8">Structures</text>
<text transform="matrix(1 0 0 1 106.62 66.97)" class="st0 st2 st6">Governance </text>
<text transform="matrix(1 0 0 1 106.62 77.25)" class="st0 st2 st6">Structures</text>
<text transform="matrix(1 0 0 1 321.58 73.87)" class="st0 st2 st6">Democratic </text>
<text transform="matrix(1 0 0 1 321.58 84.15)" class="st0 st2 st6">Values</text>
<text transform="matrix(1 0 0 1 104.96 115.59)" class="st0 st2 st6">Institutions</text>
<text transform="matrix(1 0 0 1 112.52 125.87)" class="st0 st2 st6">&amp; their </text>
<text transform="matrix(1 0 0 1 112.55 136.15)" class="st0 st2 st6">culture</text>
<text transform="matrix(1 0 0 1 243.4799 66.6498)" class="st0 st2 st5">Justice</text>
<text transform="matrix(1 0 0 1 283 36.88)" class="st0 st2 st6">Citizenship</text>
<text transform="matrix(1 0 0 1 454.96 21.06)" class="st0 st2 st9">R&amp;D </text>
<text transform="matrix(1 0 0 1 450.91 32.81)" class="st0 st2 st9">Output</text>
<text transform="matrix(1 0 0 1 376.23 31.43)" class="st0 st2 st7">Government </text>
<text transform="matrix(1 0 0 1 376.23 40.24)" class="st0 st2 st7">Procurement</text>
<text transform="matrix(1 0 0 1 493.63 72.36)" class="st0 st2 st7">Transfer </text>
<text transform="matrix(1 0 0 1 493.63 81.17)" class="st0 st2 st7">and Diffusion</text>
<text transform="matrix(1 0 0 1 482.46 124.94)" class="st0 st2 st7">Intellectual </text>
<text transform="matrix(1 0 0 1 482.46 133.75)" class="st0 st2 st7">Property </text>
<text transform="matrix(1 0 0 1 482.46 142.56)" class="st0 st2 st7">(Patents)</text>
<text transform="matrix(1 0 0 1 566.05 155.83)" class="st0 st2 st6">SME </text>
<text transform="matrix(1 0 0 1 566.05 166.11)" class="st0 st2 st6">Support</text>
<text transform="matrix(1 0 0 1 588.31 198.88)" class="st0 st2 st6">Large</text>
<text transform="matrix(1 0 0 1 588.31 209.16)" class="st0 st2 st6">Enterprise </text>
<text transform="matrix(1 0 0 1 588.31 219.44)" class="st0 st2 st6">Support</text>
<text transform="matrix(1 0 0 1 539.76 198.88)" class="st0 st2 st6">Private </text>
<text transform="matrix(1 0 0 1 539.76 209.16)" class="st0 st2 st6">Sector</text>
<text transform="matrix(1 0 0 1 539.76 219.44)" class="st0 st2 st6">Support</text>
<text transform="matrix(1 0 0 1 586.1 278.68)" class="st0 st2 st7">S&amp;T grads</text>
<text transform="matrix(1 0 0 1 586.1 287.49)" class="st0 st2 st7">in Higher Ed</text>
<text transform="matrix(1 0 0 1 575.95 333.38)" class="st0 st2 st7">Industry </text>
<text transform="matrix(1 0 0 1 575.95 342.19)" class="st0 st2 st7">Employement</text>
<text transform="matrix(1 0 0 1 537.31 295.59)" class="st0 st2 st7">Knowledge </text>
<text transform="matrix(1 0 0 1 537.31 304.4)" class="st0 st2 st7">Economy</text>
<text transform="matrix(1 0 0 1 340.89 129.22)" class="st0 st2 st9">Problem</text>
<text transform="matrix(1 0 0 1 342.73 140.97)" class="st0 st2 st9">Solving</text>
<g>
	<path class="st0" d="M165.4,33.9c0-0.4,0.1-0.7,0.4-0.9s0.6-0.3,1-0.3c0.1,0,0.2,0,0.3,0s0.2,0,0.2,0c0.1,0,0.1,0,0.3,0.1
		c0.1,0,0.2,0.1,0.3,0.1c0.1,0.2,0.1,0.6,0.1,1c0,0,0,0-0.1,0c-0.1,0-0.2,0-0.2-0.1c0-0.2-0.1-0.4-0.3-0.6c-0.2-0.2-0.4-0.3-0.7-0.3
		c-0.3,0-0.5,0.1-0.6,0.2s-0.2,0.3-0.2,0.5c0,0.1,0,0.2,0,0.3c0,0.1,0.1,0.2,0.1,0.2c0,0.1,0.1,0.1,0.2,0.2s0.1,0.1,0.2,0.2
		c0,0,0.1,0.1,0.2,0.2c0.1,0.1,0.2,0.1,0.2,0.1c0,0,0.1,0.1,0.2,0.2c0.1,0.1,0.2,0.2,0.3,0.2c0,0,0.1,0.1,0.2,0.2
		c0.1,0.1,0.2,0.2,0.2,0.2c0.1,0.1,0.1,0.2,0.1,0.3c0,0.1,0.1,0.2,0.1,0.3c0,0.4-0.1,0.7-0.5,0.9c-0.3,0.2-0.6,0.4-1,0.4
		c-0.1,0-0.2,0-0.4,0c-0.1,0-0.2,0-0.3,0c-0.1,0-0.2,0-0.3-0.1c-0.1,0-0.2,0-0.3-0.1c-0.1-0.6-0.2-1-0.2-1.1c0,0,0,0,0.1,0
		c0.1,0,0.1,0,0.2,0.1c0.2,0.7,0.6,1,1.2,1c0.2,0,0.4-0.1,0.6-0.2c0.2-0.2,0.2-0.3,0.2-0.6c0-0.1,0-0.2,0-0.3c0-0.1-0.1-0.2-0.1-0.2
		s-0.1-0.1-0.2-0.2c-0.1-0.1-0.1-0.1-0.2-0.1c0,0-0.1-0.1-0.2-0.1c-0.1-0.1-0.2-0.1-0.2-0.1c-0.1-0.1-0.2-0.1-0.3-0.2
		c-0.1,0-0.1-0.1-0.3-0.2c-0.1-0.1-0.2-0.2-0.3-0.2s-0.1-0.1-0.2-0.2c-0.1-0.1-0.1-0.2-0.2-0.3S165.3,34,165.4,33.9L165.4,33.9z"/>
</g>
<g>
	<path class="st0" d="M170.3,34.2c0.4,0,0.8,0.2,1.1,0.5c0.3,0.3,0.5,0.7,0.5,1.1s-0.1,0.8-0.4,1.1c-0.3,0.3-0.7,0.5-1.1,0.5
		c-0.4,0-0.8-0.2-1.1-0.5c-0.3-0.3-0.5-0.7-0.5-1.1s0.1-0.8,0.4-1.1C169.5,34.4,169.8,34.2,170.3,34.2L170.3,34.2z M170.2,34.5
		c-0.2,0-0.5,0.1-0.6,0.3s-0.2,0.5-0.2,0.8c0,0.4,0.1,0.7,0.3,1c0.2,0.3,0.4,0.4,0.7,0.4c0.2,0,0.5-0.1,0.6-0.4s0.2-0.5,0.2-0.9
		c0-0.4-0.1-0.7-0.3-1S170.5,34.5,170.2,34.5L170.2,34.5z"/>
</g>
<g>
	<path class="st0" d="M173.8,34.2c0.5,0,0.9,0.1,1.1,0.4c0,0.3-0.1,0.5-0.3,0.5c-0.1,0-0.1,0-0.2,0c0,0-0.1-0.1-0.2-0.2
		c-0.1-0.2-0.3-0.3-0.5-0.3c-0.2,0-0.4,0.1-0.5,0.3s-0.2,0.5-0.2,0.8s0.1,0.7,0.3,1s0.5,0.4,0.8,0.4c0.1,0,0.2,0,0.3,0
		c0.1,0,0.2,0,0.2-0.1s0.1,0,0.2-0.1c0.1,0,0.1,0,0.1-0.1l0.1,0c0,0,0,0,0,0.1c0,0,0,0.1,0,0.1c-0.1,0.1-0.2,0.2-0.4,0.4
		c-0.2,0.1-0.4,0.2-0.6,0.2c-0.4,0-0.7-0.2-1-0.5s-0.4-0.7-0.4-1.1s0.1-0.8,0.4-1.1C173,34.4,173.3,34.2,173.8,34.2L173.8,34.2z"/>
</g>
<g>
	<path class="st0" d="M176.3,36.4c0,0.3,0,0.5,0.1,0.6c0,0,0.1,0.1,0.2,0.1c0.1,0,0.2,0,0.2,0c0,0,0,0,0,0.1c0,0.1,0,0.1,0,0.1
		c-0.5,0-0.7,0-0.8,0s-0.3,0-0.8,0c0,0,0-0.1,0-0.1s0-0.1,0-0.1c0.1,0,0.1,0,0.2,0c0.1,0,0.2-0.1,0.2-0.1c0-0.1,0-0.3,0-0.5v-1.4
		c0-0.2,0-0.3-0.1-0.4c0-0.1-0.1-0.1-0.2-0.1c-0.1,0-0.1,0-0.2,0c0,0-0.1,0-0.1,0c0-0.1,0-0.2,0-0.2c0.5-0.1,0.8-0.1,1-0.2h0h0
		c0,0,0,0,0,0.1c0,0,0,0.1,0,0.1c0,0.2,0,0.4,0,0.5L176.3,36.4L176.3,36.4z M175.7,33.4c-0.1-0.1-0.1-0.2-0.1-0.2s0-0.2,0.1-0.2
		s0.1-0.1,0.2-0.1s0.2,0,0.2,0.1s0.1,0.2,0.1,0.2s0,0.2-0.1,0.2s-0.1,0.1-0.2,0.1S175.8,33.5,175.7,33.4z"/>
</g>
<g>
	<path class="st0" d="M178.6,34.2c0.3,0,0.4,0.1,0.6,0.2c0.1,0.1,0.2,0.3,0.2,0.6v1.7c0,0.1,0,0.2,0.1,0.2c0,0.1,0.1,0.1,0.2,0.1
		c0.1,0,0.1,0,0.2-0.1c0,0,0,0,0,0.1c0,0.1,0,0.1,0,0.2c-0.2,0.2-0.4,0.2-0.5,0.2c-0.1,0-0.2,0-0.3-0.1s-0.2-0.2-0.2-0.3
		c0,0,0,0-0.1,0s-0.1,0.1-0.1,0.1c0,0-0.1,0.1-0.2,0.1c-0.1,0-0.1,0.1-0.2,0.1s-0.2,0-0.3,0c-0.2,0-0.4-0.1-0.6-0.2
		c-0.1-0.1-0.2-0.3-0.2-0.5c0-0.1,0-0.2,0.1-0.3c0.1-0.1,0.1-0.2,0.2-0.2c0.1-0.1,0.2-0.1,0.3-0.2s0.2-0.1,0.3-0.1
		c0.1,0,0.2-0.1,0.4-0.1c0.1,0,0.2-0.1,0.3-0.1c0,0,0.1,0,0.1-0.1V35c0-0.2,0-0.3-0.1-0.3c-0.1-0.1-0.2-0.1-0.3-0.1
		c-0.1,0-0.3,0-0.4,0.2c-0.1,0.1-0.1,0.2-0.1,0.4c0,0.2-0.1,0.2-0.3,0.2c-0.1,0-0.2,0-0.3-0.1c0-0.2,0.1-0.4,0.5-0.6
		C178,34.3,178.3,34.2,178.6,34.2L178.6,34.2z M178,36.9c0.1,0.1,0.2,0.1,0.3,0.1s0.2,0,0.4-0.1c0.1-0.1,0.2-0.2,0.2-0.2v-0.7
		c0,0-0.1,0-0.3,0.1s-0.3,0.1-0.4,0.1c-0.1,0-0.2,0.1-0.2,0.2c-0.1,0.1-0.1,0.2-0.1,0.3C177.8,36.7,177.9,36.8,178,36.9L178,36.9z"
		/>
</g>
<g>
	<path class="st0" d="M180.6,36.5v-3.1c0-0.2,0-0.3,0-0.5c0-0.1-0.1-0.1-0.4-0.1h-0.1c0,0,0,0,0-0.1c0-0.1,0-0.1,0-0.1
		c0.1,0,0.3,0,0.4-0.1c0.1,0,0.2,0,0.3-0.1c0.1,0,0.1,0,0.2-0.1s0.1,0,0.1,0l0,0h0c0,0,0,0,0.1,0c0,0,0,0,0,0.1
		c-0.1,0.2-0.1,0.4-0.1,0.6v3.3c0,0.3,0,0.5,0.1,0.6c0,0,0.1,0.1,0.2,0.1c0.1,0,0.2,0,0.2,0c0,0,0,0,0,0.1c0,0.1,0,0.1,0,0.1
		c-0.5,0-0.7,0-0.8,0c0,0-0.3,0-0.8,0c0,0,0-0.1,0-0.1s0-0.1,0-0.1c0.1,0,0.1,0,0.2,0c0.1,0,0.2-0.1,0.2-0.1
		C180.6,36.9,180.6,36.8,180.6,36.5L180.6,36.5z"/>
</g>
<g>
	<path class="st0" d="M156.3,45.5c0,0.1,0,0.2-0.1,0.6s-0.1,0.5-0.1,0.5c-0.4,0.2-0.9,0.3-1.7,0.3c-0.6,0-1.2-0.2-1.6-0.7
		c-0.4-0.5-0.7-1-0.7-1.7c0-0.7,0.2-1.3,0.7-1.8c0.4-0.5,1-0.7,1.7-0.7c0.6,0,1.1,0.1,1.7,0.2c0,0.6,0,1,0,1c0,0.1-0.1,0.1-0.1,0.1
		c-0.1,0-0.1,0-0.1,0c0-0.1,0-0.1-0.1-0.2s-0.1-0.2-0.1-0.2c-0.1-0.1-0.1-0.2-0.2-0.3c-0.1-0.1-0.2-0.1-0.4-0.2
		c-0.2,0-0.4-0.1-0.6-0.1c-0.5,0-0.9,0.2-1.2,0.6c-0.3,0.4-0.5,0.9-0.5,1.4c0,0.4,0.1,0.7,0.2,1.1c0.1,0.3,0.4,0.6,0.6,0.8
		c0.3,0.2,0.6,0.3,1,0.3c0.5,0,0.8-0.1,1.1-0.4c0.1-0.1,0.1-0.2,0.2-0.3c0.1-0.1,0.1-0.2,0.1-0.3c0-0.1,0.1-0.1,0.1-0.1
		c0,0,0.1,0,0.1,0C156.2,45.4,156.2,45.5,156.3,45.5L156.3,45.5L156.3,45.5z"/>
</g>
<g>
	<path class="st0" d="M158.3,43.7c0.4,0,0.8,0.2,1.1,0.5c0.3,0.3,0.5,0.7,0.5,1.1c0,0.4-0.1,0.8-0.4,1.1c-0.3,0.3-0.7,0.5-1.1,0.5
		s-0.8-0.2-1.1-0.5c-0.3-0.3-0.5-0.7-0.5-1.1s0.1-0.8,0.4-1.1C157.5,43.8,157.8,43.7,158.3,43.7L158.3,43.7z M158.2,44
		c-0.2,0-0.5,0.1-0.6,0.3c-0.2,0.2-0.2,0.5-0.2,0.8c0,0.4,0.1,0.7,0.3,1s0.4,0.4,0.7,0.4c0.2,0,0.5-0.1,0.6-0.4
		c0.2-0.2,0.2-0.5,0.2-0.9c0-0.4-0.1-0.7-0.3-1C158.7,44.1,158.5,44,158.2,44L158.2,44z"/>
</g>
<g>
	<path class="st0" d="M162.4,43.7c0.3,0,0.6,0.1,0.7,0.4c0.1,0.2,0.2,0.6,0.2,1.2v0.7c0,0.3,0,0.5,0.1,0.6c0,0,0.1,0.1,0.2,0.1
		c0.1,0,0.2,0.1,0.2,0.1c0,0,0,0,0,0.1c0,0.1,0,0.1,0,0.1c-0.5,0-0.7,0-0.8,0c0,0-0.3,0-0.8,0c0,0,0-0.1,0-0.1s0-0.1,0-0.1
		c0.1,0,0.1,0,0.2-0.1s0.2-0.1,0.2-0.1c0-0.1,0.1-0.3,0.1-0.5v-0.7c0-0.4-0.1-0.8-0.2-0.9c-0.1-0.2-0.3-0.2-0.6-0.2
		c-0.1,0-0.3,0.1-0.4,0.2c-0.1,0.1-0.2,0.2-0.2,0.3v1.3c0,0.3,0,0.5,0.1,0.6c0,0,0.1,0.1,0.2,0.1c0.1,0,0.2,0.1,0.2,0.1
		c0,0,0,0,0,0.1c0,0.1,0,0.1,0,0.1c-0.5,0-0.7,0-0.8,0c0,0-0.3,0-0.8,0c0,0,0-0.1,0-0.1s0-0.1,0-0.1c0.1,0,0.1,0,0.2-0.1
		s0.2-0.1,0.2-0.1c0-0.1,0.1-0.3,0.1-0.5v-1.4c0-0.2,0-0.3-0.1-0.4c-0.1-0.1-0.1-0.1-0.2-0.1c-0.1,0-0.1,0-0.2,0s-0.1,0-0.1,0
		c0-0.1,0-0.2,0-0.2c0.5-0.1,0.8-0.1,1-0.2c0,0,0,0,0,0c0,0,0,0,0,0.1c0,0,0,0.1,0,0.1c0,0.1,0,0.2,0,0.3c0,0,0,0,0,0c0,0,0,0,0,0
		c0.1-0.1,0.3-0.2,0.4-0.3C162.1,43.7,162.3,43.7,162.4,43.7L162.4,43.7z"/>
</g>
<g>
	<path class="st0" d="M165.4,43.7c0.1,0,0.2,0,0.4,0c0.2,0,0.3,0,0.3,0.1c0.1,0.2,0.1,0.5,0.1,0.7c0,0,0,0-0.1,0c-0.1,0-0.1,0-0.1,0
		c0-0.1-0.1-0.3-0.2-0.4s-0.2-0.2-0.4-0.2c-0.3,0-0.5,0.1-0.5,0.4c0,0.1,0,0.1,0,0.2c0,0.1,0.1,0.1,0.1,0.2c0.1,0.1,0.1,0.1,0.1,0.1
		c0,0,0.1,0.1,0.2,0.1c0.1,0.1,0.2,0.1,0.2,0.1c0,0,0.1,0,0.2,0.1c0.1,0.1,0.2,0.1,0.2,0.1c0,0,0.1,0.1,0.2,0.1
		c0.1,0.1,0.1,0.1,0.2,0.2c0,0,0.1,0.1,0.1,0.2s0.1,0.1,0.1,0.2c0,0.3-0.1,0.5-0.3,0.7c-0.2,0.2-0.5,0.3-0.8,0.3c-0.1,0-0.2,0-0.3,0
		c-0.1,0-0.2,0-0.3-0.1c-0.1,0-0.2,0-0.3-0.1c0-0.1-0.1-0.2-0.1-0.4c0-0.2,0-0.3,0-0.4c0,0,0.1,0,0.1,0c0.1,0,0.1,0,0.1,0
		c0,0.1,0.1,0.3,0.3,0.4c0.1,0.1,0.3,0.2,0.5,0.2c0.1,0,0.3,0,0.4-0.1c0.1-0.1,0.1-0.2,0.1-0.4c0-0.1,0-0.2-0.1-0.2
		s-0.1-0.1-0.1-0.2c-0.1-0.1-0.1-0.1-0.2-0.1s-0.1-0.1-0.2-0.1c-0.1-0.1-0.2-0.1-0.2-0.1c-0.4-0.2-0.6-0.5-0.6-0.8
		c0-0.3,0.1-0.5,0.3-0.6C164.9,43.7,165.1,43.6,165.4,43.7L165.4,43.7z"/>
</g>
<g>
	<path class="st0" d="M167.2,44.1h-0.4c0,0,0-0.1,0-0.2c0,0,0-0.1,0-0.1c0.1-0.1,0.3-0.2,0.4-0.4c0.1-0.1,0.1-0.1,0.1-0.2
		c0.1-0.1,0.1-0.2,0.1-0.2c0-0.1,0.1-0.1,0.1-0.1c0.1,0,0.2,0,0.2,0v0.7c0.1,0,0.3,0,0.6,0s0.4,0,0.4,0c0,0,0.1,0,0.1,0.1
		c0,0.1,0,0.2-0.1,0.3h-0.9v1.8c0,0.2,0.1,0.3,0.1,0.5c0.1,0.1,0.2,0.2,0.4,0.2c0.1,0,0.3,0,0.4-0.1c0,0,0,0,0.1,0.1
		c0,0,0,0.1,0,0.1c-0.1,0.1-0.2,0.2-0.3,0.2c-0.1,0.1-0.3,0.1-0.5,0.1c-0.2,0-0.4-0.1-0.6-0.2c-0.2-0.2-0.2-0.4-0.2-0.7L167.2,44.1
		L167.2,44.1z"/>
</g>
<path class="st0" d="M170.9,43.7c0.3,0,0.5,0.1,0.6,0.2c0,0.2,0,0.3-0.1,0.4s-0.1,0.1-0.2,0.1c-0.1,0-0.2,0-0.2-0.1
	s-0.2-0.1-0.3-0.1c-0.1,0-0.3,0.1-0.4,0.2s-0.2,0.3-0.2,0.4v1.1c0,0.3,0,0.5,0.1,0.6c0,0,0.1,0.1,0.2,0.1s0.2,0.1,0.2,0.1
	c0,0,0,0,0,0.1c0,0.1,0,0.1,0,0.1c-0.5,0-0.7,0-0.8,0s-0.3,0-0.8,0c0,0,0-0.1,0-0.1s0-0.1,0-0.1c0.1,0,0.1,0,0.2-0.1
	s0.2-0.1,0.2-0.1c0-0.1,0.1-0.3,0.1-0.5v-1.4c0-0.2,0-0.3-0.1-0.4c-0.1-0.1-0.1-0.1-0.2-0.1c-0.1,0-0.1,0-0.2,0s-0.1,0-0.1,0
	c0-0.1,0-0.2,0-0.2c0.5-0.1,0.8-0.1,1-0.2c0,0,0,0,0,0c0,0,0,0,0,0.1c0,0,0,0.1,0,0.1l0,0.4c0.1-0.1,0.2-0.2,0.4-0.4
	C170.6,43.8,170.8,43.7,170.9,43.7L170.9,43.7z"/>
<g>
	<path class="st0" d="M174.7,44.4v1.4c0,0.2,0,0.4,0.1,0.5c0,0,0,0.1,0.1,0.1c0,0,0.1,0,0.1,0c0.1,0,0.1,0,0.1,0h0.1c0,0,0,0,0,0.1
		c0,0,0,0,0,0.1c0,0,0,0,0,0c-0.1,0-0.1,0-0.2,0c-0.1,0-0.2,0-0.2,0.1c-0.1,0-0.1,0-0.2,0.1c-0.1,0-0.1,0-0.2,0.1h-0.1
		c0,0-0.1,0-0.1-0.1v-0.4c-0.3,0.3-0.6,0.5-0.9,0.5c-0.2,0-0.3,0-0.5-0.1c-0.1-0.1-0.2-0.2-0.3-0.3c-0.1-0.2-0.1-0.3-0.1-0.4
		s0-0.3,0-0.4v-0.9c0-0.2,0-0.3-0.1-0.4c-0.1-0.1-0.1-0.1-0.2-0.1c-0.1,0-0.1,0-0.2,0s-0.1,0-0.1,0c0-0.1,0-0.2,0-0.2
		c0.5-0.1,0.8-0.1,1-0.2c0,0,0,0,0,0c0,0,0,0,0,0.1c0,0,0,0.1,0,0.1c0,0.2,0,0.4,0,0.5v1c0,0.4,0.1,0.6,0.2,0.8
		c0.1,0.2,0.3,0.3,0.5,0.3c0.1,0,0.3-0.1,0.4-0.2s0.2-0.2,0.2-0.3v-1.3c0-0.2,0-0.3-0.1-0.4c-0.1-0.1-0.1-0.1-0.2-0.1
		c-0.1,0-0.1,0-0.2,0s-0.1,0-0.1,0c0-0.1,0-0.2,0-0.2c0.5-0.1,0.8-0.1,1-0.2c0,0,0,0,0,0c0,0,0,0,0,0.1c0,0,0,0.1,0,0.1
		C174.7,44.1,174.7,44.3,174.7,44.4L174.7,44.4z"/>
</g>
<g>
	<path class="st0" d="M176.9,43.7c0.5,0,0.9,0.1,1.1,0.4c0,0.3-0.1,0.5-0.3,0.5c-0.1,0-0.1,0-0.2,0c0,0-0.1-0.1-0.2-0.2
		c-0.1-0.2-0.3-0.3-0.5-0.3s-0.4,0.1-0.5,0.3c-0.2,0.2-0.2,0.5-0.2,0.8s0.1,0.7,0.3,1s0.4,0.4,0.8,0.4c0.1,0,0.2,0,0.3,0
		c0.1,0,0.2,0,0.2-0.1s0.1,0,0.2-0.1c0.1,0,0.1,0,0.1-0.1l0.1,0c0,0,0,0,0,0.1c0,0,0,0.1,0,0.1c-0.1,0.1-0.2,0.2-0.4,0.4
		c-0.2,0.1-0.4,0.2-0.6,0.2c-0.4,0-0.7-0.2-1-0.5c-0.3-0.3-0.4-0.7-0.4-1.1s0.1-0.8,0.4-1.1S176.5,43.7,176.9,43.7L176.9,43.7z"/>
</g>
<g>
	<path class="st0" d="M178.6,44h-0.4c0,0,0,0,0-0.2c0,0,0,0,0,0c0.1-0.1,0.3-0.2,0.4-0.4c0.1-0.1,0.1-0.1,0.1-0.2
		c0.1-0.1,0.1-0.2,0.1-0.2c0-0.1,0.1-0.1,0.1-0.1c0.1,0,0.2,0,0.2,0v0.7c0.1,0,0.3,0,0.6,0s0.4,0,0.4,0c0,0,0.1,0,0.1,0.1
		c0,0.1,0,0.2-0.1,0.3h-0.9v1.8c0,0.2,0.1,0.3,0.1,0.5s0.2,0.2,0.4,0.2c0.1,0,0.3,0,0.4-0.1c0,0,0,0,0.1,0.1c0,0,0,0.1,0,0.1
		c-0.1,0.1-0.2,0.2-0.3,0.2c-0.1,0.1-0.3,0.1-0.5,0.1c-0.2,0-0.4-0.1-0.6-0.2s-0.2-0.4-0.2-0.7L178.6,44L178.6,44z"/>
</g>
<g>
	<path class="st0" d="M181.5,45.7c0,0.3,0,0.5,0.1,0.6c0,0,0.1,0.1,0.2,0.1c0.1,0,0.2,0,0.2,0c0,0,0,0,0,0.1c0,0.1,0,0.1,0,0.1
		c-0.5,0-0.7,0-0.8,0s-0.3,0-0.8,0c0,0,0-0.1,0-0.1s0-0.1,0-0.1c0.1,0,0.1,0,0.2,0s0.2-0.1,0.2-0.1c0-0.1,0.1-0.3,0.1-0.5v-1.4
		c0-0.2,0-0.3-0.1-0.4c-0.1-0.1-0.1-0.1-0.2-0.1s-0.1,0-0.2,0s-0.1,0-0.1,0c0-0.1,0-0.2,0-0.2c0.5-0.1,0.8-0.1,1-0.2h0h0
		c0,0,0,0,0,0.1c0,0,0,0.1,0,0.1c0,0.2,0,0.4,0,0.5L181.5,45.7L181.5,45.7z M181,42.7c-0.1-0.1-0.1-0.2-0.1-0.2s0-0.2,0.1-0.2
		s0.1-0.1,0.2-0.1s0.2,0,0.2,0.1s0.1,0.2,0.1,0.2s0,0.2-0.1,0.2s-0.1,0.1-0.2,0.1S181,42.7,181,42.7z"/>
</g>
<g>
	<path class="st0" d="M184,43.5c0.4,0,0.8,0.2,1.1,0.5c0.3,0.3,0.5,0.7,0.5,1.1s-0.1,0.8-0.4,1.1s-0.7,0.5-1.1,0.5s-0.8-0.2-1.1-0.5
		c-0.3-0.3-0.5-0.7-0.5-1.1s0.1-0.8,0.4-1.1C183.2,43.7,183.5,43.5,184,43.5L184,43.5z M183.9,43.8c-0.2,0-0.5,0.1-0.6,0.3
		c-0.2,0.2-0.2,0.5-0.2,0.8c0,0.4,0.1,0.7,0.3,1s0.4,0.4,0.7,0.4c0.2,0,0.5-0.1,0.6-0.4c0.2-0.2,0.2-0.5,0.2-0.9
		c0-0.4-0.1-0.7-0.3-1S184.2,43.8,183.9,43.8L183.9,43.8z"/>
</g>
<g>
	<path class="st0" d="M188.1,43.5c0.3,0,0.6,0.1,0.7,0.4c0.1,0.2,0.2,0.6,0.2,1.2v0.7c0,0.3,0,0.5,0.1,0.6c0,0,0.1,0.1,0.2,0.1
		c0.1,0,0.2,0,0.2,0c0,0,0,0,0,0.1c0,0.1,0,0.1,0,0.1c-0.5,0-0.7,0-0.8,0c0,0-0.3,0-0.8,0c0,0,0-0.1,0-0.1s0-0.1,0-0.1
		c0.1,0,0.1,0,0.2,0s0.2-0.1,0.2-0.1c0-0.1,0.1-0.3,0.1-0.5v-0.7c0-0.4-0.1-0.8-0.2-0.9S188,44,187.8,44c-0.1,0-0.3,0.1-0.4,0.2
		c-0.1,0.1-0.2,0.2-0.2,0.3v1.3c0,0.3,0,0.5,0.1,0.6c0,0,0.1,0.1,0.2,0.1c0.1,0,0.2,0,0.2,0c0,0,0,0,0,0.1c0,0.1,0,0.1,0,0.1
		c-0.5,0-0.7,0-0.8,0c0,0-0.3,0-0.8,0c0,0,0-0.1,0-0.1s0-0.1,0-0.1c0.1,0,0.1,0,0.2,0s0.2-0.1,0.2-0.1c0-0.1,0.1-0.3,0.1-0.5v-1.4
		c0-0.2,0-0.3-0.1-0.4c-0.1-0.1-0.1-0.1-0.2-0.1s-0.1,0-0.2,0s-0.1,0-0.1,0c0-0.1,0-0.2,0-0.2c0.5-0.1,0.8-0.1,1-0.2c0,0,0,0,0,0
		c0,0,0,0,0,0.1c0,0,0,0.1,0,0.1c0,0.1,0,0.2,0,0.3c0,0,0,0,0,0c0,0,0,0,0,0c0.1-0.1,0.3-0.2,0.4-0.3
		C187.8,43.6,188,43.5,188.1,43.5L188.1,43.5z"/>
</g>
<g>
	<path class="st0" d="M191.1,43.5c0.1,0,0.2,0,0.4,0c0.2,0,0.3,0,0.3,0c0.1,0.2,0.1,0.5,0.1,0.7c0,0,0,0-0.1,0c-0.1,0-0.1,0-0.1,0
		c0-0.1-0.1-0.3-0.2-0.4s-0.2-0.2-0.4-0.2c-0.3,0-0.5,0.1-0.5,0.4c0,0.1,0,0.1,0,0.2c0,0.1,0.1,0.1,0.1,0.2s0.1,0.1,0.1,0.1
		s0.1,0.1,0.2,0.1s0.2,0.1,0.2,0.1c0,0,0.1,0,0.2,0.1c0.1,0.1,0.2,0.1,0.2,0.1c0,0,0.1,0.1,0.2,0.1c0.1,0.1,0.1,0.1,0.2,0.2
		c0,0,0.1,0.1,0.1,0.2s0.1,0.1,0.1,0.2c0,0.3-0.1,0.5-0.3,0.7s-0.5,0.3-0.8,0.3c-0.1,0-0.2,0-0.3,0c-0.1,0-0.2,0-0.3-0.1
		s-0.2,0-0.3-0.1c0-0.1-0.1-0.2-0.1-0.4s0-0.3,0-0.4c0,0,0.1,0,0.1,0c0.1,0,0.1,0,0.1,0c0,0.1,0.1,0.3,0.3,0.4
		c0.1,0.1,0.3,0.2,0.5,0.2c0.1,0,0.3,0,0.4-0.1c0.1-0.1,0.1-0.2,0.1-0.4c0-0.1,0-0.2-0.1-0.2s-0.1-0.1-0.1-0.2
		c-0.1-0.1-0.1-0.1-0.2-0.1s-0.1-0.1-0.2-0.1c-0.1-0.1-0.2-0.1-0.2-0.1c-0.4-0.2-0.6-0.5-0.6-0.8c0-0.3,0.1-0.5,0.3-0.6
		C190.6,43.6,190.8,43.5,191.1,43.5L191.1,43.5z"/>
</g>
<text transform="matrix(1 0 0 1 171.9 109.17)" class="st0 st2 st4">Issues</text>
<g>
	<path class="st0" d="M271.5,110c0-0.6,0.2-1.1,0.7-1.5c0.5-0.4,1-0.6,1.6-0.6c0.2,0,0.3,0,0.5,0s0.3,0,0.4,0.1s0.2,0.1,0.4,0.1
		s0.4,0.1,0.5,0.1c0.1,0.4,0.1,1,0.1,1.7c0,0.1,0,0.1-0.1,0.1c-0.2,0-0.3,0-0.3-0.1c0-0.3-0.2-0.7-0.5-1c-0.3-0.3-0.7-0.5-1.1-0.5
		c-0.5,0-0.8,0.1-1,0.4s-0.3,0.5-0.3,0.9c0,0.2,0,0.3,0.1,0.4c0.1,0.1,0.1,0.2,0.2,0.3c0.1,0.1,0.2,0.2,0.3,0.3
		c0.1,0.1,0.2,0.2,0.3,0.2s0.2,0.1,0.4,0.3s0.3,0.2,0.4,0.2c0,0,0.2,0.1,0.4,0.3c0.2,0.2,0.4,0.2,0.5,0.3s0.2,0.2,0.4,0.3
		c0.2,0.2,0.3,0.3,0.4,0.4s0.2,0.3,0.2,0.4s0.1,0.4,0.1,0.6c0,0.6-0.2,1.2-0.8,1.6c-0.5,0.4-1.1,0.6-1.8,0.6c-0.2,0-0.4,0-0.6,0
		c-0.2,0-0.4-0.1-0.5-0.1s-0.3-0.1-0.5-0.1s-0.4-0.1-0.5-0.1c-0.2-1-0.3-1.6-0.3-1.9c0-0.1,0.1-0.1,0.2-0.1c0.1,0,0.2,0,0.3,0.1
		c0.3,1.2,0.9,1.7,2,1.7c0.4,0,0.7-0.1,1-0.4s0.4-0.6,0.4-1c0-0.2,0-0.3-0.1-0.4c0-0.1-0.1-0.2-0.1-0.3c0-0.1-0.1-0.2-0.3-0.3
		c-0.1-0.1-0.2-0.2-0.3-0.2s-0.2-0.1-0.4-0.2c-0.2-0.1-0.3-0.2-0.4-0.2c-0.2-0.1-0.4-0.2-0.5-0.3s-0.2-0.2-0.5-0.3
		c-0.2-0.1-0.4-0.3-0.5-0.4s-0.2-0.2-0.3-0.4s-0.2-0.3-0.3-0.5S271.5,110.2,271.5,110L271.5,110z"/>
</g>
<g>
	<path class="st0" d="M279.7,110.6c0.7,0,1.3,0.3,1.8,0.8s0.8,1.1,0.8,1.9s-0.2,1.4-0.8,1.9s-1.1,0.8-1.8,0.8s-1.3-0.3-1.9-0.8
		s-0.8-1.2-0.8-1.9s0.2-1.4,0.7-1.9C278.3,110.9,278.9,110.6,279.7,110.6L279.7,110.6z M279.5,111.1c-0.4,0-0.8,0.2-1,0.6
		c-0.3,0.4-0.4,0.9-0.4,1.4c0,0.7,0.2,1.2,0.5,1.7s0.7,0.7,1.2,0.7c0.4,0,0.8-0.2,1-0.6c0.3-0.4,0.4-0.9,0.4-1.4
		c0-0.7-0.2-1.2-0.5-1.7S280,111.1,279.5,111.1L279.5,111.1z"/>
</g>
<g>
	<path class="st0" d="M285.5,110.6c0.9,0,1.5,0.2,1.8,0.6c0,0.5-0.1,0.8-0.4,0.8c-0.1,0-0.2,0-0.3-0.1s-0.2-0.2-0.3-0.3
		c-0.2-0.4-0.5-0.6-0.9-0.6s-0.6,0.2-0.9,0.5c-0.3,0.3-0.4,0.8-0.4,1.4s0.2,1.2,0.5,1.6s0.8,0.6,1.3,0.6c0.2,0,0.3,0,0.5-0.1
		c0.1,0,0.3-0.1,0.4-0.1c0.1,0,0.2-0.1,0.3-0.1c0.1,0,0.1-0.1,0.2-0.1l0.1-0.1c0,0,0.1,0.1,0.1,0.2c0,0.1,0,0.1-0.1,0.2
		c-0.2,0.2-0.4,0.4-0.7,0.6c-0.3,0.2-0.6,0.3-1,0.3c-0.7,0-1.2-0.2-1.7-0.8s-0.7-1.1-0.7-1.8s0.2-1.4,0.6-1.9
		S284.8,110.6,285.5,110.6L285.5,110.6z"/>
</g>
<g>
	<path class="st0" d="M289.7,114.2c0,0.5,0,0.8,0.1,1.1c0,0.1,0.1,0.1,0.3,0.2s0.3,0.1,0.4,0.1c0,0,0,0.1,0,0.1s0,0.2,0,0.2
		c-0.8,0-1.2-0.1-1.3-0.1s-0.5,0-1.3,0.1c0,0,0-0.1,0-0.2s0-0.2,0-0.2c0.1,0,0.2,0,0.4-0.1c0.2-0.1,0.3-0.1,0.3-0.2
		c0.1-0.2,0.1-0.5,0.1-0.8v-2.3c0-0.3-0.1-0.5-0.2-0.7c-0.1-0.1-0.2-0.2-0.3-0.2c-0.1,0-0.2-0.1-0.3-0.1s-0.1,0-0.1,0
		c0-0.2,0-0.3,0.1-0.3c0.8-0.1,1.4-0.2,1.6-0.3h0c0,0,0,0,0,0c0,0,0,0,0.1,0.1c0,0.1,0,0.1,0,0.2c0,0.3-0.1,0.6-0.1,0.9L289.7,114.2
		L289.7,114.2z M288.8,109.2c-0.1-0.1-0.2-0.3-0.2-0.4s0.1-0.3,0.2-0.4c0.1-0.1,0.3-0.2,0.4-0.2s0.3,0.1,0.4,0.2
		c0.1,0.1,0.2,0.3,0.2,0.4s-0.1,0.3-0.2,0.4c-0.1,0.1-0.3,0.2-0.4,0.2S288.9,109.3,288.8,109.2z"/>
</g>
<g>
	<path class="st0" d="M293.6,110.6c0.4,0,0.8,0.1,0.9,0.3s0.3,0.6,0.3,1v2.8c0,0.2,0,0.3,0.1,0.4s0.2,0.2,0.4,0.2
		c0.1,0,0.2-0.1,0.4-0.2c0,0,0,0,0,0.1c0,0.1,0,0.2-0.1,0.2c-0.3,0.3-0.6,0.4-0.8,0.4c-0.2,0-0.4-0.1-0.5-0.2s-0.3-0.3-0.4-0.5
		c0,0,0,0-0.1,0.1s-0.1,0.1-0.2,0.2s-0.2,0.1-0.3,0.2c-0.1,0.1-0.2,0.1-0.4,0.2s-0.3,0.1-0.5,0.1c-0.4,0-0.7-0.1-0.9-0.3
		s-0.4-0.5-0.4-0.9c0-0.2,0-0.3,0.1-0.5s0.2-0.3,0.3-0.4s0.3-0.2,0.5-0.3s0.4-0.2,0.5-0.2s0.3-0.1,0.6-0.2c0.2-0.1,0.4-0.1,0.5-0.2
		c0.1,0,0.1-0.1,0.1-0.2v-0.9c0-0.2-0.1-0.4-0.2-0.6s-0.4-0.2-0.6-0.2c-0.2,0-0.4,0.1-0.6,0.2c-0.2,0.2-0.2,0.4-0.2,0.6
		c0,0.3-0.2,0.4-0.5,0.4c-0.2,0-0.4-0.1-0.5-0.2c0-0.3,0.2-0.7,0.8-1S293,110.6,293.6,110.6L293.6,110.6z M292.5,115.1
		c0.1,0.1,0.3,0.2,0.5,0.2s0.4-0.1,0.6-0.2s0.3-0.3,0.3-0.4v-1.2c-0.1,0-0.2,0.1-0.5,0.2s-0.4,0.2-0.6,0.2c-0.1,0.1-0.3,0.2-0.4,0.3
		s-0.2,0.3-0.2,0.5C292.2,114.8,292.3,114.9,292.5,115.1L292.5,115.1z"/>
</g>
<g>
	<path class="st0" d="M296.9,114.5v-5.2c0-0.3,0-0.5-0.1-0.8c0-0.1-0.2-0.2-0.6-0.2h-0.1c0,0-0.1,0-0.1-0.1c0-0.1,0-0.2,0.1-0.2
		c0.2,0,0.5-0.1,0.7-0.1s0.4-0.1,0.5-0.1c0.1,0,0.2-0.1,0.3-0.1c0.1,0,0.1-0.1,0.2-0.1l0,0h0c0,0,0.1,0,0.1,0.1c0,0,0,0.1,0.1,0.1
		c-0.1,0.3-0.1,0.6-0.1,1v5.4c0,0.5,0,0.8,0.1,1.1c0,0.1,0.1,0.1,0.3,0.2s0.3,0.1,0.4,0.1c0,0,0,0.1,0,0.1s0,0.2,0,0.2
		c-0.8,0-1.2-0.1-1.3-0.1c0,0-0.5,0-1.3,0.1c0,0,0-0.1,0-0.2s0-0.2,0-0.2c0.1,0,0.2,0,0.4-0.1c0.2-0.1,0.3-0.1,0.3-0.2
		C296.9,115,296.9,114.8,296.9,114.5L296.9,114.5z"/>
</g>
<g>
	<path class="st0" d="M277.9,125.3c0,0.1-0.1,0.4-0.2,0.9c-0.1,0.5-0.2,0.8-0.2,0.8c-0.6,0.3-1.5,0.5-2.9,0.5c-1,0-2-0.4-2.7-1.2
		c-0.7-0.8-1.1-1.7-1.1-2.8c0-1.1,0.4-2.1,1.1-2.9c0.8-0.8,1.7-1.2,2.8-1.2c0.9,0,1.9,0.1,2.9,0.3c0,1.1,0,1.6,0,1.7
		c0,0.1-0.1,0.2-0.2,0.2c-0.1,0-0.1,0-0.2-0.1c0-0.1,0-0.2-0.1-0.3s-0.1-0.2-0.2-0.4c-0.1-0.2-0.3-0.3-0.4-0.4s-0.4-0.2-0.7-0.3
		s-0.6-0.1-1-0.1c-0.8,0-1.5,0.3-2,1s-0.8,1.5-0.8,2.3c0,0.7,0.1,1.2,0.3,1.8s0.6,1,1.1,1.3s1,0.5,1.7,0.5c0.8,0,1.4-0.2,1.8-0.7
		c0.1-0.1,0.2-0.3,0.3-0.5c0.1-0.2,0.1-0.4,0.2-0.5s0.1-0.2,0.1-0.2c0,0,0.1,0,0.2,0C277.8,125.2,277.8,125.2,277.9,125.3
		L277.9,125.3L277.9,125.3z"/>
</g>
<g>
	<path class="st0" d="M281.2,122.2c0.7,0,1.3,0.3,1.8,0.8s0.8,1.1,0.8,1.9s-0.2,1.4-0.8,1.9s-1.1,0.8-1.8,0.8s-1.3-0.3-1.9-0.8
		s-0.8-1.2-0.8-1.9s0.2-1.4,0.7-1.9C279.9,122.5,280.5,122.2,281.2,122.2L281.2,122.2z M281.1,122.7c-0.4,0-0.8,0.2-1,0.6
		c-0.3,0.4-0.4,0.9-0.4,1.4c0,0.7,0.2,1.2,0.5,1.7s0.7,0.7,1.2,0.7c0.4,0,0.8-0.2,1-0.6c0.3-0.4,0.4-0.9,0.4-1.4
		c0-0.7-0.2-1.2-0.5-1.7S281.6,122.7,281.1,122.7L281.1,122.7z"/>
</g>
<g>
	<path class="st0" d="M288.1,122.2c0.6,0,1,0.2,1.2,0.6s0.3,1,0.3,1.9v1.1c0,0.5,0,0.8,0.1,1.1c0,0.1,0.1,0.1,0.3,0.2
		s0.3,0.1,0.4,0.1c0,0,0,0.1,0,0.1s0,0.2,0,0.2c-0.8,0-1.2-0.1-1.3-0.1c0,0-0.4,0-1.2,0.1c0,0,0-0.1,0-0.2s0-0.2,0-0.2
		c0.1,0,0.2,0,0.4-0.1c0.2-0.1,0.3-0.1,0.3-0.2c0.1-0.2,0.1-0.5,0.1-0.8v-1.2c0-0.7-0.1-1.2-0.3-1.5s-0.5-0.4-0.9-0.4
		c-0.3,0-0.5,0.1-0.7,0.3c-0.2,0.2-0.4,0.4-0.4,0.5v2.1c0,0.5,0,0.8,0.1,1.1c0,0.1,0.1,0.1,0.3,0.2s0.3,0.1,0.4,0.1c0,0,0,0.1,0,0.1
		c0,0.1,0,0.2,0,0.2c-0.8,0-1.2-0.1-1.3-0.1c0,0-0.5,0-1.3,0.1c0,0,0-0.1,0-0.2s0-0.2,0-0.2c0.1,0,0.2,0,0.4-0.1
		c0.2-0.1,0.3-0.1,0.3-0.2c0.1-0.2,0.1-0.5,0.1-0.8v-2.3c0-0.3-0.1-0.5-0.2-0.7c-0.1-0.1-0.2-0.2-0.3-0.2c-0.1,0-0.2-0.1-0.3-0.1
		s-0.1,0-0.1,0c0-0.2,0-0.3,0.1-0.3c0.8-0.1,1.4-0.2,1.6-0.3c0,0,0,0,0.1,0c0,0,0,0,0.1,0.1c0,0.1,0,0.1,0,0.2c0,0.2,0,0.4,0,0.5
		c0,0,0,0.1,0,0.1c0,0,0,0,0,0c0.2-0.2,0.4-0.4,0.8-0.5C287.5,122.3,287.9,122.2,288.1,122.2L288.1,122.2z"/>
</g>
<g>
	<path class="st0" d="M291.9,123.1h-0.7c0,0-0.1-0.1-0.1-0.2c0-0.1,0-0.1,0-0.1c0.2-0.1,0.5-0.3,0.8-0.6c0.1-0.1,0.2-0.2,0.3-0.3
		s0.1-0.2,0.2-0.3s0.1-0.2,0.1-0.2c0.2,0,0.4,0,0.4,0.1v1.2c0.2,0,0.5,0,0.9,0s0.6,0,0.7,0c0.1,0,0.1,0,0.1,0.1c0,0.1,0,0.3-0.1,0.4
		h-1.6v2.9c0,0.3,0.1,0.6,0.2,0.8c0.2,0.2,0.4,0.3,0.6,0.3c0.2,0,0.5-0.1,0.7-0.2c0,0,0.1,0,0.1,0.1s0.1,0.1,0.1,0.1
		c-0.1,0.1-0.3,0.2-0.5,0.4s-0.5,0.2-0.8,0.2c-0.4,0-0.7-0.1-1-0.4c-0.3-0.3-0.4-0.6-0.4-1.1L291.9,123.1L291.9,123.1z"/>
</g>
<path class="st0" d="M297.5,122.3c0.4,0,0.7,0.1,1,0.2s0.5,0.3,0.6,0.5s0.2,0.4,0.3,0.7c0.1,0.2,0.1,0.4,0.1,0.7
	c0,0.2,0,0.3-0.1,0.3c0,0-0.1,0.1-0.3,0.1h-3c-0.1,0-0.1,0-0.1,0.1c0,0.5,0.1,1,0.5,1.4c0.3,0.4,0.7,0.6,1.3,0.6
	c0.2,0,0.3,0,0.5-0.1c0.1,0,0.3-0.1,0.4-0.1c0.1,0,0.2-0.1,0.3-0.1c0.1,0,0.1-0.1,0.2-0.1l0.1-0.1c0,0,0.1,0.1,0.1,0.2
	c0,0.1,0,0.1-0.1,0.2c-0.2,0.2-0.4,0.4-0.7,0.6c-0.3,0.2-0.6,0.3-1,0.3c-0.7,0-1.2-0.2-1.7-0.8s-0.7-1.1-0.7-1.8
	c0-0.8,0.2-1.5,0.7-2C296.2,122.6,296.8,122.3,297.5,122.3L297.5,122.3z M297.4,122.8c-0.4,0-0.7,0.2-1,0.5s-0.3,0.7-0.3,0.9
	c0,0.1,0,0.1,0.1,0.1h2.3c0,0,0.1,0,0.1-0.1c0-0.2-0.1-0.6-0.3-0.9C298,122.9,297.7,122.8,297.4,122.8L297.4,122.8z"/>
<g>
	<path class="st0" d="M300,122.5c0-0.1,0-0.1,0-0.2c0.8,0,1.2,0.1,1.2,0.1c0,0,0.4,0,1.2-0.1c0,0,0,0.1,0,0.1c0,0.1,0,0.2,0,0.2
		c-0.3,0-0.5,0.1-0.5,0.2c0,0,0,0.1,0.1,0.1l0.8,1.2c0.1-0.1,0.1-0.2,0.2-0.4c0.1-0.2,0.2-0.3,0.3-0.4c0.1-0.1,0.1-0.2,0.2-0.3
		s0.1-0.2,0.1-0.2c0-0.1,0-0.1-0.1-0.2c-0.1,0-0.2,0-0.3-0.1c-0.1,0-0.2,0-0.2,0c0,0,0-0.1,0-0.2c0-0.1,0-0.1,0-0.2
		c0.8,0,1.2,0.1,1.2,0.1s0.4,0,1.1-0.1c0,0.1,0,0.1,0,0.2c0,0.1,0,0.2,0,0.2c-0.5,0.1-0.9,0.2-1,0.4l-1.1,1.5c0,0,0,0.1,0,0.1
		c0,0,0,0.1,0,0.1l1.3,1.9c0.2,0.3,0.5,0.5,1,0.5c0,0,0,0.1,0,0.2c0,0.1,0,0.1,0,0.2c-0.7,0-1.1-0.1-1.1-0.1c0,0-0.5,0-1.3,0.1
		c0-0.1,0-0.1,0-0.2c0-0.1,0-0.2,0-0.2c0.3,0,0.5-0.1,0.5-0.2c0,0,0,0,0-0.1l-0.9-1.4l-0.8,1.2c-0.1,0.1-0.1,0.2-0.1,0.2
		c0,0.1,0.2,0.2,0.6,0.3h0.1c0,0,0,0.1,0,0.2c0,0.1,0,0.1,0,0.2c-0.8,0-1.2-0.1-1.2-0.1c0,0-0.4,0-1.2,0.1c0-0.1,0-0.1,0-0.2
		c0-0.1,0-0.2,0-0.2c0.5-0.1,0.9-0.2,1.1-0.5l1.2-1.7c0,0,0,0,0,0c0,0,0,0,0,0c0,0,0,0,0-0.1l-1.2-1.8c-0.1-0.1-0.2-0.2-0.4-0.3
		c-0.2-0.1-0.4-0.1-0.5-0.1L300,122.5L300,122.5z"/>
</g>
<g>
	<path class="st0" d="M306.3,123.1h-0.7c0,0-0.1-0.1-0.1-0.2c0-0.1,0-0.1,0-0.1c0.2-0.1,0.5-0.3,0.8-0.6c0.1-0.1,0.2-0.2,0.3-0.3
		s0.1-0.2,0.2-0.3s0.1-0.2,0.1-0.2c0.2,0,0.4,0,0.4,0.1v1.2c0.2,0,0.5,0,0.9,0s0.6,0,0.7,0c0.1,0,0.1,0,0.1,0.1c0,0.1,0,0.3-0.1,0.4
		h-1.6v2.9c0,0.3,0.1,0.6,0.2,0.8c0.2,0.2,0.4,0.3,0.6,0.3c0.2,0,0.5-0.1,0.7-0.2c0,0,0.1,0,0.1,0.1s0.1,0.1,0.1,0.1
		c-0.1,0.1-0.3,0.2-0.5,0.4s-0.5,0.2-0.8,0.2c-0.4,0-0.7-0.1-1-0.4c-0.3-0.3-0.4-0.6-0.4-1.1L306.3,123.1L306.3,123.1z"/>
</g>
<g>
	<path class="st0" d="M311.4,122.3c0.2,0,0.4,0,0.7,0.1c0.3,0,0.5,0.1,0.6,0.1c0.1,0.4,0.1,0.8,0.1,1.2c0,0,0,0.1-0.2,0.1
		c-0.1,0-0.2,0-0.2-0.1c0-0.2-0.1-0.4-0.3-0.6s-0.4-0.3-0.6-0.3c-0.6,0-0.9,0.2-0.9,0.7c0,0.1,0,0.2,0,0.3s0.1,0.2,0.2,0.3
		s0.2,0.1,0.2,0.2s0.1,0.1,0.3,0.2c0.2,0.1,0.3,0.2,0.3,0.2c0,0,0.1,0.1,0.3,0.2c0.2,0.1,0.3,0.2,0.3,0.2c0.1,0,0.2,0.1,0.3,0.2
		s0.2,0.2,0.3,0.3s0.1,0.2,0.2,0.3c0,0.1,0.1,0.2,0.1,0.3c0,0.5-0.2,0.9-0.5,1.2c-0.4,0.3-0.8,0.5-1.3,0.5c-0.2,0-0.3,0-0.5,0
		c-0.1,0-0.3-0.1-0.5-0.1c-0.2-0.1-0.3-0.1-0.4-0.1c0-0.1-0.1-0.3-0.1-0.6c0-0.3-0.1-0.5-0.1-0.7c0.1-0.1,0.1-0.1,0.1-0.1
		c0.1,0,0.2,0,0.2,0.1c0,0.2,0.2,0.5,0.5,0.7s0.5,0.3,0.8,0.3c0.2,0,0.5-0.1,0.6-0.2c0.2-0.1,0.2-0.3,0.2-0.6c0-0.1,0-0.3-0.1-0.4
		c0-0.1-0.1-0.2-0.2-0.3c-0.1-0.1-0.2-0.2-0.3-0.2c-0.1-0.1-0.2-0.1-0.4-0.2c-0.2-0.1-0.3-0.2-0.4-0.2c-0.6-0.4-0.9-0.8-0.9-1.3
		c0-0.4,0.2-0.8,0.5-1.1S311,122.3,311.4,122.3L311.4,122.3z"/>
</g>
<text transform="matrix(1 0 0 1 418.85 76.23)" class="st0 st2 st5">Science &amp; </text>
<text transform="matrix(1 0 0 1 418.85 89.45)" class="st0 st2 st5">Technology</text>
<text transform="matrix(1 0 0 1 418.85 102.67)" class="st0 st2 st5">Innovation</text>
<text transform="matrix(1 0 0 1 483.11 247.36)" class="st0 st2 st5">Human</text>
<text transform="matrix(1 0 0 1 483.11 260.58)" class="st0 st2 st5">Innovation</text>
<text transform="matrix(1 0 0 1 297.15 372.84)" class="st0 st2 st5">Pubblications</text>
<text transform="matrix(1 0 0 1 297.15 386.06)" class="st0 st2 st5">(Print/web)</text>
<g>
	
		<rect x="173.5" y="460.1" transform="matrix(4.706558e-02 -0.9989 0.9989 4.706558e-02 -255.9695 653.8558)" class="st0" width="82.4" height="2"/>
</g>
</svg>
