<?xml version="1.0" encoding="utf-8"?>
<!-- Generator: Adobe Illustrator 26.0.2, SVG Export Plug-In . SVG Version: 6.00 Build 0)  -->
<svg version="1.1" id="Layer_1" xmlns="http://www.w3.org/2000/svg" xmlns:xlink="http://www.w3.org/1999/xlink" x="0px" y="0px"
	 viewBox="0 0 670 670" style="enable-background:new 0 0 670 670;" xml:space="preserve">
<style type="text/css">
	.st0{fill:#B18849;}
	.st1{fill:#FFFFFF;}
	.st2{fill:none;}
	.st3{font-family:'ArialMT';}
	.st4{font-size:12.73px;}
	.st5{fill:none;stroke:#FFFFFF;stroke-width:0.9;stroke-miterlimit:10;}
	.st6{fill:#464764;}
	.st7{font-size:11.46px;}
	.st8{font-size:10.77px;}
	.st9{font-size:10.14px;}
	.st10{font-size:11.41px;}
	.st11{fill:none;stroke:#FFFFFF;stroke-miterlimit:10;stroke-dasharray:0,0,2,2;}
	.st12{opacity:0.47;fill:#8C95B1;enable-background:new    ;}
</style>
<g id="uuid-434bb261-8b79-4d1e-ba0c-6080f6305366">
	<circle class="st0" cx="335" cy="335" r="335"/>
</g>
<g id="uuid-1b22277d-feda-428e-8605-c344fab0bf33">
	<path class="st1" d="M332,174.1C243.6,174.1,172,245.7,172,334S243.6,493.9,332,493.9S491.9,422.3,491.9,334S420.3,174.1,332,174.1
		L332,174.1z M332,471.7c-76,0-137.7-61.6-137.7-137.7S255.9,196.3,332,196.3S469.7,257.9,469.7,334S408,471.7,332,471.7z"/>
	<rect x="25.1" y="27.1" class="st2" width="613.7" height="613.7"/>
	<g>
		<text transform="matrix(-0.9429 -0.333 0.333 -0.9429 242.4503 602.0109)" class="st1 st3 st4">a</text>
		<text transform="matrix(-0.9335 -0.3587 0.3587 -0.9335 236.9196 600.0709)" class="st1 st3 st4">w</text>
		<text transform="matrix(-0.9233 -0.384 0.384 -0.9233 227.8696 596.56)" class="st1 st3 st4">a</text>
		<text transform="matrix(-0.9157 -0.4019 0.4019 -0.9157 222.4603 594.2995)" class="st1 st3 st4">r</text>
		<text transform="matrix(-0.9076 -0.4199 0.4199 -0.9076 217.5998 592.1594)" class="st1 st3 st4">e</text>
		<text transform="matrix(-0.8944 -0.4473 0.4473 -0.8944 209.1 588.1505)" class="st1 st3 st4">t</text>
		<text transform="matrix(-0.8851 -0.4655 0.4655 -0.8851 205.0598 586.1409)" class="st1 st3 st4">h</text>
		<text transform="matrix(-0.8742 -0.4856 0.4856 -0.8742 198.7004 582.7801)" class="st1 st3 st4">a</text>
		<text transform="matrix(-0.8652 -0.5014 0.5014 -0.8652 193.5999 579.9305)" class="st1 st3 st4">t</text>
		<text transform="matrix(-0.8463 -0.5327 0.5327 -0.8463 186.7296 575.9205)" class="st1 st3 st4">N</text>
		<text transform="matrix(-0.8316 -0.5554 0.5554 -0.8316 178.6599 570.8008)" class="st1 st3 st4">a</text>
		<text transform="matrix(-0.8213 -0.5704 0.5704 -0.8213 173.7795 567.5303)" class="st1 st3 st4">t</text>
		<text transform="matrix(-0.8097 -0.5868 0.5868 -0.8097 170.0798 564.97)" class="st1 st3 st4">u</text>
		<text transform="matrix(-0.7968 -0.6042 0.6042 -0.7968 164.4102 560.8407)" class="st1 st3 st4">r</text>
		<text transform="matrix(-0.7847 -0.6199 0.6199 -0.7847 160.1798 557.6204)" class="st1 st3 st4">e</text>
		<text transform="matrix(-0.766 -0.6428 0.6428 -0.766 152.8401 551.7292)" class="st1 st3 st4">i</text>
		<text transform="matrix(-0.7557 -0.6549 0.6549 -0.7557 149.7999 549.1799)" class="st1 st3 st4">s</text>
		<text transform="matrix(-0.7365 -0.6765 0.6765 -0.7365 143.4003 543.5494)" class="st1 st3 st4">t</text>
		<text transform="matrix(-0.7227 -0.6911 0.6911 -0.7227 140.0899 540.5203)" class="st1 st3 st4">o</text>
		<text transform="matrix(-0.6967 -0.7174 0.7174 -0.6967 132.6301 533.2805)" class="st1 st3 st4">u</text>
		<text transform="matrix(-0.6812 -0.7321 0.7321 -0.6812 127.7399 528.2305)" class="st1 st3 st4">s</text>
		<text transform="matrix(-0.6596 -0.7516 0.7516 -0.6596 121.99 521.9502)" class="st1 st3 st4">t</text>
		<text transform="matrix(-0.6439 -0.7651 0.7651 -0.6439 119 518.5609)" class="st1 st3 st4">h</text>
		<text transform="matrix(-0.6259 -0.7799 0.7799 -0.6259 114.3999 513.0693)" class="st1 st3 st4">e</text>
		<text transform="matrix(-0.5978 -0.8017 0.8017 -0.5978 108.58 505.7208)" class="st1 st3 st4">n</text>
		<text transform="matrix(-0.5787 -0.8155 0.8155 -0.5787 104.2 499.8096)" class="st1 st3 st4">a</text>
		<text transform="matrix(-0.5547 -0.8321 0.8321 -0.5547 100.78 495.0495)" class="st1 st3 st4">m</text>
		<text transform="matrix(-0.5304 -0.8478 0.8478 -0.5304 94.9898 486.2796)" class="st1 st3 st4">e</text>
		<text transform="matrix(-0.5135 -0.8581 0.8581 -0.5135 91.84 481.2303)" class="st1 st3 st4">s</text>
		<text transform="matrix(-0.4804 -0.8771 0.8771 -0.4804 87.4999 473.9204)" class="st1 st3 st4">w</text>
		<text transform="matrix(-0.4559 -0.8901 0.8901 -0.4559 82.86 465.3799)" class="st1 st3 st4">e</text>
		<text transform="matrix(-0.4251 -0.9051 0.9051 -0.4251 78.6401 456.9791)" class="st1 st3 st4">g</text>
		<text transform="matrix(-0.4085 -0.9128 0.9128 -0.4085 75.8901 451.0898)" class="st1 st3 st4">i</text>
		<text transform="matrix(-0.3912 -0.9203 0.9203 -0.3912 74.27 447.5096)" class="st1 st3 st4">v</text>
		<text transform="matrix(-0.3707 -0.9287 0.9287 -0.3707 71.66 441.3191)" class="st1 st3 st4">e</text>
		<text transform="matrix(-0.3425 -0.9395 0.9395 -0.3425 68.24 432.5602)" class="st1 st3 st4">t</text>
		<text transform="matrix(-0.3236 -0.9462 0.9462 -0.3236 66.6799 428.3101)" class="st1 st3 st4">o</text>
		<text transform="matrix(-0.3034 -0.9529 0.9529 -0.3034 63.44 418.4592)" class="st1 st3 st4">h</text>
		<text transform="matrix(-0.2672 -0.9636 0.9636 -0.2672 61.33 411.5907)" class="st1 st3 st4">e</text>
		<text transform="matrix(-0.2484 -0.9687 0.9687 -0.2484 59.75 405.8496)" class="st1 st3 st4">r</text>
		<text transform="matrix(5.111587e-02 -0.9987 0.9987 5.111587e-02 50.45 321.7797)" class="st1 st3 st4">k</text>
		<text transform="matrix(7.602295e-02 -0.9971 0.9971 7.602295e-02 50.8 315.0202)" class="st1 st3 st4">n</text>
		<text transform="matrix(0.1012 -0.9949 0.9949 0.1012 51.37 307.7201)" class="st1 st3 st4">o</text>
		<text transform="matrix(0.1305 -0.9914 0.9914 0.1305 52.06 300.8299)" class="st1 st3 st4">w</text>
		<text transform="matrix(0.1544 -0.988 0.988 0.1544 53.36 291.2098)" class="st1 st3 st4">i</text>
		<text transform="matrix(0.174 -0.9847 0.9847 0.174 53.96 287.3099)" class="st1 st3 st4">n</text>
		<text transform="matrix(0.1982 -0.9802 0.9802 0.1982 55.26 280.0601)" class="st1 st3 st4">g</text>
		<text transform="matrix(0.2375 -0.9714 0.9714 0.2375 57.2701 270.3496)" class="st1 st3 st4">N</text>
		<text transform="matrix(0.2639 -0.9646 0.9646 0.2639 59.5701 261.0697)" class="st1 st3 st4">a</text>
		<text transform="matrix(0.2813 -0.9596 0.9596 0.2813 61.1199 255.4402)" class="st1 st3 st4">t</text>
		<text transform="matrix(0.3007 -0.9537 0.9537 0.3007 62.3899 251.1095)" class="st1 st3 st4">u</text>
		<text transform="matrix(0.3213 -0.947 0.947 0.3213 64.51 244.42)" class="st1 st3 st4">r</text>
		<text transform="matrix(0.3399 -0.9405 0.9405 0.3399 66.2201 239.3899)" class="st1 st3 st4">e</text>
		<text transform="matrix(0.3675 -0.93 0.93 0.3675 69.5 230.5495)" class="st1 st3 st4">i</text>
		<text transform="matrix(0.3822 -0.9241 0.9241 0.3822 70.95 226.8796)" class="st1 st3 st4">s</text>
		<text transform="matrix(0.4109 -0.9117 0.9117 0.4109 74.26 219.0203)" class="st1 st3 st4">a</text>
		<text transform="matrix(0.4261 -0.9047 0.9047 0.4261 76.6801 213.6801)" class="st1 st3 st4">l</text>
		<text transform="matrix(0.4379 -0.899 0.899 0.4379 78.2699 210.31)" class="st1 st3 st4">l</text>
		<text transform="matrix(0.4652 -0.8852 0.8852 0.4652 81.4601 203.8597)" class="st1 st3 st4">b</text>
		<text transform="matrix(0.4863 -0.8738 0.8738 0.4863 84.6199 197.8603)" class="st1 st3 st4">u</text>
		<text transform="matrix(0.5039 -0.8637 0.8637 0.5039 88.05 191.7199)" class="st1 st3 st4">t</text>
		<text transform="matrix(0.532 -0.8468 0.8468 0.532 92.0999 184.8799)" class="st1 st3 st4">n</text>
		<text transform="matrix(0.553 -0.8332 0.8332 0.553 96.01 178.6598)" class="st1 st3 st4">o</text>
		<text transform="matrix(0.5696 -0.8219 0.8219 0.5696 99.8699 172.8895)" class="st1 st3 st4">t</text>
		<text transform="matrix(0.5943 -0.8043 0.8043 0.5943 104.44 166.3795)" class="st1 st3 st4">e</text>
		<text transform="matrix(0.6129 -0.7902 0.7902 0.6129 107.9701 161.6095)" class="st1 st3 st4">n</text>
		<text transform="matrix(0.6323 -0.7747 0.7747 0.6323 112.49 155.7905)" class="st1 st3 st4">d</text>
		<text transform="matrix(0.6464 -0.763 0.763 0.6464 116.7801 150.5599)" class="st1 st3 st4">l</text>
		<text transform="matrix(0.6593 -0.7518 0.7518 0.6593 119.19 147.7202)" class="st1 st3 st4">e</text>
		<text transform="matrix(0.6738 -0.7389 0.7389 0.6738 123.0999 143.2699)" class="st1 st3 st4">s</text>
		<text transform="matrix(0.6868 -0.7268 0.7268 0.6868 126.5399 139.5098)" class="st1 st3 st4">s</text>
		<text transform="matrix(0.8449 -0.5349 0.5349 0.8449 178.22 95.0898)" class="st1 st3 st4">r</text>
		<text transform="matrix(0.8559 -0.5171 0.5171 0.8559 182.9799 92.08)" class="st1 st3 st4">e</text>
		<text transform="matrix(0.8663 -0.4995 0.4995 0.8663 188.3501 88.85)" class="st1 st3 st4">s</text>
		<text transform="matrix(0.8751 -0.4839 0.4839 0.8751 193.01 86.1802)" class="st1 st3 st4">t</text>
		<text transform="matrix(0.8839 -0.4676 0.4676 0.8839 197.24 83.85)" class="st1 st3 st4">r</text>
		<text transform="matrix(0.8944 -0.4473 0.4473 0.8944 202.2099 81.2199)" class="st1 st3 st4">u</text>
		<text transform="matrix(0.9047 -0.4261 0.4261 0.9047 208.8 77.9399)" class="st1 st3 st4">c</text>
		<text transform="matrix(0.9126 -0.4088 0.4088 0.9126 214.1799 75.4301)" class="st1 st3 st4">t</text>
		<text transform="matrix(0.9212 -0.3891 0.3891 0.9212 218.5701 73.4499)" class="st1 st3 st4">u</text>
		<text transform="matrix(0.9299 -0.3678 0.3678 0.9299 225.3501 70.6101)" class="st1 st3 st4">r</text>
		<text transform="matrix(0.9362 -0.3514 0.3514 0.9362 230.59 68.56)" class="st1 st3 st4">i</text>
		<text transform="matrix(0.9435 -0.3315 0.3315 0.9435 234.6001 67.0401)" class="st1 st3 st4">n</text>
		<text transform="matrix(0.9516 -0.3072 0.3072 0.9516 241.82 64.53)" class="st1 st3 st4">g</text>
		<text transform="matrix(0.9573 -0.289 0.289 0.9573 248.3099 62.45)" class="st1 st3 st4">,</text>
		<text transform="matrix(0.9657 -0.2598 0.2598 0.9657 255.67 60.29)" class="st1 st3 st4">r</text>
		<text transform="matrix(0.9709 -0.2394 0.2394 0.9709 261.11 58.8301)" class="st1 st3 st4">e</text>
		<text transform="matrix(0.9763 -0.2166 0.2166 0.9763 267.17 57.35)" class="st1 st3 st4">v</text>
		<text transform="matrix(0.9804 -0.197 0.197 0.9804 274.0701 55.84)" class="st1 st3 st4">i</text>
		<text transform="matrix(0.9836 -0.1802 0.1802 0.9836 278.2499 55)" class="st1 st3 st4">s</text>
		<text transform="matrix(0.9866 -0.1633 0.1633 0.9866 283.55 54.04)" class="st1 st3 st4">i</text>
		<text transform="matrix(0.9897 -0.1433 0.1433 0.9897 287.76 53.34)" class="st1 st3 st4">o</text>
		<text transform="matrix(0.9931 -0.1174 0.1174 0.9931 294.92 52.31)" class="st1 st3 st4">n</text>
		<text transform="matrix(0.9953 -9.636693e-02 9.636693e-02 0.9953 302.55 51.44)" class="st1 st3 st4">i</text>
		<text transform="matrix(0.9971 -7.567488e-02 7.567488e-02 0.9971 306.78 51.02)" class="st1 st3 st4">n</text>
		<text transform="matrix(0.9987 -5.041863e-02 5.041863e-02 0.9987 314.42 50.46)" class="st1 st3 st4">g</text>
		<text transform="matrix(0.9999 -1.483476e-02 1.483476e-02 0.9999 325 50.02)" class="st1 st3 st4">a</text>
		<text transform="matrix(0.9999 1.623085e-02 -1.623085e-02 0.9999 331.15 49.9)" class="st1 st3 st4">n</text>
		<text transform="matrix(0.9994 3.437621e-02 -3.437621e-02 0.9994 338.81 50.01)" class="st1 st3 st4">d</text>
		<text transform="matrix(0.9976 6.958237e-02 -6.958237e-02 0.9976 349.67 50.48)" class="st1 st3 st4">r</text>
		<text transform="matrix(0.9959 9.045877e-02 -9.045877e-02 0.9959 355.3001 50.88)" class="st1 st3 st4">e</text>
		<text transform="matrix(0.9941 0.1089 -0.1089 0.9941 361.5299 51.46)" class="st1 st3 st4">i</text>
		<text transform="matrix(0.9916 0.1297 -0.1297 0.9916 365.77 51.9199)" class="st1 st3 st4">n</text>
		<text transform="matrix(0.9885 0.1513 -0.1513 0.9885 373.36 52.93)" class="st1 st3 st4">t</text>
		<text transform="matrix(0.9853 0.1706 -0.1706 0.9853 378.1201 53.66)" class="st1 st3 st4">e</text>
		<text transform="matrix(0.9815 0.1913 -0.1913 0.9815 384.2901 54.75)" class="st1 st3 st4">r</text>
		<text transform="matrix(0.9769 0.2137 -0.2137 0.9769 389.82 55.82)" class="st1 st3 st4">p</text>
		<text transform="matrix(0.9718 0.236 -0.236 0.9718 396.9101 57.4)" class="st1 st3 st4">r</text>
		<text transform="matrix(0.9666 0.2565 -0.2565 0.9666 402.39 58.73)" class="st1 st3 st4">e</text>
		<text transform="matrix(0.9614 0.2753 -0.2753 0.9614 408.43 60.35)" class="st1 st3 st4">t</text>
		<text transform="matrix(0.9568 0.2909 -0.2909 0.9568 413.0901 61.6999)" class="st1 st3 st4">i</text>
		<text transform="matrix(0.9504 0.311 -0.311 0.9504 417.1501 62.92)" class="st1 st3 st4">n</text>
		<text transform="matrix(0.9421 0.3353 -0.3353 0.9421 424.43 65.3199)" class="st1 st3 st4">g</text>
		<text transform="matrix(0.9268 0.3756 -0.3756 0.9268 434.36 68.9301)" class="st1 st3 st4">w</text>
		<text transform="matrix(0.9147 0.4042 -0.4042 0.9147 443.6299 72.7201)" class="st1 st3 st4">h</text>
		<text transform="matrix(0.9046 0.4263 -0.4263 0.9046 450.5001 75.7799)" class="st1 st3 st4">a</text>
		<text transform="matrix(0.8962 0.4437 -0.4437 0.8962 456.0699 78.42)" class="st1 st3 st4">t</text>
		<text transform="matrix(0.8779 0.4788 -0.4788 0.8779 463.7501 82.2699)" class="st1 st3 st4">w</text>
		<text transform="matrix(0.8638 0.5038 -0.5038 0.8638 472.5302 87.1)" class="st1 st3 st4">e</text>
		<text transform="matrix(0.8445 0.5355 -0.5355 0.8445 481.1501 92.2201)" class="st1 st3 st4">u</text>
		<text transform="matrix(0.8301 0.5576 -0.5576 0.8301 487.3302 96.15)" class="st1 st3 st4">n</text>
		<text transform="matrix(0.8153 0.579 -0.579 0.8153 493.6798 100.43)" class="st1 st3 st4">d</text>
		<text transform="matrix(0.8016 0.5979 -0.5979 0.8016 499.4501 104.5501)" class="st1 st3 st4">e</text>
		<text transform="matrix(0.7889 0.6146 -0.6146 0.7889 504.48 108.32)" class="st1 st3 st4">r</text>
		<text transform="matrix(0.7769 0.6296 -0.6296 0.7769 508.9099 111.7801)" class="st1 st3 st4">s</text>
		<text transform="matrix(0.7655 0.6435 -0.6435 0.7655 513.0899 115.18)" class="st1 st3 st4">t</text>
		<text transform="matrix(0.753 0.658 -0.658 0.753 516.77 118.28)" class="st1 st3 st4">a</text>
		<text transform="matrix(0.7369 0.676 -0.676 0.7369 521.4196 122.3499)" class="st1 st3 st4">n</text>
		<text transform="matrix(0.7192 0.6948 -0.6948 0.7192 527.0603 127.5401)" class="st1 st3 st4">d</text>
		<text transform="matrix(0.6934 0.7206 -0.7206 0.6934 534.8099 135.16)" class="st1 st3 st4">a</text>
		<text transform="matrix(0.6787 0.7344 -0.7344 0.6787 539.0801 139.61)" class="st1 st3 st4">s</text>
		<text transform="matrix(0.6521 0.7581 -0.7581 0.6521 545.2299 146.3701)" class="st1 st3 st4">h</text>
		<text transform="matrix(0.6322 0.7748 -0.7748 0.6322 550.1197 152.0701)" class="st1 st3 st4">u</text>
		<text transform="matrix(0.6072 0.7945 -0.7945 0.6072 554.7504 157.72)" class="st1 st3 st4">m</text>
		<text transform="matrix(0.5833 0.8123 -0.8123 0.5833 561.3001 166.38)" class="st1 st3 st4">a</text>
		<text transform="matrix(0.5632 0.8263 -0.8263 0.5632 564.8998 171.39)" class="st1 st3 st4">n</text>
		<text transform="matrix(0.5442 0.839 -0.839 0.5442 569.2001 177.7299)" class="st1 st3 st4">s</text>
		<text transform="matrix(0.5305 0.8477 -0.8477 0.5305 572.1101 182.25)" class="st1 st3 st4">,</text>
		<text transform="matrix(0.4983 0.867 -0.867 0.4983 576.1396 188.76)" class="st1 st3 st4">N</text>
		<text transform="matrix(0.4736 0.8807 -0.8807 0.4736 581.0297 197.3399)" class="st1 st3 st4">a</text>
		<text transform="matrix(0.4563 0.8898 -0.8898 0.4563 583.9504 202.7901)" class="st1 st3 st4">t</text>
		<text transform="matrix(0.4371 0.8994 -0.8994 0.4371 586.1503 207.08)" class="st1 st3 st4">u</text>
		<text transform="matrix(0.4164 0.9092 -0.9092 0.4164 589.33 213.6599)" class="st1 st3 st4">r</text>
		<text transform="matrix(0.3971 0.9178 -0.9178 0.3971 591.6797 218.8099)" class="st1 st3 st4">e</text>
		<text transform="matrix(0.3646 0.9312 -0.9312 0.3646 595.5801 228.04)" class="st1 st3 st4">a</text>
		<text transform="matrix(0.3415 0.9399 -0.9399 0.3415 597.8304 233.7799)" class="st1 st3 st4">n</text>
		<text transform="matrix(0.3168 0.9485 -0.9485 0.3168 600.4304 240.98)" class="st1 st3 st4">d</text>
		<text transform="matrix(0.2838 0.9589 -0.9589 0.2838 603.7797 251.33)" class="st1 st3 st4">t</text>
		<text transform="matrix(0.2629 0.9648 -0.9648 0.2629 605.1501 255.94)" class="st1 st3 st4">h</text>
		<text transform="matrix(0.2392 0.971 -0.971 0.2392 607.1101 263.2)" class="st1 st3 st4">e</text>
		<text transform="matrix(0.2016 0.9795 -0.9795 0.2016 609.4304 272.93)" class="st1 st3 st4">E</text>
		<text transform="matrix(0.1769 0.9842 -0.9842 0.1769 611.0202 280.78)" class="st1 st3 st4">a</text>
		<text transform="matrix(0.1564 0.9877 -0.9877 0.1564 612.1096 286.88)" class="st1 st3 st4">r</text>
		<text transform="matrix(0.1381 0.9904 -0.9904 0.1381 612.9698 292.43)" class="st1 st3 st4">t</text>
		<text transform="matrix(0.1167 0.9932 -0.9932 0.1167 613.6395 297.2)" class="st1 st3 st4">h</text>
		<text transform="matrix(-0.2083 0.9781 -0.9781 -0.2083 610.2507 391.1001)" class="st1 st3 st4">r</text>
		<text transform="matrix(-0.2287 0.9735 -0.9735 -0.2287 609.0699 396.6)" class="st1 st3 st4">e</text>
		<text transform="matrix(-0.2489 0.9685 -0.9685 -0.2489 607.6202 402.7)" class="st1 st3 st4">s</text>
		<text transform="matrix(-0.2662 0.9639 -0.9639 -0.2662 606.2802 407.9101)" class="st1 st3 st4">t</text>
		<text transform="matrix(-0.285 0.9585 -0.9585 -0.285 604.989 412.5499)" class="st1 st3 st4">a</text>
		<text transform="matrix(-0.3075 0.9515 -0.9515 -0.3075 603.2293 418.4599)" class="st1 st3 st4">b</text>
		<text transform="matrix(-0.3262 0.9453 -0.9453 -0.3262 601.0108 425.2301)" class="st1 st3 st4">l</text>
		<text transform="matrix(-0.3402 0.9403 -0.9403 -0.3402 599.6902 429.0499)" class="st1 st3 st4">i</text>
		<text transform="matrix(-0.3562 0.9344 -0.9344 -0.3562 598.2295 433.0601)" class="st1 st3 st4">s</text>
		<text transform="matrix(-0.3775 0.926 -0.926 -0.3775 596.3199 438.0899)" class="st1 st3 st4">h</text>
		<text transform="matrix(-0.3968 0.9179 -0.9179 -0.3968 593.4506 445.0403)" class="st1 st3 st4">i</text>
		<text transform="matrix(-0.416 0.9094 -0.9094 -0.416 591.7805 448.9299)" class="st1 st3 st4">n</text>
		<text transform="matrix(-0.4392 0.8984 -0.8984 -0.4392 588.5804 455.9)" class="st1 st3 st4">g</text>
		<text transform="matrix(-0.4705 0.8824 -0.8824 -0.4705 583.8397 465.3702)" class="st1 st3 st4">r</text>
		<text transform="matrix(-0.4889 0.8723 -0.8723 -0.4889 581.1995 470.32)" class="st1 st3 st4">e</text>
		<text transform="matrix(-0.5068 0.8621 -0.8621 -0.5068 578.1099 475.7999)" class="st1 st3 st4">s</text>
		<text transform="matrix(-0.5259 0.8505 -0.8505 -0.5259 575.3907 480.4298)" class="st1 st3 st4">p</text>
		<text transform="matrix(-0.5458 0.8379 -0.8379 -0.5458 571.5593 486.58)" class="st1 st3 st4">e</text>
		<text transform="matrix(-0.5638 0.8259 -0.8259 -0.5638 568.1302 491.83)" class="st1 st3 st4">c</text>
		<text transform="matrix(-0.5793 0.8151 -0.8151 -0.5793 564.7595 496.7502)" class="st1 st3 st4">t</text>
		<text transform="matrix(-0.6033 0.7975 -0.7975 -0.6033 559.7197 503.7099)" class="st1 st3 st4">f</text>
		<text transform="matrix(-0.6199 0.7847 -0.7847 -0.6199 556.9094 507.44)" class="st1 st3 st4">o</text>
		<text transform="matrix(-0.6374 0.7705 -0.7705 -0.6374 552.4095 513.0999)" class="st1 st3 st4">r</text>
		<text transform="matrix(-0.6682 0.744 -0.744 -0.6682 546.3704 520.3203)" class="st1 st3 st4">w</text>
		<text transform="matrix(-0.6908 0.7231 -0.7231 -0.6908 539.6502 527.7604)" class="st1 st3 st4">h</text>
		<text transform="matrix(-0.7077 0.7065 -0.7065 -0.7077 534.4604 533.1499)" class="st1 st3 st4">a</text>
		<text transform="matrix(-0.7213 0.6926 -0.6926 -0.7213 530.0802 537.5104)" class="st1 st3 st4">t</text>
		<text transform="matrix(-0.7412 0.6713 -0.6713 -0.7412 523.8104 543.4303)" class="st1 st3 st4">i</text>
		<text transform="matrix(-0.7524 0.6587 -0.6587 -0.7524 520.6494 546.2903)" class="st1 st3 st4">s</text>
		<text transform="matrix(-0.7752 0.6318 -0.6318 -0.7752 513.7197 552.2695)" class="st1 st3 st4">o</text>
		<text transform="matrix(-0.791 0.6118 -0.6118 -0.791 508.1097 556.8303)" class="st1 st3 st4">u</text>
		<text transform="matrix(-0.8039 0.5948 -0.5948 -0.8039 502.28 561.3)" class="st1 st3 st4">t</text>
		<text transform="matrix(-0.8144 0.5803 -0.5803 -0.8144 498.4104 564.1596)" class="st1 st3 st4">s</text>
		<text transform="matrix(-0.8241 0.5664 -0.5664 -0.8241 494.0102 567.2803)" class="st1 st3 st4">i</text>
		<text transform="matrix(-0.8353 0.5498 -0.5498 -0.8353 490.4899 569.7101)" class="st1 st3 st4">d</text>
		<text transform="matrix(-0.848 0.5301 -0.5301 -0.848 484.551 573.6002)" class="st1 st3 st4">e</text>
		<text transform="matrix(-0.8649 0.502 -0.502 -0.8649 475.9894 578.8397)" class="st1 st3 st4">t</text>
		<text transform="matrix(-0.8755 0.4831 -0.4831 -0.8755 471.85 581.2502)" class="st1 st3 st4">h</text>
		<text transform="matrix(-0.887 0.4617 -0.4617 -0.887 465.2806 584.86)" class="st1 st3 st4">e</text>
		<text transform="matrix(-0.9118 0.4106 -0.4106 -0.9118 452.959 591.0704)" class="st1 st3 st4">m</text>
		<text transform="matrix(-0.9238 0.3828 -0.3828 -0.9238 443.0406 595.4803)" class="st1 st3 st4">a</text>
		<text transform="matrix(-0.9329 0.3602 -0.3602 -0.9329 437.3504 597.8405)" class="st1 st3 st4">n</text>
		<text transform="matrix(-0.9417 0.3364 -0.3364 -0.9417 430.1999 600.5804)" class="st1 st3 st4">y</text>
		<text transform="matrix(-0.9528 0.3037 -0.3037 -0.9528 420.4409 603.9695)" class="st1 st3 st4">s</text>
		<text transform="matrix(-0.9594 0.2822 -0.2822 -0.9594 415.2992 605.6099)" class="st1 st3 st4">p</text>
		<text transform="matrix(-0.9664 0.2571 -0.2571 -0.9664 408.3501 607.6402)" class="st1 st3 st4">h</text>
		<text transform="matrix(-0.9724 0.2334 -0.2334 -0.9724 401.1098 609.5496)" class="st1 st3 st4">e</text>
		<text transform="matrix(-0.9771 0.2129 -0.2129 -0.9771 395.0107 610.9997)" class="st1 st3 st4">r</text>
		<text transform="matrix(-0.9814 0.1922 -0.1922 -0.9814 389.479 612.2001)" class="st1 st3 st4">e</text>
		<text transform="matrix(-0.9851 0.1719 -0.1719 -0.9851 383.3305 613.3898)" class="st1 st3 st4">s</text>
		<text transform="matrix(-0.9906 0.1369 -0.1369 -0.9906 374.3108 614.9001)" class="st1 st3 st4">o</text>
		<text transform="matrix(-0.9933 0.116 -0.116 -0.9933 367.1193 615.8696)" class="st1 st3 st4">f</text>
		<text transform="matrix(-0.9963 8.628631e-02 -8.628631e-02 -0.9963 358.7303 616.7804)" class="st1 st3 st4">t</text>
		<text transform="matrix(-0.9979 6.488066e-02 -6.488066e-02 -0.9979 353.9291 617.1998)" class="st1 st3 st4">h</text>
		<text transform="matrix(-0.9992 4.100385e-02 -4.100385e-02 -0.9992 346.4496 617.6708)" class="st1 st3 st4">e</text>
		<text transform="matrix(-0.9999 1.623072e-02 -1.623072e-02 -0.9999 336.3902 617.98)" class="st1 st3 st4">“</text>
		<text transform="matrix(-1 -7.853848e-03 7.853848e-03 -1 331.6598 618.0203)" class="st1 st3 st4">I</text>
		<text transform="matrix(-0.9997 -2.443207e-02 2.443207e-02 -0.9997 326.78 617.98)" class="st1 st3 st4">”</text>
	</g>
	<g>
		<line class="st5" x1="311" y1="491.6" x2="294.2" y2="603.9"/>
		<line class="st5" x1="357.5" y1="489.6" x2="374.5" y2="603.2"/>
		<line class="st5" x1="401" y1="474.7" x2="451" y2="579.2"/>
		<line class="st5" x1="439.6" y1="449.8" x2="517.1" y2="534"/>
		<line class="st5" x1="469.7" y1="411.8" x2="567.2" y2="471.7"/>
		<line class="st5" x1="487.4" y1="371.6" x2="597" y2="397.5"/>
		<line class="st5" x1="491.6" y1="325.1" x2="604.5" y2="317.7"/>
		<line class="st5" x1="478.4" y1="279.3" x2="587.6" y2="239.2"/>
		<line class="st5" x1="459.8" y1="238" x2="548.8" y2="168.8"/>
		<line class="st5" x1="426" y1="205.1" x2="491" y2="112.6"/>
		<line class="st5" x1="383.2" y1="185.7" x2="419" y2="75.7"/>
		<line class="st5" x1="337.2" y1="175.5" x2="339.2" y2="61.4"/>
		<line class="st5" x1="289.7" y1="180.1" x2="258.6" y2="72.1"/>
		<line class="st5" x1="245.7" y1="199.3" x2="184.1" y2="105"/>
		<line class="st5" x1="209.5" y1="231.2" x2="122.8" y2="159.2"/>
		<line class="st5" x1="186.6" y1="273.3" x2="80.5" y2="228.7"/>
		<line class="st5" x1="172.7" y1="319.2" x2="61.7" y2="308"/>
		<line class="st5" x1="178.1" y1="366.7" x2="65.6" y2="389.1"/>
		<line class="st5" x1="192.5" y1="412" x2="93.2" y2="465.6"/>
		<line class="st5" x1="222.7" y1="448.7" x2="142.5" y2="530"/>
		<line class="st5" x1="261" y1="476.1" x2="208.4" y2="577"/>
	</g>
	<text transform="matrix(0.2473 -0.9689 0.9689 0.2473 190.58 299.8699)" class="st6 st3 st7">s</text>
	<text transform="matrix(0.284 -0.9588 0.9588 0.284 191.6899 295.4601)" class="st6 st3 st7">h</text>
	<text transform="matrix(0.3226 -0.9465 0.9465 0.3226 193.54 289.3004)" class="st6 st3 st7">a</text>
	<text transform="matrix(0.3598 -0.933 0.933 0.3598 195.23 284.3498)" class="st6 st3 st7">p</text>
	<text transform="matrix(0.3912 -0.9203 0.9203 0.3912 197.5 278.5496)" class="st6 st3 st7">i</text>
	<text transform="matrix(0.4231 -0.9061 0.9061 0.4231 198.8601 275.3004)" class="st6 st3 st7">n</text>
	<text transform="matrix(0.4613 -0.8873 0.8873 0.4613 201.6501 269.3701)" class="st6 st3 st7">g</text>
	<text transform="matrix(0.5232 -0.8522 0.8522 0.5232 205.8201 261.5097)" class="st6 st3 st7">w</text>
	<text transform="matrix(0.5635 -0.8261 0.8261 0.5635 210.4299 254.1098)" class="st6 st3 st7">a</text>
	<text transform="matrix(0.5938 -0.8046 0.8046 0.5938 213.39 249.7897)" class="st6 st3 st7">y</text>
	<text transform="matrix(0.6213 -0.7836 0.7836 0.6213 216.72 245.3101)" class="st6 st3 st7">s</text>
	<text transform="matrix(0.6656 -0.7463 0.7463 0.6656 221.52 239.37)" class="st6 st3 st7">o</text>
	<text transform="matrix(0.691 -0.7228 0.7228 0.691 225.68 234.7598)" class="st6 st3 st7">f</text>
	<text transform="matrix(0.7298 -0.6837 0.6837 0.7298 230.5399 229.7702)" class="st6 st3 st7">d</text>
	<text transform="matrix(0.7578 -0.6525 0.6525 0.7578 234.97 225.6297)" class="st6 st3 st7">o</text>
	<text transform="matrix(0.7791 -0.6269 0.6269 0.7791 239.72 221.5901)" class="st6 st3 st7">i</text>
	<text transform="matrix(0.8004 -0.5994 0.5994 0.8004 242.44 219.3698)" class="st6 st3 st7">n</text>
	<text transform="matrix(0.8251 -0.565 0.565 0.8251 247.73 215.4299)" class="st6 st3 st7">g</text>
	<text transform="matrix(0.8572 -0.515 0.515 0.8572 255.14 210.5)" class="st6 st3 st7">a</text>
	<text transform="matrix(0.8774 -0.4798 0.4798 0.8774 259.6201 207.7998)" class="st6 st3 st7">n</text>
	<text transform="matrix(0.8973 -0.4413 0.4413 0.8973 265.3799 204.6702)" class="st6 st3 st7">d</text>
	<text transform="matrix(0.927 -0.3751 0.3751 0.927 273.6501 200.7001)" class="st6 st3 st7">w</text>
	<text transform="matrix(0.944 -0.33 0.33 0.944 281.7201 197.49)" class="st6 st3 st7">a</text>
	<text transform="matrix(0.9557 -0.2944 0.2944 0.9557 286.66 195.7701)" class="st6 st3 st7">y</text>
	<text transform="matrix(0.9654 -0.2607 0.2607 0.9654 292.02 194.1401)" class="st6 st3 st7">s</text>
	<text transform="matrix(0.9784 -0.2067 0.2067 0.9784 299.42 192.23)" class="st6 st3 st7">a</text>
	<text transform="matrix(0.986 -0.1668 0.1668 0.986 304.53 191.15)" class="st6 st3 st7">n</text>
	<text transform="matrix(0.9923 -0.1238 0.1238 0.9923 311.01 190.07)" class="st6 st3 st7">d</text>
	<text transform="matrix(0.9975 -7.062699e-02 7.062699e-02 0.9975 320.14 189.07)" class="st6 st3 st7">l</text>
	<text transform="matrix(0.9989 -4.728079e-02 4.728079e-02 0.9989 323.46 188.84)" class="st6 st3 st7">i</text>
	<text transform="matrix(0.9999 -1.623085e-02 1.623085e-02 0.9999 326.99 188.66)" class="st6 st3 st7">v</text>
	<text transform="matrix(0.9998 1.745241e-02 -1.745241e-02 0.9998 333.02 188.6)" class="st6 st3 st7">i</text>
	<text transform="matrix(0.9987 5.163877e-02 -5.163877e-02 0.9987 336.54 188.64)" class="st6 st3 st7">n</text>
	<text transform="matrix(0.9956 9.376080e-02 -9.376080e-02 0.9956 343.11 189)" class="st6 st3 st7">g</text>
	<text transform="matrix(0.989 0.148 -0.148 0.989 351.97 189.9599)" class="st6 st3 st7">f</text>
	<text transform="matrix(0.9833 0.1822 -0.1822 0.9833 355.8 190.52)" class="st6 st3 st7">o</text>
	<text transform="matrix(0.9756 0.2193 -0.2193 0.9756 361.9099 191.67)" class="st6 st3 st7">r</text>
	<text transform="matrix(0.9008 0.4343 -0.4343 0.9008 392.8299 201.9)" class="st6 st3 st7">e</text>
	<text transform="matrix(0.8822 0.4709 -0.4709 0.8822 397.62 204.2099)" class="st6 st3 st7">n</text>
	<text transform="matrix(0.8623 0.5063 -0.5063 0.8623 403.4102 207.3199)" class="st6 st3 st7">a</text>
	<text transform="matrix(0.842 0.5395 -0.5395 0.842 407.9298 209.9799)" class="st6 st3 st7">b</text>
	<text transform="matrix(0.824 0.5666 -0.5666 0.824 413.0399 213.29)" class="st6 st3 st7">l</text>
	<text transform="matrix(0.8105 0.5858 -0.5858 0.8105 415.8001 215.19)" class="st6 st3 st7">i</text>
	<text transform="matrix(0.7897 0.6135 -0.6135 0.7897 418.6598 217.24)" class="st6 st3 st7">n</text>
	<text transform="matrix(0.763 0.6464 -0.6464 0.763 423.8401 221.2901)" class="st6 st3 st7">g</text>
	<text transform="matrix(0.7213 0.6926 -0.6926 0.7213 430.5703 227.1199)" class="st6 st3 st7">o</text>
	<text transform="matrix(0.6948 0.7192 -0.7192 0.6948 435.0504 231.4601)" class="st6 st3 st7">r</text>
	<text transform="matrix(0.6431 0.7658 -0.7658 0.6431 440.4498 237.1099)" class="st6 st3 st7">m</text>
	<text transform="matrix(0.6036 0.7973 -0.7973 0.6036 446.4704 244.3799)" class="st6 st3 st7">e</text>
	<text transform="matrix(0.572 0.8203 -0.8203 0.572 449.6895 248.6301)" class="st6 st3 st7">d</text>
	<text transform="matrix(0.5448 0.8386 -0.8386 0.5448 453.13 253.6201)" class="st6 st3 st7">i</text>
	<text transform="matrix(0.5192 0.8546 -0.8546 0.5192 455.0499 256.5699)" class="st6 st3 st7">a</text>
	<text transform="matrix(0.4915 0.8709 -0.8709 0.4915 457.7705 261.09)" class="st6 st3 st7">t</text>
	<text transform="matrix(0.4687 0.8834 -0.8834 0.4687 459.7497 264.6099)" class="st6 st3 st7">i</text>
	<text transform="matrix(0.4377 0.8991 -0.8991 0.4377 461.4103 267.7)" class="st6 st3 st7">n</text>
	<text transform="matrix(0.3987 0.9171 -0.9171 0.3987 464.28 273.6401)" class="st6 st3 st7">g</text>
	<text transform="matrix(0.344 0.939 -0.939 0.344 467.7196 281.8401)" class="st6 st3 st7">c</text>
	<text transform="matrix(0.3072 0.9516 -0.9516 0.3072 469.4498 286.57)" class="st6 st3 st7">o</text>
	<text transform="matrix(0.2553 0.9669 -0.9669 0.2553 471.3796 292.45)" class="st6 st3 st7">m</text>
	<text transform="matrix(0.2026 0.9793 -0.9793 0.2026 473.7304 301.58)" class="st6 st3 st7">p</text>
	<text transform="matrix(0.17 0.9854 -0.9854 0.17 474.9701 307.7001)" class="st6 st3 st7">l</text>
	<text transform="matrix(0.1406 0.9901 -0.9901 0.1406 475.5397 310.98)" class="st6 st3 st7">e</text>
	<text transform="matrix(0.103 0.9947 -0.9947 0.103 476.2802 316.23)" class="st6 st3 st7">x</text>
	<text transform="matrix(4.117813e-02 0.9992 -0.9992 4.117813e-02 477.0896 325.04)" class="st6 st3 st7">p</text>
	<text transform="matrix(1.623086e-02 0.9999 -0.9999 1.623086e-02 477.2896 331.24)" class="st6 st3 st7">r</text>
	<text transform="matrix(-3.298073e-02 0.9995 -0.9995 -3.298073e-02 477.3394 336.02)" class="st6 st3 st7">o</text>
	<text transform="matrix(-7.114930e-02 0.9975 -0.9975 -7.114930e-02 477.1191 342.2099)" class="st6 st3 st7">c</text>
	<text transform="matrix(-0.1066 0.9943 -0.9943 -0.1066 476.7495 347.25)" class="st6 st3 st7">e</text>
	<text transform="matrix(-0.1402 0.9901 -0.9901 -0.1402 476.1707 352.55)" class="st6 st3 st7">s</text>
	<text transform="matrix(-0.1711 0.9853 -0.9853 -0.1711 475.5197 357.04)" class="st6 st3 st7">s</text>
	<text transform="matrix(-0.2043 0.9789 -0.9789 -0.2043 474.7492 361.4799)" class="st6 st3 st7">e</text>
	<text transform="matrix(-0.2377 0.9713 -0.9713 -0.2377 473.6508 366.6999)" class="st6 st3 st7">s</text>
	<text transform="matrix(-0.2867 0.958 -0.958 -0.2867 471.7296 374.0999)" class="st6 st3 st7">f</text>
	<text transform="matrix(-0.3198 0.9475 -0.9475 -0.3198 470.6395 377.7999)" class="st6 st3 st7">o</text>
	<text transform="matrix(-0.3558 0.9346 -0.9346 -0.3558 468.6195 383.7)" class="st6 st3 st7">r</text>
	<text transform="matrix(-0.5376 0.8432 -0.8432 -0.5376 455.7607 410.2499)" class="st6 st3 st7">r</text>
	<text transform="matrix(-0.5666 0.824 -0.824 -0.5666 453.2002 414.2498)" class="st6 st3 st7">e</text>
	<text transform="matrix(-0.5997 0.8002 -0.8002 -0.5997 450.1892 418.6402)" class="st6 st3 st7">n</text>
	<text transform="matrix(-0.6337 0.7736 -0.7736 -0.6337 446.2391 423.8799)" class="st6 st3 st7">d</text>
	<text transform="matrix(-0.6633 0.7484 -0.7484 -0.6633 442.3802 428.5701)" class="st6 st3 st7">e</text>
	<text transform="matrix(-0.6856 0.728 -0.728 -0.6856 438.8296 432.5402)" class="st6 st3 st7">i</text>
	<text transform="matrix(-0.7104 0.7038 -0.7038 -0.7104 436.4199 435.1205)" class="st6 st3 st7">n</text>
	<text transform="matrix(-0.7395 0.6731 -0.6731 -0.7395 431.7401 439.7296)" class="st6 st3 st7">g</text>
	<text transform="matrix(-0.7743 0.6328 -0.6328 -0.7743 425.0609 445.6396)" class="st6 st3 st7">i</text>
	<text transform="matrix(-0.7957 0.6057 -0.6057 -0.7957 422.3503 447.8796)" class="st6 st3 st7">n</text>
	<text transform="matrix(-0.8169 0.5767 -0.5767 -0.8169 417.0791 451.8503)" class="st6 st3 st7">f</text>
	<text transform="matrix(-0.8363 0.5483 -0.5483 -0.8363 413.9308 454.09)" class="st6 st3 st7">o</text>
	<text transform="matrix(-0.8564 0.5162 -0.5162 -0.8564 408.7093 457.4899)" class="st6 st3 st7">r</text>
	<text transform="matrix(-0.8806 0.4738 -0.4738 -0.8806 404.681 459.9699)" class="st6 st3 st7">m</text>
	<text transform="matrix(-0.9034 0.4288 -0.4288 -0.9034 396.3398 464.3796)" class="st6 st3 st7">a</text>
	<text transform="matrix(-0.9167 0.3995 -0.3995 -0.9167 391.5999 466.6102)" class="st6 st3 st7">t</text>
	<text transform="matrix(-0.9269 0.3754 -0.3754 -0.9269 387.8792 468.2196)" class="st6 st3 st7">i</text>
	<text transform="matrix(-0.939 0.3438 -0.3438 -0.939 384.6095 469.5599)" class="st6 st3 st7">o</text>
	<text transform="matrix(-0.9533 0.302 -0.302 -0.9533 378.79 471.6796)" class="st6 st3 st7">n</text>
	<text transform="matrix(-0.9703 0.2419 -0.2419 -0.9703 369.5407 474.4699)" class="st6 st3 st7">a</text>
	<text transform="matrix(-0.9783 0.2072 -0.2072 -0.9783 364.4297 475.7397)" class="st6 st3 st7">c</text>
	<text transform="matrix(-0.9849 0.173 -0.173 -0.9849 359.4892 476.7701)" class="st6 st3 st7">c</text>
	<text transform="matrix(-0.9905 0.1378 -0.1378 -0.9905 354.5494 477.63)" class="st6 st3 st7">e</text>
	<text transform="matrix(-0.9946 0.1042 -0.1042 -0.9946 349.2694 478.3496)" class="st6 st3 st7">s</text>
	<text transform="matrix(-0.9971 7.671892e-02 -7.671892e-02 -0.9971 344.7509 478.8098)" class="st6 st3 st7">i</text>
	<text transform="matrix(-0.999 4.396819e-02 -4.396819e-02 -0.999 341.23 479.0905)" class="st6 st3 st7">b</text>
	<text transform="matrix(-0.9999 1.623072e-02 -1.623072e-02 -0.9999 335.1099 479.3296)" class="st6 st3 st7">l</text>
	<text transform="matrix(-0.9999 -1.727800e-02 1.727800e-02 -0.9999 331.7997 479.3803)" class="st6 st3 st7">e</text>
	<text transform="matrix(-0.9977 -6.836351e-02 6.836351e-02 -0.9977 323.3598 479.1203)" class="st6 st3 st7">i</text>
	<text transform="matrix(-0.9947 -0.1028 0.1028 -0.9947 319.8497 478.8995)" class="st6 st3 st7">n</text>
	<text transform="matrix(-0.9463 -0.3234 0.3234 -0.9463 289.1299 473.0305)" class="st6 st3 st7">m</text>
	<text transform="matrix(-0.9286 -0.371 0.371 -0.9286 280.2201 469.9093)" class="st6 st3 st7">a</text>
	<text transform="matrix(-0.9162 -0.4008 0.4008 -0.9162 275.3397 467.9396)" class="st6 st3 st7">t</text>
	<text transform="matrix(-0.9027 -0.4302 0.4302 -0.9027 271.6605 466.3298)" class="st6 st3 st7">e</text>
	<text transform="matrix(-0.8873 -0.4613 0.4613 -0.8873 266.8702 464.0299)" class="st6 st3 st7">r</text>
	<text transform="matrix(-0.8737 -0.4865 0.4865 -0.8737 262.6399 461.821)" class="st6 st3 st7">i</text>
	<text transform="matrix(-0.8586 -0.5126 0.5126 -0.8586 259.5599 460.1104)" class="st6 st3 st7">a</text>
	<text transform="matrix(-0.8431 -0.5377 0.5377 -0.8431 255.0496 457.3899)" class="st6 st3 st7">l</text>
	<text transform="matrix(-0.8301 -0.5576 0.5576 -0.8301 252.2305 455.58)" class="st6 st3 st7">i</text>
	<text transform="matrix(-0.8131 -0.5821 0.5821 -0.8131 249.2901 453.6198)" class="st6 st3 st7">z</text>
	<text transform="matrix(-0.7954 -0.6061 0.6061 -0.7954 245.1196 450.6)" class="st6 st3 st7">i</text>
	<text transform="matrix(-0.774 -0.6332 0.6332 -0.774 242.3105 448.4909)" class="st6 st3 st7">n</text>
	<text transform="matrix(-0.7465 -0.6654 0.6654 -0.7465 237.2301 444.3091)" class="st6 st3 st7">g</text>
	<text transform="matrix(-0.7028 -0.7114 0.7114 -0.7028 230.6501 438.2996)" class="st6 st3 st7">n</text>
	<text transform="matrix(-0.6735 -0.7392 0.7392 -0.6735 226.0602 433.6195)" class="st6 st3 st7">a</text>
	<text transform="matrix(-0.6479 -0.7618 0.7618 -0.6479 222.5302 429.7294)" class="st6 st3 st7">r</text>
	<text transform="matrix(-0.6225 -0.7826 0.7826 -0.6225 219.4398 426.0793)" class="st6 st3 st7">r</text>
	<text transform="matrix(-0.5954 -0.8034 0.8034 -0.5954 216.4798 422.36)" class="st6 st3 st7">a</text>
	<text transform="matrix(-0.5696 -0.8219 0.8219 -0.5696 213.37 418.1293)" class="st6 st3 st7">t</text>
	<text transform="matrix(-0.5479 -0.8366 0.8366 -0.5479 211.0701 414.7904)" class="st6 st3 st7">i</text>
	<text transform="matrix(-0.5203 -0.854 0.854 -0.5203 209.14 411.8599)" class="st6 st3 st7">v</text>
	<text transform="matrix(-0.4865 -0.8737 0.8737 -0.4865 206.0101 406.6991)" class="st6 st3 st7">e</text>
	<text transform="matrix(-0.4565 -0.8897 0.8897 -0.4565 203.4399 402.051)" class="st6 st3 st7">s</text>
	<text transform="matrix(-0.4067 -0.9135 0.9135 -0.4067 200.03 395.2197)" class="st6 st3 st7">a</text>
	<text transform="matrix(-0.3691 -0.9294 0.9294 -0.3691 197.9101 390.4492)" class="st6 st3 st7">n</text>
	<text transform="matrix(-0.3282 -0.9446 0.9446 -0.3282 195.5 384.3409)" class="st6 st3 st7">d</text>
	<text transform="matrix(-0.2676 -0.9635 0.9635 -0.2676 192.59 375.6304)" class="st6 st3 st7">v</text>
	<text transform="matrix(-0.2355 -0.9719 0.9719 -0.2355 191.01 369.8091)" class="st6 st3 st7">i</text>
	<text transform="matrix(-0.2083 -0.9781 0.9781 -0.2083 190.18 366.3791)" class="st6 st3 st7">s</text>
	<text transform="matrix(-0.181 -0.9835 0.9835 -0.181 189.2501 361.95)" class="st6 st3 st7">i</text>
	<text transform="matrix(-0.148 -0.989 0.989 -0.148 188.6 358.49)" class="st6 st3 st7">o</text>
	<text transform="matrix(-0.1044 -0.9945 0.9945 -0.1044 187.69 352.349)" class="st6 st3 st7">n</text>
	<text transform="matrix(-6.644800e-02 -0.9978 0.9978 -6.644800e-02 187.03 345.7806)" class="st6 st3 st7">s</text>
	<text transform="matrix(-1.623086e-02 -0.9999 0.9999 -1.623086e-02 186.62 338.1801)" class="st6 st3 st7">o</text>
	<text transform="matrix(2.495562e-02 -0.9997 0.9997 2.495562e-02 186.57 331.9702)" class="st6 st3 st7">f</text>
	<circle class="st5" cx="332" cy="334" r="272.5"/>
	<circle class="st5" cx="334.1" cy="332.8" r="300.6"/>
	<g>
		<text transform="matrix(0.6691 0.7431 -0.7431 0.6691 159.45 140.81)" class="st1 st3 st7">Slow economies</text>
		<text transform="matrix(0.4226 0.9063 -0.9063 0.4226 226.3896 100.77)" class="st1 st3 st7">Slower lifestyles</text>
		<text transform="matrix(0.1392 0.9903 -0.9903 0.1392 307.7103 76.88)" class="st1 st3 st7">Reduced</text>
		<text transform="matrix(0.1392 0.9903 -0.9903 0.1392 294.0902 78.79)" class="st1 st3 st7">consumption</text>
		<text transform="matrix(0.5446 -0.8387 0.8387 0.5446 178.11 542.6702)" class="st1 st3 st7">Democratic politics</text>
		<text transform="matrix(0.5446 -0.8387 0.8387 0.5446 189.6401 550.1702)" class="st1 st3 st7">of Nature</text>
		<text transform="matrix(0.766 -0.6428 0.6428 0.766 123.3799 483.6199)" class="st1 st3 st7">Means of</text>
		<text transform="matrix(0.766 -0.6428 0.6428 0.766 132.22 494.1502)" class="st1 st3 st7">production are</text>
		<text transform="matrix(0.766 -0.6428 0.6428 0.766 141.0701 504.6902)" class="st1 st3 st7">collective</text>
		<text transform="matrix(0.8572 0.515 -0.515 0.8572 119.3099 190.3199)" class="st1 st3 st7">Locally sourced</text>
		<text transform="matrix(0.8572 0.515 -0.515 0.8572 112.2201 202.11)" class="st1 st3 st7">materials</text>
		<text transform="matrix(0.8572 0.515 -0.515 0.8572 105.14 213.9)" class="st1 st3 st7">and thoughts</text>
		<text transform="matrix(0.2924 -0.9563 0.9563 0.2924 237.2301 576.7797)" class="st1 st3 st7">Human</text>
		<text transform="matrix(0.2924 -0.9563 0.9563 0.2924 250.38 580.81)" class="st1 st3 st7">activities that</text>
		<text transform="matrix(0.2924 -0.9563 0.9563 0.2924 263.5399 584.8198)" class="st1 st3 st7">respect Nature’s</text>
		<text transform="matrix(0.2924 -0.9563 0.9563 0.2924 276.6901 588.85)" class="st1 st3 st7">rights</text>
		<text transform="matrix(6.123234e-17 -1 1 6.123234e-17 339.1 597.8699)" class="st1 st3 st7">Humans and Nature</text>
		<text transform="matrix(6.123234e-17 -1 1 6.123234e-17 352.85 597.8699)" class="st1 st3 st7">relationship</text>
		<text transform="matrix(6.123234e-17 -1 1 6.123234e-17 324.98 597.6395)" class="st1 st3 st7">Mutually enhanced</text>
		<text transform="matrix(0.9703 0.2419 -0.2419 0.9703 86.0099 266.1099)" class="st1 st3 st7">Self sufficient</text>
		<text transform="matrix(0.9703 0.2419 -0.2419 0.9703 82.6801 279.45)" class="st1 st3 st7">communities</text>
		<text transform="matrix(1 0 0 1 74.81 341.88)" class="st1 st3 st7">End of predatory</text>
		<text transform="matrix(1 0 0 1 74.81 355.63)" class="st1 st3 st7">extraction</text>
		<text transform="matrix(0.9336 -0.3584 0.3584 0.9336 84.25 414.53)" class="st1 st3 st7">Consumption of</text>
		<text transform="matrix(0.9336 -0.3584 0.3584 0.9336 89.1799 427.3701)" class="st1 st3 st7">Nature controlled</text>
		<text transform="matrix(0.9336 -0.3584 0.3584 0.9336 94.1101 440.2099)" class="st1 st3 st7">by the people</text>
		<g>
			<text transform="matrix(0.9648 -0.263 0.263 0.9648 501.89 293.2901)" class="st1 st3 st7">Deep respect of all </text>
			<text transform="matrix(0.9648 -0.263 0.263 0.9648 505.5067 306.5557)" class="st1 st3 st7">Nature’s</text>
			<text transform="matrix(0.9648 -0.263 0.263 0.9648 544.5099 296.3399)" class="st1 st3 st7">beings</text>
		</g>
		<text transform="matrix(0.9979 6.540313e-02 -6.540313e-02 0.9979 508.62 344.53)" class="st1 st3 st7">Valuing life creation</text>
		<text transform="matrix(0.9979 6.540313e-02 -6.540313e-02 0.9979 507.72 358.25)" class="st1 st3 st7">and maintenance</text>
		<text transform="matrix(0.8457 -0.5336 0.5336 0.8457 490.97 248.31)" class="st1 st3 st7">A culture of care</text>
		<text transform="matrix(0.5628 0.8266 -0.8266 0.5628 447.6005 475.9801)" class="st1 st3 st7">Autonomous</text>
		<text transform="matrix(0.5628 0.8266 -0.8266 0.5628 436.2304 483.7201)" class="st1 st3 st7">communities</text>
		<text transform="matrix(0.5628 0.8266 -0.8266 0.5628 424.8603 491.4601)" class="st1 st3 st7">and enviroment</text>
		<text transform="matrix(0.3132 0.9497 -0.9497 0.3132 381.8597 504.78)" class="st1 st3 st7">Righteous Nature</text>
		<text transform="matrix(0.6915 -0.7224 0.7224 0.6915 459.23 196.2802)" class="st1 st3 st7">Natural Capital </text>
		<text transform="matrix(0.6915 -0.7224 0.7224 0.6915 469.1626 205.7885)" class="st1 st3 st7">understanding</text>
		<text transform="matrix(0.8116 0.5842 -0.5842 0.8116 476.1898 443.4799)" class="st1 st3 st7">Respect of Nature</text>
		<text transform="matrix(0.8116 0.5842 -0.5842 0.8116 468.16 454.64)" class="st1 st3 st7">as a being</text>
		<text transform="matrix(0.481 -0.8767 0.8767 0.481 416.09 167.1598)" class="st1 st3 st7">Holistic wealth</text>
		<text transform="matrix(0.481 -0.8767 0.8767 0.481 428.1501 173.7799)" class="st1 st3 st7">accounting</text>
		<text transform="matrix(0.9351 0.3543 -0.3543 0.9351 504.65 395.98)" class="st1 st3 st7">A happy and</text>
		<text transform="matrix(0.9351 0.3543 -0.3543 0.9351 499.7801 408.8399)" class="st1 st3 st7">balanced life</text>
		<text transform="matrix(0.1693 -0.9856 0.9856 0.1693 361.93 145.85)" class="st1 st3 st7">New value</text>
		<text transform="matrix(0.1693 -0.9856 0.9856 0.1693 375.49 148.18)" class="st1 st3 st7"> concept</text>
	</g>
	<circle class="st1" cx="287.1" cy="617.4" r="3.7"/>
	<circle class="st1" cx="619.7" cy="345.1" r="3.7"/>
	<circle class="st1" cx="49" cy="368.4" r="4.1"/>
	<circle class="st1" cx="184.7" cy="311.7" r="3.7"/>
	<circle class="st1" cx="380.8" cy="194.1" r="3.7"/>
	<circle class="st1" cx="300.3" cy="478.8" r="3.7"/>
	<circle class="st1" cx="463.6" cy="399.4" r="3.7"/>
	<circle class="st1" cx="146.5" cy="118.5" r="3.7"/>
</g>
<g id="uuid-785f368a-caab-4e03-91eb-6ed70061d27c">
	<path class="st1" d="M331,363.2c15.9,0,28.8-12.9,28.8-28.8s-12.9-28.8-28.8-28.8s-28.8,12.9-28.8,28.8S315.1,363.2,331,363.2z"/>
	<g>
		<path class="st6" d="M312.2,331.9c0-0.1,0-0.2,0.1-0.3s0.1-0.3,0.1-0.4c0-0.1,0.1-0.3,0.1-0.5c0-0.2,0-0.3,0-0.5v-4.1
			c0-0.1,0-0.3,0-0.5s0-0.3-0.1-0.5c0-0.1-0.1-0.3-0.1-0.4s-0.1-0.2-0.1-0.3s0-0.1,0-0.1v0h3.4c1.1,0,2,0.4,2.7,1.1s1.1,1.6,1.1,2.8
			s-0.4,2.1-1.1,2.8c-0.7,0.7-1.6,1.1-2.7,1.1h-3.4v0C312.1,332,312.1,332,312.2,331.9L312.2,331.9z M314.9,331.5
			c0.4,0,0.7-0.1,1-0.3s0.5-0.5,0.6-0.8s0.3-0.7,0.3-1.1c0.1-0.4,0.1-0.8,0.1-1.2s0-0.8-0.1-1.2s-0.2-0.7-0.3-1.1s-0.4-0.6-0.6-0.8
			s-0.6-0.3-1-0.3h-0.2v6.8H314.9z"/>
		<path class="st6" d="M321.3,327.2c0.5-0.5,1.2-0.7,2.1-0.7c0.5,0,0.9,0.1,1.3,0.2s0.6,0.4,0.8,0.7c0.2,0.3,0.3,0.6,0.4,0.9
			c0.1,0.3,0.1,0.6,0.1,1h-3.3c0.1,1.1,0.7,1.6,1.6,1.6c0.5,0,1-0.2,1.6-0.5l0,0c-0.1,0.4-0.4,0.8-0.9,1.2c-0.5,0.4-1,0.5-1.7,0.5
			c-0.3,0-0.7-0.1-1-0.2c-0.3-0.1-0.6-0.3-0.9-0.5s-0.5-0.5-0.7-0.9c-0.2-0.4-0.3-0.8-0.3-1.3C320.5,328.4,320.8,327.7,321.3,327.2
			L321.3,327.2z M322.7,328.5c0,0.1,0,0.2,0,0.4l1.4-0.4c0-1-0.2-1.5-0.7-1.5S322.7,327.5,322.7,328.5L322.7,328.5L322.7,328.5z"/>
		<path class="st6" d="M327.3,328.2c0-0.5,0.2-1,0.7-1.3s1-0.5,1.8-0.5c0.7,0,1.4,0.1,2,0.4v1.7h0c-0.2-0.2-0.4-0.4-0.5-0.6
			s-0.3-0.3-0.5-0.5s-0.4-0.3-0.6-0.4c-0.2-0.1-0.4-0.1-0.6-0.1c-0.2,0-0.3,0-0.4,0.1s-0.2,0.2-0.2,0.3c0,0.1,0,0.2,0.1,0.3
			c0.1,0.1,0.2,0.2,0.3,0.2c0.2,0.1,0.3,0.1,0.4,0.2s0.3,0.1,0.6,0.2c0.6,0.2,1.1,0.5,1.4,0.8s0.4,0.7,0.4,1.1
			c0,0.6-0.2,1.1-0.7,1.4s-1,0.5-1.7,0.5c-0.7,0-1.4-0.1-2.2-0.4V330h0c0.1,0.1,0.2,0.2,0.4,0.4s0.4,0.4,0.5,0.5s0.2,0.2,0.4,0.4
			c0.2,0.1,0.4,0.2,0.5,0.3s0.3,0.1,0.5,0.1c0.2,0,0.3,0,0.5-0.1c0.1-0.1,0.2-0.2,0.2-0.4c0-0.2-0.2-0.4-0.5-0.6
			c-0.1-0.1-0.4-0.2-0.9-0.3C327.9,329.8,327.3,329.1,327.3,328.2L327.3,328.2z"/>
		<path class="st6" d="M333.4,331.9c0-0.1,0-0.2,0.1-0.3s0.1-0.3,0.1-0.4c0-0.1,0.1-0.3,0.1-0.5c0-0.2,0-0.3,0-0.5v-1.8
			c0-0.1,0-0.3,0-0.5s0-0.3-0.1-0.5s-0.1-0.3-0.1-0.4c0-0.1-0.1-0.2-0.1-0.3c0-0.1,0-0.1,0-0.1v0h2.4v3.6c0,0.1,0,0.3,0,0.5
			s0,0.3,0.1,0.5c0,0.1,0.1,0.3,0.1,0.4c0,0.1,0.1,0.2,0.1,0.3s0,0.1,0,0.1v0h-2.7v0C333.3,332,333.4,332,333.4,331.9L333.4,331.9z
			 M333.7,324c0.2-0.2,0.5-0.3,0.9-0.3s0.6,0.1,0.9,0.4s0.4,0.5,0.4,0.9s-0.1,0.6-0.4,0.8c-0.2,0.2-0.5,0.4-0.9,0.4
			s-0.6-0.1-0.9-0.4s-0.4-0.5-0.4-0.9S333.5,324.3,333.7,324L333.7,324z"/>
		<path class="st6" d="M337.1,328.4c0-0.4,0.1-0.8,0.4-1.1c0.3-0.3,0.6-0.5,1-0.6c0.4-0.1,0.7-0.2,1.1-0.2c0.5,0,0.9,0.1,1.3,0.2
			c0.3-0.8,0.8-1.2,1.5-1.2c0.1,0,0.2,0,0.3,0l-0.3,1.5l0,0c-0.3-0.1-0.5-0.2-0.8-0.2c-0.1,0-0.3,0-0.4,0c0.6,0.4,0.9,0.9,0.9,1.5
			c0,0.6-0.3,1.1-0.8,1.4c-0.5,0.3-1.1,0.5-1.7,0.5c-0.3,0-0.6,0-0.9-0.1c-0.3,0.1-0.4,0.2-0.4,0.4c0,0.1,0,0.1,0.1,0.2
			c0.1,0,0.2,0,0.5,0h1.8c0.6,0,1.1,0.1,1.4,0.4c0.3,0.3,0.5,0.7,0.5,1.2c0,1.2-1,1.8-2.9,1.8c-0.2,0-0.4,0-0.5,0s-0.4,0-0.6-0.1
			c-0.2,0-0.5-0.1-0.7-0.2c-0.2-0.1-0.4-0.2-0.5-0.3c-0.1-0.1-0.2-0.3-0.2-0.5c0-0.3,0.1-0.5,0.3-0.7c-0.2-0.2-0.3-0.5-0.3-0.9
			c0-0.7,0.4-1.1,1.2-1.3C337.6,329.8,337.1,329.2,337.1,328.4L337.1,328.4z M338.2,332.7c0.1,0.7,0.7,1,1.6,1c0.4,0,0.8,0,1.1-0.1
			s0.5-0.2,0.5-0.4c0-0.1-0.1-0.2-0.2-0.3s-0.3-0.1-0.6-0.1h-1.8C338.6,332.8,338.4,332.7,338.2,332.7L338.2,332.7z M339.1,328.4
			c0,1,0.2,1.5,0.5,1.5s0.6-0.5,0.6-1.5s-0.2-1.5-0.6-1.5S339.1,327.4,339.1,328.4z"/>
		<path class="st6" d="M343.6,332c0,0,0,0,0-0.1s0-0.2,0.1-0.3c0-0.1,0.1-0.3,0.1-0.4c0-0.1,0.1-0.3,0.1-0.5c0-0.2,0-0.3,0-0.5v-1.8
			c0-0.1,0-0.3,0-0.5s0-0.3-0.1-0.5s-0.1-0.3-0.1-0.4s-0.1-0.2-0.1-0.3s0-0.1,0-0.1v0h2.4v0.9c0.2-0.3,0.4-0.5,0.7-0.7
			c0.3-0.2,0.6-0.3,1-0.3c0.5,0,0.9,0.2,1.3,0.5s0.5,0.8,0.5,1.3v1.9c0,0.1,0,0.3,0,0.5s0,0.3,0.1,0.5c0,0.1,0.1,0.3,0.1,0.4
			s0.1,0.2,0.1,0.3s0,0.1,0,0.1v0h-2.7v0c0,0,0,0,0-0.1s0-0.2,0.1-0.3c0-0.1,0.1-0.3,0.1-0.4c0-0.1,0.1-0.3,0.1-0.5
			c0-0.2,0-0.3,0-0.5v-1.6c0-0.5-0.3-0.8-0.8-0.9h0c-0.2,0-0.4,0-0.7,0.2v2.3c0,0.1,0,0.3,0,0.5s0,0.3,0.1,0.5
			c0,0.1,0.1,0.3,0.1,0.4s0.1,0.2,0.1,0.3s0,0.1,0,0.1v0L343.6,332L343.6,332L343.6,332z"/>
		<path class="st6" d="M320,343.3c0-0.5,0.2-1,0.6-1.3c0.4-0.3,0.9-0.5,1.4-0.5c0.4,0,0.9,0.1,1.2,0.2v-0.6c0-0.2,0-0.4,0-0.5
			c0-0.1,0-0.2,0-0.4c0-0.1,0-0.2-0.1-0.3s-0.1-0.1-0.1-0.1c-0.2,0-0.5,0.1-0.9,0.4c-0.4,0.2-0.8,0.5-1.1,0.8l-0.5,0.4h0v-1.7
			c1.1-0.2,2-0.4,2.7-0.4s1.3,0.2,1.6,0.5c0.3,0.4,0.5,0.8,0.5,1.4v1.9c0,0.4,0,0.6,0.1,0.7s0.1,0.1,0.2,0.1c0.1,0,0.2,0,0.3-0.1
			l0,0c0,0.3-0.1,0.6-0.4,0.8s-0.5,0.3-0.9,0.3c-0.7,0-1.1-0.3-1.3-0.9c-0.1,0.2-0.3,0.5-0.6,0.7s-0.6,0.3-1,0.3
			c-0.5,0-1-0.2-1.3-0.5C320.2,344.2,320,343.7,320,343.3L320,343.3z M322.4,343.7c0.1,0.2,0.3,0.3,0.6,0.3c0.1,0,0.3,0,0.4-0.1
			c0-0.1,0-0.2,0-0.4v-1.4c-0.1,0-0.2,0-0.3,0c-0.6,0-0.9,0.3-0.9,0.9C322.1,343.2,322.2,343.5,322.4,343.7L322.4,343.7z"/>
		<path class="st6" d="M327,341.1c0-0.5,0.2-1,0.7-1.3s1-0.5,1.8-0.5c0.7,0,1.4,0.1,2,0.4v1.7h0c-0.2-0.2-0.4-0.4-0.5-0.6
			s-0.3-0.3-0.5-0.5s-0.4-0.3-0.6-0.4c-0.2-0.1-0.4-0.1-0.6-0.1c-0.2,0-0.3,0-0.4,0.1c-0.1,0.1-0.2,0.2-0.2,0.3c0,0.1,0,0.2,0.1,0.3
			c0.1,0.1,0.2,0.2,0.3,0.2c0.2,0.1,0.3,0.1,0.4,0.2s0.3,0.1,0.6,0.2c0.6,0.2,1.1,0.5,1.4,0.8s0.4,0.7,0.4,1.1
			c0,0.6-0.2,1.1-0.7,1.4s-1,0.5-1.7,0.5c-0.7,0-1.4-0.1-2.2-0.4v-1.8h0c0.1,0.1,0.2,0.2,0.4,0.4c0.2,0.2,0.4,0.4,0.5,0.5
			s0.2,0.2,0.4,0.4c0.2,0.1,0.4,0.2,0.5,0.3s0.3,0.1,0.5,0.1c0.2,0,0.3,0,0.5-0.1c0.1-0.1,0.2-0.2,0.2-0.4c0-0.2-0.2-0.4-0.5-0.6
			c-0.1-0.1-0.4-0.2-0.9-0.3C327.6,342.7,327,342,327,341.1L327,341.1z"/>
		<path class="st6" d="M335.9,343.3c0-0.5,0.2-1,0.6-1.3c0.4-0.3,0.9-0.5,1.4-0.5c0.4,0,0.9,0.1,1.2,0.2v-0.6c0-0.2,0-0.4,0-0.5
			c0-0.1,0-0.2,0-0.4c0-0.1,0-0.2-0.1-0.3s-0.1-0.1-0.1-0.1c-0.2,0-0.5,0.1-0.9,0.4s-0.8,0.5-1.1,0.8l-0.5,0.4h0v-1.7
			c1.1-0.2,2-0.4,2.7-0.4s1.3,0.2,1.6,0.5c0.3,0.4,0.5,0.8,0.5,1.4v1.9c0,0.4,0,0.6,0.1,0.7s0.1,0.1,0.2,0.1c0.1,0,0.2,0,0.3-0.1
			l0,0c0,0.3-0.1,0.6-0.4,0.8s-0.5,0.3-0.9,0.3c-0.7,0-1.1-0.3-1.3-0.9c-0.1,0.2-0.3,0.5-0.6,0.7s-0.6,0.3-1,0.3
			c-0.5,0-1-0.2-1.3-0.5S335.9,343.7,335.9,343.3L335.9,343.3z M338.2,343.7c0.1,0.2,0.3,0.3,0.6,0.3c0.1,0,0.3,0,0.4-0.1
			c0-0.1,0-0.2,0-0.4v-1.4c-0.1,0-0.2,0-0.3,0c-0.6,0-0.9,0.3-0.9,0.9C338,343.2,338.1,343.5,338.2,343.7L338.2,343.7z"/>
	</g>
	<g>
		<line class="st5" x1="314.9" y1="196.7" x2="330.3" y2="312.5"/>
		<line class="st5" x1="353.6" y1="314.7" x2="438" y2="241.4"/>
		<line class="st5" x1="466" y1="367.2" x2="359.6" y2="339.4"/>
		<line class="st5" x1="345.4" y1="358.5" x2="392.5" y2="457.3"/>
		<line class="st5" x1="283.5" y1="461.6" x2="323" y2="358.7"/>
		<line class="st5" x1="305.4" y1="337.8" x2="197.4" y2="359.6"/>
		<line class="st5" x1="224.6" y1="247.3" x2="312.2" y2="317.8"/>
	</g>
	<g>
		<g>
			<g>
				<text transform="matrix(-0.9666 0.2561 -0.2561 -0.9666 358.58 424.8295)" class="st1 st3 st8">n</text>
				<text transform="matrix(-0.9793 0.2023 -0.2023 -0.9793 352.6407 426.3895)" class="st1 st3 st8">u</text>
				<text transform="matrix(-0.9878 0.1557 -0.1557 -0.9878 346.8596 427.5498)" class="st1 st3 st8">r</text>
				<text transform="matrix(-0.9929 0.1186 -0.1186 -0.9929 342.4398 428.2304)" class="st1 st3 st8">t</text>
				<text transform="matrix(-0.9972 7.532693e-02 -7.532693e-02 -0.9972 338.7195 428.6901)" class="st1 st3 st8">u</text>
				<text transform="matrix(-0.9996 2.879385e-02 -2.879385e-02 -0.9996 332.8398 429.1108)" class="st1 st3 st8">r</text>
				<text transform="matrix(-0.9999 -1.413665e-02 1.413665e-02 -0.9999 328.3802 429.2304)" class="st1 st3 st8">e</text>
				<text transform="matrix(-0.9984 -5.738967e-02 5.738967e-02 -0.9984 323.3802 429.1396)" class="st1 st3 st8">r</text>
				<text transform="matrix(-0.9914 -0.1309 0.1309 -0.9914 316.0502 428.6193)" class="st1 st3 st8">o</text>
				<text transform="matrix(-0.9847 -0.174 0.174 -0.9847 310.2803 427.8294)" class="st1 st3 st8">f</text>
				<text transform="matrix(-0.9582 0.2862 -0.2862 -0.9582 355.7709 410.6098)" class="st1 st3 st8">c</text>
				<text transform="matrix(-0.9734 0.2292 -0.2292 -0.9734 351.2803 411.9603)" class="st1 st3 st8">o</text>
				<text transform="matrix(-0.9837 0.18 -0.18 -0.9837 345.6109 413.2504)" class="st1 st3 st8">l</text>
				<text transform="matrix(-0.9894 0.1454 -0.1454 -0.9894 342.5205 413.7996)" class="st1 st3 st8">l</text>
				<text transform="matrix(-0.9949 0.1011 -0.1011 -0.9949 339.4693 414.2598)" class="st1 st3 st8">e</text>
				<text transform="matrix(-0.9988 4.797813e-02 -4.797813e-02 -0.9988 334.5303 414.7497)" class="st1 st3 st8">c</text>
				<text transform="matrix(-1 6.980145e-04 -6.980145e-04 -1 329.8105 414.9504)" class="st1 st3 st8">t</text>
				<text transform="matrix(-0.9993 -3.856233e-02 3.856233e-02 -0.9993 326.0497 414.9408)" class="st1 st3 st8">i</text>
				<text transform="matrix(-0.9961 -8.854664e-02 8.854664e-02 -0.9961 322.7701 414.829)" class="st1 st3 st8">v</text>
				<text transform="matrix(-0.989 -0.148 0.148 -0.989 317.1601 414.3108)" class="st1 st3 st8">e</text>
				<text transform="matrix(-0.9665 0.2566 -0.2566 -0.9665 349.0808 397.6796)" class="st1 st3 st8">v</text>
				<text transform="matrix(-0.9812 0.193 -0.193 -0.9812 343.6409 399.07)" class="st1 st3 st8">i</text>
				<text transform="matrix(-0.9902 0.1395 -0.1395 -0.9902 340.4603 399.7001)" class="st1 st3 st8">s</text>
				<text transform="matrix(-0.9964 8.524302e-02 -8.524302e-02 -0.9964 336.2596 400.2695)" class="st1 st3 st8">i</text>
				<text transform="matrix(-0.9998 2.041890e-02 -2.041890e-02 -0.9998 333.0303 400.5704)" class="st1 st3 st8">o</text>
				<text transform="matrix(-0.9978 -6.627395e-02 6.627395e-02 -0.9978 327.2601 400.6801)" class="st1 st3 st8">n</text>
				<text transform="matrix(-0.9899 -0.1414 0.1414 -0.9899 321.1796 400.2196)" class="st1 st3 st8">s</text>
			</g>
			<g>
				<path class="st1" d="M334.4,392.5c-0.6,0.1-1.1-0.1-1.4-0.5s-0.6-0.8-0.6-1.2c-0.1-0.6,0.1-1.1,0.5-1.6c0.4-0.5,0.8-0.8,1.4-0.8
					c0.2,0,0.4,0,0.6,0c0.2,0,0.3,0,0.4,0c0,0,0.1,0,0.2-0.1s0.1-0.1,0.1-0.1c0,0,0.1,0,0.1,0c0,0,0.1,0,0.1,0.1c0,0,0,0.1,0,0.1
					s0,0.2,0,0.4c0,0.2,0,0.4,0,0.6l0.4,3.8c0,0.2,0.1,0.4,0.1,0.6c0,0.1,0.2,0.1,0.5,0.1h0.1c0,0,0.1,0,0.1,0.1c0,0.1,0,0.1,0,0.1
					c-0.2,0-0.4,0.1-0.5,0.1c-0.1,0-0.3,0.1-0.4,0.1s-0.2,0.1-0.2,0.1s-0.1,0.1-0.1,0.1l0,0h0c0,0,0,0-0.1,0c0,0,0-0.1-0.1-0.1
					c0-0.2,0-0.5,0-0.8l-0.2-1.6c0-0.1,0-0.1,0-0.1c0,0,0,0,0,0c-0.1,0.1-0.2,0.1-0.4,0.2C334.7,392.4,334.5,392.5,334.4,392.5
					L334.4,392.5z M334.7,392c0.2,0,0.3-0.1,0.4-0.2c0.1-0.1,0.2-0.2,0.1-0.4l-0.2-2.1c0-0.2-0.1-0.3-0.3-0.4s-0.4-0.1-0.6-0.1
					c-0.4,0-0.6,0.2-0.8,0.6s-0.2,0.7-0.2,1.1c0,0.5,0.2,0.9,0.5,1.1C333.9,391.9,334.2,392,334.7,392L334.7,392z"/>
				<path class="st1" d="M330.5,392.7c-0.1,0-0.2,0-0.3,0s-0.2,0-0.3,0s-0.2,0-0.3,0c0,0,0-0.1,0-0.1c0-0.1,0-0.1,0-0.1
					c0,0,0.1,0,0.2-0.1c0.1,0,0.2-0.1,0.2-0.1v0c0-0.1-0.4-0.9-1-2.4l-0.7,2c0,0.1-0.1,0.2-0.1,0.3c0,0.1,0,0.2,0.1,0.2
					s0.2,0.1,0.4,0.1c0,0,0,0,0,0.1c0,0.1,0,0.1,0,0.1c-0.1,0-0.2,0-0.4,0c-0.2,0-0.3,0-0.5,0c-0.1,0-0.3,0-0.4,0s-0.3,0-0.4,0
					c0,0,0-0.1,0-0.1c0-0.1,0-0.1,0-0.1c0.1,0,0.2,0,0.3-0.1s0.2-0.1,0.3-0.3l1.6-4.5c0.1-0.4,0.3-0.6,0.5-0.8
					c0.2-0.1,0.3-0.2,0.5-0.2c0.1,0,0.2,0,0.3,0.1c0.1,0.1,0.1,0.2,0.1,0.2c0,0.1,0,0.2-0.1,0.3c-0.5,0-0.8,0.3-1,0.8
					c0,0.1-0.1,0.2-0.1,0.3s-0.1,0.2-0.1,0.3l1.4,3.2c0.1,0.1,0.1,0.2,0.2,0.3c0.1,0,0.1,0.1,0.3,0.1c0.1,0,0.2,0,0.3,0
					c0,0,0,0,0,0.1c0,0.1,0,0.1,0,0.1C330.8,392.7,330.5,392.7,330.5,392.7L330.5,392.7z"/>
			</g>
		</g>
		<g>
			<g>
				<text transform="matrix(-0.8418 -0.5398 0.5398 -0.8418 276.6697 420.6605)" class="st1 st3 st8">d</text>
				<text transform="matrix(-0.8146 -0.58 0.58 -0.8146 271.8999 417.5797)" class="st1 st3 st8">e</text>
				<text transform="matrix(-0.7766 -0.63 0.63 -0.7766 267.85 414.7495)" class="st1 st3 st8">m</text>
				<text transform="matrix(-0.7356 -0.6774 0.6774 -0.7356 261.0198 409.1194)" class="st1 st3 st8">a</text>
				<text transform="matrix(-0.7083 -0.7059 0.7059 -0.7083 257.4299 405.7702)" class="st1 st3 st8">t</text>
				<text transform="matrix(-0.6796 -0.7336 0.7336 -0.6796 254.7501 403.11)" class="st1 st3 st8">e</text>
				<text transform="matrix(-0.6473 -0.7622 0.7622 -0.6473 251.37 399.4402)" class="st1 st3 st8">r</text>
				<text transform="matrix(-0.6199 -0.7847 0.7847 -0.6199 248.4998 396.0309)" class="st1 st3 st8">i</text>
				<text transform="matrix(-0.5898 -0.8076 0.8076 -0.5898 246.4401 393.4296)" class="st1 st3 st8">a</text>
				<text transform="matrix(-0.5598 -0.8286 0.8286 -0.5598 243.5602 389.4505)" class="st1 st3 st8">l</text>
				<text transform="matrix(-0.5351 -0.8448 0.8448 -0.5351 241.8202 386.8596)" class="st1 st3 st8">i</text>
				<text transform="matrix(-0.503 -0.8643 0.8643 -0.503 240.04 384.0605)" class="st1 st3 st8">z</text>
				<text transform="matrix(-0.4636 -0.886 0.886 -0.4636 237.6298 379.9004)" class="st1 st3 st8">e</text>
				<text transform="matrix(-0.4247 -0.9053 0.9053 -0.4247 235.3401 375.4902)" class="st1 st3 st8">r</text>
				<text transform="matrix(-0.878 -0.4787 0.4787 -0.878 288.4998 412.3706)" class="st1 st3 st8">o</text>
				<text transform="matrix(-0.8514 -0.5246 0.5246 -0.8514 283.3896 409.5293)" class="st1 st3 st8">f</text>
				<text transform="matrix(-0.8035 -0.5952 0.5952 -0.8035 277.9199 406.05)" class="st1 st3 st8">u</text>
				<text transform="matrix(-0.762 -0.6476 0.6476 -0.762 273.2301 402.57)" class="st1 st3 st8">n</text>
				<text transform="matrix(-0.7157 -0.6984 0.6984 -0.7157 268.5501 398.5694)" class="st1 st3 st8">n</text>
				<text transform="matrix(-0.6712 -0.7413 0.7413 -0.6712 264.1901 394.2697)" class="st1 st3 st8">e</text>
				<text transform="matrix(-0.63 -0.7766 0.7766 -0.63 260.8603 390.5699)" class="st1 st3 st8">c</text>
				<text transform="matrix(-0.5872 -0.8094 0.8094 -0.5872 257.9198 386.9307)" class="st1 st3 st8">e</text>
				<text transform="matrix(-0.5446 -0.8387 0.8387 -0.5446 255.0099 382.8896)" class="st1 st3 st8">s</text>
				<text transform="matrix(-0.5041 -0.8637 0.8637 -0.5041 252.7199 379.3296)" class="st1 st3 st8">s</text>
				<text transform="matrix(-0.459 -0.8885 0.8885 -0.459 250.5899 375.6898)" class="st1 st3 st8">a</text>
				<text transform="matrix(-0.4115 -0.9114 0.9114 -0.4115 248.36 371.3307)" class="st1 st3 st8">r</text>
				<text transform="matrix(-0.361 -0.9326 0.9326 -0.361 246.5299 367.2809)" class="st1 st3 st8">y</text>
				<text transform="matrix(-0.8816 -0.4721 0.4721 -0.8816 292.1498 399.9904)" class="st1 st3 st9">p</text>
				<text transform="matrix(-0.8463 -0.5327 0.5327 -0.8463 287.3703 397.3795)" class="st1 st3 st9">r</text>
				<text transform="matrix(-0.8068 -0.5909 0.5909 -0.8068 283.8402 395.1692)" class="st1 st3 st9">o</text>
				<text transform="matrix(-0.7581 -0.6521 0.6521 -0.7581 279.4699 391.9499)" class="st1 st3 st9">d</text>
				<text transform="matrix(-0.7045 -0.7097 0.7097 -0.7045 275.46 388.4792)" class="st1 st3 st9">u</text>
				<text transform="matrix(-0.6514 -0.7587 0.7587 -0.6514 271.6001 384.5501)" class="st1 st3 st9">c</text>
				<text transform="matrix(-0.6061 -0.7954 0.7954 -0.6061 268.7302 381.1694)" class="st1 st3 st9">t</text>
				<text transform="matrix(-0.5617 -0.8274 0.8274 -0.5617 266.6002 378.3603)" class="st1 st3 st9">s</text>
				<text transform="matrix(-0.4738 -0.8806 0.8806 -0.4738 262.9702 372.7591)" class="st1 st3 st9">a</text>
				<text transform="matrix(-0.4056 -0.914 0.914 -0.4056 260.81 368.7497)" class="st1 st3 st9">n</text>
				<text transform="matrix(-0.3295 -0.9441 0.9441 -0.3295 258.4901 363.4699)" class="st1 st3 st9">d</text>
				<text transform="matrix(-0.882 -0.4713 0.4713 -0.882 302.16 392.4094)" class="st1 st3 st8">o</text>
				<text transform="matrix(-0.8299 -0.5579 0.5579 -0.8299 297.0797 389.7405)" class="st1 st3 st8">w</text>
				<text transform="matrix(-0.7682 -0.6402 0.6402 -0.7682 290.4196 385.1807)" class="st1 st3 st8">n</text>
				<text transform="matrix(-0.698 -0.7161 0.7161 -0.698 285.7299 381.3095)" class="st1 st3 st8">w</text>
				<text transform="matrix(-0.627 -0.779 0.779 -0.627 280.1398 375.4408)" class="st1 st3 st8">e</text>
				<text transform="matrix(-0.5723 -0.8201 0.8201 -0.5723 277.0701 371.5891)" class="st1 st3 st8">r</text>
				<text transform="matrix(-0.5192 -0.8546 0.8546 -0.5192 274.5401 367.9392)" class="st1 st3 st8">s</text>
				<text transform="matrix(-0.4541 -0.8909 0.8909 -0.4541 272.3599 364.3898)" class="st1 st3 st8">h</text>
				<text transform="matrix(-0.3922 -0.9199 0.9199 -0.3922 269.69 359.0092)" class="st1 st3 st8">i</text>
				<text transform="matrix(-0.3299 -0.944 0.944 -0.3299 268.39 356.0307)" class="st1 st3 st8">p</text>
			</g>
			<g>
				<path class="st1" d="M289,373c-0.4-0.4-0.6-0.9-0.5-1.4c0-0.5,0.2-0.9,0.5-1.3c0.4-0.4,0.9-0.6,1.5-0.6c0.6,0,1.1,0.2,1.5,0.5
					c0.2,0.2,0.3,0.3,0.4,0.5s0.2,0.3,0.2,0.3c0,0,0.1,0.1,0.2,0.1s0.1,0.1,0.1,0.1c0,0,0,0,0.1,0.1c0,0,0,0.1,0,0.1
					c0,0,0,0-0.1,0.1c-0.1,0-0.2,0.1-0.3,0.3c-0.1,0.1-0.3,0.2-0.5,0.4l-2.7,2.7c-0.1,0.1-0.3,0.3-0.4,0.5c0,0.1,0,0.2,0.2,0.4
					l0.1,0.1c0,0,0,0.1,0,0.1c-0.1,0.1-0.1,0.1-0.1,0.1c-0.1-0.1-0.3-0.2-0.4-0.3s-0.2-0.1-0.3-0.2c-0.1,0-0.2-0.1-0.2-0.1
					c-0.1,0-0.1,0-0.1,0h0l0,0c0,0,0,0,0-0.1s0-0.1,0-0.1c0.2-0.1,0.4-0.3,0.6-0.5l1.1-1.1c0,0,0.1-0.1,0-0.1c0,0,0,0,0,0
					c-0.1,0-0.2-0.1-0.4-0.1C289.2,373.1,289,373.1,289,373L289,373z M289.5,372.8c0.1,0.1,0.3,0.2,0.4,0.2s0.3,0,0.4-0.2l1.5-1.5
					c0.1-0.1,0.2-0.3,0.1-0.5c-0.1-0.2-0.2-0.4-0.4-0.5c-0.2-0.2-0.6-0.3-0.9-0.2c-0.4,0.1-0.7,0.3-1,0.6c-0.3,0.3-0.5,0.7-0.6,1.1
					S289.2,372.5,289.5,372.8L289.5,372.8z"/>
				<path class="st1" d="M286.3,370c-0.1-0.1-0.1-0.1-0.2-0.2s-0.1-0.1-0.2-0.2s-0.1-0.2-0.2-0.2c0,0,0-0.1,0.1-0.1
					c0.1,0,0.1-0.1,0.1,0c0,0,0.1,0.1,0.2,0.1s0.2,0.1,0.2,0.1h0c0.1-0.1,0.5-0.9,1.2-2.3l-2,0.8c-0.1,0-0.2,0.1-0.3,0.1
					c-0.1,0.1-0.1,0.1-0.1,0.2c0,0.1,0.1,0.2,0.2,0.4c0,0,0,0-0.1,0.1c-0.1,0-0.1,0.1-0.1,0.1c0-0.1-0.1-0.2-0.2-0.3
					s-0.2-0.2-0.3-0.4c-0.1-0.1-0.2-0.2-0.3-0.3s-0.2-0.2-0.2-0.3c0,0,0-0.1,0.1-0.1c0.1-0.1,0.1-0.1,0.1,0c0,0.1,0.1,0.1,0.3,0.2
					c0.1,0.1,0.3,0.1,0.4,0l4.5-1.6c0.4-0.1,0.7-0.2,0.9-0.1c0.2,0,0.4,0.1,0.5,0.2c0.1,0.1,0.1,0.2,0.1,0.3s-0.1,0.2-0.1,0.2
					c-0.1,0.1-0.2,0.1-0.3,0.1c-0.3-0.4-0.8-0.5-1.3-0.3c-0.1,0-0.2,0.1-0.3,0.1c-0.1,0-0.2,0.1-0.3,0.1l-1.6,3.1
					c-0.1,0.1-0.1,0.3-0.1,0.3c0,0.1,0,0.2,0.1,0.3c0,0.1,0.1,0.2,0.1,0.2c0,0,0,0-0.1,0.1c-0.1,0-0.1,0.1-0.1,0.1
					C286.5,370.3,286.3,370,286.3,370L286.3,370z"/>
			</g>
		</g>
		<g>
			<g>
				<text transform="matrix(-5.529868e-02 -0.9985 0.9985 -5.529868e-02 234.55 342.2607)" class="st1 st3 st10">m</text>
				<text transform="matrix(1.134442e-02 -0.9999 0.9999 1.134442e-02 234.12 332.9102)" class="st1 st3 st10">e</text>
				<text transform="matrix(6.296472e-02 -0.998 0.998 6.296472e-02 234.18 327.6604)" class="st1 st3 st10">d</text>
				<text transform="matrix(0.1066 -0.9943 0.9943 0.1066 234.6 321.6397)" class="st1 st3 st10">i</text>
				<text transform="matrix(0.1463 -0.9892 0.9892 0.1463 234.97 318.16)" class="st1 st3 st10">a</text>
				<text transform="matrix(0.1881 -0.9822 0.9822 0.1881 235.7499 313.0197)" class="st1 st3 st10">t</text>
				<text transform="matrix(0.2341 -0.9722 0.9722 0.2341 236.49 309.0802)" class="st1 st3 st10">o</text>
				<text transform="matrix(0.2825 -0.9593 0.9593 0.2825 237.96 303.1097)" class="st1 st3 st10">r</text>
				<text transform="matrix(0.3569 -0.9341 0.9341 0.3569 240.26 295.6804)" class="st1 st3 st10">o</text>
				<text transform="matrix(0.3997 -0.9166 0.9166 0.3997 242.5 289.9305)" class="st1 st3 st10">f</text>
				<text transform="matrix(-4.117813e-02 -0.9992 0.9992 -4.117813e-02 248.12 338.0009)" class="st1 st3 st10">c</text>
				<text transform="matrix(2.129143e-02 -0.9998 0.9998 2.129143e-02 247.91 333.0105)" class="st1 st3 st10">o</text>
				<text transform="matrix(0.1075 -0.9942 0.9942 0.1075 247.9901 326.9297)" class="st1 st3 st10">m</text>
				<text transform="matrix(0.1939 -0.981 0.981 0.1939 249.08 317.6502)" class="st1 st3 st10">p</text>
				<text transform="matrix(0.246 -0.9693 0.9693 0.246 250.33 311.6099)" class="st1 st3 st10">l</text>
				<text transform="matrix(0.2925 -0.9563 0.9563 0.2925 251.1201 308.4199)" class="st1 st3 st10">e</text>
				<text transform="matrix(0.351 -0.9364 0.9364 0.351 252.66 303.4204)" class="st1 st3 st10">x</text>
				<text transform="matrix(-0.1433 -0.9897 0.9897 -0.1433 264.4601 339.94)" class="st1 st3 st10">p</text>
				<text transform="matrix(-6.522893e-02 -0.9979 0.9979 -6.522893e-02 263.63 333.8703)" class="st1 st3 st10">r</text>
				<text transform="matrix(1.343857e-02 -0.9999 0.9999 1.343857e-02 263.31 329.2301)" class="st1 st3 st10">o</text>
				<text transform="matrix(9.445579e-02 -0.9955 0.9955 9.445579e-02 263.44 323.1097)" class="st1 st3 st10">c</text>
				<text transform="matrix(0.1687 -0.9857 0.9857 0.1687 263.92 318.1801)" class="st1 st3 st10">e</text>
				<text transform="matrix(0.2384 -0.9712 0.9712 0.2384 264.8201 313.0499)" class="st1 st3 st10">s</text>
				<text transform="matrix(0.3019 -0.9533 0.9533 0.3019 265.9 308.72)" class="st1 st3 st10">s</text>
				<text transform="matrix(0.3691 -0.9294 0.9294 0.3691 267.24 304.49)" class="st1 st3 st10">e</text>
				<text transform="matrix(0.4344 -0.9007 0.9007 0.4344 269.21 299.6195)" class="st1 st3 st10">s</text>
			</g>
			<g>
				<path class="st1" d="M272.4,322.8c0.1-0.6,0.4-1,0.8-1.3c0.5-0.3,0.9-0.4,1.4-0.3c0.6,0.1,1,0.4,1.4,0.9c0.4,0.5,0.5,1,0.5,1.5
					c0,0.2-0.1,0.4-0.1,0.6c-0.1,0.2-0.1,0.3-0.1,0.3c0,0.1,0,0.1,0,0.2s0,0.1,0,0.1c0,0,0,0.1,0,0.1c0,0,0,0.1-0.1,0.1
					c0,0-0.1,0-0.1,0s-0.2-0.1-0.4-0.1s-0.4-0.1-0.6-0.1l-3.8-0.6c-0.2,0-0.4,0-0.6,0c-0.1,0-0.2,0.2-0.2,0.4v0.1c0,0,0,0-0.1,0
					c-0.1,0-0.1,0-0.1-0.1c0-0.2,0-0.4,0-0.5s0-0.3,0-0.4c0-0.1,0-0.2,0-0.2c0-0.1,0-0.1,0-0.1l0,0v0c0,0,0,0,0.1-0.1
					c0,0,0.1,0,0.1,0c0.2,0.1,0.4,0.2,0.8,0.2l1.6,0.2c0.1,0,0.1,0,0.1,0c0,0,0,0,0,0c0-0.1-0.1-0.2-0.1-0.4
					S272.4,322.9,272.4,322.8L272.4,322.8z M272.8,323.1c0,0.2,0,0.3,0.1,0.5c0.1,0.1,0.2,0.2,0.4,0.2l2.1,0.3c0.2,0,0.3,0,0.5-0.2
					c0.1-0.2,0.2-0.4,0.2-0.6c0-0.4-0.1-0.6-0.4-0.9s-0.6-0.4-1.1-0.5c-0.5-0.1-0.9,0-1.2,0.2C273,322.4,272.8,322.7,272.8,323.1
					L272.8,323.1z"/>
				<path class="st1" d="M273.2,318.9c0-0.1,0-0.2,0.1-0.3s0-0.2,0-0.3s0-0.2,0-0.3c0,0,0.1,0,0.1,0c0.1,0,0.1,0,0.1,0.1
					c0,0,0,0.1,0,0.2c0,0.1,0,0.2,0.1,0.2h0c0.1,0,1-0.1,2.6-0.4l-1.8-1.1c-0.1-0.1-0.2-0.1-0.3-0.1c-0.1,0-0.2,0-0.2,0.1
					c-0.1,0.1-0.1,0.2-0.2,0.4c0,0,0,0-0.1,0c-0.1,0-0.1,0-0.1-0.1c0-0.1,0.1-0.2,0.1-0.3s0.1-0.3,0.1-0.4c0-0.1,0.1-0.3,0.1-0.4
					c0-0.2,0-0.3,0-0.4c0,0,0.1,0,0.1,0c0.1,0,0.1,0,0.1,0.1c0,0.1,0,0.2,0,0.3s0.1,0.3,0.2,0.3l4,2.6c0.3,0.2,0.6,0.4,0.7,0.6
					c0.1,0.2,0.1,0.4,0.1,0.5c0,0.1-0.1,0.2-0.2,0.2s-0.2,0-0.2,0c-0.1,0-0.2-0.1-0.3-0.2c0.1-0.5-0.1-0.9-0.5-1.2
					c-0.1,0-0.2-0.1-0.3-0.2s-0.2-0.1-0.3-0.2l-3.4,0.5c-0.2,0-0.3,0.1-0.4,0.1c-0.1,0-0.1,0.1-0.2,0.2s-0.1,0.2-0.1,0.2
					c0,0,0,0-0.1,0c-0.1,0-0.1,0-0.1-0.1C273.1,319.2,273.2,318.9,273.2,318.9L273.2,318.9z"/>
			</g>
		</g>
		<g>
			<g>
				<text transform="matrix(0.7565 -0.6539 0.6539 0.7565 265.28 258.0702)" class="st1 st3 st10">e</text>
				<text transform="matrix(0.7912 -0.6115 0.6115 0.7912 269.28 254.6102)" class="st1 st3 st10">n</text>
				<text transform="matrix(0.8229 -0.5681 0.5681 0.8229 274.4399 250.6599)" class="st1 st3 st10">a</text>
				<text transform="matrix(0.8513 -0.5247 0.5247 0.8513 278.7101 247.7099)" class="st1 st3 st10">b</text>
				<text transform="matrix(0.8732 -0.4874 0.4874 0.8732 283.9001 244.56)" class="st1 st3 st10">l</text>
				<text transform="matrix(0.8918 -0.4524 0.4524 0.8918 286.7799 242.94)" class="st1 st3 st10">e</text>
				<text transform="matrix(0.9116 -0.411 0.411 0.9116 291.4999 240.57)" class="st1 st3 st10">r</text>
				<text transform="matrix(0.9408 -0.3389 0.3389 0.9408 298.64 237.4699)" class="st1 st3 st10">o</text>
				<text transform="matrix(0.9552 -0.2959 0.2959 0.9552 304.42 235.42)" class="st1 st3 st10">f</text>
				<text transform="matrix(0.687 -0.7267 0.7267 0.687 267.9401 274.3895)" class="st1 st3 st10">c</text>
				<text transform="matrix(0.7311 -0.6823 0.6823 0.7311 271.3501 270.78)" class="st1 st3 st10">o</text>
				<text transform="matrix(0.7877 -0.6161 0.6161 0.7877 275.7599 266.5902)" class="st1 st3 st10">m</text>
				<text transform="matrix(0.848 -0.5299 0.5299 0.848 283.1099 260.8601)" class="st1 st3 st10">m</text>
				<text transform="matrix(0.8911 -0.4538 0.4538 0.8911 291.0601 255.9999)" class="st1 st3 st10">u</text>
				<text transform="matrix(0.9212 -0.3891 0.3891 0.9212 296.5901 253.1899)" class="st1 st3 st10">n</text>
				<text transform="matrix(0.9416 -0.3368 0.3368 0.9416 302.6299 250.7)" class="st1 st3 st10">i</text>
				<text transform="matrix(0.9548 -0.2974 0.2974 0.9548 305.89 249.5399)" class="st1 st3 st10">t</text>
				<text transform="matrix(0.9693 -0.246 0.246 0.9693 309.72 248.3401)" class="st1 st3 st10">y</text>
				<text transform="matrix(0.7893 -0.614 0.614 0.7893 288.61 276.79)" class="st1 st3 st10">b</text>
				<text transform="matrix(0.841 -0.541 0.541 0.841 293.33 273.1398)" class="st1 st3 st10">u</text>
				<text transform="matrix(0.8772 -0.4801 0.4801 0.8772 298.5601 269.8399)" class="st1 st3 st10">i</text>
				<text transform="matrix(0.9 -0.4359 0.4359 0.9 301.6299 268.1799)" class="st1 st3 st10">l</text>
				<text transform="matrix(0.9219 -0.3875 0.3875 0.9219 304.5699 266.7599)" class="st1 st3 st10">t</text>
			</g>
			<g>
				<path class="st1" d="M301.2,278.2c0.5-0.3,1-0.4,1.5-0.3c0.5,0.1,0.9,0.4,1.1,0.8c0.3,0.5,0.5,1,0.4,1.6
					c-0.1,0.6-0.4,1.1-0.8,1.4c-0.2,0.1-0.4,0.2-0.6,0.3s-0.3,0.1-0.3,0.1c0,0-0.1,0.1-0.1,0.2c0,0.1-0.1,0.1-0.1,0.1
					c0,0-0.1,0-0.1,0c0,0-0.1,0-0.1,0c0,0,0,0-0.1-0.1c0-0.1-0.1-0.2-0.2-0.4c-0.1-0.2-0.2-0.3-0.3-0.5l-2.2-3.1
					c-0.1-0.2-0.2-0.3-0.4-0.5c-0.1-0.1-0.2,0-0.5,0.1l-0.1,0c0,0-0.1,0-0.1,0c-0.1-0.1-0.1-0.1,0-0.1c0.1-0.1,0.3-0.2,0.4-0.4
					c0.1-0.1,0.2-0.2,0.2-0.3c0-0.1,0.1-0.1,0.1-0.2s0.1-0.1,0.1-0.1v0l0,0c0,0,0,0,0.1,0s0.1,0,0.1,0c0.1,0.2,0.2,0.4,0.4,0.7
					l0.9,1.3c0,0,0.1,0.1,0.1,0.1c0,0,0,0,0,0c0-0.1,0.1-0.2,0.2-0.4C301,278.5,301.1,278.3,301.2,278.2L301.2,278.2z M301.2,278.8
					c-0.1,0.1-0.2,0.2-0.3,0.4c0,0.1,0,0.3,0.1,0.4l1.2,1.8c0.1,0.2,0.3,0.2,0.5,0.2c0.2,0,0.4-0.1,0.6-0.2c0.3-0.2,0.4-0.5,0.4-0.9
					c0-0.4-0.2-0.8-0.4-1.1c-0.3-0.4-0.6-0.6-1-0.8S301.6,278.6,301.2,278.8L301.2,278.8z"/>
				<path class="st1" d="M304.6,276.1c0.1,0,0.2-0.1,0.2-0.1c0.1,0,0.2-0.1,0.2-0.2c0.1-0.1,0.2-0.1,0.2-0.2c0,0,0.1,0.1,0.1,0.1
					c0,0.1,0,0.1,0,0.1c0,0-0.1,0.1-0.2,0.2s-0.1,0.2-0.1,0.2v0c0.1,0.1,0.8,0.6,2.1,1.6l-0.4-2.1c0-0.1-0.1-0.2-0.1-0.3
					c0-0.1-0.1-0.1-0.2-0.1s-0.2,0-0.4,0.1c0,0,0,0-0.1-0.1c0-0.1,0-0.1,0-0.1c0.1,0,0.2-0.1,0.3-0.2s0.3-0.1,0.4-0.2
					c0.1-0.1,0.2-0.1,0.4-0.2s0.2-0.2,0.3-0.2c0,0,0.1,0.1,0.1,0.1c0,0.1,0,0.1,0,0.1c-0.1,0-0.1,0.1-0.2,0.2s-0.1,0.2-0.1,0.4
					l0.8,4.7c0.1,0.4,0.1,0.7,0,0.9c-0.1,0.2-0.2,0.4-0.3,0.4c-0.1,0.1-0.2,0.1-0.3,0c-0.1,0-0.2-0.1-0.2-0.2
					c-0.1-0.1-0.1-0.2,0-0.3c0.4-0.3,0.6-0.6,0.5-1.2c0-0.1,0-0.2-0.1-0.3s0-0.2-0.1-0.3l-2.8-2.1c-0.1-0.1-0.2-0.1-0.3-0.2
					c-0.1,0-0.2,0-0.3,0s-0.2,0-0.3,0.1c0,0,0,0-0.1-0.1c0-0.1,0-0.1,0-0.1C304.2,276.3,304.5,276.2,304.6,276.1L304.6,276.1z"/>
			</g>
		</g>
		<g>
			<g>
				<text transform="matrix(0.986 0.1669 -0.1669 0.986 350.13 224.79)" class="st1 st3 st8">c</text>
				<text transform="matrix(0.9768 0.2141 -0.2141 0.9768 354.7799 225.5699)" class="st1 st3 st8">o</text>
				<text transform="matrix(0.9637 0.2669 -0.2669 0.9637 360.4401 226.8202)" class="st1 st3 st8">n</text>
				<text transform="matrix(0.95 0.3122 -0.3122 0.95 366.3701 228.4901)" class="st1 st3 st8">s</text>
				<text transform="matrix(0.9364 0.351 -0.351 0.9364 370.42 229.8299)" class="st1 st3 st8">c</text>
				<text transform="matrix(0.923 0.3848 -0.3848 0.923 374.82 231.4999)" class="st1 st3 st8">i</text>
				<text transform="matrix(0.9061 0.4231 -0.4231 0.9061 377.8699 232.76)" class="st1 st3 st8">o</text>
				<text transform="matrix(0.8821 0.471 -0.471 0.8821 383.1402 235.23)" class="st1 st3 st8">u</text>
				<text transform="matrix(0.8592 0.5116 -0.5116 0.8592 388.3199 238.0301)" class="st1 st3 st8">s</text>
				<text transform="matrix(0.9996 -2.966624e-02 2.966624e-02 0.9996 331.35 236.72)" class="st1 st3 st8">i</text>
				<text transform="matrix(0.9993 3.821341e-02 -3.821341e-02 0.9993 334.59 236.54)" class="st1 st3 st8">m</text>
				<text transform="matrix(0.9928 0.1196 -0.1196 0.9928 343.39 236.96)" class="st1 st3 st8">p</text>
				<text transform="matrix(0.9856 0.1688 -0.1688 0.9856 349.1701 237.7)" class="st1 st3 st8">l</text>
				<text transform="matrix(0.977 0.213 -0.213 0.977 352.2101 238.2099)" class="st1 st3 st8">e</text>
				<text transform="matrix(0.9578 0.2874 -0.2874 0.9578 357.0501 239.2099)" class="st1 st3 st8">m</text>
				<text transform="matrix(0.933 0.3598 -0.3598 0.933 365.4501 241.8201)" class="st1 st3 st8">e</text>
				<text transform="matrix(0.9089 0.4171 -0.4171 0.9089 370.0801 243.6001)" class="st1 st3 st8">n</text>
				<text transform="matrix(0.8842 0.4672 -0.4672 0.8842 375.6699 246.2201)" class="st1 st3 st8">t</text>
				<text transform="matrix(0.8601 0.5101 -0.5101 0.8601 378.9902 247.9699)" class="st1 st3 st8">e</text>
				<text transform="matrix(0.832 0.5548 -0.5548 0.832 383.2402 250.51)" class="st1 st3 st8">r</text>
				<text transform="matrix(0.7784 0.6278 -0.6278 0.7784 389.2799 254.6801)" class="st1 st3 st8">o</text>
				<text transform="matrix(0.7437 0.6685 -0.6685 0.7437 393.7702 258.3499)" class="st1 st3 st8">f</text>
				<text transform="matrix(0.9995 -3.228298e-02 3.228298e-02 0.9995 334.74 249.33)" class="st1 st3 st9">t</text>
				<text transform="matrix(0.9996 2.809610e-02 -2.809610e-02 0.9996 338.28 249.21)" class="st1 st3 st9">e</text>
				<text transform="matrix(0.9956 9.410831e-02 -9.410831e-02 0.9956 342.92 249.36)" class="st1 st3 st9">c</text>
				<text transform="matrix(0.986 0.1668 -0.1668 0.986 347.3 249.77)" class="st1 st3 st9">h</text>
				<text transform="matrix(0.9688 0.2478 -0.2478 0.9688 352.8499 250.72)" class="st1 st3 st9">n</text>
				<text transform="matrix(0.9453 0.3261 -0.3261 0.9453 358.44 252.17)" class="st1 st3 st9">o</text>
				<text transform="matrix(0.9238 0.3828 -0.3828 0.9238 363.5598 253.9901)" class="st1 st3 st9">l</text>
				<text transform="matrix(0.8986 0.4388 -0.4388 0.8986 366.2601 255.0799)" class="st1 st3 st9">o</text>
				<text transform="matrix(0.8622 0.5066 -0.5066 0.8622 371.1298 257.4799)" class="st1 st3 st9">g</text>
				<text transform="matrix(0.83 0.5577 -0.5577 0.83 375.5201 260.1101)" class="st1 st3 st9">i</text>
				<text transform="matrix(0.7981 0.6025 -0.6025 0.7981 378.0598 261.81)" class="st1 st3 st9">c</text>
				<text transform="matrix(0.7563 0.6542 -0.6542 0.7563 381.5803 264.4801)" class="st1 st3 st9">a</text>
				<text transform="matrix(0.7186 0.6954 -0.6954 0.7186 385.0497 267.5301)" class="st1 st3 st9">l</text>
				<text transform="matrix(0.9999 -1.116988e-02 1.116988e-02 0.9999 331.34 260.69)" class="st1 st3 st8">i</text>
				<text transform="matrix(0.9983 5.773827e-02 -5.773827e-02 0.9983 334.61 260.62)" class="st1 st3 st8">n</text>
				<text transform="matrix(0.9892 0.1463 -0.1463 0.9892 340.6901 260.99)" class="st1 st3 st8">n</text>
				<text transform="matrix(0.9729 0.2311 -0.2311 0.9729 346.73 261.91)" class="st1 st3 st8">o</text>
				<text transform="matrix(0.9506 0.3105 -0.3105 0.9506 352.32 263.2601)" class="st1 st3 st8">v</text>
				<text transform="matrix(0.9241 0.382 -0.382 0.9241 357.6298 265.02)" class="st1 st3 st8">a</text>
				<text transform="matrix(0.8984 0.4392 -0.4392 0.8984 362.1002 266.91)" class="st1 st3 st8">t</text>
				<text transform="matrix(0.8745 0.485 -0.485 0.8745 365.4601 268.5701)" class="st1 st3 st8">i</text>
				<text transform="matrix(0.8405 0.5419 -0.5419 0.8405 368.3203 270.12)" class="st1 st3 st8">o</text>
				<text transform="matrix(0.79 0.613 -0.613 0.79 373.15 273.2401)" class="st1 st3 st8">n</text>
				<text transform="matrix(0.7412 0.6713 -0.6713 0.7412 377.9499 277.04)" class="st1 st3 st8">s</text>
			</g>
			<g>
				<path class="st1" d="M351.5,272.9c0.6,0.2,1,0.5,1.2,1c0.2,0.5,0.3,0.9,0.1,1.4c-0.2,0.6-0.5,1-1,1.3c-0.5,0.3-1.1,0.4-1.6,0.2
					c-0.2-0.1-0.4-0.1-0.6-0.2s-0.3-0.1-0.3-0.2c0,0-0.1,0-0.2,0c-0.1,0-0.1,0-0.1,0c0,0-0.1,0-0.1-0.1c0,0-0.1-0.1-0.1-0.1
					c0,0,0,0,0.1-0.1c0-0.1,0.1-0.2,0.2-0.4s0.1-0.4,0.2-0.6l1-3.7c0.1-0.2,0.1-0.4,0.1-0.6c0-0.1-0.1-0.2-0.4-0.3l-0.1,0
					c0,0,0,0,0-0.1c0-0.1,0.1-0.1,0.1-0.1c0.2,0,0.4,0.1,0.5,0.1s0.3,0,0.4,0c0.1,0,0.2,0,0.2,0s0.1,0,0.1,0l0,0h0c0,0,0,0,0.1,0.1
					c0,0,0,0.1,0,0.1c-0.1,0.2-0.2,0.4-0.3,0.7l-0.4,1.5c0,0.1,0,0.1,0,0.1c0,0,0,0,0,0c0.1,0,0.2-0.1,0.4-0.1
					S351.3,272.8,351.5,272.9L351.5,272.9z M351.1,273.2c-0.2,0-0.3,0-0.5,0c-0.1,0.1-0.2,0.2-0.3,0.3l-0.6,2.1c0,0.2,0,0.3,0.1,0.5
					s0.3,0.2,0.6,0.3c0.3,0.1,0.6,0,0.9-0.2s0.5-0.6,0.6-1c0.1-0.5,0.1-0.9,0-1.2S351.4,273.3,351.1,273.2L351.1,273.2z"/>
				<path class="st1" d="M355.2,274.1c0.1,0,0.2,0.1,0.3,0.1c0.1,0,0.2,0.1,0.3,0.1c0.1,0,0.2,0.1,0.3,0.1c0,0,0,0.1,0,0.1
					c0,0.1-0.1,0.1-0.1,0.1c0,0-0.1,0-0.2,0c-0.1,0-0.2,0-0.2,0v0c0,0.1,0,1,0.1,2.6l1.4-1.6c0.1-0.1,0.1-0.2,0.2-0.2
					c0-0.1,0-0.2,0-0.3c-0.1-0.1-0.2-0.2-0.3-0.2c0,0,0,0,0-0.1c0-0.1,0.1-0.1,0.1-0.1c0.1,0,0.2,0.1,0.3,0.1
					c0.1,0.1,0.3,0.1,0.4,0.2c0.1,0,0.3,0.1,0.4,0.1c0.1,0,0.3,0.1,0.4,0.1c0,0,0,0.1,0,0.1c0,0.1-0.1,0.1-0.1,0.1
					c-0.1,0-0.2,0-0.3,0c-0.1,0-0.3,0-0.4,0.1l-3.1,3.6c-0.3,0.3-0.5,0.5-0.7,0.6s-0.4,0.1-0.5,0c-0.1,0-0.2-0.1-0.2-0.2
					c0-0.1,0-0.2,0-0.3c0-0.1,0.1-0.2,0.2-0.2c0.5,0.2,0.9,0,1.2-0.4c0.1-0.1,0.1-0.2,0.2-0.3s0.2-0.2,0.2-0.3l-0.1-3.5
					c0-0.2,0-0.3-0.1-0.4c0-0.1-0.1-0.1-0.2-0.2s-0.2-0.1-0.2-0.1c0,0,0,0,0-0.1c0-0.1,0.1-0.1,0.1-0.1
					C354.9,274,355.2,274.1,355.2,274.1L355.2,274.1z"/>
			</g>
		</g>
		<g>
			<g>
				<text transform="matrix(-0.3774 0.9261 -0.9261 -0.3774 423.2703 370.1999)" class="st1 st3 st8">c</text>
				<text transform="matrix(-0.422 0.9066 -0.9066 -0.422 421.4894 374.5699)" class="st1 st3 st8">o</text>
				<text transform="matrix(-0.4712 0.882 -0.882 -0.4712 419.0401 379.8299)" class="st1 st3 st8">n</text>
				<text transform="matrix(-0.5201 0.8541 -0.8541 -0.5201 416.1294 385.2501)" class="st1 st3 st8">n</text>
				<text transform="matrix(-0.5628 0.8266 -0.8266 -0.5628 412.9094 390.4902)" class="st1 st3 st8">e</text>
				<text transform="matrix(-0.5989 0.8008 -0.8008 -0.5989 410.0999 394.6001)" class="st1 st3 st8">c</text>
				<text transform="matrix(-0.6296 0.7769 -0.7769 -0.6296 407.2396 398.3899)" class="st1 st3 st8">t</text>
				<text transform="matrix(-0.6629 0.7487 -0.7487 -0.6629 404.8809 401.3098)" class="st1 st3 st8">o</text>
				<text transform="matrix(-0.6972 0.7169 -0.7169 -0.6972 401.021 405.6397)" class="st1 st3 st8">r</text>
				<text transform="matrix(-0.7479 0.6638 -0.6638 -0.7479 395.8001 410.8597)" class="st1 st3 st8">o</text>
				<text transform="matrix(-0.7757 0.6311 -0.6311 -0.7757 391.4397 414.6797)" class="st1 st3 st8">f</text>
				<text transform="matrix(-0.378 0.9258 -0.9258 -0.378 410.1596 364.4102)" class="st1 st3 st8">p</text>
				<text transform="matrix(-0.4335 0.9012 -0.9012 -0.4335 407.9395 369.7698)" class="st1 st3 st8">e</text>
				<text transform="matrix(-0.4873 0.8733 -0.8733 -0.4873 405.7896 374.2402)" class="st1 st3 st8">o</text>
				<text transform="matrix(-0.543 0.8397 -0.8397 -0.543 402.9601 379.2899)" class="st1 st3 st8">p</text>
				<text transform="matrix(-0.5842 0.8116 -0.8116 -0.5842 399.76 384.1502)" class="st1 st3 st8">l</text>
				<text transform="matrix(-0.6202 0.7845 -0.7845 -0.6202 397.9598 386.6699)" class="st1 st3 st8">e</text>
				<text transform="matrix(-0.6862 0.7274 -0.7274 -0.6862 392.98 392.73)" class="st1 st3 st8">a</text>
				<text transform="matrix(-0.7297 0.6838 -0.6838 -0.7297 389.6308 396.2901)" class="st1 st3 st8">n</text>
				<text transform="matrix(-0.7732 0.6342 -0.6342 -0.7732 385.1308 400.4798)" class="st1 st3 st8">d</text>
				<text transform="matrix(-0.3002 0.9539 -0.9539 -0.3002 396.8401 353.9899)" class="st1 st3 st8">g</text>
				<text transform="matrix(-0.3775 0.926 -0.926 -0.3775 395.2203 359.1201)" class="st1 st3 st8">o</text>
				<text transform="matrix(-0.4537 0.8912 -0.8912 -0.4537 393.0196 364.4598)" class="st1 st3 st8">v</text>
				<text transform="matrix(-0.5206 0.8538 -0.8538 -0.5206 390.4701 369.4098)" class="st1 st3 st8">e</text>
				<text transform="matrix(-0.5781 0.8159 -0.8159 -0.5781 387.8699 373.6299)" class="st1 st3 st8">r</text>
				<text transform="matrix(-0.6386 0.7695 -0.7695 -0.6386 385.3509 377.2202)" class="st1 st3 st8">n</text>
				<text transform="matrix(-0.698 0.7161 -0.7161 -0.698 381.4198 381.8901)" class="st1 st3 st8">a</text>
				<text transform="matrix(-0.7529 0.6582 -0.6582 -0.7529 378.0397 385.3705)" class="st1 st3 st8">n</text>
				<text transform="matrix(-0.8023 0.5969 -0.5969 -0.8023 373.4105 389.36)" class="st1 st3 st8">c</text>
				<text transform="matrix(-0.8424 0.5389 -0.5389 -0.8424 369.6494 392.1402)" class="st1 st3 st8">e</text>
			</g>
			<g>
				<path class="st1" d="M382.3,369.7c-0.3,0.5-0.8,0.8-1.3,0.8c-0.5,0.1-1,0-1.4-0.3c-0.5-0.3-0.8-0.8-0.9-1.4
					c-0.1-0.6,0-1.1,0.2-1.6c0.1-0.2,0.3-0.4,0.4-0.5s0.2-0.2,0.2-0.3c0,0,0-0.1,0.1-0.2c0-0.1,0-0.1,0-0.1c0,0,0,0,0.1-0.1
					s0.1,0,0.1,0c0,0,0,0,0.1,0.1c0.1,0.1,0.2,0.2,0.3,0.3s0.3,0.2,0.5,0.4l3.2,2.1c0.2,0.1,0.4,0.2,0.5,0.3c0.1,0,0.2-0.1,0.4-0.3
					l0-0.1c0,0,0.1,0,0.1,0c0.1,0,0.1,0.1,0.1,0.1c-0.1,0.2-0.2,0.3-0.2,0.5s-0.1,0.3-0.1,0.4s0,0.2,0,0.2c0,0.1,0,0.1,0,0.1v0v0
					c0,0,0,0-0.1,0c0,0-0.1,0-0.1,0c-0.1-0.2-0.3-0.3-0.6-0.5l-1.4-0.9c0,0-0.1,0-0.1,0c0,0,0,0,0,0c0,0.1,0,0.2,0,0.4
					C382.5,369.5,382.4,369.6,382.3,369.7L382.3,369.7z M382.1,369.2c0.1-0.1,0.1-0.3,0.1-0.5s-0.1-0.3-0.2-0.4l-1.8-1.2
					c-0.2-0.1-0.3-0.1-0.5,0c-0.2,0.1-0.3,0.2-0.5,0.5c-0.2,0.3-0.2,0.6,0,1s0.4,0.6,0.8,0.9c0.4,0.3,0.8,0.4,1.2,0.3
					C381.6,369.7,381.9,369.5,382.1,369.2L382.1,369.2z"/>
				<path class="st1" d="M380,372.9c-0.1,0.1-0.1,0.2-0.2,0.2c0,0.1-0.1,0.2-0.2,0.2c-0.1,0.1-0.1,0.2-0.2,0.2c0,0-0.1,0-0.1-0.1
					c-0.1,0-0.1-0.1-0.1-0.1c0,0,0.1-0.1,0.1-0.2c0-0.1,0-0.2,0-0.2h0c-0.1-0.1-0.9-0.3-2.5-0.7l1.2,1.8c0.1,0.1,0.1,0.2,0.2,0.2
					c0.1,0.1,0.2,0.1,0.3,0c0.1,0,0.2-0.1,0.3-0.2c0,0,0,0,0.1,0c0.1,0,0.1,0.1,0.1,0.1c0,0.1-0.1,0.1-0.2,0.3
					c-0.1,0.1-0.2,0.2-0.3,0.4c-0.1,0.1-0.2,0.2-0.3,0.4c-0.1,0.1-0.2,0.2-0.2,0.3c0,0-0.1,0-0.1-0.1c-0.1,0-0.1-0.1-0.1-0.1
					c0-0.1,0.1-0.2,0.1-0.3c0-0.1,0-0.3,0-0.4l-2.5-4c-0.2-0.4-0.3-0.6-0.3-0.9c0-0.2,0-0.4,0.1-0.5c0.1-0.1,0.2-0.1,0.3-0.1
					c0.1,0,0.2,0,0.2,0.1c0.1,0.1,0.2,0.2,0.1,0.3c-0.3,0.4-0.3,0.8,0,1.3c0,0.1,0.1,0.2,0.2,0.3c0.1,0.1,0.1,0.2,0.2,0.3l3.4,1
					c0.2,0,0.3,0,0.4,0s0.2,0,0.3-0.1c0.1-0.1,0.2-0.1,0.2-0.2c0,0,0,0,0.1,0c0.1,0,0.1,0.1,0.1,0.1
					C380.2,372.6,380,372.9,380,372.9L380,372.9z"/>
			</g>
		</g>
		<g>
			<g>
				<text transform="matrix(0.4199 0.9076 -0.9076 0.4199 431.0196 279.9701)" class="st1 st3 st10">i</text>
				<text transform="matrix(0.3775 0.926 -0.926 0.3775 432.5003 283.13)" class="st1 st3 st10">n</text>
				<text transform="matrix(0.3236 0.9462 -0.9462 0.3236 434.9501 289.18)" class="st1 st3 st10">v</text>
				<text transform="matrix(0.2704 0.9627 -0.9627 0.2704 436.8603 294.8)" class="st1 st3 st10">o</text>
				<text transform="matrix(0.228 0.9737 -0.9737 0.228 438.4896 300.76)" class="st1 st3 st10">l</text>
				<text transform="matrix(0.1858 0.9826 -0.9826 0.1858 439.2601 303.97)" class="st1 st3 st10">v</text>
				<text transform="matrix(0.135 0.9908 -0.9908 0.135 440.3497 309.83)" class="st1 st3 st10">e</text>
				<text transform="matrix(8.941577e-02 0.996 -0.996 8.941577e-02 441.0398 315.06)" class="st1 st3 st10">r</text>
				<text transform="matrix(1.186797e-02 0.9999 -0.9999 1.186797e-02 441.6293 322.84)" class="st1 st3 st10">o</text>
				<text transform="matrix(-3.315521e-02 0.9995 -0.9995 -3.315521e-02 441.6605 329.01)" class="st1 st3 st10">f</text>
				<text transform="matrix(0.5606 0.8281 -0.8281 0.5606 410.2199 277.0601)" class="st1 st3 st8">h</text>
				<text transform="matrix(0.5044 0.8635 -0.8635 0.5044 413.5702 282.0299)" class="st1 st3 st8">u</text>
				<text transform="matrix(0.4318 0.902 -0.902 0.4318 416.55 287.0401)" class="st1 st3 st8">m</text>
				<text transform="matrix(0.3608 0.9326 -0.9326 0.3608 420.2701 295.0401)" class="st1 st3 st8">a</text>
				<text transform="matrix(0.302 0.9533 -0.9533 0.302 422.0399 299.59)" class="st1 st3 st8">n</text>
				<text transform="matrix(0.2453 0.9694 -0.9694 0.2453 423.86 305.47)" class="st1 st3 st8">s</text>
				<text transform="matrix(0.1632 0.9866 -0.9866 0.1632 425.4802 312.37)" class="st1 st3 st8">a</text>
				<text transform="matrix(0.1018 0.9948 -0.9948 0.1018 426.2804 317.19)" class="st1 st3 st8">n</text>
				<text transform="matrix(3.577167e-02 0.9994 -0.9994 3.577167e-02 426.88 323.3)" class="st1 st3 st8">d</text>
				<text transform="matrix(-6.122278e-02 0.9981 -0.9981 -6.122278e-02 427.0408 331.85)" class="st1 st3 st8">n</text>
				<text transform="matrix(-0.1272 0.9919 -0.9919 -0.1272 426.6494 337.96)" class="st1 st3 st8">o</text>
				<text transform="matrix(-0.1934 0.9811 -0.9811 -0.1934 425.9004 343.6999)" class="st1 st3 st8">n</text>
				<text transform="matrix(0.5023 0.8647 -0.8647 0.5023 400.1597 291.9501)" class="st1 st3 st8">h</text>
				<text transform="matrix(0.4255 0.905 -0.905 0.4255 403.1495 297.1301)" class="st1 st3 st8">u</text>
				<text transform="matrix(0.3264 0.9452 -0.9452 0.3264 405.66 302.3301)" class="st1 st3 st8">m</text>
				<text transform="matrix(0.2297 0.9733 -0.9733 0.2297 408.4203 310.67)" class="st1 st3 st8">a</text>
				<text transform="matrix(0.1506 0.9886 -0.9886 0.1506 409.5405 315.38)" class="st1 st3 st8">n</text>
				<text transform="matrix(7.567481e-02 0.9971 -0.9971 7.567481e-02 410.4102 321.43)" class="st1 st3 st8">s</text>
				<text transform="matrix(-3.542275e-02 0.9994 -0.9994 -3.542275e-02 410.7896 328.47)" class="st1 st3 st8">b</text>
				<text transform="matrix(-0.1155 0.9933 -0.9933 -0.1155 410.5598 334.12)" class="st1 st3 st8">y</text>
			</g>
			<g>
				<path class="st1" d="M397.8,314.2c0.2,0.6,0.1,1.1-0.1,1.5s-0.6,0.7-1,0.9c-0.5,0.2-1.1,0.1-1.7-0.1c-0.6-0.3-0.9-0.6-1.1-1.1
					c-0.1-0.2-0.1-0.4-0.1-0.6c0-0.2,0-0.3-0.1-0.4c0,0-0.1-0.1-0.1-0.2c-0.1-0.1-0.1-0.1-0.1-0.1c0,0,0-0.1,0-0.1
					c0-0.1,0-0.1,0-0.1c0,0,0,0,0.1,0c0.1,0,0.2,0,0.4-0.1s0.4-0.1,0.6-0.2l3.6-1.2c0.2-0.1,0.4-0.1,0.5-0.2c0.1-0.1,0.1-0.2,0-0.5
					l0-0.1c0,0,0-0.1,0.1-0.1c0.1,0,0.1,0,0.2,0c0.1,0.2,0.1,0.3,0.2,0.5c0.1,0.1,0.1,0.2,0.2,0.3c0.1,0.1,0.1,0.1,0.2,0.2
					c0,0,0.1,0.1,0.1,0.1l0,0v0c0,0,0,0,0,0.1c0,0,0,0.1-0.1,0.1c-0.2,0-0.5,0-0.8,0.2l-1.5,0.5c-0.1,0-0.1,0-0.1,0.1c0,0,0,0,0,0
					c0.1,0.1,0.2,0.2,0.3,0.3C397.7,314,397.8,314.1,397.8,314.2L397.8,314.2z M397.3,314.1c-0.1-0.2-0.1-0.3-0.3-0.4
					c-0.1-0.1-0.3-0.1-0.5,0l-2,0.7c-0.2,0.1-0.3,0.2-0.3,0.4s0,0.4,0.1,0.6c0.1,0.3,0.4,0.5,0.7,0.6c0.4,0.1,0.8,0,1.2-0.1
					c0.5-0.2,0.8-0.4,1-0.7C397.4,314.9,397.4,314.5,397.3,314.1L397.3,314.1z"/>
				<path class="st1" d="M398.9,318c0,0.1,0,0.2,0.1,0.3s0.1,0.2,0.1,0.3c0,0.1,0.1,0.2,0.1,0.3c0,0-0.1,0-0.1,0c-0.1,0-0.1,0-0.1,0
					c0,0,0-0.1-0.1-0.2s-0.1-0.1-0.2-0.1h0c-0.1,0-0.8,0.5-2.1,1.5l2.1,0.2c0.1,0,0.2,0,0.3,0c0.1,0,0.1-0.1,0.2-0.2
					c0-0.1,0-0.2,0-0.4c0,0,0,0,0.1-0.1c0.1,0,0.1,0,0.1,0c0,0.1,0,0.2,0.1,0.4c0,0.2,0.1,0.3,0.1,0.5c0,0.1,0.1,0.3,0.1,0.4
					c0,0.1,0.1,0.3,0.1,0.3c0,0-0.1,0-0.1,0c-0.1,0-0.1,0-0.1,0c0-0.1-0.1-0.2-0.2-0.3s-0.2-0.2-0.3-0.2l-4.7-0.5
					c-0.4,0-0.7-0.1-0.9-0.3c-0.2-0.1-0.3-0.3-0.3-0.4c0-0.1,0-0.2,0-0.3s0.1-0.1,0.2-0.1c0.1,0,0.2,0,0.3,0c0.1,0.5,0.5,0.8,1,0.8
					c0.1,0,0.2,0,0.4,0c0.1,0,0.2,0,0.3,0l2.8-2.1c0.1-0.1,0.2-0.2,0.3-0.2c0-0.1,0.1-0.2,0.1-0.3c0-0.1,0-0.2,0-0.3
					c0,0,0,0,0.1-0.1c0.1,0,0.1,0,0.1,0C398.8,317.7,398.9,318,398.9,318L398.9,318z"/>
			</g>
		</g>
	</g>
</g>
<g id="uuid-80eb4a05-b50c-4409-acc6-e492a4989372">
	<polygon class="st11" points="112.5,274.5 525.5,228.5 397.5,389.5 401.5,474.5 	"/>
	<circle class="st12" cx="401" cy="389.8" r="21.8"/>
	<circle class="st12" cx="396.2" cy="465.6" r="21.8"/>
	<circle class="st12" cx="112.2" cy="275" r="21.8"/>
	<circle class="st12" cx="525.9" cy="230.1" r="21.8"/>
</g>
</svg>
