<?xml version="1.0" encoding="UTF-8"?>
<svg id="Layer_2" data-name="Layer 2" xmlns="http://www.w3.org/2000/svg" viewBox="0 0 341.82 382.89">
  <defs>
    <style>
      .cls-1 {
        fill: #71af56;
      }

      .cls-2 {
        fill: #2c5e3a;
        font-family: CrimsonText-Regular, 'Crimson Text';
        font-size: 21.7px;
      }

      .cls-3 {
        stroke-dasharray: 0 0 3.94 7.89;
      }

      .cls-3, .cls-4, .cls-5 {
        stroke: #71af56;
        stroke-width: 1.97px;
      }

      .cls-3, .cls-4, .cls-5, .cls-6 {
        fill: none;
        stroke-miterlimit: 10;
      }

      .cls-4 {
        stroke-dasharray: 0 0 3.9 7.8;
      }

      .cls-6 {
        stroke: #2c5e3a;
        stroke-width: .99px;
      }
    </style>
  </defs>
  <g>
    <path class="cls-5" d="M231.93,2.2c.56-1.16,.85-1.78,.85-1.78,0,0-.26,.63-.74,1.83"/>
    <path class="cls-4" d="M229.13,9.49c-13.51,33.81-59.89,151.72-58.42,173.06,2.48,36.15,4.95,38.99,165.39,116.08"/>
    <path class="cls-5" d="M339.62,300.33c.59,.28,1.18,.57,1.78,.85,0,0-.63-.28-1.8-.8"/>
    <path class="cls-3" d="M332.37,297.24c-28.92-12.46-118.52-49.77-138.63-42.61-36.88,13.14-38.04,54.06-92.1,127.14-3.58,4.85,75.99-127.04,57.56-143.16-16.02-14.02-139.66,76.58-149.17,80.09-9.51,3.5,125.38-85.25,126.15-108.12,1-30.03-125.14-137.65-126.14-140.65-1-3,94.19,87.76,124.64,80.59,26.92-6.34,82.92-118.78,95.54-144.76"/>
  </g>
  <path class="cls-6" d="M43.55,94.27c13.69-36.25,49.23-61.54,90.14-60.34,25.78,.76,48.81,11.89,65.21,29.29"/>
  <path class="cls-6" d="M42.75,288.67C8.5,263.98-8.02,219.42,4.85,176.73c8.11-26.9,26.36-47.97,49.31-60.28"/>
  <path class="cls-6" d="M203.61,79.33c39.97,14.09,68.49,52.33,68.17,97.1-.2,28.21-11.82,53.66-30.44,72.02"/>
  <path class="cls-6" d="M288.39,280.01c-7.49,40.57-39.93,73.78-83.01,80.26-27.15,4.08-53.38-3.23-73.85-18.34"/>
  <path class="cls-6" d="M130.01,326.19c-16.11,9.21-37.7,7.42-53.66-5.97-10.06-8.43-15.97-19.87-17.4-31.55"/>
  <text class="cls-2" transform="translate(194.04 173.67)"><tspan x="0" y="0">design</tspan></text>
  <g>
    <path class="cls-1" d="M140.54,166.91l-.6-1.07c-.03-.06,.08-.16,.34-.31,.07-.04,.12-.06,.14-.05,.36,.27,.9,.47,1.63,.62,.24,.05,.49,.08,.77,.09,.27,.02,.51,.03,.71,.03s.3,0,.31,0c.21,.37,.28,.57,.22,.61l-1.83,1.02c.18,.32,.45,.81,.81,1.47,.36,.66,.55,1,.57,1.04,.06,.1,.03,.18-.08,.24-.22,.12-.49,.19-.81,.21l-1.37-2.46-4.53,2.53c-.49,.28-.82,.62-.97,1.04-.15,.42-.12,.83,.11,1.24,.21,.37,.54,.69,.99,.95,.05,.02,.02,.11-.07,.25-.09,.15-.14,.22-.16,.21-.3-.08-.65-.25-1.06-.53-.41-.27-.72-.62-.95-1.02-.34-.62-.43-1.25-.25-1.89,.18-.64,.64-1.17,1.39-1.59l4.7-2.63Z"/>
    <path class="cls-1" d="M147.37,176.34c.46,.83,.5,1.58,.1,2.27s-1.21,1.38-2.44,2.07l-2,1.12c-.7,.39-1.22,.75-1.55,1.06-.07,.07-.07,.28,.02,.62,.08,.34,.16,.57,.23,.7,.02,.04-.04,.1-.18,.2s-.25,.15-.32,.16c-.63-1.27-.97-1.95-1.01-2.03-.02-.04-.41-.67-1.18-1.89,.02-.08,.11-.16,.26-.24s.25-.1,.27-.06c.08,.15,.24,.33,.47,.55,.23,.22,.39,.32,.49,.3,.41-.11,.86-.31,1.37-.59l1.96-1.1c1.14-.63,1.81-1.22,2.02-1.75,.21-.53,.14-1.12-.23-1.78-.21-.37-.56-.66-1.05-.86-.49-.2-.85-.24-1.07-.12l-3.27,1.83c-.71,.4-1.24,.76-1.56,1.07-.07,.07-.07,.28,.02,.62,.08,.34,.16,.57,.23,.7,.02,.04-.04,.1-.18,.2s-.25,.15-.32,.16c-.63-1.27-.97-1.95-1.01-2.03-.04-.07-.45-.73-1.22-1.96,.02-.08,.11-.16,.26-.24s.25-.1,.27-.06c.08,.15,.25,.34,.49,.59,.24,.25,.41,.36,.51,.33,.41-.11,.86-.31,1.35-.58l8.03-4.49c.42-.23,.79-.49,1.12-.77,.16-.17,.09-.54-.23-1.11l-.09-.17c-.04-.07,0-.15,.14-.22,.2-.11,.32-.13,.36-.05,.24,.35,.48,.67,.72,.94,.24,.28,.44,.49,.6,.64,.16,.15,.31,.26,.43,.36,.13,.09,.22,.15,.28,.18l.11,.06,.02,.04s.02,.12-.02,.2c-.04,.09-.09,.15-.14,.2-.47,.08-1.05,.32-1.72,.7l-4.05,2.26s-.07,.05-.05,.08c0,.01,.03,.02,.07,.03,.45,.11,.95,.33,1.5,.68,.55,.35,.95,.75,1.21,1.21Z"/>
    <path class="cls-1" d="M145.89,186.86c-.71,.4-1.24,.76-1.56,1.07-.07,.07-.07,.28,.02,.62,.08,.34,.16,.57,.23,.7,.02,.04-.04,.1-.18,.2s-.25,.15-.32,.16c-.63-1.27-.97-1.95-1.01-2.03s-.45-.74-1.22-1.96c.02-.08,.11-.16,.26-.24s.25-.1,.27-.06c.08,.15,.25,.34,.49,.59,.24,.25,.41,.36,.51,.33,.41-.11,.86-.31,1.37-.59l3.5-1.95c.48-.27,.77-.54,.85-.82,.08-.21,.1-.41,.05-.62-.04-.21-.1-.37-.16-.49s-.09-.18-.06-.2c.3-.17,.47-.21,.52-.15,.93,1.2,1.56,1.96,1.91,2.28l.04,.03,.03,.06s0,.11-.11,.18c-.1,.07-.18,.11-.23,.13-.53,.21-.99,.43-1.38,.65l-3.81,2.13Zm6.97-5.88c.08-.28,.25-.49,.51-.63s.53-.18,.81-.1c.28,.08,.49,.25,.63,.51s.18,.53,.1,.81c-.08,.28-.25,.49-.51,.63s-.53,.18-.81,.1c-.28-.08-.49-.25-.63-.51s-.18-.53-.1-.81Z"/>
    <path class="cls-1" d="M154.36,188.9c.15,.27,.31,.63,.47,1.08,.16,.45,.28,.76,.34,.94-.5,.44-1.09,.86-1.76,1.28-.06,.03-.14-.03-.23-.19-.1-.17-.1-.29-.03-.35,.31-.25,.54-.61,.69-1.07,.15-.46,.12-.88-.09-1.25-.5-.89-1.11-1.13-1.84-.72-.18,.1-.33,.22-.45,.35-.12,.13-.2,.3-.25,.52-.05,.21-.08,.37-.1,.48-.01,.1-.02,.32-.02,.66,0,.33,0,.54,0,.62,0,.06,0,.26,0,.57,0,.32-.01,.55-.02,.68s-.03,.34-.07,.61c-.04,.27-.1,.49-.16,.64-.07,.15-.17,.32-.3,.5-.14,.18-.29,.32-.48,.42-.73,.41-1.49,.46-2.3,.17-.8-.29-1.42-.82-1.85-1.59-.14-.26-.26-.5-.35-.74-.09-.23-.18-.52-.27-.86s-.17-.59-.23-.77c.16-.18,.43-.43,.81-.73,.38-.3,.69-.52,.94-.66,.13,.06,.21,.11,.24,.16,.1,.18,.12,.3,.05,.36-.33,.28-.56,.71-.69,1.3-.13,.58-.07,1.1,.18,1.56,.22,.4,.51,.66,.87,.79,.36,.13,.74,.09,1.15-.14,.21-.12,.38-.27,.52-.45,.13-.18,.22-.4,.26-.66,.04-.26,.07-.49,.07-.7,0-.21,0-.49,0-.86s0-.64,0-.83c.02-1.27,.41-2.12,1.17-2.55,.67-.37,1.36-.41,2.08-.11,.72,.3,1.28,.81,1.68,1.53Z"/>
    <path class="cls-1" d="M163.66,208.46c.43-.24,.42-.77-.03-1.58l-.04-.07s.04-.12,.19-.2,.27-.12,.35-.1c.09,.19,.19,.41,.31,.64,.12,.23,.22,.45,.31,.65,.09,.2,.2,.41,.33,.63,.12,.21,.23,.39,.32,.53,.1,.15,.21,.32,.33,.51s.24,.37,.36,.55c-.06,.07-.15,.13-.26,.19-.17,.1-.28,.11-.31,.05-.09-.16-.26-.35-.52-.56-.26-.21-.53-.3-.81-.25l-7.98,1.28c-.33,.05-.56-.04-.7-.29-.07-.12-.08-.21-.05-.26l4.17-5.31-6.15,.98s-.1,0-.18,0c-.07,0-.17-.03-.27-.08-.11-.04-.18-.11-.23-.2-.07-.12-.08-.21-.05-.26,.5-.67,1.11-1.45,1.83-2.35,.72-.89,1.36-1.72,1.92-2.47,.56-.75,1.11-1.57,1.65-2.45,.18-.31,.13-.72-.15-1.23-.03-.05,.04-.12,.2-.21,.15-.08,.26-.11,.34-.09,.09,.19,.19,.4,.3,.63s.21,.44,.3,.63,.2,.4,.32,.62l1.13,1.8c-.03,.05-.13,.12-.29,.2-.16,.08-.25,.1-.27,.06-.34-.62-.66-.85-.94-.69-.04,.02-.18,.2-.43,.54-.25,.34-.67,.93-1.28,1.77-.61,.84-1.24,1.71-1.91,2.6,.72-.13,1.52-.27,2.39-.41,.87-.15,1.49-.26,1.86-.32,.37-.07,.58-.12,.62-.14,.06-.03,.14-.12,.25-.25,.1-.13,.19-.26,.25-.37l.11-.19c.07-.14,.1-.31,.08-.51,0-.16-.09-.37-.24-.64-.03-.05,.04-.12,.19-.2s.27-.12,.35-.1c.09,.19,.19,.4,.3,.62,.11,.22,.21,.43,.29,.61,.09,.19,.19,.39,.32,.61,.12,.21,.23,.4,.34,.57,.11,.17,.24,.37,.38,.6s.27,.42,.38,.59c-.06,.07-.16,.14-.29,.21s-.22,.1-.25,.07c-.33-.59-.74-.75-1.22-.48-.26,.14-1.4,1.67-3.41,4.58,.67-.13,1.49-.28,2.45-.44s1.67-.29,2.13-.38c.46-.09,.76-.17,.9-.25Z"/>
    <path class="cls-1" d="M168.68,214.52c.62,1.11,.75,2.28,.39,3.52s-1.1,2.17-2.22,2.8-2.32,.79-3.56,.47c-1.24-.32-2.17-1.04-2.8-2.16-.63-1.12-.76-2.3-.39-3.54,.37-1.24,1.12-2.18,2.25-2.81,1.15-.64,2.33-.8,3.55-.48,1.22,.32,2.15,1.06,2.79,2.21Zm-.84,.2c-.37-.65-.96-1.02-1.79-1.1-.83-.08-1.68,.12-2.54,.6-1.01,.56-1.73,1.31-2.16,2.24-.43,.93-.45,1.74-.05,2.45,.37,.65,.97,1.02,1.82,1.09s1.71-.13,2.57-.61c1-.56,1.7-1.3,2.12-2.23,.41-.93,.42-1.74,.03-2.44Z"/>
    <path class="cls-1" d="M174.35,224.67c.41,.73,.5,1.31,.27,1.74-.43,.24-.78,.35-1.06,.32s-.47-.14-.58-.33c-.12-.22-.13-.48-.03-.79s.07-.61-.11-.93c-.21-.38-.58-.62-1.09-.7s-.97-.02-1.37,.21l-2.77,1.55c-.71,.4-1.24,.76-1.56,1.07-.07,.07-.06,.28,.03,.63,.09,.35,.17,.58,.24,.71,.02,.04-.04,.1-.18,.2s-.25,.15-.32,.16c-.63-1.27-.97-1.95-1.02-2.05-.04-.07-.45-.73-1.22-1.96,.02-.08,.11-.16,.26-.24s.25-.1,.27-.06c.08,.15,.25,.34,.49,.59,.24,.25,.41,.35,.51,.33,.41-.11,.86-.31,1.37-.59l3.5-1.95c.48-.27,.77-.54,.85-.82,.08-.21,.1-.41,.05-.62-.04-.21-.1-.37-.16-.49s-.09-.18-.06-.2c.3-.17,.47-.21,.52-.15,.93,1.2,1.56,1.96,1.91,2.28,0,.01,.03,.04,.07,.08,.03,.05,0,.11-.11,.18-.1,.07-.18,.11-.23,.13l-.99,.41c.46,.04,.94,.17,1.45,.39,.51,.22,.87,.53,1.08,.91Z"/>
    <path class="cls-1" d="M177.98,234.15c-.24-.14-.76-.38-1.55-.71-.79-.33-1.53-.59-2.22-.78-.18,.57-.42,1.28-.72,2.12-.3,.85-.53,1.54-.71,2.07-.18,.54-.29,.9-.33,1.08-.06,.31-.04,.64,.05,1.02,.09,.37,.17,.63,.24,.76,.03,.05-.06,.13-.25,.24-.11,.06-.18,.09-.21,.1-.63-1.27-.97-1.96-1.03-2.07-.01-.03-.4-.65-1.17-1.87,.02-.08,.1-.15,.25-.23s.23-.09,.25-.04c.07,.12,.17,.25,.31,.38s.24,.18,.3,.15c.03-.01,.04-.03,.05-.05l1.41-4.33-.18-.19-1.11,.62c-.8,.48-1.32,.84-1.56,1.07-.07,.07-.07,.28,.02,.62,.08,.34,.16,.57,.23,.7,.02,.04-.04,.1-.18,.2s-.25,.15-.32,.16c-.63-1.27-.97-1.95-1.01-2.03-.04-.07-.45-.73-1.22-1.96,.02-.08,.11-.16,.26-.24s.25-.1,.27-.06c.08,.15,.25,.34,.49,.59,.24,.25,.41,.36,.51,.33,.41-.11,.86-.31,1.37-.59l8.01-4.48c.42-.23,.79-.49,1.12-.77,.16-.17,.09-.54-.23-1.11l-.09-.17c-.04-.07,0-.15,.14-.22,.2-.11,.32-.13,.36-.05,.24,.35,.48,.67,.72,.94,.24,.28,.44,.49,.6,.64,.16,.15,.31,.26,.43,.36,.13,.09,.22,.15,.28,.18l.11,.06,.02,.04s.02,.12-.02,.2c-.04,.09-.09,.15-.14,.2-.47,.08-1.05,.32-1.72,.7l-6.47,3.62c.21,.22,.35,.35,.42,.37,.39,.14,.78,.29,1.2,.45s.72,.28,.93,.36,.41,.15,.61,.22,.35,.1,.45,.11,.19,0,.26-.05c.15-.08,.16-.27,.03-.55s-.18-.44-.16-.47c.2-.22,.34-.3,.44-.22l.82,1.46c.1,.18,.22,.37,.34,.57,.12,.2,.27,.43,.44,.7,.17,.27,.32,.51,.45,.71,0,.06-.04,.12-.12,.18-.08,.05-.17,.09-.26,.11s-.14,.01-.15-.01c-.09-.16-.25-.37-.49-.62s-.42-.41-.53-.48Z"/>
  </g>
  <text class="cls-2" transform="translate(161.02 316.88)"><tspan x="0" y="0">philosophy</tspan></text>
  <text class="cls-2" transform="translate(75.7 297.37)"><tspan x="0" y="0">politics</tspan></text>
  <text class="cls-2" transform="translate(36.52 195.59)"><tspan x="0" y="0">social </tspan><tspan x="0" y="26.04">sciences</tspan></text>
  <text class="cls-2" transform="translate(72.12 89.46)"><tspan x="0" y="0">economics</tspan></text>
</svg>