<?xml version="1.0" encoding="utf-8"?>
<!-- Generator: Adobe Illustrator 26.0.2, SVG Export Plug-In . SVG Version: 6.00 Build 0)  -->
<svg version="1.1" id="Layer_1" xmlns="http://www.w3.org/2000/svg" xmlns:xlink="http://www.w3.org/1999/xlink" x="0px" y="0px"
	 viewBox="0 0 528.5 428.5" style="enable-background:new 0 0 528.5 428.5;" xml:space="preserve">
<style type="text/css">
	.st0{fill:#8A95B3;}
	.st1{font-family:'ArialMT';}
	.st2{font-size:23.79px;}
	.st3{fill:none;stroke:#464764;stroke-width:2;stroke-miterlimit:10;}
	.st4{fill:#464764;}
	.st5{fill:none;stroke:#464764;stroke-width:0.66;stroke-miterlimit:10;}
	.st6{fill:none;stroke:#464764;stroke-width:0.66;stroke-miterlimit:10;stroke-dasharray:0,0,1.8,3.6;}
	.st7{fill:none;stroke:#464764;stroke-width:0.63;stroke-miterlimit:10;}
	.st8{fill:none;stroke:#464764;stroke-width:0.63;stroke-miterlimit:10;stroke-dasharray:0,0,1.66,3.32;}
</style>
<g>
	<path class="st0" d="M68.3,64.6v6h-0.1c0,0-0.1-0.2-0.4-0.5c-0.2-0.3-0.5-0.7-0.9-1.2s-0.7-0.9-1.1-1.4c-0.4-0.5-0.9-0.9-1.4-1.2
		s-1-0.5-1.4-0.5h-0.2v11.9c0,0.3,0,0.7,0.1,1.1c0.1,0.4,0.1,0.8,0.2,1.1c0.1,0.3,0.1,0.6,0.2,0.9c0.1,0.3,0.1,0.5,0.2,0.7
		c0,0,0,0.1,0,0.2l0,0h-6.2l0,0c0,0,0-0.1,0.1-0.3c0.1-0.2,0-0.4,0.1-0.7c0.1-0.3,0.2-0.6,0.2-0.9c0.1-0.3,0.1-0.7,0.2-1.1
		c0.1-0.4,0.1-0.8,0.1-1.1V65.8h-0.2c-0.4,0-0.9,0.2-1.4,0.5c-0.5,0.3-1,0.7-1.4,1.2s-0.8,0.9-1.2,1.4c-0.4,0.5-0.6,0.9-0.9,1.2
		c-0.3,0.3-0.3,0.5-0.3,0.5h-0.1v-6C52.5,64.6,68.3,64.6,68.3,64.6z"/>
	<path class="st0" d="M71.2,81.7c0,0,0-0.1,0.1-0.3c0.1-0.2,0.1-0.4,0.2-0.6c0.1-0.2,0.1-0.6,0.2-0.9c0.1-0.3,0.1-0.7,0.2-1.1
		C72,78.4,72,78,72,77.7v-9c0-0.3,0-0.7-0.1-1.1c0-0.4-0.1-0.8-0.2-1.1c-0.1-0.3-0.1-0.6-0.2-0.9c-0.1-0.3-0.1-0.5-0.2-0.6
		c0-0.2-0.1-0.3-0.1-0.3v-0.1h6.2v0.1c0,0,0,0.1-0.1,0.3c-0.1,0.2-0.1,0.4-0.2,0.6c-0.1,0.2-0.1,0.6-0.2,0.9
		c-0.1,0.3-0.1,0.7-0.2,1.1c-0.1,0.4-0.1,0.8-0.1,1.1v3.9h5.3v-3.9c0-0.3,0-0.7-0.1-1.1c0-0.4-0.1-0.8-0.2-1.1
		c-0.1-0.3-0.1-0.6-0.2-0.9c-0.1-0.3-0.1-0.5-0.2-0.6c0-0.2-0.1-0.3-0.1-0.3v-0.1h6.2v0.1c0,0,0,0.1-0.1,0.3c0,0.2-0.1,0.4-0.2,0.6
		c-0.1,0.3-0.2,0.6-0.2,0.9c-0.1,0.3-0.1,0.7-0.2,1.1c0,0.4-0.1,0.8-0.1,1.1v9c0,0.3,0,0.7,0.1,1.1c0,0.4,0.1,0.8,0.2,1.1
		c0.1,0.3,0.1,0.6,0.2,0.9c0.1,0.3,0.1,0.5,0.2,0.7c0,0.2,0.1,0.3,0.1,0.3v-0.1h-6.2l0,0c0,0,0-0.1,0.1-0.3c0.1-0.2,0.1-0.4,0.2-0.7
		c0.1-0.3,0.1-0.6,0.2-0.9s0.1-0.7,0.2-1.1c0-0.4,0.1-0.8,0.1-1.1v-3.9h-5.3v4c0,0.3,0,0.7,0.1,1.1c0.1,0.4,0.1,0.8,0.2,1.1
		c0.1,0.3,0.2,0.6,0.2,0.9s0.1,0.5,0.2,0.7c0,0.2,0.1,0.3,0.1,0.3v-0.1H71.2L71.2,81.7L71.2,81.7z"/>
	<path class="st0" d="M91.1,64.7L91.1,64.7l13.1-0.1v5.2h-0.1c0,0-0.1-0.1-0.3-0.4c-0.2-0.3-0.5-0.6-0.9-1c-0.4-0.4-0.7-0.8-1.2-1.2
		c-0.4-0.4-0.9-0.7-1.4-1c-0.5-0.3-1-0.4-1.4-0.4h-2.4v6.8h0.2c0.4,0,0.9,0,1.4-0.1s1-0.2,1.4-0.4c0.4-0.1,0.8-0.3,1.2-0.4
		c0.4-0.1,0.6-0.3,0.9-0.4c0.2-0.1,0.3-0.2,0.3-0.2h0.1V75h-0.1c0,0-0.1-0.1-0.3-0.2c-0.2-0.1-0.5-0.2-0.9-0.4s-0.7-0.3-1.2-0.4
		s-0.9-0.3-1.4-0.4c-0.5-0.1-1-0.2-1.4-0.2h-0.2v7.1h2.4c0.4,0,0.9-0.1,1.4-0.4s1-0.6,1.4-1s0.8-0.8,1.2-1.2c0.4-0.4,0.6-0.8,0.9-1
		c0.2-0.3,0.3-0.4,0.3-0.4h0.1v5.2H91.1v-0.1c0,0,0-0.1,0.1-0.3c0-0.2,0.1-0.4,0.2-0.7c0.1-0.3,0.2-0.6,0.2-0.9
		c0.1-0.3,0.1-0.7,0.2-1.1c0.1-0.4,0.1-0.8,0.1-1.1v-9c0-0.3,0-0.7-0.1-1.1c0-0.4-0.1-0.8-0.2-1.1s-0.2-0.6-0.2-0.9
		C91.4,65.1,91.3,64.9,91.1,64.7C91.1,64.8,91.1,64.7,91.1,64.7L91.1,64.7z"/>
	<path class="st0" d="M121.9,81.4c0.1-0.2,0.1-0.4,0.2-0.6c0.1-0.3,0.2-0.6,0.2-0.9c0.1-0.3,0.1-0.7,0.2-1.1c0-0.4,0-0.8,0-1.1v-9
		c0-0.3,0-0.7-0.1-1.1c-0.1-0.4-0.1-0.8-0.2-1.1c-0.1-0.3-0.2-0.6-0.2-0.9c0-0.3-0.1-0.5-0.2-0.6c-0.1-0.2-0.1-0.3-0.1-0.3v-0.1h7.5
		c2.4,0,4.4,0.8,6,2.4c1.6,1.6,2.4,3.6,2.4,6.2s-0.8,4.7-2.4,6.3s-3.6,2.3-6,2.3h-7.5v-0.1C121.8,81.7,121.8,81.6,121.9,81.4z
		 M127.8,80.7c0.8,0,1.6-0.2,2.2-0.6c0.6-0.4,1.1-1,1.4-1.8c0.3-0.8,0.6-1.5,0.7-2.4c0.2-0.9,0.2-1.8,0.2-2.7s-0.1-1.8-0.2-2.6
		c-0.1-0.8-0.4-1.6-0.7-2.4c-0.3-0.8-0.8-1.4-1.4-1.8c-0.6-0.4-1.3-0.7-2.2-0.7h-0.6v15H127.8L127.8,80.7z"/>
	<path class="st0" d="M140.9,64.7L140.9,64.7l13.1-0.1v5.2h-0.1c0,0-0.1-0.1-0.3-0.4c-0.2-0.3-0.5-0.6-0.9-1s-0.7-0.8-1.2-1.2
		c-0.4-0.4-0.9-0.7-1.4-1c-0.5-0.3-1-0.4-1.4-0.4h-2.3v6.8h0.2c0.4,0,0.9,0,1.4-0.1s1-0.2,1.4-0.4c0.4-0.1,0.8-0.3,1.2-0.4
		c0.4-0.1,0.6-0.3,0.9-0.4c0.2-0.1,0.3-0.2,0.3-0.2h0.1V75h-0.1c0,0-0.1-0.1-0.3-0.2c-0.2-0.1-0.5-0.2-0.9-0.4s-0.7-0.3-1.2-0.4
		s-0.9-0.3-1.4-0.4c-0.5-0.1-1-0.2-1.4-0.2h-0.2v7.1h2.4c0.4,0,0.9-0.1,1.4-0.4s1-0.6,1.4-1c0.4-0.4,0.8-0.8,1.2-1.2
		c0.4-0.4,0.6-0.8,0.9-1c0.2-0.3,0.3-0.4,0.3-0.4h0.1v5.2h-13.2v-0.1c0,0,0-0.1,0.1-0.3c0.1-0.2,0.1-0.4,0.2-0.7
		c0.1-0.3,0.2-0.6,0.2-0.9c0.1-0.3,0.1-0.7,0.2-1.1c0.1-0.4,0.1-0.8,0.1-1.1v-9c0-0.3,0-0.7-0.1-1.1s-0.1-0.8-0.2-1.1
		s-0.2-0.6-0.2-0.9c0-0.3-0.1-0.5-0.2-0.6C140.9,64.8,140.9,64.7,140.9,64.7L140.9,64.7z"/>
	<path class="st0" d="M157.5,69.9c0-1.5,0.6-2.8,1.8-3.9c1.2-1.1,2.9-1.6,5.1-1.6c1.7,0,3.7,0.4,6.1,1.2v4.6h-0.1
		c-0.1-0.1-0.7-0.6-1.7-1.6c-1.1-1-2-1.7-2.7-2.2c-0.8-0.5-1.5-0.7-2.2-0.7c-0.6,0-1.1,0.2-1.5,0.5c-0.4,0.4-0.5,0.8-0.5,1.3
		c0,0.3,0.1,0.6,0.2,0.9c0.2,0.3,0.4,0.5,0.8,0.8c0.4,0.3,0.7,0.4,1.1,0.6c0.3,0.1,0.8,0.4,1.4,0.6c0.6,0.3,1.1,0.5,1.4,0.6
		c3.2,1.4,4.8,3.4,4.8,5.8c0,1.7-0.7,3.1-2.1,4c-1.4,0.9-3,1.4-4.9,1.4c-2.1,0-4.3-0.4-6.6-1.3v-4.6h0.2c0.2,0.2,0.6,0.5,1.2,1.1
		c0.6,0.6,1.1,1,1.4,1.3c0.4,0.3,0.8,0.7,1.4,1.1c0.6,0.4,1.1,0.7,1.6,0.9c0.5,0.2,1,0.3,1.4,0.3c0.6,0,1-0.2,1.4-0.5
		c0.4-0.3,0.6-0.8,0.6-1.5c0-0.4-0.1-0.7-0.3-1c-0.2-0.3-0.4-0.6-0.6-0.8c-0.2-0.2-0.6-0.5-1.1-0.7c-0.5-0.2-0.9-0.5-1.2-0.6
		c-0.3-0.1-0.8-0.3-1.5-0.6c-0.7-0.3-1.3-0.6-1.8-0.8c-0.5-0.3-1-0.6-1.6-1c-0.6-0.4-0.9-0.9-1.2-1.4
		C157.6,71.2,157.5,70.6,157.5,69.9L157.5,69.9z"/>
	<path class="st0" d="M174.6,64.7L174.6,64.7l6.2-0.1v0.1c0,0,0,0.1-0.1,0.3c-0.1,0.2-0.1,0.4-0.2,0.6c-0.1,0.3-0.2,0.6-0.2,0.9
		c-0.1,0.3-0.1,0.7-0.2,1.1c-0.1,0.4-0.1,0.8-0.1,1.1v9c0,0.3,0,0.7,0.1,1.1c0.1,0.4,0.1,0.8,0.2,1.1c0.1,0.3,0.2,0.6,0.2,0.9
		c0.1,0.3,0.1,0.5,0.2,0.7c0.1,0.2,0.1,0.3,0.1,0.3v-0.1h-6.3l0,0c0,0,0-0.1,0.1-0.3c0.1-0.2,0.1-0.4,0.2-0.7
		c0.1-0.3,0.2-0.6,0.2-0.9s0.1-0.7,0.2-1.1c0.1-0.4,0.1-0.8,0.1-1.1v-9c0-0.3,0-0.7-0.1-1.1c-0.1-0.4-0.1-0.8-0.2-1.1
		c-0.1-0.3-0.2-0.6-0.2-0.9c-0.1-0.3-0.1-0.5-0.2-0.6C174.6,64.8,174.5,64.7,174.6,64.7L174.6,64.7z"/>
	<path class="st0" d="M186.6,66.9c1.7-1.7,3.8-2.6,6.4-2.6c1.9,0,4,0.5,6.4,1.3v5.1h-0.2c0,0-0.1-0.2-0.4-0.6
		c-0.3-0.4-0.5-0.8-0.8-1.1c-0.2-0.3-0.5-0.7-0.9-1.2s-0.8-0.9-1.2-1.2c-0.4-0.3-0.8-0.6-1.3-0.8c-0.5-0.2-0.9-0.4-1.4-0.4h-0.1
		c-1.1,0-2,0.7-2.7,2.1c-0.7,1.4-1,3.2-1,5.5c0,2.3,0.4,4.1,1,5.5c0.7,1.4,1.7,2.1,3,2.1c0.6,0,1.2-0.1,1.8-0.4v-3.5
		c0-0.3-0.1-0.7-0.2-1.1s-0.3-0.8-0.4-1.1c-0.2-0.3-0.4-0.6-0.5-0.9c-0.2-0.3-0.3-0.5-0.5-0.6s-0.2-0.3-0.2-0.3v-0.1h7v0.1
		c0,0,0,0.1,0,0.3s-0.1,0.4-0.1,0.6c-0.1,0.3-0.1,0.6-0.1,0.9c0,0.3-0.1,0.7-0.1,1.1s0,0.8,0,1.1v3.2c-0.9,0.4-2,0.9-3.4,1.3
		c-1.4,0.4-2.8,0.6-4.1,0.6c-2.5,0-4.5-0.8-6.1-2.5c-1.6-1.7-2.4-3.8-2.4-6.4C184.1,70.7,184.9,68.7,186.6,66.9L186.6,66.9z"/>
	<path class="st0" d="M203.4,81.8L203.4,81.8c0-0.1,0.1-0.3,0.2-0.5c0.1-0.2,0.2-0.6,0.4-1c0.1-0.4,0.3-0.9,0.4-1.3
		c0.1-0.4,0.3-1,0.4-1.6c0.1-0.6,0.1-1.1,0.1-1.6v-7c0-0.3,0-0.7-0.1-1.1c-0.1-0.4-0.2-0.8-0.3-1.1c-0.1-0.3-0.2-0.6-0.3-0.9
		c-0.1-0.3-0.2-0.5-0.3-0.6c-0.1-0.2-0.1-0.3-0.1-0.3v-0.1h5.7l7.6,11.3v-5.3c0-0.5-0.1-1.1-0.1-1.6c-0.1-0.6-0.2-1.1-0.4-1.6
		c-0.1-0.5-0.3-0.9-0.4-1.3s-0.3-0.7-0.4-1c-0.1-0.2-0.2-0.4-0.2-0.4v-0.1h4.2v0.1c0,0-0.1,0.1-0.2,0.4c-0.1,0.3-0.2,0.6-0.4,1
		s-0.3,0.8-0.4,1.3c-0.1,0.5-0.3,1-0.4,1.6c-0.1,0.6-0.1,1.1-0.1,1.6v11h-3L206,68.1v7.5c0,0.5,0.1,1.1,0.1,1.6
		c0.1,0.6,0.2,1.1,0.4,1.6c0.1,0.5,0.3,0.9,0.4,1.3c0.1,0.4,0.3,0.7,0.4,1c0.1,0.2,0.2,0.4,0.2,0.4v0.2L203.4,81.8L203.4,81.8z"/>
	<path class="st0" d="M237.2,81.7c0,0,0-0.1,0.1-0.3c0.1-0.2,0.1-0.4,0.2-0.6s0.1-0.6,0.2-0.9c0.1-0.3,0.1-0.7,0.2-1.1
		c0.1-0.4,0.1-0.8,0.1-1.1v-9c0-0.3,0-0.7-0.1-1.1s-0.1-0.8-0.2-1.1c-0.1-0.3-0.1-0.6-0.2-0.9c-0.1-0.3-0.1-0.5-0.2-0.6
		c-0.1-0.2-0.1-0.3-0.1-0.3v-0.1h8.6c1.7,0,3,0.5,4.1,1.5s1.6,2.2,1.6,3.6c0,1.2-0.4,2.1-1,3c-0.7,0.8-1.5,1.4-2.5,1.7
		c-1,0.3-2,0.5-3.1,0.5h-2.1v2.8c0,0.3,0,0.7,0.1,1.1s0.1,0.8,0.2,1.1c0.1,0.3,0.1,0.6,0.2,0.9s0.1,0.5,0.2,0.6
		c0.1,0.2,0.1,0.3,0.1,0.3v0.1h-6.2v-0.1H237.2z M242.7,73.8h1.4c0.5,0,0.9-0.1,1.3-0.4c0.3-0.3,0.6-0.6,0.8-1.1s0.3-0.9,0.3-1.3
		c0.1-0.4,0.1-0.8,0.1-1.2s0-0.8-0.1-1.2s-0.2-0.8-0.3-1.2c-0.2-0.5-0.4-0.8-0.8-1.1c-0.3-0.3-0.8-0.4-1.3-0.4h-1.4V73.8z"/>
	<path class="st0" d="M254.7,81.4c0.1-0.2,0.1-0.4,0.2-0.6c0.1-0.3,0.1-0.6,0.2-0.9c0.1-0.3,0.1-0.7,0.2-1.1
		c0.1-0.4,0.1-0.8,0.1-1.1v-9c0-0.3,0-0.7-0.1-1.1s-0.1-0.8-0.2-1.1c-0.1-0.3-0.2-0.6-0.2-0.9c-0.1-0.3-0.1-0.5-0.2-0.6
		c-0.1-0.2-0.1-0.3-0.1-0.3v-0.1h8.7c1.7,0,3.1,0.4,4.1,1.2c1.1,0.8,1.6,1.9,1.6,3.2c0,1.3-0.5,2.4-1.4,3.1c-1,0.7-2.3,1.1-4,1.2
		c1.8,0.3,3.2,1.2,4.2,2.8c0.3,0.4,0.6,1.1,1,1.9c0.4,0.8,0.8,1.5,1.1,2.1c0.4,0.6,0.8,1.1,1.3,1.5v0.1h-5.7
		c-0.5-0.4-1.3-1.8-2.3-4.2c-0.9-2-1.9-3.3-3.1-3.7v3.9c0,0.3,0,0.7,0.1,1.1c0.1,0.4,0.1,0.8,0.2,1.1c0.1,0.3,0.1,0.6,0.2,0.9
		c0.1,0.3,0.1,0.5,0.2,0.6c0.1,0.2,0.1,0.3,0.1,0.3v0.1h-6.2v-0.1C254.6,81.7,254.7,81.6,254.7,81.4L254.7,81.4z M260.1,65.6v7.1
		h1.5c1.6,0,2.3-1.1,2.3-3.4c0-1.1-0.2-2-0.6-2.7c-0.4-0.7-1-1-1.8-1H260.1L260.1,65.6z"/>
	<path class="st0" d="M274.6,66.8c1.6-1.6,3.6-2.4,6-2.4s4.4,0.8,6,2.4s2.4,3.8,2.4,6.4s-0.8,4.8-2.4,6.4c-1.6,1.6-3.6,2.4-6,2.4
		s-4.4-0.8-6-2.4s-2.4-3.8-2.4-6.4S273,68.4,274.6,66.8L274.6,66.8z M277.5,73.2c0,1.1,0.1,2.2,0.3,3.3c0.2,1.1,0.5,2.1,1,3
		c0.5,0.9,1.1,1.4,1.8,1.4s1.3-0.5,1.8-1.4c0.5-0.9,0.8-1.9,1-3.1c0.2-1.1,0.3-2.2,0.3-3.3s-0.1-2.2-0.3-3.3c-0.2-1.1-0.5-2.1-1-3
		s-1.1-1.4-1.8-1.4s-1.3,0.5-1.8,1.4s-0.8,1.9-1,3.1C277.6,71.1,277.5,72.2,277.5,73.2L277.5,73.2z"/>
	<path class="st0" d="M292.3,81.4c0.1-0.2,0.1-0.4,0.2-0.6c0.1-0.3,0.1-0.6,0.2-0.9c0.1-0.3,0.1-0.7,0.2-1.1
		c0.1-0.4,0.1-0.8,0.1-1.1v-9c0-0.3,0-0.7-0.1-1.1s-0.1-0.8-0.2-1.1c-0.1-0.3-0.2-0.6-0.2-0.9c-0.1-0.3-0.1-0.5-0.2-0.6
		c-0.1-0.2-0.1-0.3-0.1-0.3v-0.1h8.5c1.7,0,3,0.4,4.1,1.3c1.1,0.9,1.6,1.9,1.6,3.2c0,1.9-1.2,3.1-3.6,3.9c1.3,0.3,2.3,0.8,3.1,1.4
		c0.8,0.7,1.2,1.6,1.2,2.8c0,1.4-0.6,2.5-1.7,3.3c-1.2,0.8-2.6,1.1-4.3,1.1h-9v0.1C292.2,81.7,292.3,81.6,292.3,81.4L292.3,81.4z
		 M297.7,65.8v6.8h1.4c0.8,0,1.4-0.4,1.8-1.1c0.4-0.7,0.6-1.5,0.6-2.3c0-0.8-0.2-1.6-0.6-2.3c-0.4-0.7-1-1.1-1.8-1.1
		C299.1,65.8,297.7,65.8,297.7,65.8z M297.7,73.7v6.9h1.8c1.9,0,2.8-1.1,2.8-3.3c0-1-0.2-1.8-0.6-2.5c-0.4-0.7-1.1-1-2.1-1
		L297.7,73.7L297.7,73.7z"/>
	<path class="st0" d="M310.4,64.7L310.4,64.7l6.2-0.1v0.1c0,0,0,0.1-0.1,0.3c0,0.2-0.1,0.4-0.2,0.6c-0.1,0.3-0.1,0.6-0.2,0.9
		c-0.1,0.3-0.1,0.7-0.2,1.1c-0.1,0.4-0.1,0.8-0.1,1.1v11.9h1.8c0.4,0,0.9-0.1,1.4-0.4s1-0.7,1.4-1.1c0.4-0.4,0.8-0.9,1.1-1.3
		c0.4-0.4,0.6-0.8,0.9-1.1c0.2-0.3,0.3-0.5,0.3-0.5h0.1v5.5h-12.6v-0.1c0,0,0-0.1,0.1-0.3c0-0.2,0.1-0.4,0.2-0.6s0.1-0.6,0.2-0.9
		c0.1-0.3,0.1-0.7,0.2-1.1c0.1-0.4,0.1-0.7,0.1-1.1v-9c0-0.3,0-0.7-0.1-1.1c0-0.4-0.1-0.8-0.2-1.1c-0.1-0.3-0.2-0.6-0.2-0.9
		c0-0.3-0.1-0.5-0.2-0.6C310.4,64.8,310.4,64.7,310.4,64.7L310.4,64.7z"/>
	<path class="st0" d="M326.1,64.7L326.1,64.7l13.1-0.1v5.2h-0.1c0,0-0.1-0.1-0.3-0.4c-0.2-0.3-0.5-0.6-0.9-1s-0.7-0.8-1.1-1.2
		s-0.9-0.7-1.4-1c-0.5-0.3-1-0.4-1.4-0.4h-2.3v6.8h0.2c0.4,0,0.9,0,1.4-0.1s1-0.2,1.4-0.4c0.4-0.1,0.8-0.3,1.1-0.4
		c0.4-0.1,0.6-0.3,0.9-0.4c0.2-0.1,0.3-0.2,0.3-0.2h0.1V75H337c0,0-0.1-0.1-0.3-0.2c-0.2-0.1-0.5-0.2-0.9-0.4s-0.7-0.3-1.1-0.4
		s-0.9-0.3-1.4-0.4c-0.5-0.1-1-0.2-1.4-0.2h-0.2v7.1h2.4c0.4,0,0.9-0.1,1.4-0.4s1-0.6,1.4-1s0.8-0.8,1.1-1.2c0.4-0.4,0.6-0.8,0.9-1
		c0.2-0.3,0.3-0.4,0.3-0.4h0.1v5.2h-13.1v-0.1c0,0,0-0.1,0.1-0.3c0-0.2,0.1-0.4,0.2-0.7c0.1-0.3,0.1-0.6,0.2-0.9s0.1-0.7,0.2-1.1
		c0.1-0.4,0.1-0.8,0.1-1.1v-9c0-0.3,0-0.7-0.1-1.1c0-0.4-0.1-0.8-0.2-1.1s-0.2-0.6-0.2-0.9c0-0.3-0.1-0.5-0.2-0.6
		C326.2,64.8,326.1,64.7,326.1,64.7L326.1,64.7z"/>
	<path class="st0" d="M342.5,81.8L342.5,81.8c0-0.1,0-0.3,0.1-0.5c0.1-0.2,0.2-0.6,0.4-1c0.1-0.4,0.3-0.9,0.4-1.3
		c0.1-0.5,0.3-1,0.4-1.6s0.1-1.1,0.1-1.6v-7c0-0.3,0-0.7-0.1-1.1c-0.1-0.4-0.2-0.8-0.3-1.1c-0.1-0.3-0.2-0.6-0.3-0.9
		c-0.1-0.3-0.2-0.5-0.3-0.6c-0.1-0.2-0.1-0.3-0.1-0.3v-0.1h5.7l4.4,10.7l3.9-10.7h5.5v0c0,0,0,0.1-0.1,0.3c0,0.2-0.1,0.4-0.2,0.6
		c-0.1,0.3-0.1,0.6-0.2,0.9c-0.1,0.3-0.1,0.7-0.2,1.1c0,0.4-0.1,0.8-0.1,1.1v9c0,0.3,0,0.7,0.1,1.1c0.1,0.4,0.1,0.8,0.2,1.1
		c0.1,0.3,0.1,0.6,0.2,0.9c0.1,0.3,0.1,0.5,0.2,0.7c0,0.2,0.1,0.3,0.1,0.3v-0.1h-6.2l0,0c0,0,0-0.1,0.1-0.3c0-0.2,0.1-0.4,0.2-0.7
		c0.1-0.3,0.1-0.6,0.2-0.9s0.1-0.7,0.2-1.1c0.1-0.4,0.1-0.8,0.1-1.1v-9.5L352,81.7h-1.3l-5.5-13.6c0,0.1,0,0.3,0,0.5v7
		c0,0.5,0,1.1,0.1,1.6c0.1,0.6,0.2,1.1,0.4,1.6c0.1,0.5,0.3,0.9,0.4,1.3c0.1,0.4,0.3,0.7,0.4,1c0.1,0.3,0.1,0.4,0.1,0.4v0.1
		L342.5,81.8L342.5,81.8z"/>
</g>
<text transform="matrix(1 0 0 1 327.85 140.99)" class="st0 st1 st2">The designer’s </text>
<text transform="matrix(1 0 0 1 327.85 169.54)" class="st0 st1 st2">share</text>
<text transform="matrix(1 0 0 1 343.87 309.47)" class="st0 st1 st2">The </text>
<text transform="matrix(1 0 0 1 387.03 309.47)" class="st0 st1 st2">real</text>
<text transform="matrix(1 0 0 1 420 309.47)" class="st0 st1 st2"> </text>
<text transform="matrix(1 0 0 1 343.87 338.02)" class="st0 st1 st2">problem</text>
<polygon class="st3" points="200.9,133.4 345.6,380.9 55.6,380.9 "/>
<line class="st3" x1="155.3" y1="149" x2="250.4" y2="149"/>
<polygon class="st4" points="200.9,133.4 209.1,148.5 192,148.5 "/>
<g>
	<line class="st5" x1="244.9" y1="302.3" x2="245.8" y2="302.3"/>
	<line class="st6" x1="249.4" y1="302.3" x2="328.7" y2="302.3"/>
	<line class="st5" x1="330.5" y1="302.3" x2="331.3" y2="302.3"/>
</g>
<g>
	<line class="st7" x1="205.3" y1="135.6" x2="206.2" y2="135.6"/>
	<line class="st8" x1="209.5" y1="135.6" x2="317.5" y2="135.6"/>
	<line class="st7" x1="319.2" y1="135.6" x2="320" y2="135.6"/>
</g>
</svg>
