<?xml version="1.0" encoding="utf-8"?>
<!-- Generator: Adobe Illustrator 26.0.2, SVG Export Plug-In . SVG Version: 6.00 Build 0)  -->
<svg version="1.1" id="Layer_1" xmlns="http://www.w3.org/2000/svg" xmlns:xlink="http://www.w3.org/1999/xlink" x="0px" y="0px"
	 viewBox="0 0 417 291.7" style="enable-background:new 0 0 417 291.7;" xml:space="preserve">
<style type="text/css">
	.st0{fill:none;}
	.st1{font-family:'ArialMT';}
	.st2{font-size:12px;}
	.st3{fill:#2C5E3A;}
	.st4{font-size:12.5734px;}
	.st5{letter-spacing:49;}
	.st6{fill:#71AF56;}
	.st7{font-size:13.8307px;}
	.st8{fill:none;stroke:#2C5E3A;stroke-width:1.2573;stroke-miterlimit:10;}
</style>
<path id="SVGID_x5F_1_x5F_" class="st0" d="M188,141.2c27.3-31,70.4-106.8,115.6-106.8s81.9,33.5,81.9,74.8S348.8,184,303.5,184
	S211.2,102,183,69"/>
<text transform="matrix(0.6256 -0.7801 0.7801 0.6256 228.0567 89.5004)" class="st1 st2"> </text>
<text transform="matrix(0.6343 -0.7731 0.7731 0.6343 230.1343 86.8928)" class="st3 st1 st4 st5">p</text>
<text transform="matrix(0.8268 -0.5625 0.5625 0.8268 270.327 46.719)" class="st3 st1 st4 st5">l</text>
<text transform="matrix(0.9743 0.2252 -0.2252 0.9743 320.2827 35.9331)" class="st3 st1 st4 st5">u</text>
<text transform="matrix(0.6194 0.7851 -0.7851 0.6194 368.6993 63.9012)" class="st3 st1 st4 st5">r</text>
<text transform="matrix(-9.076089e-02 0.9959 -0.9959 -9.076089e-02 385.2422 114.117)" class="st3 st1 st4 st5">i</text>
<text transform="matrix(-0.7472 0.6646 -0.6646 -0.7472 362.9908 160.7127)" class="st3 st1 st4 st5">v</text>
<text transform="matrix(-0.9981 6.179415e-02 -6.179415e-02 -0.9981 312.6543 183.6105)" class="st3 st1 st4 st5">e</text>
<text transform="matrix(-0.7467 -0.6652 0.6652 -0.7467 261.1997 163.9554)" class="st3 st1 st4 st5">r</text>
<text transform="matrix(-0.6119 -0.791 0.791 -0.6119 224.7308 123.9186)" class="st3 st1 st4 st5">s</text>
<text transform="matrix(-0.6184 -0.7858 0.7858 -0.6184 190.9799 78.8754)" class="st3 st1 st4 st5">e</text>
<text transform="matrix(1 0 0 1 -39 -107.8504)" class="st1 st2"> </text>
<path id="SVGID_x5F_00000019675140564093277290000012465123404060912045_x5F_" class="st0" d="M233,75.4
	c-27.3,31-70.4,106.8-115.6,106.8s-81.8-33.5-81.8-74.8s36.7-74.8,81.8-74.8s92.3,82,120.6,115"/>
<text transform="matrix(-0.6041 0.7969 -0.7969 -0.6041 204.4964 112.194)" class="st1 st2"> </text>
<text transform="matrix(-0.608 0.7939 -0.7939 -0.608 202.4844 114.8535)" class="st3 st1 st4 st5">s</text>
<text transform="matrix(-0.741 0.6715 -0.6715 -0.741 165.7558 157.5076)" class="st3 st1 st4 st5">p</text>
<text transform="matrix(-0.9986 -5.330346e-02 5.330346e-02 -0.9986 116.053 182.306)" class="st3 st1 st4 st5">e</text>
<text transform="matrix(-0.7535 -0.6574 0.6574 -0.7535 63.2613 163.6246)" class="st3 st1 st4 st5">c</text>
<text transform="matrix(-7.150645e-02 -0.9974 0.9974 -7.150645e-02 35.9874 115.9174)" class="st3 st1 st4 st5">u</text>
<text transform="matrix(0.6472 -0.7623 0.7623 0.6472 51.7922 62.7441)" class="st3 st1 st4 st5">l</text>
<text transform="matrix(0.9793 -0.2026 0.2026 0.9793 95.8375 35.2431)" class="st3 st1 st4 st5">a</text>
<text transform="matrix(0.8077 0.5895 -0.5895 0.8077 149.8546 44.9269)" class="st3 st1 st4 st5">t</text>
<text transform="matrix(0.6341 0.7732 -0.7732 0.6341 187.8731 82.3604)" class="st3 st1 st4 st5">i</text>
<text transform="matrix(0.5956 0.8033 -0.8033 0.5956 219.8762 124.3382)" class="st3 st1 st4 st5">v</text>
<text transform="matrix(1 0 0 1 -39 -107.8504)" class="st1 st2"> </text>
<rect x="210" y="103" class="st0" width="0.5" height="2.9"/>
<rect x="87.7" y="91" class="st0" width="58.6" height="32"/>
<text transform="matrix(1 0 0 1 87.7251 101.3543)" class="st6 st1 st7">Broken </text>
<text transform="matrix(1 0 0 1 87.7251 117.9543)" class="st6 st1 st7">Nature</text>
<rect x="181.2" y="247.4" class="st0" width="74.3" height="44.3"/>
<text transform="matrix(1 0 0 1 181.1772 257.8113)" class="st6 st1 st7">Seed of </text>
<text transform="matrix(1 0 0 1 181.1772 274.4113)" class="st6 st1 st7">this work</text>
<rect x="274.1" y="84.4" class="st0" width="79.6" height="49.7"/>
<text transform="matrix(1 0 0 1 274.1378 94.7464)" class="st6 st1 st7">Designs </text>
<text transform="matrix(1 0 0 1 274.1378 111.3464)" class="st6 st1 st7">for the </text>
<text transform="matrix(1 0 0 1 274.1378 127.9364)" class="st6 st1 st7">Pluriverse</text>
<g>
	<g>
		<line class="st8" x1="210.4" y1="143.6" x2="210.4" y2="222.7"/>
		<g>
			<polygon class="st3" points="205.8,219.2 210.4,221.2 215.1,219.2 210.4,230.2 			"/>
		</g>
	</g>
</g>
</svg>
