<?xml version="1.0" encoding="UTF-8"?>
<svg id="Layer_1" data-name="Layer 1" xmlns="http://www.w3.org/2000/svg" xmlns:xlink="http://www.w3.org/1999/xlink" viewBox="0 0 600.67 260.36">
  <defs>
    <style>
      .cls-1, .cls-2, .cls-3, .cls-4 {
        fill: none;
      }

      .cls-5 {
        clip-path: url(#clippath);
      }

      .cls-6 {
        fill: #929ab5;
      }

      .cls-7, .cls-8, .cls-9 {
        fill: #8c96b4;
      }

      .cls-2 {
        stroke: #929ab5;
      }

      .cls-2, .cls-4 {
        stroke-width: 2px;
      }

      .cls-3 {
        stroke-width: 5px;
      }

      .cls-3, .cls-4 {
        stroke: #464664;
      }

      .cls-8 {
        font-size: 17.13px;
      }

      .cls-8, .cls-9 {
        font-family: CrimsonText-SemiBoldItalic, 'Crimson Text';
      }

      .cls-9 {
        font-size: 17.13px;
      }

      .cls-4 {
        stroke-dasharray: 0 0 0 5.92;
        stroke-linecap: round;
        stroke-linejoin: round;
      }

      .cls-10 {
        fill: #464664;
        font-family: CrimsonText-Regular, 'Crimson Text';
        font-size: 17.13px;
      }
    </style>
    <clipPath id="clippath">
      <rect class="cls-1" width="600.67" height="260.36"/>
    </clipPath>
  </defs>
  <g class="cls-5">
    <path class="cls-3" d="M34.89,212.68S68.88,32.09,163.85,32.09c88.5,0,89.51,130.09,144.08,132.03,60.44,2.16,68.51-71.21,110.08-70.15,42.63,1.07,99.83,122.48,180.77,87.42"/>
  </g>
  <line class="cls-2" x1="19.33" y1="120.46" x2="79.9" y2="39.96"/>
  <polygon class="cls-6" points="87.82 29.42 69.61 41.26 79.9 39.96 81.48 50.2 87.82 29.42"/>
  <line class="cls-2" x1="218.5" y1="2.16" x2="288.72" y2="93.69"/>
  <rect class="cls-1" width="600.67" height="260.36"/>
  <polygon class="cls-6" points="296.74 104.15 290.21 83.43 288.72 93.69 278.43 92.47 296.74 104.15"/>
  <line class="cls-2" x1="333.8" y1="126.32" x2="391.75" y2="77.11"/>
  <polygon class="cls-6" points="401.79 68.57 381.43 76.13 391.75 77.11 391.04 87.44 401.79 68.57"/>
  <line class="cls-2" x1="446.54" y1="77.26" x2="518.48" y2="137.83"/>
  <polygon class="cls-6" points="528.56 146.32 517.73 127.49 518.48 137.83 508.17 138.86 528.56 146.32"/>
  <text class="cls-10" transform="translate(89.44 249.68)"><tspan x="0" y="0">Inspiration</tspan></text>
  <text class="cls-9" transform="translate(25.56 95.82) rotate(-53.54)"><tspan x="0" y="0">Diverge</tspan></text>
  <text class="cls-8" transform="translate(333.72 114.25) rotate(-42)"><tspan x="0" y="0">Diverge</tspan></text>
  <path class="cls-7" d="M282.48,53.48c-.05,.11-.14,.22-.28,.31-.41,.28-.98,.35-1.68,.21-.71-.14-1.19-.4-1.45-.78-.02-.04-.02-.07,.02-.09,.41-.28,1.02-.44,1.82-.46,.8-.02,1.31,.13,1.54,.46,.07,.11,.09,.22,.04,.34m-.93-1.77c-.75-.23-1.54-.28-2.37-.17-.83,.11-1.56,.38-2.18,.8-.69,.47-1.13,.98-1.31,1.54-.18,.56-.08,1.12,.31,1.69,.28,.41,.74,.71,1.38,.91,.65,.2,1.13,.28,1.45,.24,.04-.02,.08-.1,.12-.22,.04-.13,.06-.2,.05-.22-.11-.02-.24-.05-.41-.08-.16-.03-.38-.11-.66-.25-.28-.13-.49-.3-.63-.51-.4-.59-.16-1.19,.72-1.79,.21-.14,.33-.2,.36-.16,.2,.29,.57,.62,1.11,.98,.54,.36,1.16,.62,1.85,.79,.69,.17,1.26,.1,1.69-.19,.32-.22,.5-.54,.55-.97,.04-.42-.09-.86-.39-1.3-.35-.52-.9-.89-1.65-1.11m-4.57-6.23c-.93-.17-1.78,0-2.54,.51-.41,.28-.69,.66-.82,1.14-.13,.48-.1,.93,.09,1.35-.36-.27-.75-.49-1.18-.67-.43-.18-.73-.22-.88-.11-.2,.14-.31,.38-.32,.72,0,.21,.01,.36,.06,.47-1.25-.9-2.19-1.14-2.81-.72-.4,.28-.6,.71-.57,1.31,.02,.6,.25,1.22,.69,1.87,.72,1.06,1.5,1.72,2.34,1.99,.84,.26,1.56,.19,2.16-.21,.28-.19,.45-.45,.52-.78,.07-.33,.07-.67,0-1.03-.08-.35-.17-.69-.29-1.02-.12-.33-.21-.62-.28-.85-.07-.24-.07-.38,0-.42,.1-.07,.27-.04,.51,.08,.24,.12,.53,.29,.87,.51,.34,.22,.61,.37,.79,.46,.18,.07,.37,.13,.56,.18,.19,.05,.43,.09,.72,.11,.29,.02,.6-.02,.94-.11,.33-.09,.66-.25,.99-.47,.11-.07,.21-.16,.31-.24,.1-.09,.18-.16,.25-.22,.07-.06,.11-.09,.12-.1,.06-.04,.1-.03,.14,.03l.5,.73c.2,.01,.39-.05,.58-.19,.1-.07,.13-.14,.09-.2l-.45-.66c-.22-.32-.38-.69-.49-1.11-.11-.41-.24-.74-.41-.99-.5-.73-1.21-1.18-2.15-1.35m1.3,2.27c-.14,.27-.36,.51-.67,.72-.29,.19-.61,.36-.98,.48-.36,.13-.73,.18-1.1,.16-.37-.02-.64-.15-.81-.4-.15-.22-.18-.45-.08-.69,.1-.24,.29-.46,.59-.67,.33-.22,.69-.41,1.08-.55,.39-.14,.77-.2,1.14-.18,.37,.02,.64,.15,.81,.4,.14,.21,.15,.45,.01,.72m-7.51,4.68c-.38-.14-.73-.46-1.07-.94-.72-1.05-.72-1.82-.02-2.29,.14-.09,.3-.15,.47-.16,.18-.01,.35,.02,.53,.1,.18,.08,.33,.15,.45,.22,.12,.07,.26,.16,.43,.27,.58,1.51,.64,2.41,.19,2.72-.28,.19-.61,.21-.98,.07m2.34-13.26c-.68-.21-1.16-.3-1.44-.26-.04,.03-.08,.1-.13,.23-.05,.13-.07,.2-.05,.22,.17,.02,.41,.06,.72,.14,.31,.07,.5,.17,.57,.28,.06,.09-.02,.21-.24,.36-.09,.06-.25,.15-.47,.26l-4.85,2.09c.11,.24,.24,.47,.39,.69,.15,.21,.31,.41,.48,.59l1.51-.66c.57-.24,1.23-.42,1.99-.54,.76-.12,1.42-.17,1.99-.14,.57,.03,.91,.12,1.02,.28,.09,.13,.1,.32,.03,.57-.07,.25-.06,.43,.01,.54,.31,.45,.84,.42,1.61-.1,.17-.45,.15-.85-.08-1.18-.26-.38-.78-.6-1.56-.68-.78-.08-1.55-.04-2.32,.1,.03,0,.36-.15,1.01-.42,.29-.13,.55-.27,.79-.44,.23-.16,.37-.34,.43-.54,.06-.2,.03-.39-.09-.57-.21-.31-.66-.58-1.34-.79m-2.02-2.43c-.05,.12-.14,.22-.28,.31-.41,.28-.98,.35-1.68,.21-.71-.14-1.19-.4-1.45-.77-.02-.04-.02-.07,.02-.09,.41-.28,1.02-.44,1.82-.46,.8-.02,1.31,.13,1.54,.46,.07,.11,.09,.22,.04,.34m-.93-1.77c-.75-.23-1.54-.28-2.37-.17-.83,.11-1.56,.38-2.18,.8-.69,.47-1.13,.98-1.31,1.54-.18,.56-.08,1.12,.31,1.69,.28,.4,.74,.71,1.38,.91,.64,.2,1.13,.28,1.45,.24,.04-.02,.08-.1,.12-.22,.04-.12,.06-.19,.05-.21-.11-.02-.24-.05-.41-.08-.16-.03-.38-.11-.66-.25s-.49-.3-.63-.51c-.4-.59-.16-1.19,.72-1.79,.21-.14,.33-.2,.36-.16,.2,.3,.57,.62,1.11,.98,.54,.36,1.16,.62,1.85,.79,.69,.17,1.26,.1,1.69-.19,.32-.22,.5-.54,.55-.97,.04-.43-.09-.86-.39-1.3-.35-.52-.9-.89-1.65-1.11m-4.51-6.77c-.67-.21-1.15-.29-1.43-.25-.04,.02-.08,.1-.13,.23-.05,.13-.07,.2-.05,.22,.17,.02,.41,.06,.72,.14,.31,.07,.5,.17,.57,.28,.06,.09-.02,.21-.24,.36-.15,.1-.31,.18-.48,.25l-2.73,1.17c-.22,.09-.45,.23-.7,.4-.38,.26-.61,.57-.68,.95-.08,.37,0,.74,.24,1.09,.22,.32,.63,.59,1.24,.81,.6,.22,1.28,.35,2.02,.42,.74,.06,1.53,0,2.36-.16,.83-.17,1.54-.45,2.13-.85,.35-.24,.58-.48,.69-.71,0-.18-.05-.37-.19-.58-.15-.21-.33-.35-.57-.41-.24-.06-.46-.02-.67,.13-.17,.11-.32,.32-.44,.63-.13,.3-.31,.53-.53,.68-.37,.25-.88,.42-1.54,.51-.66,.09-1.28,.08-1.86-.02-.58-.1-.97-.29-1.15-.55-.21-.31-.11-.62,.32-.9,.18-.12,.43-.25,.75-.39l2.48-1.06c.36-.15,.65-.3,.88-.46,.23-.16,.37-.34,.43-.55,.06-.2,.02-.4-.1-.57-.21-.31-.66-.57-1.33-.78m-4.69-6.89c-.68-.21-1.15-.29-1.43-.25-.04,.02-.08,.1-.13,.22-.05,.12-.07,.2-.05,.22,.17,0,.41,.05,.72,.13,.31,.08,.5,.17,.58,.28,.06,.09-.02,.21-.24,.36-.09,.06-.25,.14-.48,.25l-4.85,2.09c.08,.22,.2,.45,.37,.7,.17,.25,.33,.43,.47,.55l1.46-.59c.56-.25,1.22-.42,1.99-.52,.77-.1,1.44-.13,2.01-.09,.58,.05,.92,.15,1.04,.32,.15,.22,.03,.46-.35,.73-.14,.1-.42,.23-.85,.42l-2.24,.94c-.45,.19-.77,.34-.96,.47-.24,.16-.39,.35-.44,.55s-.03,.39,.09,.56c.23,.34,.7,.62,1.39,.83,.7,.21,1.19,.29,1.48,.25,.04-.02,.08-.1,.13-.22,.05-.12,.06-.19,.04-.22-.07,0-.19-.02-.36-.05-.17-.03-.37-.08-.6-.15-.23-.07-.38-.15-.44-.25-.06-.09,.02-.22,.25-.37,.14-.1,.26-.16,.36-.19l2.03-.85c.76-.31,1.3-.58,1.64-.81,.81-.55,1-1.14,.58-1.77-.24-.35-.83-.59-1.77-.71-.94-.12-1.69-.15-2.24-.07,.17-.08,.33-.15,.47-.21,.13-.06,.23-.1,.29-.13,.06-.03,.11-.05,.16-.07,.41-.19,.71-.34,.88-.46,.23-.16,.37-.34,.43-.55,.06-.2,.02-.4-.1-.57-.21-.31-.66-.57-1.33-.78m-3.3-4.72c-.74-.22-1.53-.27-2.37-.15-.84,.12-1.57,.4-2.19,.82-.66,.45-1.08,.96-1.26,1.53-.18,.57-.05,1.18,.38,1.81,.36,.53,.9,.9,1.62,1.13s1.5,.29,2.33,.17c.83-.12,1.57-.4,2.23-.85,.67-.46,1.1-.98,1.28-1.55,.18-.58,.06-1.18-.37-1.81-.36-.53-.91-.9-1.65-1.12m.88,2.11c-.15,.26-.43,.53-.83,.81-.47,.33-1.03,.62-1.67,.86-.64,.24-1.25,.37-1.84,.39-.59,.02-.98-.12-1.18-.41-.14-.21-.15-.46,0-.73,.14-.27,.41-.55,.8-.83,.52-.35,1.1-.64,1.75-.87,.65-.23,1.27-.35,1.84-.35,.57,0,.95,.14,1.15,.42,.14,.2,.13,.44-.02,.7m-3.16-11.72c-1.09-.45-2.24-.63-3.45-.53-1.2,.09-2.26,.45-3.17,1.08-1.03,.7-1.68,1.64-1.93,2.82-.26,1.18,0,2.35,.79,3.5,.41,.61,.86,1.15,1.35,1.61,.48,.47,.89,.74,1.23,.81,.09,.02,.27,0,.52-.05,.25-.05,.53-.11,.82-.19,.29-.07,.45-.11,.48-.11,.05-.05,.07-.13,.07-.26,0-.13-.02-.21-.04-.24,0-.01-.1,0-.28,0-.18,.01-.42,0-.72-.02-.3-.02-.58-.09-.84-.2-.65-.28-1.23-.8-1.75-1.56-.53-.78-.67-1.57-.4-2.35,.26-.78,.83-1.46,1.68-2.05,1.35-.92,2.78-1.37,4.27-1.34,1.49,.03,2.55,.51,3.18,1.43,.32,.47,.52,.92,.59,1.34,.08,.42,.05,.78-.09,1.07-.14,.3-.28,.53-.41,.69-.14,.16-.29,.3-.45,.43,0,.06,.03,.13,.08,.21,.14,.2,.28,.27,.44,.21,.09-.03,.43-.21,1.04-.53,.61-.32,.94-.49,.99-.53-.44-1.39-.93-2.47-1.46-3.25-.6-.88-1.44-1.54-2.54-1.99"/>
  <path class="cls-7" d="M513.72,103.26c-.01,.12-.07,.25-.18,.38-.32,.39-.83,.62-1.55,.69-.72,.07-1.25-.04-1.61-.33-.03-.03-.04-.06,0-.09,.32-.39,.85-.71,1.61-.97,.76-.25,1.29-.26,1.61,0,.1,.08,.15,.19,.13,.31m-1.4-1.42c-.78,0-1.56,.17-2.32,.52-.77,.35-1.38,.81-1.85,1.4-.53,.65-.8,1.27-.81,1.85-.01,.58,.25,1.09,.79,1.53,.38,.31,.91,.47,1.58,.48,.68,0,1.16-.05,1.46-.19,.03-.03,.04-.12,.05-.25,0-.13,0-.2-.02-.22-.11,.01-.25,.02-.41,.04-.16,.02-.4,0-.71-.04-.31-.05-.55-.15-.75-.3-.55-.45-.49-1.09,.18-1.92,.16-.2,.26-.28,.3-.26,.28,.22,.73,.43,1.35,.62s1.29,.26,2,.22c.71-.04,1.24-.26,1.56-.67,.25-.3,.33-.66,.24-1.08-.08-.42-.34-.8-.75-1.13-.49-.39-1.12-.59-1.9-.59m-6.18-4.64c-.94,.1-1.71,.51-2.28,1.22-.32,.39-.47,.83-.45,1.33,.01,.5,.17,.92,.48,1.27-.42-.15-.86-.26-1.33-.3s-.76,0-.88,.15c-.16,.19-.19,.45-.1,.78,.05,.2,.12,.34,.19,.43-1.46-.5-2.42-.46-2.9,.13-.31,.38-.37,.85-.17,1.42,.19,.57,.59,1.1,1.2,1.59,1,.81,1.94,1.22,2.82,1.23,.88,.01,1.55-.27,2.01-.83,.21-.26,.3-.56,.27-.9-.03-.34-.13-.66-.3-.98-.18-.31-.37-.61-.58-.9-.21-.28-.38-.53-.51-.74-.13-.21-.17-.34-.13-.4,.08-.1,.25-.12,.51-.07,.26,.05,.59,.13,.98,.24,.39,.11,.69,.18,.89,.22,.19,.01,.39,.02,.58,0,.2,0,.44-.04,.72-.1,.28-.06,.57-.19,.86-.38,.29-.18,.56-.43,.81-.73,.08-.1,.16-.21,.23-.32,.07-.11,.12-.2,.17-.28s.08-.12,.08-.13c.04-.05,.09-.06,.14-.02l.69,.56c.19-.05,.36-.16,.5-.35,.08-.1,.09-.17,.02-.22l-.62-.51c-.3-.25-.57-.55-.79-.92s-.45-.64-.68-.83c-.69-.56-1.5-.78-2.44-.68m1.9,1.8c-.05,.3-.2,.59-.44,.89-.22,.27-.48,.52-.8,.74-.31,.23-.65,.39-1.01,.48-.36,.09-.66,.04-.89-.15-.21-.17-.3-.38-.28-.64,.02-.26,.15-.53,.37-.81,.25-.31,.55-.59,.88-.84,.34-.25,.68-.41,1.04-.5,.36-.09,.65-.04,.89,.15,.2,.16,.27,.39,.22,.69m-5.84,6.65c-.4-.02-.83-.22-1.29-.6-.99-.8-1.22-1.53-.68-2.19,.11-.13,.24-.22,.41-.29,.16-.06,.34-.08,.54-.06s.36,.05,.49,.09c.13,.03,.29,.08,.49,.14,.99,1.28,1.31,2.13,.97,2.55-.21,.26-.52,.38-.92,.35m-1.58-13.37c-.71,0-1.19,.05-1.45,.17-.03,.04-.05,.12-.06,.26,0,.14,0,.21,.01,.22,.17-.03,.41-.06,.73-.08,.31-.02,.52,.02,.63,.1,.09,.07,.05,.21-.12,.42-.07,.09-.2,.21-.38,.38l-4.04,3.4c.17,.2,.36,.38,.57,.55,.2,.16,.41,.3,.63,.42l1.26-1.07c.47-.39,1.06-.76,1.75-1.09,.69-.34,1.31-.57,1.87-.71,.56-.14,.91-.15,1.06-.03,.12,.1,.19,.28,.19,.53,0,.26,.06,.43,.17,.51,.42,.34,.93,.16,1.51-.56,.04-.49-.1-.86-.42-1.11-.36-.29-.92-.35-1.69-.2-.77,.15-1.5,.41-2.19,.77,.02-.01,.3-.24,.84-.69,.24-.21,.45-.42,.63-.65,.18-.22,.26-.43,.26-.64,0-.21-.09-.38-.25-.51-.29-.24-.8-.36-1.51-.37m-2.63-1.75c-.02,.12-.08,.25-.18,.38-.32,.39-.83,.62-1.55,.69-.72,.07-1.25-.04-1.61-.32-.03-.03-.04-.06,0-.1,.32-.39,.85-.71,1.61-.97,.76-.26,1.29-.26,1.6,0,.1,.08,.15,.19,.14,.31m-1.4-1.42c-.78,0-1.56,.17-2.32,.52-.76,.35-1.38,.82-1.85,1.4-.53,.65-.8,1.27-.81,1.85-.01,.58,.25,1.09,.79,1.53,.38,.31,.91,.47,1.58,.48,.68,0,1.16-.06,1.46-.19,.03-.04,.04-.12,.05-.25,0-.13,0-.21-.02-.22-.11,.01-.25,.03-.41,.04-.16,.02-.4,0-.71-.05-.31-.05-.55-.15-.74-.3-.56-.45-.5-1.09,.18-1.92,.16-.2,.26-.29,.3-.26,.28,.22,.73,.43,1.35,.62s1.29,.26,2,.22c.71-.04,1.24-.26,1.56-.67,.25-.3,.33-.67,.24-1.09s-.33-.8-.75-1.13c-.49-.39-1.12-.59-1.9-.59m-6.27-5.18c-.71,0-1.19,.06-1.44,.18-.03,.03-.05,.12-.06,.26-.01,.14,0,.21,.01,.22,.17-.03,.41-.06,.73-.08,.32-.02,.53,.02,.63,.1,.09,.07,.05,.21-.12,.42-.11,.14-.24,.26-.39,.37l-2.27,1.91c-.18,.15-.37,.35-.56,.58-.29,.36-.41,.73-.38,1.11,.04,.38,.22,.7,.55,.97,.3,.25,.77,.38,1.42,.41,.64,.03,1.33-.03,2.06-.18,.73-.16,1.47-.43,2.21-.83,.75-.4,1.35-.88,1.8-1.43,.27-.33,.42-.62,.45-.88-.04-.18-.16-.34-.35-.5-.2-.16-.42-.24-.67-.23-.25,0-.45,.11-.61,.31-.13,.16-.21,.4-.25,.73-.04,.33-.14,.6-.31,.81-.28,.35-.72,.66-1.33,.94-.61,.28-1.2,.45-1.79,.52-.59,.07-1.01,0-1.26-.2-.3-.24-.28-.56,.04-.96,.14-.17,.34-.37,.61-.59l2.07-1.73c.3-.25,.54-.48,.71-.69s.26-.43,.25-.65c0-.21-.09-.39-.26-.52-.3-.24-.8-.36-1.5-.37m-6.47-5.24c-.71,0-1.19,.05-1.44,.18-.03,.03-.05,.12-.06,.25-.02,.13,0,.21,.02,.23,.16-.04,.4-.07,.72-.08,.32-.02,.53,.02,.64,.1,.09,.07,.05,.21-.12,.42-.07,.09-.2,.21-.39,.38l-4.04,3.4c.14,.18,.32,.37,.56,.56,.23,.19,.44,.32,.61,.39l1.23-.99c.46-.4,1.05-.76,1.76-1.08,.7-.32,1.34-.54,1.9-.66,.57-.12,.93-.12,1.08,0,.21,.17,.17,.43-.13,.8-.11,.13-.34,.34-.69,.65l-1.87,1.54c-.38,.31-.64,.55-.78,.73-.18,.22-.27,.44-.26,.66,0,.21,.09,.38,.24,.51,.32,.26,.85,.39,1.58,.39,.73,0,1.23-.06,1.49-.19,.03-.03,.05-.12,.06-.24,0-.13,0-.2-.02-.22-.07,.02-.19,.03-.36,.06-.17,.02-.37,.03-.62,.03-.24,0-.41-.04-.49-.11-.09-.07-.04-.21,.13-.43,.11-.13,.2-.22,.29-.28l1.7-1.4c.63-.52,1.08-.93,1.33-1.25,.62-.76,.63-1.38,.04-1.86-.33-.27-.96-.32-1.9-.17-.94,.15-1.66,.35-2.16,.58,.14-.13,.27-.24,.39-.33,.11-.1,.19-.17,.25-.21,.05-.05,.1-.08,.13-.11,.34-.3,.58-.53,.71-.69,.18-.22,.26-.43,.25-.65,0-.21-.09-.39-.26-.52-.29-.24-.79-.36-1.5-.37m-4.53-3.57c-.78,0-1.55,.18-2.31,.54-.76,.36-1.38,.83-1.86,1.42-.5,.62-.76,1.24-.76,1.84,0,.6,.29,1.14,.89,1.63,.49,.4,1.12,.61,1.88,.62,.76,0,1.52-.16,2.28-.51,.76-.35,1.39-.84,1.89-1.45,.51-.63,.77-1.25,.78-1.86,0-.6-.28-1.14-.87-1.62-.49-.4-1.13-.6-1.91-.6m1.45,1.77c-.07,.3-.26,.64-.57,1.02-.36,.46-.81,.89-1.35,1.31-.54,.41-1.09,.72-1.65,.91-.55,.19-.97,.17-1.25-.05-.2-.16-.27-.39-.21-.7,.06-.3,.24-.65,.53-1.02,.39-.49,.87-.93,1.43-1.34,.56-.41,1.11-.69,1.66-.86,.54-.17,.95-.14,1.22,.07,.19,.15,.25,.38,.18,.68m-6.41-10.31c-1.18-.11-2.33,.05-3.45,.49-1.13,.44-2.03,1.09-2.73,1.95-.79,.97-1.13,2.06-1.04,3.26,.09,1.2,.68,2.24,1.77,3.12,.57,.46,1.16,.85,1.76,1.15,.6,.31,1.07,.45,1.41,.42,.09-.01,.26-.08,.48-.2,.23-.12,.47-.26,.74-.42,.26-.15,.4-.24,.42-.25,.03-.06,.03-.15,0-.27-.04-.12-.08-.19-.11-.22,0,0-.1,.02-.26,.09-.17,.06-.4,.13-.69,.19-.3,.06-.58,.08-.86,.06-.7-.08-1.41-.41-2.13-.99-.74-.6-1.09-1.31-1.06-2.13,.03-.82,.37-1.64,1.02-2.44,1.03-1.28,2.27-2.11,3.7-2.51,1.44-.4,2.59-.25,3.46,.45,.44,.36,.76,.73,.96,1.11,.19,.38,.27,.73,.22,1.05s-.11,.58-.2,.77c-.09,.2-.19,.38-.31,.54,.01,.05,.06,.11,.14,.18,.19,.15,.35,.18,.48,.07,.07-.06,.35-.32,.84-.8,.49-.48,.76-.75,.8-.8-.82-1.2-1.6-2.1-2.34-2.69-.82-.67-1.82-1.06-3-1.17"/>
  <rect class="cls-1" width="600.67" height="260.36"/>
  <text class="cls-10" transform="translate(295.77 253.49)"><tspan x="0" y="0">Ideation</tspan></text>
  <text class="cls-10" transform="translate(467.12 253.49)"><tspan x="0" y="0">Implementation</tspan></text>
  <line class="cls-4" x1="208.14" y1="53.29" x2="208.14" y2="220.29"/>
  <line class="cls-4" x1="414.67" y1="97.29" x2="414.67" y2="220.29"/>
</svg>