<?xml version="1.0" encoding="utf-8"?>
<!-- Generator: Adobe Illustrator 26.0.2, SVG Export Plug-In . SVG Version: 6.00 Build 0)  -->
<svg version="1.1" id="Layer_2_00000123424930301768878100000009842547155619109290_"
	 xmlns="http://www.w3.org/2000/svg" xmlns:xlink="http://www.w3.org/1999/xlink" x="0px" y="0px" viewBox="0 0 767 782.9"
	 style="enable-background:new 0 0 767 782.9;" xml:space="preserve">
<style type="text/css">
	.st0{fill:none;}
	.st1{fill:#C93C31;}
	.st2{font-family:'ArialMT';}
	.st3{font-size:21px;}
	.st4{font-size:12px;}
	.st5{font-size:24px;}
	.st6{font-size:20px;}
	.st7{font-size:23.1589px;}
	.st8{letter-spacing:1;}
	.st9{fill:#901E14;}
	.st10{font-size:11.5795px;}
	.st11{font-size:10px;}
	.st12{fill:none;stroke:#C93C31;stroke-width:1.1199;stroke-miterlimit:10;}
</style>
<rect x="26.3" y="42.9" class="st0" width="692.1" height="62.3"/>
<text transform="matrix(1 0 0 1 78.6153 58.6582)" class="st1 st2 st3">EUROPEAN AESTEHETIC AND EUROPEAN DOMINANCE</text>
<path id="SVGID_x5F_1_x5F_" class="st0" d="M25.6,196c0,0,114.1-94.8,338.6-94.8s319,89.9,319,89.9"/>
<text transform="matrix(0.9107 -0.413 0.413 0.9107 95.683 155.1537)" class="st2 st4"> </text>
<text transform="matrix(0.9185 -0.3955 0.3955 0.9185 98.6957 153.7218)" class="st1 st2 st5">S</text>
<text transform="matrix(0.9292 -0.3696 0.3696 0.9292 113.4071 147.409)" class="st1 st2 st5">e</text>
<text transform="matrix(0.938 -0.3467 0.3467 0.938 125.8104 142.4762)" class="st1 st2 st5">p</text>
<text transform="matrix(0.946 -0.3243 0.3243 0.946 138.3307 137.8491)" class="st1 st2 st5">a</text>
<text transform="matrix(0.9518 -0.3066 0.3066 0.9518 150.9656 133.545)" class="st1 st2 st5">r</text>
<text transform="matrix(0.9572 -0.2893 0.2893 0.9572 158.5662 131.0713)" class="st1 st2 st5">a</text>
<text transform="matrix(0.962 -0.2732 0.2732 0.962 171.3513 127.2372)" class="st1 st2 st5">t</text>
<text transform="matrix(0.9646 -0.2637 0.2637 0.9646 177.7663 125.4186)" class="st1 st2 st5">i</text>
<text transform="matrix(0.9685 -0.249 0.249 0.9685 182.9021 123.9833)" class="st1 st2 st5">o</text>
<text transform="matrix(0.9736 -0.2282 0.2282 0.9736 195.8303 120.6607)" class="st1 st2 st5">n</text>
<text transform="matrix(0.9771 -0.2129 0.2129 0.9771 208.8313 117.6401)" class="st1 st2 st5"> </text>
<text transform="matrix(0.9792 -0.2028 0.2028 0.9792 215.3467 116.2206)" class="st1 st2 st5">f</text>
<text transform="matrix(0.9814 -0.1917 0.1917 0.9814 221.8755 114.8649)" class="st1 st2 st5">r</text>
<text transform="matrix(0.9844 -0.1759 0.1759 0.9844 229.7155 113.3111)" class="st1 st2 st5">o</text>
<text transform="matrix(0.9885 -0.1514 0.1514 0.9885 242.8497 110.9242)" class="st1 st2 st5">m</text>
<text transform="matrix(0.9912 -0.1323 0.1323 0.9912 262.6211 107.9608)" class="st1 st2 st5"> </text>
<text transform="matrix(0.9933 -0.1152 0.1152 0.9933 269.2246 107.0335)" class="st1 st2 st5">N</text>
<text transform="matrix(0.9956 -9.387623e-02 9.387623e-02 0.9956 286.4446 105.0581)" class="st1 st2 st5">a</text>
<text transform="matrix(0.9968 -8.015319e-02 8.015319e-02 0.9968 299.735 103.8279)" class="st1 st2 st5">t</text>
<text transform="matrix(0.9978 -6.660497e-02 6.660497e-02 0.9978 306.3802 103.2711)" class="st1 st2 st5">u</text>
<text transform="matrix(0.9986 -5.235378e-02 5.235378e-02 0.9986 319.6997 102.4015)" class="st1 st2 st5">r</text>
<text transform="matrix(0.9993 -3.830283e-02 3.830283e-02 0.9993 327.6798 101.964)" class="st1 st2 st5">e</text>
<text transform="matrix(0.9997 -2.530596e-02 2.530596e-02 0.9997 341.0187 101.4748)" class="st1 st2 st5">,</text>
<text transform="matrix(0.9999 -1.674472e-02 1.674472e-02 0.9999 347.6848 101.3063)" class="st1 st2 st5"> </text>
<text transform="matrix(1 -1.534962e-03 1.534962e-03 1 354.3517 101.1542)" class="st1 st2 st5">R</text>
<text transform="matrix(0.9999 1.705114e-02 -1.705114e-02 0.9999 371.6841 101.146)" class="st1 st2 st5">h</text>
<text transform="matrix(0.9995 3.281515e-02 -3.281515e-02 0.9995 385.0297 101.3781)" class="st1 st2 st5">y</text>
<text transform="matrix(0.999 4.470931e-02 -4.470931e-02 0.999 397.0226 101.7876)" class="st1 st2 st5">t</text>
<text transform="matrix(0.9983 5.773730e-02 -5.773730e-02 0.9983 403.6854 102.0638)" class="st1 st2 st5">h</text>
<text transform="matrix(0.9968 8.008738e-02 -8.008738e-02 0.9968 417.0143 102.7964)" class="st1 st2 st5">m</text>
<text transform="matrix(0.9951 9.856297e-02 -9.856297e-02 0.9951 436.9374 104.4586)" class="st1 st2 st5"> </text>
<text transform="matrix(0.994 0.109 -0.109 0.994 443.5733 105.1121)" class="st1 st2 st5">-</text>
<text transform="matrix(0.9927 0.1205 -0.1205 0.9927 451.5181 105.9829)" class="st1 st2 st5">-</text>
<text transform="matrix(0.9914 0.1312 -0.1312 0.9914 459.4511 106.9488)" class="st1 st2 st5"> </text>
<text transform="matrix(0.9888 0.1492 -0.1492 0.9888 466.0688 107.7757)" class="st1 st2 st5">N</text>
<text transform="matrix(0.9847 0.174 -0.174 0.9847 483.2053 110.3777)" class="st1 st2 st5">T</text>
<text transform="matrix(0.9799 0.1996 -0.1996 0.9799 497.6463 112.9099)" class="st1 st2 st5">U</text>
<text transform="matrix(0.9756 0.2195 -0.2195 0.9756 514.6185 116.4228)" class="st1 st2 st5"> </text>
<text transform="matrix(0.9727 0.2319 -0.2319 0.9727 521.1251 117.8822)" class="st1 st2 st5">-</text>
<text transform="matrix(0.9693 0.2457 -0.2457 0.9693 528.8997 119.7358)" class="st1 st2 st5">-</text>
<text transform="matrix(0.966 0.2586 -0.2586 0.966 536.646 121.7035)" class="st1 st2 st5"> </text>
<text transform="matrix(0.96 0.2801 -0.2801 0.96 543.104 123.3697)" class="st1 st2 st5">U</text>
<text transform="matrix(0.9512 0.3086 -0.3086 0.9512 559.7347 128.2521)" class="st1 st2 st5">n</text>
<text transform="matrix(0.9452 0.3265 -0.3265 0.9452 572.4191 132.4068)" class="st1 st2 st5">i</text>
<text transform="matrix(0.9391 0.3436 -0.3436 0.9391 577.4695 134.1196)" class="st1 st2 st5">v</text>
<text transform="matrix(0.9294 0.3692 -0.3692 0.9294 588.7439 138.2329)" class="st1 st2 st5">e</text>
<text transform="matrix(0.9202 0.3915 -0.3915 0.9202 601.1368 143.1895)" class="st1 st2 st5">r</text>
<text transform="matrix(0.9106 0.4132 -0.4132 0.9106 608.5007 146.2965)" class="st1 st2 st5">s</text>
<text transform="matrix(0.8971 0.4418 -0.4418 0.8971 619.4354 151.2436)" class="st1 st2 st5">a</text>
<text transform="matrix(0.8859 0.4639 -0.4639 0.8859 631.388 157.1842)" class="st1 st2 st5">l</text>
<text transform="matrix(0.878 0.4786 -0.4786 0.878 636.115 159.6525)" class="st1 st2 st5"> </text>
<text transform="matrix(0.8635 0.5043 -0.5043 0.8635 641.9951 162.7991)" class="st1 st2 st5">L</text>
<text transform="matrix(0.848 0.5299 -0.5299 0.848 653.4922 169.5807)" class="st1 st2 st5">i</text>
<text transform="matrix(0.8368 0.5476 -0.5476 0.8368 658.0183 172.3999)" class="st1 st2 st5">f</text>
<text transform="matrix(0.8145 0.5802 -0.5802 0.8145 663.6392 175.9924)" class="st1 st2 st5">e</text>
<text transform="matrix(0.7842 0.6204 -0.6204 0.7842 674.4709 183.7936)" class="st1 st2 st5"> </text>
<text transform="matrix(1 0 0 1 -256 -9.131231e-06)" class="st2 st4"> </text>
<path id="SVGID_x5F_00000160877982091416054470000017146340761430165420_x5F_" class="st0" d="M72.7,253.5
	c0,0,67.1-123.1,291.6-123.1s265.3,114.7,265.3,114.7"/>
<text transform="matrix(0.7988 -0.6015 0.6015 0.7988 123.3049 199.8964)" class="st2 st4"> </text>
<text transform="matrix(0.8098 -0.5867 0.5867 0.8098 125.9596 197.8783)" class="st1 st2 st6">“</text>
<text transform="matrix(0.8304 -0.5571 0.5571 0.8304 131.3199 193.9218)" class="st1 st2 st6">P</text>
<text transform="matrix(0.8533 -0.5214 0.5214 0.8533 142.4132 186.5102)" class="st1 st2 st6">e</text>
<text transform="matrix(0.8685 -0.4957 0.4957 0.8685 151.9223 180.7398)" class="st1 st2 st6">r</text>
<text transform="matrix(0.8783 -0.4782 0.4782 0.8783 157.7095 177.4436)" class="st1 st2 st6">f</text>
<text transform="matrix(0.8907 -0.4545 0.4545 0.8907 162.5731 174.7538)" class="st1 st2 st6">e</text>
<text transform="matrix(0.9052 -0.425 0.425 0.9052 172.4865 169.707)" class="st1 st2 st6">c</text>
<text transform="matrix(0.915 -0.4035 0.4035 0.915 181.5498 165.4809)" class="st1 st2 st6">t</text>
<text transform="matrix(0.9208 -0.3899 0.3899 0.9208 186.6356 163.2428)" class="st1 st2 st6">i</text>
<text transform="matrix(0.9294 -0.369 0.369 0.9294 190.7135 161.4753)" class="st1 st2 st6">o</text>
<text transform="matrix(0.9406 -0.3396 0.3396 0.9406 201.0529 157.3718)" class="st1 st2 st6">n</text>
<text transform="matrix(0.9485 -0.3166 0.3166 0.9485 211.5238 153.6203)" class="st1 st2 st6">”</text>
<text transform="matrix(0.9536 -0.3011 0.3011 0.9536 217.843 151.5155)" class="st1 st2 st6"> </text>
<text transform="matrix(0.9601 -0.2796 0.2796 0.9601 223.1326 149.8101)" class="st1 st2 st6">=</text>
<text transform="matrix(0.966 -0.2586 0.2586 0.966 234.3558 146.5765)" class="st1 st2 st6"> </text>
<text transform="matrix(0.9695 -0.2453 0.2453 0.9695 239.7233 145.1396)" class="st1 st2 st6"> </text>
<text transform="matrix(0.9751 -0.2218 0.2218 0.9751 245.0982 143.725)" class="st1 st2 st6">N</text>
<text transform="matrix(0.9813 -0.1927 0.1927 0.9813 259.1886 140.5473)" class="st1 st2 st6">o</text>
<text transform="matrix(0.9857 -0.1683 0.1683 0.9857 270.1033 138.4039)" class="st1 st2 st6">n</text>
<text transform="matrix(0.9888 -0.1493 0.1493 0.9888 281.0715 136.5539)" class="st1 st2 st6">-</text>
<text transform="matrix(0.9917 -0.1286 0.1286 0.9917 287.6528 135.5255)" class="st1 st2 st6">S</text>
<text transform="matrix(0.9946 -0.1041 0.1041 0.9946 300.8843 133.8249)" class="st1 st2 st6">p</text>
<text transform="matrix(0.996 -8.896653e-02 8.896653e-02 0.996 311.9495 132.6928)" class="st1 st2 st6">i</text>
<text transform="matrix(0.9969 -7.841572e-02 7.841572e-02 0.9969 316.3749 132.2919)" class="st1 st2 st6">r</text>
<text transform="matrix(0.9977 -6.805057e-02 6.805057e-02 0.9977 323.0147 131.7751)" class="st1 st2 st6">i</text>
<text transform="matrix(0.9983 -5.887251e-02 5.887251e-02 0.9983 327.4478 131.4704)" class="st1 st2 st6">t</text>
<text transform="matrix(0.999 -4.388914e-02 4.388914e-02 0.999 332.9942 131.1229)" class="st1 st2 st6">u</text>
<text transform="matrix(0.9997 -2.452664e-02 2.452664e-02 0.9997 344.1065 130.6352)" class="st1 st2 st6">a</text>
<text transform="matrix(0.9999 -1.138961e-02 1.138961e-02 0.9999 355.2268 130.3846)" class="st1 st2 st6">l</text>
<text transform="matrix(1 -3.124557e-03 3.124557e-03 1 359.6699 130.3317)" class="st1 st2 st6">,</text>
<text transform="matrix(1 5.576704e-03 -5.576704e-03 1 365.2265 130.3146)" class="st1 st2 st6"> </text>
<text transform="matrix(0.9998 2.045166e-02 -2.045166e-02 0.9998 370.7837 130.3162)" class="st1 st2 st6">E</text>
<text transform="matrix(0.9992 3.969938e-02 -3.969938e-02 0.9992 384.1206 130.6041)" class="st1 st2 st6">x</text>
<text transform="matrix(0.9986 5.309611e-02 -5.309611e-02 0.9986 394.1119 131.0156)" class="st1 st2 st6">t</text>
<text transform="matrix(0.9977 6.799170e-02 -6.799170e-02 0.9977 399.6624 131.2898)" class="st1 st2 st6">e</text>
<text transform="matrix(0.9964 8.450787e-02 -8.450787e-02 0.9964 410.7586 132.0639)" class="st1 st2 st6">r</text>
<text transform="matrix(0.9948 0.1017 -0.1017 0.9948 417.3971 132.6071)" class="st1 st2 st6">n</text>
<text transform="matrix(0.9923 0.1243 -0.1243 0.9923 428.4628 133.7372)" class="st1 st2 st6">a</text>
<text transform="matrix(0.99 0.1407 -0.1407 0.99 439.4965 135.1466)" class="st1 st2 st6">l</text>
<text transform="matrix(0.9884 0.1516 -0.1516 0.9884 443.8959 135.7686)" class="st1 st2 st6">,</text>
<text transform="matrix(0.9864 0.1641 -0.1641 0.9864 449.3887 136.6115)" class="st1 st2 st6"> </text>
<text transform="matrix(0.9818 0.1899 -0.1899 0.9818 454.8838 137.45)" class="st1 st2 st6">M</text>
<text transform="matrix(0.9745 0.2242 -0.2242 0.9745 471.2324 140.6586)" class="st1 st2 st6">a</text>
<text transform="matrix(0.9693 0.2458 -0.2458 0.9693 482.0659 143.182)" class="st1 st2 st6">t</text>
<text transform="matrix(0.9633 0.2683 -0.2683 0.9633 487.4608 144.5155)" class="st1 st2 st6">e</text>
<text transform="matrix(0.956 0.2933 -0.2933 0.956 498.1686 147.528)" class="st1 st2 st6">r</text>
<text transform="matrix(0.9509 0.3094 -0.3094 0.9509 504.5329 149.4898)" class="st1 st2 st6">i</text>
<text transform="matrix(0.9431 0.3327 -0.3327 0.9431 508.7723 150.8252)" class="st1 st2 st6">a</text>
<text transform="matrix(0.9342 0.3567 -0.3567 0.9342 519.2474 154.5651)" class="st1 st2 st6">l</text>
<text transform="matrix(0.928 0.3726 -0.3726 0.928 523.4009 156.1454)" class="st1 st2 st6"> </text>
<text transform="matrix(0.9142 0.4053 -0.4053 0.9142 528.5896 158.1418)" class="st1 st2 st6">R</text>
<text transform="matrix(0.8935 0.449 -0.449 0.8935 541.7806 164.0294)" class="st1 st2 st6">e</text>
<text transform="matrix(0.8725 0.4887 -0.4887 0.8725 551.7224 169.0224)" class="st1 st2 st6">a</text>
<text transform="matrix(0.8558 0.5173 -0.5173 0.8558 561.3998 174.5051)" class="st1 st2 st6">l</text>
<text transform="matrix(0.8455 0.5339 -0.5339 0.8455 565.2032 176.8035)" class="st1 st2 st6">i</text>
<text transform="matrix(0.8275 0.5614 -0.5614 0.8275 568.986 179.1373)" class="st1 st2 st6">s</text>
<text transform="matrix(0.7898 0.6134 -0.6134 0.7898 577.3309 184.6634)" class="st1 st2 st6">m</text>
<text transform="matrix(1 0 0 1 -256 -9.131231e-06)" class="st2 st4"> </text>
<rect x="239.7" y="734.1" class="st0" width="280.8" height="42.8"/>
<text transform="matrix(1.0363 0 0 1 308.3691 751.4266)" class="st1 st2 st7 st8">POLITICAL</text>
<g>
	<path class="st1" d="M194.2,528.9L194.2,528.9c-1-1.5-2.1-3.1-3.4-4.6l-5.7-6.8c-0.2-0.2-0.3-0.3-0.5-0.4s-0.2-0.1-0.2-0.2
		c-0.2-0.1-0.4-0.2-0.7-0.3c-0.2-0.1-0.5-0.1-0.6-0.2c-0.2,0-0.4-0.1-0.5-0.1l-0.3,0l-0.1,0l2.5-4.3l13.5,2.1
		c1.7,0.3,3.2,0.3,4.4,0.2l0.1,0l-3.3,5.7l-0.1,0c-0.5-0.6-1-1-1.6-1.3c-0.5-0.3-1.1-0.5-1.8-0.6l-1.8-0.3l-3,5.2l0.6,0.8
		c0.2,0.3,0.5,0.5,0.7,0.7c0.2,0.2,0.5,0.3,0.6,0.4c0.1,0.1,0.3,0.1,0.4,0.2c0.2,0.1,0.4,0.2,0.7,0.3c0.3,0.1,0.6,0.2,0.8,0.2
		c0.2,0,0.4,0.1,0.6,0.1c0.2,0,0.3,0,0.3,0.1l0.1,0.1L194.2,528.9z M193,517.5l-7.3-1.2l4.7,5.6L193,517.5z"/>
	<path class="st1" d="M203.9,511c-0.2-0.2-0.4-0.4-0.6-0.6s-0.5-0.5-0.9-0.8c-0.4-0.3-0.7-0.5-1-0.7l-7.9-4.5
		c-0.3-0.2-0.7-0.4-1.1-0.5s-0.8-0.3-1.1-0.4c-0.3-0.1-0.6-0.2-0.9-0.2c-0.3-0.1-0.4-0.1-0.4-0.1l-0.1,0l6.2-10.8l3.6,2.1l-0.1,0.1
		c0,0-0.3,0.1-0.8,0.2s-1,0.3-1.5,0.5s-1.1,0.5-1.7,0.8c-0.6,0.4-1,0.8-1.2,1.2l-1.2,2.1l5.7,3.3l0.1-0.2c0.2-0.4,0.5-0.9,0.6-1.5
		c0.2-0.6,0.3-1.1,0.4-1.5c0.1-0.4,0.1-0.8,0.2-1.2s0.1-0.6,0.1-0.6l0.1-0.1l3,1.7l-0.1,0.1c0,0-0.2,0.2-0.5,0.4
		c-0.3,0.2-0.6,0.5-1,0.8c-0.3,0.3-0.7,0.6-1.1,1.1c-0.4,0.5-0.7,0.9-1,1.3l-0.1,0.2l7.1,4.1l-2.5,4.3l-0.1,0
		C204.2,511.3,204.1,511.2,203.9,511z"/>
	<path class="st1" d="M212,497.1c-0.2-0.2-0.4-0.4-0.6-0.6s-0.5-0.5-0.9-0.8c-0.4-0.3-0.7-0.5-1-0.7l-7.9-4.5
		c-0.3-0.2-0.7-0.4-1.1-0.5s-0.8-0.3-1.1-0.4c-0.3-0.1-0.6-0.2-0.9-0.2c-0.3-0.1-0.4-0.1-0.4-0.1l-0.1,0l6.2-10.8l3.6,2.1l-0.1,0.1
		c0,0-0.3,0.1-0.8,0.2s-1,0.3-1.5,0.5s-1.1,0.5-1.7,0.8c-0.6,0.4-1,0.8-1.2,1.2l-1.2,2.1l5.7,3.3l0.1-0.2c0.2-0.4,0.5-0.9,0.6-1.5
		c0.2-0.6,0.3-1.1,0.4-1.5c0.1-0.4,0.1-0.8,0.2-1.2s0.1-0.6,0.1-0.6l0.1-0.1l3,1.7l-0.1,0.1c0,0-0.2,0.2-0.5,0.4
		c-0.3,0.2-0.6,0.5-1,0.8c-0.3,0.3-0.7,0.6-1.1,1.1c-0.4,0.5-0.7,0.9-1,1.3l-0.1,0.2l7.1,4.1l-2.5,4.3l-0.1,0
		C212.3,497.4,212.2,497.3,212,497.1z"/>
	<path class="st1" d="M206.1,475.2L206.1,475.2l6.3-11.1l3.8,2.2l-0.1,0.1c0,0-0.3,0.1-0.8,0.2c-0.5,0.1-1,0.3-1.6,0.4
		s-1.1,0.4-1.8,0.8c-0.6,0.4-1,0.8-1.3,1.2l-1.4,2.4l5.8,3.4l0.4-0.7c0.3-0.4,0.5-1,0.7-1.5c0.2-0.6,0.3-1.1,0.4-1.5
		c0.1-0.4,0.1-0.8,0.2-1.2s0.1-0.6,0.1-0.6l0.1-0.1l3,1.7l-0.1,0.1c0,0-0.2,0.2-0.5,0.4c-0.3,0.2-0.6,0.5-1,0.8
		c-0.3,0.3-0.7,0.6-1.1,1.1c-0.4,0.5-0.8,0.9-1,1.4l-0.4,0.7l6.1,3.5l1.4-2.5c0.3-0.4,0.4-1,0.4-1.7c0-0.7-0.1-1.3-0.2-1.9
		s-0.3-1.1-0.4-1.6s-0.2-0.8-0.2-0.8l0.1-0.1l3.8,2.2l-6.4,11.2l-0.1,0c0,0-0.1-0.1-0.3-0.3s-0.4-0.4-0.6-0.6s-0.5-0.5-0.9-0.8
		c-0.4-0.3-0.7-0.5-1-0.7l-7.9-4.5c-0.3-0.2-0.7-0.4-1.1-0.5s-0.8-0.3-1.1-0.4c-0.3-0.1-0.6-0.2-0.9-0.2
		C206.2,475.2,206.1,475.2,206.1,475.2z"/>
	<path class="st1" d="M217.3,459.9c-0.6-2.2-0.2-4.3,1-6.5c0.7-1.3,2-2.9,3.8-4.7l4,2.3l-0.1,0.1c-3.6,0.3-5.8,1-6.5,2.4
		c-0.6,1-0.5,2.2,0.4,3.7s2.1,2.7,4,3.8c1.9,1.1,3.6,1.6,5.3,1.6s2.8-0.5,3.4-1.5c0.4-0.7,0.5-1.7,0.2-2.9c-0.3-1.2-0.8-2.5-1.5-4
		l0.1-0.1l4,2.3c-0.7,2.5-1.4,4.4-2.2,5.8c-1.2,2.1-2.9,3.4-5,4c-2.2,0.6-4.4,0.2-6.6-1C219.2,463.8,217.8,462,217.3,459.9z"/>
	<path class="st1" d="M227.8,447.9l-4.6-2.6l7.7-13.4l4.6,2.6l-0.1,0.1l-1.3,0.2c-0.9,0.1-1.8,0.3-2.8,0.7c-1,0.3-1.6,0.8-1.9,1.4
		l-0.3,0.5l10.2,5.9c0.3,0.2,0.7,0.4,1.1,0.5s0.8,0.3,1.1,0.4c0.3,0.1,0.6,0.2,0.9,0.2c0.3,0.1,0.4,0.1,0.4,0.1l0.1,0l-2.8,4.9
		l-0.1,0c0,0-0.1-0.1-0.3-0.3s-0.4-0.4-0.6-0.6s-0.5-0.5-0.9-0.8c-0.4-0.3-0.7-0.5-1-0.7L227,441l-0.3,0.5c-0.3,0.6-0.4,1.4-0.2,2.4
		c0.2,1,0.5,1.9,0.8,2.8l0.5,1.2L227.8,447.9z"/>
	<path class="st1" d="M232.8,428.8L232.8,428.8l2.7-4.9l0.1,0c0,0,0.1,0.1,0.2,0.2c0.1,0.1,0.2,0.2,0.3,0.3s0.3,0.3,0.5,0.5
		c0.2,0.2,0.4,0.4,0.6,0.5c0.2,0.2,0.4,0.3,0.6,0.5s0.5,0.3,0.7,0.5l7.9,4.5c0.2,0.1,0.5,0.3,0.8,0.4s0.5,0.2,0.8,0.3
		c0.2,0.1,0.5,0.2,0.7,0.2s0.5,0.1,0.6,0.2c0.2,0,0.3,0.1,0.5,0.1s0.2,0.1,0.2,0.1l0.1,0l-2.8,4.9l-0.1,0c0,0-0.1-0.1-0.3-0.3
		s-0.4-0.4-0.6-0.6s-0.5-0.5-0.9-0.8c-0.4-0.3-0.7-0.5-1-0.7l-7.9-4.5c-0.3-0.2-0.7-0.4-1.1-0.5s-0.8-0.3-1.1-0.4
		c-0.3-0.1-0.6-0.2-0.9-0.2C233,428.9,232.8,428.8,232.8,428.8z"/>
	<path class="st1" d="M237.4,421l-0.1-0.1l3.3-5.8l0.1,0l0.1,0.1c0.1,0.1,0.2,0.2,0.3,0.3c0.1,0.1,0.2,0.2,0.4,0.3
		c0.1,0.1,0.3,0.3,0.5,0.4c0.2,0.1,0.4,0.2,0.6,0.4s0.4,0.2,0.7,0.3s0.5,0.1,0.8,0.2l10.4,1.6l-6.2-7.4c-0.2-0.2-0.4-0.4-0.6-0.6
		c-0.2-0.2-0.4-0.3-0.5-0.4c-0.1-0.1-0.2-0.1-0.3-0.2c-0.2-0.1-0.3-0.2-0.5-0.3c-0.2-0.1-0.4-0.2-0.6-0.2c-0.2-0.1-0.4-0.1-0.6-0.2
		c-0.2-0.1-0.4-0.1-0.5-0.1c-0.1,0-0.2-0.1-0.4-0.1l-0.2,0l-0.1-0.1l1.8-3.1l0.1,0c0,0,0.2,0.3,0.5,0.8c0.3,0.5,0.8,1.1,1.3,1.9
		c0.5,0.7,1,1.4,1.5,1.9l7.8,9.4l-1.8,3.1l-13.5-2c-0.5-0.1-1.2-0.1-1.8-0.1c-0.7,0-1.3,0-1.7,0C237.7,421,237.4,421,237.4,421z"/>
	<path class="st1" d="M247.6,403.3L247.6,403.3l6.3-11.1l3.8,2.2l-0.1,0.1c0,0-0.3,0.1-0.8,0.2c-0.5,0.1-1,0.3-1.6,0.4
		c-0.6,0.2-1.1,0.4-1.8,0.8c-0.6,0.4-1,0.8-1.3,1.2l-1.4,2.4l5.8,3.4l0.4-0.7c0.3-0.4,0.5-1,0.7-1.5c0.2-0.6,0.3-1.1,0.4-1.5
		c0.1-0.4,0.1-0.8,0.2-1.2s0.1-0.6,0.1-0.6l0.1-0.1l3,1.7l-0.1,0.1c0,0-0.2,0.2-0.5,0.4c-0.3,0.2-0.6,0.5-1,0.8
		c-0.3,0.3-0.7,0.6-1.1,1.1c-0.4,0.5-0.8,0.9-1,1.4l-0.4,0.7l6.1,3.5l1.4-2.5c0.3-0.4,0.4-1,0.4-1.7c0-0.7-0.1-1.3-0.2-1.9
		s-0.3-1.1-0.4-1.6c-0.2-0.5-0.2-0.8-0.2-0.8l0.1-0.1l3.8,2.2l-6.4,11.2l-0.1,0c0,0-0.1-0.1-0.3-0.3s-0.4-0.4-0.6-0.6
		s-0.5-0.5-0.9-0.8s-0.7-0.5-1-0.7l-7.9-4.5c-0.3-0.2-0.7-0.4-1.1-0.5s-0.8-0.3-1.1-0.4c-0.3-0.1-0.6-0.2-0.9-0.2
		C247.7,403.3,247.6,403.3,247.6,403.3z"/>
</g>
<g>
	<path class="st1" d="M516.2,411.4c2.2,0.6,3.9,2,5.1,4.1c0.7,1.3,1.5,3.2,2.2,5.6l-4,2.3l-0.1-0.1c1.6-3.3,2-5.5,1.2-6.8
		c-0.6-1-1.7-1.5-3.4-1.5c-1.7,0-3.4,0.5-5.3,1.6c-1.8,1.1-3.2,2.3-4,3.8c-0.8,1.5-0.9,2.7-0.3,3.7c0.4,0.7,1.2,1.3,2.4,1.6
		c1.2,0.3,2.6,0.6,4.2,0.7l0.1,0.1l-4,2.3c-1.8-1.8-3.1-3.4-3.9-4.8c-1.2-2.1-1.5-4.2-0.9-6.4c0.6-2.2,2-3.9,4.2-5.2
		C511.8,411.1,514,410.8,516.2,411.4z"/>
	<path class="st1" d="M518.8,428.3c2.2-1.3,4.4-1.6,6.5-1c2.2,0.6,3.8,1.9,5,4s1.5,4.2,0.9,6.4c-0.6,2.2-2,3.9-4.2,5.1
		c-2.2,1.3-4.4,1.6-6.6,1c-2.2-0.6-3.9-1.9-5.1-4s-1.5-4.2-0.9-6.4C515.2,431.3,516.6,429.6,518.8,428.3z M519.1,433.9
		c-0.7,0.5-1.3,1.1-1.8,1.8c-0.5,0.6-0.9,1.3-1.1,1.9c-0.2,0.7-0.1,1.2,0.2,1.8s0.8,0.9,1.5,1c0.7,0.2,1.4,0.2,2.2,0
		c0.8-0.1,1.6-0.4,2.4-0.7c0.8-0.3,1.6-0.7,2.3-1.1s1.4-0.9,2-1.4c0.7-0.5,1.2-1.1,1.8-1.8c0.5-0.6,0.9-1.3,1-1.9
		c0.2-0.7,0.1-1.2-0.2-1.8c-0.4-0.7-1.1-1-2.1-1.1s-2.1,0.1-3.2,0.4c-1.1,0.4-2.1,0.8-3.1,1.4C520.5,432.9,519.8,433.3,519.1,433.9z
		"/>
	<path class="st1" d="M535.5,445.1c2.3,0.6,4,2.1,5.3,4.2c0.9,1.6,1.6,3.6,2,6l-4,2.3l-0.1-0.2c0,0,0.1-0.2,0.2-0.4s0.2-0.5,0.3-0.6
		s0.2-0.4,0.3-0.8s0.2-0.6,0.3-0.9s0.2-0.6,0.3-0.9c0.1-0.4,0.2-0.7,0.2-1s0-0.6,0-1s0-0.6-0.1-1c-0.1-0.3-0.2-0.6-0.3-0.9
		c0,0,0,0,0,0c-0.6-1.1-1.7-1.6-3.3-1.6c-1.5,0-3.3,0.6-5.2,1.7s-3.3,2.4-4.1,3.7s-0.8,2.6-0.2,3.8c0,0,0,0,0,0.1
		c0.3,0.6,0.8,1.1,1.5,1.6l2.9-1.7c0.3-0.2,0.7-0.5,1-0.9s0.5-0.7,0.7-1s0.3-0.6,0.5-0.9c0.1-0.3,0.2-0.5,0.2-0.5l0.1,0l3.2,5.5
		l-0.1,0c0,0-0.2,0.1-0.6,0.2c-0.4,0.1-0.8,0.3-1.4,0.5c-0.5,0.2-1,0.5-1.5,0.7l-2.8,1.6c-0.8-0.6-1.7-1.3-2.7-2.3s-1.8-2-2.4-3.1
		c-1.2-2.1-1.5-4.2-0.9-6.4s2-3.9,4.1-5.2C531.1,444.7,533.2,444.5,535.5,445.1z"/>
	<path class="st1" d="M531.8,467.1c0,0,0.2,0,0.7-0.1c0.4-0.1,0.9-0.1,1.3-0.2c0.5-0.1,1.1-0.2,1.7-0.5s1.2-0.5,1.7-0.7l6.1-3.5
		c0.3-0.2,0.7-0.5,1.1-0.8c0.4-0.3,0.6-0.6,0.9-0.9c0.2-0.3,0.4-0.5,0.6-0.8s0.3-0.4,0.3-0.4l0.1,0l2.6,4.5l-5.9,12.8l5.1-3
		c0.5-0.3,1-0.6,1.5-1.1c0.5-0.5,0.9-0.9,1.3-1.2s0.6-0.7,0.9-1c0.3-0.3,0.4-0.5,0.4-0.5l0.1-0.1l1.9,3.4l-0.1,0.1
		c0,0-0.2,0-0.7,0.1s-0.9,0.1-1.3,0.2c-0.5,0.1-1.1,0.2-1.7,0.5s-1.2,0.5-1.7,0.7L539,480l-1.3-2.3l6.9-15l-6.8,3.9
		c-0.5,0.3-1,0.6-1.5,1.1c-0.5,0.5-0.9,0.9-1.2,1.2c-0.3,0.4-0.6,0.7-0.9,1.1c-0.3,0.3-0.4,0.5-0.4,0.5l-0.1,0.1l-1.9-3.4
		L531.8,467.1z"/>
	<path class="st1" d="M556.1,476.4L556.1,476.4l2.9,4.8l-0.1,0c0,0-0.1,0-0.2,0.1c-0.1,0-0.3,0.1-0.5,0.1c-0.2,0-0.4,0.1-0.6,0.2
		s-0.5,0.1-0.7,0.2c-0.2,0.1-0.5,0.2-0.8,0.3c-0.3,0.1-0.5,0.2-0.8,0.4l-7.9,4.5c-0.2,0.1-0.5,0.3-0.7,0.5c-0.2,0.2-0.5,0.4-0.7,0.5
		c-0.2,0.2-0.4,0.3-0.6,0.5s-0.3,0.3-0.5,0.5s-0.2,0.2-0.3,0.3c-0.1,0.1-0.2,0.2-0.2,0.2l-0.1,0l-2.8-4.9l0.1,0c0,0,0.2,0,0.4-0.1
		c0.3-0.1,0.6-0.1,0.9-0.2s0.7-0.2,1.1-0.4s0.8-0.3,1.2-0.5l7.9-4.5c0.3-0.2,0.7-0.4,1-0.7c0.4-0.3,0.7-0.5,0.9-0.8
		c0.2-0.2,0.4-0.4,0.6-0.6C556,476.5,556.1,476.5,556.1,476.4z"/>
	<path class="st1" d="M556.2,487l4.6-2.6l7.7,13.4l-4.6,2.6l-0.1-0.1l0.5-1.2c0.4-0.8,0.6-1.8,0.8-2.8s0.1-1.8-0.2-2.4l-0.3-0.5
		l-10.2,5.9c-0.3,0.2-0.7,0.4-1,0.7s-0.7,0.5-0.9,0.8c-0.2,0.2-0.5,0.4-0.6,0.6c-0.2,0.2-0.3,0.3-0.3,0.3l-0.1,0l-2.8-4.9l0.1,0
		c0,0,0.2,0,0.4-0.1c0.3-0.1,0.6-0.1,0.9-0.2s0.7-0.2,1.1-0.4s0.8-0.3,1.2-0.5l10.2-5.9l-0.3-0.5c-0.3-0.6-1-1-1.9-1.4
		c-1-0.3-1.9-0.5-2.8-0.7l-1.3-0.2L556.2,487z"/>
	<path class="st1" d="M570.2,500.9L570.2,500.9l2.9,4.8l-0.1,0c0,0-0.1,0-0.2,0.1c-0.1,0-0.3,0.1-0.5,0.1c-0.2,0-0.4,0.1-0.6,0.2
		s-0.5,0.1-0.7,0.2c-0.2,0.1-0.5,0.2-0.8,0.3c-0.3,0.1-0.5,0.2-0.8,0.4l-7.9,4.5c-0.2,0.1-0.5,0.3-0.7,0.5c-0.2,0.2-0.5,0.3-0.7,0.5
		c-0.2,0.2-0.4,0.3-0.6,0.5s-0.3,0.3-0.5,0.5s-0.2,0.2-0.3,0.3c-0.1,0.1-0.2,0.2-0.2,0.2l-0.1,0l-2.8-4.9l0.1,0c0,0,0.2,0,0.4-0.1
		c0.3-0.1,0.6-0.1,0.9-0.2s0.7-0.2,1.1-0.4s0.8-0.3,1.2-0.5l7.9-4.5c0.3-0.2,0.7-0.4,1-0.7c0.4-0.3,0.7-0.5,0.9-0.8
		c0.2-0.2,0.4-0.4,0.6-0.6C570.1,501,570.2,500.9,570.2,500.9z"/>
	<path class="st1" d="M574.8,508.8L574.8,508.8l3.4,5.7l-0.1,0l-0.2,0c-0.1,0-0.2,0.1-0.4,0.1s-0.3,0.1-0.5,0.2
		c-0.2,0.1-0.4,0.2-0.6,0.2s-0.4,0.2-0.6,0.3c-0.2,0.1-0.4,0.3-0.6,0.4c-0.2,0.2-0.4,0.4-0.5,0.6l-6.6,8.2l9.5-1.7
		c0.3,0,0.5-0.1,0.8-0.2s0.5-0.2,0.6-0.2c0.1-0.1,0.2-0.1,0.3-0.2c0.2-0.1,0.3-0.2,0.5-0.3c0.2-0.1,0.3-0.3,0.5-0.4
		c0.2-0.1,0.3-0.3,0.5-0.4c0.2-0.2,0.3-0.3,0.4-0.3c0.1-0.1,0.2-0.2,0.3-0.3l0.1-0.2l0.1-0.1l1.8,3.1l-0.1,0c0,0-0.4,0-1,0
		c-0.6,0-1.4,0.1-2.3,0.2c-0.9,0.1-1.7,0.2-2.4,0.3l-12,2.1l-1.8-3.1l8.5-10.7c0.3-0.4,0.7-0.9,1-1.5s0.7-1.1,0.9-1.5
		C574.6,509,574.7,508.8,574.8,508.8z"/>
	<path class="st1" d="M585,526.5L585,526.5l6.5,11l-3.8,2.2l-0.1-0.1c0,0,0.1-0.3,0.2-0.8c0.2-0.5,0.3-1,0.4-1.6s0.2-1.2,0.2-1.9
		s-0.1-1.3-0.4-1.7l-1.4-2.4l-5.8,3.3l0.4,0.7c0.3,0.4,0.6,0.9,1,1.3s0.8,0.8,1.1,1.1c0.3,0.3,0.7,0.5,1,0.8
		c0.3,0.2,0.5,0.4,0.5,0.4l0.1,0.1l-3,1.7l-0.1-0.1c0,0,0-0.2-0.1-0.6c0-0.4-0.1-0.8-0.2-1.2s-0.2-1-0.4-1.5
		c-0.2-0.6-0.4-1.1-0.7-1.5l-0.4-0.7l-6.1,3.5l1.4,2.5c0.3,0.4,0.7,0.8,1.3,1.2s1.2,0.6,1.8,0.8s1.1,0.3,1.6,0.4
		c0.5,0.1,0.8,0.2,0.8,0.2l0.1,0.1l-3.8,2.2l-6.4-11.2l0.1,0c0,0,0.2,0,0.4-0.1c0.3-0.1,0.6-0.1,0.9-0.2c0.3-0.1,0.7-0.2,1.1-0.4
		c0.4-0.2,0.8-0.3,1.2-0.5l7.9-4.5c0.3-0.2,0.7-0.4,1-0.7c0.4-0.3,0.7-0.5,0.9-0.8c0.2-0.2,0.4-0.4,0.6-0.6
		C584.9,526.6,585,526.5,585,526.5z"/>
</g>
<rect x="236.4" y="643.3" class="st0" width="278.9" height="61.1"/>
<text transform="matrix(1.0363 0 0 1 329.8594 651.1483)" class="st9 st2 st10">European Aestethic</text>
<text transform="matrix(1.0363 0 0 1 331.4863 665.0477)" class="st9 st2 st10">Causes Self-Hatred</text>
<text transform="matrix(1.0363 0 0 1 307.8486 678.9383)" class="st9 st2 st10">Interiorization and Rejection </text>
<text transform="matrix(1.0363 0 0 1 279.9102 692.8377)" class="st9 st2 st10">of the “Non-European”    (natural)  Being</text>
<g>
	<path class="st9" d="M482.7,468.6l-4,5c-0.2,0.3-0.4,0.5-0.5,0.7c-0.1,0.1-0.1,0.2-0.1,0.5c0,0.2,0.1,0.4,0.1,0.4
		c0,0,0,0.1-0.2,0.1c0,0-0.1,0-0.1,0c-0.4-0.7-0.6-1.1-0.6-1.1c0,0-0.2-0.4-0.7-1.1c0,0,0.1-0.1,0.1-0.1s0.1,0,0.2,0
		c0,0.1,0.1,0.2,0.2,0.3c0.1,0.1,0.2,0.1,0.2,0.1c0.1,0,0.1,0,0.2-0.1c0.1,0,0.2-0.1,0.3-0.2c0.1-0.1,0.2-0.2,0.2-0.2l0.1-0.1l0.9-1
		c0,0,0-0.1,0-0.1c-0.1-0.3-0.3-0.5-0.4-0.8c-0.2-0.4-0.5-0.8-0.8-1.3l-0.1,0l-1.3,0.2c-0.4,0.1-0.7,0.1-0.8,0.2
		c-0.1,0-0.1,0.1-0.2,0.2c0,0.1,0,0.2,0.1,0.4s0.1,0.3,0.1,0.3c0,0,0,0-0.1,0.1c-0.1,0-0.1,0.1-0.2,0.1c-0.4-0.7-0.5-1-0.5-1.1
		c-0.1-0.1-0.2-0.2-0.2-0.4c-0.1-0.1-0.1-0.2-0.2-0.3c-0.1-0.1-0.2-0.2-0.2-0.4c0,0,0-0.1,0.1-0.1c0.1,0,0.1-0.1,0.2,0
		c0,0.1,0.1,0.2,0.2,0.3c0.1,0.1,0.2,0.2,0.3,0.2c0.3,0,0.7,0,1.2,0l5.4-0.8c0,0,0.1,0,0.2,0s0.2,0,0.2,0s0.1,0,0.2,0
		c0.1,0,0.1,0,0.2,0c0,0,0.1,0,0.1,0c0,0,0.1,0,0.1,0.1C482.6,468.4,482.6,468.4,482.7,468.6L482.7,468.6z M478.5,469.4
		c0.2,0.4,0.3,0.6,0.4,0.7c0.2,0.3,0.4,0.6,0.6,0.9h0.1l1.7-2.1L478.5,469.4C478.5,469.4,478.5,469.4,478.5,469.4z"/>
	<path class="st9" d="M483.9,475.6c0.4,0.6,0.5,1.3,0.2,1.9c-0.2,0.6-0.6,1.1-1,1.3c-0.6,0.4-1.3,0.4-2,0.2
		c-0.8-0.2-1.3-0.6-1.6-1.2c-0.1-0.2-0.3-0.5-0.3-0.8s-0.1-0.4-0.2-0.4c0-0.1-0.1-0.1-0.2-0.2s-0.1-0.1-0.1-0.1c0,0,0-0.1,0-0.1
		c0-0.1,0-0.1,0-0.1c0,0,0.1,0,0.2-0.1s0.3-0.1,0.5-0.2c0.2-0.1,0.4-0.2,0.7-0.4l4-2.3c0.2-0.1,0.4-0.3,0.6-0.4
		c0.1-0.1,0-0.3-0.1-0.6l0-0.1c0,0,0-0.1,0.1-0.1c0.1-0.1,0.2-0.1,0.2,0c0.1,0.2,0.3,0.4,0.4,0.5c0.1,0.1,0.2,0.3,0.3,0.4
		c0.1,0.1,0.2,0.1,0.2,0.2s0.1,0.1,0.2,0.1l0,0l0,0c0,0,0,0.1,0,0.1s0,0.1-0.1,0.1c-0.2,0-0.6,0.2-0.9,0.4l-1.7,1
		c-0.1,0-0.1,0.1-0.1,0.1c0,0,0,0,0,0c0.1,0.1,0.3,0.2,0.5,0.3S483.8,475.5,483.9,475.6z M483.2,475.6c-0.1-0.2-0.2-0.3-0.4-0.4
		s-0.4-0.1-0.5,0l-2.3,1.3c-0.2,0.1-0.3,0.3-0.3,0.6s0.1,0.5,0.3,0.8c0.2,0.4,0.6,0.6,1,0.6s0.9-0.1,1.4-0.4c0.5-0.3,0.8-0.7,1-1.1
		C483.5,476.5,483.5,476.1,483.2,475.6z"/>
	<path class="st9" d="M486.4,480.1c0.1,0.1,0.2,0.4,0.3,0.6c0.1,0.2,0.2,0.4,0.2,0.5c-0.3,0.2-0.6,0.5-0.9,0.7c0,0-0.1,0-0.1-0.1
		c0-0.1-0.1-0.2,0-0.2c0.2-0.1,0.3-0.3,0.3-0.6c0.1-0.2,0-0.5-0.1-0.7c-0.3-0.5-0.6-0.6-1-0.4c-0.1,0.1-0.2,0.1-0.2,0.2
		s-0.1,0.2-0.1,0.3s0,0.2,0,0.3c0,0.1,0,0.2,0,0.4c0,0.2,0,0.3,0,0.3c0,0,0,0.1,0,0.3c0,0.2,0,0.3,0,0.4s0,0.2,0,0.3s0,0.3-0.1,0.4
		c0,0.1-0.1,0.2-0.2,0.3c-0.1,0.1-0.2,0.2-0.2,0.2c-0.4,0.2-0.8,0.2-1.2,0.1c-0.4-0.2-0.8-0.5-1-0.9c-0.1-0.1-0.2-0.3-0.2-0.4
		c0-0.1-0.1-0.3-0.2-0.5c0-0.2-0.1-0.3-0.1-0.4c0.1-0.1,0.2-0.2,0.4-0.4c0.2-0.2,0.4-0.3,0.5-0.4c0.1,0,0.1,0.1,0.1,0.1
		c0.1,0.1,0.1,0.2,0,0.2c-0.2,0.1-0.3,0.4-0.3,0.7c-0.1,0.3,0,0.6,0.1,0.9c0.1,0.2,0.3,0.4,0.5,0.4s0.4,0,0.6-0.1
		c0.1-0.1,0.2-0.1,0.3-0.2c0.1-0.1,0.1-0.2,0.1-0.4c0-0.1,0-0.3,0-0.4c0-0.1,0-0.3,0-0.5s0-0.4,0-0.5c0-0.7,0.2-1.2,0.6-1.4
		c0.3-0.2,0.7-0.2,1.1-0.1C485.9,479.4,486.2,479.7,486.4,480.1z"/>
	<path class="st9" d="M487.2,482.9l-0.3-0.6c0,0,0-0.1,0.2-0.2c0,0,0.1,0,0.1,0c0.2,0.1,0.5,0.3,0.9,0.3c0.1,0,0.3,0,0.4,0
		c0.2,0,0.3,0,0.4,0c0.1,0,0.2,0,0.2,0c0.1,0.2,0.2,0.3,0.1,0.3l-1,0.6c0.1,0.2,0.2,0.4,0.5,0.8c0.2,0.4,0.3,0.5,0.3,0.6
		c0,0,0,0.1,0,0.1c-0.1,0.1-0.3,0.1-0.4,0.1l-0.8-1.4l-2.4,1.4c-0.3,0.1-0.4,0.3-0.5,0.6s0,0.5,0.1,0.7c0.1,0.2,0.3,0.4,0.5,0.5
		c0,0,0,0.1,0,0.1c0,0.1-0.1,0.1-0.1,0.1c-0.2,0-0.4-0.1-0.6-0.3c-0.2-0.1-0.4-0.3-0.5-0.6c-0.2-0.3-0.2-0.7-0.2-1s0.3-0.6,0.7-0.9
		L487.2,482.9z"/>
	<path class="st9" d="M491,487.9c0.2,0.4,0.3,0.7,0.2,1c-0.2,0.1-0.4,0.2-0.6,0.2c-0.2,0-0.2-0.1-0.3-0.2c-0.1-0.1-0.1-0.3,0-0.4
		c0-0.2,0-0.3-0.1-0.5c-0.1-0.2-0.3-0.3-0.6-0.4c-0.3,0-0.5,0-0.7,0.1l-1.5,0.9c-0.4,0.2-0.7,0.4-0.8,0.6c0,0,0,0.2,0,0.4
		c0,0.2,0.1,0.3,0.1,0.4c0,0,0,0.1-0.1,0.1s-0.1,0.1-0.2,0.1c-0.4-0.7-0.5-1.1-0.6-1.1c0,0-0.2-0.4-0.7-1.1c0,0,0.1-0.1,0.1-0.1
		c0.1,0,0.1-0.1,0.2,0c0,0.1,0.1,0.2,0.3,0.3s0.2,0.2,0.3,0.2c0.2-0.1,0.5-0.2,0.7-0.3l1.8-1.1c0.2-0.1,0.4-0.3,0.5-0.5
		c0-0.1,0-0.2,0-0.3s-0.1-0.2-0.1-0.3c0-0.1,0-0.1,0-0.1c0.2-0.1,0.2-0.1,0.3-0.1c0.5,0.7,0.9,1.1,1.1,1.2c0,0,0,0,0,0
		c0,0,0,0.1,0,0.1s-0.1,0.1-0.1,0.1l-0.5,0.2c0.2,0,0.5,0.1,0.8,0.2S490.8,487.7,491,487.9z"/>
	<path class="st9" d="M492.8,491.2c0.2,0.4,0.3,0.7,0.2,1s-0.3,0.5-0.7,0.7l-2.3,1.3c-0.1,0.1-0.2,0.2-0.3,0.3c0,0.1,0,0.3,0,0.4
		c0,0.1,0.2,0.2,0.3,0.3c0,0,0,0.1-0.1,0.1c-0.1,0-0.2,0.1-0.2,0.1c-0.4-0.1-0.6-0.3-0.8-0.5c-0.1-0.2-0.1-0.3-0.1-0.5
		s0.1-0.4,0.2-0.5c0,0,0,0-0.1,0c-0.1,0-0.2,0-0.2-0.1s-0.2-0.1-0.3-0.2s-0.2-0.1-0.3-0.3c-0.1-0.1-0.2-0.2-0.3-0.4
		c-0.2-0.3-0.2-0.6-0.2-0.9c0-0.3,0.2-0.5,0.5-0.7c0.1-0.1,0.3-0.1,0.5-0.1s0.3,0,0.5,0.1c0.1,0,0.3,0.1,0.5,0.3
		c0.2,0.1,0.3,0.2,0.5,0.3s0.3,0.2,0.5,0.4s0.3,0.3,0.4,0.3c0,0,0.1,0,0.2,0l0.7-0.4c0.2-0.1,0.3-0.3,0.4-0.5s0-0.4-0.1-0.6
		c-0.1-0.2-0.3-0.3-0.5-0.4c-0.2-0.1-0.4,0-0.6,0.1c-0.2,0.1-0.4,0.1-0.6-0.2c-0.1-0.2-0.1-0.4,0-0.5c0.3-0.2,0.7-0.1,1.2,0.2
		C492.2,490.4,492.6,490.8,492.8,491.2z M488.6,492.3c0,0.2,0,0.4,0.1,0.5s0.3,0.3,0.5,0.4c0.2,0.1,0.4,0.1,0.5,0.1l1-0.6
		c-0.1,0-0.2-0.1-0.4-0.3c-0.2-0.2-0.3-0.3-0.5-0.4c-0.1-0.1-0.3-0.2-0.4-0.2c-0.2,0-0.3,0-0.5,0.1
		C488.8,492,488.7,492.2,488.6,492.3z"/>
	<path class="st9" d="M495.3,495.5c0.4,0.7,0.6,1.4,0.4,1.8c-0.4,0.2-0.7,0.2-0.9,0c-0.1-0.1-0.1-0.2-0.1-0.3s0.1-0.2,0.1-0.4
		c0.2-0.4,0.2-0.7,0-1c-0.2-0.3-0.4-0.5-0.8-0.5c-0.4-0.1-0.8,0-1.3,0.3c-0.5,0.3-0.9,0.7-1.1,1.1c-0.2,0.5-0.2,0.9,0.1,1.4
		c0.1,0.1,0.2,0.3,0.3,0.4c0.1,0.1,0.2,0.2,0.3,0.3s0.2,0.1,0.2,0.2s0.1,0.1,0.2,0.1l0.1,0c0,0,0,0.1-0.1,0.1c0,0-0.1,0-0.2,0
		c-0.3,0-0.5-0.1-0.8-0.3c-0.3-0.2-0.5-0.4-0.7-0.7c-0.3-0.6-0.4-1.2-0.2-1.8c0.2-0.6,0.6-1.1,1.1-1.5c0.6-0.4,1.2-0.5,1.9-0.4
		C494.4,494.5,494.9,494.8,495.3,495.5z"/>
	<path class="st9" d="M496.2,498.4l-0.3-0.6c0,0,0-0.1,0.2-0.2c0,0,0.1,0,0.1,0c0.2,0.1,0.5,0.3,0.9,0.3c0.1,0,0.3,0,0.4,0
		c0.2,0,0.3,0,0.4,0c0.1,0,0.2,0,0.2,0c0.1,0.2,0.2,0.3,0.1,0.3l-1,0.6c0.1,0.2,0.2,0.4,0.5,0.8c0.2,0.4,0.3,0.5,0.3,0.6
		c0,0,0,0.1,0,0.1c-0.1,0.1-0.3,0.1-0.4,0.1l-0.8-1.4l-2.4,1.4c-0.3,0.1-0.4,0.3-0.5,0.6s0,0.5,0.1,0.7c0.1,0.2,0.3,0.4,0.5,0.5
		c0,0,0,0.1,0,0.1s-0.1,0.1-0.1,0.1c-0.2,0-0.4-0.1-0.6-0.3c-0.2-0.1-0.4-0.3-0.5-0.6c-0.2-0.3-0.2-0.7-0.2-1s0.3-0.6,0.7-0.9
		L496.2,498.4z"/>
	<path class="st9" d="M503.5,502.6l-9.2,1.3c0,0-0.1,0-0.2-0.1c-0.1-0.1-0.2-0.2-0.3-0.3c0,0,0-0.1,0-0.1c0,0,0-0.1,0-0.1l0,0
		l9.2-1.3c0.2,0,0.3,0.1,0.5,0.4C503.5,502.4,503.5,502.5,503.5,502.6z"/>
	<path class="st9" d="M503.7,505.1c0.2,0.3,0.3,0.6,0.6,1c0.2,0.4,0.4,0.6,0.5,0.8c0.6,1.1,0.8,2.1,0.5,3.1c-0.3,1-0.8,1.7-1.7,2.2
		c-1,0.5-1.9,0.7-2.9,0.4s-1.8-0.9-2.4-2c0-0.1-0.2-0.3-0.4-0.7c-0.2-0.4-0.4-0.8-0.6-1l-0.7-1.2c0,0,0-0.1,0.1-0.1
		c0.1,0,0.1-0.1,0.2,0c0,0.1,0.2,0.2,0.3,0.4c0.2,0.1,0.3,0.2,0.3,0.2c0.1,0,0.4-0.1,1-0.5l3.7-2.1c0.4-0.2,0.7-0.4,0.8-0.6
		c0,0,0-0.2,0-0.4s-0.1-0.4-0.2-0.4c0,0,0-0.1,0.1-0.1c0.1,0,0.2-0.1,0.2-0.1C503.2,504.2,503.4,504.6,503.7,505.1z M502.8,506.2
		l-3.9,2.2c-0.3,0.2-0.5,0.4-0.7,0.6c0,0.1,0,0.3,0.2,0.6c0.2,0.4,0.3,0.6,0.4,0.8c0.9,1.6,2.3,1.8,4.3,0.7c0.7-0.4,1.3-1,1.5-1.7
		c0.3-0.7,0.2-1.5-0.2-2.2l0,0c-0.4-0.7-0.7-1.1-0.9-1.1C503.3,505.9,503.1,506,502.8,506.2z"/>
	<path class="st9" d="M503,515.6c-0.4,0.2-0.7,0.4-0.8,0.6c0,0,0,0.2,0,0.3c0,0.2,0.1,0.3,0.1,0.4c0,0,0,0.1-0.1,0.1
		s-0.1,0.1-0.2,0.1c-0.4-0.7-0.5-1.1-0.6-1.1s-0.3-0.4-0.7-1.1c0,0,0.1-0.1,0.1-0.1c0.1,0,0.1-0.1,0.2,0c0,0.1,0.1,0.2,0.3,0.3
		s0.2,0.2,0.3,0.2c0.2-0.1,0.5-0.2,0.7-0.3l1.8-1.1c0.2-0.2,0.4-0.3,0.5-0.5c0-0.1,0-0.2,0-0.3s-0.1-0.2-0.1-0.3c0-0.1,0-0.1,0-0.1
		c0.2-0.1,0.2-0.1,0.3-0.1c0.5,0.7,0.9,1.1,1.1,1.2l0,0c0,0,0,0,0,0c0,0,0,0.1,0,0.1s-0.1,0.1-0.1,0.1c-0.3,0.1-0.5,0.2-0.7,0.4
		L503,515.6z M506.6,512.4c0-0.2,0.1-0.3,0.3-0.3c0.1-0.1,0.3-0.1,0.4,0c0.2,0,0.3,0.1,0.3,0.3c0.1,0.1,0.1,0.3,0.1,0.4
		c0,0.2-0.1,0.3-0.3,0.3s-0.3,0.1-0.4,0c-0.2,0-0.3-0.1-0.3-0.3C506.6,512.7,506.6,512.5,506.6,512.4z"/>
	<path class="st9" d="M507.6,516.7c0.1,0.2,0.2,0.3,0.3,0.6c0.1,0.2,0.2,0.4,0.2,0.5c-0.3,0.2-0.6,0.5-0.9,0.7c0,0-0.1,0-0.1-0.1
		c0-0.1-0.1-0.2,0-0.2c0.2-0.1,0.3-0.3,0.3-0.6s0-0.5-0.1-0.7c-0.3-0.5-0.6-0.6-1-0.4c-0.1,0.1-0.2,0.1-0.2,0.2s-0.1,0.2-0.1,0.3
		s0,0.2,0,0.3c0,0.1,0,0.2,0,0.4c0,0.2,0,0.3,0,0.3c0,0,0,0.1,0,0.3c0,0.2,0,0.3,0,0.4s0,0.2,0,0.3s0,0.3-0.1,0.3
		c0,0.1-0.1,0.2-0.2,0.3c-0.1,0.1-0.2,0.2-0.2,0.2c-0.4,0.2-0.8,0.2-1.2,0.1s-0.8-0.5-1-0.9c-0.1-0.1-0.2-0.3-0.2-0.4
		c0-0.1-0.1-0.3-0.2-0.5c0-0.2-0.1-0.3-0.1-0.4c0.1-0.1,0.2-0.2,0.4-0.4c0.2-0.2,0.4-0.3,0.5-0.4c0.1,0,0.1,0.1,0.1,0.1
		c0.1,0.1,0.1,0.2,0,0.2c-0.2,0.2-0.3,0.4-0.3,0.7s0,0.6,0.1,0.9c0.1,0.2,0.3,0.4,0.5,0.4s0.4,0,0.6-0.1c0.1-0.1,0.2-0.2,0.3-0.2
		c0.1-0.1,0.1-0.2,0.1-0.4s0-0.3,0-0.4s0-0.3,0-0.5c0-0.2,0-0.3,0-0.5c0-0.7,0.2-1.2,0.6-1.4c0.3-0.2,0.7-0.2,1.1-0.1
		C507,516,507.3,516.3,507.6,516.7z"/>
	<path class="st9" d="M508.4,519.6l-0.3-0.6c0,0,0-0.1,0.2-0.2c0,0,0.1,0,0.1,0c0.2,0.2,0.5,0.3,0.9,0.3c0.1,0,0.3,0,0.4,0
		c0.2,0,0.3,0,0.4,0c0.1,0,0.2,0,0.2,0c0.1,0.2,0.2,0.3,0.1,0.3l-1,0.6c0.1,0.2,0.2,0.4,0.5,0.8c0.2,0.4,0.3,0.5,0.3,0.6
		c0,0,0,0.1,0,0.1c-0.1,0.1-0.3,0.1-0.4,0.1l-0.8-1.3l-2.4,1.4c-0.3,0.2-0.4,0.3-0.5,0.6s0,0.5,0.1,0.7c0.1,0.2,0.3,0.4,0.5,0.5
		c0,0,0,0.1,0,0.1c0,0.1-0.1,0.1-0.1,0.1c-0.2,0-0.4-0.1-0.6-0.3c-0.2-0.2-0.4-0.3-0.5-0.6c-0.2-0.3-0.2-0.7-0.2-1
		c0.1-0.3,0.3-0.6,0.7-0.9L508.4,519.6z"/>
	<path class="st9" d="M511.8,524c0.2,0.4,0.3,0.7,0.2,1s-0.3,0.5-0.7,0.7L509,527c-0.1,0.1-0.2,0.2-0.3,0.3c0,0.1,0,0.3,0,0.4
		c0,0.1,0.2,0.2,0.3,0.3c0,0,0,0.1-0.1,0.1c-0.1,0-0.2,0.1-0.2,0.1c-0.4-0.2-0.6-0.3-0.8-0.5c-0.1-0.2-0.1-0.3-0.1-0.5
		c0-0.2,0.1-0.4,0.2-0.5c0,0,0,0-0.1,0c-0.1,0-0.2,0-0.2-0.1c-0.1,0-0.2-0.1-0.3-0.2s-0.2-0.2-0.3-0.3s-0.2-0.2-0.3-0.4
		c-0.2-0.3-0.2-0.6-0.2-0.9s0.2-0.5,0.5-0.7c0.1-0.1,0.3-0.1,0.5-0.1s0.3,0,0.5,0.1c0.1,0,0.3,0.1,0.5,0.3s0.3,0.2,0.5,0.3
		s0.3,0.2,0.5,0.4c0.2,0.2,0.3,0.3,0.4,0.3c0,0,0.1,0,0.2,0l0.7-0.4c0.2-0.1,0.3-0.3,0.4-0.5c0-0.2,0-0.4-0.1-0.6
		c-0.1-0.2-0.3-0.3-0.5-0.4c-0.2-0.1-0.4,0-0.6,0.1c-0.2,0.1-0.4,0.1-0.6-0.2c-0.1-0.2-0.1-0.4,0-0.5c0.3-0.2,0.7-0.1,1.2,0.2
		C511.1,523.2,511.5,523.5,511.8,524z M507.6,525.1c0,0.2,0,0.3,0.1,0.5s0.3,0.3,0.5,0.4c0.2,0.1,0.4,0.1,0.5,0.1l1-0.6
		c-0.1,0-0.2-0.1-0.4-0.3c-0.2-0.2-0.3-0.3-0.5-0.4s-0.3-0.2-0.4-0.2c-0.2,0-0.3,0-0.5,0.1C507.7,524.8,507.6,525,507.6,525.1z"/>
	<path class="st9" d="M514.8,529.2c0.3,0.5,0.3,0.9,0.1,1.3s-0.7,0.8-1.4,1.2l-0.9,0.5c-0.4,0.2-0.7,0.4-0.8,0.6c0,0,0,0.2,0,0.3
		c0,0.2,0.1,0.3,0.1,0.4c0,0,0,0.1-0.1,0.1s-0.1,0.1-0.2,0.1c-0.4-0.7-0.5-1.1-0.6-1.1c0,0-0.2-0.4-0.7-1c0,0,0.1-0.1,0.1-0.1
		c0.1,0,0.1-0.1,0.2,0c0,0.1,0.1,0.2,0.3,0.3s0.2,0.2,0.3,0.2c0.2-0.1,0.5-0.2,0.7-0.3l1-0.6c0.6-0.3,1-0.7,1.1-1
		c0.1-0.3,0.1-0.6-0.1-1c-0.1-0.2-0.3-0.4-0.6-0.5s-0.5-0.1-0.6-0.1l-1.7,1c-0.4,0.2-0.7,0.4-0.8,0.6c0,0,0,0.2,0,0.3
		c0,0.2,0.1,0.3,0.1,0.4c0,0,0,0.1-0.1,0.1s-0.1,0.1-0.2,0.1c-0.4-0.7-0.5-1.1-0.6-1.1c0,0-0.2-0.4-0.7-1.1c0,0,0.1-0.1,0.1-0.1
		c0.1,0,0.1-0.1,0.2,0c0,0.1,0.1,0.2,0.3,0.3s0.2,0.2,0.3,0.2c0.2-0.1,0.5-0.2,0.7-0.3l1.8-1.1c0.2-0.2,0.4-0.3,0.5-0.5
		c0-0.1,0-0.2,0-0.3c0-0.1-0.1-0.2-0.1-0.3s0-0.1,0-0.1c0.2-0.1,0.2-0.1,0.3-0.1c0.5,0.7,0.9,1.1,1.1,1.2c0,0,0,0,0,0
		c0,0,0,0.1,0,0.1s-0.1,0.1-0.1,0.1c-0.2,0.1-0.3,0.1-0.4,0.2c0,0,0,0,0,0c0,0,0,0,0,0c0.2,0.1,0.5,0.2,0.8,0.4
		C514.4,528.7,514.6,528.9,514.8,529.2z"/>
	<path class="st9" d="M515.9,532.6l-0.3-0.6c0,0,0-0.1,0.2-0.2c0,0,0.1,0,0.1,0c0.2,0.2,0.5,0.3,0.9,0.3c0.1,0,0.3,0,0.4,0
		c0.2,0,0.3,0,0.4,0c0.1,0,0.2,0,0.2,0c0.1,0.2,0.2,0.3,0.1,0.3l-1,0.6c0.1,0.2,0.2,0.4,0.5,0.8s0.3,0.5,0.3,0.6c0,0,0,0.1,0,0.1
		c-0.1,0.1-0.3,0.1-0.4,0.1l-0.8-1.3l-2.4,1.4c-0.3,0.2-0.4,0.3-0.5,0.6s0,0.5,0.1,0.7c0.1,0.2,0.3,0.4,0.5,0.5c0,0,0,0.1,0,0.1
		c0,0.1-0.1,0.1-0.1,0.1c-0.2,0-0.4-0.1-0.6-0.3c-0.2-0.2-0.4-0.3-0.5-0.6c-0.2-0.3-0.2-0.7-0.2-1c0.1-0.3,0.3-0.6,0.7-0.9
		L515.9,532.6z"/>
	<path class="st9" d="M483.7,498.2c0.1,0.2,0.3,0.4,0.4,0.7c0.2,0.3,0.3,0.5,0.4,0.7c0.1,0.2,0.2,0.5,0.3,0.7s0.1,0.5,0.1,0.8
		c0,0.3-0.1,0.6-0.3,0.8c-0.2,0.3-0.4,0.5-0.7,0.7c-0.2,0.1-0.4,0.2-0.7,0.2c-0.3,0-0.5,0-0.8,0s-0.6-0.2-0.9-0.4s-0.5-0.5-0.7-0.8
		c-0.2-0.4-0.3-0.7-0.2-0.9c0-0.1,0.1-0.1,0.2-0.2c0,0,0,0,0,0c0,0.2,0.1,0.5,0.3,0.7c0.2,0.3,0.5,0.5,0.9,0.6
		c0.4,0.1,0.8,0,1.2-0.2c0.5-0.3,0.8-0.6,0.9-1c0.2-0.4,0.1-0.8-0.2-1.2c-0.2-0.3-0.3-0.5-0.5-0.7c0,0-0.1,0-0.1,0s-0.2,0.1-0.3,0.1
		c-0.2,0.1-0.4,0.2-0.7,0.4l-3.5,2c-0.4,0.2-0.7,0.4-0.8,0.6c-0.1,0.1-0.1,0.2,0,0.5c0.1,0.2,0.1,0.4,0.2,0.5c0,0,0,0.1-0.1,0.1
		c-0.1,0-0.1,0.1-0.2,0.1c-0.4-0.7-0.6-1.1-0.7-1.4l-0.8-1.2c0,0,0.1-0.1,0.2-0.1c0.1,0,0.1-0.1,0.1,0c0,0.1,0.2,0.2,0.3,0.4
		c0.1,0.1,0.2,0.2,0.3,0.2c0.1,0,0.4-0.1,1-0.5l3.7-2.1c0.4-0.2,0.7-0.4,0.8-0.6c0,0,0-0.2,0-0.4c-0.1-0.2-0.1-0.4-0.2-0.4
		c0,0,0-0.1,0.1-0.1c0.1,0,0.2-0.1,0.2-0.1L483.7,498.2z"/>
	<path class="st9" d="M485.4,508.3l-2,1.1c-0.3,0.2-0.5,0.3-0.7,0.5c0,0,0,0.1,0,0.2c0,0.1,0,0.1,0.1,0.2c0,0.1,0.1,0.1,0.1,0.2
		l0,0.1c0,0,0,0-0.1,0.1c0,0-0.1,0-0.1,0s-0.1,0-0.1,0c-0.1-0.1-0.1-0.2-0.2-0.3c-0.1-0.1-0.2-0.2-0.3-0.3s-0.2-0.2-0.2-0.3
		c-0.1-0.1-0.2-0.1-0.2-0.2l-0.1-0.1c0,0,0-0.1,0.1-0.2l0.5-0.3l0,0c-0.7-0.2-1.2-0.5-1.5-0.9c-0.1-0.2-0.2-0.5-0.2-0.8
		s0.1-0.5,0.2-0.7s0.3-0.4,0.5-0.5s0.3-0.3,0.5-0.4l1.2-0.7c0.2-0.1,0.4-0.3,0.5-0.5c0-0.1,0-0.2,0-0.3c0-0.1-0.1-0.2-0.1-0.3
		c0-0.1,0-0.1,0-0.1c0.2-0.1,0.2-0.1,0.3-0.1c0.5,0.7,0.9,1.1,1.1,1.2c0,0,0,0,0,0c0,0,0,0.1,0,0.1s-0.1,0.1-0.1,0.1
		c-0.3,0.1-0.6,0.3-0.8,0.4l-1.3,0.8c-0.5,0.3-0.8,0.6-1,0.9c-0.2,0.3-0.1,0.6,0.1,1c0.1,0.2,0.3,0.4,0.6,0.5c0.3,0.1,0.4,0.1,0.5,0
		l1.8-1.1c0.2-0.1,0.4-0.3,0.5-0.5c0-0.1,0-0.2,0-0.3c0-0.1-0.1-0.2-0.1-0.3c0-0.1,0-0.1,0-0.1c0.2-0.1,0.2-0.1,0.3-0.1
		c0.5,0.7,0.9,1.1,1.1,1.2c0,0,0,0,0,0c0,0,0,0.1,0,0.1s-0.1,0.1-0.1,0.1C485.8,508.1,485.6,508.2,485.4,508.3z"/>
	<path class="st9" d="M488.5,511.5c0.2,0.4,0.3,0.7,0.2,1c-0.2,0.1-0.4,0.2-0.6,0.2c-0.2,0-0.2-0.1-0.3-0.2c-0.1-0.1-0.1-0.3,0-0.4
		c0-0.2,0-0.3-0.1-0.5c-0.1-0.2-0.3-0.3-0.6-0.4c-0.3,0-0.5,0-0.7,0.1l-1.5,0.8c-0.4,0.2-0.7,0.4-0.8,0.6c0,0,0,0.2,0,0.3
		s0.1,0.3,0.1,0.4c0,0,0,0.1-0.1,0.1s-0.1,0.1-0.2,0.1c-0.4-0.7-0.5-1.1-0.6-1.1c0,0-0.2-0.4-0.7-1.1c0,0,0.1-0.1,0.1-0.1
		c0.1,0,0.1-0.1,0.2,0c0,0.1,0.1,0.2,0.3,0.3s0.2,0.2,0.3,0.2c0.2-0.1,0.5-0.2,0.7-0.3l1.8-1.1c0.2-0.1,0.4-0.3,0.5-0.5
		c0-0.1,0-0.2,0-0.3c0-0.1-0.1-0.2-0.1-0.3s0-0.1,0-0.1c0.2-0.1,0.2-0.1,0.3-0.1c0.5,0.7,0.9,1.1,1.1,1.2c0,0,0,0,0,0
		c0,0,0,0.1,0,0.1s-0.1,0.1-0.1,0.1l-0.5,0.2c0.2,0,0.5,0.1,0.8,0.2C488.2,511.2,488.4,511.3,488.5,511.5z"/>
	<path class="st9" d="M490.4,514.8c0.2,0.3,0.3,0.6,0.3,0.9c0,0.3,0,0.6-0.1,0.8s-0.2,0.4-0.4,0.6c-0.2,0.2-0.3,0.3-0.5,0.4
		c-0.1,0.1-0.2,0.1-0.3,0.1c0,0-0.1-0.1-0.2-0.2l-1.5-2.6c0,0-0.1-0.1-0.1,0c-0.4,0.2-0.7,0.6-0.9,1c-0.2,0.5-0.2,0.9,0.1,1.4
		c0.1,0.1,0.2,0.3,0.3,0.4c0.1,0.1,0.2,0.2,0.3,0.3s0.2,0.1,0.2,0.2s0.1,0.1,0.2,0.1l0.1,0c0,0,0,0.1-0.1,0.1c0,0-0.1,0-0.2,0
		c-0.3,0-0.5-0.1-0.8-0.3s-0.5-0.4-0.7-0.7c-0.3-0.6-0.4-1.2-0.2-1.8c0.2-0.6,0.6-1.1,1.1-1.5c0.7-0.4,1.3-0.5,2-0.4
		C489.6,513.9,490.1,514.2,490.4,514.8z M490,514.9c-0.2-0.3-0.5-0.5-0.9-0.6s-0.7,0-0.9,0.1c0,0-0.1,0.1,0,0.1l1.1,2
		c0,0,0.1,0,0.1,0c0.2-0.1,0.4-0.3,0.6-0.7C490.2,515.6,490.2,515.2,490,514.9z"/>
	<path class="st9" d="M468.1,498.8c0.1,0.2,0.2,0.5,0.3,0.8c0.1,0.3,0.1,0.6,0.1,0.9s-0.1,0.6-0.2,0.9s-0.4,0.5-0.7,0.7
		c-0.3,0.2-0.6,0.2-1,0.2c-0.4,0-0.8-0.2-1.2-0.5c-0.1,0-0.1,0-0.1,0c-0.5,0.7-0.8,1.5-1,2.2c-0.3,1-0.3,1.8-0.1,2.2
		c0,0-0.1,0.1-0.1,0.1c-0.1,0-0.1,0-0.2,0c-0.1-0.1-0.1-0.1-0.2-0.3c-0.5-1-0.5-2,0-3.3c0.1-0.2,0.2-0.4,0.3-0.7
		c0.1-0.2,0.2-0.4,0.3-0.5s0.1-0.2,0.2-0.4s0.1-0.3,0.1-0.4c0-0.1,0-0.2,0-0.3c0-0.1-0.1-0.2-0.2-0.4c0,0-0.1-0.1-0.1-0.1
		c0,0,0,0-0.1-0.1c0,0-0.1,0-0.1,0l-1.4,0.8c-0.4,0.2-0.7,0.4-0.8,0.6c-0.1,0.1-0.1,0.2,0,0.5c0.1,0.2,0.1,0.4,0.2,0.5
		c0,0,0,0.1-0.1,0.1c-0.1,0-0.1,0.1-0.2,0.1c-0.4-0.7-0.6-1.1-0.7-1.4l-0.8-1.2c0,0,0.1-0.1,0.2-0.1c0.1,0,0.1-0.1,0.1,0
		c0,0.1,0.2,0.2,0.3,0.4c0.1,0.1,0.2,0.2,0.3,0.2c0.1,0,0.4-0.1,1-0.5l3.7-2.1c0.4-0.2,0.7-0.4,0.8-0.6c0,0,0-0.2,0-0.4
		c-0.1-0.2-0.1-0.4-0.2-0.4c0,0,0-0.1,0.1-0.1c0.1,0,0.2-0.1,0.2-0.1l0.7,1.2c0.1,0.2,0.3,0.4,0.4,0.7
		C467.8,498.4,468,498.6,468.1,498.8z M467.5,498.9c-0.2-0.3-0.3-0.5-0.5-0.7c0,0-0.1,0-0.1,0s-0.2,0-0.3,0.1
		c-0.2,0.1-0.4,0.2-0.7,0.4l-1.2,0.7c-0.2,0.1-0.1,0.5,0.2,1l0.2,0.2c0.1,0.2,0.4,0.4,0.8,0.5c0.4,0.1,0.8,0.1,1.1-0.1
		C467.9,500.6,468.1,499.9,467.5,498.9z"/>
	<path class="st9" d="M469.3,506.1c0.2,0.4,0.3,0.7,0.2,1s-0.3,0.5-0.7,0.7l-2.3,1.3c-0.1,0.1-0.2,0.2-0.3,0.3c0,0.1,0,0.3,0,0.4
		c0,0.1,0.2,0.2,0.3,0.3c0,0,0,0.1-0.1,0.1c-0.1,0-0.2,0.1-0.2,0.1c-0.4-0.1-0.6-0.3-0.8-0.5c-0.1-0.2-0.1-0.3-0.1-0.5
		s0.1-0.4,0.2-0.5c0,0,0,0-0.1,0c-0.1,0-0.2,0-0.2-0.1s-0.2-0.1-0.3-0.2s-0.2-0.1-0.3-0.3c-0.1-0.1-0.2-0.2-0.3-0.4
		c-0.2-0.3-0.2-0.6-0.2-0.9c0-0.3,0.2-0.5,0.5-0.7c0.1-0.1,0.3-0.1,0.5-0.1s0.3,0,0.5,0.1c0.1,0,0.3,0.1,0.5,0.3
		c0.2,0.1,0.3,0.2,0.5,0.3s0.3,0.2,0.5,0.4s0.3,0.3,0.4,0.3c0,0,0.1,0,0.2,0l0.7-0.4c0.2-0.1,0.3-0.3,0.4-0.5s0-0.4-0.1-0.6
		c-0.1-0.2-0.3-0.3-0.5-0.4s-0.4,0-0.6,0.1c-0.2,0.1-0.4,0.1-0.6-0.2c-0.1-0.2-0.1-0.4,0-0.5c0.3-0.2,0.7-0.1,1.2,0.2
		C468.7,505.3,469.1,505.7,469.3,506.1z M465.2,507.2c0,0.2,0,0.4,0.1,0.5s0.3,0.3,0.5,0.4c0.2,0.1,0.4,0.1,0.5,0.1l1-0.6
		c-0.1,0-0.2-0.1-0.4-0.3c-0.2-0.2-0.3-0.3-0.5-0.4c-0.1-0.1-0.3-0.2-0.4-0.2s-0.3,0-0.5,0.1C465.3,507,465.2,507.1,465.2,507.2z"/>
	<path class="st9" d="M470.3,509.2l-0.3-0.6c0,0,0-0.1,0.2-0.2c0,0,0.1,0,0.1,0c0.2,0.1,0.5,0.3,0.9,0.3c0.1,0,0.3,0,0.4,0
		c0.2,0,0.3,0,0.4,0c0.1,0,0.2,0,0.2,0c0.1,0.2,0.2,0.3,0.1,0.3l-1,0.6c0.1,0.2,0.2,0.4,0.5,0.8c0.2,0.4,0.3,0.5,0.3,0.6
		c0,0,0,0.1,0,0.1c-0.1,0.1-0.3,0.1-0.4,0.1l-0.8-1.4l-2.4,1.4c-0.3,0.1-0.4,0.3-0.5,0.6s0,0.5,0.1,0.7c0.1,0.2,0.3,0.4,0.5,0.5
		c0,0,0,0.1,0,0.1c0,0.1-0.1,0.1-0.1,0.1c-0.2,0-0.4-0.1-0.6-0.3c-0.2-0.2-0.4-0.3-0.5-0.6c-0.2-0.3-0.2-0.7-0.2-1s0.3-0.6,0.7-0.9
		L470.3,509.2z"/>
	<path class="st9" d="M470.4,514.8c-0.4,0.2-0.7,0.4-0.8,0.6c0,0,0,0.2,0,0.3c0,0.2,0.1,0.3,0.1,0.4c0,0,0,0.1-0.1,0.1
		s-0.1,0.1-0.2,0.1c-0.4-0.7-0.5-1.1-0.6-1.1s-0.3-0.4-0.7-1.1c0,0,0.1-0.1,0.1-0.1c0.1,0,0.1-0.1,0.2,0c0,0.1,0.1,0.2,0.3,0.3
		s0.2,0.2,0.3,0.2c0.2-0.1,0.5-0.2,0.7-0.3l1.8-1.1c0.2-0.2,0.4-0.3,0.5-0.5c0-0.1,0-0.2,0-0.3s-0.1-0.2-0.1-0.3c0-0.1,0-0.1,0-0.1
		c0.2-0.1,0.2-0.1,0.3-0.1c0.5,0.7,0.9,1.1,1.1,1.2l0,0c0,0,0,0,0,0c0,0,0,0.1,0,0.1s-0.1,0.1-0.1,0.1c-0.3,0.1-0.5,0.2-0.7,0.4
		L470.4,514.8z M474.1,511.5c0-0.1,0.1-0.3,0.3-0.4c0.1-0.1,0.3-0.1,0.4,0s0.3,0.1,0.3,0.3c0.1,0.1,0.1,0.3,0.1,0.4
		c0,0.1-0.1,0.3-0.3,0.4c-0.1,0.1-0.3,0.1-0.4,0c-0.2,0-0.3-0.1-0.3-0.3C474,511.8,474,511.7,474.1,511.5z"/>
	<path class="st9" d="M475.4,516.5c0.3,0.6,0.4,1.2,0.3,1.9s-0.6,1.2-1.2,1.5c-0.6,0.3-1.2,0.4-1.9,0.3c-0.7-0.2-1.2-0.6-1.5-1.2
		s-0.4-1.3-0.3-1.9c0.2-0.7,0.6-1.2,1.2-1.5c0.6-0.3,1.2-0.4,1.9-0.3S475,515.9,475.4,516.5z M474.9,516.6c-0.2-0.4-0.5-0.6-1-0.6
		c-0.5,0-0.9,0.1-1.4,0.3c-0.5,0.3-0.9,0.7-1.1,1.2c-0.2,0.5-0.2,1,0,1.3c0.2,0.4,0.5,0.6,1,0.6s0.9-0.1,1.4-0.3
		c0.5-0.3,0.9-0.7,1.1-1.2C475.2,517.5,475.1,517,474.9,516.6z"/>
	<path class="st9" d="M478.8,522.4c0.3,0.5,0.3,0.9,0.1,1.3s-0.7,0.8-1.4,1.2l-0.9,0.5c-0.4,0.2-0.7,0.4-0.8,0.6c0,0,0,0.2,0,0.3
		c0,0.2,0.1,0.3,0.1,0.4c0,0,0,0.1-0.1,0.1s-0.1,0.1-0.2,0.1c-0.4-0.7-0.5-1.1-0.6-1.1c0,0-0.2-0.4-0.7-1c0,0,0.1-0.1,0.1-0.1
		c0.1,0,0.1-0.1,0.2,0c0,0.1,0.1,0.2,0.3,0.3s0.2,0.2,0.3,0.2c0.2-0.1,0.5-0.2,0.7-0.3l1-0.6c0.6-0.3,1-0.7,1.1-1
		c0.1-0.3,0.1-0.6-0.1-1c-0.1-0.2-0.3-0.4-0.6-0.5s-0.5-0.1-0.6-0.1l-1.7,1c-0.4,0.2-0.7,0.4-0.8,0.6c0,0,0,0.2,0,0.3
		c0,0.2,0.1,0.3,0.1,0.4c0,0,0,0.1-0.1,0.1s-0.1,0.1-0.2,0.1c-0.4-0.7-0.5-1.1-0.6-1.1c0,0-0.2-0.4-0.7-1.1c0,0,0.1-0.1,0.1-0.1
		c0.1,0,0.1-0.1,0.2,0c0,0.1,0.1,0.2,0.3,0.3s0.2,0.2,0.3,0.2c0.2-0.1,0.5-0.2,0.7-0.3l1.8-1.1c0.2-0.2,0.4-0.3,0.5-0.5
		c0-0.1,0-0.2,0-0.3s-0.1-0.2-0.1-0.3s0-0.1,0-0.1c0.2-0.1,0.2-0.1,0.3-0.1c0.5,0.7,0.9,1.1,1.1,1.2c0,0,0,0,0,0c0,0,0,0.1,0,0.1
		s-0.1,0.1-0.1,0.1c-0.2,0.1-0.3,0.1-0.4,0.2c0,0,0,0,0,0c0,0,0,0,0,0c0.2,0.1,0.5,0.2,0.8,0.4S478.6,522.1,478.8,522.4z"/>
	<path class="st9" d="M481.4,527c0.2,0.4,0.3,0.7,0.2,1s-0.3,0.5-0.7,0.7l-2.3,1.3c-0.1,0.1-0.2,0.2-0.3,0.3c0,0.1,0,0.3,0,0.4
		c0,0.1,0.2,0.2,0.3,0.3c0,0,0,0.1-0.1,0.1c-0.1,0-0.2,0.1-0.2,0.1c-0.4-0.2-0.6-0.3-0.8-0.5c-0.1-0.2-0.1-0.3-0.1-0.5
		c0-0.2,0.1-0.4,0.2-0.5c0,0,0,0-0.1,0c-0.1,0-0.2,0-0.2-0.1c-0.1,0-0.2-0.1-0.3-0.2s-0.2-0.2-0.3-0.3s-0.2-0.2-0.3-0.4
		c-0.2-0.3-0.2-0.6-0.2-0.9s0.2-0.5,0.5-0.7c0.1-0.1,0.3-0.1,0.5-0.1s0.3,0,0.5,0.1c0.1,0,0.3,0.1,0.5,0.3s0.3,0.2,0.5,0.3
		s0.3,0.2,0.5,0.4c0.2,0.2,0.3,0.3,0.4,0.3c0,0,0.1,0,0.2,0l0.7-0.4c0.2-0.1,0.3-0.3,0.4-0.5s0-0.4-0.1-0.6
		c-0.1-0.2-0.3-0.3-0.5-0.4s-0.4,0-0.6,0.1c-0.2,0.1-0.4,0.1-0.6-0.2c-0.1-0.2-0.1-0.4,0-0.5c0.3-0.2,0.7-0.1,1.2,0.2
		C480.8,526.2,481.2,526.6,481.4,527z M477.2,528.2c0,0.2,0,0.3,0.1,0.5s0.3,0.3,0.5,0.4c0.2,0.1,0.4,0.1,0.5,0.1l1-0.6
		c-0.1,0-0.2-0.1-0.4-0.3c-0.2-0.2-0.3-0.3-0.5-0.4s-0.3-0.2-0.4-0.2s-0.3,0-0.5,0.1C477.3,527.8,477.2,528,477.2,528.2z"/>
	<path class="st9" d="M479.9,531.6l4.2-2.5c0.2-0.1,0.4-0.3,0.6-0.4c0.1-0.1,0-0.3-0.1-0.6l0-0.1c0,0,0-0.1,0.1-0.1
		c0.1-0.1,0.2-0.1,0.2,0c0.1,0.2,0.3,0.4,0.4,0.5c0.1,0.2,0.2,0.3,0.3,0.3c0.1,0.1,0.2,0.1,0.2,0.2s0.1,0.1,0.2,0.1l0,0l0,0
		c0,0,0,0.1,0,0.1s0,0.1-0.1,0.1c-0.2,0-0.6,0.2-0.9,0.4l-4.5,2.6c-0.4,0.2-0.7,0.4-0.8,0.6c0,0,0,0.2,0,0.3c0,0.2,0.1,0.3,0.1,0.4
		c0,0,0,0.1-0.1,0.1s-0.1,0.1-0.2,0.1c-0.4-0.7-0.5-1.1-0.6-1.1c0,0-0.2-0.4-0.7-1.1c0,0,0.1-0.1,0.1-0.1c0.1,0,0.1-0.1,0.2,0
		c0,0.1,0.1,0.2,0.3,0.3s0.2,0.2,0.3,0.2C479.4,531.9,479.6,531.8,479.9,531.6z"/>
	<path class="st9" d="M435.2,469.8c0.2,0.3,0.5,0.8,1,1.6s0.8,1.3,1,1.7c-0.2,0.1-0.4,0.3-0.7,0.6c-0.3,0.3-0.4,0.4-0.5,0.5
		c0,0-0.1-0.1-0.2-0.1s-0.1-0.1,0-0.2c0.3-0.3,0.5-0.6,0.4-0.8c0-0.2-0.1-0.5-0.3-0.8l-0.4-0.7c-0.3-0.6-0.5-0.9-0.6-0.8
		c-0.2,0.1-0.5,0.2-0.8,0.4l-1.6,0.9c0,0,0,0.2,0.2,0.5l0.3,0.5c0.1,0.2,0.2,0.3,0.2,0.4s0.1,0.2,0.2,0.2s0.1,0.1,0.2,0.1
		s0.1,0,0.2,0s0.2,0,0.2,0c0,0,0.2,0,0.3-0.1c0,0,0.1,0,0.2,0.1c0,0.1,0.1,0.1,0,0.2l-1.8,1.1c0,0-0.1-0.1-0.1-0.1
		c0-0.1-0.1-0.2,0-0.2c0.2-0.1,0.3-0.3,0.3-0.4c0.1-0.1,0.1-0.1,0.1-0.2c0,0,0-0.1,0-0.1c0-0.1-0.2-0.5-0.5-1.1
		c-0.3-0.5-0.5-0.7-0.5-0.7l-1.5,0.9c-0.4,0.2-0.7,0.5-0.8,0.6c0,0.1,0,0.3,0.3,0.8l0.3,0.5c0.4,0.6,0.7,1,0.9,1.2
		c0.1,0.1,0.3,0.1,0.5,0.1c0.2,0,0.5,0,0.8-0.1c0,0,0.1,0,0.1,0.1c0.1,0.1,0.1,0.2,0.1,0.3c-0.1,0-0.3,0-0.5,0.1s-0.4,0.1-0.5,0.1
		c-0.1,0-0.3,0.1-0.5,0.1c-0.2,0-0.3,0.1-0.4,0.1c-0.2-0.4-0.5-0.9-0.9-1.6c-0.4-0.8-0.8-1.4-1-1.8l-0.7-1.2c0,0,0-0.1,0.1-0.1
		c0.1,0,0.1-0.1,0.1,0c0,0.1,0.2,0.2,0.3,0.4c0.2,0.1,0.3,0.2,0.3,0.2c0.1,0,0.4-0.1,1-0.5l3.7-2.1c0.4-0.2,0.7-0.4,0.8-0.6
		c0,0,0-0.2,0-0.4c-0.1-0.2-0.1-0.4-0.2-0.4c0,0,0-0.1,0.1-0.1c0.1,0,0.2-0.1,0.2-0.1C434.7,468.9,434.9,469.3,435.2,469.8z"/>
	<path class="st9" d="M432.9,478l4.2-2.5c0.2-0.1,0.4-0.3,0.6-0.4c0.1-0.1,0-0.3-0.1-0.6l0-0.1c0,0,0-0.1,0.1-0.1
		c0.1-0.1,0.2-0.1,0.2,0c0.1,0.2,0.3,0.4,0.4,0.5c0.1,0.1,0.2,0.3,0.3,0.4c0.1,0.1,0.2,0.1,0.2,0.2s0.1,0.1,0.2,0.1l0,0l0,0
		c0,0,0,0.1,0,0.1s0,0.1-0.1,0.1c-0.2,0-0.6,0.2-0.9,0.4l-4.5,2.6c-0.4,0.2-0.7,0.4-0.8,0.6c0,0,0,0.1,0,0.3s0.1,0.3,0.1,0.4
		c0,0,0,0.1-0.1,0.1s-0.1,0.1-0.2,0.1c-0.4-0.7-0.5-1.1-0.6-1.1c0,0-0.2-0.4-0.7-1.1c0,0,0.1-0.1,0.1-0.1c0.1,0,0.1-0.1,0.2,0
		c0,0.1,0.1,0.2,0.3,0.3s0.2,0.2,0.3,0.2C432.4,478.2,432.6,478.1,432.9,478z"/>
	<path class="st9" d="M438.3,480.2c0.2,0.3,0.3,0.6,0.3,0.9c0,0.3,0,0.6-0.1,0.8c-0.1,0.2-0.2,0.4-0.4,0.6s-0.3,0.3-0.5,0.4
		c-0.1,0.1-0.2,0.1-0.3,0.1c0,0-0.1-0.1-0.2-0.2l-1.5-2.6c0,0-0.1-0.1-0.1,0c-0.4,0.2-0.7,0.6-0.9,1c-0.2,0.5-0.2,0.9,0.1,1.4
		c0.1,0.1,0.2,0.3,0.3,0.4c0.1,0.1,0.2,0.2,0.3,0.3s0.2,0.1,0.2,0.2s0.1,0.1,0.2,0.1l0.1,0c0,0,0,0.1-0.1,0.1c0,0-0.1,0-0.2,0
		c-0.3,0-0.5-0.1-0.8-0.3c-0.3-0.2-0.5-0.4-0.7-0.7c-0.3-0.6-0.4-1.2-0.2-1.8c0.2-0.6,0.6-1.1,1.1-1.5c0.7-0.4,1.3-0.5,2-0.4
		C437.5,479.3,438,479.6,438.3,480.2z M437.9,480.3c-0.2-0.4-0.5-0.5-0.9-0.6s-0.7,0-0.9,0.1c0,0-0.1,0.1,0,0.1l1.1,2
		c0,0,0.1,0,0.1,0c0.2-0.1,0.4-0.4,0.6-0.7C438.1,481,438.1,480.6,437.9,480.3z"/>
	<path class="st9" d="M441.4,485.4c0.2,0.3,0.2,0.5,0.2,0.8s-0.1,0.5-0.3,0.6c0.8,0.2,1.3,0.6,1.6,1.2c0.5,0.9,0.1,1.6-1.1,2.4
		l-1.1,0.6c-0.4,0.2-0.7,0.4-0.8,0.6c0,0,0,0.1,0,0.3c0,0.2,0.1,0.3,0.1,0.4c0,0,0,0.1-0.1,0.1s-0.1,0.1-0.2,0.1
		c-0.4-0.7-0.5-1.1-0.6-1.1c0,0-0.2-0.4-0.7-1.1c0,0,0.1-0.1,0.1-0.1c0.1,0,0.1-0.1,0.2,0c0,0.1,0.1,0.2,0.3,0.3s0.2,0.2,0.3,0.2
		c0.2-0.1,0.4-0.2,0.7-0.3l1.1-0.6c1-0.6,1.3-1.2,0.9-1.9c-0.1-0.2-0.3-0.4-0.6-0.5s-0.4-0.1-0.5-0.1l0,0c0,0,0,0,0,0
		c-0.2,0.1-0.4,0.3-0.7,0.5l-1.1,0.6c-0.3,0.2-0.6,0.4-0.7,0.5c0,0,0,0.1,0,0.3s0.1,0.3,0.1,0.4c0,0,0,0.1-0.1,0.1s-0.1,0.1-0.2,0.1
		c-0.4-0.7-0.5-1.1-0.6-1.1c0,0-0.2-0.4-0.7-1.1c0,0,0.1-0.1,0.1-0.1c0.1,0,0.1-0.1,0.2,0c0,0.1,0.1,0.2,0.3,0.3s0.2,0.2,0.3,0.2
		c0.2-0.1,0.5-0.2,0.7-0.3l1-0.6c1-0.6,1.4-1.2,1-1.9c-0.1-0.2-0.3-0.4-0.6-0.5s-0.5-0.1-0.6-0.1l-1.7,1c-0.4,0.2-0.7,0.4-0.8,0.6
		c0,0,0,0.1,0,0.3s0.1,0.3,0.1,0.4c0,0,0,0.1-0.1,0.1s-0.1,0.1-0.2,0.1c-0.4-0.7-0.5-1.1-0.6-1.1c0,0-0.2-0.4-0.7-1.1
		c0,0,0.1-0.1,0.1-0.1c0.1,0,0.1-0.1,0.2,0c0,0.1,0.1,0.2,0.3,0.3s0.2,0.2,0.3,0.2c0.2-0.1,0.5-0.2,0.7-0.3l1.8-1.1
		c0.2-0.1,0.4-0.3,0.5-0.5c0-0.1,0-0.2,0-0.3c0-0.1-0.1-0.2-0.1-0.3s0-0.1,0-0.1c0.2-0.1,0.2-0.1,0.3-0.1c0.5,0.7,0.9,1.1,1.1,1.2
		c0,0,0,0,0,0c0,0,0,0.1,0,0.1s-0.1,0.1-0.1,0.1c-0.2,0.1-0.3,0.1-0.4,0.2c0,0,0,0,0,0c0,0,0,0,0,0c0.2,0.1,0.5,0.2,0.8,0.4
		C441,485,441.2,485.2,441.4,485.4z"/>
	<path class="st9" d="M445.5,492.7c0.2,0.3,0.3,0.6,0.3,0.9c0,0.3,0,0.6-0.1,0.8c-0.1,0.2-0.2,0.4-0.4,0.6s-0.3,0.3-0.5,0.4
		c-0.1,0.1-0.2,0.1-0.3,0.1c0,0-0.1-0.1-0.2-0.2l-1.5-2.6c0,0-0.1-0.1-0.1,0c-0.4,0.2-0.7,0.6-0.9,1c-0.2,0.5-0.2,0.9,0.1,1.4
		c0.1,0.1,0.2,0.3,0.3,0.4c0.1,0.1,0.2,0.2,0.3,0.3s0.2,0.1,0.2,0.2s0.1,0.1,0.2,0.1l0.1,0c0,0,0,0.1-0.1,0.1c0,0-0.1,0-0.2,0
		c-0.3,0-0.5-0.1-0.8-0.3c-0.3-0.2-0.5-0.4-0.7-0.7c-0.3-0.6-0.4-1.2-0.2-1.8c0.2-0.6,0.6-1.1,1.1-1.5c0.7-0.4,1.3-0.5,2-0.4
		S445.2,492.1,445.5,492.7z M445.1,492.8c-0.2-0.4-0.5-0.5-0.9-0.6s-0.7,0-0.9,0.1c0,0-0.1,0.1,0,0.1l1.1,2c0,0,0.1,0,0.1,0
		c0.2-0.1,0.4-0.4,0.6-0.7C445.3,493.4,445.3,493.1,445.1,492.8z"/>
	<path class="st9" d="M448.6,497.9c0.3,0.5,0.3,0.9,0.1,1.3s-0.7,0.8-1.4,1.2l-0.9,0.5c-0.4,0.2-0.7,0.4-0.8,0.6c0,0,0,0.1,0,0.3
		c0,0.2,0.1,0.3,0.1,0.4c0,0,0,0.1-0.1,0.1s-0.1,0.1-0.2,0.1c-0.4-0.7-0.5-1.1-0.6-1.1c0,0-0.2-0.4-0.7-1c0,0,0.1-0.1,0.1-0.1
		c0.1,0,0.1-0.1,0.2,0c0,0.1,0.1,0.2,0.3,0.3s0.2,0.2,0.3,0.2c0.2-0.1,0.5-0.2,0.7-0.3l1-0.6c0.6-0.4,1-0.7,1.1-1
		c0.1-0.3,0.1-0.6-0.1-1c-0.1-0.2-0.3-0.4-0.6-0.5s-0.5-0.1-0.6-0.1l-1.7,1c-0.4,0.2-0.7,0.4-0.8,0.6c0,0,0,0.1,0,0.3
		s0.1,0.3,0.1,0.4c0,0,0,0.1-0.1,0.1s-0.1,0.1-0.2,0.1c-0.4-0.7-0.5-1.1-0.6-1.1c0,0-0.2-0.4-0.7-1.1c0,0,0.1-0.1,0.1-0.1
		c0.1,0,0.1-0.1,0.2,0c0,0.1,0.1,0.2,0.3,0.3s0.2,0.2,0.3,0.2c0.2-0.1,0.5-0.2,0.7-0.3l1.8-1.1c0.2-0.1,0.4-0.3,0.5-0.5
		c0-0.1,0-0.2,0-0.3c0-0.1-0.1-0.2-0.1-0.3s0-0.1,0-0.1c0.2-0.1,0.2-0.1,0.3-0.1c0.5,0.7,0.9,1.1,1.1,1.2c0,0,0,0,0,0
		c0,0,0,0.1,0,0.1s-0.1,0.1-0.1,0.1c-0.2,0.1-0.3,0.1-0.4,0.2c0,0,0,0,0,0s0,0,0,0c0.2,0.1,0.5,0.2,0.8,0.4
		C448.2,497.5,448.5,497.7,448.6,497.9z"/>
	<path class="st9" d="M449.7,501.4l-0.3-0.6c0,0,0-0.1,0.2-0.2c0,0,0.1,0,0.1,0c0.2,0.1,0.5,0.3,0.9,0.3c0.1,0,0.3,0,0.4,0
		c0.2,0,0.3,0,0.4,0c0.1,0,0.2,0,0.2,0c0.1,0.2,0.2,0.3,0.1,0.3l-1,0.6c0.1,0.2,0.2,0.4,0.5,0.8c0.2,0.4,0.3,0.5,0.3,0.6
		c0,0,0,0.1,0,0.1c-0.1,0.1-0.3,0.1-0.4,0.1l-0.8-1.4l-2.4,1.4c-0.3,0.1-0.4,0.3-0.5,0.6s0,0.5,0.1,0.7c0.1,0.2,0.3,0.4,0.5,0.5
		c0,0,0,0.1,0,0.1c0,0.1-0.1,0.1-0.1,0.1c-0.2,0-0.4-0.1-0.6-0.3c-0.2-0.1-0.4-0.3-0.5-0.6c-0.2-0.3-0.2-0.7-0.2-1s0.3-0.6,0.7-0.9
		L449.7,501.4z"/>
	<path class="st9" d="M453.1,505.8c0.2,0.4,0.3,0.7,0.2,1s-0.3,0.5-0.7,0.7l-2.3,1.3c-0.1,0.1-0.2,0.2-0.3,0.3c0,0.1,0,0.3,0,0.4
		c0,0.1,0.2,0.2,0.3,0.3c0,0,0,0.1-0.1,0.1c-0.1,0-0.2,0.1-0.2,0.1c-0.4-0.1-0.6-0.3-0.8-0.5c-0.1-0.2-0.1-0.3-0.1-0.5
		s0.1-0.4,0.2-0.5c0,0,0,0-0.1,0c-0.1,0-0.2,0-0.2-0.1s-0.2-0.1-0.3-0.2c-0.1-0.1-0.2-0.1-0.3-0.3c-0.1-0.1-0.2-0.2-0.3-0.4
		c-0.2-0.3-0.2-0.6-0.2-0.9c0-0.3,0.2-0.5,0.5-0.7c0.1-0.1,0.3-0.1,0.5-0.1s0.3,0,0.5,0.1c0.1,0,0.3,0.1,0.5,0.3
		c0.2,0.1,0.3,0.2,0.5,0.3s0.3,0.2,0.5,0.4s0.3,0.3,0.4,0.3c0,0,0.1,0,0.2,0l0.7-0.4c0.2-0.1,0.3-0.3,0.4-0.5s0-0.4-0.1-0.6
		c-0.1-0.2-0.3-0.3-0.5-0.4c-0.2-0.1-0.4,0-0.6,0.1c-0.2,0.1-0.4,0.1-0.6-0.2c-0.1-0.2-0.1-0.4,0-0.5c0.3-0.2,0.7-0.1,1.2,0.2
		C452.5,505,452.8,505.3,453.1,505.8z M448.9,506.9c0,0.2,0,0.4,0.1,0.5s0.3,0.3,0.5,0.4c0.2,0.1,0.4,0.1,0.5,0.1l1-0.6
		c-0.1,0-0.2-0.1-0.4-0.3c-0.2-0.2-0.3-0.3-0.5-0.4c-0.1-0.1-0.3-0.2-0.4-0.2c-0.2,0-0.3,0-0.5,0.1
		C449,506.6,448.9,506.7,448.9,506.9z"/>
	<path class="st9" d="M455.9,510.6c0.2,0.4,0.3,0.7,0.2,1c-0.2,0.1-0.4,0.2-0.6,0.2c-0.2,0-0.2-0.1-0.3-0.2c-0.1-0.1-0.1-0.3,0-0.4
		c0-0.2,0-0.3-0.1-0.5c-0.1-0.2-0.3-0.3-0.6-0.4c-0.3,0-0.5,0-0.7,0.1l-1.5,0.9c-0.4,0.2-0.7,0.4-0.8,0.6c0,0,0,0.2,0,0.4
		c0,0.2,0.1,0.3,0.1,0.4c0,0,0,0.1-0.1,0.1s-0.1,0.1-0.2,0.1c-0.4-0.7-0.5-1.1-0.6-1.1c0,0-0.2-0.4-0.7-1.1c0,0,0.1-0.1,0.1-0.1
		c0.1,0,0.1-0.1,0.2,0c0,0.1,0.1,0.2,0.3,0.3s0.2,0.2,0.3,0.2c0.2-0.1,0.5-0.2,0.7-0.3l1.8-1.1c0.2-0.1,0.4-0.3,0.5-0.5
		c0-0.1,0-0.2,0-0.3s-0.1-0.2-0.1-0.3s0-0.1,0-0.1c0.2-0.1,0.2-0.1,0.3-0.1c0.5,0.7,0.9,1.1,1.1,1.2c0,0,0,0,0,0c0,0,0,0.1,0,0.1
		s-0.1,0.1-0.1,0.1l-0.5,0.2c0.2,0,0.5,0.1,0.8,0.2S455.8,510.4,455.9,510.6z"/>
	<path class="st9" d="M457,512.7c0.1,0.1,0.1,0.2,0.2,0.3s0.1,0.2,0.2,0.3s0.2,0.2,0.2,0.3c0,0-0.1,0.1-0.1,0.1
		c-0.1,0-0.1,0.1-0.2,0c0,0-0.1-0.1-0.2-0.2c-0.1-0.1-0.2-0.1-0.3-0.1l0,0c-0.1,0.1-0.8,0.9-1.9,2.6l2.6-0.5c0.2,0,0.3-0.1,0.3-0.1
		c0.1-0.1,0.2-0.2,0.2-0.3c0-0.1,0-0.3-0.2-0.5c0,0,0-0.1,0.1-0.1c0.1,0,0.1-0.1,0.2,0c0,0.1,0.1,0.2,0.2,0.4s0.2,0.4,0.3,0.5
		c0.1,0.2,0.2,0.3,0.3,0.5s0.2,0.3,0.3,0.4c0,0-0.1,0.1-0.1,0.1c-0.1,0-0.1,0.1-0.2,0c0-0.1-0.2-0.2-0.3-0.3
		c-0.2-0.1-0.3-0.2-0.5-0.1l-5.8,0.9c-0.5,0.1-0.9,0.1-1.2,0c-0.3-0.1-0.5-0.2-0.5-0.4c-0.1-0.1-0.1-0.3,0-0.4s0.1-0.2,0.2-0.2
		c0.1-0.1,0.3-0.1,0.4,0c0.3,0.6,0.8,0.8,1.5,0.6c0.1,0,0.3,0,0.4-0.1s0.3-0.1,0.4-0.1l2.6-3.4c0.1-0.2,0.2-0.3,0.2-0.4
		c0-0.1,0-0.2,0-0.4c0-0.1-0.1-0.3-0.1-0.3c0,0,0-0.1,0.1-0.1c0.1,0,0.1-0.1,0.2,0C456.8,512.3,457,512.7,457,512.7z"/>
	<path class="st9" d="M461.9,521c0.3,0.6,0.4,1.2,0.3,1.9s-0.6,1.2-1.2,1.5c-0.6,0.3-1.2,0.4-1.9,0.3c-0.7-0.2-1.2-0.6-1.5-1.2
		s-0.4-1.3-0.3-1.9c0.2-0.7,0.6-1.2,1.2-1.5c0.6-0.3,1.2-0.4,1.9-0.3C461,520,461.6,520.4,461.9,521z M461.5,521.1
		c-0.2-0.4-0.5-0.6-1-0.6c-0.5,0-0.9,0.1-1.4,0.3c-0.5,0.3-0.9,0.7-1.1,1.2c-0.2,0.5-0.2,1,0,1.3c0.2,0.4,0.5,0.6,1,0.6
		s0.9-0.1,1.4-0.3c0.5-0.3,0.9-0.7,1.1-1.2C461.7,522,461.7,521.5,461.5,521.1z"/>
	<path class="st9" d="M465.1,526.6c0.2,0.4,0.3,0.7,0.2,1c-0.2,0.1-0.4,0.2-0.6,0.2c-0.2,0-0.2-0.1-0.3-0.2c-0.1-0.1-0.1-0.3,0-0.4
		c0-0.2,0-0.3-0.1-0.5c-0.1-0.2-0.3-0.3-0.6-0.4c-0.3,0-0.5,0-0.7,0.1l-1.5,0.8c-0.4,0.2-0.7,0.4-0.8,0.6c0,0,0,0.2,0,0.3
		c0,0.2,0.1,0.3,0.1,0.4c0,0,0,0.1-0.1,0.1s-0.1,0.1-0.2,0.1c-0.4-0.7-0.5-1.1-0.6-1.1c0,0-0.2-0.4-0.7-1.1c0,0,0.1-0.1,0.1-0.1
		c0.1,0,0.1-0.1,0.2,0c0,0.1,0.1,0.2,0.3,0.3s0.2,0.2,0.3,0.2c0.2-0.1,0.5-0.2,0.7-0.3l1.8-1.1c0.2-0.2,0.4-0.3,0.5-0.5
		c0-0.1,0-0.2,0-0.3s-0.1-0.2-0.1-0.3s0-0.1,0-0.1c0.2-0.1,0.2-0.1,0.3-0.1c0.5,0.7,0.9,1.1,1.1,1.2c0,0,0,0,0,0c0,0,0,0.1,0,0.1
		s-0.1,0.1-0.1,0.1l-0.5,0.2c0.2,0,0.5,0.1,0.8,0.2C464.8,526.2,465,526.4,465.1,526.6z"/>
	<path class="st9" d="M467.9,530.1c0.5-0.3,1-0.3,1.6-0.1s1,0.6,1.3,1.1c0.1,0.2,0.2,0.3,0.2,0.4c0.1,0.1,0.1,0.3,0.1,0.4
		s0.1,0.2,0.1,0.4s0.1,0.3,0.1,0.5c-0.3,0.3-0.7,0.6-1.3,0.9c0,0-0.1,0-0.1-0.1c-0.1-0.2-0.1-0.3,0-0.3c0.3-0.2,0.5-0.5,0.6-0.9
		c0.1-0.4,0.1-0.8-0.1-1.2c-0.2-0.4-0.5-0.6-0.8-0.7s-0.6,0-0.9,0.2c-0.1,0.1-0.2,0.2-0.3,0.3s-0.2,0.2-0.2,0.3s-0.1,0.2-0.1,0.4
		c0,0.2,0,0.3,0,0.4s0,0.2,0,0.5s0,0.4,0,0.4c0,0,0,0.2,0,0.5c0,0.3,0,0.5,0,0.6c0,0.1,0,0.3-0.1,0.5c0,0.2-0.1,0.4-0.1,0.5
		s-0.1,0.3-0.2,0.4c-0.1,0.2-0.2,0.3-0.4,0.4c-0.5,0.3-1.1,0.3-1.7,0.1c-0.6-0.2-1-0.6-1.4-1.2c-0.1-0.2-0.2-0.3-0.3-0.5
		s-0.2-0.4-0.2-0.5s-0.1-0.3-0.2-0.5s-0.1-0.4-0.1-0.4c0.7-0.6,1.2-1,1.4-1.2c0,0,0.1,0,0.2,0.1c0.1,0.1,0.1,0.2,0.1,0.3
		c-0.8,0.8-1,1.6-0.4,2.5c0.2,0.3,0.5,0.6,0.8,0.7c0.3,0.1,0.7,0.1,1-0.1c0.1-0.1,0.2-0.2,0.3-0.3s0.2-0.2,0.2-0.3
		c0-0.1,0.1-0.2,0.1-0.4c0-0.2,0-0.3,0-0.4c0-0.1,0-0.2,0-0.4s0-0.4,0-0.4c0-0.3,0-0.4,0-0.5c0-0.1,0-0.3,0-0.5c0-0.2,0-0.4,0.1-0.6
		c0-0.1,0.1-0.3,0.2-0.5c0.1-0.2,0.2-0.3,0.3-0.5C467.6,530.3,467.7,530.2,467.9,530.1z"/>
	<path class="st9" d="M471.5,539.7l-2,1.1c-0.3,0.2-0.5,0.3-0.7,0.5c0,0,0,0.1,0,0.2c0,0.1,0,0.2,0.1,0.2c0,0.1,0.1,0.1,0.1,0.2
		l0,0.1c0,0,0,0-0.1,0.1c0,0-0.1,0-0.1,0s-0.1,0-0.1,0c-0.1-0.1-0.1-0.2-0.2-0.3c-0.1-0.1-0.2-0.2-0.3-0.3s-0.2-0.2-0.2-0.3
		s-0.2-0.1-0.2-0.2l-0.1-0.1c0,0,0-0.1,0.1-0.2l0.5-0.3l0,0c-0.7-0.2-1.2-0.5-1.5-0.9c-0.1-0.2-0.2-0.5-0.2-0.8s0.1-0.5,0.2-0.7
		s0.3-0.4,0.5-0.5s0.3-0.3,0.5-0.4l1.2-0.7c0.2-0.2,0.4-0.3,0.5-0.5c0-0.1,0-0.2,0-0.3c0-0.1-0.1-0.2-0.1-0.3s0-0.1,0-0.1
		c0.2-0.1,0.2-0.1,0.3-0.1c0.5,0.7,0.9,1.1,1.1,1.2c0,0,0,0,0,0c0,0,0,0.1,0,0.1s-0.1,0.1-0.1,0.1c-0.3,0.1-0.6,0.3-0.8,0.4
		l-1.3,0.8c-0.5,0.3-0.8,0.6-1,0.9c-0.2,0.3-0.1,0.6,0.1,1c0.1,0.2,0.3,0.3,0.6,0.5c0.3,0.1,0.4,0.1,0.5,0l1.8-1.1
		c0.2-0.2,0.4-0.3,0.5-0.5c0-0.1,0-0.2,0-0.3c0-0.1-0.1-0.2-0.1-0.3s0-0.1,0-0.1c0.2-0.1,0.2-0.1,0.3-0.1c0.5,0.7,0.9,1.1,1.1,1.2
		c0,0,0,0,0,0c0,0,0,0.1,0,0.1s-0.1,0.1-0.1,0.1C471.9,539.5,471.6,539.7,471.5,539.7z"/>
	<path class="st9" d="M474.5,542.8c0.4,0.7,0.5,1.3,0.2,1.9s-0.5,1-1,1.3c-0.6,0.4-1.3,0.5-2,0.3c-0.7-0.2-1.3-0.5-1.6-1.1
		c-0.1-0.1-0.1-0.2-0.2-0.3c0-0.1-0.1-0.2-0.1-0.2s0-0.1,0-0.2c0,0,0-0.1,0-0.2c0-0.1,0-0.1,0-0.1c0,0-0.1,0-0.2,0l-0.8,0.5
		c-0.4,0.2-0.7,0.4-0.8,0.6c0,0,0,0.2,0,0.3c0,0.2,0.1,0.3,0.1,0.4c0,0,0,0.1-0.1,0.1c-0.1,0-0.1,0.1-0.2,0.1
		c-0.4-0.7-0.5-1.1-0.6-1.1c0,0-0.2-0.4-0.7-1.1c0,0,0.1-0.1,0.1-0.1c0.1,0,0.1-0.1,0.2,0c0,0.1,0.1,0.2,0.3,0.3s0.2,0.2,0.3,0.2
		c0.2-0.1,0.5-0.2,0.7-0.3l4-2.3c0.2-0.2,0.4-0.3,0.5-0.5c0-0.1,0-0.2,0-0.3c0-0.1-0.1-0.2-0.1-0.3s0-0.1,0-0.1
		c0.2-0.1,0.2-0.1,0.3-0.1c0.5,0.7,0.9,1.1,1.1,1.2c0,0,0,0,0,0c0,0,0,0,0,0.1s-0.1,0-0.1,0.1c-0.1,0-0.1,0-0.1,0l-0.1,0
		c0.1,0.1,0.3,0.2,0.5,0.3C474.2,542.5,474.4,542.6,474.5,542.8z M473.8,542.7c-0.1-0.2-0.3-0.3-0.5-0.4s-0.4,0-0.6,0.1l-2.2,1.3
		c-0.2,0.1-0.3,0.3-0.3,0.5c0,0.3,0.1,0.5,0.2,0.7c0.2,0.4,0.6,0.6,1.1,0.7c0.5,0,0.9-0.1,1.4-0.3c0.5-0.3,0.9-0.7,1-1.2
		C474.1,543.6,474,543.1,473.8,542.7z"/>
	<path class="st9" d="M477.3,547.6c0.2,0.3,0.3,0.6,0.3,0.9s0,0.6-0.1,0.8s-0.2,0.4-0.4,0.6c-0.2,0.2-0.3,0.3-0.5,0.4
		c-0.1,0.1-0.2,0.1-0.3,0.1c0,0-0.1-0.1-0.2-0.2l-1.5-2.6c0,0-0.1-0.1-0.1,0c-0.4,0.2-0.7,0.6-0.9,1c-0.2,0.5-0.2,0.9,0.1,1.4
		c0.1,0.1,0.2,0.3,0.3,0.4c0.1,0.1,0.2,0.2,0.3,0.3s0.2,0.1,0.2,0.2s0.1,0.1,0.2,0.1l0.1,0c0,0,0,0.1-0.1,0.1c0,0-0.1,0-0.2,0
		c-0.3,0-0.5-0.1-0.8-0.3s-0.5-0.4-0.7-0.7c-0.3-0.6-0.4-1.2-0.2-1.8c0.2-0.6,0.6-1.1,1.1-1.5c0.7-0.4,1.3-0.5,2-0.4
		C476.5,546.7,476.9,547,477.3,547.6z M476.8,547.7c-0.2-0.3-0.5-0.5-0.9-0.6s-0.7,0-0.9,0.1c0,0-0.1,0.1,0,0.1l1.1,2
		c0,0,0.1,0,0.1,0c0.2-0.1,0.4-0.3,0.6-0.7C477,548.3,477,548,476.8,547.7z"/>
	<path class="st9" d="M480.1,552.6c0.2,0.4,0.3,0.7,0.2,1c-0.2,0.1-0.4,0.2-0.6,0.2c-0.2,0-0.2-0.1-0.3-0.2c-0.1-0.1-0.1-0.3,0-0.4
		c0-0.2,0-0.3-0.1-0.5c-0.1-0.2-0.3-0.3-0.6-0.4c-0.3,0-0.5,0-0.7,0.1l-1.5,0.8c-0.4,0.2-0.7,0.4-0.8,0.6c0,0,0,0.2,0,0.3
		c0,0.2,0.1,0.3,0.1,0.4c0,0,0,0.1-0.1,0.1s-0.1,0.1-0.2,0.1c-0.4-0.7-0.5-1.1-0.6-1.1c0,0-0.2-0.4-0.7-1.1c0,0,0.1-0.1,0.1-0.1
		c0.1,0,0.1-0.1,0.2,0c0,0.1,0.1,0.2,0.3,0.3s0.2,0.2,0.3,0.2c0.2-0.1,0.5-0.2,0.7-0.3l1.8-1.1c0.2-0.2,0.4-0.3,0.5-0.5
		c0-0.1,0-0.2,0-0.3s-0.1-0.2-0.1-0.3s0-0.1,0-0.1c0.2-0.1,0.2-0.1,0.3-0.1c0.5,0.7,0.9,1.1,1.1,1.2c0,0,0,0,0,0c0,0,0,0.1,0,0.1
		s-0.1,0.1-0.1,0.1l-0.5,0.2c0.2,0,0.5,0.1,0.8,0.2C479.8,552.2,480,552.3,480.1,552.6z"/>
	<path class="st9" d="M484.9,555c0.3,0.5,0.3,0.9,0.2,1.2c-0.4,0.2-0.7,0.2-0.8,0c0-0.1,0-0.2,0-0.3s0.1-0.3,0.2-0.5
		c0-0.2,0-0.3-0.1-0.5c-0.2-0.3-0.5-0.4-0.9-0.4c-0.5,0-0.9,0.2-1.4,0.5l-0.5,0.3c0,0,0,0,0,0.1l0.7,1.1c0,0,0,0.1,0,0.1
		c-0.1,0.1-0.3,0.1-0.5,0.1l-0.6-1c0,0-0.1,0-0.1,0l-2.3,1.3c-0.3,0.2-0.6,0.4-0.8,0.6c0,0,0,0.2,0,0.3s0.1,0.3,0.1,0.4
		c0,0,0,0.1-0.1,0.1s-0.1,0.1-0.2,0.1c-0.4-0.7-0.5-1.1-0.6-1.1c0,0-0.2-0.4-0.7-1c0,0,0,0,0.1-0.1c0,0,0.1-0.1,0.1-0.1s0.1,0,0.1,0
		c0,0.1,0.1,0.2,0.3,0.3c0.1,0.1,0.2,0.2,0.3,0.2c0.3-0.1,0.6-0.2,0.9-0.4l2.2-1.3c0,0,0.1-0.1,0-0.1l-0.3-0.5c0,0,0,0,0-0.1
		c0.1,0,0.2,0,0.3,0c0.2,0,0.3,0.1,0.4,0.2l0,0.1c0,0,0,0,0.1,0l0.1-0.1c0.7-0.4,1.4-0.5,2.1-0.4C484.1,554.2,484.6,554.5,484.9,555
		z"/>
	<path class="st9" d="M480.5,560c-0.4,0.2-0.7,0.4-0.8,0.6c0,0,0,0.2,0,0.3c0,0.2,0.1,0.3,0.1,0.4c0,0,0,0.1-0.1,0.1
		s-0.1,0.1-0.2,0.1c-0.4-0.7-0.5-1.1-0.6-1.1s-0.3-0.4-0.7-1.1c0,0,0.1-0.1,0.1-0.1c0.1,0,0.1-0.1,0.2,0c0,0.1,0.1,0.2,0.3,0.3
		s0.2,0.2,0.3,0.2c0.2-0.1,0.5-0.2,0.7-0.3l1.8-1.1c0.2-0.2,0.4-0.3,0.5-0.5c0-0.1,0-0.2,0-0.3c0-0.1-0.1-0.2-0.1-0.3s0-0.1,0-0.1
		c0.2-0.1,0.2-0.1,0.3-0.1c0.5,0.7,0.9,1.1,1.1,1.2l0,0c0,0,0,0,0,0c0,0,0,0.1,0,0.1s-0.1,0.1-0.1,0.1c-0.3,0.1-0.5,0.2-0.7,0.4
		L480.5,560z M484.2,556.8c0-0.2,0.1-0.3,0.3-0.3c0.1-0.1,0.3-0.1,0.4,0s0.3,0.1,0.3,0.3s0.1,0.3,0.1,0.4c0,0.2-0.1,0.3-0.3,0.3
		c-0.1,0.1-0.3,0.1-0.4,0c-0.2,0-0.3-0.1-0.3-0.3S484.1,557,484.2,556.8z"/>
	<path class="st9" d="M485.3,561.6c0.4,0.7,0.6,1.3,0.4,1.8c-0.4,0.2-0.7,0.2-0.9,0c-0.1-0.1-0.1-0.2-0.1-0.3s0.1-0.2,0.1-0.4
		c0.2-0.4,0.2-0.7,0-1c-0.2-0.3-0.4-0.5-0.8-0.5c-0.4-0.1-0.8,0-1.3,0.3c-0.5,0.3-0.9,0.7-1.1,1.2c-0.2,0.5-0.2,0.9,0.1,1.4
		c0.1,0.1,0.2,0.3,0.3,0.4c0.1,0.1,0.2,0.2,0.3,0.3s0.2,0.1,0.2,0.2s0.1,0.1,0.2,0.1l0.1,0c0,0,0,0.1-0.1,0.1c0,0-0.1,0-0.2,0
		c-0.3,0-0.5-0.1-0.8-0.3c-0.3-0.2-0.5-0.4-0.7-0.7c-0.3-0.6-0.4-1.2-0.2-1.8c0.2-0.6,0.6-1.1,1.1-1.5c0.6-0.3,1.2-0.5,1.8-0.4
		C484.5,560.6,485,560.9,485.3,561.6z"/>
	<path class="st9" d="M484.5,566.9c-0.4,0.2-0.7,0.4-0.8,0.6c0,0,0,0.2,0,0.3c0,0.2,0.1,0.3,0.1,0.4c0,0,0,0.1-0.1,0.1
		s-0.1,0.1-0.2,0.1c-0.4-0.7-0.5-1.1-0.6-1.1s-0.3-0.4-0.7-1.1c0,0,0.1-0.1,0.1-0.1c0.1,0,0.1-0.1,0.2,0c0,0.1,0.1,0.2,0.3,0.3
		s0.2,0.2,0.3,0.2c0.2-0.1,0.5-0.2,0.7-0.3l1.8-1.1c0.2-0.2,0.4-0.3,0.5-0.5c0-0.1,0-0.2,0-0.3c0-0.1-0.1-0.2-0.1-0.3s0-0.1,0-0.1
		c0.2-0.1,0.2-0.1,0.3-0.1c0.5,0.7,0.9,1.1,1.1,1.2l0,0c0,0,0,0,0,0c0,0,0,0.1,0,0.1s-0.1,0.1-0.1,0.1c-0.3,0.1-0.5,0.2-0.7,0.4
		L484.5,566.9z M488.1,563.7c0-0.2,0.1-0.3,0.3-0.3s0.3-0.1,0.4,0c0.2,0,0.3,0.1,0.3,0.3s0.1,0.3,0.1,0.4c0,0.2-0.1,0.3-0.3,0.3
		s-0.3,0.1-0.4,0c-0.2,0-0.3-0.1-0.3-0.3S488.1,563.8,488.1,563.7z"/>
	<path class="st9" d="M489.3,568.5c0.2,0.4,0.3,0.7,0.2,1s-0.3,0.5-0.7,0.7l-2.3,1.3c-0.1,0.1-0.2,0.2-0.3,0.3c0,0.1,0,0.3,0,0.4
		c0,0.1,0.2,0.2,0.3,0.3c0,0,0,0.1-0.1,0.1c-0.1,0-0.2,0.1-0.2,0.1c-0.4-0.2-0.6-0.3-0.8-0.5c-0.1-0.2-0.1-0.3-0.1-0.5
		c0-0.2,0.1-0.4,0.2-0.5c0,0,0,0-0.1,0c-0.1,0-0.2,0-0.2-0.1c-0.1,0-0.2-0.1-0.3-0.2s-0.2-0.2-0.3-0.3s-0.2-0.2-0.3-0.4
		c-0.2-0.3-0.2-0.6-0.2-0.9s0.2-0.5,0.5-0.7c0.1-0.1,0.3-0.1,0.5-0.1s0.3,0,0.5,0.1c0.1,0,0.3,0.1,0.5,0.3s0.3,0.2,0.5,0.3
		c0.1,0.1,0.3,0.2,0.5,0.4c0.2,0.2,0.3,0.3,0.4,0.3c0,0,0.1,0,0.2,0l0.7-0.4c0.2-0.1,0.3-0.3,0.4-0.5c0-0.2,0-0.4-0.1-0.6
		c-0.1-0.2-0.3-0.3-0.5-0.4s-0.4,0-0.6,0.1c-0.2,0.1-0.4,0.1-0.6-0.2c-0.1-0.2-0.1-0.4,0-0.5c0.3-0.2,0.7-0.1,1.2,0.2
		C488.6,567.7,489,568,489.3,568.5z M485.1,569.6c0,0.2,0,0.3,0.1,0.5s0.3,0.3,0.5,0.4s0.4,0.1,0.5,0.1l1-0.6
		c-0.1,0-0.2-0.1-0.4-0.3c-0.2-0.2-0.3-0.3-0.5-0.4s-0.3-0.2-0.4-0.2c-0.2,0-0.3,0-0.5,0.1C485.2,569.3,485.1,569.4,485.1,569.6z"/>
	<path class="st9" d="M487.8,573.1l4.2-2.5c0.2-0.1,0.4-0.3,0.6-0.4c0.1-0.1,0-0.3-0.1-0.6l0-0.1c0,0,0-0.1,0.1-0.1
		c0.1-0.1,0.2-0.1,0.2,0c0.1,0.2,0.3,0.4,0.4,0.5c0.1,0.2,0.2,0.3,0.3,0.3c0.1,0.1,0.2,0.1,0.2,0.2s0.1,0.1,0.2,0.1l0,0l0,0
		c0,0,0,0.1,0,0.1s0,0.1-0.1,0.1c-0.2,0-0.6,0.2-0.9,0.4l-4.5,2.6c-0.4,0.2-0.7,0.4-0.8,0.6c0,0,0,0.2,0,0.3c0,0.2,0.1,0.3,0.1,0.4
		c0,0,0,0.1-0.1,0.1s-0.1,0.1-0.2,0.1c-0.4-0.7-0.5-1.1-0.6-1.1c0,0-0.2-0.4-0.7-1.1c0,0,0.1-0.1,0.1-0.1c0.1,0,0.1-0.1,0.2,0
		c0,0.1,0.1,0.2,0.3,0.3s0.2,0.2,0.3,0.2C487.3,573.3,487.5,573.2,487.8,573.1z"/>
</g>
<g>
	<path class="st9" d="M256.2,496.9c0.1-0.1,0.2-0.3,0.2-0.4c0.1-0.1,0.1-0.3,0.2-0.4c0.1-0.1,0.1-0.3,0.2-0.4c0,0,0.1,0,0.2,0.1
		c0.1,0,0.1,0.1,0.1,0.1c0,0.1-0.1,0.2-0.1,0.4c0,0.2-0.1,0.3,0,0.4c0.2,0.2,0.5,0.4,0.9,0.6l3.7,2.1c0.3,0.2,0.7,0.3,0.9,0.4
		c0.1,0,0.2-0.2,0.5-0.6l0.3-0.5c0.4-0.6,0.5-1.1,0.6-1.4c0-0.1,0-0.3-0.2-0.5s-0.3-0.5-0.5-0.7c0,0,0-0.1,0-0.2
		c0.1-0.1,0.1-0.2,0.2-0.2c0.1,0.1,0.2,0.2,0.3,0.4c0.2,0.2,0.3,0.3,0.4,0.4c0.1,0.1,0.2,0.2,0.3,0.4c0.1,0.1,0.2,0.2,0.3,0.3
		c-0.2,0.4-0.5,0.9-1,1.6c-0.5,0.7-0.8,1.3-1.1,1.8l-0.7,1.2c0,0-0.1,0-0.2-0.1c-0.1,0-0.1-0.1-0.1-0.1c0-0.1,0.1-0.2,0.2-0.4
		s0.1-0.3,0-0.4c0-0.1-0.3-0.3-0.9-0.6l-3.7-2.1c-0.4-0.2-0.7-0.4-0.9-0.4c-0.1,0-0.2,0.1-0.3,0.2s-0.2,0.3-0.3,0.4c0,0-0.1,0-0.1,0
		c-0.1,0-0.1-0.1-0.1-0.1c0.1-0.1,0.2-0.3,0.3-0.5S256.1,497.1,256.2,496.9z"/>
	<path class="st9" d="M264.7,493.9c0.4,0.2,0.7,0.4,0.9,0.4c0,0,0.2,0,0.3-0.2s0.2-0.2,0.3-0.3c0,0,0.1,0,0.1,0s0.1,0.1,0.2,0.1
		c-0.4,0.7-0.6,1-0.7,1.1s-0.2,0.4-0.6,1.1c0,0-0.1,0-0.2,0c-0.1,0-0.1-0.1-0.1-0.1c0-0.1,0.1-0.2,0.1-0.4c0-0.2,0-0.3,0-0.3
		c-0.2-0.1-0.4-0.3-0.7-0.5l-1.9-1c-0.3-0.1-0.5-0.2-0.6-0.2c-0.1,0-0.2,0.1-0.3,0.2c-0.1,0.1-0.2,0.2-0.2,0.2s-0.1,0.1-0.1,0.1
		c-0.2-0.1-0.2-0.2-0.2-0.2c0.3-0.8,0.5-1.3,0.5-1.5v0c0,0,0,0,0,0c0,0,0,0,0.1,0c0.1,0,0.1,0,0.1,0.1c0.2,0.2,0.5,0.3,0.7,0.5
		L264.7,493.9z M260.1,492.3c-0.2,0-0.3,0-0.4,0c-0.1-0.1-0.2-0.2-0.3-0.4c0-0.1,0-0.3,0.1-0.4s0.2-0.2,0.3-0.3c0.2,0,0.3,0,0.4,0
		c0.1,0.1,0.2,0.2,0.3,0.4c0,0.1,0,0.3-0.1,0.4C260.3,492.2,260.2,492.3,260.1,492.3z"/>
	<path class="st9" d="M264.1,488c0.3-0.5,0.6-0.7,1.1-0.7s1,0.2,1.8,0.6l0.9,0.5c0.4,0.2,0.7,0.4,0.9,0.4c0,0,0.2,0,0.3-0.2
		s0.2-0.2,0.3-0.3c0,0,0.1,0,0.1,0s0.1,0.1,0.2,0.1c-0.4,0.7-0.6,1-0.7,1.1c0,0-0.2,0.4-0.6,1.1c0,0-0.1,0-0.2,0
		c-0.1,0-0.1-0.1-0.1-0.1c0-0.1,0.1-0.2,0.1-0.4s0-0.3,0-0.3c-0.2-0.1-0.4-0.3-0.7-0.5l-1-0.6c-0.6-0.4-1.1-0.5-1.4-0.5
		s-0.6,0.2-0.8,0.6c-0.1,0.2-0.2,0.5-0.1,0.8c0,0.3,0.1,0.5,0.2,0.5l1.7,1c0.4,0.2,0.7,0.4,0.9,0.4c0,0,0.2,0,0.3-0.2
		s0.2-0.2,0.3-0.3c0,0,0.1,0,0.1,0s0.1,0.1,0.2,0.1c-0.4,0.7-0.6,1-0.7,1.1c0,0-0.2,0.4-0.6,1.1c0,0-0.1,0-0.2,0
		c-0.1,0-0.1-0.1-0.1-0.1c0-0.1,0.1-0.2,0.1-0.4c0-0.2,0-0.3,0-0.3c-0.2-0.1-0.4-0.3-0.7-0.5l-1.9-1c-0.3-0.1-0.5-0.2-0.6-0.2
		c-0.1,0-0.2,0.1-0.3,0.2c-0.1,0.1-0.2,0.2-0.2,0.2c0,0.1-0.1,0.1-0.1,0.1c-0.2-0.1-0.2-0.2-0.2-0.2c0.3-0.8,0.5-1.3,0.5-1.5
		c0,0,0,0,0-0.1c0,0,0,0,0.1,0s0.1,0,0.1,0.1c0.2,0.1,0.3,0.2,0.4,0.3c0,0,0,0,0,0c0,0,0,0,0,0c-0.1-0.2-0.1-0.5-0.1-0.9
		C263.9,488.5,264,488.2,264.1,488z"/>
	<path class="st9" d="M266.8,483.4c0.2-0.3,0.4-0.6,0.6-0.7s0.5-0.3,0.8-0.3c0.2,0,0.5,0,0.7,0c0.2,0,0.4,0.1,0.6,0.2
		c0.1,0.1,0.2,0.1,0.2,0.2s0,0.1-0.1,0.3l-1.5,2.6c0,0,0,0.1,0,0.1c0.4,0.2,0.9,0.3,1.4,0.3s0.9-0.3,1.2-0.8
		c0.1-0.1,0.2-0.3,0.2-0.4c0-0.1,0.1-0.3,0.1-0.4c0-0.1,0-0.2,0-0.3c0-0.1,0-0.2,0-0.2l0-0.1c0,0,0.1,0,0.2,0c0,0,0.1,0.1,0.1,0.2
		c0.1,0.2,0.2,0.5,0.2,0.9s-0.1,0.7-0.3,1c-0.3,0.6-0.8,0.9-1.4,1.1s-1.2,0.1-1.8-0.2c-0.7-0.4-1.1-0.9-1.3-1.5
		S266.4,483.9,266.8,483.4z M267.1,483.6c-0.2,0.4-0.2,0.7,0,1.1s0.4,0.6,0.6,0.7c0,0,0.1,0,0.1,0l1.1-2c0,0,0-0.1-0.1-0.1
		c-0.2-0.1-0.5-0.2-0.9-0.1C267.5,483.2,267.2,483.4,267.1,483.6z"/>
	<path class="st9" d="M269.2,479c0.2-0.4,0.5-0.6,0.7-0.7c0.3-0.1,0.6,0,1,0.2l2.3,1.3c0.1,0.1,0.3,0.1,0.4,0.1
		c0.1,0,0.2-0.1,0.3-0.2c0-0.1,0.1-0.2,0.1-0.4c0,0,0,0,0.1,0c0.1,0,0.1,0.1,0.2,0.2c0.1,0.4,0,0.7-0.1,0.9
		c-0.1,0.2-0.2,0.3-0.4,0.3s-0.4,0.1-0.6,0.1c0,0,0,0,0,0.1c0,0.1,0,0.2,0,0.3c0,0.1,0,0.2,0,0.4c0,0.1,0,0.3,0,0.4
		s-0.1,0.3-0.2,0.4c-0.2,0.3-0.4,0.5-0.7,0.6c-0.3,0.1-0.6,0.1-0.9-0.1c-0.1-0.1-0.3-0.2-0.3-0.3c-0.1-0.1-0.1-0.3-0.2-0.4
		c0-0.1,0-0.3,0-0.6s0-0.4,0.1-0.6s0.1-0.4,0.1-0.6s0.1-0.4,0.1-0.5c0-0.1,0-0.1-0.1-0.2l-0.7-0.4c-0.2-0.1-0.4-0.1-0.6-0.1
		s-0.3,0.2-0.5,0.4c-0.1,0.2-0.1,0.4-0.1,0.6c0.1,0.2,0.2,0.4,0.4,0.5c0.2,0.1,0.3,0.3,0.1,0.6c-0.1,0.2-0.2,0.3-0.4,0.3
		c-0.3-0.2-0.4-0.5-0.5-1.1C268.9,479.9,269,479.4,269.2,479z M272.3,482c0.2-0.1,0.3-0.2,0.4-0.4c0.1-0.2,0.2-0.4,0.1-0.6
		c0-0.2-0.1-0.4-0.2-0.4l-1-0.6c0,0.1,0,0.2-0.1,0.5c0,0.2-0.1,0.5-0.1,0.6c0,0.1,0,0.3,0,0.5s0.2,0.3,0.3,0.4
		C272,482,272.2,482.1,272.3,482z"/>
	<path class="st9" d="M272,474c0.2-0.4,0.5-0.6,0.7-0.6c0.2,0.1,0.4,0.3,0.4,0.4c0.1,0.1,0.1,0.3,0,0.4c-0.1,0.1-0.2,0.2-0.4,0.2
		c-0.2,0-0.3,0.1-0.4,0.3c-0.1,0.2-0.1,0.5,0,0.7c0.1,0.3,0.3,0.5,0.5,0.6l1.5,0.8c0.4,0.2,0.7,0.4,0.9,0.4c0,0,0.2,0,0.3-0.2
		c0.1-0.1,0.2-0.2,0.3-0.3c0,0,0.1,0,0.1,0s0.1,0.1,0.2,0.1c-0.4,0.7-0.6,1-0.7,1.1c0,0-0.2,0.4-0.6,1.1c0,0-0.1,0-0.2,0
		c-0.1,0-0.1-0.1-0.1-0.1c0-0.1,0.1-0.2,0.1-0.4c0-0.2,0-0.3,0-0.3c-0.2-0.1-0.4-0.3-0.7-0.5l-1.9-1c-0.3-0.1-0.5-0.2-0.6-0.2
		c-0.1,0-0.2,0.1-0.3,0.2c-0.1,0.1-0.2,0.2-0.2,0.2s-0.1,0.1-0.1,0.1c-0.2-0.1-0.2-0.2-0.2-0.2c0.3-0.8,0.5-1.3,0.5-1.5
		c0,0,0,0,0-0.1c0,0,0,0,0.1,0c0.1,0,0.1,0,0.1,0.1l0.5,0.3c-0.1-0.2-0.2-0.5-0.2-0.8C271.8,474.5,271.9,474.3,272,474z"/>
	<path class="st9" d="M267.5,505l6.3,0.9c0.4,0,0.7,0.1,0.9,0.1c0.1,0,0.3,0,0.4-0.2s0.3-0.2,0.3-0.3c0,0,0.1,0,0.2,0.1
		c0,0,0,0,0.1,0.1c-0.4,0.7-0.7,1-0.7,1.1c0,0-0.2,0.4-0.6,1.2c0,0-0.1,0-0.2-0.1s-0.1-0.1-0.1-0.1c0-0.1,0.1-0.2,0.1-0.3
		c0-0.1,0-0.2,0-0.3c0,0-0.1-0.1-0.2-0.1c-0.1,0-0.2-0.1-0.3-0.1s-0.2-0.1-0.3-0.1l-0.1,0l-1.3-0.2c0,0-0.1,0-0.1,0
		c-0.2,0.2-0.3,0.5-0.5,0.8c-0.2,0.4-0.4,0.8-0.7,1.3v0.1l0.8,1c0.3,0.3,0.5,0.5,0.6,0.6c0.1,0,0.2,0.1,0.2,0c0.1,0,0.2-0.1,0.3-0.2
		c0.1-0.1,0.2-0.2,0.2-0.3c0,0,0.1,0,0.1,0s0.1,0.1,0.2,0.1c-0.4,0.7-0.6,1-0.6,1c-0.1,0.1-0.1,0.3-0.2,0.4c0,0.1-0.1,0.2-0.2,0.4
		c-0.1,0.1-0.1,0.2-0.2,0.4c0,0-0.1,0-0.2,0c-0.1,0-0.1-0.1-0.1-0.1c0-0.1,0.1-0.2,0.1-0.3s0-0.3,0-0.3c-0.1-0.2-0.3-0.6-0.7-1
		l-3.4-4.3c0,0-0.1-0.1-0.1-0.1s-0.1-0.1-0.1-0.1c0,0-0.1-0.1-0.1-0.1c0-0.1-0.1-0.1-0.1-0.1c0,0,0-0.1,0-0.1s0-0.1,0-0.1
		S267.4,505.2,267.5,505L267.5,505z M270.4,508.2c0.2-0.4,0.4-0.6,0.4-0.7c0.2-0.3,0.3-0.6,0.5-0.9l0-0.1l-2.6-0.4L270.4,508.2
		C270.4,508.3,270.4,508.3,270.4,508.2z"/>
	<path class="st9" d="M273.4,499.8c0.3-0.5,0.6-0.7,1.1-0.7s1,0.2,1.8,0.6l0.9,0.5c0.4,0.2,0.7,0.4,0.9,0.4c0,0,0.2,0,0.3-0.2
		s0.2-0.2,0.3-0.3c0,0,0.1,0,0.1,0s0.1,0.1,0.2,0.1c-0.4,0.7-0.6,1-0.7,1.1c0,0-0.2,0.4-0.6,1.1c0,0-0.1,0-0.2,0
		c-0.1,0-0.1-0.1-0.1-0.1c0-0.1,0.1-0.2,0.1-0.4s0-0.3,0-0.3c-0.2-0.1-0.4-0.3-0.7-0.5l-1-0.6c-0.6-0.4-1.1-0.5-1.4-0.5
		s-0.6,0.2-0.8,0.6c-0.1,0.2-0.2,0.5-0.1,0.8c0,0.3,0.1,0.5,0.2,0.5l1.7,1c0.4,0.2,0.7,0.4,0.9,0.4c0,0,0.2,0,0.3-0.2
		s0.2-0.2,0.3-0.3c0,0,0.1,0,0.1,0s0.1,0.1,0.2,0.1c-0.4,0.7-0.6,1-0.7,1.1c0,0-0.2,0.4-0.6,1.1c0,0-0.1,0-0.2,0
		c-0.1,0-0.1-0.1-0.1-0.1c0-0.1,0.1-0.2,0.1-0.4c0-0.2,0-0.3,0-0.3c-0.2-0.1-0.4-0.3-0.7-0.5l-1.9-1c-0.3-0.1-0.5-0.2-0.6-0.2
		c-0.1,0-0.2,0.1-0.3,0.2c-0.1,0.1-0.2,0.2-0.2,0.2c0,0.1-0.1,0.1-0.1,0.1c-0.2-0.1-0.2-0.2-0.2-0.2c0.3-0.8,0.5-1.3,0.5-1.5
		c0,0,0,0,0-0.1c0,0,0,0,0.1,0c0.1,0,0.1,0,0.1,0.1c0.2,0.1,0.3,0.2,0.4,0.3c0,0,0,0,0,0c0,0,0,0,0,0c-0.1-0.2-0.1-0.5-0.1-0.9
		C273.2,500.3,273.3,500,273.4,499.8z"/>
	<path class="st9" d="M276,495.3c0.1-0.2,0.3-0.5,0.6-0.8c0.3-0.3,0.5-0.5,0.6-0.7l0.3-0.6c0,0,0.1,0,0.3,0.1c0.1,0,0.1,0.1,0.1,0.1
		l-0.4,0.7c0,0,0,0,0,0.1l0.3,0c0.2,0,0.4,0.1,0.5,0.2c0.3,0.2,0.6,0.5,0.7,1s0,1-0.3,1.4c-0.1,0.2-0.2,0.4-0.4,0.5
		c0,0.1,0,0.2,0.1,0.4c0.1,0.2,0.1,0.3,0.2,0.3c0.1,0,0.2,0.1,0.3,0c0.1,0,0.2-0.1,0.2-0.2c0.1-0.1,0.2-0.2,0.2-0.3
		c0.1-0.1,0.1-0.2,0.2-0.3c0,0,0-0.1,0-0.1c0.5-0.8,0.9-1.4,1.3-1.6c0.3-0.2,0.7-0.3,1-0.1c0.5,0.3,0.8,0.8,0.9,1.4
		c0.1,0.6,0,1.3-0.4,2c-0.3,0.5-0.6,0.9-1,1.1s-0.8,0.3-1.2,0.1c-0.4-0.2-0.6-0.8-0.5-1.6c-0.1,0.2-0.3,0.3-0.5,0.4s-0.4,0.1-0.6,0
		c-0.2-0.1-0.3-0.3-0.4-0.5c-0.1-0.3-0.2-0.5-0.2-0.8c-0.2,0.2-0.5,0.3-0.8,0.3c-0.3,0-0.6,0-0.9-0.2c-0.4-0.2-0.6-0.6-0.7-1.1
		C275.6,496.3,275.7,495.8,276,495.3z M282,496.6c-0.3-0.2-0.5-0.1-0.8,0.1s-0.6,0.8-1.1,1.6c0,0,0,0,0,0.1c0,0,0,0,0,0.1
		s0,0.1,0,0.1c0,0,0,0.1,0,0.1s0,0.1,0,0.1c0,0,0,0.1,0,0.1s0,0.1,0,0.1c0,0,0,0.1,0,0.1c0,0,0,0.1,0.1,0.1s0.1,0.1,0.1,0.1
		s0.1,0.1,0.1,0.1c0.3,0.2,0.6,0.1,0.9-0.1c0.3-0.2,0.6-0.5,0.8-0.9c0.2-0.4,0.3-0.8,0.3-1.2C282.5,497,282.3,496.7,282,496.6z
		 M276.8,497c0.3,0.2,0.6,0.2,0.9,0.1s0.5-0.2,0.7-0.5c0.2-0.3,0.2-0.5,0.1-0.8c-0.1-0.3-0.3-0.5-0.6-0.7c-0.3-0.2-0.6-0.2-0.9-0.1
		c-0.3,0.1-0.5,0.2-0.7,0.5c-0.2,0.3-0.2,0.5-0.1,0.8C276.3,496.7,276.5,496.9,276.8,497z"/>
	<path class="st9" d="M280.9,488.8l2,1.1c0.3,0.2,0.5,0.3,0.8,0.4c0,0,0.1,0,0.2,0s0.1-0.1,0.2-0.2c0-0.1,0.1-0.1,0.1-0.2l0.1-0.1
		c0,0,0.1,0,0.1,0c0,0,0,0,0.1,0.1s0,0.1,0,0.1c0,0.1-0.1,0.2-0.2,0.4c0,0.1-0.1,0.3-0.1,0.4c0,0.1-0.1,0.2-0.1,0.4
		c0,0.1,0,0.2-0.1,0.3l0,0.1c0,0-0.1,0-0.2,0l-0.5-0.3l-0.1,0c0.2,0.7,0.2,1.3-0.1,1.7c-0.1,0.2-0.3,0.4-0.5,0.5
		c-0.2,0.1-0.5,0.1-0.7,0.1s-0.5-0.1-0.7-0.1c-0.2-0.1-0.4-0.2-0.6-0.3l-1.2-0.7c-0.3-0.1-0.5-0.2-0.6-0.2c-0.1,0-0.2,0.1-0.3,0.2
		c-0.1,0.1-0.2,0.2-0.2,0.2c0,0.1-0.1,0.1-0.1,0.1c-0.2-0.1-0.2-0.2-0.2-0.2c0.3-0.8,0.5-1.3,0.5-1.5c0,0,0,0,0-0.1c0,0,0,0,0.1,0
		c0.1,0,0.1,0,0.1,0.1c0.3,0.2,0.5,0.4,0.7,0.5l1.3,0.8c0.5,0.3,0.9,0.4,1.2,0.4c0.3,0,0.6-0.2,0.8-0.6c0.1-0.2,0.2-0.4,0.1-0.7
		c0-0.3-0.1-0.4-0.2-0.5l-1.8-1c-0.3-0.1-0.5-0.2-0.6-0.2c-0.1,0-0.2,0.1-0.3,0.2c-0.1,0.1-0.2,0.2-0.2,0.2s-0.1,0.1-0.1,0.1
		c-0.2-0.1-0.2-0.2-0.2-0.2c0.3-0.8,0.5-1.3,0.5-1.5c0,0,0,0,0-0.1c0,0,0,0,0.1,0c0.1,0,0.1,0,0.1,0.1
		C280.5,488.5,280.7,488.7,280.9,488.8z"/>
	<path class="st9" d="M284.1,488.3l-4.3-2.4c-0.2-0.1-0.4-0.2-0.7-0.3c-0.1,0-0.3,0.1-0.5,0.4l0,0.1c0,0-0.1,0-0.1,0
		c-0.1-0.1-0.2-0.1-0.1-0.1c0.1-0.2,0.2-0.4,0.2-0.6c0.1-0.2,0.1-0.4,0.1-0.5c0-0.1,0-0.2,0-0.3s0-0.1,0-0.2l0-0.1l0,0
		c0,0,0,0,0.1,0c0,0,0.1,0,0.1,0c0.2,0.2,0.4,0.4,0.8,0.6l4.5,2.5c0.4,0.2,0.7,0.4,0.9,0.4c0,0,0.2,0,0.3-0.2s0.2-0.2,0.3-0.3
		c0,0,0.1,0,0.1,0s0.1,0.1,0.2,0.1c-0.4,0.7-0.6,1-0.7,1.1c0,0-0.2,0.4-0.6,1.1c0,0-0.1,0-0.2,0c-0.1,0-0.1-0.1-0.1-0.1
		c0-0.1,0.1-0.2,0.1-0.4c0-0.2,0-0.3,0-0.3C284.6,488.6,284.3,488.5,284.1,488.3z"/>
	<path class="st9" d="M283.2,482.5c0.2-0.4,0.5-0.6,0.7-0.7c0.3-0.1,0.6,0,1,0.2l2.3,1.3c0.1,0.1,0.3,0.1,0.4,0.1
		c0.1,0,0.2-0.1,0.3-0.2c0-0.1,0.1-0.2,0.1-0.4c0,0,0,0,0.1,0c0.1,0,0.1,0.1,0.2,0.2c0.1,0.4,0,0.7-0.1,0.9
		c-0.1,0.2-0.2,0.3-0.4,0.3s-0.4,0.1-0.6,0.1c0,0,0,0,0,0.1c0,0.1,0,0.2,0,0.3c0,0.1,0,0.2,0,0.4c0,0.1,0,0.3,0,0.4
		s-0.1,0.3-0.2,0.4c-0.2,0.3-0.4,0.5-0.7,0.6c-0.3,0.1-0.6,0.1-0.9-0.1c-0.1-0.1-0.3-0.2-0.3-0.3c-0.1-0.1-0.1-0.3-0.2-0.4
		c0-0.1,0-0.3,0-0.6s0-0.4,0.1-0.6s0.1-0.4,0.1-0.6s0.1-0.4,0.1-0.5c0-0.1,0-0.1-0.1-0.2l-0.7-0.4c-0.2-0.1-0.4-0.1-0.6-0.1
		s-0.3,0.2-0.5,0.4c-0.1,0.2-0.1,0.4-0.1,0.6c0.1,0.2,0.2,0.4,0.4,0.5c0.2,0.1,0.3,0.3,0.1,0.6c-0.1,0.2-0.2,0.3-0.4,0.3
		c-0.3-0.2-0.4-0.5-0.5-1.1C282.9,483.4,283,482.9,283.2,482.5z M286.3,485.5c0.2-0.1,0.3-0.2,0.4-0.4c0.1-0.2,0.2-0.4,0.1-0.6
		c0-0.2-0.1-0.4-0.2-0.4l-1-0.6c0,0.1,0,0.2-0.1,0.5c0,0.2-0.1,0.5-0.1,0.6c0,0.1,0,0.3,0,0.5s0.2,0.3,0.3,0.4
		C286,485.5,286.2,485.6,286.3,485.5z"/>
	<path class="st9" d="M286,477.5c0.2-0.4,0.5-0.6,0.7-0.6c0.2,0.1,0.4,0.3,0.4,0.4c0.1,0.1,0.1,0.3,0,0.4c-0.1,0.1-0.2,0.2-0.4,0.2
		c-0.2,0-0.3,0.1-0.4,0.3c-0.1,0.2-0.1,0.5,0,0.7c0.1,0.3,0.3,0.5,0.5,0.6l1.5,0.8c0.4,0.2,0.7,0.4,0.9,0.4c0,0,0.2,0,0.3-0.2
		c0.1-0.1,0.2-0.2,0.3-0.3c0,0,0.1,0,0.1,0s0.1,0.1,0.2,0.1c-0.4,0.7-0.6,1-0.7,1.1c0,0-0.2,0.4-0.6,1.1c0,0-0.1,0-0.2,0
		c-0.1,0-0.1-0.1-0.1-0.1c0-0.1,0.1-0.2,0.1-0.4c0-0.2,0-0.3,0-0.3c-0.2-0.1-0.4-0.3-0.7-0.5l-1.9-1c-0.3-0.1-0.5-0.2-0.6-0.2
		c-0.1,0-0.2,0.1-0.3,0.2c-0.1,0.1-0.2,0.2-0.2,0.2c0,0.1-0.1,0.1-0.1,0.1c-0.2-0.1-0.2-0.2-0.2-0.2c0.3-0.8,0.5-1.3,0.5-1.5
		c0,0,0,0,0-0.1c0,0,0,0,0.1,0c0.1,0,0.1,0,0.1,0.1l0.5,0.3c-0.1-0.2-0.2-0.5-0.2-0.8C285.8,478,285.9,477.8,286,477.5z"/>
	<path class="st9" d="M277.2,516.1l6.3,0.9c0.4,0,0.7,0.1,0.9,0.1c0.1,0,0.3,0,0.4-0.2c0.2-0.1,0.3-0.2,0.3-0.3c0,0,0.1,0,0.2,0.1
		c0,0,0,0,0.1,0.1c-0.4,0.7-0.7,1-0.7,1.1c0,0-0.2,0.4-0.6,1.2c0,0-0.1,0-0.2-0.1s-0.1-0.1-0.1-0.1c0-0.1,0.1-0.2,0.1-0.3
		c0-0.1,0-0.2,0-0.3c0,0-0.1-0.1-0.2-0.1c-0.1,0-0.2-0.1-0.3-0.1s-0.2-0.1-0.3-0.1l-0.1,0l-1.3-0.2c0,0-0.1,0-0.1,0
		c-0.2,0.2-0.3,0.5-0.5,0.8c-0.2,0.3-0.4,0.8-0.7,1.3v0.1l0.8,1c0.3,0.3,0.5,0.5,0.6,0.6c0.1,0,0.2,0.1,0.2,0c0.1,0,0.2-0.1,0.3-0.2
		c0.1-0.1,0.2-0.2,0.2-0.3c0,0,0.1,0,0.1,0s0.1,0.1,0.2,0.1c-0.4,0.7-0.6,1-0.6,1c-0.1,0.1-0.1,0.3-0.2,0.4c0,0.1-0.1,0.2-0.2,0.3
		c-0.1,0.1-0.1,0.2-0.2,0.4c0,0-0.1,0-0.2,0c-0.1,0-0.1-0.1-0.1-0.1c0-0.1,0.1-0.2,0.1-0.3c0-0.2,0-0.3,0-0.3
		c-0.1-0.2-0.3-0.6-0.7-1l-3.4-4.3c0,0-0.1-0.1-0.1-0.2c-0.1-0.1-0.1-0.1-0.1-0.2c0,0-0.1-0.1-0.1-0.1s-0.1-0.1-0.1-0.1s0-0.1,0-0.1
		c0,0,0-0.1,0-0.1C277.1,516.3,277.1,516.2,277.2,516.1L277.2,516.1z M280.1,519.3c0.2-0.3,0.4-0.6,0.4-0.7c0.2-0.3,0.3-0.6,0.5-0.9
		l0-0.1l-2.6-0.4L280.1,519.3C280.1,519.3,280.1,519.3,280.1,519.3z"/>
	<path class="st9" d="M283.1,510.8c0.3-0.5,0.6-0.7,1.1-0.7s1,0.2,1.8,0.6l0.9,0.5c0.4,0.2,0.7,0.4,0.9,0.4c0,0,0.2,0,0.3-0.2
		s0.2-0.2,0.3-0.3c0,0,0.1,0,0.1,0s0.1,0.1,0.2,0.1c-0.4,0.7-0.6,1-0.7,1.1c0,0-0.2,0.4-0.6,1.1c0,0-0.1,0-0.2,0
		c-0.1,0-0.1-0.1-0.1-0.1c0-0.1,0.1-0.2,0.1-0.4s0-0.3,0-0.3c-0.2-0.2-0.4-0.3-0.7-0.5l-1-0.6c-0.6-0.4-1.1-0.5-1.4-0.5
		s-0.6,0.2-0.8,0.6c-0.1,0.2-0.2,0.5-0.1,0.8c0,0.3,0.1,0.5,0.2,0.5l1.7,1c0.4,0.2,0.7,0.3,0.9,0.4c0,0,0.2,0,0.3-0.2
		s0.2-0.2,0.3-0.3c0,0,0.1,0,0.1,0c0.1,0,0.1,0.1,0.2,0.1c-0.4,0.7-0.6,1-0.7,1.1c0,0-0.2,0.4-0.6,1.1c0,0-0.1,0-0.2,0
		c-0.1,0-0.1-0.1-0.1-0.1c0-0.1,0.1-0.2,0.1-0.4c0-0.2,0-0.3,0-0.3c-0.2-0.2-0.4-0.3-0.7-0.5l-1.9-1c-0.3-0.2-0.5-0.2-0.6-0.2
		c-0.1,0-0.2,0.1-0.3,0.2c-0.1,0.1-0.2,0.2-0.2,0.2c0,0.1-0.1,0.1-0.1,0.1c-0.2-0.1-0.2-0.2-0.2-0.2c0.3-0.8,0.5-1.3,0.5-1.5
		c0,0,0,0,0-0.1c0,0,0,0,0.1,0c0.1,0,0.1,0,0.1,0.1c0.2,0.1,0.3,0.2,0.4,0.3c0,0,0,0,0,0c0,0,0,0,0,0c-0.1-0.2-0.1-0.5-0.1-0.9
		S283,511.1,283.1,510.8z"/>
	<path class="st9" d="M285.5,508.1l-0.3,0.6c0,0-0.1,0-0.2-0.1c0,0-0.1,0-0.1,0c0-0.2,0-0.6-0.2-0.9c0-0.1-0.1-0.2-0.2-0.4
		s-0.1-0.2-0.2-0.3s-0.1-0.1-0.1-0.1c0.1-0.2,0.2-0.3,0.2-0.3l1,0.5c0.1-0.2,0.2-0.4,0.5-0.8s0.3-0.5,0.3-0.6c0,0,0.1-0.1,0.1,0
		c0.1,0.1,0.2,0.2,0.3,0.3l-0.8,1.4l2.4,1.4c0.3,0.1,0.5,0.2,0.8,0.1c0.2,0,0.4-0.2,0.5-0.4c0.1-0.2,0.2-0.5,0.2-0.7c0,0,0,0,0.1,0
		c0.1,0,0.1,0,0.1,0c0,0.2,0.1,0.4,0,0.6c0,0.3-0.1,0.5-0.2,0.7c-0.2,0.3-0.5,0.6-0.8,0.7s-0.7,0-1.1-0.2L285.5,508.1z"/>
	<path class="st9" d="M290.2,505.2c0.4,0.2,0.7,0.4,0.9,0.4c0,0,0.2,0,0.3-0.2s0.2-0.2,0.3-0.3c0,0,0.1,0,0.1,0s0.1,0.1,0.2,0.1
		c-0.4,0.7-0.6,1-0.7,1.1s-0.2,0.4-0.6,1.1c0,0-0.1,0-0.2,0c-0.1,0-0.1-0.1-0.1-0.1c0-0.1,0.1-0.2,0.1-0.4c0-0.2,0-0.3,0-0.3
		c-0.2-0.1-0.4-0.3-0.7-0.5l-1.9-1c-0.3-0.1-0.5-0.2-0.6-0.2c-0.1,0-0.2,0.1-0.3,0.2c-0.1,0.1-0.2,0.2-0.2,0.2
		c0,0.1-0.1,0.1-0.1,0.1c-0.2-0.1-0.2-0.2-0.2-0.2c0.3-0.8,0.5-1.3,0.5-1.5v0c0,0,0,0,0,0c0,0,0,0,0.1,0s0.1,0,0.1,0.1
		c0.2,0.2,0.5,0.3,0.7,0.5L290.2,505.2z M285.6,503.7c-0.2,0-0.3,0-0.4,0c-0.1-0.1-0.2-0.2-0.3-0.4c0-0.1,0-0.3,0.1-0.4
		s0.2-0.2,0.3-0.3c0.2,0,0.3,0,0.4,0s0.2,0.2,0.3,0.4c0,0.1,0,0.3-0.1,0.4C285.9,503.5,285.8,503.6,285.6,503.7z"/>
	<path class="st9" d="M288.9,500.7c0.1-0.1,0.2-0.3,0.4-0.5c0.2-0.2,0.3-0.4,0.3-0.4c0.3,0.1,0.7,0.2,1.1,0.5c0,0,0,0.1,0,0.2
		c0,0.1-0.1,0.1-0.2,0.1c-0.2-0.1-0.4-0.1-0.7,0c-0.2,0.1-0.4,0.2-0.6,0.4c-0.3,0.5-0.2,0.8,0.2,1.1c0.1,0.1,0.2,0.1,0.3,0.1
		s0.2,0,0.3,0c0.1,0,0.2-0.1,0.2-0.1s0.2-0.1,0.3-0.2s0.2-0.2,0.3-0.2c0,0,0.1-0.1,0.3-0.2s0.3-0.1,0.3-0.2s0.2-0.1,0.3-0.1
		c0.1-0.1,0.2-0.1,0.3-0.1s0.2,0,0.3,0s0.2,0,0.3,0.1c0.4,0.2,0.6,0.6,0.7,1s0,0.9-0.2,1.3c-0.1,0.1-0.2,0.3-0.2,0.4
		c-0.1,0.1-0.2,0.2-0.3,0.4c-0.1,0.1-0.2,0.2-0.3,0.3c-0.1,0-0.3-0.1-0.6-0.2c-0.2-0.1-0.4-0.2-0.6-0.2c0-0.1,0-0.1,0-0.2
		c0.1-0.1,0.1-0.1,0.2-0.1c0.2,0.1,0.5,0,0.8-0.1s0.5-0.3,0.7-0.5c0.1-0.2,0.2-0.4,0.1-0.6s-0.2-0.4-0.4-0.5
		c-0.1-0.1-0.2-0.1-0.3-0.1c-0.1,0-0.2,0-0.4,0.1s-0.2,0.1-0.3,0.2c-0.1,0.1-0.2,0.1-0.4,0.2c-0.2,0.1-0.3,0.2-0.4,0.2
		c-0.6,0.4-1.1,0.4-1.5,0.2c-0.3-0.2-0.6-0.5-0.6-0.9C288.6,501.5,288.6,501.1,288.9,500.7z"/>
	<path class="st9" d="M291.2,496.6c0.2-0.3,0.4-0.6,0.6-0.7s0.5-0.3,0.8-0.3s0.5,0,0.7,0s0.4,0.1,0.6,0.2c0.1,0.1,0.2,0.1,0.2,0.2
		s0,0.1-0.1,0.3l-1.5,2.6c0,0,0,0.1,0,0.1c0.4,0.2,0.9,0.3,1.4,0.3s0.9-0.3,1.2-0.8c0.1-0.1,0.2-0.3,0.2-0.4c0-0.1,0.1-0.3,0.1-0.4
		c0-0.1,0-0.2,0-0.3c0-0.1,0-0.2,0-0.2l0-0.1c0,0,0.1,0,0.2,0c0,0,0.1,0.1,0.1,0.2c0.1,0.2,0.2,0.5,0.2,0.9s-0.1,0.7-0.3,1
		c-0.3,0.6-0.8,0.9-1.4,1.1s-1.2,0.1-1.8-0.2c-0.7-0.4-1.1-0.9-1.3-1.5S290.9,497.2,291.2,496.6z M291.5,496.9
		c-0.2,0.4-0.2,0.7,0,1.1s0.4,0.6,0.6,0.7c0,0,0.1,0,0.1,0l1.1-2c0,0,0-0.1-0.1-0.1c-0.2-0.1-0.5-0.2-0.9-0.1
		C292,496.4,291.7,496.6,291.5,496.9z"/>
	<path class="st9" d="M293.9,491.9c0.4-0.6,0.9-1,1.5-1.2s1.2,0,1.7,0.2c0.6,0.4,1.1,0.9,1.3,1.6c0.2,0.7,0.2,1.4-0.2,2
		c-0.1,0.1-0.1,0.2-0.2,0.3s-0.1,0.1-0.2,0.2c0,0-0.1,0.1-0.1,0.1c0,0-0.1,0.1-0.1,0.1c0,0-0.1,0.1-0.1,0.1c0,0,0,0.1,0.1,0.1
		l0.8,0.5c0.4,0.2,0.7,0.4,0.9,0.4c0,0,0.2,0,0.3-0.2s0.2-0.2,0.3-0.3c0,0,0.1,0,0.2,0s0.1,0.1,0.2,0.1c-0.4,0.7-0.6,1-0.7,1.1
		c0,0-0.2,0.4-0.6,1.1c0,0-0.1,0-0.2,0c-0.1,0-0.1-0.1-0.1-0.1c0-0.1,0.1-0.2,0.1-0.4c0-0.2,0-0.3,0-0.3c-0.2-0.2-0.4-0.3-0.7-0.5
		l-4.1-2.3c-0.3-0.1-0.5-0.2-0.6-0.2c-0.1,0-0.2,0.1-0.3,0.2c-0.1,0.1-0.2,0.2-0.2,0.2c0,0.1-0.1,0.1-0.1,0.1
		c-0.2-0.1-0.2-0.2-0.2-0.2c0.3-0.8,0.5-1.3,0.5-1.5c0,0,0,0,0-0.1c0,0,0,0,0.1,0c0,0,0.1,0,0.1,0.1s0.1,0.1,0.1,0.1l0.1,0
		c0-0.1,0-0.3,0-0.6C293.7,492.2,293.8,492,293.9,491.9z M294.2,492.5c-0.1,0.2-0.2,0.4-0.1,0.6c0,0.2,0.2,0.4,0.3,0.5l2.2,1.2
		c0.2,0.1,0.4,0.1,0.6,0c0.2-0.1,0.4-0.3,0.5-0.5c0.2-0.4,0.2-0.8,0-1.2c-0.2-0.4-0.5-0.8-1-1c-0.5-0.3-1.1-0.4-1.6-0.3
		C294.8,491.8,294.4,492,294.2,492.5z"/>
	<path class="st9" d="M296.4,488.9l-0.3,0.6c0,0-0.1,0-0.2-0.1c0,0-0.1,0-0.1,0c0-0.2,0-0.6-0.2-0.9c0-0.1-0.1-0.2-0.2-0.4
		s-0.1-0.2-0.2-0.3s-0.1-0.1-0.1-0.1c0.1-0.2,0.2-0.3,0.2-0.3l1,0.5c0.1-0.2,0.2-0.4,0.5-0.8s0.3-0.5,0.3-0.6c0,0,0.1-0.1,0.1,0
		c0.1,0.1,0.2,0.2,0.3,0.3l-0.8,1.4l2.4,1.4c0.3,0.1,0.5,0.2,0.8,0.1c0.2,0,0.4-0.2,0.5-0.4c0.1-0.2,0.2-0.5,0.2-0.7c0,0,0,0,0.1,0
		s0.1,0,0.1,0c0,0.2,0.1,0.4,0,0.6c0,0.3-0.1,0.5-0.2,0.7c-0.2,0.3-0.5,0.6-0.8,0.7c-0.3,0.1-0.7,0-1.1-0.2L296.4,488.9z"/>
	<path class="st9" d="M301.1,486c0.4,0.2,0.7,0.4,0.9,0.4c0,0,0.2,0,0.3-0.2s0.2-0.2,0.3-0.3c0,0,0.1,0,0.1,0s0.1,0.1,0.2,0.1
		c-0.4,0.7-0.6,1-0.7,1.1s-0.2,0.4-0.6,1.1c0,0-0.1,0-0.2,0c-0.1,0-0.1-0.1-0.1-0.1c0-0.1,0.1-0.2,0.1-0.4c0-0.2,0-0.3,0-0.3
		c-0.2-0.1-0.4-0.3-0.7-0.5l-1.9-1c-0.3-0.1-0.5-0.2-0.6-0.2c-0.1,0-0.2,0.1-0.3,0.2c-0.1,0.1-0.2,0.2-0.2,0.2
		c0,0.1-0.1,0.1-0.1,0.1c-0.2-0.1-0.2-0.2-0.2-0.2c0.3-0.8,0.5-1.3,0.5-1.5v0c0,0,0,0,0,0c0,0,0,0,0.1,0s0.1,0,0.1,0.1
		c0.2,0.2,0.5,0.3,0.7,0.5L301.1,486z M296.5,484.5c-0.2,0-0.3,0-0.4,0c-0.1-0.1-0.2-0.2-0.3-0.4c0-0.1,0-0.3,0.1-0.4
		s0.2-0.2,0.3-0.3c0.2,0,0.3,0,0.4,0c0.1,0.1,0.2,0.2,0.3,0.4c0,0.1,0,0.3-0.1,0.4C296.7,484.4,296.6,484.4,296.5,484.5z"/>
	<path class="st9" d="M300,481.1c0.4-0.8,0.9-1.2,1.4-1.3c0.4,0.2,0.6,0.5,0.5,0.8c-0.1,0.1-0.1,0.2-0.2,0.2c-0.1,0-0.2,0.1-0.4,0.1
		c-0.4,0-0.7,0.2-0.9,0.5c-0.2,0.3-0.2,0.6,0,1s0.4,0.7,1,1c0.5,0.3,1,0.4,1.5,0.3s0.9-0.4,1.2-0.8c0.1-0.1,0.2-0.3,0.2-0.4
		c0-0.1,0.1-0.3,0.1-0.4c0-0.1,0-0.2,0-0.3c0-0.1,0-0.2,0-0.2l0-0.1c0,0,0.1,0,0.2,0c0,0,0.1,0.1,0.1,0.2c0.1,0.2,0.2,0.5,0.2,0.9
		s-0.1,0.7-0.3,1c-0.3,0.6-0.8,0.9-1.4,1.1s-1.2,0.1-1.8-0.2c-0.6-0.3-1-0.8-1.3-1.4C299.6,482.3,299.6,481.7,300,481.1z"/>
	<path class="st9" d="M292.3,517.7c0,0,0.2-0.4,0.6-1.1c0,0,0.1,0,0.2,0.1c0.1,0,0.1,0.1,0.1,0.1c0,0,0,0.1-0.1,0.2s0,0.2,0,0.3
		s0,0.2,0.1,0.2c0.2,0.1,0.5,0.2,0.9,0.2l5.2,0.2c0,0,0.1,0,0.1-0.1c0,0,0-0.1,0-0.1l-1.2-1.8l-2.7-0.1c-0.5,0-0.9,0-1.3,0.1
		c-0.1,0-0.2,0.1-0.3,0.2c-0.1,0.1-0.2,0.2-0.2,0.3c0,0-0.1,0-0.2,0c-0.1,0-0.1-0.1-0.1-0.1c0.5-0.8,0.7-1.2,0.8-1.3
		c0,0,0.2-0.4,0.5-1.1c0,0,0.1,0,0.2,0.1c0.1,0,0.1,0.1,0.1,0.1c0,0,0,0.1-0.1,0.2s0,0.2,0,0.3c0,0.1,0,0.2,0.1,0.2
		c0.2,0.1,0.5,0.2,0.9,0.2l1.7,0.1l-1-1.5c-0.2-0.2-0.3-0.4-0.5-0.5c-0.1-0.1-0.2,0-0.4,0.1s-0.2,0.2-0.3,0.3c0,0-0.1,0-0.2,0
		c-0.1,0-0.1-0.1-0.1-0.1c0.3-0.5,0.5-0.9,0.6-1c0,0,0.2-0.4,0.5-1.1c0,0,0.1,0,0.2,0.1c0.1,0,0.1,0.1,0.1,0.1
		c0,0.1-0.1,0.2-0.1,0.4c0,0.2,0,0.4,0,0.5c0.1,0.2,0.3,0.6,0.7,1.2l1.1,1.7l2.8,0.1c0.1,0,0.1,0,0-0.2l-3-4.1
		c-0.2-0.3-0.4-0.4-0.5-0.5c-0.1-0.1-0.2,0-0.4,0.1c-0.1,0.1-0.2,0.2-0.3,0.3c0,0-0.1,0-0.2,0c-0.1,0-0.1-0.1-0.1-0.1
		c0.3-0.5,0.5-0.9,0.6-1c0.1-0.2,0.2-0.3,0.2-0.4c0-0.1,0.1-0.2,0.2-0.3c0-0.1,0.1-0.2,0.2-0.3c0,0,0.1,0,0.2,0.1
		c0.1,0,0.1,0.1,0.1,0.1c0,0.1-0.1,0.2-0.1,0.4c0,0.2,0,0.3,0,0.5c0.1,0.3,0.3,0.7,0.7,1.1l3.5,4.8c0.2,0.2,0.2,0.4,0.1,0.6
		c0,0-0.1,0.1-0.1,0.1l-3.2-0.2l1.6,2.3c0.2,0.2,0.2,0.4,0.1,0.6c0,0-0.1,0.1-0.1,0.1l-6.6-0.2c-0.5,0-0.9,0-1.3,0.1
		c-0.1,0-0.2,0.1-0.3,0.2c-0.1,0.1-0.2,0.2-0.2,0.3c0,0-0.1,0-0.2,0c-0.1,0-0.1-0.1-0.1-0.1C292,518.2,292.3,517.8,292.3,517.7z"/>
	<path class="st9" d="M301.7,506.2c0.3-0.5,0.6-0.7,1-0.7c0.4,0,1,0.2,1.6,0.5l1.1,0.6c0.4,0.2,0.7,0.4,0.9,0.4c0,0,0.2,0,0.3-0.2
		s0.2-0.2,0.3-0.3c0,0,0.1,0,0.1,0s0.1,0.1,0.2,0.1c-0.4,0.7-0.6,1-0.7,1.1c0,0-0.2,0.4-0.6,1.1c0,0-0.1,0-0.2,0
		c-0.1,0-0.1-0.1-0.1-0.1c0-0.1,0.1-0.2,0.1-0.4s0-0.3,0-0.3c-0.2-0.1-0.4-0.3-0.7-0.5l-1-0.6c-0.6-0.3-1.1-0.5-1.4-0.4
		s-0.6,0.3-0.8,0.6c-0.1,0.2-0.2,0.5-0.1,0.7c0,0.3,0.1,0.5,0.2,0.5l1.7,1c0.4,0.2,0.7,0.4,0.9,0.4c0,0,0.2,0,0.3-0.2
		s0.2-0.2,0.3-0.3c0,0,0.1,0,0.1,0s0.1,0.1,0.2,0.1c-0.4,0.7-0.6,1-0.7,1.1c0,0-0.2,0.4-0.6,1.1c0,0-0.1,0-0.2,0
		c-0.1,0-0.1-0.1-0.1-0.1c0-0.1,0.1-0.2,0.1-0.4c0-0.2,0-0.3,0-0.3c-0.2-0.1-0.4-0.3-0.6-0.5l-4.3-2.4c-0.2-0.1-0.4-0.2-0.7-0.3
		c-0.1,0-0.3,0.1-0.5,0.4l0,0.1c0,0-0.1,0-0.1,0c-0.1-0.1-0.2-0.1-0.1-0.1c0.1-0.2,0.2-0.4,0.2-0.6c0.1-0.2,0.1-0.4,0.1-0.5
		c0-0.1,0-0.2,0-0.3s0-0.1,0-0.2v-0.1l0,0c0,0,0,0,0.1,0c0,0,0.1,0,0.1,0c0.2,0.2,0.4,0.4,0.8,0.6l2.2,1.2c0,0,0,0,0,0c0,0,0,0,0,0
		c-0.1-0.2-0.1-0.5-0.1-0.9C301.5,506.8,301.5,506.5,301.7,506.2z"/>
	<path class="st9" d="M307,503.9c0.4,0.2,0.7,0.4,0.9,0.4c0,0,0.2,0,0.3-0.2s0.2-0.2,0.3-0.3c0,0,0.1,0,0.1,0s0.1,0.1,0.2,0.1
		c-0.4,0.7-0.6,1-0.7,1.1c0,0-0.2,0.4-0.6,1.1c0,0-0.1,0-0.2,0c-0.1,0-0.1-0.1-0.1-0.1c0-0.1,0.1-0.2,0.1-0.4c0-0.2,0-0.3,0-0.3
		c-0.2-0.1-0.4-0.3-0.7-0.5l-1.9-1c-0.3-0.1-0.5-0.2-0.6-0.2c-0.1,0-0.2,0.1-0.3,0.2c-0.1,0.1-0.2,0.2-0.2,0.2
		c0,0.1-0.1,0.1-0.1,0.1c-0.2-0.1-0.2-0.2-0.2-0.2c0.3-0.8,0.5-1.3,0.5-1.5v0c0,0,0,0,0,0c0,0,0,0,0.1,0s0.1,0,0.1,0.1
		c0.2,0.2,0.5,0.3,0.7,0.5L307,503.9z M302.3,502.3c-0.2,0-0.3,0-0.4,0c-0.1-0.1-0.2-0.2-0.3-0.4c0-0.1,0-0.3,0.1-0.4
		s0.2-0.2,0.3-0.3c0.2,0,0.3,0,0.4,0c0.1,0.1,0.2,0.2,0.3,0.4c0,0.1,0,0.3-0.1,0.4S302.5,502.3,302.3,502.3z"/>
	<path class="st9" d="M305.6,500.8l-0.3,0.6c0,0-0.1,0-0.2-0.1c0,0-0.1,0-0.1,0c0-0.2,0-0.6-0.2-0.9c0-0.1-0.1-0.2-0.2-0.4
		s-0.1-0.2-0.2-0.3s-0.1-0.1-0.1-0.1c0.1-0.2,0.2-0.3,0.2-0.3l1,0.5c0.1-0.2,0.2-0.4,0.5-0.8s0.3-0.5,0.3-0.6c0,0,0.1-0.1,0.1,0
		c0.1,0.1,0.2,0.2,0.3,0.3L306,500l2.4,1.4c0.3,0.1,0.5,0.2,0.8,0.1c0.2,0,0.4-0.2,0.5-0.4c0.1-0.2,0.2-0.5,0.2-0.7c0,0,0,0,0.1,0
		c0.1,0,0.1,0,0.1,0c0,0.2,0.1,0.4,0,0.6c0,0.3-0.1,0.5-0.2,0.7c-0.2,0.3-0.5,0.6-0.8,0.7s-0.7,0-1.1-0.2L305.6,500.8z"/>
	<path class="st9" d="M307.7,495.7c0.2-0.3,0.4-0.6,0.6-0.7s0.5-0.3,0.8-0.3s0.5,0,0.7,0s0.4,0.1,0.6,0.2c0.1,0.1,0.2,0.1,0.2,0.2
		s0,0.1-0.1,0.3L309,498c0,0,0,0.1,0,0.1c0.4,0.2,0.9,0.3,1.4,0.3s0.9-0.3,1.2-0.8c0.1-0.1,0.2-0.3,0.2-0.4c0-0.1,0.1-0.3,0.1-0.4
		c0-0.1,0-0.2,0-0.3c0-0.1,0-0.2,0-0.2l0-0.1c0,0,0.1,0,0.2,0c0,0,0.1,0.1,0.1,0.2c0.1,0.2,0.2,0.5,0.2,0.9s-0.1,0.7-0.3,1
		c-0.3,0.6-0.8,0.9-1.4,1.1s-1.2,0.1-1.8-0.2c-0.7-0.4-1.1-0.9-1.3-1.5S307.3,496.3,307.7,495.7z M308,496c-0.2,0.4-0.2,0.7,0,1.1
		s0.4,0.6,0.6,0.7c0,0,0.1,0,0.1,0l1.1-2c0,0,0-0.1-0.1-0.1c-0.2-0.1-0.5-0.2-0.9-0.1C308.4,495.5,308.2,495.7,308,496z"/>
</g>
<rect x="305.8" y="509.1" class="st0" width="142.5" height="107.9"/>
<text transform="matrix(1.0363 0 0 1 354.3154 515.866)" class="st9 st2 st11">Pleasures =</text>
<text transform="matrix(1.0363 0 0 1 340.0254 527.866)" class="st9 st2 st11">Technical Control</text>
<text transform="matrix(1.0363 0 0 1 347.6523 551.866)" class="st9 st2 st11">Displeasures = </text>
<text transform="matrix(1.0363 0 0 1 362.958 563.866)" class="st9 st2 st11">Nature</text>
<text transform="matrix(1.0363 0 0 1 354.6992 587.866)" class="st9 st2 st11">Anxiety   =</text>
<text transform="matrix(1.0363 0 0 1 323.3193 599.866)" class="st9 st2 st11">Spirit, Can’t Be Controlled</text>
<polygon class="st12" points="387.9,155.7 732.9,753.3 651.6,706.4 387.8,249.7 "/>
<polygon class="st12" points="34.1,768.5 724.5,768.5 642.9,721.4 116.1,721.4 "/>
<polygon class="st12" points="107,706.2 370.6,249.7 370.7,155.5 25.5,753.4 "/>
<polygon class="st12" points="127.1,694.7 370.7,276.3 370.7,432.6 265.4,614.8 "/>
<polygon class="st12" points="137.2,709.1 620.9,708.7 484.6,630 273.9,630 "/>
<polygon class="st12" points="280.7,616.1 379.2,445.5 477.7,616.1 "/>
<path class="st12" d="M487,621.4"/>
<path class="st12" d="M379.2,434.7"/>
<polyline class="st12" points="387.8,432.6 493.1,614.9 629.6,693.7 387.9,276.3 387.8,432.6 "/>
<polygon class="st1" points="387.8,219.8 379.2,205.1 370.7,219.8 370.7,190.4 379.2,175.7 387.8,190.4 "/>
<polygon class="st1" points="387.8,374.3 379.2,359.6 370.7,374.3 370.7,344.9 379.2,330.1 387.8,344.9 "/>
<polygon class="st1" points="662.5,733.2 679.5,733.2 671,718.4 696.5,733.1 705,747.9 687.9,748 "/>
<polygon class="st1" points="528.7,656 545.7,656 537.2,641.2 562.8,655.9 571.2,670.7 554.2,670.8 "/>
<polygon class="st1" points="83.1,719.9 74.8,734.7 91.8,734.6 66.5,749.6 49.5,749.7 57.8,734.8 "/>
<polygon class="st1" points="215.5,643.3 207.3,658.2 224.3,658 199.1,673.1 182,673.3 190.3,658.4 "/>
</svg>
