<?xml version="1.0" encoding="UTF-8"?>
<svg id="Layer_2" data-name="Layer 2" xmlns="http://www.w3.org/2000/svg" viewBox="0 0 862.61 743.09">
  <defs>
    <style>
      .cls-1 {
        letter-spacing: .1em;
      }

      .cls-2 {
        letter-spacing: .03em;
      }

      .cls-3 {
        font-family: Larken-ExtraBold, Larken-ExtraBold;
        font-size: 23.16px;
      }

      .cls-3, .cls-4, .cls-5, .cls-6, .cls-7, .cls-8 {
        fill: #c93c31;
      }

      .cls-9 {
        letter-spacing: .1em;
      }

      .cls-10 {
        stroke-width: 1.13px;
      }

      .cls-10, .cls-11 {
        fill: none;
        stroke: #c93c31;
        stroke-miterlimit: 10;
      }

      .cls-12 {
        letter-spacing: .02em;
      }

      .cls-13 {
        letter-spacing: .1em;
      }

      .cls-14 {
        letter-spacing: -.03em;
      }

      .cls-15, .cls-16, .cls-17 {
        fill: #901e14;
      }

      .cls-18 {
        letter-spacing: -.03em;
      }

      .cls-5 {
        font-family: Larken-Black, Larken-Black;
      }

      .cls-5, .cls-6 {
        font-size: 21px;
      }

      .cls-16 {
        font-size: 11px;
      }

      .cls-16, .cls-6, .cls-7, .cls-17, .cls-8 {
        font-family: CrimsonText-Regular, 'Crimson Text';
      }

      .cls-19 {
        letter-spacing: .1em;
      }

      .cls-20 {
        letter-spacing: 0em;
      }

      .cls-21 {
        letter-spacing: .03em;
      }

      .cls-7 {
        font-size: 20px;
      }

      .cls-22 {
        letter-spacing: .03em;
      }

      .cls-23 {
        letter-spacing: .03em;
      }

      .cls-24 {
        letter-spacing: .09em;
      }

      .cls-11 {
        stroke-width: 1.12px;
      }

      .cls-17 {
        font-size: 11.58px;
      }

      .cls-25 {
        letter-spacing: 0em;
      }

      .cls-8 {
        font-size: 24px;
      }

      .cls-26 {
        letter-spacing: .01em;
      }
    </style>
  </defs>
  <text class="cls-5" transform="translate(150.05 18.06)"><tspan class="cls-23" x="0" y="0">EU</tspan><tspan class="cls-18" x="29.29" y="0">R</tspan><tspan class="cls-12" x="43.97" y="0">O</tspan><tspan class="cls-23" x="60.29" y="0">PEAN AESTEHET</tspan><tspan class="cls-12" x="242.48" y="0">I</tspan><tspan class="cls-22" x="250.06" y="0">C AND EU</tspan><tspan class="cls-14" x="352.46" y="0">R</tspan><tspan class="cls-2" x="367.14" y="0">O</tspan><tspan class="cls-23" x="383.45" y="0">PEAN </tspan><tspan class="cls-21" x="448.7" y="0">D</tspan><tspan class="cls-20" x="464.68" y="0">O</tspan><tspan class="cls-22" x="480.68" y="0">MI</tspan><tspan class="cls-25" x="507.58" y="0">N</tspan><tspan class="cls-23" x="523.14" y="0">A</tspan><tspan class="cls-26" x="539.04" y="0">N</tspan><tspan class="cls-23" x="555.08" y="0">CE</tspan></text>
  <polygon class="cls-11" points="436.25 145.77 436.25 219.15 755.31 672.54 818.11 672.54 436.25 145.77"/>
  <polygon class="cls-11" points="436.25 233.13 436.25 380.85 577.73 584.31 741.59 672.54 436.25 233.13"/>
  <polygon class="cls-11" points="422.52 145.77 422.52 219.92 103.46 678.08 40.66 678.08 422.52 145.77"/>
  <polygon class="cls-10" points="422.52 233.13 424.34 381.04 281.04 588.73 117.18 678.08 422.52 233.13"/>
  <polygon class="cls-11" points="429.59 387.75 564.57 584.31 294.6 584.31 429.59 387.75"/>
  <polygon class="cls-11" points="292.6 593.04 145.34 672.54 720.66 672.54 570.51 593.04 292.6 593.04"/>
  <polygon class="cls-11" points="37.07 688.54 1.21 730.97 861.42 730.97 822.44 683.49 37.07 688.54"/>
  <rect class="cls-15" x="422.52" y="164.39" width="13.73" height="19.7"/>
  <rect class="cls-15" x="423.18" y="309.62" width="13.73" height="19.7"/>
  <rect class="cls-15" x="630.17" y="611.65" width="10.51" height="19.7" transform="translate(-206.06 907.74) rotate(-63.15)"/>
  <rect class="cls-15" x="212.35" y="618.7" width="9.31" height="19.7" transform="translate(-218.84 1130.76) rotate(-120)"/>
  <rect class="cls-15" x="427.06" y="579.11" width="9.31" height="19.7" transform="translate(-157.25 1020.67) rotate(-90)"/>
  <rect class="cls-15" x="493.82" y="469.56" width="9.59" height="19.7" transform="translate(-185.76 379.03) rotate(-35.53)"/>
  <rect class="cls-15" x="357.71" y="468.34" width="9.59" height="19.7" transform="translate(437.35 1073.57) rotate(-150)"/>
  <rect class="cls-15" x="782.04" y="672.54" width="13.73" height="10.81"/>
  <rect class="cls-15" x="64.12" y="677.94" width="13.73" height="10.81"/>
  <text class="cls-8" transform="translate(142.75 133.63) rotate(-25.18)"><tspan x="0" y="0">S</tspan></text>
  <text class="cls-8" transform="translate(153.1 128.77) rotate(-23.92)"><tspan x="0" y="0">e</tspan></text>
  <text class="cls-8" transform="translate(162.23 124.71) rotate(-22.7)"><tspan x="0" y="0">p</tspan></text>
  <text class="cls-8" transform="translate(173.21 120.13) rotate(-21.54)"><tspan x="0" y="0">a</tspan></text>
  <text class="cls-8" transform="translate(182.37 116.52) rotate(-20.57)"><tspan x="0" y="0">r</tspan></text>
  <text class="cls-8" transform="translate(190.66 113.4) rotate(-19.63)"><tspan x="0" y="0">a</tspan></text>
  <text class="cls-8" transform="translate(199.94 110.1) rotate(-18.78)"><tspan x="0" y="0">t</tspan></text>
  <text class="cls-8" transform="translate(206.88 107.74) rotate(-18.13)"><tspan x="0" y="0">i</tspan></text>
  <text class="cls-8" transform="translate(212.8 105.79) rotate(-17.27)"><tspan x="0" y="0">o</tspan></text>
  <text class="cls-8" transform="translate(224.15 102.25) rotate(-16.14)"><tspan x="0" y="0">n</tspan></text>
  <text class="cls-8" transform="translate(236.32 98.76) rotate(-15.33)"><tspan x="0" y="0"> </tspan></text>
  <text class="cls-8" transform="translate(241.48 97.34) rotate(-14.78)"><tspan x="0" y="0">f</tspan></text>
  <text class="cls-8" transform="translate(248.24 95.55) rotate(-14.08)"><tspan x="0" y="0">r</tspan></text>
  <text class="cls-8" transform="translate(256.81 93.39) rotate(-13.18)"><tspan x="0" y="0">o</tspan></text>
  <text class="cls-8" transform="translate(268.36 90.64) rotate(-11.89)"><tspan x="0" y="0">m</tspan></text>
  <text class="cls-8" transform="translate(286.66 86.85) rotate(-10.9)"><tspan x="0" y="0"> </tspan></text>
  <text class="cls-8" transform="translate(291.85 85.8) rotate(-10)"><tspan x="0" y="0">N</tspan></text>
  <text class="cls-8" transform="translate(308.45 82.91) rotate(-8.94)"><tspan x="0" y="0">a</tspan></text>
  <text class="cls-8" transform="translate(318.19 81.38) rotate(-8.27)"><tspan x="0" y="0">t</tspan></text>
  <text class="cls-8" transform="translate(325.43 80.32) rotate(-7.52)"><tspan x="0" y="0">u</tspan></text>
  <text class="cls-8" transform="translate(337.39 78.75) rotate(-6.72)"><tspan x="0" y="0">r</tspan></text>
  <text class="cls-8" transform="translate(346.19 77.71) rotate(-6.01)"><tspan x="0" y="0">e</tspan></text>
  <text class="cls-8" transform="translate(356.17 76.67) rotate(-5.43)"><tspan x="0" y="0">,</tspan></text>
  <text class="cls-8" transform="translate(361.73 76.14) rotate(-5.03)"><tspan x="0" y="0"> </tspan></text>
  <text class="cls-8" transform="translate(367.02 75.64) rotate(-4.27)"><tspan x="0" y="0">R</tspan></text>
  <text class="cls-8" transform="translate(382.39 74.51) rotate(-3.28)"><tspan x="0" y="0">h</tspan></text>
  <text class="cls-8" transform="translate(394.71 73.81) rotate(-2.48)"><tspan x="0" y="0">y</tspan></text>
  <text class="cls-8" transform="translate(405.32 73.36) rotate(-1.85)"><tspan x="0" y="0">t</tspan></text>
  <text class="cls-8" transform="translate(412.64 73.1) rotate(-1.18)"><tspan x="0" y="0">h</tspan></text>
  <text class="cls-8" transform="translate(425 72.87) rotate(-.45)"><tspan x="0" y="0">m</tspan></text>
  <text class="cls-8" transform="translate(443.68 72.82) rotate(.63)"><tspan x="0" y="0"> </tspan></text>
  <text class="cls-8" transform="translate(449.01 72.87) rotate(1.08)"><tspan x="0" y="0">-</tspan></text>
  <text class="cls-8" transform="translate(457.78 73.04) rotate(1.66)"><tspan x="0" y="0">-</tspan></text>
  <text class="cls-8" transform="translate(466.5 73.3) rotate(2.13)"><tspan x="0" y="0"> </tspan></text>
  <text class="cls-8" transform="translate(471.83 73.46) rotate(2.89)"><tspan x="0" y="0">N</tspan></text>
  <text class="cls-8" transform="translate(488.64 74.31) rotate(4.03)"><tspan x="0" y="0">T</tspan></text>
  <text class="cls-8" transform="translate(504.19 75.4) rotate(5.22)"><tspan x="0" y="0">U</tspan></text>
  <text class="cls-8" transform="translate(520.91 76.97) rotate(6.06)"><tspan x="0" y="0"> </tspan></text>
  <text class="cls-8" transform="translate(526.22 77.52) rotate(6.61)"><tspan x="0" y="0">-</tspan></text>
  <text class="cls-8" transform="translate(534.91 78.53) rotate(7.3)"><tspan x="0" y="0">-</tspan></text>
  <text class="cls-8" transform="translate(543.58 79.65) rotate(7.87)"><tspan x="0" y="0"> </tspan></text>
  <text class="cls-8" transform="translate(548.85 80.33) rotate(8.79)"><tspan x="0" y="0">U</tspan></text>
  <text class="cls-8" transform="translate(565.43 82.91) rotate(10.05)"><tspan x="0" y="0">n</tspan></text>
  <text class="cls-8" transform="translate(577.88 85.14) rotate(10.89)"><tspan x="0" y="0">i</tspan></text>
  <text class="cls-8" transform="translate(584.04 86.31) rotate(11.7)"><tspan x="0" y="0">v</tspan></text>
  <text class="cls-8" transform="translate(595.27 88.64) rotate(12.71)"><tspan x="0" y="0">e</tspan></text>
  <text class="cls-8" transform="translate(605.06 90.85) rotate(13.63)"><tspan x="0" y="0">r</tspan></text>
  <text class="cls-8" transform="translate(613.65 92.94) rotate(14.48)"><tspan x="0" y="0">s</tspan></text>
  <text class="cls-8" transform="translate(621.73 95.02) rotate(15.42)"><tspan x="0" y="0">a</tspan></text>
  <text class="cls-8" transform="translate(631.25 97.66) rotate(16.25)"><tspan x="0" y="0">l</tspan></text>
  <text class="cls-8" transform="translate(636.84 99.29) rotate(16.85)"><tspan x="0" y="0"> </tspan></text>
  <text class="cls-8" transform="translate(641.94 100.79) rotate(17.88)"><tspan x="0" y="0">L</tspan></text>
  <text class="cls-8" transform="translate(654.51 104.88) rotate(19)"><tspan x="0" y="0">i</tspan></text>
  <text class="cls-8" transform="translate(660.44 106.92) rotate(19.79)"><tspan x="0" y="0">f</tspan></text>
  <text class="cls-8" transform="translate(667.02 109.27) rotate(20.84)"><tspan x="0" y="0">e</tspan></text>
  <text class="cls-8" transform="translate(676.36 112.85) rotate(21.81)"><tspan x="0" y="0"> </tspan></text>
  <text class="cls-8" transform="translate(681.3 114.78) rotate(23.02)"><tspan x="0" y="0">F</tspan></text>
  <text class="cls-8" transform="translate(693.08 119.79) rotate(24.76)"><tspan x="0" y="0">o</tspan></text>
  <text class="cls-8" transform="translate(703.83 124.77) rotate(26.32)"><tspan x="0" y="0">r</tspan></text>
  <text class="cls-8" transform="translate(711.72 128.67) rotate(27.81)"><tspan x="0" y="0">c</tspan></text>
  <text class="cls-8" transform="translate(720.03 133.04) rotate(29.53)"><tspan x="0" y="0">e</tspan></text>
  <text class="cls-6" transform="translate(728.69 137.98) rotate(30.95)"><tspan x="0" y="0"> </tspan></text>
  <text class="cls-7" transform="translate(236.47 160.53) rotate(-17.96) scale(.91 1)"><tspan x="0" y="0">“</tspan></text>
  <text class="cls-7" transform="translate(241.66 158.83) rotate(-17.16) scale(.91 1)"><tspan x="0" y="0">P</tspan></text>
  <text class="cls-7" transform="translate(250.92 155.98) rotate(-16.25) scale(.91 1)"><tspan x="0" y="0">e</tspan></text>
  <text class="cls-7" transform="translate(258.23 153.85) rotate(-15.5) scale(.91 1)"><tspan x="0" y="0">r</tspan></text>
  <text class="cls-7" transform="translate(264.74 152.06) rotate(-14.88) scale(.91 1)"><tspan x="0" y="0">f</tspan></text>
  <text class="cls-7" transform="translate(269.88 150.68) rotate(-14.22) scale(.91 1)"><tspan x="0" y="0">e</tspan></text>
  <text class="cls-7" transform="translate(277.28 148.81) rotate(-13.47) scale(.91 1)"><tspan x="0" y="0">c</tspan></text>
  <text class="cls-7" transform="translate(284.29 147.13) rotate(-12.83) scale(.91 1)"><tspan x="0" y="0">t</tspan></text>
  <text class="cls-7" transform="translate(289.71 145.9) rotate(-12.32) scale(.91 1)"><tspan x="0" y="0">i</tspan></text>
  <text class="cls-7" transform="translate(294.37 144.87) rotate(-11.64) scale(.91 1)"><tspan x="0" y="0">o</tspan></text>
  <text class="cls-7" transform="translate(303.23 143.04) rotate(-10.73) scale(.91 1)"><tspan x="0" y="0">n</tspan></text>
  <text class="cls-7" transform="translate(312.69 141.26) rotate(-10.01) scale(.91 1)"><tspan x="0" y="0">”</tspan></text>
  <text class="cls-7" transform="translate(318.12 140.31) rotate(-9.55) scale(.91 1)"><tspan x="0" y="0"> </tspan></text>
  <text class="cls-7" transform="translate(322.13 139.62) rotate(-8.88) scale(.91 1)"><tspan x="0" y="0">=</tspan></text>
  <text class="cls-7" transform="translate(332.13 138.07) rotate(-8.22) scale(.91 1)"><tspan x="0" y="0"> </tspan></text>
  <text class="cls-7" transform="translate(336.18 137.49) rotate(-7.84) scale(.91 1)"><tspan x="0" y="0"> </tspan></text>
  <text class="cls-7" transform="translate(340.19 136.9) rotate(-7.07) scale(.91 1)"><tspan x="0" y="0">N</tspan></text>
  <text class="cls-7" transform="translate(352.88 135.35) rotate(-6.08) scale(.91 1)"><tspan x="0" y="0">o</tspan></text>
  <text class="cls-7" transform="translate(361.89 134.38) rotate(-5.25) scale(.91 1)"><tspan x="0" y="0">n</tspan></text>
  <text class="cls-7" transform="translate(371.49 133.51) rotate(-4.54) scale(.91 1)"><tspan x="0" y="0">-</tspan></text>
  <text class="cls-7" transform="translate(378.14 132.98) rotate(-3.87) scale(.91 1)"><tspan x="0" y="0">S</tspan></text>
  <text class="cls-7" transform="translate(386.82 132.39) rotate(-3.11) scale(.91 1)"><tspan x="0" y="0">p</tspan></text>
  <text class="cls-7" transform="translate(395.91 131.9) rotate(-2.52) scale(.91 1)"><tspan x="0" y="0">i</tspan></text>
  <text class="cls-7" transform="translate(400.66 131.69) rotate(-2.04) scale(.91 1)"><tspan x="0" y="0">r</tspan></text>
  <text class="cls-7" transform="translate(407.41 131.46) rotate(-1.56) scale(.91 1)"><tspan x="0" y="0">i</tspan></text>
  <text class="cls-7" transform="translate(412.17 131.32) rotate(-1.13) scale(.91 1)"><tspan x="0" y="0">t</tspan></text>
  <text class="cls-7" transform="translate(417.76 131.21) rotate(-.54) scale(.91 1)"><tspan x="0" y="0">u</tspan></text>
  <text class="cls-7" transform="translate(426.93 131.1) rotate(.5) scale(.91 1)"><tspan x="0" y="0">a</tspan></text>
  <text class="cls-7" transform="translate(434.47 131.15) rotate(.59) scale(.91 1)"><tspan x="0" y="0">l</tspan></text>
  <text class="cls-7" transform="translate(438.93 131.2) rotate(.93) scale(.91 1)"><tspan x="0" y="0">,</tspan></text>
  <text class="cls-7" transform="translate(443.16 131.26) rotate(1.25) scale(.91 1)"><tspan x="0" y="0"> </tspan></text>
  <text class="cls-7" transform="translate(447.21 131.34) rotate(1.81) scale(.91 1)"><tspan x="0" y="0">E</tspan></text>
  <text class="cls-7" transform="translate(457.37 131.66) rotate(2.54) scale(.91 1)"><tspan x="0" y="0">x</tspan></text>
  <text class="cls-7" transform="translate(465.66 132.04) rotate(3.09) scale(.91 1)"><tspan x="0" y="0">t</tspan></text>
  <text class="cls-7" transform="translate(471.21 132.33) rotate(3.63) scale(.91 1)"><tspan x="0" y="0">e</tspan></text>
  <text class="cls-7" transform="translate(478.83 132.82) rotate(4.22) scale(.91 1)"><tspan x="0" y="0">r</tspan></text>
  <text class="cls-7" transform="translate(485.56 133.3) rotate(4.9) scale(.91 1)"><tspan x="0" y="0">n</tspan></text>
  <text class="cls-7" transform="translate(495.18 134.14) rotate(5.62) scale(.91 1)"><tspan x="0" y="0">a</tspan></text>
  <text class="cls-7" transform="translate(502.64 134.88) rotate(6.12) scale(.91 1)"><tspan x="0" y="0">l</tspan></text>
  <text class="cls-7" transform="translate(507.1 135.35) rotate(6.5) scale(.91 1)"><tspan x="0" y="0">,</tspan></text>
  <text class="cls-7" transform="translate(511.29 135.83) rotate(6.85) scale(.91 1)"><tspan x="0" y="0"> </tspan></text>
  <text class="cls-7" transform="translate(515.33 136.27) rotate(7.74) scale(.91 1)"><tspan x="0" y="0">M</tspan></text>
  <text class="cls-7" transform="translate(531.34 138.48) rotate(8.78) scale(.91 1)"><tspan x="0" y="0">a</tspan></text>
  <text class="cls-7" transform="translate(538.77 139.64) rotate(9.37) scale(.91 1)"><tspan x="0" y="0">t</tspan></text>
  <text class="cls-7" transform="translate(544.27 140.54) rotate(9.97) scale(.91 1)"><tspan x="0" y="0">e</tspan></text>
  <text class="cls-7" transform="translate(551.78 141.86) rotate(10.63) scale(.91 1)"><tspan x="0" y="0">r</tspan></text>
  <text class="cls-7" transform="translate(558.42 143.11) rotate(11.17) scale(.91 1)"><tspan x="0" y="0">i</tspan></text>
  <text class="cls-7" transform="translate(563.1 144.03) rotate(11.74) scale(.91 1)"><tspan x="0" y="0">a</tspan></text>
  <text class="cls-7" transform="translate(570.45 145.56) rotate(12.31) scale(.91 1)"><tspan x="0" y="0">l</tspan></text>
  <text class="cls-7" transform="translate(574.81 146.51) rotate(12.71) scale(.91 1)"><tspan x="0" y="0"> </tspan></text>
  <text class="cls-7" transform="translate(578.75 147.38) rotate(13.47) scale(.91 1)"><tspan x="0" y="0">R</tspan></text>
  <text class="cls-7" transform="translate(590.14 150.12) rotate(14.41) scale(.91 1)"><tspan x="0" y="0">e</tspan></text>
  <text class="cls-7" transform="translate(597.54 152.02) rotate(15.17) scale(.91 1)"><tspan x="0" y="0">a</tspan></text>
  <text class="cls-7" transform="translate(604.79 154) rotate(15.77) scale(.91 1)"><tspan x="0" y="0">l</tspan></text>
  <text class="cls-7" transform="translate(609.07 155.2) rotate(16.23) scale(.91 1)"><tspan x="0" y="0">i</tspan></text>
  <text class="cls-7" transform="translate(613.64 156.53) rotate(16.8) scale(.91 1)"><tspan x="0" y="0">s</tspan></text>
  <text class="cls-7" transform="translate(619.72 158.33) rotate(17.87) scale(.91 1)"><tspan x="0" y="0">m</tspan></text>
  <text class="cls-3" transform="translate(353.72 717.65) scale(1.04 1)"><tspan class="cls-1" x="0" y="0">P</tspan><tspan class="cls-24" x="16.88" y="0">O</tspan><tspan class="cls-13" x="36.31" y="0">LIT</tspan><tspan class="cls-9" x="78.99" y="0">I</tspan><tspan class="cls-19" x="88.58" y="0">C</tspan><tspan class="cls-13" x="106.32" y="0">AL</tspan></text>
  <g>
    <path class="cls-4" d="M220.58,482.17l-.08-.05c-.75-1.57-1.7-3.19-2.87-4.88l-5.02-7.31c-.15-.22-.28-.38-.41-.48s-.2-.16-.23-.18c-.2-.14-.42-.26-.64-.35-.23-.09-.44-.17-.63-.24-.19-.06-.37-.12-.53-.15l-.26-.04-.06-.04,2.88-4.08,13.24,3.3c1.7,.43,3.13,.64,4.31,.6l.08,.05-3.81,5.39-.08-.05c-.44-.61-.93-1.1-1.46-1.47s-1.08-.63-1.69-.78l-1.75-.45-3.46,4.9,.56,.81c.2,.28,.41,.52,.64,.72,.23,.2,.42,.36,.59,.47,.1,.07,.24,.16,.42,.27,.18,.11,.42,.23,.71,.36,.3,.13,.55,.22,.75,.28,.21,.06,.4,.11,.58,.16s.28,.08,.29,.09l.09,.07-2.17,3.08Zm-.14-11.47l-7.16-1.83,4.18,6.04,2.98-4.21Z"/>
    <path class="cls-4" d="M231.92,465.23c-.17-.22-.36-.45-.57-.7s-.48-.53-.81-.85c-.33-.32-.65-.59-.97-.82l-7.41-5.24c-.32-.22-.68-.44-1.09-.64-.41-.2-.77-.36-1.08-.48-.3-.12-.59-.22-.85-.3s-.4-.13-.41-.14l-.08-.05,7.19-10.17,3.39,2.39-.07,.1s-.29,.07-.78,.16c-.49,.09-1,.2-1.55,.33-.55,.13-1.13,.36-1.74,.67-.61,.31-1.06,.68-1.36,1.1l-1.4,1.98,5.41,3.82,.17-.24c.29-.41,.55-.89,.79-1.46,.24-.57,.42-1.06,.53-1.49s.21-.82,.3-1.18c.09-.36,.14-.55,.16-.58l.07-.1,2.8,1.98-.07,.1s-.18,.14-.5,.34c-.31,.2-.65,.43-1.02,.68s-.78,.58-1.23,1c-.45,.41-.82,.82-1.11,1.23l-.17,.24,6.66,4.7-2.85,4.04-.08-.05s-.1-.12-.27-.34Z"/>
    <path class="cls-4" d="M241.21,452.08c-.17-.22-.36-.45-.57-.7s-.48-.53-.81-.85c-.33-.32-.65-.59-.97-.82l-7.41-5.24c-.32-.22-.68-.44-1.09-.64-.41-.2-.77-.36-1.08-.48-.3-.12-.59-.22-.85-.3s-.4-.13-.41-.14l-.08-.05,7.19-10.17,3.39,2.39-.07,.1s-.29,.07-.78,.16c-.49,.09-1,.2-1.55,.33-.55,.13-1.13,.36-1.74,.67-.61,.31-1.06,.68-1.36,1.1l-1.4,1.98,5.41,3.82,.17-.24c.29-.41,.55-.89,.79-1.46,.24-.57,.42-1.06,.53-1.49s.21-.82,.3-1.18c.09-.36,.14-.55,.16-.58l.07-.1,2.8,1.98-.07,.1s-.18,.14-.5,.34c-.31,.2-.65,.43-1.02,.68s-.78,.58-1.23,1c-.45,.41-.82,.82-1.11,1.23l-.17,.24,6.66,4.7-2.85,4.04-.08-.05s-.1-.12-.27-.34Z"/>
    <path class="cls-4" d="M237.31,429.75l-.08-.05,7.4-10.47,3.61,2.55-.07,.1s-.3,.06-.82,.13c-.51,.07-1.05,.16-1.63,.28s-1.18,.32-1.81,.62c-.63,.3-1.1,.65-1.39,1.07l-1.61,2.27,5.47,3.86,.46-.65c.3-.42,.56-.91,.8-1.48s.41-1.06,.53-1.49c.11-.43,.21-.82,.3-1.18,.08-.36,.14-.55,.15-.58l.07-.1,2.8,1.98-.07,.1s-.18,.14-.5,.34c-.31,.2-.65,.43-1.02,.68-.37,.25-.78,.58-1.23,1-.45,.41-.83,.83-1.12,1.25l-.46,.65,5.77,4.08,1.65-2.33c.3-.42,.48-.98,.54-1.67,.07-.7,.06-1.33-.02-1.91s-.18-1.12-.28-1.63c-.11-.51-.16-.78-.15-.81l.07-.1,3.61,2.55-7.44,10.53-.08-.05s-.1-.12-.27-.34c-.17-.22-.36-.45-.57-.7s-.48-.53-.81-.85c-.33-.32-.65-.59-.97-.82l-7.41-5.24c-.32-.22-.68-.44-1.09-.64-.41-.2-.77-.36-1.08-.48-.3-.12-.59-.22-.85-.3s-.4-.13-.41-.14Z"/>
    <path class="cls-4" d="M249.86,415.52c-.36-2.21,.17-4.34,1.6-6.36,.86-1.22,2.26-2.65,4.21-4.31l3.78,2.67-.08,.12c-3.62-.07-5.86,.51-6.73,1.74-.67,.95-.67,2.19,.01,3.7,.68,1.51,1.9,2.89,3.65,4.12s3.44,1.91,5.09,2.04c1.66,.13,2.82-.27,3.48-1.21,.49-.69,.65-1.63,.48-2.82-.17-1.19-.55-2.56-1.12-4.13l.08-.12,3.82,2.7c-.91,2.41-1.82,4.27-2.74,5.56-1.38,1.95-3.17,3.11-5.39,3.49-2.22,.38-4.37-.16-6.45-1.63s-3.33-3.33-3.7-5.56Z"/>
    <path class="cls-4" d="M261.44,404.6l-4.31-3.05,8.93-12.64,4.31,3.05-.07,.1-1.34,.05c-.91,.03-1.86,.16-2.85,.4-.99,.24-1.68,.63-2.05,1.16l-.33,.47,9.61,6.79c.32,.22,.68,.44,1.09,.64,.41,.2,.77,.37,1.08,.48s.59,.22,.85,.3c.26,.09,.4,.13,.41,.14l.08,.05-3.25,4.61-.08-.05s-.1-.12-.27-.34c-.17-.22-.36-.45-.57-.7s-.48-.53-.81-.85c-.33-.32-.65-.59-.97-.82l-9.61-6.79-.33,.47c-.38,.54-.52,1.31-.41,2.33,.11,1.01,.3,1.95,.58,2.82l.4,1.28-.07,.1Z"/>
    <path class="cls-4" d="M268.2,386.04l-.08-.05,3.26-4.61,.08,.05s.06,.07,.15,.18c.09,.11,.19,.24,.29,.37s.24,.3,.4,.49c.16,.2,.33,.38,.51,.56s.38,.37,.6,.57,.45,.38,.66,.53l7.41,5.24c.21,.15,.45,.3,.72,.45,.27,.15,.51,.27,.74,.38,.23,.1,.46,.2,.7,.29,.24,.09,.44,.16,.6,.22s.31,.11,.44,.15,.21,.08,.22,.08l.08,.05-3.26,4.61-.08-.05s-.1-.12-.27-.34c-.17-.22-.36-.45-.57-.7s-.48-.53-.81-.85c-.33-.32-.65-.59-.97-.82l-7.41-5.24c-.32-.22-.68-.44-1.09-.64-.41-.2-.77-.36-1.08-.48-.3-.12-.59-.22-.85-.3s-.4-.13-.41-.14Z"/>
    <path class="cls-4" d="M273.44,378.66l-.09-.07,3.84-5.43,.08,.05,.12,.15c.08,.1,.17,.2,.26,.3,.09,.1,.2,.23,.34,.38,.14,.15,.3,.29,.47,.42,.17,.13,.36,.27,.55,.4s.41,.26,.66,.38,.48,.2,.73,.25l10.22,2.52-5.46-7.92c-.15-.22-.32-.43-.51-.62s-.35-.34-.47-.44-.21-.16-.26-.2c-.15-.11-.32-.22-.52-.32-.2-.11-.38-.21-.56-.29s-.36-.17-.56-.25c-.2-.08-.35-.14-.47-.18-.11-.04-.23-.08-.35-.13l-.19-.05-.09-.07,2.09-2.96,.08,.05s.17,.32,.45,.86c.29,.55,.65,1.21,1.1,2,.45,.79,.88,1.47,1.3,2.06l6.9,10.02-2.05,2.9-13.29-3.22c-.54-.12-1.14-.23-1.82-.32-.68-.09-1.25-.15-1.72-.2-.47-.05-.72-.07-.75-.08Z"/>
    <path class="cls-4" d="M285.22,361.95l-.08-.05,7.4-10.47,3.61,2.55-.07,.1s-.3,.06-.82,.13c-.51,.07-1.05,.16-1.63,.28s-1.18,.32-1.81,.62c-.63,.3-1.1,.65-1.39,1.07l-1.61,2.27,5.47,3.86,.46-.65c.3-.42,.56-.91,.8-1.48s.41-1.06,.53-1.49c.11-.43,.21-.82,.3-1.18,.08-.36,.14-.55,.15-.58l.07-.1,2.8,1.98-.07,.1s-.18,.14-.5,.34c-.31,.2-.65,.43-1.02,.68-.37,.25-.78,.58-1.23,1-.45,.41-.83,.83-1.12,1.25l-.46,.65,5.77,4.08,1.65-2.33c.3-.42,.48-.98,.54-1.67,.07-.7,.06-1.33-.02-1.91s-.18-1.12-.28-1.63c-.11-.51-.16-.78-.15-.81l.07-.1,3.61,2.55-7.44,10.53-.08-.05s-.1-.12-.27-.34c-.17-.22-.36-.45-.57-.7s-.48-.53-.81-.85c-.33-.32-.65-.59-.97-.82l-7.41-5.24c-.32-.22-.68-.44-1.09-.64-.41-.2-.77-.36-1.08-.48-.3-.12-.59-.22-.85-.3s-.4-.13-.41-.14Z"/>
  </g>
  <g>
    <path class="cls-4" d="M561.48,344.2c2.2,.45,3.99,1.7,5.37,3.76,.83,1.24,1.67,3.06,2.53,5.47l-3.84,2.58-.08-.12c1.35-3.36,1.61-5.66,.77-6.91-.65-.97-1.8-1.4-3.46-1.3-1.65,.1-3.37,.75-5.15,1.95s-3.01,2.53-3.72,4.03c-.71,1.5-.75,2.73-.1,3.68,.47,.7,1.3,1.19,2.47,1.45,1.17,.26,2.59,.4,4.26,.42l.08,.12-3.88,2.61c-1.93-1.71-3.34-3.22-4.22-4.54-1.33-1.98-1.78-4.07-1.35-6.28,.43-2.21,1.7-4.02,3.82-5.44s4.3-1.92,6.51-1.48Z"/>
    <path class="cls-4" d="M565.25,360.89c2.1-1.41,4.25-1.9,6.45-1.47,2.2,.43,3.96,1.64,5.29,3.62,1.33,1.98,1.78,4.07,1.36,6.27-.43,2.2-1.69,4.01-3.79,5.43s-4.27,1.92-6.48,1.49c-2.23-.43-4-1.64-5.33-3.62s-1.77-4.07-1.33-6.28c.44-2.21,1.72-4.02,3.83-5.44Zm.66,5.55c-.62,.59-1.18,1.22-1.67,1.87-.49,.66-.8,1.32-.93,1.98-.14,.67-.05,1.26,.28,1.75s.83,.8,1.51,.92c.68,.12,1.42,.08,2.22-.12,.8-.2,1.6-.48,2.39-.84,.79-.36,1.53-.77,2.21-1.22s1.33-.98,1.94-1.57c.62-.59,1.17-1.21,1.64-1.87,.48-.66,.78-1.32,.92-1.99,.14-.67,.04-1.25-.29-1.74-.44-.65-1.17-.97-2.2-.97-1.03,0-2.07,.22-3.12,.65-1.05,.43-2.04,.95-2.96,1.57-.68,.46-1.33,.98-1.96,1.58Z"/>
    <path class="cls-4" d="M583.06,376.51c2.32,.49,4.18,1.78,5.59,3.88,1.04,1.55,1.84,3.51,2.39,5.88l-3.79,2.55-.11-.16s.06-.16,.16-.43c.1-.26,.18-.48,.24-.66,.06-.17,.15-.44,.26-.78,.11-.35,.2-.65,.26-.92,.06-.27,.12-.59,.2-.96,.07-.36,.11-.7,.11-1.02,0-.31,0-.63-.02-.96-.01-.33-.07-.64-.16-.95-.09-.3-.22-.58-.39-.83l-.03-.04c-.7-1.05-1.83-1.51-3.38-1.37-1.55,.13-3.25,.83-5.11,2.07s-3.14,2.58-3.83,3.99-.67,2.69,.07,3.83l.05,.08c.38,.57,.92,1.07,1.62,1.49l2.77-1.86c.32-.22,.62-.52,.91-.91,.28-.39,.5-.76,.64-1.1s.28-.66,.4-.96c.12-.3,.19-.46,.2-.47l.08-.05,3.56,5.3-.08,.05s-.22,.1-.59,.25-.81,.36-1.34,.63-1,.54-1.41,.81l-2.65,1.78c-.86-.5-1.81-1.2-2.87-2.11-1.05-.9-1.94-1.88-2.65-2.95-1.35-2.01-1.81-4.13-1.38-6.36,.43-2.24,1.69-4.06,3.78-5.46s4.16-1.77,6.47-1.29Z"/>
    <path class="cls-4" d="M580.8,398.76s.24-.07,.65-.16c.4-.09,.85-.2,1.33-.33,.48-.13,1.04-.33,1.67-.59,.63-.26,1.18-.55,1.64-.86l5.88-3.95c.33-.22,.67-.51,1-.86,.33-.35,.6-.67,.8-.96s.39-.57,.56-.83c.17-.26,.26-.39,.27-.4l.08-.05,2.88,4.28-5.06,13.15,4.92-3.31c.46-.31,.93-.71,1.41-1.2s.87-.93,1.17-1.32c.3-.39,.57-.76,.81-1.11s.37-.52,.39-.54l.12-.08,2.16,3.21-.12,.08s-.24,.07-.65,.16-.85,.2-1.33,.33c-.48,.13-1.04,.33-1.67,.59s-1.18,.55-1.64,.86l-9.19,6.18-1.5-2.23,5.85-15.38-6.5,4.37c-.46,.31-.93,.71-1.41,1.2-.48,.49-.87,.93-1.17,1.32-.3,.39-.56,.77-.81,1.12-.25,.36-.37,.54-.39,.55l-.12,.08-2.17-3.23,.12-.08Z"/>
    <path class="cls-4" d="M605.73,406.38l.08-.05,3.15,4.68-.08,.05s-.09,.03-.23,.08c-.14,.04-.29,.09-.45,.14s-.36,.12-.6,.2c-.24,.08-.48,.18-.71,.27s-.48,.22-.75,.36-.51,.29-.73,.43l-7.53,5.06c-.22,.15-.44,.32-.67,.51-.23,.2-.44,.38-.62,.56-.18,.18-.35,.36-.52,.55-.17,.19-.31,.35-.42,.48s-.21,.25-.3,.36-.15,.17-.16,.18l-.08,.05-3.15-4.68,.08-.05s.15-.05,.41-.13c.26-.08,.55-.17,.85-.28s.67-.26,1.09-.46c.42-.19,.79-.4,1.11-.61l7.53-5.06c.32-.22,.65-.48,.99-.79,.34-.31,.62-.59,.83-.83,.22-.24,.41-.47,.59-.68s.27-.32,.28-.33Z"/>
    <path class="cls-4" d="M606.57,416.92l4.38-2.95,8.64,12.85-4.38,2.95-.07-.1,.43-1.27c.3-.86,.51-1.79,.64-2.8,.13-1.01,.01-1.79-.36-2.33l-.32-.48-9.76,6.56c-.32,.22-.65,.48-.99,.79-.34,.31-.62,.59-.83,.83s-.41,.47-.59,.68c-.17,.21-.27,.32-.28,.33l-.08,.05-3.15-4.68,.08-.05s.15-.05,.41-.13c.26-.08,.55-.18,.85-.29s.67-.26,1.09-.46c.42-.19,.79-.4,1.11-.61l9.76-6.56-.32-.48c-.37-.54-1.04-.95-2.03-1.21-.99-.26-1.93-.42-2.84-.46l-1.34-.08-.07-.1Z"/>
    <path class="cls-4" d="M621.5,429.84l.08-.05,3.15,4.68-.08,.05s-.09,.03-.23,.08c-.14,.04-.29,.09-.45,.14s-.36,.12-.6,.2c-.24,.08-.48,.18-.71,.27s-.48,.22-.75,.36-.51,.29-.73,.43l-7.53,5.06c-.22,.15-.44,.32-.67,.51-.23,.2-.44,.38-.62,.56-.18,.18-.35,.36-.52,.55-.17,.19-.31,.35-.42,.48s-.21,.25-.3,.36-.15,.17-.16,.18l-.08,.05-3.15-4.68,.08-.05s.15-.05,.41-.13c.26-.08,.55-.17,.85-.28s.67-.26,1.09-.46c.42-.19,.79-.4,1.11-.61l7.53-5.06c.32-.22,.65-.48,.99-.79,.34-.31,.62-.59,.83-.83,.22-.24,.41-.47,.59-.68s.27-.32,.28-.33Z"/>
    <path class="cls-4" d="M626.53,437.36l.1-.06,3.71,5.52-.08,.05-.18,.06c-.12,.04-.24,.09-.37,.13-.13,.05-.29,.11-.47,.19-.19,.08-.37,.18-.56,.29-.18,.11-.38,.24-.57,.37s-.39,.29-.58,.48-.36,.38-.49,.59l-5.99,8.65,9.34-2.29c.26-.06,.51-.14,.76-.25s.44-.21,.58-.29,.22-.14,.28-.17c.15-.1,.32-.23,.49-.37,.17-.14,.33-.28,.47-.42s.29-.28,.43-.44c.15-.16,.26-.28,.34-.37,.08-.09,.16-.18,.24-.28l.11-.16,.1-.06,2.02,3.01-.08,.05s-.36,.04-.97,.12c-.61,.07-1.36,.18-2.26,.32-.89,.14-1.69,.3-2.39,.48l-11.82,2.88-1.98-2.95,7.74-11.27c.31-.46,.62-.99,.94-1.59,.32-.6,.59-1.11,.8-1.53,.21-.42,.32-.65,.34-.68Z"/>
    <path class="cls-4" d="M637.96,454.32l.08-.05,7.15,10.64-3.67,2.47-.07-.1s.05-.3,.17-.81c.12-.5,.22-1.04,.32-1.62s.12-1.21,.07-1.91c-.05-.7-.22-1.26-.51-1.68l-1.55-2.31-5.55,3.73,.44,.66c.29,.42,.65,.85,1.09,1.27s.85,.77,1.21,1.03c.36,.26,.69,.49,1,.7,.31,.21,.47,.32,.49,.35l.07,.1-2.84,1.91-.07-.1s-.07-.22-.14-.58c-.08-.36-.17-.76-.27-1.19-.1-.43-.27-.93-.49-1.5-.23-.57-.48-1.07-.77-1.49l-.44-.66-5.86,3.94,1.59,2.37c.29,.42,.74,.79,1.37,1.1,.63,.31,1.23,.53,1.8,.66s1.11,.23,1.62,.31c.51,.08,.78,.13,.81,.15l.07,.1-3.67,2.47-7.19-10.7,.08-.05s.15-.05,.41-.13c.26-.08,.55-.17,.85-.28s.67-.26,1.09-.46c.42-.19,.79-.4,1.11-.61l7.53-5.06c.32-.22,.65-.48,.99-.79,.34-.31,.62-.59,.83-.83,.22-.24,.41-.47,.59-.68s.27-.32,.28-.33Z"/>
  </g>
  <text class="cls-17" transform="translate(387.01 613.9) scale(1.04 1)"><tspan x="0" y="0">European Aestethic</tspan><tspan x="1.57" y="13.9">Causes Self-Hatred</tspan><tspan x="-21.24" y="27.79">Interiorization and Rejection </tspan><tspan x="-48.2" y="41.69" xml:space="preserve">of the “Non-European”    (natural)  Being</tspan></text>
  <g>
    <path class="cls-15" d="M545.88,418.15l-3.71,5.23c-.22,.31-.38,.55-.49,.73-.07,.1-.08,.25-.03,.46s.1,.34,.15,.42c.02,.03-.03,.08-.15,.16-.03,.02-.06,.03-.11,.04-.4-.67-.62-1.04-.66-1.11,0,0-.27-.38-.79-1.11,0-.04,.05-.09,.13-.14,.08-.05,.13-.06,.15-.03,.05,.08,.13,.17,.24,.26s.19,.14,.26,.13c.06-.02,.11-.05,.16-.08,.08-.05,.17-.13,.27-.22s.17-.17,.22-.23l.08-.11,.81-1.1s.01-.06,0-.08c-.15-.27-.3-.52-.46-.76-.22-.34-.51-.75-.86-1.21l-.06-.03-1.32,.26c-.39,.1-.64,.18-.76,.26-.09,.06-.13,.13-.14,.2,0,.09,.02,.21,.08,.36s.11,.25,.14,.31c.01,.02-.02,.06-.09,.11s-.13,.08-.17,.09c-.4-.67-.6-1.02-.61-1.04-.09-.13-.16-.24-.23-.34-.07-.09-.15-.2-.23-.32-.08-.12-.17-.23-.25-.34,0-.04,.05-.09,.12-.13,.09-.06,.14-.07,.16-.05,.05,.08,.13,.17,.25,.27s.21,.16,.3,.17c.26,.03,.66-.01,1.19-.12l5.35-1.06s.1-.02,.19-.04,.15-.04,.19-.05c.04,0,.1-.02,.17-.03s.13-.01,.16,0,.08,0,.13,.02,.09,.03,.13,.05c.04,.03,.07,.06,.1,.11l.03,.11Zm-4.16,1.1c.21,.35,.36,.58,.44,.71,.19,.29,.39,.58,.61,.87h.07s1.57-2.16,1.57-2.16l-2.66,.54s-.03,.03-.03,.04Z"/>
    <path class="cls-15" d="M547.46,425.16c.41,.63,.53,1.25,.34,1.88-.18,.63-.5,1.09-.97,1.4-.6,.39-1.28,.51-2.03,.34s-1.31-.52-1.68-1.08c-.16-.24-.29-.49-.39-.73s-.16-.38-.19-.42c-.04-.06-.1-.12-.2-.19-.09-.07-.14-.11-.15-.12-.02-.03-.03-.07-.05-.14-.02-.07-.01-.11,.01-.13,0,0,.07-.03,.18-.07,.11-.04,.27-.12,.47-.22,.2-.1,.42-.23,.65-.39l3.92-2.56c.21-.14,.4-.29,.57-.45,.08-.1,.02-.3-.18-.6l-.06-.09s0-.08,.07-.13c.1-.07,.16-.08,.19-.04,.15,.18,.29,.35,.43,.49,.14,.15,.26,.26,.35,.33,.09,.07,.18,.13,.25,.18,.07,.05,.13,.08,.17,.1l.05,.02v.02s.03,.06,.01,.11c-.02,.05-.04,.09-.07,.11-.25,.06-.55,.2-.89,.43l-1.66,1.08c-.07,.05-.1,.08-.08,.1,0,0,.01,.01,.03,.02,.12,.05,.28,.15,.47,.29s.34,.29,.43,.43Zm-.67-.01c-.12-.18-.27-.31-.45-.38s-.37-.04-.55,.08l-2.21,1.44c-.2,.13-.28,.32-.24,.57s.14,.51,.3,.76c.24,.37,.6,.55,1.08,.54s.93-.16,1.36-.44c.5-.33,.81-.73,.95-1.2s.05-.93-.24-1.38Z"/>
    <path class="cls-15" d="M550.24,429.43c.09,.14,.2,.34,.3,.58,.11,.24,.18,.41,.23,.5-.25,.26-.54,.5-.89,.75-.03,.02-.08-.01-.13-.1-.06-.09-.07-.16-.03-.19,.16-.15,.26-.35,.32-.61s.02-.48-.11-.68c-.31-.47-.65-.58-1.02-.34-.09,.06-.17,.13-.23,.2s-.09,.17-.11,.29-.03,.21-.03,.26c0,.06,0,.18,.02,.36s.02,.29,.03,.34c0,.03,.01,.14,.02,.31s.02,.3,.02,.37c0,.07,0,.18-.01,.34s-.03,.27-.06,.35-.08,.18-.14,.28-.14,.18-.24,.25c-.37,.24-.78,.3-1.23,.16s-.8-.41-1.07-.81c-.09-.14-.16-.27-.22-.39-.06-.12-.12-.28-.19-.46s-.12-.32-.16-.41c.07-.1,.21-.25,.4-.42,.19-.18,.35-.31,.48-.39,.07,.03,.12,.05,.13,.08,.06,.1,.08,.16,.05,.19-.16,.16-.27,.41-.31,.73-.05,.32,.01,.61,.17,.85,.14,.21,.3,.34,.5,.41s.4,.02,.61-.11c.11-.07,.19-.16,.26-.26,.06-.1,.1-.22,.11-.37,0-.14,.01-.27,0-.38s-.02-.27-.04-.47c-.02-.2-.04-.35-.04-.45-.05-.7,.12-1.17,.51-1.43,.34-.22,.71-.26,1.11-.12,.4,.14,.72,.41,.97,.79Z"/>
    <path class="cls-15" d="M551.23,432.25l-.37-.57s.03-.09,.17-.18c.04-.02,.06-.04,.07-.03,.21,.14,.51,.23,.91,.29,.13,.02,.27,.03,.42,.03,.15,0,.28,0,.38,0,.11,0,.16,0,.17-.01,.13,.2,.18,.3,.15,.33l-.94,.61c.11,.17,.28,.43,.5,.78s.34,.53,.35,.55c.03,.05,.02,.1-.03,.13-.11,.07-.26,.12-.42,.14l-.85-1.3-2.32,1.52c-.25,.17-.41,.36-.47,.6-.06,.23-.03,.46,.12,.67,.13,.2,.32,.36,.58,.49,.03,.01,.02,.06-.02,.14s-.07,.12-.08,.12c-.16-.03-.36-.12-.59-.26-.23-.14-.42-.32-.56-.53-.21-.33-.29-.67-.22-1.02s.29-.66,.68-.91l2.4-1.57Z"/>
    <path class="cls-15" d="M555.21,437.03c.25,.39,.33,.7,.23,.94-.22,.14-.41,.21-.55,.21-.15,0-.26-.06-.32-.17-.08-.12-.09-.26-.05-.43,.04-.17,0-.34-.1-.51-.13-.2-.34-.32-.62-.35-.28-.03-.52,.02-.72,.15l-1.42,.93c-.37,.24-.63,.45-.79,.63-.04,.04-.02,.16,.04,.34s.12,.31,.16,.38c.01,.02-.02,.06-.09,.11s-.13,.09-.17,.1c-.4-.67-.61-1.04-.65-1.09-.03-.04-.27-.39-.75-1.04,0-.04,.05-.09,.13-.14s.13-.06,.14-.04c.05,.08,.15,.18,.29,.31s.24,.18,.29,.17c.21-.07,.45-.2,.71-.36l1.79-1.17c.25-.16,.39-.32,.42-.47,.03-.12,.03-.23,0-.34s-.07-.2-.11-.26-.05-.1-.04-.11c.15-.1,.24-.13,.28-.1,.55,.63,.93,1.02,1.13,1.19,0,0,.02,.02,.04,.04,.02,.03,0,.06-.05,.1s-.09,.07-.12,.08l-.51,.25c.25,0,.51,.06,.8,.17s.49,.26,.62,.47Z"/>
    <path class="cls-15" d="M557.26,440.18c.24,.36,.32,.67,.26,.94-.06,.27-.28,.52-.66,.76l-2.19,1.43c-.13,.09-.22,.19-.26,.32-.04,.13-.02,.26,.06,.38,.06,.09,.18,.18,.36,.26,.02,.03,0,.06-.05,.09-.08,.05-.16,.08-.23,.08-.4-.12-.66-.28-.78-.47-.1-.15-.13-.33-.1-.55,.03-.22,.09-.39,.19-.53,0,0-.04-.02-.11-.03-.07-.02-.15-.04-.25-.08-.1-.04-.21-.08-.33-.14-.12-.06-.24-.14-.36-.24-.12-.1-.22-.22-.31-.35-.2-.3-.28-.6-.26-.9,.03-.3,.19-.55,.5-.75,.14-.09,.29-.14,.46-.15,.17,0,.33,.01,.47,.06,.14,.05,.31,.13,.5,.24s.35,.22,.47,.32,.28,.22,.47,.37,.33,.26,.41,.32c.06,.05,.12,.04,.2,0l.71-.46c.2-.13,.32-.3,.34-.5s-.02-.4-.14-.58c-.13-.2-.3-.32-.52-.36s-.43,0-.63,.13c-.22,.14-.42,.08-.59-.19-.12-.18-.14-.35-.07-.5,.27-.18,.68-.15,1.21,.09,.54,.24,.95,.57,1.22,.99Zm-4.12,1.38c-.02,.17,.03,.34,.14,.52s.28,.31,.49,.41,.37,.11,.48,.04l.98-.64c-.06-.04-.19-.13-.38-.3-.2-.16-.35-.28-.48-.37s-.27-.14-.46-.18-.34,0-.49,.09c-.17,.11-.26,.25-.28,.42Z"/>
    <path class="cls-15" d="M559.95,444.3c.47,.72,.63,1.32,.49,1.81-.42,.28-.71,.29-.87,.05-.07-.11-.1-.21-.1-.3s.05-.22,.11-.4c.16-.39,.14-.73-.04-1.01s-.46-.43-.85-.49-.83,.07-1.31,.39-.84,.73-1.01,1.21-.1,.94,.2,1.4c.09,.14,.19,.26,.29,.37s.21,.19,.3,.26c.09,.07,.18,.12,.25,.16,.08,.04,.14,.07,.21,.1l.09,.04s0,.09-.08,.14c-.05,.03-.12,.05-.21,.05-.26-.02-.55-.1-.86-.27s-.56-.39-.76-.69c-.35-.54-.46-1.14-.32-1.78,.14-.65,.49-1.16,1.06-1.53s1.19-.55,1.83-.5,1.16,.38,1.56,.99Z"/>
    <path class="cls-15" d="M560.99,447.18l-.37-.57s.03-.09,.17-.18c.04-.02,.06-.04,.07-.03,.21,.14,.51,.23,.91,.29,.13,.02,.27,.03,.42,.03,.15,0,.28,0,.38,0,.11,0,.16,0,.17-.01,.13,.2,.18,.3,.15,.33l-.94,.61c.11,.17,.28,.43,.5,.78s.34,.53,.35,.55c.03,.05,.02,.1-.03,.13-.11,.07-.26,.12-.42,.14l-.85-1.3-2.32,1.52c-.25,.17-.41,.36-.47,.6-.06,.23-.03,.46,.12,.67,.13,.2,.32,.36,.58,.49,.03,.01,.02,.06-.02,.14s-.07,.12-.08,.12c-.16-.03-.36-.12-.59-.26-.23-.14-.42-.32-.56-.53-.21-.33-.29-.67-.22-1.02s.29-.66,.68-.91l2.4-1.57Z"/>
    <path class="cls-15" d="M568.61,450.95l-9.16,1.84c-.05,.02-.13,0-.24-.06-.11-.06-.21-.16-.31-.31-.03-.05-.05-.09-.06-.12,0-.04-.01-.06,0-.08v-.02s9.17-1.84,9.17-1.84c.18-.03,.36,.09,.52,.34,.04,.06,.06,.14,.08,.24Z"/>
    <path class="cls-15" d="M568.89,453.42c.16,.25,.37,.56,.63,.94,.26,.38,.42,.63,.51,.75,.7,1.07,.94,2.09,.72,3.08s-.74,1.76-1.56,2.29c-.92,.6-1.88,.8-2.88,.6-1-.2-1.85-.83-2.55-1.89-.05-.08-.2-.32-.44-.71-.24-.4-.45-.73-.63-.98l-.8-1.17s.05-.07,.12-.12c.09-.06,.14-.08,.15-.06,.06,.09,.16,.2,.31,.33s.27,.2,.35,.2c.11,0,.42-.18,.93-.51l3.58-2.34c.37-.24,.63-.44,.77-.6,.04-.05,.02-.18-.05-.38s-.13-.35-.19-.43c-.02-.03,.01-.06,.09-.11,.08-.05,.14-.08,.19-.07,.21,.35,.46,.74,.74,1.18Zm-.86,1.18l-3.75,2.45c-.27,.17-.47,.38-.62,.62-.05,.07,.02,.27,.2,.62,.18,.34,.33,.6,.44,.78,.98,1.5,2.41,1.64,4.29,.42,.72-.47,1.2-1.07,1.45-1.79,.25-.73,.12-1.47-.37-2.23l-.03-.05c-.46-.71-.77-1.07-.92-1.08-.17-.01-.4,.08-.68,.26Z"/>
    <path class="cls-15" d="M568.74,463.96c-.37,.24-.63,.45-.79,.63-.04,.04-.02,.16,.04,.34s.11,.31,.16,.37c.01,.02-.02,.06-.09,.11s-.13,.09-.17,.1c-.4-.67-.61-1.03-.64-1.08s-.28-.39-.75-1.04c0-.04,.05-.09,.13-.14s.13-.06,.14-.04c.05,.08,.15,.18,.29,.31s.24,.18,.29,.17c.21-.07,.45-.2,.71-.36l1.79-1.17c.25-.16,.39-.32,.42-.47,.03-.12,.03-.23,0-.34s-.07-.2-.11-.26-.05-.1-.04-.11c.15-.1,.24-.13,.28-.1,.55,.63,.93,1.02,1.13,1.19h.02s.01,.04,.02,.04c.02,.03,0,.06-.05,.1s-.09,.07-.12,.08c-.27,.13-.51,.26-.71,.4l-1.95,1.28Zm3.48-3.41c.03-.15,.11-.28,.24-.36s.28-.11,.43-.08,.28,.12,.36,.26,.12,.28,.09,.44-.11,.28-.24,.36-.28,.11-.43,.08c-.15-.03-.28-.12-.36-.26s-.12-.28-.09-.44Z"/>
    <path class="cls-15" d="M573.39,464.83c.09,.14,.2,.34,.3,.58,.11,.24,.18,.41,.23,.5-.25,.26-.54,.5-.89,.75-.03,.02-.08-.01-.13-.1-.06-.09-.07-.16-.03-.19,.16-.15,.26-.35,.32-.61s.02-.48-.11-.68c-.31-.47-.65-.58-1.02-.34-.09,.06-.17,.13-.23,.2s-.09,.17-.11,.29-.03,.21-.03,.26c0,.06,0,.18,.02,.36s.02,.29,.03,.34c0,.03,.01,.14,.02,.31s.02,.3,.02,.37c0,.07,0,.18-.01,.34s-.03,.27-.06,.35-.08,.18-.14,.28-.14,.18-.24,.25c-.37,.24-.78,.3-1.23,.16s-.8-.41-1.07-.81c-.09-.14-.16-.27-.22-.39-.06-.12-.12-.28-.19-.46s-.12-.32-.16-.41c.07-.1,.21-.25,.4-.42,.19-.18,.35-.31,.48-.39,.07,.03,.12,.05,.13,.08,.06,.1,.08,.16,.05,.19-.16,.16-.27,.41-.31,.73-.05,.32,.01,.61,.17,.85,.14,.21,.3,.34,.5,.41s.4,.02,.61-.11c.11-.07,.19-.16,.26-.26,.06-.1,.1-.22,.11-.37,0-.14,.01-.27,0-.38s-.02-.27-.04-.47c-.02-.2-.04-.35-.04-.45-.05-.7,.12-1.17,.51-1.43,.34-.22,.71-.26,1.11-.12,.4,.14,.72,.41,.97,.79Z"/>
    <path class="cls-15" d="M574.39,467.65l-.37-.57s.03-.09,.17-.18c.04-.02,.06-.04,.07-.03,.21,.14,.51,.23,.91,.29,.13,.02,.27,.03,.42,.03,.15,0,.28,0,.38,0,.11,0,.16,0,.17-.01,.13,.2,.18,.3,.15,.33l-.94,.61c.11,.17,.28,.43,.5,.78s.34,.53,.35,.55c.03,.05,.02,.1-.03,.13-.11,.07-.26,.12-.42,.14l-.85-1.3-2.32,1.52c-.25,.17-.41,.36-.47,.6-.06,.23-.03,.46,.12,.67,.13,.2,.32,.36,.58,.49,.03,.01,.02,.06-.02,.14s-.07,.12-.08,.12c-.16-.03-.36-.12-.59-.26-.23-.14-.42-.32-.56-.53-.21-.33-.29-.67-.22-1.02s.29-.66,.68-.91l2.4-1.57Z"/>
    <path class="cls-15" d="M577.98,471.86c.24,.36,.32,.67,.26,.94-.06,.27-.28,.52-.66,.76l-2.19,1.43c-.13,.09-.22,.19-.26,.32-.04,.13-.02,.26,.06,.38,.06,.09,.18,.18,.36,.26,.02,.03,0,.06-.05,.09-.08,.05-.16,.08-.23,.08-.4-.12-.66-.28-.78-.47-.1-.15-.13-.33-.1-.55,.03-.22,.09-.39,.19-.53,0,0-.04-.02-.11-.03-.07-.02-.15-.04-.25-.08-.1-.04-.21-.08-.33-.14-.12-.06-.24-.14-.36-.24-.12-.1-.22-.22-.31-.35-.2-.3-.28-.6-.26-.9,.03-.3,.19-.55,.5-.75,.14-.09,.29-.14,.46-.15,.17,0,.33,.01,.47,.06,.14,.05,.31,.13,.5,.24s.35,.22,.47,.32,.28,.22,.47,.37,.33,.26,.41,.32c.06,.05,.12,.04,.2,0l.71-.46c.2-.13,.32-.3,.34-.5s-.02-.4-.14-.58c-.13-.2-.3-.32-.52-.36s-.43,0-.63,.13c-.22,.14-.42,.08-.59-.19-.12-.18-.14-.35-.07-.5,.27-.18,.68-.15,1.21,.09,.54,.24,.95,.57,1.22,.99Zm-4.12,1.38c-.02,.17,.03,.34,.14,.52s.28,.31,.49,.41,.37,.11,.48,.04l.98-.64c-.06-.04-.19-.13-.38-.3-.2-.16-.35-.28-.48-.37s-.27-.14-.46-.18-.34,0-.49,.09c-.17,.11-.26,.25-.28,.42Z"/>
    <path class="cls-15" d="M581.27,476.86c.3,.46,.35,.88,.16,1.27s-.65,.82-1.35,1.28l-.86,.56c-.37,.24-.63,.45-.79,.63-.04,.04-.02,.16,.04,.34s.11,.31,.16,.37c.01,.02-.02,.06-.09,.11s-.13,.09-.17,.1c-.4-.67-.61-1.03-.64-1.08,0-.01-.25-.35-.72-1,0-.04,.05-.09,.13-.14s.13-.06,.14-.04c.05,.08,.14,.17,.28,.29s.23,.16,.28,.15c.21-.07,.45-.2,.71-.36l.95-.62c.59-.38,.94-.72,1.05-1.02,.11-.3,.05-.62-.18-.98-.14-.21-.34-.36-.62-.46-.27-.1-.47-.1-.59-.03l-1.67,1.09c-.37,.24-.63,.45-.79,.63-.04,.04-.02,.16,.04,.34s.11,.31,.16,.37c.01,.02-.02,.06-.09,.11s-.13,.09-.17,.1c-.4-.67-.61-1.03-.64-1.08-.03-.04-.27-.39-.75-1.04,0-.04,.05-.09,.13-.14s.13-.06,.14-.04c.05,.08,.15,.18,.29,.31s.24,.18,.29,.17c.21-.07,.45-.2,.71-.36l1.79-1.17c.25-.16,.39-.32,.42-.47,.03-.12,.03-.23,0-.34s-.07-.2-.11-.26-.05-.1-.04-.11c.15-.1,.24-.13,.28-.1,.55,.63,.93,1.02,1.13,1.19,0,0,.02,.02,.04,.04,.02,.03,0,.06-.05,.1s-.09,.07-.12,.08c-.19,.09-.33,.16-.4,.21-.03,.02-.03,.03-.02,.04,0,0,.02,.01,.04,.02,.25,.05,.53,.16,.83,.33s.53,.37,.69,.61Z"/>
    <path class="cls-15" d="M582.6,480.21l-.37-.57s.03-.09,.17-.18c.04-.02,.06-.04,.07-.03,.21,.14,.51,.23,.91,.29,.13,.02,.27,.03,.42,.03,.15,0,.28,0,.38,0,.11,0,.16,0,.17-.01,.13,.2,.18,.3,.15,.33l-.94,.61c.11,.17,.28,.43,.5,.78s.34,.53,.35,.55c.03,.05,.02,.1-.03,.13-.11,.07-.26,.12-.42,.14l-.85-1.3-2.32,1.52c-.25,.17-.41,.36-.47,.6-.06,.23-.03,.46,.12,.67,.13,.2,.32,.36,.58,.49,.03,.01,.02,.06-.02,.14s-.07,.12-.08,.12c-.16-.03-.36-.12-.59-.26-.23-.14-.42-.32-.56-.53-.21-.33-.29-.67-.22-1.02s.29-.66,.68-.91l2.4-1.57Z"/>
    <path class="cls-15" d="M548.55,447.71c.13,.2,.29,.42,.47,.68,.19,.26,.34,.48,.47,.67,.14,.22,.25,.45,.33,.71,.08,.26,.12,.53,.13,.82,0,.29-.06,.57-.21,.86-.15,.28-.38,.53-.69,.73-.18,.12-.41,.21-.67,.26-.27,.06-.55,.07-.85,.04s-.6-.13-.91-.31-.56-.43-.77-.76c-.24-.37-.32-.68-.23-.93,.02-.07,.08-.12,.2-.17,.03-.01,.05,0,.05,.01,.06,.24,.17,.48,.33,.73,.21,.33,.53,.52,.95,.58s.81-.03,1.18-.27c.45-.29,.74-.63,.87-1,.13-.37,.06-.77-.22-1.2-.19-.29-.36-.51-.52-.64-.03-.03-.07-.04-.12-.02s-.15,.07-.31,.15-.39,.23-.69,.43l-3.38,2.21c-.42,.28-.68,.48-.77,.62-.06,.09-.05,.25,.03,.48,.08,.23,.15,.39,.2,.48,.02,.03-.02,.07-.11,.13-.06,.04-.11,.06-.16,.07-.4-.67-.66-1.11-.79-1.31l-.83-1.17s.06-.08,.15-.14c.08-.05,.13-.07,.14-.05,.06,.09,.16,.21,.31,.35,.14,.14,.26,.21,.33,.2,.11,0,.42-.18,.93-.51l3.58-2.34c.37-.24,.63-.44,.77-.6,.04-.05,.02-.18-.05-.38s-.13-.35-.19-.43c-.02-.03,.01-.06,.09-.11,.08-.05,.14-.08,.19-.07l.75,1.19Z"/>
    <path class="cls-15" d="M550.8,457.66l-1.89,1.24c-.27,.18-.5,.36-.67,.54-.04,.04-.05,.1-.03,.18s.04,.15,.07,.22c.04,.07,.08,.14,.12,.2l.05,.09s-.02,.06-.08,.1c-.02,.01-.05,.02-.11,.03s-.08,0-.1-.01c-.07-.09-.16-.19-.25-.3s-.19-.21-.29-.3-.18-.17-.27-.25c-.09-.07-.15-.13-.21-.17l-.08-.08c-.03-.05,0-.11,.1-.18l.48-.32,.03-.05c-.73-.14-1.23-.42-1.51-.85-.16-.24-.24-.49-.23-.74s.07-.48,.21-.69c.14-.21,.29-.39,.45-.54s.33-.29,.53-.42l1.19-.78c.25-.16,.39-.32,.42-.47,.03-.12,.03-.23,0-.34s-.07-.2-.11-.26-.05-.1-.04-.11c.15-.1,.24-.13,.28-.1,.55,.63,.93,1.02,1.13,1.19,0,0,.02,.02,.04,.04,.02,.03,0,.06-.05,.1s-.09,.07-.12,.08c-.33,.16-.57,.29-.74,.4l-1.28,.84c-.49,.32-.79,.63-.93,.93s-.09,.62,.14,.96c.13,.2,.32,.33,.59,.41,.26,.08,.45,.08,.56,.01l1.77-1.16c.25-.16,.39-.32,.42-.47,.03-.12,.03-.23,0-.34s-.07-.2-.11-.26-.05-.1-.04-.11c.15-.1,.24-.13,.28-.1,.55,.63,.93,1.02,1.13,1.19,0,0,.02,.02,.04,.04,.02,.03,0,.06-.05,.1s-.09,.07-.12,.08c-.33,.16-.57,.29-.72,.39Z"/>
    <path class="cls-15" d="M554.12,460.75c.25,.39,.33,.7,.23,.94-.22,.14-.41,.21-.55,.21-.15,0-.26-.06-.32-.17-.08-.12-.09-.26-.05-.43,.04-.17,0-.34-.1-.51-.13-.2-.34-.32-.62-.35-.28-.03-.52,.02-.72,.15l-1.42,.93c-.37,.24-.63,.45-.79,.63-.04,.04-.02,.16,.04,.34s.12,.31,.16,.38c.01,.02-.02,.06-.09,.11s-.13,.09-.17,.1c-.4-.67-.61-1.04-.65-1.09-.03-.04-.27-.39-.75-1.04,0-.04,.05-.09,.13-.14s.13-.06,.14-.04c.05,.08,.15,.18,.29,.31s.24,.18,.29,.17c.21-.07,.45-.2,.71-.36l1.79-1.17c.25-.16,.39-.32,.42-.47,.03-.12,.03-.23,0-.34s-.07-.2-.11-.26-.05-.1-.04-.11c.15-.1,.24-.13,.28-.1,.55,.63,.93,1.02,1.13,1.19,0,0,.02,.02,.04,.04,.02,.03,0,.06-.05,.1s-.09,.07-.12,.08l-.51,.25c.25,0,.51,.06,.8,.17s.49,.26,.62,.47Z"/>
    <path class="cls-15" d="M556.17,463.91c.2,.3,.31,.6,.35,.9s.01,.57-.08,.8-.21,.44-.36,.61-.3,.32-.48,.43c-.13,.08-.22,.11-.27,.09-.05-.02-.12-.09-.19-.2l-1.62-2.47c-.03-.05-.07-.07-.1-.05-.4,.26-.68,.62-.85,1.09s-.1,.94,.2,1.41c.09,.14,.19,.26,.29,.37s.21,.19,.3,.26c.09,.07,.18,.12,.25,.16,.08,.04,.14,.07,.21,.1l.09,.04s0,.09-.08,.14c-.05,.03-.12,.05-.21,.05-.26-.02-.55-.1-.86-.27s-.56-.39-.76-.69c-.35-.54-.46-1.14-.32-1.78,.14-.65,.49-1.16,1.06-1.53,.66-.43,1.31-.59,1.93-.47s1.12,.45,1.49,1.01Zm-.41,.13c-.22-.34-.53-.51-.93-.5-.4,0-.69,.07-.87,.19-.04,.03-.05,.06-.03,.1l1.25,1.91s.06,.03,.13-.01c.2-.13,.38-.37,.52-.72,.15-.35,.12-.67-.07-.96Z"/>
    <path class="cls-15" d="M532.97,449.19c.15,.22,.26,.47,.35,.74,.09,.27,.14,.56,.16,.86,.02,.3-.04,.61-.18,.9-.14,.3-.36,.55-.67,.75-.26,.17-.61,.25-1.03,.24s-.83-.15-1.22-.4c-.07-.05-.11-.05-.13,0-.45,.76-.76,1.5-.93,2.22-.25,1.06-.25,1.79,0,2.18-.03,.04-.06,.08-.11,.12-.06,.04-.11,.06-.16,.06-.07-.06-.13-.14-.2-.25-.6-.92-.66-2.01-.2-3.27,.07-.19,.16-.42,.26-.68,.11-.26,.18-.45,.22-.57s.09-.25,.14-.4c.05-.15,.08-.27,.09-.36,.01-.1,0-.19,0-.28-.02-.09-.09-.22-.2-.39-.03-.05-.06-.09-.08-.12-.02-.02-.05-.04-.09-.05s-.09,0-.14,.04l-1.39,.91c-.42,.28-.68,.48-.77,.62-.06,.09-.05,.25,.03,.48,.08,.23,.15,.39,.2,.48,.02,.03-.02,.07-.11,.13-.06,.04-.11,.06-.16,.07-.4-.67-.66-1.11-.79-1.31l-.83-1.17s.06-.08,.15-.14c.08-.05,.13-.07,.14-.05,.06,.09,.16,.21,.31,.35,.14,.14,.26,.21,.33,.2,.11,0,.42-.18,.93-.51l3.58-2.34c.37-.24,.63-.44,.77-.6,.04-.05,.02-.18-.05-.38s-.13-.35-.19-.43c-.02-.03,.01-.06,.09-.11,.08-.05,.14-.08,.19-.07l.75,1.19c.13,.2,.29,.42,.47,.68,.19,.26,.34,.48,.47,.67Zm-.52,.12c-.19-.29-.36-.51-.52-.64-.02-.02-.06-.03-.11-.02s-.15,.06-.31,.15c-.16,.09-.39,.23-.7,.43l-1.15,.75c-.18,.12-.09,.46,.28,1.03l.16,.25c.15,.23,.41,.39,.8,.49,.38,.1,.75,.03,1.12-.21,.88-.57,1.02-1.32,.42-2.23Z"/>
    <path class="cls-15" d="M534.64,456.38c.24,.36,.32,.67,.26,.94-.06,.27-.28,.52-.66,.76l-2.19,1.43c-.13,.09-.22,.19-.26,.32-.04,.13-.02,.26,.06,.38,.06,.09,.18,.18,.36,.26,.02,.03,0,.06-.05,.09-.08,.05-.16,.08-.23,.08-.4-.12-.66-.28-.78-.47-.1-.15-.13-.33-.1-.55,.03-.22,.09-.39,.19-.53,0,0-.04-.02-.11-.03-.07-.02-.15-.04-.25-.08-.1-.04-.21-.08-.33-.14-.12-.06-.24-.14-.36-.24-.12-.1-.22-.22-.31-.35-.2-.3-.28-.6-.26-.9,.03-.3,.19-.55,.5-.75,.14-.09,.29-.14,.46-.15,.17,0,.33,.01,.47,.06,.14,.05,.31,.13,.5,.24s.35,.22,.47,.32,.28,.22,.47,.37,.33,.26,.41,.32c.06,.05,.12,.04,.2,0l.71-.46c.2-.13,.32-.3,.34-.5s-.02-.4-.14-.58c-.13-.2-.3-.32-.52-.36s-.43,0-.63,.13c-.22,.14-.42,.08-.59-.19-.12-.18-.14-.35-.07-.5,.27-.18,.68-.15,1.21,.09,.54,.24,.95,.57,1.22,.99Zm-4.12,1.38c-.02,.17,.03,.34,.14,.52s.28,.31,.49,.41,.37,.11,.48,.04l.98-.64c-.06-.04-.19-.13-.38-.3-.2-.16-.35-.28-.48-.37s-.27-.14-.46-.18-.34,0-.49,.09c-.17,.11-.26,.25-.28,.42Z"/>
    <path class="cls-15" d="M535.78,459.4l-.37-.57s.03-.09,.17-.18c.04-.02,.06-.04,.07-.03,.21,.14,.51,.23,.91,.29,.13,.02,.27,.03,.42,.03,.15,0,.28,0,.38,0,.11,0,.16,0,.17-.01,.13,.2,.18,.3,.15,.33l-.94,.61c.11,.17,.28,.43,.5,.78s.34,.53,.35,.55c.03,.05,.02,.1-.03,.13-.11,.07-.26,.12-.42,.14l-.85-1.3-2.32,1.52c-.25,.17-.41,.36-.47,.6-.06,.23-.03,.46,.12,.67,.13,.2,.32,.36,.58,.49,.03,.01,.02,.06-.02,.14s-.07,.12-.08,.12c-.16-.03-.36-.12-.59-.26-.23-.14-.42-.32-.56-.53-.21-.33-.29-.67-.22-1.02s.29-.66,.68-.91l2.4-1.57Z"/>
    <path class="cls-15" d="M536.18,464.95c-.37,.24-.63,.45-.79,.63-.04,.04-.02,.16,.04,.34s.11,.31,.16,.37c.01,.02-.02,.06-.09,.11s-.13,.09-.17,.1c-.4-.67-.61-1.03-.64-1.08s-.28-.39-.75-1.04c0-.04,.05-.09,.13-.14s.13-.06,.14-.04c.05,.08,.15,.18,.29,.31s.24,.18,.29,.17c.21-.07,.45-.2,.71-.36l1.79-1.17c.25-.16,.39-.32,.42-.47,.03-.12,.03-.23,0-.34s-.07-.2-.11-.26-.05-.1-.04-.11c.15-.1,.24-.13,.28-.1,.55,.63,.93,1.02,1.13,1.19h.02s.01,.04,.02,.04c.02,.03,0,.06-.05,.1s-.09,.07-.12,.08c-.27,.13-.51,.26-.71,.4l-1.95,1.28Zm3.48-3.41c.03-.15,.11-.28,.24-.36s.28-.11,.43-.08,.28,.12,.36,.26,.12,.28,.09,.44-.11,.28-.24,.36-.28,.11-.43,.08c-.15-.03-.28-.12-.36-.26s-.12-.28-.09-.44Z"/>
    <path class="cls-15" d="M541.23,466.43c.38,.59,.51,1.23,.37,1.91-.14,.69-.49,1.22-1.07,1.59s-1.21,.5-1.89,.36c-.68-.14-1.21-.51-1.6-1.1s-.51-1.24-.37-1.93c.14-.69,.5-1.22,1.08-1.6s1.21-.5,1.88-.36,1.2,.52,1.6,1.12Zm-.44,.13c-.23-.35-.57-.53-1.01-.55-.45-.02-.89,.12-1.34,.4-.52,.34-.87,.77-1.06,1.29s-.16,.97,.08,1.34c.23,.35,.57,.53,1.03,.54,.46,.02,.91-.12,1.35-.41,.51-.33,.86-.76,1.04-1.28s.15-.96-.1-1.34Z"/>
    <path class="cls-15" d="M544.95,472.1c.3,.46,.35,.88,.16,1.27s-.65,.82-1.35,1.28l-.86,.56c-.37,.24-.63,.45-.79,.63-.04,.04-.02,.16,.04,.34s.11,.31,.16,.37c.01,.02-.02,.06-.09,.11s-.13,.09-.17,.1c-.4-.67-.61-1.03-.64-1.08,0-.01-.25-.35-.72-1,0-.04,.05-.09,.13-.14s.13-.06,.14-.04c.05,.08,.14,.17,.28,.29s.23,.16,.28,.15c.21-.07,.45-.2,.71-.36l.95-.62c.59-.38,.94-.72,1.05-1.02,.11-.3,.05-.62-.18-.98-.14-.21-.34-.36-.62-.46-.27-.1-.47-.1-.59-.03l-1.67,1.09c-.37,.24-.63,.45-.79,.63-.04,.04-.02,.16,.04,.34s.11,.31,.16,.37c.01,.02-.02,.06-.09,.11s-.13,.09-.17,.1c-.4-.67-.61-1.03-.64-1.08-.03-.04-.27-.39-.75-1.04,0-.04,.05-.09,.13-.14s.13-.06,.14-.04c.05,.08,.15,.18,.29,.31s.24,.18,.29,.17c.21-.07,.45-.2,.71-.36l1.79-1.17c.25-.16,.39-.32,.42-.47,.03-.12,.03-.23,0-.34s-.07-.2-.11-.26-.05-.1-.04-.11c.15-.1,.24-.13,.28-.1,.55,.63,.93,1.02,1.13,1.19,0,0,.02,.02,.04,.04,.02,.03,0,.06-.05,.1s-.09,.07-.12,.08c-.19,.09-.33,.16-.4,.21-.03,.02-.03,.03-.02,.04,0,0,.02,.01,.04,.02,.25,.05,.53,.16,.83,.33s.53,.37,.69,.61Z"/>
    <path class="cls-15" d="M547.85,476.57c.24,.36,.32,.67,.26,.94-.06,.27-.28,.52-.66,.76l-2.19,1.43c-.13,.09-.22,.19-.26,.32-.04,.13-.02,.26,.06,.38,.06,.09,.18,.18,.36,.26,.02,.03,0,.06-.05,.09-.08,.05-.16,.08-.23,.08-.4-.12-.66-.28-.78-.47-.1-.15-.13-.33-.1-.55,.03-.22,.09-.39,.19-.53,0,0-.04-.02-.11-.03-.07-.02-.15-.04-.25-.08-.1-.04-.21-.08-.33-.14-.12-.06-.24-.14-.36-.24-.12-.1-.22-.22-.31-.35-.2-.3-.28-.6-.26-.9,.03-.3,.19-.55,.5-.75,.14-.09,.29-.14,.46-.15,.17,0,.33,.01,.47,.06,.14,.05,.31,.13,.5,.24s.35,.22,.47,.32,.28,.22,.47,.37,.33,.26,.41,.32c.06,.05,.12,.04,.2,0l.71-.46c.2-.13,.32-.3,.34-.5s-.02-.4-.14-.58c-.13-.2-.3-.32-.52-.36s-.43,0-.63,.13c-.22,.14-.42,.08-.59-.19-.12-.18-.14-.35-.07-.5,.27-.18,.68-.15,1.21,.09,.54,.24,.95,.57,1.22,.99Zm-4.12,1.38c-.02,.17,.03,.34,.14,.52s.28,.31,.49,.41,.37,.11,.48,.04l.98-.64c-.06-.04-.19-.13-.38-.3-.2-.16-.35-.28-.48-.37s-.27-.14-.46-.18-.34,0-.49,.09c-.17,.11-.26,.25-.28,.42Z"/>
    <path class="cls-15" d="M546.59,481.26l4.1-2.68c.21-.14,.4-.29,.57-.45,.08-.1,.02-.3-.18-.6l-.06-.09s0-.08,.07-.13c.1-.07,.16-.08,.19-.04,.15,.18,.29,.35,.43,.49,.14,.15,.26,.26,.35,.33,.09,.07,.18,.13,.25,.18,.07,.05,.13,.08,.17,.1l.05,.02v.02s.03,.06,.01,.11c-.02,.05-.04,.09-.07,.11-.25,.06-.55,.2-.89,.43l-4.32,2.82c-.37,.24-.63,.45-.79,.63-.04,.04-.02,.16,.04,.34s.11,.31,.16,.37c.01,.02-.02,.06-.09,.11s-.13,.09-.17,.1c-.4-.67-.61-1.03-.64-1.08-.03-.04-.27-.39-.75-1.04,0-.04,.05-.09,.13-.14s.13-.06,.14-.04c.05,.08,.15,.18,.29,.31s.24,.18,.29,.17c.21-.07,.45-.2,.71-.36Z"/>
    <path class="cls-15" d="M498.54,422.01c.19,.29,.54,.8,1.04,1.51,.5,.71,.87,1.25,1.11,1.61-.17,.15-.37,.35-.62,.63-.25,.27-.41,.44-.48,.5-.05-.01-.11-.06-.16-.15s-.06-.15-.02-.18c.28-.33,.42-.61,.4-.85-.02-.24-.13-.51-.33-.82l-.43-.66c-.37-.56-.6-.82-.69-.78-.17,.07-.45,.22-.83,.47l-1.51,.99s.04,.18,.22,.46l.34,.52,.26,.4c.05,.08,.12,.16,.21,.24s.14,.12,.16,.15c.02,.02,.09,.03,.19,.02,.1,0,.17-.02,.21-.03,.04-.02,.14-.05,.31-.11,.05-.02,.1,.01,.16,.1,.05,.08,.07,.14,.06,.2l-1.79,1.17s-.09-.05-.14-.13c-.06-.09-.06-.15-.03-.21,.14-.16,.24-.28,.31-.37s.1-.15,.1-.17,0-.07,0-.12c0-.12-.21-.48-.6-1.09-.31-.47-.49-.69-.55-.65l-1.47,.96c-.41,.27-.68,.49-.8,.65-.05,.06,.06,.3,.34,.73l.31,.47c.4,.61,.72,.98,.97,1.13,.11,.06,.3,.1,.55,.11,.25,0,.52-.03,.81-.12,.05-.01,.09,.02,.15,.1,.08,.12,.12,.22,.1,.28-.1,.02-.27,.06-.49,.11s-.4,.09-.54,.12-.29,.07-.47,.12c-.18,.05-.31,.1-.42,.15-.22-.33-.56-.86-1.01-1.59-.46-.73-.84-1.32-1.14-1.78l-.81-1.17s.05-.07,.13-.13,.13-.07,.14-.05c.06,.09,.16,.2,.31,.33s.27,.2,.35,.2c.11,0,.42-.17,.94-.51l3.58-2.34c.37-.24,.63-.44,.77-.6,.04-.05,.02-.18-.05-.38s-.13-.35-.19-.43c-.02-.03,.01-.06,.09-.11,.08-.05,.14-.08,.19-.07,.21,.35,.46,.74,.74,1.18Z"/>
    <path class="cls-15" d="M496.67,430.31l4.1-2.68c.21-.14,.4-.29,.57-.45,.08-.1,.02-.3-.18-.6l-.06-.09s0-.08,.07-.13c.1-.07,.16-.08,.19-.04,.15,.18,.29,.35,.43,.49,.14,.15,.26,.26,.35,.33,.09,.07,.18,.13,.25,.18,.07,.05,.13,.08,.17,.1l.05,.02v.02s.03,.06,.01,.11c-.02,.05-.04,.09-.07,.11-.25,.06-.55,.2-.89,.43l-4.32,2.82c-.37,.24-.63,.45-.79,.63-.04,.04-.02,.16,.04,.34s.11,.31,.16,.37c.01,.02-.02,.06-.09,.11s-.13,.09-.17,.1c-.4-.67-.61-1.03-.64-1.08-.03-.04-.27-.39-.75-1.04,0-.04,.05-.09,.13-.14s.13-.06,.14-.04c.05,.08,.15,.18,.29,.31s.24,.18,.29,.17c.21-.07,.45-.2,.71-.36Z"/>
    <path class="cls-15" d="M502.26,432.24c.2,.3,.31,.6,.35,.9s.01,.57-.08,.8-.21,.44-.36,.61-.3,.32-.48,.43c-.13,.08-.22,.11-.27,.09-.05-.02-.12-.09-.19-.2l-1.62-2.47c-.03-.05-.07-.07-.1-.05-.4,.26-.68,.62-.85,1.09s-.1,.94,.2,1.41c.09,.14,.19,.26,.29,.37s.21,.19,.3,.26c.09,.07,.18,.12,.25,.16,.08,.04,.14,.07,.21,.1l.09,.04s0,.09-.08,.14c-.05,.03-.12,.05-.21,.05-.26-.02-.55-.1-.86-.27s-.56-.39-.76-.69c-.35-.54-.46-1.14-.32-1.78,.14-.65,.49-1.16,1.06-1.53,.66-.43,1.31-.59,1.93-.47s1.12,.45,1.49,1.01Zm-.41,.13c-.22-.34-.53-.51-.93-.5-.4,0-.69,.07-.87,.19-.04,.03-.05,.06-.03,.1l1.25,1.91s.06,.03,.13-.01c.2-.13,.38-.37,.52-.72,.15-.35,.12-.67-.07-.96Z"/>
    <path class="cls-15" d="M505.58,437.28c.17,.26,.25,.52,.22,.79s-.1,.48-.23,.66c.77,.2,1.32,.56,1.67,1.08,.54,.82,.2,1.63-1.01,2.42l-1.05,.69c-.37,.24-.63,.45-.79,.63-.04,.04-.02,.16,.04,.34s.11,.31,.16,.37c.01,.02-.02,.06-.09,.11s-.13,.09-.17,.1c-.4-.67-.61-1.03-.64-1.08-.03-.04-.27-.39-.75-1.04,0-.04,.05-.09,.13-.14s.13-.06,.14-.04c.05,.08,.15,.18,.29,.31s.24,.18,.29,.17c.21-.07,.43-.18,.65-.33l1.07-.7c.97-.64,1.24-1.28,.81-1.94-.16-.24-.36-.41-.61-.49s-.42-.1-.51-.05l-.03,.03-.05,.03c-.14,.13-.36,.29-.66,.48l-1.07,.7c-.31,.2-.54,.39-.71,.57-.04,.04-.02,.16,.04,.34s.11,.31,.16,.37c.01,.02-.02,.06-.09,.11s-.13,.09-.17,.1c-.4-.67-.61-1.03-.64-1.08-.03-.04-.27-.39-.75-1.04,0-.04,.05-.09,.13-.14s.13-.06,.14-.04c.05,.08,.15,.18,.29,.31s.24,.18,.29,.17c.21-.07,.45-.2,.71-.36l.97-.63c1-.66,1.3-1.3,.89-1.93-.13-.2-.33-.35-.6-.45s-.48-.12-.61-.03l-1.67,1.09c-.37,.24-.63,.45-.79,.63-.04,.04-.02,.16,.04,.34s.11,.31,.16,.37c.01,.02-.02,.06-.09,.11s-.13,.09-.17,.1c-.4-.67-.61-1.03-.64-1.08-.03-.04-.27-.39-.75-1.04,0-.04,.05-.09,.13-.14s.13-.06,.14-.04c.05,.08,.15,.18,.29,.31s.24,.18,.29,.17c.21-.07,.45-.2,.71-.36l1.79-1.17c.25-.16,.39-.32,.42-.47,.03-.12,.03-.23,0-.34s-.07-.2-.11-.26-.05-.1-.04-.11c.15-.1,.24-.13,.28-.1,.55,.63,.93,1.02,1.13,1.19,0,0,.02,.02,.04,.04,.02,.03,0,.06-.05,.1s-.09,.07-.12,.08c-.19,.09-.33,.16-.4,.21-.03,.02-.03,.03-.02,.04,0,0,.02,.01,.04,.02,.25,.05,.53,.16,.83,.33s.53,.37,.69,.61Z"/>
    <path class="cls-15" d="M510.15,444.31c.2,.3,.31,.6,.35,.9s.01,.57-.08,.8-.21,.44-.36,.61-.3,.32-.48,.43c-.13,.08-.22,.11-.27,.09-.05-.02-.12-.09-.19-.2l-1.62-2.47c-.03-.05-.07-.07-.1-.05-.4,.26-.68,.62-.85,1.09s-.1,.94,.2,1.41c.09,.14,.19,.26,.29,.37s.21,.19,.3,.26c.09,.07,.18,.12,.25,.16,.08,.04,.14,.07,.21,.1l.09,.04s0,.09-.08,.14c-.05,.03-.12,.05-.21,.05-.26-.02-.55-.1-.86-.27s-.56-.39-.76-.69c-.35-.54-.46-1.14-.32-1.78,.14-.65,.49-1.16,1.06-1.53,.66-.43,1.31-.59,1.93-.47s1.12,.45,1.49,1.01Zm-.41,.13c-.22-.34-.53-.51-.93-.5-.4,0-.69,.07-.87,.19-.04,.03-.05,.06-.03,.1l1.25,1.91s.06,.03,.13-.01c.2-.13,.38-.37,.52-.72,.15-.35,.12-.67-.07-.96Z"/>
    <path class="cls-15" d="M513.48,449.37c.3,.46,.35,.88,.16,1.27s-.65,.82-1.35,1.28l-.86,.56c-.37,.24-.63,.45-.79,.63-.04,.04-.02,.16,.04,.34s.11,.31,.16,.37c.01,.02-.02,.06-.09,.11s-.13,.09-.17,.1c-.4-.67-.61-1.03-.64-1.08,0-.01-.25-.35-.72-1,0-.04,.05-.09,.13-.14s.13-.06,.14-.04c.05,.08,.14,.17,.28,.29s.23,.16,.28,.15c.21-.07,.45-.2,.71-.36l.95-.62c.59-.38,.94-.72,1.05-1.02,.11-.3,.05-.62-.18-.98-.14-.21-.34-.36-.62-.46-.27-.1-.47-.1-.59-.03l-1.67,1.09c-.37,.24-.63,.45-.79,.63-.04,.04-.02,.16,.04,.34s.11,.31,.16,.37c.01,.02-.02,.06-.09,.11s-.13,.09-.17,.1c-.4-.67-.61-1.03-.64-1.08-.03-.04-.27-.39-.75-1.04,0-.04,.05-.09,.13-.14s.13-.06,.14-.04c.05,.08,.15,.18,.29,.31s.24,.18,.29,.17c.21-.07,.45-.2,.71-.36l1.79-1.17c.25-.16,.39-.32,.42-.47,.03-.12,.03-.23,0-.34s-.07-.2-.11-.26-.05-.1-.04-.11c.15-.1,.24-.13,.28-.1,.55,.63,.93,1.02,1.13,1.19,0,0,.02,.02,.04,.04,.02,.03,0,.06-.05,.1s-.09,.07-.12,.08c-.19,.09-.33,.16-.4,.21-.03,.02-.03,.03-.02,.04,0,0,.02,.01,.04,.02,.25,.05,.53,.16,.83,.33s.53,.37,.69,.61Z"/>
    <path class="cls-15" d="M514.81,452.71l-.37-.57s.03-.09,.17-.18c.04-.02,.06-.04,.07-.03,.21,.14,.51,.23,.91,.29,.13,.02,.27,.03,.42,.03,.15,0,.28,0,.38,0,.11,0,.16,0,.17-.01,.13,.2,.18,.3,.15,.33l-.94,.61c.11,.17,.28,.43,.5,.78s.34,.53,.35,.55c.03,.05,.02,.1-.03,.13-.11,.07-.26,.12-.42,.14l-.85-1.3-2.32,1.52c-.25,.17-.41,.36-.47,.6-.06,.23-.03,.46,.12,.67,.13,.2,.32,.36,.58,.49,.03,.01,.02,.06-.02,.14s-.07,.12-.08,.12c-.16-.03-.36-.12-.59-.26-.23-.14-.42-.32-.56-.53-.21-.33-.29-.67-.22-1.02s.29-.66,.68-.91l2.4-1.57Z"/>
    <path class="cls-15" d="M518.4,456.92c.24,.36,.32,.67,.26,.94-.06,.27-.28,.52-.66,.76l-2.19,1.43c-.13,.09-.22,.19-.26,.32-.04,.13-.02,.26,.06,.38,.06,.09,.18,.18,.36,.26,.02,.03,0,.06-.05,.09-.08,.05-.16,.08-.23,.08-.4-.12-.66-.28-.78-.47-.1-.15-.13-.33-.1-.55,.03-.22,.09-.39,.19-.53,0,0-.04-.02-.11-.03-.07-.02-.15-.04-.25-.08-.1-.04-.21-.08-.33-.14-.12-.06-.24-.14-.36-.24-.12-.1-.22-.22-.31-.35-.2-.3-.28-.6-.26-.9,.03-.3,.19-.55,.5-.75,.14-.09,.29-.14,.46-.15,.17,0,.33,.01,.47,.06,.14,.05,.31,.13,.5,.24s.35,.22,.47,.32,.28,.22,.47,.37,.33,.26,.41,.32c.06,.05,.12,.04,.2,0l.71-.46c.2-.13,.32-.3,.34-.5s-.02-.4-.14-.58c-.13-.2-.3-.32-.52-.36s-.43,0-.63,.13c-.22,.14-.42,.08-.59-.19-.12-.18-.14-.35-.07-.5,.27-.18,.68-.15,1.21,.09,.54,.24,.95,.57,1.22,.99Zm-4.12,1.38c-.02,.17,.03,.34,.14,.52s.28,.31,.49,.41,.37,.11,.48,.04l.98-.64c-.06-.04-.19-.13-.38-.3-.2-.16-.35-.28-.48-.37s-.27-.14-.46-.18-.34,0-.49,.09c-.17,.11-.26,.25-.28,.42Z"/>
    <path class="cls-15" d="M521.5,461.64c.25,.39,.33,.7,.23,.94-.22,.14-.41,.21-.55,.21-.15,0-.26-.06-.32-.17-.08-.12-.09-.26-.05-.43,.04-.17,0-.34-.1-.51-.13-.2-.34-.32-.62-.35-.28-.03-.52,.02-.72,.15l-1.42,.93c-.37,.24-.63,.45-.79,.63-.04,.04-.02,.16,.04,.34s.12,.31,.16,.38c.01,.02-.02,.06-.09,.11s-.13,.09-.17,.1c-.4-.67-.61-1.04-.65-1.09-.03-.04-.27-.39-.75-1.04,0-.04,.05-.09,.13-.14s.13-.06,.14-.04c.05,.08,.15,.18,.29,.31s.24,.18,.29,.17c.21-.07,.45-.2,.71-.36l1.79-1.17c.25-.16,.39-.32,.42-.47,.03-.12,.03-.23,0-.34s-.07-.2-.11-.26-.05-.1-.04-.11c.15-.1,.24-.13,.28-.1,.55,.63,.93,1.02,1.13,1.19,0,0,.02,.02,.04,.04,.02,.03,0,.06-.05,.1s-.09,.07-.12,.08l-.51,.25c.25,0,.51,.06,.8,.17s.49,.26,.62,.47Z"/>
    <path class="cls-15" d="M522.71,463.66c.07,.11,.14,.21,.21,.3s.15,.19,.23,.31c.09,.12,.16,.22,.23,.31-.03,.04-.07,.08-.13,.11-.09,.06-.14,.07-.16,.05-.03-.05-.11-.12-.24-.22s-.21-.13-.26-.11h-.02c-.11,.09-.71,.98-1.78,2.68l2.56-.61c.16-.04,.28-.08,.34-.12,.09-.06,.14-.16,.13-.3,0-.14-.07-.3-.18-.47-.02-.03,.02-.07,.1-.12,.08-.05,.14-.07,.18-.06,.05,.09,.12,.22,.22,.4,.1,.18,.2,.35,.3,.5,.09,.14,.2,.3,.33,.46,.12,.16,.22,.28,.28,.36-.03,.04-.07,.08-.13,.11-.09,.06-.14,.07-.16,.05-.06-.09-.16-.18-.31-.29-.15-.11-.31-.15-.46-.11l-5.72,1.23c-.49,.11-.87,.11-1.15,.03s-.47-.21-.57-.37c-.09-.14-.11-.27-.08-.38s.1-.21,.18-.26c.14-.09,.27-.11,.39-.06,.35,.54,.86,.72,1.52,.55,.12-.03,.26-.06,.42-.11s.29-.08,.39-.1l2.4-3.57c.1-.17,.17-.31,.19-.41,.02-.1,0-.22-.03-.36-.04-.15-.08-.25-.13-.33-.02-.03,.02-.07,.1-.12,.08-.05,.14-.07,.18-.06,.41,.69,.62,1.06,.65,1.09Z"/>
    <path class="cls-15" d="M528.06,471.69c.38,.59,.51,1.23,.37,1.91-.14,.69-.49,1.22-1.07,1.59s-1.21,.5-1.89,.36c-.68-.14-1.21-.51-1.6-1.1s-.51-1.24-.37-1.93c.14-.69,.5-1.22,1.08-1.6s1.21-.5,1.88-.36,1.2,.52,1.6,1.12Zm-.44,.13c-.23-.35-.57-.53-1.01-.55-.45-.02-.89,.12-1.34,.4-.52,.34-.87,.77-1.06,1.29s-.16,.97,.08,1.34c.23,.35,.57,.53,1.03,.54,.46,.02,.91-.12,1.35-.41,.51-.33,.86-.76,1.04-1.28s.15-.96-.1-1.34Z"/>
    <path class="cls-15" d="M531.59,477.07c.25,.39,.33,.7,.23,.94-.22,.14-.41,.21-.55,.21-.15,0-.26-.06-.32-.17-.08-.12-.09-.26-.05-.43,.04-.17,0-.34-.1-.51-.13-.2-.34-.32-.62-.35-.28-.03-.52,.02-.72,.15l-1.42,.93c-.37,.24-.63,.45-.79,.63-.04,.04-.02,.16,.04,.34s.12,.31,.16,.38c.01,.02-.02,.06-.09,.11s-.13,.09-.17,.1c-.4-.67-.61-1.04-.65-1.09-.03-.04-.27-.39-.75-1.04,0-.04,.05-.09,.13-.14s.13-.06,.14-.04c.05,.08,.15,.18,.29,.31s.24,.18,.29,.17c.21-.07,.45-.2,.71-.36l1.79-1.17c.25-.16,.39-.32,.42-.47,.03-.12,.03-.23,0-.34s-.07-.2-.11-.26-.05-.1-.04-.11c.15-.1,.24-.13,.28-.1,.55,.63,.93,1.02,1.13,1.19,0,0,.02,.02,.04,.04,.02,.03,0,.06-.05,.1s-.09,.07-.12,.08l-.51,.25c.25,0,.51,.06,.8,.17s.49,.26,.62,.47Z"/>
    <path class="cls-15" d="M534.51,480.44c.49-.32,1.01-.39,1.58-.2s1.01,.53,1.35,1.04c.09,.14,.17,.28,.24,.42s.12,.25,.15,.35,.08,.23,.14,.41,.11,.34,.17,.47c-.28,.3-.71,.63-1.28,1-.04,.03-.09,.01-.13-.05-.1-.16-.13-.26-.07-.32,.26-.21,.43-.53,.54-.95,.1-.42,.04-.8-.19-1.15-.26-.39-.53-.61-.83-.64-.29-.04-.58,.04-.86,.22-.12,.08-.22,.18-.3,.29s-.14,.22-.18,.32c-.04,.09-.07,.23-.09,.41-.02,.18-.02,.31-.03,.4,0,.08,0,.24,.01,.47,0,.23,.01,.38,.02,.44,0,.04,0,.2,.02,.48s.02,.46,.02,.56-.01,.27-.03,.51c-.02,.23-.06,.42-.11,.55s-.13,.27-.23,.43c-.1,.16-.23,.28-.38,.38-.5,.33-1.05,.4-1.64,.2-.59-.2-1.07-.57-1.43-1.12-.1-.16-.2-.33-.29-.52s-.17-.35-.22-.48-.12-.3-.2-.51c-.08-.21-.13-.35-.17-.43,.67-.67,1.12-1.08,1.34-1.23,.04-.02,.09,.01,.16,.12,.08,.12,.1,.22,.07,.3-.76,.82-.86,1.66-.3,2.52,.21,.33,.49,.54,.83,.65,.34,.1,.68,.04,1.03-.18,.13-.08,.23-.18,.31-.29s.14-.21,.18-.3,.07-.21,.07-.37c0-.16,.01-.28,.01-.37,0-.08-.01-.23-.03-.44-.02-.21-.04-.36-.04-.43-.02-.26-.03-.44-.03-.55s0-.28-.01-.52c0-.25,.01-.43,.05-.57,.03-.13,.08-.29,.13-.48,.05-.18,.14-.34,.25-.48s.24-.25,.39-.35Z"/>
    <path class="cls-15" d="M538.64,489.84l-1.89,1.24c-.27,.18-.5,.36-.67,.54-.04,.04-.05,.1-.03,.18s.04,.15,.07,.22c.04,.07,.08,.14,.12,.2l.05,.09s-.02,.06-.08,.1c-.02,.01-.05,.02-.11,.03s-.08,0-.1-.01c-.07-.09-.16-.19-.25-.3s-.19-.21-.29-.3-.18-.17-.27-.25c-.09-.07-.15-.13-.21-.17l-.08-.08c-.03-.05,0-.11,.1-.18l.48-.32,.03-.05c-.73-.14-1.23-.42-1.51-.85-.16-.24-.24-.49-.23-.74s.07-.48,.21-.69c.14-.21,.29-.39,.45-.54s.33-.29,.53-.42l1.19-.78c.25-.16,.39-.32,.42-.47,.03-.12,.03-.23,0-.34s-.07-.2-.11-.26-.05-.1-.04-.11c.15-.1,.24-.13,.28-.1,.55,.63,.93,1.02,1.13,1.19,0,0,.02,.02,.04,.04,.02,.03,0,.06-.05,.1s-.09,.07-.12,.08c-.33,.16-.57,.29-.74,.4l-1.28,.84c-.49,.32-.79,.63-.93,.93s-.09,.62,.14,.96c.13,.2,.32,.33,.59,.41,.26,.08,.45,.08,.56,.01l1.77-1.16c.25-.16,.39-.32,.42-.47,.03-.12,.03-.23,0-.34s-.07-.2-.11-.26-.05-.1-.04-.11c.15-.1,.24-.13,.28-.1,.55,.63,.93,1.02,1.13,1.19,0,0,.02,.02,.04,.04,.02,.03,0,.06-.05,.1s-.09,.07-.12,.08c-.33,.16-.57,.29-.72,.39Z"/>
    <path class="cls-15" d="M541.79,492.7c.41,.63,.53,1.25,.35,1.87s-.49,1.08-.95,1.38c-.61,.4-1.28,.53-2.03,.39-.75-.14-1.3-.48-1.67-1.04-.06-.1-.12-.19-.16-.27s-.08-.15-.1-.22c-.02-.07-.04-.12-.05-.17,0-.04-.02-.09-.03-.16s-.02-.11-.02-.13c-.05,0-.1,0-.15,.04l-.81,.53c-.37,.24-.63,.45-.79,.63-.03,.04-.02,.15,.04,.34s.11,.31,.16,.37c.01,.02-.02,.06-.09,.12-.07,.06-.13,.09-.16,.09-.4-.67-.61-1.03-.64-1.08-.03-.04-.27-.39-.75-1.04,0-.04,.05-.09,.13-.14s.13-.06,.14-.04c.05,.08,.15,.18,.29,.31s.24,.18,.29,.17c.21-.07,.45-.2,.71-.36l3.91-2.56c.25-.16,.39-.32,.42-.47,.03-.11,.03-.23,0-.34-.03-.11-.07-.2-.11-.26s-.06-.1-.04-.11c.15-.1,.24-.13,.27-.1,.55,.63,.93,1.02,1.13,1.19,0,0,.02,.02,.04,.04,.01,.02,0,.04-.03,.06s-.08,.05-.13,.07-.09,.04-.09,.05l-.06,.04c.12,.05,.29,.16,.51,.32,.22,.16,.38,.32,.47,.47Zm-.67-.01c-.13-.2-.29-.34-.48-.4-.19-.06-.38-.03-.58,.1l-2.13,1.39c-.17,.11-.25,.3-.24,.57s.08,.51,.23,.73c.25,.39,.62,.58,1.1,.59s.93-.12,1.35-.39c.53-.35,.85-.77,.97-1.26,.12-.49,.04-.94-.22-1.33Z"/>
    <path class="cls-15" d="M544.85,497.38c.2,.3,.31,.6,.35,.9s.01,.57-.08,.8-.21,.44-.36,.61-.3,.32-.48,.43c-.13,.08-.22,.11-.27,.09-.05-.02-.12-.09-.19-.2l-1.62-2.47c-.03-.05-.07-.07-.1-.05-.4,.26-.68,.62-.85,1.09s-.1,.94,.2,1.41c.09,.14,.19,.26,.29,.37s.21,.19,.3,.26c.09,.07,.18,.12,.25,.16,.08,.04,.14,.07,.21,.1l.09,.04s0,.09-.08,.14c-.05,.03-.12,.05-.21,.05-.26-.02-.55-.1-.86-.27s-.56-.39-.76-.69c-.35-.54-.46-1.14-.32-1.78,.14-.65,.49-1.16,1.06-1.53,.66-.43,1.31-.59,1.93-.47s1.12,.45,1.49,1.01Zm-.41,.13c-.22-.34-.53-.51-.93-.5-.4,0-.69,.07-.87,.19-.04,.03-.05,.06-.03,.1l1.25,1.91s.06,.03,.13-.01c.2-.13,.38-.37,.52-.72,.15-.35,.12-.67-.07-.96Z"/>
    <path class="cls-15" d="M547.99,502.16c.25,.39,.33,.7,.23,.94-.22,.14-.41,.21-.55,.21-.15,0-.26-.06-.32-.17-.08-.12-.09-.26-.05-.43,.04-.17,0-.34-.1-.51-.13-.2-.34-.32-.62-.35-.28-.03-.52,.02-.72,.15l-1.42,.93c-.37,.24-.63,.45-.79,.63-.04,.04-.02,.16,.04,.34s.12,.31,.16,.38c.01,.02-.02,.06-.09,.11s-.13,.09-.17,.1c-.4-.67-.61-1.04-.65-1.09-.03-.04-.27-.39-.75-1.04,0-.04,.05-.09,.13-.14s.13-.06,.14-.04c.05,.08,.15,.18,.29,.31s.24,.18,.29,.17c.21-.07,.45-.2,.71-.36l1.79-1.17c.25-.16,.39-.32,.42-.47,.03-.12,.03-.23,0-.34s-.07-.2-.11-.26-.05-.1-.04-.11c.15-.1,.24-.13,.28-.1,.55,.63,.93,1.02,1.13,1.19,0,0,.02,.02,.04,.04,.02,.03,0,.06-.05,.1s-.09,.07-.12,.08l-.51,.25c.25,0,.51,.06,.8,.17s.49,.26,.62,.47Z"/>
    <path class="cls-15" d="M552.9,504.33c.31,.47,.39,.86,.24,1.17-.4,.26-.67,.27-.83,.04-.06-.09-.06-.2-.01-.34s.09-.3,.12-.46c.03-.17,0-.32-.09-.47-.19-.29-.5-.4-.95-.33s-.9,.25-1.36,.55l-.48,.32s-.04,.05-.02,.08l.71,1.09s.01,.06-.03,.09c-.1,.07-.25,.11-.46,.13l-.66-1.01s-.06-.05-.1-.02l-2.19,1.43c-.34,.22-.6,.44-.78,.64-.04,.04-.03,.15,.03,.32s.1,.29,.14,.35c.01,.02-.02,.06-.09,.11s-.13,.09-.17,.1c-.4-.67-.61-1.03-.64-1.08-.01-.02-.25-.35-.72-1,0-.02,.03-.05,.07-.09s.09-.07,.13-.08c.04-.02,.07-.02,.08,0,.05,.08,.14,.18,.28,.29s.23,.17,.28,.15c.29-.1,.59-.25,.91-.45l2.18-1.42s.06-.06,.03-.09l-.34-.52s0-.04,.04-.07c.06-.04,.17-.04,.34,0,.17,.04,.29,.12,.37,.23l.04,.06s.05,.04,.09,.01l.12-.08c.66-.43,1.37-.6,2.11-.51,.75,.1,1.28,.38,1.59,.87Z"/>
    <path class="cls-15" d="M548.78,509.61c-.37,.24-.63,.45-.79,.63-.04,.04-.02,.16,.04,.34s.11,.31,.16,.37c.01,.02-.02,.06-.09,.11s-.13,.09-.17,.1c-.4-.67-.61-1.03-.64-1.08s-.28-.39-.75-1.04c0-.04,.05-.09,.13-.14s.13-.06,.14-.04c.05,.08,.15,.18,.29,.31s.24,.18,.29,.17c.21-.07,.45-.2,.71-.36l1.79-1.17c.25-.16,.39-.32,.42-.47,.03-.12,.03-.23,0-.34s-.07-.2-.11-.26-.05-.1-.04-.11c.15-.1,.24-.13,.28-.1,.55,.63,.93,1.02,1.13,1.19h.02s.01,.04,.02,.04c.02,.03,0,.06-.05,.1s-.09,.07-.12,.08c-.27,.13-.51,.26-.71,.4l-1.95,1.28Zm3.48-3.41c.03-.15,.11-.28,.24-.36s.28-.11,.43-.08,.28,.12,.36,.26,.12,.28,.09,.44-.11,.28-.24,.36-.28,.11-.43,.08c-.15-.03-.28-.12-.36-.26s-.12-.28-.09-.44Z"/>
    <path class="cls-15" d="M553.68,510.87c.47,.72,.63,1.32,.49,1.81-.42,.28-.71,.29-.87,.05-.07-.11-.1-.21-.1-.3s.05-.22,.11-.4c.16-.39,.14-.73-.04-1.01s-.46-.43-.85-.49-.83,.07-1.31,.39-.84,.73-1.01,1.21-.1,.94,.2,1.4c.09,.14,.19,.26,.29,.37s.21,.19,.3,.26c.09,.07,.18,.12,.25,.16,.08,.04,.14,.07,.21,.1l.09,.04s0,.09-.08,.14c-.05,.03-.12,.05-.21,.05-.26-.02-.55-.1-.86-.27s-.56-.39-.76-.69c-.35-.54-.46-1.14-.32-1.78,.14-.65,.49-1.16,1.06-1.53s1.19-.55,1.83-.5,1.16,.38,1.56,.99Z"/>
    <path class="cls-15" d="M553.11,516.22c-.37,.24-.63,.45-.79,.63-.04,.04-.02,.16,.04,.34s.11,.31,.16,.37c.01,.02-.02,.06-.09,.11s-.13,.09-.17,.1c-.4-.67-.61-1.03-.64-1.08s-.28-.39-.75-1.04c0-.04,.05-.09,.13-.14s.13-.06,.14-.04c.05,.08,.15,.18,.29,.31s.24,.18,.29,.17c.21-.07,.45-.2,.71-.36l1.79-1.17c.25-.16,.39-.32,.42-.47,.03-.12,.03-.23,0-.34s-.07-.2-.11-.26-.05-.1-.04-.11c.15-.1,.24-.13,.28-.1,.55,.63,.93,1.02,1.13,1.19h.02s.01,.04,.02,.04c.02,.03,0,.06-.05,.1s-.09,.07-.12,.08c-.27,.13-.51,.26-.71,.4l-1.95,1.28Zm3.48-3.41c.03-.15,.11-.28,.24-.36s.28-.11,.43-.08,.28,.12,.36,.26,.12,.28,.09,.44-.11,.28-.24,.36-.28,.11-.43,.08c-.15-.03-.28-.12-.36-.26s-.12-.28-.09-.44Z"/>
    <path class="cls-15" d="M558.02,517.51c.24,.36,.32,.67,.26,.94-.06,.27-.28,.52-.66,.76l-2.19,1.43c-.13,.09-.22,.19-.26,.32-.04,.13-.02,.26,.06,.38,.06,.09,.18,.18,.36,.26,.02,.03,0,.06-.05,.09-.08,.05-.16,.08-.23,.08-.4-.12-.66-.28-.78-.47-.1-.15-.13-.33-.1-.55,.03-.22,.09-.39,.19-.53,0,0-.04-.02-.11-.03-.07-.02-.15-.04-.25-.08-.1-.04-.21-.08-.33-.14-.12-.06-.24-.14-.36-.24-.12-.1-.22-.22-.31-.35-.2-.3-.28-.6-.26-.9,.03-.3,.19-.55,.5-.75,.14-.09,.29-.14,.46-.15,.17,0,.33,.01,.47,.06,.14,.05,.31,.13,.5,.24s.35,.22,.47,.32,.28,.22,.47,.37,.33,.26,.41,.32c.06,.05,.12,.04,.2,0l.71-.46c.2-.13,.32-.3,.34-.5s-.02-.4-.14-.58c-.13-.2-.3-.32-.52-.36s-.43,0-.63,.13c-.22,.14-.42,.08-.59-.19-.12-.18-.14-.35-.07-.5,.27-.18,.68-.15,1.21,.09,.54,.24,.95,.57,1.22,.99Zm-4.12,1.38c-.02,.17,.03,.34,.14,.52s.28,.31,.49,.41,.37,.11,.48,.04l.98-.64c-.06-.04-.19-.13-.38-.3-.2-.16-.35-.28-.48-.37s-.27-.14-.46-.18-.34,0-.49,.09c-.17,.11-.26,.25-.28,.42Z"/>
    <path class="cls-15" d="M556.76,522.2l4.1-2.68c.21-.14,.4-.29,.57-.45,.08-.1,.02-.3-.18-.6l-.06-.09s0-.08,.07-.13c.1-.07,.16-.08,.19-.04,.15,.18,.29,.35,.43,.49,.14,.15,.26,.26,.35,.33,.09,.07,.18,.13,.25,.18,.07,.05,.13,.08,.17,.1l.05,.02v.02s.03,.06,.01,.11c-.02,.05-.04,.09-.07,.11-.25,.06-.55,.2-.89,.43l-4.32,2.82c-.37,.24-.63,.45-.79,.63-.04,.04-.02,.16,.04,.34s.11,.31,.16,.37c.01,.02-.02,.06-.09,.11s-.13,.09-.17,.1c-.4-.67-.61-1.03-.64-1.08-.03-.04-.27-.39-.75-1.04,0-.04,.05-.09,.13-.14s.13-.06,.14-.04c.05,.08,.15,.18,.29,.31s.24,.18,.29,.17c.21-.07,.45-.2,.71-.36Z"/>
  </g>
  <g>
    <path class="cls-15" d="M290.77,444.45c.09-.13,.18-.25,.26-.38,.08-.12,.17-.26,.26-.4,.09-.14,.17-.26,.23-.36,.05,.01,.1,.04,.15,.08,.09,.06,.12,.11,.1,.13-.05,.06-.11,.19-.19,.39s-.1,.31-.07,.36c.17,.21,.43,.45,.79,.71l3.44,2.52c.32,.24,.61,.4,.87,.5,.07,.03,.26-.17,.56-.58l.33-.45c.43-.59,.67-1.02,.72-1.3,.02-.13-.01-.31-.09-.55-.08-.24-.21-.48-.39-.72-.03-.04-.01-.1,.04-.17,.09-.12,.16-.19,.23-.2,.06,.09,.15,.23,.27,.42s.23,.35,.3,.46,.17,.25,.28,.39c.11,.15,.2,.26,.28,.34-.24,.33-.62,.83-1.15,1.52-.53,.68-.95,1.24-1.26,1.67l-.81,1.16s-.09-.02-.17-.08-.11-.1-.1-.11c.06-.09,.14-.22,.21-.41,.08-.18,.1-.31,.07-.38-.04-.1-.31-.33-.81-.69l-3.45-2.53c-.39-.29-.68-.47-.88-.54-.06-.02-.17,.04-.33,.17-.16,.13-.27,.24-.33,.32-.02,.03-.07,0-.15-.05-.07-.05-.11-.1-.12-.15,.07-.08,.2-.24,.4-.48s.36-.45,.49-.62Z"/>
    <path class="cls-15" d="M299.59,442.37c.35,.26,.64,.43,.87,.52,.05,.02,.15-.03,.3-.16s.25-.22,.29-.28c.01-.02,.06,0,.14,.04s.13,.09,.15,.12c-.49,.61-.75,.93-.79,.98s-.27,.4-.71,1.06c-.04,0-.1-.02-.18-.07s-.1-.1-.09-.12c.06-.08,.12-.2,.19-.38s.09-.29,.05-.33c-.14-.17-.34-.35-.59-.53l-1.72-1.26c-.24-.17-.43-.25-.59-.23-.12,0-.23,.05-.32,.12s-.16,.14-.21,.2-.07,.09-.08,.08c-.15-.11-.21-.18-.19-.22,.39-.74,.63-1.23,.72-1.48v-.03s.02-.02,.03-.03c.02-.03,.06-.02,.11,0s.09,.06,.11,.08c.22,.21,.43,.39,.62,.53l1.88,1.38Zm-4.42-2.05c-.15,.03-.3,0-.42-.1s-.2-.22-.22-.37,.02-.3,.11-.43,.22-.21,.38-.24,.3,0,.42,.1,.2,.22,.22,.37c.02,.16-.02,.3-.11,.43s-.22,.21-.38,.24Z"/>
    <path class="cls-15" d="M299.67,436.47c.32-.44,.7-.64,1.13-.59s.99,.32,1.67,.82l.83,.61c.35,.26,.64,.43,.87,.52,.05,.02,.15-.03,.3-.16s.25-.22,.29-.28c.01-.02,.06,0,.14,.04s.13,.09,.15,.12c-.49,.61-.75,.93-.79,.98,0,.01-.24,.35-.68,1.03-.04,0-.1-.02-.18-.07s-.1-.1-.09-.12c.06-.08,.11-.2,.17-.36s.07-.27,.04-.31c-.14-.17-.34-.35-.59-.53l-.91-.67c-.57-.41-1.01-.62-1.33-.62-.32,0-.6,.17-.85,.51-.15,.2-.22,.45-.21,.74,0,.29,.07,.48,.18,.56l1.61,1.18c.35,.26,.64,.43,.87,.52,.05,.02,.15-.03,.3-.16s.25-.22,.29-.28c.01-.02,.06,0,.14,.04s.13,.09,.15,.12c-.49,.61-.75,.93-.79,.98-.03,.04-.26,.39-.71,1.06-.04,0-.1-.02-.18-.07s-.1-.1-.09-.12c.06-.08,.12-.2,.19-.38s.09-.29,.05-.33c-.14-.17-.34-.35-.59-.53l-1.72-1.26c-.24-.17-.43-.25-.59-.23-.12,0-.23,.05-.32,.12s-.16,.14-.21,.2-.07,.09-.08,.08c-.15-.11-.21-.18-.19-.22,.39-.74,.63-1.23,.72-1.48,0,0,.01-.02,.03-.05,.02-.03,.06-.02,.11,0s.09,.06,.11,.08c.15,.15,.26,.25,.34,.31,.02,.02,.04,.02,.05,0,0,0,0-.02,0-.04-.04-.25-.03-.55,.02-.89s.16-.63,.33-.86Z"/>
    <path class="cls-15" d="M302.85,432.17c.21-.29,.45-.51,.72-.65s.53-.21,.78-.21,.49,.05,.7,.12,.4,.17,.57,.3c.12,.09,.18,.16,.18,.22,0,.06-.04,.14-.12,.25l-1.75,2.38c-.04,.05-.04,.09-.01,.11,.38,.28,.82,.42,1.32,.42s.91-.23,1.24-.69c.1-.13,.18-.27,.24-.4s.11-.26,.14-.37c.03-.11,.05-.21,.06-.29,0-.08,.02-.16,.02-.23v-.1s.08-.03,.16,.03c.05,.04,.09,.09,.12,.18,.08,.25,.1,.55,.05,.9s-.17,.66-.38,.95c-.38,.52-.9,.83-1.56,.93-.66,.1-1.26-.06-1.8-.46-.64-.47-1.01-1.02-1.12-1.64s.03-1.21,.42-1.75Zm.27,.34c-.24,.33-.29,.68-.14,1.05,.14,.37,.3,.62,.48,.75,.04,.03,.08,.03,.11,0l1.35-1.84s0-.07-.06-.11c-.19-.14-.48-.22-.86-.24-.38-.01-.67,.12-.88,.4Z"/>
    <path class="cls-15" d="M305.82,428.12c.25-.35,.52-.54,.79-.57,.27-.03,.59,.08,.95,.34l2.11,1.54c.13,.09,.26,.14,.4,.13,.14,0,.25-.07,.34-.19,.06-.09,.1-.23,.11-.42,.02-.03,.05-.02,.1,.02,.08,.06,.13,.12,.16,.19,.02,.41-.03,.71-.17,.9-.11,.14-.27,.24-.48,.29-.21,.05-.4,.05-.57,0,0,0,0,.04,0,.11,0,.07,.01,.16,.02,.27,0,.11,0,.23-.02,.36-.01,.13-.05,.27-.1,.42-.05,.15-.13,.29-.22,.41-.21,.29-.46,.48-.75,.55-.29,.08-.58,.01-.88-.21-.13-.1-.23-.23-.3-.38-.07-.16-.11-.31-.11-.46,0-.15,.01-.34,.05-.56s.08-.41,.13-.55,.11-.34,.19-.57,.13-.4,.15-.5c.02-.07,0-.13-.07-.18l-.68-.5c-.19-.14-.39-.19-.59-.14s-.36,.16-.49,.34c-.14,.19-.19,.39-.16,.61s.15,.4,.35,.55c.21,.16,.23,.36,.04,.62-.13,.18-.28,.26-.44,.24-.26-.19-.38-.58-.34-1.17,.03-.59,.2-1.08,.5-1.49Zm2.74,3.37c.17-.04,.31-.15,.44-.32s.19-.37,.21-.6-.03-.38-.13-.46l-.94-.69c-.01,.07-.06,.22-.14,.46-.08,.24-.14,.43-.18,.58s-.04,.31,0,.49,.11,.32,.26,.43c.16,.12,.33,.16,.5,.12Z"/>
    <path class="cls-15" d="M309.15,423.55c.27-.37,.54-.55,.8-.54,.21,.16,.34,.3,.39,.44,.05,.14,.03,.26-.04,.36-.08,.11-.21,.18-.38,.2-.17,.02-.32,.11-.44,.27-.14,.2-.18,.43-.11,.7,.07,.27,.2,.48,.4,.62l1.37,1c.35,.26,.64,.43,.87,.52,.05,.02,.15-.03,.31-.16s.25-.22,.3-.28c.01-.02,.06,0,.14,.04s.13,.09,.15,.12c-.49,.61-.76,.94-.79,.99-.03,.04-.26,.39-.71,1.06-.04,0-.1-.02-.18-.07s-.1-.1-.09-.12c.06-.08,.12-.2,.19-.38s.09-.29,.05-.33c-.14-.17-.34-.35-.59-.53l-1.72-1.26c-.24-.17-.43-.25-.59-.23-.12,0-.23,.05-.32,.12s-.16,.14-.21,.2-.07,.09-.08,.08c-.15-.11-.21-.18-.19-.22,.39-.74,.63-1.23,.72-1.48,0,0,.01-.02,.03-.05,.02-.03,.06-.02,.11,0s.09,.06,.11,.08l.41,.39c-.08-.23-.12-.5-.12-.81s.08-.55,.22-.75Z"/>
    <path class="cls-15" d="M301.07,453.82l6.2,1.64c.37,.1,.65,.16,.86,.21,.12,.03,.27-.01,.44-.13s.29-.21,.34-.29c.02-.03,.09,0,.2,.09,.02,.02,.05,.05,.08,.09-.49,.61-.76,.94-.81,1.01,0,0-.26,.38-.76,1.13-.04,0-.1-.02-.17-.08-.07-.06-.1-.1-.08-.13,.06-.08,.11-.18,.16-.32s.06-.23,.03-.29c-.04-.05-.08-.09-.13-.13-.08-.06-.18-.11-.3-.17s-.22-.1-.3-.12l-.13-.04-1.31-.37s-.06,.01-.08,.03c-.2,.23-.38,.47-.55,.7-.24,.33-.52,.74-.83,1.23v.07s.7,1.14,.7,1.14c.23,.33,.4,.54,.51,.62,.09,.06,.16,.08,.24,.06,.08-.03,.19-.09,.31-.2s.2-.19,.24-.24c.01-.02,.06,0,.13,.05s.12,.09,.14,.13c-.49,.61-.75,.92-.76,.94-.09,.13-.17,.24-.23,.34-.06,.1-.13,.21-.21,.33-.08,.12-.16,.24-.23,.35-.04,0-.1-.01-.16-.06-.09-.06-.12-.11-.1-.13,.06-.08,.11-.18,.17-.33s.07-.26,.05-.34c-.07-.25-.24-.61-.53-1.07l-2.87-4.63s-.06-.09-.11-.16-.09-.12-.11-.16c-.02-.04-.05-.09-.09-.15s-.06-.11-.07-.15-.02-.08-.03-.13,0-.1,0-.14c.01-.04,.04-.09,.07-.13l.09-.06Zm2.49,3.51c.25-.32,.42-.54,.51-.66,.2-.28,.4-.57,.6-.88l-.02-.06-2.58-.71,1.44,2.3s.04,.02,.05,0Z"/>
    <path class="cls-15" d="M307.54,449.24c.32-.44,.7-.64,1.13-.59s.99,.32,1.67,.82l.83,.61c.35,.26,.64,.43,.87,.52,.05,.02,.15-.03,.3-.16s.25-.22,.29-.28c.01-.02,.06,0,.14,.04s.13,.09,.15,.12c-.49,.61-.75,.93-.79,.98,0,.01-.24,.35-.68,1.03-.04,0-.1-.02-.18-.07s-.1-.1-.09-.12c.06-.08,.11-.2,.17-.36s.07-.27,.04-.31c-.14-.17-.34-.35-.59-.53l-.91-.67c-.57-.41-1.01-.62-1.33-.62-.32,0-.6,.17-.85,.51-.15,.2-.22,.45-.21,.74,0,.29,.07,.48,.18,.56l1.61,1.18c.35,.26,.64,.43,.87,.52,.05,.02,.15-.03,.3-.16s.25-.22,.29-.28c.01-.02,.06,0,.14,.04s.13,.09,.15,.12c-.49,.61-.75,.93-.79,.98-.03,.04-.26,.39-.71,1.06-.04,0-.1-.02-.18-.07s-.1-.1-.09-.12c.06-.08,.12-.2,.19-.38s.09-.29,.05-.33c-.14-.17-.34-.35-.59-.53l-1.72-1.26c-.24-.17-.43-.25-.59-.23-.12,0-.23,.05-.32,.12s-.16,.14-.21,.2-.07,.09-.08,.08c-.15-.11-.21-.18-.19-.22,.39-.74,.63-1.23,.72-1.48,0,0,.01-.02,.03-.05,.02-.03,.06-.02,.11,0s.09,.06,.11,.08c.15,.15,.26,.25,.34,.31,.02,.02,.04,.02,.05,0,0,0,0-.02,0-.04-.04-.25-.03-.55,.02-.89s.16-.63,.33-.86Z"/>
    <path class="cls-15" d="M310.63,445.14c.17-.23,.41-.47,.71-.72,.3-.24,.52-.46,.67-.66l.4-.55s.13,0,.27,.11c.09,.06,.11,.11,.09,.15l-.49,.67s-.02,.04,0,.06l.29,.07c.2,.04,.37,.11,.51,.22,.33,.24,.51,.61,.55,1.1s-.1,.96-.42,1.4c-.15,.2-.29,.37-.42,.5-.02,.11,0,.26,.04,.43s.11,.29,.19,.35,.17,.09,.26,.07c.09-.01,.18-.06,.27-.14s.17-.16,.25-.24,.15-.18,.24-.3l.05-.07c.59-.77,1.06-1.26,1.44-1.47,.37-.21,.7-.21,.99,0,.47,.34,.72,.84,.76,1.5,.04,.66-.18,1.31-.64,1.96-.32,.45-.7,.79-1.13,1.02s-.82,.22-1.16-.03c-.38-.28-.47-.82-.29-1.63-.15,.15-.34,.25-.57,.31s-.44,.01-.62-.12c-.16-.12-.27-.31-.34-.57-.07-.27-.09-.53-.07-.78-.21,.14-.48,.21-.82,.21s-.64-.1-.89-.28c-.36-.26-.55-.64-.56-1.13-.02-.49,.14-.97,.47-1.42Zm5.84,1.92c-.26-.19-.52-.18-.8,.01s-.7,.68-1.26,1.44c0,.01-.02,.04-.02,.07,0,.01,0,.05-.02,.12s-.02,.11-.03,.12c0,.02,0,.06-.01,.12s0,.11-.01,.13c0,.02,0,.06,0,.12s0,.1,.02,.13,.02,.07,.04,.11,.03,.09,.05,.12,.05,.07,.08,.11,.07,.07,.11,.1c.26,.19,.58,.21,.94,.04,.37-.16,.67-.41,.92-.75,.28-.38,.41-.76,.39-1.14-.02-.39-.15-.67-.4-.85Zm-5.25-.13c.28,.21,.58,.29,.91,.25s.58-.18,.75-.42,.24-.52,.17-.81c-.07-.29-.23-.54-.48-.72-.28-.2-.58-.29-.91-.25s-.58,.18-.75,.41-.24,.52-.17,.81c.06,.29,.22,.53,.48,.72Z"/>
    <path class="cls-15" d="M316.25,439.21l1.82,1.34c.26,.19,.51,.34,.74,.44,.05,.02,.11,0,.18-.03s.12-.09,.18-.15c.05-.06,.1-.12,.15-.18l.07-.08s.06,0,.12,.04c.02,.01,.04,.04,.07,.09s.03,.08,.02,.1c-.06,.1-.13,.21-.19,.34s-.13,.25-.18,.37-.09,.23-.14,.34c-.04,.11-.07,.19-.09,.25l-.04,.1c-.04,.05-.1,.04-.2-.03l-.46-.34h-.06c.13,.72,.04,1.29-.26,1.7-.17,.23-.37,.39-.61,.48s-.47,.1-.72,.04c-.24-.06-.46-.13-.66-.23s-.39-.21-.58-.35l-1.15-.84c-.24-.17-.43-.25-.59-.23-.12,0-.23,.05-.32,.12s-.16,.14-.21,.2-.07,.09-.08,.08c-.15-.11-.21-.18-.19-.22,.39-.74,.63-1.23,.72-1.48,0,0,.01-.02,.03-.05,.02-.03,.06-.02,.11,0s.09,.06,.11,.08c.26,.25,.48,.44,.63,.55l1.23,.9c.47,.34,.87,.52,1.19,.54s.61-.14,.85-.46c.14-.19,.2-.42,.18-.7-.02-.28-.08-.45-.18-.53l-1.71-1.25c-.24-.17-.43-.25-.59-.23-.12,0-.23,.05-.32,.12s-.16,.14-.21,.2-.07,.09-.08,.08c-.15-.11-.21-.18-.19-.22,.39-.74,.63-1.23,.72-1.48,0,0,.01-.02,.03-.05,.02-.03,.06-.02,.11,0s.09,.06,.11,.08c.26,.25,.47,.43,.61,.54Z"/>
    <path class="cls-15" d="M319.47,439.11l-3.95-2.89c-.21-.15-.42-.28-.63-.37-.12-.04-.29,.09-.5,.38l-.06,.09s-.08,.03-.14-.02c-.1-.07-.13-.13-.1-.16,.12-.2,.22-.4,.31-.58,.09-.18,.15-.33,.19-.45,.04-.11,.06-.21,.08-.3,.02-.08,.03-.15,.04-.19v-.06s.01-.02,.01-.02c.02-.03,.05-.04,.11-.04,.05,0,.1,0,.13,.02,.14,.21,.38,.44,.72,.69l4.16,3.05c.35,.26,.64,.43,.87,.52,.05,.02,.15-.03,.3-.16s.25-.22,.29-.28c.01-.02,.06,0,.14,.04s.13,.09,.15,.12c-.49,.61-.75,.93-.79,.98-.03,.04-.26,.39-.71,1.06-.04,0-.1-.02-.18-.07s-.1-.1-.09-.12c.06-.08,.12-.2,.19-.38s.09-.29,.05-.33c-.14-.17-.34-.35-.59-.53Z"/>
    <path class="cls-15" d="M319.31,433.21c.25-.35,.52-.54,.79-.57,.27-.03,.59,.08,.95,.34l2.11,1.54c.13,.09,.26,.14,.4,.13,.14,0,.25-.07,.34-.19,.06-.09,.1-.23,.11-.42,.02-.03,.05-.02,.1,.02,.08,.06,.13,.12,.16,.19,.02,.41-.03,.71-.17,.9-.11,.14-.27,.24-.48,.29-.21,.05-.4,.05-.57,0,0,0,0,.04,0,.11,0,.07,.01,.16,.02,.27,0,.11,0,.23-.02,.36-.01,.13-.05,.27-.1,.42-.05,.15-.13,.29-.22,.41-.21,.29-.46,.48-.75,.55-.29,.08-.58,.01-.88-.21-.13-.1-.23-.23-.3-.38-.07-.16-.11-.31-.11-.46,0-.15,.01-.34,.05-.56s.08-.41,.13-.55,.11-.34,.19-.57,.13-.4,.15-.5c.02-.07,0-.13-.07-.18l-.68-.5c-.19-.14-.39-.19-.59-.14s-.36,.16-.49,.34c-.14,.19-.19,.39-.16,.61s.15,.4,.35,.55c.21,.16,.23,.36,.04,.62-.13,.18-.28,.26-.44,.24-.26-.19-.38-.58-.34-1.17,.03-.59,.2-1.08,.5-1.49Zm2.74,3.37c.17-.04,.31-.15,.44-.32s.19-.37,.21-.6-.03-.38-.13-.46l-.94-.69c-.01,.07-.06,.22-.14,.46-.08,.24-.14,.43-.18,.58s-.04,.31,0,.49,.11,.32,.26,.43c.16,.12,.33,.16,.5,.12Z"/>
    <path class="cls-15" d="M322.64,428.65c.27-.37,.54-.55,.8-.54,.21,.16,.34,.3,.39,.44,.05,.14,.03,.26-.04,.36-.08,.11-.21,.18-.38,.2-.17,.02-.32,.11-.44,.27-.14,.2-.18,.43-.11,.7,.07,.27,.2,.48,.4,.62l1.37,1c.35,.26,.64,.43,.87,.52,.05,.02,.15-.03,.31-.16s.25-.22,.3-.28c.01-.02,.06,0,.14,.04s.13,.09,.15,.12c-.49,.61-.76,.94-.79,.99-.03,.04-.26,.39-.71,1.06-.04,0-.1-.02-.18-.07s-.1-.1-.09-.12c.06-.08,.12-.2,.19-.38s.09-.29,.05-.33c-.14-.17-.34-.35-.59-.53l-1.72-1.26c-.24-.17-.43-.25-.59-.23-.12,0-.23,.05-.32,.12s-.16,.14-.21,.2-.07,.09-.08,.08c-.15-.11-.21-.18-.19-.22,.39-.74,.63-1.23,.72-1.48,0,0,.01-.02,.03-.05,.02-.03,.06-.02,.11,0s.09,.06,.11,.08l.41,.39c-.08-.23-.12-.5-.12-.81s.08-.55,.22-.75Z"/>
    <path class="cls-15" d="M309.42,465.93l6.2,1.64c.37,.1,.65,.16,.86,.21,.12,.03,.27-.01,.44-.13s.29-.21,.34-.29c.02-.03,.09,0,.2,.09,.02,.02,.05,.05,.08,.09-.49,.61-.76,.94-.81,1.01,0,0-.26,.38-.76,1.13-.04,0-.1-.02-.17-.08-.07-.06-.1-.1-.08-.13,.06-.08,.11-.18,.16-.32s.06-.23,.03-.29c-.04-.05-.08-.09-.13-.13-.08-.06-.18-.11-.3-.17s-.22-.1-.3-.12l-.13-.04-1.31-.37s-.06,.01-.08,.03c-.2,.23-.38,.47-.55,.7-.24,.33-.52,.74-.83,1.23v.07s.7,1.14,.7,1.14c.23,.33,.4,.54,.51,.62,.09,.06,.16,.08,.24,.06,.08-.03,.19-.09,.31-.2s.2-.19,.24-.24c.01-.02,.06,0,.13,.05s.12,.09,.14,.13c-.49,.61-.75,.92-.76,.94-.09,.13-.17,.24-.23,.34-.06,.1-.13,.21-.21,.33-.08,.12-.16,.24-.23,.35-.04,0-.1-.01-.16-.06-.09-.06-.12-.11-.1-.13,.06-.08,.11-.18,.17-.33s.07-.26,.05-.34c-.07-.25-.24-.61-.53-1.07l-2.87-4.63s-.06-.09-.11-.16-.09-.12-.11-.16c-.02-.04-.05-.09-.09-.15s-.06-.11-.07-.15-.02-.08-.03-.13,0-.1,0-.14c.01-.04,.04-.09,.07-.13l.09-.06Zm2.49,3.51c.25-.32,.42-.54,.51-.66,.2-.28,.4-.57,.6-.88l-.02-.06-2.58-.71,1.44,2.3s.04,.02,.05,0Z"/>
    <path class="cls-15" d="M315.89,461.36c.32-.44,.7-.64,1.13-.59s.99,.32,1.67,.82l.83,.61c.35,.26,.64,.43,.87,.52,.05,.02,.15-.03,.3-.16s.25-.22,.29-.28c.01-.02,.06,0,.14,.04s.13,.09,.15,.12c-.49,.61-.75,.93-.79,.98,0,.01-.24,.35-.68,1.03-.04,0-.1-.02-.18-.07s-.1-.1-.09-.12c.06-.08,.11-.2,.17-.36s.07-.27,.04-.31c-.14-.17-.34-.35-.59-.53l-.91-.67c-.57-.41-1.01-.62-1.33-.62-.32,0-.6,.17-.85,.51-.15,.2-.22,.45-.21,.74,0,.29,.07,.48,.18,.56l1.61,1.18c.35,.26,.64,.43,.87,.52,.05,.02,.15-.03,.3-.16s.25-.22,.29-.28c.01-.02,.06,0,.14,.04s.13,.09,.15,.12c-.49,.61-.75,.93-.79,.98-.03,.04-.26,.39-.71,1.06-.04,0-.1-.02-.18-.07s-.1-.1-.09-.12c.06-.08,.12-.2,.19-.38s.09-.29,.05-.33c-.14-.17-.34-.35-.59-.53l-1.72-1.26c-.24-.17-.43-.25-.59-.23-.12,0-.23,.05-.32,.12s-.16,.14-.21,.2-.07,.09-.08,.08c-.15-.11-.21-.18-.19-.22,.39-.74,.63-1.23,.72-1.48,0,0,.01-.02,.03-.05,.02-.03,.06-.02,.11,0s.09,.06,.11,.08c.15,.15,.26,.25,.34,.31,.02,.02,.04,.02,.05,0,0,0,0-.02,0-.04-.04-.25-.03-.55,.02-.89s.16-.63,.33-.86Z"/>
    <path class="cls-15" d="M318.55,458.94l-.4,.55s-.1,0-.23-.09c-.04-.03-.06-.05-.06-.06,.06-.24,.04-.56-.05-.95-.03-.13-.07-.26-.12-.4-.05-.14-.1-.26-.14-.36-.04-.1-.06-.15-.07-.15,.14-.19,.22-.27,.25-.25l.9,.66c.12-.16,.3-.41,.55-.74s.38-.51,.39-.53c.04-.05,.08-.06,.14-.02,.11,.08,.2,.2,.28,.35l-.92,1.26,2.23,1.64c.24,.18,.49,.26,.73,.23,.24-.02,.44-.14,.59-.35,.14-.19,.22-.43,.26-.71,0-.03,.05-.04,.14-.03s.14,.02,.14,.03c.03,.17,.02,.38-.03,.65-.05,.26-.15,.5-.3,.71-.23,.32-.52,.5-.88,.57s-.72-.04-1.09-.31l-2.32-1.7Z"/>
    <path class="cls-15" d="M323.61,456.61c.35,.26,.64,.43,.87,.52,.05,.02,.15-.03,.3-.16s.25-.22,.29-.28c.01-.02,.06,0,.14,.04s.13,.09,.15,.12c-.49,.61-.75,.93-.79,.98s-.27,.4-.71,1.06c-.04,0-.1-.02-.18-.07s-.1-.1-.09-.12c.06-.08,.12-.2,.19-.38s.09-.29,.05-.33c-.14-.17-.34-.35-.59-.53l-1.72-1.26c-.24-.17-.43-.25-.59-.23-.12,0-.23,.05-.32,.12s-.16,.14-.21,.2-.07,.09-.08,.08c-.15-.11-.21-.18-.19-.22,.39-.74,.63-1.23,.72-1.48v-.03s.02-.02,.03-.03c.02-.03,.06-.02,.11,0s.09,.06,.11,.08c.22,.21,.43,.39,.62,.53l1.88,1.38Zm-4.42-2.05c-.15,.03-.3,0-.42-.1s-.2-.22-.22-.37,.02-.3,.11-.43,.22-.21,.38-.24,.3,0,.42,.1,.2,.22,.22,.37c.02,.16-.02,.3-.11,.43s-.22,.21-.38,.24Z"/>
    <path class="cls-15" d="M322.79,451.96c.1-.14,.25-.3,.43-.49,.19-.19,.32-.32,.39-.39,.33,.14,.66,.33,1.01,.57,.03,.02,.02,.07-.04,.16-.06,.09-.12,.12-.17,.1-.19-.09-.42-.12-.68-.08s-.46,.15-.6,.34c-.33,.45-.32,.81,.04,1.07,.09,.07,.18,.11,.27,.14s.19,.03,.31,0,.2-.05,.26-.07c.05-.02,.16-.07,.33-.14s.27-.13,.31-.14c.03-.02,.13-.06,.29-.13s.27-.12,.34-.15c.07-.03,.17-.06,.32-.11s.26-.07,.35-.07,.19,0,.31,.03,.22,.07,.31,.14c.36,.26,.55,.63,.58,1.09s-.1,.89-.39,1.28c-.1,.13-.19,.25-.29,.35-.1,.1-.22,.21-.36,.34s-.26,.22-.33,.3c-.12-.03-.3-.11-.54-.23-.23-.12-.41-.22-.53-.31,0-.08,.01-.13,.03-.15,.07-.09,.12-.13,.17-.11,.21,.1,.47,.11,.79,.04,.32-.07,.56-.22,.74-.46,.15-.2,.22-.41,.2-.61s-.12-.38-.32-.53c-.1-.08-.21-.13-.33-.15-.12-.02-.25-.02-.38,.02-.14,.04-.26,.08-.36,.13s-.24,.11-.42,.21c-.18,.09-.31,.16-.41,.19-.63,.29-1.14,.3-1.52,.02-.33-.24-.5-.57-.5-1,0-.43,.13-.82,.39-1.19Z"/>
    <path class="cls-15" d="M325.59,448.15c.21-.29,.45-.51,.72-.65s.53-.21,.78-.21,.49,.05,.7,.12,.4,.17,.57,.3c.12,.09,.18,.16,.18,.22,0,.06-.04,.14-.12,.25l-1.75,2.38c-.04,.05-.04,.09-.01,.11,.38,.28,.82,.42,1.32,.42s.91-.23,1.24-.69c.1-.13,.18-.27,.24-.4s.11-.26,.14-.37c.03-.11,.05-.21,.06-.29,0-.08,.02-.16,.02-.23v-.1s.08-.03,.16,.03c.05,.04,.09,.09,.12,.18,.08,.25,.1,.55,.05,.9s-.17,.66-.38,.95c-.38,.52-.9,.83-1.56,.93-.66,.1-1.26-.06-1.8-.46-.64-.47-1.01-1.02-1.12-1.64s.03-1.21,.42-1.75Zm.27,.34c-.24,.33-.29,.68-.14,1.05,.14,.37,.3,.62,.48,.75,.04,.03,.08,.03,.11,0l1.35-1.84s0-.07-.06-.11c-.19-.14-.48-.22-.86-.24-.38-.01-.67,.12-.88,.4Z"/>
    <path class="cls-15" d="M328.8,443.77c.44-.61,.99-.93,1.63-.99s1.18,.08,1.63,.41c.58,.43,.94,1.02,1.08,1.76,.13,.75,0,1.39-.39,1.93-.07,.09-.13,.18-.19,.24s-.12,.12-.17,.17c-.06,.05-.1,.08-.14,.1-.03,.02-.08,.05-.14,.09s-.1,.06-.11,.06c.01,.05,.04,.09,.09,.12l.78,.57c.35,.26,.64,.43,.87,.52,.05,.02,.15-.03,.3-.16s.25-.22,.29-.28c.01-.02,.06,0,.14,.05,.08,.05,.13,.09,.14,.12-.49,.61-.75,.93-.79,.98-.03,.04-.26,.39-.71,1.06-.04,0-.1-.02-.18-.07s-.1-.1-.09-.12c.06-.08,.12-.2,.19-.38s.09-.29,.05-.33c-.14-.17-.34-.35-.59-.53l-3.77-2.76c-.24-.17-.43-.25-.59-.23-.12,0-.23,.05-.32,.12-.09,.07-.16,.14-.21,.2s-.07,.09-.08,.08c-.15-.11-.21-.18-.19-.22,.39-.74,.63-1.23,.72-1.48,0,0,.01-.02,.03-.05,.01-.02,.04-.02,.07,0s.07,.06,.12,.1,.07,.07,.08,.07l.06,.04c0-.13,.04-.33,.12-.59,.07-.26,.16-.46,.27-.61Zm.23,.63c-.14,.2-.21,.39-.2,.59,0,.2,.11,.37,.29,.51l2.05,1.5c.16,.12,.37,.13,.62,.03s.45-.26,.6-.47c.27-.37,.33-.79,.17-1.24s-.44-.83-.84-1.13c-.51-.37-1.02-.53-1.52-.47-.5,.06-.89,.29-1.17,.67Z"/>
    <path class="cls-15" d="M331.59,441.14l-.4,.55s-.1,0-.23-.09c-.04-.03-.06-.05-.06-.06,.06-.24,.04-.56-.05-.95-.03-.13-.07-.26-.12-.4-.05-.14-.1-.26-.14-.36-.04-.1-.06-.15-.07-.15,.14-.19,.22-.27,.25-.25l.9,.66c.12-.16,.3-.41,.55-.74s.38-.51,.39-.53c.04-.05,.08-.06,.14-.02,.11,.08,.2,.2,.28,.35l-.92,1.26,2.23,1.64c.24,.18,.49,.26,.73,.23,.24-.02,.44-.14,.59-.35,.14-.19,.22-.43,.26-.71,0-.03,.05-.04,.14-.03s.14,.02,.14,.03c.03,.17,.02,.38-.03,.65-.05,.26-.15,.5-.3,.71-.23,.32-.52,.5-.88,.57s-.72-.04-1.09-.31l-2.32-1.7Z"/>
    <path class="cls-15" d="M336.65,438.81c.35,.26,.64,.43,.87,.52,.05,.02,.15-.03,.3-.16s.25-.22,.29-.28c.01-.02,.06,0,.14,.04s.13,.09,.15,.12c-.49,.61-.75,.93-.79,.98s-.27,.4-.71,1.06c-.04,0-.1-.02-.18-.07s-.1-.1-.09-.12c.06-.08,.12-.2,.19-.38s.09-.29,.05-.33c-.14-.17-.34-.35-.59-.53l-1.72-1.26c-.24-.17-.43-.25-.59-.23-.12,0-.23,.05-.32,.12s-.16,.14-.21,.2-.07,.09-.08,.08c-.15-.11-.21-.18-.19-.22,.39-.74,.63-1.23,.72-1.48v-.03s.02-.02,.03-.03c.02-.03,.06-.02,.11,0s.09,.06,.11,.08c.22,.21,.43,.39,.62,.53l1.88,1.38Zm-4.42-2.05c-.15,.03-.3,0-.42-.1s-.2-.22-.22-.37,.02-.3,.11-.43,.22-.21,.38-.24,.3,0,.42,.1,.2,.22,.22,.37c.02,.16-.02,.3-.11,.43s-.22,.21-.38,.24Z"/>
    <path class="cls-15" d="M336.11,433.79c.51-.69,1.01-1.06,1.52-1.1,.41,.3,.53,.56,.36,.8-.08,.11-.16,.17-.25,.2s-.22,.03-.41,.03c-.42,0-.73,.12-.93,.39s-.24,.58-.16,.96,.36,.75,.83,1.09,.98,.53,1.49,.52,.92-.24,1.24-.68c.1-.13,.18-.27,.24-.4s.11-.26,.14-.37c.03-.11,.05-.21,.06-.29,0-.08,.02-.16,.02-.23v-.1s.08-.03,.16,.03c.05,.04,.09,.09,.12,.18,.08,.25,.1,.55,.05,.9s-.17,.66-.38,.95c-.38,.52-.9,.83-1.56,.93-.66,.1-1.26-.06-1.8-.46s-.93-.92-1.11-1.54-.05-1.22,.38-1.81Z"/>
    <path class="cls-15" d="M324.26,469.24s.25-.37,.68-1.03c.03,0,.09,.04,.16,.1,.07,.06,.1,.1,.09,.12-.03,.04-.07,.1-.1,.17-.04,.07-.06,.16-.07,.26s.02,.18,.09,.23c.18,.13,.46,.23,.83,.28l5.17,.78s.07-.02,.08-.06c0-.04,0-.08-.02-.12l-1-1.94-2.7-.45c-.49-.08-.92-.11-1.28-.09-.1,0-.21,.05-.34,.14-.13,.09-.22,.17-.27,.25-.02,.03-.07,0-.16-.06-.06-.05-.09-.09-.1-.13,.56-.7,.87-1.09,.92-1.16,.02-.03,.24-.36,.67-1.02,.03,0,.09,.04,.16,.1,.07,.06,.1,.1,.09,.12-.03,.04-.07,.1-.1,.17-.04,.07-.06,.15-.07,.26s.02,.18,.09,.24c.16,.12,.44,.21,.83,.28l1.69,.28-.86-1.64c-.12-.23-.27-.4-.43-.52-.1-.08-.23-.06-.38,.04s-.26,.2-.33,.3c-.02,.03-.07,.01-.14-.05s-.12-.1-.12-.15c.4-.48,.65-.79,.75-.92,.02-.03,.24-.36,.67-1.02,.03,0,.09,.04,.16,.1,.07,.06,.1,.1,.09,.12-.05,.06-.1,.19-.17,.38s-.08,.34-.06,.46c.05,.21,.23,.62,.54,1.24l.91,1.78,2.8,.47c.1,.01,.11-.04,.04-.15l-2.51-4.44c-.17-.29-.32-.48-.46-.58-.1-.08-.23-.07-.37,.02-.15,.09-.26,.19-.33,.29-.02,.03-.07,.01-.14-.05s-.12-.1-.12-.15c.4-.48,.65-.79,.75-.93s.19-.27,.25-.37c.06-.1,.13-.2,.2-.31,.07-.11,.13-.2,.19-.3,.05,.01,.1,.04,.15,.08,.09,.06,.12,.11,.1,.13-.05,.06-.1,.18-.15,.35s-.07,.32-.04,.45c.07,.33,.25,.74,.52,1.22l2.91,5.21c.13,.24,.13,.43,.02,.58-.03,.04-.06,.05-.11,.05l-3.13-.52,1.29,2.51c.13,.24,.13,.43,.02,.58-.03,.04-.06,.05-.11,.05l-6.52-1c-.49-.08-.92-.11-1.28-.09-.1,0-.21,.05-.34,.14-.13,.09-.22,.17-.27,.25-.02,.03-.07,0-.15-.05-.07-.05-.11-.1-.12-.15,.56-.7,.87-1.09,.92-1.16Z"/>
    <path class="cls-15" d="M334.86,458.97c.31-.42,.68-.62,1.1-.59s.94,.27,1.55,.72l.98,.72c.35,.25,.63,.42,.86,.51,.05,.02,.15-.03,.3-.16s.25-.22,.29-.28c.01-.02,.06,0,.14,.04s.13,.09,.15,.12c-.49,.61-.75,.93-.79,.98-.01,.02-.24,.36-.68,1.03-.04,0-.1-.02-.18-.07s-.1-.1-.09-.12c.06-.08,.11-.2,.17-.36s.07-.27,.04-.31c-.14-.17-.34-.35-.59-.53l-.97-.71c-.56-.41-.99-.6-1.3-.58s-.59,.2-.83,.53c-.14,.19-.2,.43-.2,.72,0,.29,.06,.48,.17,.56l1.61,1.18c.35,.26,.64,.43,.87,.52,.05,.02,.15-.03,.3-.16s.25-.22,.29-.28c.01-.02,.06,0,.14,.04s.13,.09,.15,.12c-.49,.61-.75,.93-.79,.98-.03,.04-.26,.39-.71,1.06-.04,0-.1-.02-.18-.07s-.1-.1-.09-.12c.06-.08,.12-.2,.19-.38s.09-.29,.05-.33c-.14-.17-.34-.35-.58-.53l-3.96-2.9c-.21-.15-.42-.28-.63-.37-.12-.04-.29,.09-.5,.38l-.06,.09s-.08,.03-.14-.02c-.1-.07-.13-.13-.1-.16,.12-.2,.22-.4,.31-.58,.09-.18,.15-.33,.19-.45,.04-.11,.06-.21,.08-.3,.02-.08,.03-.14,.03-.18v-.07s.02-.02,.02-.02c.02-.03,.05-.04,.11-.04,.05,0,.1,0,.13,.02,.14,.21,.38,.44,.72,.69l2,1.46s.04,.02,.05,0c0,0,0-.02,0-.04-.04-.25-.04-.55,.01-.9s.17-.65,.34-.88Z"/>
    <path class="cls-15" d="M340.39,457.22c.35,.26,.64,.43,.87,.52,.05,.02,.15-.03,.3-.16s.25-.22,.29-.28c.01-.02,.06,0,.14,.04s.13,.09,.15,.12c-.49,.61-.75,.93-.79,.98s-.27,.4-.71,1.06c-.04,0-.1-.02-.18-.07s-.1-.1-.09-.12c.06-.08,.12-.2,.19-.38s.09-.29,.05-.33c-.14-.17-.34-.35-.59-.53l-1.72-1.26c-.24-.17-.43-.25-.59-.23-.12,0-.23,.05-.32,.12s-.16,.14-.21,.2-.07,.09-.08,.08c-.15-.11-.21-.18-.19-.22,.39-.74,.63-1.23,.72-1.48v-.03s.02-.02,.03-.03c.02-.03,.06-.02,.11,0s.09,.06,.11,.08c.22,.21,.43,.39,.62,.53l1.88,1.38Zm-4.42-2.05c-.15,.03-.3,0-.42-.1s-.2-.22-.22-.37,.02-.3,.11-.43,.22-.21,.38-.24,.3,0,.42,.1,.2,.22,.22,.37c.02,.16-.02,.3-.11,.43s-.22,.21-.38,.24Z"/>
    <path class="cls-15" d="M339.37,454.03l-.4,.55s-.1,0-.23-.09c-.04-.03-.06-.05-.06-.06,.06-.24,.04-.56-.05-.95-.03-.13-.07-.26-.12-.4-.05-.14-.1-.26-.14-.36-.04-.1-.06-.15-.07-.15,.14-.19,.22-.27,.25-.25l.9,.66c.12-.16,.3-.41,.55-.74s.38-.51,.39-.53c.04-.05,.08-.06,.14-.02,.11,.08,.2,.2,.28,.35l-.92,1.26,2.23,1.64c.24,.18,.49,.26,.73,.23,.24-.02,.44-.14,.59-.35,.14-.19,.22-.43,.26-.71,0-.03,.05-.04,.14-.03s.14,.02,.14,.03c.03,.17,.02,.38-.03,.65-.05,.26-.15,.5-.3,.71-.23,.32-.52,.5-.88,.57s-.72-.04-1.09-.31l-2.32-1.7Z"/>
    <path class="cls-15" d="M342.06,449.19c.21-.29,.45-.51,.72-.65s.53-.21,.78-.21,.49,.05,.7,.12,.4,.17,.57,.3c.12,.09,.18,.16,.18,.22,0,.06-.04,.14-.12,.25l-1.75,2.38c-.04,.05-.04,.09-.01,.11,.38,.28,.82,.42,1.32,.42s.91-.23,1.24-.69c.1-.13,.18-.27,.24-.4s.11-.26,.14-.37c.03-.11,.05-.21,.06-.29,0-.08,.02-.16,.02-.23v-.1s.08-.03,.16,.03c.05,.04,.09,.09,.12,.18,.08,.25,.1,.55,.05,.9s-.17,.66-.38,.95c-.38,.52-.9,.83-1.56,.93-.66,.1-1.26-.06-1.8-.46-.64-.47-1.01-1.02-1.12-1.64s.03-1.21,.42-1.75Zm.27,.34c-.24,.33-.29,.68-.14,1.05,.14,.37,.3,.62,.48,.75,.04,.03,.08,.03,.11,0l1.35-1.84s0-.07-.06-.11c-.19-.14-.48-.22-.86-.24-.38-.01-.67,.12-.88,.4Z"/>
  </g>
  <text class="cls-16" transform="translate(406.02 468.3) scale(1.04 1)"><tspan x="0" y="0">Pleasures =</tspan><tspan x="-15.17" y="13.2">Technical Control</tspan><tspan x="-7.07" y="39.6">Displeasures = </tspan><tspan x="9.18" y="52.8">Nature</tspan><tspan x=".4" y="79.2" xml:space="preserve">Anxiety   =</tspan><tspan x="-32.9" y="92.4">Spirit, Can’t Be Controlled</tspan></text>
</svg>