<?xml version="1.0" encoding="utf-8"?>
<!-- Generator: Adobe Illustrator 26.5.0, SVG Export Plug-In . SVG Version: 6.00 Build 0)  -->
<svg version="1.1" id="Layer_1" xmlns="http://www.w3.org/2000/svg" xmlns:xlink="http://www.w3.org/1999/xlink" x="0px" y="0px"
	 viewBox="0 0 608.4 299.2" style="enable-background:new 0 0 608.4 299.2;" xml:space="preserve">
<style type="text/css">
	.st0{clip-path:url(#SVGID_00000151529838721498775670000005485378330558921104_);}
	.st1{fill:none;stroke:#903433;stroke-miterlimit:10;}
	.st2{fill:#CB5049;}
	.st3{font-family:'CrimsonText-Regular';}
	.st4{font-size:25.23px;}
	.st5{clip-path:url(#SVGID_00000156558176295294147080000016861622465665344134_);}
	.st6{clip-path:url(#SVGID_00000147220926182867312120000011539444693323079846_);}
</style>
<g>
	<defs>
		<rect id="SVGID_1_" y="3.1" width="608.4" height="296.1"/>
	</defs>
	<clipPath id="SVGID_00000050659512139267445850000009222769721537004940_">
		<use xlink:href="#SVGID_1_"  style="overflow:visible;"/>
	</clipPath>
	<g style="clip-path:url(#SVGID_00000050659512139267445850000009222769721537004940_);">
		<path class="st1" d="M509.7,261.2c53.7,0,97.3-43.6,97.3-97.3s-43.6-97.3-97.3-97.3s-97.3,43.6-97.3,97.3S456,261.2,509.7,261.2
			L509.7,261.2z M98.6,261.2c53.8,0,97.3-43.6,97.3-97.3s-43.6-97.3-97.3-97.3S1.3,110.2,1.3,163.9S44.9,261.2,98.6,261.2
			L98.6,261.2z"/>
	</g>
</g>
<text transform="matrix(1 0 0 1 71.45 157.62)" class="st2 st3 st4">Myth</text>
<text transform="matrix(1 0 0 1 27.96 187.89)" class="st2 st3 st4">of develpment</text>
<text transform="matrix(1 0 0 1 455.8553 157.8171)" class="st2 st3 st4">Abundance</text>
<text transform="matrix(1 0 0 1 471.33 187.89)" class="st2 st3 st4">paradox</text>
<g>
	<defs>
		<rect id="SVGID_00000003811815938637245870000001208322356335714238_" y="3.1" width="608.4" height="296.1"/>
	</defs>
	<clipPath id="SVGID_00000061431396774658686490000010662493973472908965_">
		<use xlink:href="#SVGID_00000003811815938637245870000001208322356335714238_"  style="overflow:visible;"/>
	</clipPath>
	<g style="clip-path:url(#SVGID_00000061431396774658686490000010662493973472908965_);">
		<path class="st1" d="M177.2,272.2l-2.8-9.3l9.5-2.1 M434.8,261.8c0,0-125.9,80.5-260.4,1 M430.3,63.2l2.8,9.3l-9.5,2.1
			 M172.7,73.6c0,0,125.9-80.5,260.4-1.1"/>
	</g>
</g>
<text transform="matrix(0.9419 -0.3358 0.3358 0.9419 207.4799 39.1501)" class="st2 st3 st4">P</text>
<text transform="matrix(0.9545 -0.2982 0.2982 0.9545 219.94 34.42)" class="st2 st3 st4">r</text>
<g>
	<defs>
		<rect id="SVGID_00000150812853755027966020000015280100341170606494_" y="3.1" width="608.4" height="296.1"/>
	</defs>
	<clipPath id="SVGID_00000117647768737828675230000014658558336425607351_">
		<use xlink:href="#SVGID_00000150812853755027966020000015280100341170606494_"  style="overflow:visible;"/>
	</clipPath>
	<g style="clip-path:url(#SVGID_00000117647768737828675230000014658558336425607351_);">
		<text transform="matrix(0.9645 -0.264 0.264 0.9645 228.74 31.83)" class="st2 st3 st4">o</text>
		<text transform="matrix(0.9773 -0.2117 0.2117 0.9773 241.03 28.22)" class="st2 st3 st4">m</text>
		<text transform="matrix(0.9867 -0.1623 0.1623 0.9867 260.2501 24.21)" class="st2 st3 st4">i</text>
		<text transform="matrix(0.9907 -0.1359 0.1359 0.9907 266.97 23.25)" class="st2 st3 st4">s</text>
		<text transform="matrix(0.9951 -9.897240e-02 9.897240e-02 0.9951 275.52 22.21)" class="st2 st3 st4">e</text>
		<text transform="matrix(0.9992 -3.995740e-02 3.995740e-02 0.9992 291.66 20.65)" class="st2 st3 st4">o</text>
		<text transform="matrix(1 1.745328e-03 -1.745328e-03 1 304.33 20.27)" class="st2 st3 st4">f</text>
		<text transform="matrix(0.9977 6.784116e-02 -6.784116e-02 0.9977 317.47 20.3)" class="st2 st3 st4">g</text>
		<text transform="matrix(0.9935 0.1139 -0.1139 0.9935 328.94 20.8801)" class="st2 st3 st4">o</text>
		<text transform="matrix(0.9869 0.1613 -0.1613 0.9869 341.47 22.38)" class="st2 st3 st4">o</text>
		<text transform="matrix(0.9777 0.2098 -0.2098 0.9777 353.7401 24.66)" class="st2 st3 st4">d</text>
	</g>
</g>
<text transform="matrix(0.9624 0.2716 -0.2716 0.9624 371.1601 28.6999)" class="st2 st3 st4">l</text>
<text transform="matrix(0.9551 0.2964 -0.2964 0.9551 377.1401 30.1999)" class="st2 st3 st4">i</text>
<text transform="matrix(0.947 0.3213 -0.3213 0.947 383.5999 32.37)" class="st2 st3 st4">f</text>
<text transform="matrix(0.9335 0.3585 -0.3585 0.9335 390.65 34.7001)" class="st2 st3 st4">e</text>
<text transform="matrix(0.9563 0.2924 -0.2924 0.9563 211.5499 265.6699)" class="st2 st3 st4">P</text>
<text transform="matrix(0.9644 0.2644 -0.2644 0.9644 224.3801 269.7201)" class="st2 st3 st4">r</text>
<text transform="matrix(0.9708 0.2399 -0.2399 0.9708 233.27 272.0201)" class="st2 st3 st4">e</text>
<text transform="matrix(0.977 0.2132 -0.2132 0.977 243.6901 274.56)" class="st2 st3 st4">c</text>
<text transform="matrix(0.9815 0.1917 -0.1917 0.9815 253.4799 276.76)" class="st2 st3 st4">i</text>
<text transform="matrix(0.987 0.1607 -0.1607 0.987 260.1 278.19)" class="st2 st3 st4">o</text>
<text transform="matrix(0.9919 0.1271 -0.1271 0.9919 272.4 280.31)" class="st2 st3 st4">u</text>
<text transform="matrix(0.9959 9.045877e-02 -9.045877e-02 0.9959 284.77 281.77)" class="st2 st3 st4">s</text>
<text transform="matrix(0.9992 3.995740e-02 -3.995740e-02 0.9992 299.3 282.71)" class="st2 st3 st4">r</text>
<text transform="matrix(1 -4.537840e-03 4.537840e-03 1 308.83 283.15)" class="st2 st3 st4">e</text>
<text transform="matrix(0.9992 -4.030618e-02 4.030618e-02 0.9992 319.28 282.94)" class="st2 st3 st4">s</text>
<text transform="matrix(0.9958 -9.150162e-02 9.150162e-02 0.9958 328.32 282.91)" class="st2 st3 st4">o</text>
<text transform="matrix(0.987 -0.1609 0.1609 0.987 340.69 281.74)" class="st2 st3 st4">u</text>
<text transform="matrix(0.9787 -0.2054 0.2054 0.9787 353.47 279.55)" class="st2 st3 st4">r</text>
<text transform="matrix(0.9635 -0.2677 0.2677 0.9635 362.4601 277.61)" class="st2 st3 st4">c</text>
<text transform="matrix(0.9486 -0.3165 0.3165 0.9486 372.12 275.14)" class="st2 st3 st4">e</text>
<text transform="matrix(0.9235 -0.3837 0.3837 0.9235 382.0101 271.6599)" class="st2 st3 st4">s</text>
</svg>
