<?xml version="1.0" encoding="utf-8"?>
<!-- Generator: Adobe Illustrator 26.0.2, SVG Export Plug-In . SVG Version: 6.00 Build 0)  -->
<svg version="1.1" id="Layer_1" xmlns="http://www.w3.org/2000/svg" xmlns:xlink="http://www.w3.org/1999/xlink" x="0px" y="0px"
	 viewBox="0 0 659.7 659.7" style="enable-background:new 0 0 659.7 659.7;" xml:space="preserve">
<style type="text/css">
	.st0{fill:#B18849;}
	.st1{fill:#FFFFFF;}
	.st2{fill:none;}
	.st3{font-family:'ArialMT';}
	.st4{font-size:12.73px;}
	.st5{fill:none;stroke:#FFFFFF;stroke-width:0.9;stroke-miterlimit:10;}
	.st6{fill:#464764;}
	.st7{font-size:11.46px;}
	.st8{font-size:10.77px;}
	.st9{font-size:10.14px;}
	.st10{font-size:11.41px;}
	.st11{fill:none;stroke:#FFFFFF;stroke-miterlimit:10;stroke-dasharray:0,0,2,2;}
	.st12{opacity:0.47;fill:#8C95B1;enable-background:new    ;}
</style>
<g id="Layer_2_00000154411433619709083240000000493442070233426843_">
	<rect x="-13.6" y="-13.6" class="st0" width="686.9" height="686.9"/>
</g>
<g id="Layer_1_00000106848076682356868730000009046770731670050982_">
	<path class="st1" d="M327.8,169.9c-88.3,0-159.9,71.6-159.9,159.9s71.6,159.9,159.9,159.9s159.9-71.6,159.9-159.9
		S416.1,169.9,327.8,169.9L327.8,169.9z M327.8,467.5c-76,0-137.7-61.6-137.7-137.7s61.6-137.7,137.7-137.7s137.7,61.6,137.7,137.7
		S403.8,467.5,327.8,467.5z"/>
	<rect x="21" y="23" class="st2" width="613.7" height="613.7"/>
	<g>
		<text transform="matrix(-0.9429 -0.333 0.333 -0.9429 238.304 597.8645)" class="st1 st3 st4">a</text>
		<text transform="matrix(-0.9335 -0.3587 0.3587 -0.9335 232.7733 595.9244)" class="st1 st3 st4">w</text>
		<text transform="matrix(-0.9233 -0.384 0.384 -0.9233 223.7135 592.4135)" class="st1 st3 st4">a</text>
		<text transform="matrix(-0.9157 -0.4019 0.4019 -0.9157 218.3033 590.1531)" class="st1 st3 st4">r</text>
		<text transform="matrix(-0.9076 -0.4199 0.4199 -0.9076 213.4438 588.013)" class="st1 st3 st4">e</text>
		<text transform="matrix(-0.8944 -0.4473 0.4473 -0.8944 204.944 584.004)" class="st1 st3 st4">t</text>
		<text transform="matrix(-0.8851 -0.4655 0.4655 -0.8851 200.9037 581.9945)" class="st1 st3 st4">h</text>
		<text transform="matrix(-0.8742 -0.4856 0.4856 -0.8742 194.5531 578.6337)" class="st1 st3 st4">a</text>
		<text transform="matrix(-0.8652 -0.5014 0.5014 -0.8652 189.4537 575.784)" class="st1 st3 st4">t</text>
		<text transform="matrix(-0.8463 -0.5327 0.5327 -0.8463 182.5736 571.774)" class="st1 st3 st4">N</text>
		<text transform="matrix(-0.8316 -0.5554 0.5554 -0.8316 174.5136 566.6544)" class="st1 st3 st4">a</text>
		<text transform="matrix(-0.8213 -0.5704 0.5704 -0.8213 169.6333 563.3839)" class="st1 st3 st4">t</text>
		<text transform="matrix(-0.8097 -0.5868 0.5868 -0.8097 165.9335 560.8235)" class="st1 st3 st4">u</text>
		<text transform="matrix(-0.7968 -0.6042 0.6042 -0.7968 160.264 556.6943)" class="st1 st3 st4">r</text>
		<text transform="matrix(-0.7847 -0.6199 0.6199 -0.7847 156.0237 553.4739)" class="st1 st3 st4">e</text>
		<text transform="matrix(-0.766 -0.6428 0.6428 -0.766 148.6831 547.5828)" class="st1 st3 st4">i</text>
		<text transform="matrix(-0.7557 -0.6549 0.6549 -0.7557 145.6536 545.0334)" class="st1 st3 st4">s</text>
		<text transform="matrix(-0.7365 -0.6765 0.6765 -0.7365 139.2531 539.403)" class="st1 st3 st4">t</text>
		<text transform="matrix(-0.7227 -0.6911 0.6911 -0.7227 135.9436 536.3738)" class="st1 st3 st4">o</text>
		<text transform="matrix(-0.6967 -0.7174 0.7174 -0.6967 128.4838 529.1341)" class="st1 st3 st4">u</text>
		<text transform="matrix(-0.6812 -0.7321 0.7321 -0.6812 123.5936 524.084)" class="st1 st3 st4">s</text>
		<text transform="matrix(-0.6596 -0.7516 0.7516 -0.6596 117.8335 517.8038)" class="st1 st3 st4">t</text>
		<text transform="matrix(-0.6439 -0.7651 0.7651 -0.6439 114.8538 514.4144)" class="st1 st3 st4">h</text>
		<text transform="matrix(-0.6259 -0.7799 0.7799 -0.6259 110.2536 508.9229)" class="st1 st3 st4">e</text>
		<text transform="matrix(-0.5978 -0.8017 0.8017 -0.5978 104.4235 501.5743)" class="st1 st3 st4">n</text>
		<text transform="matrix(-0.5787 -0.8155 0.8155 -0.5787 100.0434 495.6632)" class="st1 st3 st4">a</text>
		<text transform="matrix(-0.5547 -0.8321 0.8321 -0.5547 96.6337 490.903)" class="st1 st3 st4">m</text>
		<text transform="matrix(-0.5304 -0.8478 0.8478 -0.5304 90.8333 482.1332)" class="st1 st3 st4">e</text>
		<text transform="matrix(-0.5135 -0.8581 0.8581 -0.5135 87.6835 477.0838)" class="st1 st3 st4">s</text>
		<text transform="matrix(-0.4804 -0.8771 0.8771 -0.4804 83.3536 469.774)" class="st1 st3 st4">w</text>
		<text transform="matrix(-0.4559 -0.8901 0.8901 -0.4559 78.7137 461.2334)" class="st1 st3 st4">e</text>
		<text transform="matrix(-0.4251 -0.9051 0.9051 -0.4251 74.4836 452.8326)" class="st1 st3 st4">g</text>
		<text transform="matrix(-0.4085 -0.9128 0.9128 -0.4085 71.7335 446.9434)" class="st1 st3 st4">i</text>
		<text transform="matrix(-0.3912 -0.9203 0.9203 -0.3912 70.1235 443.3632)" class="st1 st3 st4">v</text>
		<text transform="matrix(-0.3707 -0.9287 0.9287 -0.3707 67.5035 437.1727)" class="st1 st3 st4">e</text>
		<text transform="matrix(-0.3425 -0.9395 0.9395 -0.3425 64.0835 428.4137)" class="st1 st3 st4">t</text>
		<text transform="matrix(-0.3236 -0.9462 0.9462 -0.3236 62.5336 424.1636)" class="st1 st3 st4">o</text>
		<text transform="matrix(-0.3034 -0.9529 0.9529 -0.3034 59.2935 414.3127)" class="st1 st3 st4">h</text>
		<text transform="matrix(-0.2672 -0.9636 0.9636 -0.2672 57.1836 407.4442)" class="st1 st3 st4">e</text>
		<text transform="matrix(-0.2484 -0.9687 0.9687 -0.2484 55.5936 401.7031)" class="st1 st3 st4">r</text>
		<text transform="matrix(5.111587e-02 -0.9987 0.9987 5.111587e-02 46.3035 317.6333)" class="st1 st3 st4">k</text>
		<text transform="matrix(7.602295e-02 -0.9971 0.9971 7.602295e-02 46.6536 310.8737)" class="st1 st3 st4">n</text>
		<text transform="matrix(0.1012 -0.9949 0.9949 0.1012 47.2136 303.5736)" class="st1 st3 st4">o</text>
		<text transform="matrix(0.1305 -0.9914 0.9914 0.1305 47.9035 296.6834)" class="st1 st3 st4">w</text>
		<text transform="matrix(0.1544 -0.988 0.988 0.1544 49.2136 287.0633)" class="st1 st3 st4">i</text>
		<text transform="matrix(0.174 -0.9847 0.9847 0.174 49.8136 283.1635)" class="st1 st3 st4">n</text>
		<text transform="matrix(0.1982 -0.9802 0.9802 0.1982 51.1035 275.9137)" class="st1 st3 st4">g</text>
		<text transform="matrix(0.2375 -0.9714 0.9714 0.2375 53.1236 266.2031)" class="st1 st3 st4">N</text>
		<text transform="matrix(0.2639 -0.9646 0.9646 0.2639 55.4235 256.9232)" class="st1 st3 st4">a</text>
		<text transform="matrix(0.2813 -0.9596 0.9596 0.2813 56.9736 251.2938)" class="st1 st3 st4">t</text>
		<text transform="matrix(0.3007 -0.9537 0.9537 0.3007 58.2336 246.9631)" class="st1 st3 st4">u</text>
		<text transform="matrix(0.3213 -0.947 0.947 0.3213 60.3635 240.2735)" class="st1 st3 st4">r</text>
		<text transform="matrix(0.3399 -0.9405 0.9405 0.3399 62.0735 235.2434)" class="st1 st3 st4">e</text>
		<text transform="matrix(0.3675 -0.93 0.93 0.3675 65.3434 226.4031)" class="st1 st3 st4">i</text>
		<text transform="matrix(0.3822 -0.9241 0.9241 0.3822 66.7935 222.7332)" class="st1 st3 st4">s</text>
		<text transform="matrix(0.4109 -0.9117 0.9117 0.4109 70.1134 214.8738)" class="st1 st3 st4">a</text>
		<text transform="matrix(0.4261 -0.9047 0.9047 0.4261 72.5335 209.5336)" class="st1 st3 st4">l</text>
		<text transform="matrix(0.4379 -0.899 0.899 0.4379 74.1236 206.1635)" class="st1 st3 st4">l</text>
		<text transform="matrix(0.4652 -0.8852 0.8852 0.4652 77.3035 199.7132)" class="st1 st3 st4">b</text>
		<text transform="matrix(0.4863 -0.8738 0.8738 0.4863 80.4636 193.7139)" class="st1 st3 st4">u</text>
		<text transform="matrix(0.5039 -0.8637 0.8637 0.5039 83.9035 187.5734)" class="st1 st3 st4">t</text>
		<text transform="matrix(0.532 -0.8468 0.8468 0.532 87.9436 180.7334)" class="st1 st3 st4">n</text>
		<text transform="matrix(0.553 -0.8332 0.8332 0.553 91.8635 174.5134)" class="st1 st3 st4">o</text>
		<text transform="matrix(0.5696 -0.8219 0.8219 0.5696 95.7237 168.7431)" class="st1 st3 st4">t</text>
		<text transform="matrix(0.5943 -0.8043 0.8043 0.5943 100.2835 162.2331)" class="st1 st3 st4">e</text>
		<text transform="matrix(0.6129 -0.7902 0.7902 0.6129 103.8136 157.4631)" class="st1 st3 st4">n</text>
		<text transform="matrix(0.6323 -0.7747 0.7747 0.6323 108.3334 151.644)" class="st1 st3 st4">d</text>
		<text transform="matrix(0.6464 -0.763 0.763 0.6464 112.6336 146.4135)" class="st1 st3 st4">l</text>
		<text transform="matrix(0.6593 -0.7518 0.7518 0.6593 115.0334 143.5738)" class="st1 st3 st4">e</text>
		<text transform="matrix(0.6738 -0.7389 0.7389 0.6738 118.9537 139.1235)" class="st1 st3 st4">s</text>
		<text transform="matrix(0.6868 -0.7268 0.7268 0.6868 122.3836 135.3633)" class="st1 st3 st4">s</text>
		<text transform="matrix(0.8449 -0.5349 0.5349 0.8449 174.0735 90.9433)" class="st1 st3 st4">r</text>
		<text transform="matrix(0.8559 -0.5171 0.5171 0.8559 178.8236 87.9336)" class="st1 st3 st4">e</text>
		<text transform="matrix(0.8663 -0.4995 0.4995 0.8663 184.1935 84.7035)" class="st1 st3 st4">s</text>
		<text transform="matrix(0.8751 -0.4839 0.4839 0.8751 188.8535 82.0337)" class="st1 st3 st4">t</text>
		<text transform="matrix(0.8839 -0.4676 0.4676 0.8839 193.0835 79.7036)" class="st1 st3 st4">r</text>
		<text transform="matrix(0.8944 -0.4473 0.4473 0.8944 198.0536 77.0735)" class="st1 st3 st4">u</text>
		<text transform="matrix(0.9047 -0.4261 0.4261 0.9047 204.6535 73.7934)" class="st1 st3 st4">c</text>
		<text transform="matrix(0.9126 -0.4088 0.4088 0.9126 210.0236 71.2836)" class="st1 st3 st4">t</text>
		<text transform="matrix(0.9212 -0.3891 0.3891 0.9212 214.4236 69.3035)" class="st1 st3 st4">u</text>
		<text transform="matrix(0.9299 -0.3678 0.3678 0.9299 221.1936 66.4637)" class="st1 st3 st4">r</text>
		<text transform="matrix(0.9362 -0.3514 0.3514 0.9362 226.4435 64.4136)" class="st1 st3 st4">i</text>
		<text transform="matrix(0.9435 -0.3315 0.3315 0.9435 230.4436 62.8936)" class="st1 st3 st4">n</text>
		<text transform="matrix(0.9516 -0.3072 0.3072 0.9516 237.6635 60.3836)" class="st1 st3 st4">g</text>
		<text transform="matrix(0.9573 -0.289 0.289 0.9573 244.1535 58.3036)" class="st1 st3 st4">,</text>
		<text transform="matrix(0.9657 -0.2598 0.2598 0.9657 251.5135 56.1436)" class="st1 st3 st4">r</text>
		<text transform="matrix(0.9709 -0.2394 0.2394 0.9709 256.9536 54.6836)" class="st1 st3 st4">e</text>
		<text transform="matrix(0.9763 -0.2166 0.2166 0.9763 263.0236 53.2035)" class="st1 st3 st4">v</text>
		<text transform="matrix(0.9804 -0.197 0.197 0.9804 269.9135 51.6936)" class="st1 st3 st4">i</text>
		<text transform="matrix(0.9836 -0.1802 0.1802 0.9836 274.0935 50.8536)" class="st1 st3 st4">s</text>
		<text transform="matrix(0.9866 -0.1633 0.1633 0.9866 279.4035 49.8935)" class="st1 st3 st4">i</text>
		<text transform="matrix(0.9897 -0.1433 0.1433 0.9897 283.6035 49.1935)" class="st1 st3 st4">o</text>
		<text transform="matrix(0.9931 -0.1174 0.1174 0.9931 290.7635 48.1635)" class="st1 st3 st4">n</text>
		<text transform="matrix(0.9953 -9.636693e-02 9.636693e-02 0.9953 298.3935 47.2935)" class="st1 st3 st4">i</text>
		<text transform="matrix(0.9971 -7.567488e-02 7.567488e-02 0.9971 302.6335 46.8736)" class="st1 st3 st4">n</text>
		<text transform="matrix(0.9987 -5.041863e-02 5.041863e-02 0.9987 310.2736 46.3135)" class="st1 st3 st4">g</text>
		<text transform="matrix(0.9999 -1.483476e-02 1.483476e-02 0.9999 320.8535 45.8736)" class="st1 st3 st4">a</text>
		<text transform="matrix(0.9999 1.623085e-02 -1.623085e-02 0.9999 327.0035 45.7536)" class="st1 st3 st4">n</text>
		<text transform="matrix(0.9994 3.437621e-02 -3.437621e-02 0.9994 334.6635 45.8636)" class="st1 st3 st4">d</text>
		<text transform="matrix(0.9976 6.958237e-02 -6.958237e-02 0.9976 345.5135 46.3336)" class="st1 st3 st4">r</text>
		<text transform="matrix(0.9959 9.045877e-02 -9.045877e-02 0.9959 351.1536 46.7335)" class="st1 st3 st4">e</text>
		<text transform="matrix(0.9941 0.1089 -0.1089 0.9941 357.3835 47.3136)" class="st1 st3 st4">i</text>
		<text transform="matrix(0.9916 0.1297 -0.1297 0.9916 361.6235 47.7735)" class="st1 st3 st4">n</text>
		<text transform="matrix(0.9885 0.1513 -0.1513 0.9885 369.2035 48.7836)" class="st1 st3 st4">t</text>
		<text transform="matrix(0.9853 0.1706 -0.1706 0.9853 373.9635 49.5136)" class="st1 st3 st4">e</text>
		<text transform="matrix(0.9815 0.1913 -0.1913 0.9815 380.1436 50.6035)" class="st1 st3 st4">r</text>
		<text transform="matrix(0.9769 0.2137 -0.2137 0.9769 385.6635 51.6735)" class="st1 st3 st4">p</text>
		<text transform="matrix(0.9718 0.236 -0.236 0.9718 392.7535 53.2535)" class="st1 st3 st4">r</text>
		<text transform="matrix(0.9666 0.2565 -0.2565 0.9666 398.2435 54.5835)" class="st1 st3 st4">e</text>
		<text transform="matrix(0.9614 0.2753 -0.2753 0.9614 404.2835 56.2035)" class="st1 st3 st4">t</text>
		<text transform="matrix(0.9568 0.2909 -0.2909 0.9568 408.9336 57.5535)" class="st1 st3 st4">i</text>
		<text transform="matrix(0.9504 0.311 -0.311 0.9504 413.0035 58.7736)" class="st1 st3 st4">n</text>
		<text transform="matrix(0.9421 0.3353 -0.3353 0.9421 420.2834 61.1735)" class="st1 st3 st4">g</text>
		<text transform="matrix(0.9268 0.3756 -0.3756 0.9268 430.2034 64.7836)" class="st1 st3 st4">w</text>
		<text transform="matrix(0.9147 0.4042 -0.4042 0.9147 439.4836 68.5737)" class="st1 st3 st4">h</text>
		<text transform="matrix(0.9046 0.4263 -0.4263 0.9046 446.3436 71.6335)" class="st1 st3 st4">a</text>
		<text transform="matrix(0.8962 0.4437 -0.4437 0.8962 451.9236 74.2735)" class="st1 st3 st4">t</text>
		<text transform="matrix(0.8779 0.4788 -0.4788 0.8779 459.6033 78.1234)" class="st1 st3 st4">w</text>
		<text transform="matrix(0.8638 0.5038 -0.5038 0.8638 468.3737 82.9535)" class="st1 st3 st4">e</text>
		<text transform="matrix(0.8445 0.5355 -0.5355 0.8445 477.0038 88.0736)" class="st1 st3 st4">u</text>
		<text transform="matrix(0.8301 0.5576 -0.5576 0.8301 483.1834 92.0036)" class="st1 st3 st4">n</text>
		<text transform="matrix(0.8153 0.579 -0.579 0.8153 489.5237 96.2836)" class="st1 st3 st4">d</text>
		<text transform="matrix(0.8016 0.5979 -0.5979 0.8016 495.3033 100.4036)" class="st1 st3 st4">e</text>
		<text transform="matrix(0.7889 0.6146 -0.6146 0.7889 500.3235 104.1735)" class="st1 st3 st4">r</text>
		<text transform="matrix(0.7769 0.6296 -0.6296 0.7769 504.7534 107.6337)" class="st1 st3 st4">s</text>
		<text transform="matrix(0.7655 0.6435 -0.6435 0.7655 508.9437 111.0335)" class="st1 st3 st4">t</text>
		<text transform="matrix(0.753 0.658 -0.658 0.753 512.6238 114.1336)" class="st1 st3 st4">a</text>
		<text transform="matrix(0.7369 0.676 -0.676 0.7369 517.2733 118.2035)" class="st1 st3 st4">n</text>
		<text transform="matrix(0.7192 0.6948 -0.6948 0.7192 522.9033 123.3936)" class="st1 st3 st4">d</text>
		<text transform="matrix(0.6934 0.7206 -0.7206 0.6934 530.6538 131.0136)" class="st1 st3 st4">a</text>
		<text transform="matrix(0.6787 0.7344 -0.7344 0.6787 534.9339 135.4635)" class="st1 st3 st4">s</text>
		<text transform="matrix(0.6521 0.7581 -0.7581 0.6521 541.0836 142.2236)" class="st1 st3 st4">h</text>
		<text transform="matrix(0.6322 0.7748 -0.7748 0.6322 545.9734 147.9236)" class="st1 st3 st4">u</text>
		<text transform="matrix(0.6072 0.7945 -0.7945 0.6072 550.6031 153.5736)" class="st1 st3 st4">m</text>
		<text transform="matrix(0.5833 0.8123 -0.8123 0.5833 557.1538 162.2336)" class="st1 st3 st4">a</text>
		<text transform="matrix(0.5632 0.8263 -0.8263 0.5632 560.7535 167.2435)" class="st1 st3 st4">n</text>
		<text transform="matrix(0.5442 0.839 -0.839 0.5442 565.044 173.5835)" class="st1 st3 st4">s</text>
		<text transform="matrix(0.5305 0.8477 -0.8477 0.5305 567.9531 178.1035)" class="st1 st3 st4">,</text>
		<text transform="matrix(0.4983 0.867 -0.867 0.4983 571.9933 184.6136)" class="st1 st3 st4">N</text>
		<text transform="matrix(0.4736 0.8807 -0.8807 0.4736 576.8834 193.1935)" class="st1 st3 st4">a</text>
		<text transform="matrix(0.4563 0.8898 -0.8898 0.4563 579.7933 198.6436)" class="st1 st3 st4">t</text>
		<text transform="matrix(0.4371 0.8994 -0.8994 0.4371 581.9932 202.9336)" class="st1 st3 st4">u</text>
		<text transform="matrix(0.4164 0.9092 -0.9092 0.4164 585.1739 209.5134)" class="st1 st3 st4">r</text>
		<text transform="matrix(0.3971 0.9178 -0.9178 0.3971 587.5237 214.6635)" class="st1 st3 st4">e</text>
		<text transform="matrix(0.3646 0.9312 -0.9312 0.3646 591.4339 223.8935)" class="st1 st3 st4">a</text>
		<text transform="matrix(0.3425 0.9395 -0.9395 0.3425 593.6832 229.6534)" class="st1 st3 st4">d</text>
		<text transform="matrix(0.3178 0.9482 -0.9482 0.3178 596.0931 236.3035)" class="st1 st3 st4">n</text>
		<text transform="matrix(0.2838 0.9589 -0.9589 0.2838 599.6334 247.1835)" class="st1 st3 st4">t</text>
		<text transform="matrix(0.2629 0.9648 -0.9648 0.2629 601.0038 251.7936)" class="st1 st3 st4">h</text>
		<text transform="matrix(0.2392 0.971 -0.971 0.2392 602.9531 259.0536)" class="st1 st3 st4">e</text>
		<text transform="matrix(0.2016 0.9795 -0.9795 0.2016 605.2832 268.7836)" class="st1 st3 st4">E</text>
		<text transform="matrix(0.1769 0.9842 -0.9842 0.1769 606.8739 276.6335)" class="st1 st3 st4">a</text>
		<text transform="matrix(0.1564 0.9877 -0.9877 0.1564 607.9536 282.7336)" class="st1 st3 st4">r</text>
		<text transform="matrix(0.1381 0.9904 -0.9904 0.1381 608.8235 288.2836)" class="st1 st3 st4">t</text>
		<text transform="matrix(0.1167 0.9932 -0.9932 0.1167 609.4933 293.0536)" class="st1 st3 st4">h</text>
		<text transform="matrix(-0.2083 0.9781 -0.9781 -0.2083 606.0937 386.9536)" class="st1 st3 st4">r</text>
		<text transform="matrix(-0.2287 0.9735 -0.9735 -0.2287 604.9227 392.4536)" class="st1 st3 st4">e</text>
		<text transform="matrix(-0.2489 0.9685 -0.9685 -0.2489 603.473 398.5536)" class="st1 st3 st4">s</text>
		<text transform="matrix(-0.2662 0.9639 -0.9639 -0.2662 602.1232 403.7636)" class="st1 st3 st4">t</text>
		<text transform="matrix(-0.285 0.9585 -0.9585 -0.285 600.834 408.4035)" class="st1 st3 st4">a</text>
		<text transform="matrix(-0.3075 0.9515 -0.9515 -0.3075 599.084 414.3134)" class="st1 st3 st4">b</text>
		<text transform="matrix(-0.3262 0.9453 -0.9453 -0.3262 596.8635 421.0836)" class="st1 st3 st4">l</text>
		<text transform="matrix(-0.3402 0.9403 -0.9403 -0.3402 595.5332 424.9034)" class="st1 st3 st4">i</text>
		<text transform="matrix(-0.3562 0.9344 -0.9344 -0.3562 594.0842 428.9136)" class="st1 st3 st4">s</text>
		<text transform="matrix(-0.3775 0.926 -0.926 -0.3775 592.1629 433.9434)" class="st1 st3 st4">h</text>
		<text transform="matrix(-0.3968 0.9179 -0.9179 -0.3968 589.3033 440.8938)" class="st1 st3 st4">i</text>
		<text transform="matrix(-0.416 0.9094 -0.9094 -0.416 587.6332 444.7835)" class="st1 st3 st4">n</text>
		<text transform="matrix(-0.4392 0.8984 -0.8984 -0.4392 584.4233 451.7535)" class="st1 st3 st4">g</text>
		<text transform="matrix(-0.4705 0.8824 -0.8824 -0.4705 579.6943 461.2237)" class="st1 st3 st4">r</text>
		<text transform="matrix(-0.4889 0.8723 -0.8723 -0.4889 577.0444 466.1736)" class="st1 st3 st4">e</text>
		<text transform="matrix(-0.5068 0.8621 -0.8621 -0.5068 573.9627 471.6535)" class="st1 st3 st4">s</text>
		<text transform="matrix(-0.5259 0.8505 -0.8505 -0.5259 571.2337 476.2834)" class="st1 st3 st4">p</text>
		<text transform="matrix(-0.5458 0.8379 -0.8379 -0.5458 567.4139 482.4335)" class="st1 st3 st4">e</text>
		<text transform="matrix(-0.5638 0.8259 -0.8259 -0.5638 563.983 487.6835)" class="st1 st3 st4">c</text>
		<text transform="matrix(-0.5793 0.8151 -0.8151 -0.5793 560.6143 492.6037)" class="st1 st3 st4">t</text>
		<text transform="matrix(-0.6033 0.7975 -0.7975 -0.6033 555.5744 499.5634)" class="st1 st3 st4">f</text>
		<text transform="matrix(-0.6199 0.7847 -0.7847 -0.6199 552.7543 503.2935)" class="st1 st3 st4">o</text>
		<text transform="matrix(-0.6374 0.7705 -0.7705 -0.6374 548.2642 508.9534)" class="st1 st3 st4">r</text>
		<text transform="matrix(-0.6682 0.744 -0.744 -0.6682 542.2231 516.1738)" class="st1 st3 st4">w</text>
		<text transform="matrix(-0.6908 0.7231 -0.7231 -0.6908 535.4932 523.614)" class="st1 st3 st4">h</text>
		<text transform="matrix(-0.7077 0.7065 -0.7065 -0.7077 530.3132 529.0035)" class="st1 st3 st4">a</text>
		<text transform="matrix(-0.7213 0.6926 -0.6926 -0.7213 525.9232 533.364)" class="st1 st3 st4">t</text>
		<text transform="matrix(-0.7412 0.6713 -0.6713 -0.7412 519.6631 539.2839)" class="st1 st3 st4">i</text>
		<text transform="matrix(-0.7524 0.6587 -0.6587 -0.7524 516.5042 542.1438)" class="st1 st3 st4">s</text>
		<text transform="matrix(-0.7752 0.6318 -0.6318 -0.7752 509.5743 548.1231)" class="st1 st3 st4">o</text>
		<text transform="matrix(-0.791 0.6118 -0.6118 -0.791 503.9527 552.6839)" class="st1 st3 st4">u</text>
		<text transform="matrix(-0.8039 0.5948 -0.5948 -0.8039 498.1328 557.1536)" class="st1 st3 st4">t</text>
		<text transform="matrix(-0.8144 0.5803 -0.5803 -0.8144 494.2534 560.0131)" class="st1 st3 st4">s</text>
		<text transform="matrix(-0.8241 0.5664 -0.5664 -0.8241 489.8629 563.1339)" class="st1 st3 st4">i</text>
		<text transform="matrix(-0.8353 0.5498 -0.5498 -0.8353 486.3427 565.5637)" class="st1 st3 st4">d</text>
		<text transform="matrix(-0.848 0.5301 -0.5301 -0.848 480.4037 569.4537)" class="st1 st3 st4">e</text>
		<text transform="matrix(-0.8649 0.502 -0.502 -0.8649 471.8441 574.6932)" class="st1 st3 st4">t</text>
		<text transform="matrix(-0.8755 0.4831 -0.4831 -0.8755 467.693 577.1038)" class="st1 st3 st4">h</text>
		<text transform="matrix(-0.887 0.4617 -0.4617 -0.887 461.1235 580.7136)" class="st1 st3 st4">e</text>
		<text transform="matrix(-0.9118 0.4106 -0.4106 -0.9118 448.804 586.924)" class="st1 st3 st4">m</text>
		<text transform="matrix(-0.9238 0.3828 -0.3828 -0.9238 438.8934 591.3339)" class="st1 st3 st4">a</text>
		<text transform="matrix(-0.9329 0.3602 -0.3602 -0.9329 433.2031 593.694)" class="st1 st3 st4">n</text>
		<text transform="matrix(-0.9417 0.3364 -0.3364 -0.9417 426.0428 596.4339)" class="st1 st3 st4">y</text>
		<text transform="matrix(-0.9528 0.3037 -0.3037 -0.9528 416.2839 599.8231)" class="st1 st3 st4">s</text>
		<text transform="matrix(-0.9594 0.2822 -0.2822 -0.9594 411.1539 601.4634)" class="st1 st3 st4">p</text>
		<text transform="matrix(-0.9664 0.2571 -0.2571 -0.9664 404.1931 603.4938)" class="st1 st3 st4">h</text>
		<text transform="matrix(-0.9724 0.2334 -0.2334 -0.9724 396.9528 605.4032)" class="st1 st3 st4">e</text>
		<text transform="matrix(-0.9771 0.2129 -0.2129 -0.9771 390.8635 606.8532)" class="st1 st3 st4">r</text>
		<text transform="matrix(-0.9814 0.1922 -0.1922 -0.9814 385.3337 608.0536)" class="st1 st3 st4">e</text>
		<text transform="matrix(-0.9851 0.1719 -0.1719 -0.9851 379.1832 609.2434)" class="st1 st3 st4">s</text>
		<text transform="matrix(-0.9906 0.1369 -0.1369 -0.9906 370.1635 610.7537)" class="st1 st3 st4">o</text>
		<text transform="matrix(-0.9933 0.116 -0.116 -0.9933 362.9643 611.7231)" class="st1 st3 st4">f</text>
		<text transform="matrix(-0.9963 8.628631e-02 -8.628631e-02 -0.9963 354.5831 612.6339)" class="st1 st3 st4">t</text>
		<text transform="matrix(-0.9979 6.488066e-02 -6.488066e-02 -0.9979 349.7838 613.0533)" class="st1 st3 st4">h</text>
		<text transform="matrix(-0.9992 4.100385e-02 -4.100385e-02 -0.9992 342.3044 613.5244)" class="st1 st3 st4">e</text>
		<text transform="matrix(-0.9999 1.623072e-02 -1.623072e-02 -0.9999 332.2439 613.8336)" class="st1 st3 st4">“</text>
		<text transform="matrix(-1 -7.853848e-03 7.853848e-03 -1 327.5037 613.8738)" class="st1 st3 st4">I</text>
		<text transform="matrix(-0.9997 -2.443207e-02 2.443207e-02 -0.9997 322.624 613.8335)" class="st1 st3 st4">”</text>
	</g>
	<g>
		<line class="st5" x1="306.9" y1="487.4" x2="290" y2="599.8"/>
		<line class="st5" x1="353.4" y1="485.5" x2="370.4" y2="599.1"/>
		<line class="st5" x1="396.9" y1="470.6" x2="446.9" y2="575"/>
		<line class="st5" x1="435.5" y1="445.7" x2="512.9" y2="529.8"/>
		<line class="st5" x1="465.6" y1="407.6" x2="563" y2="467.5"/>
		<line class="st5" x1="483.3" y1="367.5" x2="592.9" y2="393.3"/>
		<line class="st5" x1="487.5" y1="321" x2="600.3" y2="313.6"/>
		<line class="st5" x1="474.2" y1="275.2" x2="583.4" y2="235.1"/>
		<line class="st5" x1="455.7" y1="233.8" x2="544.6" y2="164.7"/>
		<line class="st5" x1="421.9" y1="200.9" x2="486.8" y2="108.5"/>
		<line class="st5" x1="379" y1="181.6" x2="414.9" y2="71.6"/>
		<line class="st5" x1="333" y1="171.4" x2="335" y2="57.3"/>
		<line class="st5" x1="285.6" y1="176" x2="254.5" y2="67.9"/>
		<line class="st5" x1="241.5" y1="195.2" x2="180" y2="100.8"/>
		<line class="st5" x1="205.3" y1="227" x2="118.7" y2="155.1"/>
		<line class="st5" x1="182.4" y1="269.2" x2="76.3" y2="224.6"/>
		<line class="st5" x1="168.6" y1="315" x2="57.6" y2="303.8"/>
		<line class="st5" x1="174" y1="362.5" x2="61.5" y2="385"/>
		<line class="st5" x1="188.3" y1="407.9" x2="89" y2="461.4"/>
		<line class="st5" x1="218.6" y1="444.5" x2="138.4" y2="525.8"/>
		<line class="st5" x1="256.9" y1="471.9" x2="204.2" y2="572.8"/>
	</g>
	<text transform="matrix(0.2473 -0.9689 0.9689 0.2473 186.4235 295.7234)" class="st6 st3 st7">s</text>
	<text transform="matrix(0.284 -0.9588 0.9588 0.284 187.5436 291.3136)" class="st6 st3 st7">h</text>
	<text transform="matrix(0.3226 -0.9465 0.9465 0.3226 189.3934 285.1539)" class="st6 st3 st7">a</text>
	<text transform="matrix(0.3598 -0.933 0.933 0.3598 191.0835 280.2033)" class="st6 st3 st7">p</text>
	<text transform="matrix(0.3912 -0.9203 0.9203 0.3912 193.3535 274.4031)" class="st6 st3 st7">i</text>
	<text transform="matrix(0.4231 -0.9061 0.9061 0.4231 194.7136 271.154)" class="st6 st3 st7">n</text>
	<text transform="matrix(0.4613 -0.8873 0.8873 0.4613 197.5036 265.2237)" class="st6 st3 st7">g</text>
	<text transform="matrix(0.5232 -0.8522 0.8522 0.5232 201.6736 257.3633)" class="st6 st3 st7">w</text>
	<text transform="matrix(0.5635 -0.8261 0.8261 0.5635 206.2834 249.9634)" class="st6 st3 st7">a</text>
	<text transform="matrix(0.5938 -0.8046 0.8046 0.5938 209.2335 245.6433)" class="st6 st3 st7">y</text>
	<text transform="matrix(0.6213 -0.7836 0.7836 0.6213 212.5634 241.1637)" class="st6 st3 st7">s</text>
	<text transform="matrix(0.6656 -0.7463 0.7463 0.6656 217.3735 235.2235)" class="st6 st3 st7">o</text>
	<text transform="matrix(0.691 -0.7228 0.7228 0.691 221.5335 230.6133)" class="st6 st3 st7">f</text>
	<text transform="matrix(0.7298 -0.6837 0.6837 0.7298 226.3936 225.6238)" class="st6 st3 st7">d</text>
	<text transform="matrix(0.7578 -0.6525 0.6525 0.7578 230.8235 221.4833)" class="st6 st3 st7">o</text>
	<text transform="matrix(0.7791 -0.6269 0.6269 0.7791 235.5635 217.4437)" class="st6 st3 st7">i</text>
	<text transform="matrix(0.8004 -0.5994 0.5994 0.8004 238.2935 215.2233)" class="st6 st3 st7">n</text>
	<text transform="matrix(0.8251 -0.565 0.565 0.8251 243.5835 211.2834)" class="st6 st3 st7">g</text>
	<text transform="matrix(0.8572 -0.515 0.515 0.8572 250.9935 206.3535)" class="st6 st3 st7">a</text>
	<text transform="matrix(0.8774 -0.4798 0.4798 0.8774 255.4736 203.6534)" class="st6 st3 st7">n</text>
	<text transform="matrix(0.8973 -0.4413 0.4413 0.8973 261.2336 200.5237)" class="st6 st3 st7">d</text>
	<text transform="matrix(0.927 -0.3751 0.3751 0.927 269.4935 196.5536)" class="st6 st3 st7">w</text>
	<text transform="matrix(0.944 -0.33 0.33 0.944 277.5635 193.3436)" class="st6 st3 st7">a</text>
	<text transform="matrix(0.9557 -0.2944 0.2944 0.9557 282.5136 191.6234)" class="st6 st3 st7">y</text>
	<text transform="matrix(0.9654 -0.2607 0.2607 0.9654 287.8636 189.9937)" class="st6 st3 st7">s</text>
	<text transform="matrix(0.9784 -0.2067 0.2067 0.9784 295.2635 188.0835)" class="st6 st3 st7">a</text>
	<text transform="matrix(0.986 -0.1668 0.1668 0.986 300.3836 187.0036)" class="st6 st3 st7">n</text>
	<text transform="matrix(0.9923 -0.1238 0.1238 0.9923 306.8636 185.9236)" class="st6 st3 st7">d</text>
	<text transform="matrix(0.9975 -7.062699e-02 7.062699e-02 0.9975 315.9936 184.9235)" class="st6 st3 st7">l</text>
	<text transform="matrix(0.9989 -4.728079e-02 4.728079e-02 0.9989 319.3036 184.6935)" class="st6 st3 st7">i</text>
	<text transform="matrix(0.9999 -1.623085e-02 1.623085e-02 0.9999 322.8336 184.5135)" class="st6 st3 st7">v</text>
	<text transform="matrix(0.9998 1.745241e-02 -1.745241e-02 0.9998 328.8735 184.4536)" class="st6 st3 st7">i</text>
	<text transform="matrix(0.9987 5.163877e-02 -5.163877e-02 0.9987 332.3835 184.4935)" class="st6 st3 st7">n</text>
	<text transform="matrix(0.9956 9.376080e-02 -9.376080e-02 0.9956 338.9635 184.8536)" class="st6 st3 st7">g</text>
	<text transform="matrix(0.989 0.148 -0.148 0.989 347.8236 185.8135)" class="st6 st3 st7">f</text>
	<text transform="matrix(0.9833 0.1822 -0.1822 0.9833 351.6436 186.3735)" class="st6 st3 st7">o</text>
	<text transform="matrix(0.9756 0.2193 -0.2193 0.9756 357.7536 187.5236)" class="st6 st3 st7">r</text>
	<text transform="matrix(0.9008 0.4343 -0.4343 0.9008 388.6836 197.7536)" class="st6 st3 st7">e</text>
	<text transform="matrix(0.8822 0.4709 -0.4709 0.8822 393.4635 200.0634)" class="st6 st3 st7">n</text>
	<text transform="matrix(0.8623 0.5063 -0.5063 0.8623 399.2537 203.1735)" class="st6 st3 st7">a</text>
	<text transform="matrix(0.842 0.5395 -0.5395 0.842 403.7835 205.8334)" class="st6 st3 st7">b</text>
	<text transform="matrix(0.824 0.5666 -0.5666 0.824 408.8936 209.1435)" class="st6 st3 st7">l</text>
	<text transform="matrix(0.8105 0.5858 -0.5858 0.8105 411.6436 211.0436)" class="st6 st3 st7">i</text>
	<text transform="matrix(0.7897 0.6135 -0.6135 0.7897 414.5038 213.0935)" class="st6 st3 st7">n</text>
	<text transform="matrix(0.763 0.6464 -0.6464 0.763 419.6933 217.1436)" class="st6 st3 st7">g</text>
	<text transform="matrix(0.7213 0.6926 -0.6926 0.7213 426.4132 222.9735)" class="st6 st3 st7">o</text>
	<text transform="matrix(0.6948 0.7192 -0.7192 0.6948 430.8933 227.3136)" class="st6 st3 st7">r</text>
	<text transform="matrix(0.6431 0.7658 -0.7658 0.6431 436.2938 232.9634)" class="st6 st3 st7">m</text>
	<text transform="matrix(0.6036 0.7973 -0.7973 0.6036 442.3134 240.2335)" class="st6 st3 st7">e</text>
	<text transform="matrix(0.572 0.8203 -0.8203 0.572 445.5335 244.4836)" class="st6 st3 st7">d</text>
	<text transform="matrix(0.5448 0.8386 -0.8386 0.5448 448.9837 249.4736)" class="st6 st3 st7">i</text>
	<text transform="matrix(0.5192 0.8546 -0.8546 0.5192 450.9036 252.4235)" class="st6 st3 st7">a</text>
	<text transform="matrix(0.4915 0.8709 -0.8709 0.4915 453.6233 256.9435)" class="st6 st3 st7">t</text>
	<text transform="matrix(0.4687 0.8834 -0.8834 0.4687 455.6035 260.4634)" class="st6 st3 st7">i</text>
	<text transform="matrix(0.4377 0.8991 -0.8991 0.4377 457.2533 263.5536)" class="st6 st3 st7">n</text>
	<text transform="matrix(0.3987 0.9171 -0.9171 0.3987 460.1239 269.4937)" class="st6 st3 st7">g</text>
	<text transform="matrix(0.344 0.939 -0.939 0.344 463.5635 277.6936)" class="st6 st3 st7">c</text>
	<text transform="matrix(0.3072 0.9516 -0.9516 0.3072 465.3035 282.4236)" class="st6 st3 st7">o</text>
	<text transform="matrix(0.2553 0.9669 -0.9669 0.2553 467.2334 288.3036)" class="st6 st3 st7">m</text>
	<text transform="matrix(0.2026 0.9793 -0.9793 0.2026 469.5831 297.4335)" class="st6 st3 st7">p</text>
	<text transform="matrix(0.17 0.9854 -0.9854 0.17 470.8141 303.5536)" class="st6 st3 st7">l</text>
	<text transform="matrix(0.1406 0.9901 -0.9901 0.1406 471.3934 306.8336)" class="st6 st3 st7">e</text>
	<text transform="matrix(0.103 0.9947 -0.9947 0.103 472.1231 312.0835)" class="st6 st3 st7">x</text>
	<text transform="matrix(4.117813e-02 0.9992 -0.9992 4.117813e-02 472.9345 320.8936)" class="st6 st3 st7">p</text>
	<text transform="matrix(1.623086e-02 0.9999 -0.9999 1.623086e-02 473.1443 327.0935)" class="st6 st3 st7">r</text>
	<text transform="matrix(-3.298073e-02 0.9995 -0.9995 -3.298073e-02 473.1941 331.8735)" class="st6 st3 st7">o</text>
	<text transform="matrix(-7.114930e-02 0.9975 -0.9975 -7.114930e-02 472.964 338.0635)" class="st6 st3 st7">c</text>
	<text transform="matrix(-0.1066 0.9943 -0.9943 -0.1066 472.6042 343.1036)" class="st6 st3 st7">e</text>
	<text transform="matrix(-0.1402 0.9901 -0.9901 -0.1402 472.0137 348.4035)" class="st6 st3 st7">s</text>
	<text transform="matrix(-0.1711 0.9853 -0.9853 -0.1711 471.3744 352.8936)" class="st6 st3 st7">s</text>
	<text transform="matrix(-0.2043 0.9789 -0.9789 -0.2043 470.6039 357.3334)" class="st6 st3 st7">e</text>
	<text transform="matrix(-0.2377 0.9713 -0.9713 -0.2377 469.4937 362.5534)" class="st6 st3 st7">s</text>
	<text transform="matrix(-0.2867 0.958 -0.958 -0.2867 467.5843 369.9535)" class="st6 st3 st7">f</text>
	<text transform="matrix(-0.3198 0.9475 -0.9475 -0.3198 466.4844 373.6534)" class="st6 st3 st7">o</text>
	<text transform="matrix(-0.3558 0.9346 -0.9346 -0.3558 464.4742 379.5535)" class="st6 st3 st7">r</text>
	<text transform="matrix(-0.5376 0.8432 -0.8432 -0.5376 451.6134 406.1034)" class="st6 st3 st7">r</text>
	<text transform="matrix(-0.5666 0.824 -0.824 -0.5666 449.0529 410.1034)" class="st6 st3 st7">e</text>
	<text transform="matrix(-0.5997 0.8002 -0.8002 -0.5997 446.0342 414.4937)" class="st6 st3 st7">n</text>
	<text transform="matrix(-0.6337 0.7736 -0.7736 -0.6337 442.0841 419.7334)" class="st6 st3 st7">d</text>
	<text transform="matrix(-0.6633 0.7484 -0.7484 -0.6633 438.2232 424.4236)" class="st6 st3 st7">e</text>
	<text transform="matrix(-0.6856 0.728 -0.728 -0.6856 434.6842 428.3938)" class="st6 st3 st7">i</text>
	<text transform="matrix(-0.7104 0.7038 -0.7038 -0.7104 432.2726 430.974)" class="st6 st3 st7">n</text>
	<text transform="matrix(-0.7395 0.6731 -0.6731 -0.7395 427.5929 435.5832)" class="st6 st3 st7">g</text>
	<text transform="matrix(-0.7743 0.6328 -0.6328 -0.7743 420.9136 441.4931)" class="st6 st3 st7">i</text>
	<text transform="matrix(-0.7957 0.6057 -0.6057 -0.7957 418.203 443.7332)" class="st6 st3 st7">n</text>
	<text transform="matrix(-0.8169 0.5767 -0.5767 -0.8169 412.9338 447.7038)" class="st6 st3 st7">f</text>
	<text transform="matrix(-0.8363 0.5483 -0.5483 -0.8363 409.7836 449.9436)" class="st6 st3 st7">o</text>
	<text transform="matrix(-0.8564 0.5162 -0.5162 -0.8564 404.5543 453.3434)" class="st6 st3 st7">r</text>
	<text transform="matrix(-0.8806 0.4738 -0.4738 -0.8806 400.524 455.8235)" class="st6 st3 st7">m</text>
	<text transform="matrix(-0.9034 0.4288 -0.4288 -0.9034 392.1945 460.2332)" class="st6 st3 st7">a</text>
	<text transform="matrix(-0.9167 0.3995 -0.3995 -0.9167 387.4429 462.4637)" class="st6 st3 st7">t</text>
	<text transform="matrix(-0.9269 0.3754 -0.3754 -0.9269 383.7339 464.0732)" class="st6 st3 st7">i</text>
	<text transform="matrix(-0.939 0.3438 -0.3438 -0.939 380.4642 465.4134)" class="st6 st3 st7">o</text>
	<text transform="matrix(-0.9533 0.302 -0.302 -0.9533 374.6427 467.5331)" class="st6 st3 st7">n</text>
	<text transform="matrix(-0.9703 0.2419 -0.2419 -0.9703 365.3935 470.3234)" class="st6 st3 st7">a</text>
	<text transform="matrix(-0.9783 0.2072 -0.2072 -0.9783 360.2844 471.5933)" class="st6 st3 st7">c</text>
	<text transform="matrix(-0.9849 0.173 -0.173 -0.9849 355.3439 472.6236)" class="st6 st3 st7">c</text>
	<text transform="matrix(-0.9905 0.1378 -0.1378 -0.9905 350.3943 473.4836)" class="st6 st3 st7">e</text>
	<text transform="matrix(-0.9946 0.1042 -0.1042 -0.9946 345.1143 474.2032)" class="st6 st3 st7">s</text>
	<text transform="matrix(-0.9971 7.671892e-02 -7.671892e-02 -0.9971 340.5938 474.6633)" class="st6 st3 st7">i</text>
	<text transform="matrix(-0.999 4.396819e-02 -4.396819e-02 -0.999 337.0827 474.944)" class="st6 st3 st7">b</text>
	<text transform="matrix(-0.9999 1.623072e-02 -1.623072e-02 -0.9999 330.9636 475.1832)" class="st6 st3 st7">l</text>
	<text transform="matrix(-0.9999 -1.727800e-02 1.727800e-02 -0.9999 327.6534 475.2339)" class="st6 st3 st7">e</text>
	<text transform="matrix(-0.9977 -6.836351e-02 6.836351e-02 -0.9977 319.2136 474.9738)" class="st6 st3 st7">i</text>
	<text transform="matrix(-0.9947 -0.1028 0.1028 -0.9947 315.6937 474.753)" class="st6 st3 st7">n</text>
	<text transform="matrix(-0.9463 -0.3234 0.3234 -0.9463 284.9837 468.8841)" class="st6 st3 st7">m</text>
	<text transform="matrix(-0.9286 -0.371 0.371 -0.9286 276.0631 465.7628)" class="st6 st3 st7">a</text>
	<text transform="matrix(-0.9162 -0.4008 0.4008 -0.9162 271.1934 463.7932)" class="st6 st3 st7">t</text>
	<text transform="matrix(-0.9027 -0.4302 0.4302 -0.9027 267.5132 462.1833)" class="st6 st3 st7">e</text>
	<text transform="matrix(-0.8873 -0.4613 0.4613 -0.8873 262.7132 459.8835)" class="st6 st3 st7">r</text>
	<text transform="matrix(-0.8737 -0.4865 0.4865 -0.8737 258.4936 457.6745)" class="st6 st3 st7">i</text>
	<text transform="matrix(-0.8586 -0.5126 0.5126 -0.8586 255.4039 455.964)" class="st6 st3 st7">a</text>
	<text transform="matrix(-0.8431 -0.5377 0.5377 -0.8431 250.9033 453.2435)" class="st6 st3 st7">l</text>
	<text transform="matrix(-0.8301 -0.5576 0.5576 -0.8301 248.0832 451.4336)" class="st6 st3 st7">i</text>
	<text transform="matrix(-0.8131 -0.5821 0.5821 -0.8131 245.1439 449.4734)" class="st6 st3 st7">z</text>
	<text transform="matrix(-0.7954 -0.6061 0.6061 -0.7954 240.9636 446.4536)" class="st6 st3 st7">i</text>
	<text transform="matrix(-0.774 -0.6332 0.6332 -0.774 238.1535 444.3445)" class="st6 st3 st7">n</text>
	<text transform="matrix(-0.7465 -0.6654 0.6654 -0.7465 233.0838 440.1627)" class="st6 st3 st7">g</text>
	<text transform="matrix(-0.7028 -0.7114 0.7114 -0.7028 226.5033 434.1531)" class="st6 st3 st7">n</text>
	<text transform="matrix(-0.6735 -0.7392 0.7392 -0.6735 221.9037 429.4731)" class="st6 st3 st7">a</text>
	<text transform="matrix(-0.6479 -0.7618 0.7618 -0.6479 218.3737 425.5829)" class="st6 st3 st7">r</text>
	<text transform="matrix(-0.6225 -0.7826 0.7826 -0.6225 215.2936 421.9328)" class="st6 st3 st7">r</text>
	<text transform="matrix(-0.5954 -0.8034 0.8034 -0.5954 212.3335 418.2136)" class="st6 st3 st7">a</text>
	<text transform="matrix(-0.5696 -0.8219 0.8219 -0.5696 209.2238 413.9828)" class="st6 st3 st7">t</text>
	<text transform="matrix(-0.5479 -0.8366 0.8366 -0.5479 206.9233 410.644)" class="st6 st3 st7">i</text>
	<text transform="matrix(-0.5203 -0.854 0.854 -0.5203 204.9834 407.7134)" class="st6 st3 st7">v</text>
	<text transform="matrix(-0.4865 -0.8737 0.8737 -0.4865 201.8634 402.5527)" class="st6 st3 st7">e</text>
	<text transform="matrix(-0.4565 -0.8897 0.8897 -0.4565 199.2936 397.9045)" class="st6 st3 st7">s</text>
	<text transform="matrix(-0.4067 -0.9135 0.9135 -0.4067 195.8835 391.0733)" class="st6 st3 st7">a</text>
	<text transform="matrix(-0.3691 -0.9294 0.9294 -0.3691 193.7536 386.3028)" class="st6 st3 st7">n</text>
	<text transform="matrix(-0.3282 -0.9446 0.9446 -0.3282 191.3434 380.1944)" class="st6 st3 st7">d</text>
	<text transform="matrix(-0.2676 -0.9635 0.9635 -0.2676 188.4435 371.4839)" class="st6 st3 st7">v</text>
	<text transform="matrix(-0.2355 -0.9719 0.9719 -0.2355 186.8536 365.6627)" class="st6 st3 st7">i</text>
	<text transform="matrix(-0.2083 -0.9781 0.9781 -0.2083 186.0236 362.2326)" class="st6 st3 st7">s</text>
	<text transform="matrix(-0.181 -0.9835 0.9835 -0.181 185.0935 357.8036)" class="st6 st3 st7">i</text>
	<text transform="matrix(-0.148 -0.989 0.989 -0.148 184.4435 354.3436)" class="st6 st3 st7">o</text>
	<text transform="matrix(-0.1044 -0.9945 0.9945 -0.1044 183.5335 348.2026)" class="st6 st3 st7">n</text>
	<text transform="matrix(-6.644800e-02 -0.9978 0.9978 -6.644800e-02 182.8735 341.6342)" class="st6 st3 st7">s</text>
	<text transform="matrix(-1.623086e-02 -0.9999 0.9999 -1.623086e-02 182.4735 334.0336)" class="st6 st3 st7">o</text>
	<text transform="matrix(2.495562e-02 -0.9997 0.9997 2.495562e-02 182.4235 327.8237)" class="st6 st3 st7">f</text>
	<circle class="st5" cx="327.8" cy="329.8" r="272.5"/>
	<circle class="st5" cx="329.9" cy="328.6" r="300.6"/>
	<g>
		<text transform="matrix(0.6691 0.7431 -0.7431 0.6691 155.3038 136.6636)" class="st1 st3 st7">Slow economies</text>
		<text transform="matrix(0.4226 0.9063 -0.9063 0.4226 222.2336 96.6235)" class="st1 st3 st7">Slower lifestyles</text>
		<text transform="matrix(0.1392 0.9903 -0.9903 0.1392 303.564 72.7336)" class="st1 st3 st7">Reduced</text>
		<text transform="matrix(0.1392 0.9903 -0.9903 0.1392 289.9439 74.6436)" class="st1 st3 st7">consumption</text>
		<text transform="matrix(0.5446 -0.8387 0.8387 0.5446 173.9635 538.5237)" class="st1 st3 st7">Democratic politics</text>
		<text transform="matrix(0.5446 -0.8387 0.8387 0.5446 185.4936 546.0237)" class="st1 st3 st7">of Nature</text>
		<text transform="matrix(0.766 -0.6428 0.6428 0.766 119.2337 479.4734)" class="st1 st3 st7">Means of</text>
		<text transform="matrix(0.766 -0.6428 0.6428 0.766 128.0735 490.0037)" class="st1 st3 st7">production are</text>
		<text transform="matrix(0.766 -0.6428 0.6428 0.766 136.9136 500.5438)" class="st1 st3 st7">collective</text>
		<text transform="matrix(0.8572 0.515 -0.515 0.8572 115.1534 186.1735)" class="st1 st3 st7">Locally sourced</text>
		<text transform="matrix(0.8572 0.515 -0.515 0.8572 108.0733 197.9635)" class="st1 st3 st7">materials</text>
		<text transform="matrix(0.8572 0.515 -0.515 0.8572 100.9937 209.7536)" class="st1 st3 st7">and thoughts</text>
		<text transform="matrix(0.2924 -0.9563 0.9563 0.2924 233.0836 572.6333)" class="st1 st3 st7">Human</text>
		<text transform="matrix(0.2924 -0.9563 0.9563 0.2924 246.2335 576.6636)" class="st1 st3 st7">activities that</text>
		<text transform="matrix(0.2924 -0.9563 0.9563 0.2924 259.3836 580.6733)" class="st1 st3 st7">respect Nature’s</text>
		<text transform="matrix(0.2924 -0.9563 0.9563 0.2924 272.5335 584.7036)" class="st1 st3 st7">rights</text>
		<text transform="matrix(6.123234e-17 -1 1 6.123234e-17 334.9435 593.7234)" class="st1 st3 st7">Humans and Nature</text>
		<text transform="matrix(6.123234e-17 -1 1 6.123234e-17 348.7036 593.7234)" class="st1 st3 st7">relationship</text>
		<text transform="matrix(6.123234e-17 -1 1 6.123234e-17 320.8235 593.493)" class="st1 st3 st7">Mutually enhanced</text>
		<text transform="matrix(0.9703 0.2419 -0.2419 0.9703 81.8536 261.9635)" class="st1 st3 st7">Self sufficient</text>
		<text transform="matrix(0.9703 0.2419 -0.2419 0.9703 78.5235 275.3036)" class="st1 st3 st7">communities</text>
		<text transform="matrix(1 0 0 1 70.6535 337.7336)" class="st1 st3 st7">End of predatory</text>
		<text transform="matrix(1 0 0 1 70.6535 351.4836)" class="st1 st3 st7">extraction</text>
		<text transform="matrix(0.9336 -0.3584 0.3584 0.9336 80.1035 410.3836)" class="st1 st3 st7">Consumption of</text>
		<text transform="matrix(0.9336 -0.3584 0.3584 0.9336 85.0334 423.2237)" class="st1 st3 st7">Nature controlled</text>
		<text transform="matrix(0.9336 -0.3584 0.3584 0.9336 89.9536 436.0635)" class="st1 st3 st7">by the people</text>
		<g>
			<text transform="matrix(0.9648 -0.263 0.263 0.9648 497.7336 289.1436)" class="st1 st3 st7">Deep respect of all </text>
			<text transform="matrix(0.9648 -0.263 0.263 0.9648 501.3503 302.4093)" class="st1 st3 st7">Nature’s</text>
			<text transform="matrix(0.9648 -0.263 0.263 0.9648 540.3636 292.1935)" class="st1 st3 st7">beings</text>
		</g>
		<text transform="matrix(0.9979 6.540313e-02 -6.540313e-02 0.9979 504.4735 340.3836)" class="st1 st3 st7">Valuing life creation</text>
		<text transform="matrix(0.9979 6.540313e-02 -6.540313e-02 0.9979 503.5735 354.1035)" class="st1 st3 st7">and maintenance</text>
		<text transform="matrix(0.8457 -0.5336 0.5336 0.8457 486.8135 244.1636)" class="st1 st3 st7">A culture of care</text>
		<text transform="matrix(0.5628 0.8266 -0.8266 0.5628 443.4532 471.8336)" class="st1 st3 st7">Autonomous</text>
		<text transform="matrix(0.5628 0.8266 -0.8266 0.5628 432.0831 479.5736)" class="st1 st3 st7">communities</text>
		<text transform="matrix(0.5628 0.8266 -0.8266 0.5628 420.714 487.3136)" class="st1 st3 st7">and enviroment</text>
		<text transform="matrix(0.3132 0.9497 -0.9497 0.3132 377.7037 500.6335)" class="st1 st3 st7">Righteous Nature</text>
		<text transform="matrix(0.6915 -0.7224 0.7224 0.6915 455.0734 192.1338)" class="st1 st3 st7">Natural Capital </text>
		<text transform="matrix(0.6915 -0.7224 0.7224 0.6915 465.006 201.6421)" class="st1 st3 st7">understanding</text>
		<text transform="matrix(0.8116 0.5842 -0.5842 0.8116 472.0435 439.3334)" class="st1 st3 st7">Respect of Nature</text>
		<text transform="matrix(0.8116 0.5842 -0.5842 0.8116 464.0137 450.4936)" class="st1 st3 st7">as a being</text>
		<text transform="matrix(0.481 -0.8767 0.8767 0.481 411.9435 163.0134)" class="st1 st3 st7">Holistic wealth</text>
		<text transform="matrix(0.481 -0.8767 0.8767 0.481 424.0036 169.6335)" class="st1 st3 st7">accounting</text>
		<text transform="matrix(0.9351 0.3543 -0.3543 0.9351 500.5034 391.8336)" class="st1 st3 st7">A happy and</text>
		<text transform="matrix(0.9351 0.3543 -0.3543 0.9351 495.6236 404.6935)" class="st1 st3 st7">balanced life</text>
		<text transform="matrix(0.1693 -0.9856 0.9856 0.1693 357.7735 141.7035)" class="st1 st3 st7">New value</text>
		<text transform="matrix(0.1693 -0.9856 0.9856 0.1693 371.3336 144.0336)" class="st1 st3 st7"> concept</text>
	</g>
	<circle class="st1" cx="282.9" cy="613.2" r="3.7"/>
	<circle class="st1" cx="615.6" cy="341" r="3.7"/>
	<circle class="st1" cx="44.8" cy="364.2" r="4.1"/>
	<circle class="st1" cx="180.6" cy="307.6" r="3.7"/>
	<circle class="st1" cx="376.6" cy="190" r="3.7"/>
	<circle class="st1" cx="296.2" cy="474.6" r="3.7"/>
	<circle class="st1" cx="459.4" cy="395.2" r="3.7"/>
	<circle class="st1" cx="142.4" cy="114.3" r="3.7"/>
</g>
<g id="Layer_3">
	<path class="st1" d="M326.8,359c15.9,0,28.8-12.9,28.8-28.8s-12.9-28.8-28.8-28.8S298,314.4,298,330.2S310.9,359,326.8,359z"/>
	<g>
		<path class="st6" d="M308,327.7c0-0.1,0-0.2,0.1-0.3s0.1-0.3,0.1-0.4c0-0.1,0.1-0.3,0.1-0.5c0-0.2,0-0.3,0-0.5V322
			c0-0.1,0-0.3,0-0.5s0-0.3-0.1-0.5c0-0.1-0.1-0.3-0.1-0.4s-0.1-0.2-0.1-0.3s0-0.1,0-0.1v0h3.4c1.1,0,2,0.4,2.7,1.1s1.1,1.6,1.1,2.8
			s-0.4,2.1-1.1,2.8c-0.7,0.7-1.6,1.1-2.7,1.1H308v0C308,327.9,308,327.8,308,327.7L308,327.7z M310.7,327.4c0.4,0,0.7-0.1,1-0.3
			s0.5-0.5,0.6-0.8s0.3-0.7,0.3-1.1c0.1-0.4,0.1-0.8,0.1-1.2s0-0.8-0.1-1.2s-0.2-0.7-0.3-1.1s-0.4-0.6-0.6-0.8s-0.6-0.3-1-0.3h-0.2
			v6.8H310.7z"/>
		<path class="st6" d="M317.2,323.1c0.5-0.5,1.2-0.7,2.1-0.7c0.5,0,0.9,0.1,1.3,0.2s0.6,0.4,0.8,0.7c0.2,0.3,0.3,0.6,0.4,0.9
			c0.1,0.3,0.1,0.6,0.1,1h-3.3c0.1,1.1,0.7,1.6,1.6,1.6c0.5,0,1-0.2,1.6-0.5l0,0c-0.1,0.4-0.4,0.8-0.9,1.2c-0.5,0.4-1,0.5-1.7,0.5
			c-0.3,0-0.7-0.1-1-0.2c-0.3-0.1-0.6-0.3-0.9-0.5s-0.5-0.5-0.7-0.9c-0.2-0.4-0.3-0.8-0.3-1.3C316.4,324.3,316.6,323.6,317.2,323.1
			L317.2,323.1z M318.6,324.4c0,0.1,0,0.2,0,0.4l1.4-0.4c0-1-0.2-1.5-0.7-1.5S318.6,323.3,318.6,324.4L318.6,324.4L318.6,324.4z"/>
		<path class="st6" d="M323.1,324.1c0-0.5,0.2-1,0.7-1.3s1-0.5,1.8-0.5c0.7,0,1.4,0.1,2,0.4v1.7h0c-0.2-0.2-0.4-0.4-0.5-0.6
			s-0.3-0.3-0.5-0.5s-0.4-0.3-0.6-0.4c-0.2-0.1-0.4-0.1-0.6-0.1c-0.2,0-0.3,0-0.4,0.1s-0.2,0.2-0.2,0.3c0,0.1,0,0.2,0.1,0.3
			c0.1,0.1,0.2,0.2,0.3,0.2c0.2,0.1,0.3,0.1,0.4,0.2s0.3,0.1,0.6,0.2c0.6,0.2,1.1,0.5,1.4,0.8s0.4,0.7,0.4,1.1
			c0,0.6-0.2,1.1-0.7,1.4s-1,0.5-1.7,0.5c-0.7,0-1.4-0.1-2.2-0.4v-1.8h0c0.1,0.1,0.2,0.2,0.4,0.4s0.4,0.4,0.5,0.5s0.2,0.2,0.4,0.4
			c0.2,0.1,0.4,0.2,0.5,0.3s0.3,0.1,0.5,0.1c0.2,0,0.3,0,0.5-0.1c0.1-0.1,0.2-0.2,0.2-0.4c0-0.2-0.2-0.4-0.5-0.6
			c-0.1-0.1-0.4-0.2-0.9-0.3C323.7,325.6,323.1,325,323.1,324.1L323.1,324.1z"/>
		<path class="st6" d="M329.2,327.7c0-0.1,0-0.2,0.1-0.3s0.1-0.3,0.1-0.4c0-0.1,0.1-0.3,0.1-0.5c0-0.2,0-0.3,0-0.5v-1.8
			c0-0.1,0-0.3,0-0.5s0-0.3-0.1-0.5s-0.1-0.3-0.1-0.4c0-0.1-0.1-0.2-0.1-0.3c0-0.1,0-0.1,0-0.1v0h2.4v3.6c0,0.1,0,0.3,0,0.5
			s0,0.3,0.1,0.5c0,0.1,0.1,0.3,0.1,0.4c0,0.1,0.1,0.2,0.1,0.3s0,0.1,0,0.1v0h-2.7v0C329.2,327.9,329.2,327.8,329.2,327.7
			L329.2,327.7z M329.6,319.9c0.2-0.2,0.5-0.3,0.9-0.3s0.6,0.1,0.9,0.4s0.4,0.5,0.4,0.9s-0.1,0.6-0.4,0.8c-0.2,0.2-0.5,0.4-0.9,0.4
			s-0.6-0.1-0.9-0.4s-0.4-0.5-0.4-0.9S329.3,320.1,329.6,319.9L329.6,319.9z"/>
		<path class="st6" d="M333,324.3c0-0.4,0.1-0.8,0.4-1.1c0.3-0.3,0.6-0.5,1-0.6c0.4-0.1,0.7-0.2,1.1-0.2c0.5,0,0.9,0.1,1.3,0.2
			c0.3-0.8,0.8-1.2,1.5-1.2c0.1,0,0.2,0,0.3,0l-0.3,1.5l0,0c-0.3-0.1-0.5-0.2-0.8-0.2c-0.1,0-0.3,0-0.4,0c0.6,0.4,0.9,0.9,0.9,1.5
			c0,0.6-0.3,1.1-0.8,1.4c-0.5,0.3-1.1,0.5-1.7,0.5c-0.3,0-0.6,0-0.9-0.1c-0.3,0.1-0.4,0.2-0.4,0.4c0,0.1,0,0.1,0.1,0.2
			c0.1,0,0.2,0,0.5,0h1.8c0.6,0,1.1,0.1,1.4,0.4c0.3,0.3,0.5,0.7,0.5,1.2c0,1.2-1,1.8-2.9,1.8c-0.2,0-0.4,0-0.5,0s-0.4,0-0.6-0.1
			c-0.2,0-0.5-0.1-0.7-0.2c-0.2-0.1-0.4-0.2-0.5-0.3c-0.1-0.1-0.2-0.3-0.2-0.5c0-0.3,0.1-0.5,0.3-0.7c-0.2-0.2-0.3-0.5-0.3-0.9
			c0-0.7,0.4-1.1,1.2-1.3C333.4,325.6,333,325.1,333,324.3L333,324.3z M334.1,328.5c0.1,0.7,0.7,1,1.6,1c0.4,0,0.8,0,1.1-0.1
			s0.5-0.2,0.5-0.4c0-0.1-0.1-0.2-0.2-0.3s-0.3-0.1-0.6-0.1h-1.8C334.5,328.6,334.2,328.6,334.1,328.5L334.1,328.5z M334.9,324.3
			c0,1,0.2,1.5,0.5,1.5s0.6-0.5,0.6-1.5s-0.2-1.5-0.6-1.5S334.9,323.3,334.9,324.3z"/>
		<path class="st6" d="M339.5,327.9c0,0,0,0,0-0.1s0-0.2,0.1-0.3c0-0.1,0.1-0.3,0.1-0.4c0-0.1,0.1-0.3,0.1-0.5c0-0.2,0-0.3,0-0.5
			v-1.8c0-0.1,0-0.3,0-0.5s0-0.3-0.1-0.5s-0.1-0.3-0.1-0.4s-0.1-0.2-0.1-0.3s0-0.1,0-0.1v0h2.4v0.9c0.2-0.3,0.4-0.5,0.7-0.7
			c0.3-0.2,0.6-0.3,1-0.3c0.5,0,0.9,0.2,1.3,0.5s0.5,0.8,0.5,1.3v1.9c0,0.1,0,0.3,0,0.5s0,0.3,0.1,0.5c0,0.1,0.1,0.3,0.1,0.4
			s0.1,0.2,0.1,0.3s0,0.1,0,0.1v0H343v0c0,0,0,0,0-0.1s0-0.2,0.1-0.3c0-0.1,0.1-0.3,0.1-0.4c0-0.1,0.1-0.3,0.1-0.5
			c0-0.2,0-0.3,0-0.5v-1.6c0-0.5-0.3-0.8-0.8-0.9h0c-0.2,0-0.4,0-0.7,0.2v2.3c0,0.1,0,0.3,0,0.5s0,0.3,0.1,0.5
			c0,0.1,0.1,0.3,0.1,0.4s0.1,0.2,0.1,0.3s0,0.1,0,0.1v0L339.5,327.9L339.5,327.9L339.5,327.9z"/>
		<path class="st6" d="M315.9,339.1c0-0.5,0.2-1,0.6-1.3c0.4-0.3,0.9-0.5,1.4-0.5c0.4,0,0.9,0.1,1.2,0.2V337c0-0.2,0-0.4,0-0.5
			c0-0.1,0-0.2,0-0.4c0-0.1,0-0.2-0.1-0.3s-0.1-0.1-0.1-0.1c-0.2,0-0.5,0.1-0.9,0.4c-0.4,0.2-0.8,0.5-1.1,0.8l-0.5,0.4h0v-1.7
			c1.1-0.2,2-0.4,2.7-0.4s1.3,0.2,1.6,0.5c0.3,0.4,0.5,0.8,0.5,1.4v1.9c0,0.4,0,0.6,0.1,0.7s0.1,0.1,0.2,0.1c0.1,0,0.2,0,0.3-0.1
			l0,0c0,0.3-0.1,0.6-0.4,0.8s-0.5,0.3-0.9,0.3c-0.7,0-1.1-0.3-1.3-0.9c-0.1,0.2-0.3,0.5-0.6,0.7s-0.6,0.3-1,0.3
			c-0.5,0-1-0.2-1.3-0.5C316,340,315.9,339.6,315.9,339.1L315.9,339.1z M318.2,339.5c0.1,0.2,0.3,0.3,0.6,0.3c0.1,0,0.3,0,0.4-0.1
			c0-0.1,0-0.2,0-0.4V338c-0.1,0-0.2,0-0.3,0c-0.6,0-0.9,0.3-0.9,0.9C318,339.1,318.1,339.4,318.2,339.5L318.2,339.5z"/>
		<path class="st6" d="M322.8,337c0-0.5,0.2-1,0.7-1.3s1-0.5,1.8-0.5c0.7,0,1.4,0.1,2,0.4v1.7h0c-0.2-0.2-0.4-0.4-0.5-0.6
			s-0.3-0.3-0.5-0.5s-0.4-0.3-0.6-0.4c-0.2-0.1-0.4-0.1-0.6-0.1c-0.2,0-0.3,0-0.4,0.1c-0.1,0.1-0.2,0.2-0.2,0.3c0,0.1,0,0.2,0.1,0.3
			c0.1,0.1,0.2,0.2,0.3,0.2c0.2,0.1,0.3,0.1,0.4,0.2s0.3,0.1,0.6,0.2c0.6,0.2,1.1,0.5,1.4,0.8s0.4,0.7,0.4,1.1
			c0,0.6-0.2,1.1-0.7,1.4s-1,0.5-1.7,0.5c-0.7,0-1.4-0.1-2.2-0.4v-1.8h0c0.1,0.1,0.2,0.2,0.4,0.4c0.2,0.2,0.4,0.4,0.5,0.5
			s0.2,0.2,0.4,0.4c0.2,0.1,0.4,0.2,0.5,0.3s0.3,0.1,0.5,0.1c0.2,0,0.3,0,0.5-0.1c0.1-0.1,0.2-0.2,0.2-0.4c0-0.2-0.2-0.4-0.5-0.6
			c-0.1-0.1-0.4-0.2-0.9-0.3C323.4,338.5,322.8,337.9,322.8,337L322.8,337z"/>
		<path class="st6" d="M331.7,339.1c0-0.5,0.2-1,0.6-1.3c0.4-0.3,0.9-0.5,1.4-0.5c0.4,0,0.9,0.1,1.2,0.2V337c0-0.2,0-0.4,0-0.5
			c0-0.1,0-0.2,0-0.4c0-0.1,0-0.2-0.1-0.3s-0.1-0.1-0.1-0.1c-0.2,0-0.5,0.1-0.9,0.4s-0.8,0.5-1.1,0.8l-0.5,0.4h0v-1.7
			c1.1-0.2,2-0.4,2.7-0.4s1.3,0.2,1.6,0.5c0.3,0.4,0.5,0.8,0.5,1.4v1.9c0,0.4,0,0.6,0.1,0.7s0.1,0.1,0.2,0.1c0.1,0,0.2,0,0.3-0.1
			l0,0c0,0.3-0.1,0.6-0.4,0.8s-0.5,0.3-0.9,0.3c-0.7,0-1.1-0.3-1.3-0.9c-0.1,0.2-0.3,0.5-0.6,0.7s-0.6,0.3-1,0.3
			c-0.5,0-1-0.2-1.3-0.5S331.7,339.6,331.7,339.1L331.7,339.1z M334.1,339.5c0.1,0.2,0.3,0.3,0.6,0.3c0.1,0,0.3,0,0.4-0.1
			c0-0.1,0-0.2,0-0.4V338c-0.1,0-0.2,0-0.3,0c-0.6,0-0.9,0.3-0.9,0.9C333.8,339.1,333.9,339.4,334.1,339.5L334.1,339.5z"/>
	</g>
	<g>
		<line class="st5" x1="310.8" y1="192.6" x2="326.2" y2="308.3"/>
		<line class="st5" x1="349.4" y1="310.6" x2="433.9" y2="237.3"/>
		<line class="st5" x1="461.9" y1="363" x2="355.5" y2="335.3"/>
		<line class="st5" x1="341.2" y1="354.4" x2="388.3" y2="453.2"/>
		<line class="st5" x1="279.4" y1="457.5" x2="318.8" y2="354.6"/>
		<line class="st5" x1="301.3" y1="333.7" x2="193.3" y2="355.4"/>
		<line class="st5" x1="220.5" y1="243.2" x2="308" y2="313.7"/>
	</g>
	<g>
		<g>
			<g>
				<text transform="matrix(-0.9666 0.2561 -0.2561 -0.9666 354.4327 420.6831)" class="st1 st3 st8">n</text>
				<text transform="matrix(-0.9793 0.2023 -0.2023 -0.9793 348.4837 422.2431)" class="st1 st3 st8">u</text>
				<text transform="matrix(-0.9878 0.1557 -0.1557 -0.9878 342.7143 423.4034)" class="st1 st3 st8">r</text>
				<text transform="matrix(-0.9929 0.1186 -0.1186 -0.9929 338.2828 424.084)" class="st1 st3 st8">t</text>
				<text transform="matrix(-0.9972 7.532693e-02 -7.532693e-02 -0.9972 334.5644 424.5437)" class="st1 st3 st8">u</text>
				<text transform="matrix(-0.9996 2.879385e-02 -2.879385e-02 -0.9996 328.6945 424.9643)" class="st1 st3 st8">r</text>
				<text transform="matrix(-0.9999 -1.413665e-02 1.413665e-02 -0.9999 324.2232 425.0839)" class="st1 st3 st8">e</text>
				<text transform="matrix(-0.9984 -5.738967e-02 5.738967e-02 -0.9984 319.2231 424.9931)" class="st1 st3 st8">r</text>
				<text transform="matrix(-0.9914 -0.1309 0.1309 -0.9914 311.8932 424.4728)" class="st1 st3 st8">o</text>
				<text transform="matrix(-0.9847 -0.174 0.174 -0.9847 306.134 423.6829)" class="st1 st3 st8">f</text>
				<text transform="matrix(-0.9582 0.2862 -0.2862 -0.9582 351.6139 406.4633)" class="st1 st3 st8">c</text>
				<text transform="matrix(-0.9734 0.2292 -0.2292 -0.9734 347.133 407.8138)" class="st1 st3 st8">o</text>
				<text transform="matrix(-0.9837 0.18 -0.18 -0.9837 341.4539 409.1039)" class="st1 st3 st8">l</text>
				<text transform="matrix(-0.9894 0.1454 -0.1454 -0.9894 338.3733 409.6532)" class="st1 st3 st8">l</text>
				<text transform="matrix(-0.9949 0.1011 -0.1011 -0.9949 335.324 410.1134)" class="st1 st3 st8">e</text>
				<text transform="matrix(-0.9988 4.797813e-02 -4.797813e-02 -0.9988 330.3831 410.6033)" class="st1 st3 st8">c</text>
				<text transform="matrix(-1 6.980145e-04 -6.980145e-04 -1 325.6534 410.8039)" class="st1 st3 st8">t</text>
				<text transform="matrix(-0.9993 -3.856233e-02 3.856233e-02 -0.9993 321.8936 410.7943)" class="st1 st3 st8">i</text>
				<text transform="matrix(-0.9961 -8.854664e-02 8.854664e-02 -0.9961 318.6131 410.6826)" class="st1 st3 st8">v</text>
				<text transform="matrix(-0.989 -0.148 0.148 -0.989 313.0138 410.1643)" class="st1 st3 st8">e</text>
				<text transform="matrix(-0.9665 0.2566 -0.2566 -0.9665 344.9335 393.5332)" class="st1 st3 st8">v</text>
				<text transform="matrix(-0.9812 0.193 -0.193 -0.9812 339.4937 394.9236)" class="st1 st3 st8">i</text>
				<text transform="matrix(-0.9902 0.1395 -0.1395 -0.9902 336.3033 395.5536)" class="st1 st3 st8">s</text>
				<text transform="matrix(-0.9964 8.524302e-02 -8.524302e-02 -0.9964 332.1143 396.1231)" class="st1 st3 st8">i</text>
				<text transform="matrix(-0.9998 2.041890e-02 -2.041890e-02 -0.9998 328.8831 396.424)" class="st1 st3 st8">o</text>
				<text transform="matrix(-0.9978 -6.627395e-02 6.627395e-02 -0.9978 323.1138 396.5336)" class="st1 st3 st8">n</text>
				<text transform="matrix(-0.9899 -0.1414 0.1414 -0.9899 317.0236 396.0732)" class="st1 st3 st8">s</text>
			</g>
			<g>
				<path class="st1" d="M330.3,388.3c-0.6,0.1-1.1-0.1-1.4-0.5s-0.6-0.8-0.6-1.2c-0.1-0.6,0.1-1.1,0.5-1.6c0.4-0.5,0.8-0.8,1.4-0.8
					c0.2,0,0.4,0,0.6,0c0.2,0,0.3,0,0.4,0c0,0,0.1,0,0.2-0.1s0.1-0.1,0.1-0.1c0,0,0.1,0,0.1,0c0,0,0.1,0,0.1,0.1c0,0,0,0.1,0,0.1
					s0,0.2,0,0.4c0,0.2,0,0.4,0,0.6l0.4,3.8c0,0.2,0.1,0.4,0.1,0.6c0,0.1,0.2,0.1,0.5,0.1h0.1c0,0,0.1,0,0.1,0.1c0,0.1,0,0.1,0,0.1
					c-0.2,0-0.4,0.1-0.5,0.1c-0.1,0-0.3,0.1-0.4,0.1s-0.2,0.1-0.2,0.1s-0.1,0.1-0.1,0.1l0,0h0c0,0,0,0-0.1,0c0,0,0-0.1-0.1-0.1
					c0-0.2,0-0.5,0-0.8l-0.2-1.6c0-0.1,0-0.1,0-0.1c0,0,0,0,0,0c-0.1,0.1-0.2,0.1-0.4,0.2C330.6,388.3,330.4,388.3,330.3,388.3
					L330.3,388.3z M330.5,387.9c0.2,0,0.3-0.1,0.4-0.2c0.1-0.1,0.2-0.2,0.1-0.4l-0.2-2.1c0-0.2-0.1-0.3-0.3-0.4s-0.4-0.1-0.6-0.1
					c-0.4,0-0.6,0.2-0.8,0.6s-0.2,0.7-0.2,1.1c0,0.5,0.2,0.9,0.5,1.1C329.8,387.8,330.1,387.9,330.5,387.9L330.5,387.9z"/>
				<path class="st1" d="M326.3,388.5c-0.1,0-0.2,0-0.3,0s-0.2,0-0.3,0s-0.2,0-0.3,0c0,0,0-0.1,0-0.1c0-0.1,0-0.1,0-0.1
					c0,0,0.1,0,0.2-0.1c0.1,0,0.2-0.1,0.2-0.1v0c0-0.1-0.4-0.9-1-2.4l-0.7,2c0,0.1-0.1,0.2-0.1,0.3c0,0.1,0,0.2,0.1,0.2
					s0.2,0.1,0.4,0.1c0,0,0,0,0,0.1c0,0.1,0,0.1,0,0.1c-0.1,0-0.2,0-0.4,0c-0.2,0-0.3,0-0.5,0c-0.1,0-0.3,0-0.4,0s-0.3,0-0.4,0
					c0,0,0-0.1,0-0.1c0-0.1,0-0.1,0-0.1c0.1,0,0.2,0,0.3-0.1s0.2-0.1,0.3-0.3l1.6-4.5c0.1-0.4,0.3-0.6,0.5-0.8
					c0.2-0.1,0.3-0.2,0.5-0.2c0.1,0,0.2,0,0.3,0.1c0.1,0.1,0.1,0.2,0.1,0.2c0,0.1,0,0.2-0.1,0.3c-0.5,0-0.8,0.3-1,0.8
					c0,0.1-0.1,0.2-0.1,0.3s-0.1,0.2-0.1,0.3l1.4,3.2c0.1,0.1,0.1,0.2,0.2,0.3c0.1,0,0.1,0.1,0.3,0.1c0.1,0,0.2,0,0.3,0
					c0,0,0,0,0,0.1c0,0.1,0,0.1,0,0.1C326.7,388.5,326.3,388.5,326.3,388.5L326.3,388.5z"/>
			</g>
		</g>
		<g>
			<g>
				<text transform="matrix(-0.8418 -0.5398 0.5398 -0.8418 272.5137 416.514)" class="st1 st3 st8">d</text>
				<text transform="matrix(-0.8146 -0.58 0.58 -0.8146 267.7536 413.4332)" class="st1 st3 st8">e</text>
				<text transform="matrix(-0.7766 -0.63 0.63 -0.7766 263.7037 410.603)" class="st1 st3 st8">m</text>
				<text transform="matrix(-0.7356 -0.6774 0.6774 -0.7356 256.8735 404.9729)" class="st1 st3 st8">a</text>
				<text transform="matrix(-0.7083 -0.7059 0.7059 -0.7083 253.2734 401.6238)" class="st1 st3 st8">t</text>
				<text transform="matrix(-0.6796 -0.7336 0.7336 -0.6796 250.5936 398.9636)" class="st1 st3 st8">e</text>
				<text transform="matrix(-0.6473 -0.7622 0.7622 -0.6473 247.2237 395.2938)" class="st1 st3 st8">r</text>
				<text transform="matrix(-0.6199 -0.7847 0.7847 -0.6199 244.3536 391.8845)" class="st1 st3 st8">i</text>
				<text transform="matrix(-0.5898 -0.8076 0.8076 -0.5898 242.2836 389.2832)" class="st1 st3 st8">a</text>
				<text transform="matrix(-0.5598 -0.8286 0.8286 -0.5598 239.4135 385.304)" class="st1 st3 st8">l</text>
				<text transform="matrix(-0.5351 -0.8448 0.8448 -0.5351 237.6734 382.7132)" class="st1 st3 st8">i</text>
				<text transform="matrix(-0.503 -0.8643 0.8643 -0.503 235.8835 379.9141)" class="st1 st3 st8">z</text>
				<text transform="matrix(-0.4636 -0.886 0.886 -0.4636 233.4835 375.7539)" class="st1 st3 st8">e</text>
				<text transform="matrix(-0.4247 -0.9053 0.9053 -0.4247 231.1835 371.3437)" class="st1 st3 st8">r</text>
				<text transform="matrix(-0.878 -0.4787 0.4787 -0.878 284.3535 408.2242)" class="st1 st3 st8">o</text>
				<text transform="matrix(-0.8514 -0.5246 0.5246 -0.8514 279.2433 405.3829)" class="st1 st3 st8">f</text>
				<text transform="matrix(-0.8035 -0.5952 0.5952 -0.8035 273.7736 401.9036)" class="st1 st3 st8">u</text>
				<text transform="matrix(-0.762 -0.6476 0.6476 -0.762 269.0839 398.4235)" class="st1 st3 st8">n</text>
				<text transform="matrix(-0.7157 -0.6984 0.6984 -0.7157 264.4034 394.4229)" class="st1 st3 st8">n</text>
				<text transform="matrix(-0.6712 -0.7413 0.7413 -0.6712 260.0335 390.1232)" class="st1 st3 st8">e</text>
				<text transform="matrix(-0.63 -0.7766 0.7766 -0.63 256.7135 386.4234)" class="st1 st3 st8">c</text>
				<text transform="matrix(-0.5872 -0.8094 0.8094 -0.5872 253.7637 382.7843)" class="st1 st3 st8">e</text>
				<text transform="matrix(-0.5446 -0.8387 0.8387 -0.5446 250.8637 378.7432)" class="st1 st3 st8">s</text>
				<text transform="matrix(-0.5041 -0.8637 0.8637 -0.5041 248.5634 375.1832)" class="st1 st3 st8">s</text>
				<text transform="matrix(-0.459 -0.8885 0.8885 -0.459 246.4436 371.5433)" class="st1 st3 st8">a</text>
				<text transform="matrix(-0.4115 -0.9114 0.9114 -0.4115 244.2135 367.1842)" class="st1 st3 st8">r</text>
				<text transform="matrix(-0.361 -0.9326 0.9326 -0.361 242.3836 363.1345)" class="st1 st3 st8">y</text>
				<text transform="matrix(-0.8816 -0.4721 0.4721 -0.8816 288.0035 395.844)" class="st1 st3 st9">p</text>
				<text transform="matrix(-0.8463 -0.5327 0.5327 -0.8463 283.224 393.2331)" class="st1 st3 st9">r</text>
				<text transform="matrix(-0.8068 -0.5909 0.5909 -0.8068 279.6832 391.0228)" class="st1 st3 st9">o</text>
				<text transform="matrix(-0.7581 -0.6521 0.6521 -0.7581 275.3138 387.8034)" class="st1 st3 st9">d</text>
				<text transform="matrix(-0.7045 -0.7097 0.7097 -0.7045 271.3034 384.3328)" class="st1 st3 st9">u</text>
				<text transform="matrix(-0.6514 -0.7587 0.7587 -0.6514 267.4436 380.4036)" class="st1 st3 st9">c</text>
				<text transform="matrix(-0.6061 -0.7954 0.7954 -0.6061 264.5834 377.0229)" class="st1 st3 st9">t</text>
				<text transform="matrix(-0.5617 -0.8274 0.8274 -0.5617 262.4436 374.2138)" class="st1 st3 st9">s</text>
				<text transform="matrix(-0.4738 -0.8806 0.8806 -0.4738 258.8234 368.6126)" class="st1 st3 st9">a</text>
				<text transform="matrix(-0.4056 -0.914 0.914 -0.4056 256.6535 364.6032)" class="st1 st3 st9">n</text>
				<text transform="matrix(-0.3295 -0.9441 0.9441 -0.3295 254.3335 359.3235)" class="st1 st3 st9">d</text>
				<text transform="matrix(-0.882 -0.4713 0.4713 -0.882 298.004 388.2629)" class="st1 st3 st8">o</text>
				<text transform="matrix(-0.8299 -0.5579 0.5579 -0.8299 292.9335 385.594)" class="st1 st3 st8">w</text>
				<text transform="matrix(-0.7682 -0.6402 0.6402 -0.7682 286.2733 381.0343)" class="st1 st3 st8">n</text>
				<text transform="matrix(-0.698 -0.7161 0.7161 -0.698 281.5734 377.163)" class="st1 st3 st8">w</text>
				<text transform="matrix(-0.627 -0.779 0.779 -0.627 275.9935 371.2944)" class="st1 st3 st8">e</text>
				<text transform="matrix(-0.5723 -0.8201 0.8201 -0.5723 272.9136 367.4427)" class="st1 st3 st8">r</text>
				<text transform="matrix(-0.5192 -0.8546 0.8546 -0.5192 270.3933 363.7928)" class="st1 st3 st8">s</text>
				<text transform="matrix(-0.4541 -0.8909 0.8909 -0.4541 268.2136 360.2434)" class="st1 st3 st8">h</text>
				<text transform="matrix(-0.3922 -0.9199 0.9199 -0.3922 265.5335 354.8628)" class="st1 st3 st8">i</text>
				<text transform="matrix(-0.3299 -0.944 0.944 -0.3299 264.2434 351.8842)" class="st1 st3 st8">p</text>
			</g>
			<g>
				<path class="st1" d="M284.8,368.8c-0.4-0.4-0.6-0.9-0.5-1.4c0-0.5,0.2-0.9,0.5-1.3c0.4-0.4,0.9-0.6,1.5-0.6
					c0.6,0,1.1,0.2,1.5,0.5c0.2,0.2,0.3,0.3,0.4,0.5s0.2,0.3,0.2,0.3c0,0,0.1,0.1,0.2,0.1s0.1,0.1,0.1,0.1c0,0,0,0,0.1,0.1
					c0,0,0,0.1,0,0.1c0,0,0,0-0.1,0.1c-0.1,0-0.2,0.1-0.3,0.3c-0.1,0.1-0.3,0.2-0.5,0.4l-2.7,2.7c-0.1,0.1-0.3,0.3-0.4,0.5
					c0,0.1,0,0.2,0.2,0.4l0.1,0.1c0,0,0,0.1,0,0.1c-0.1,0.1-0.1,0.1-0.1,0.1c-0.1-0.1-0.3-0.2-0.4-0.3s-0.2-0.1-0.3-0.2
					c-0.1,0-0.2-0.1-0.2-0.1c-0.1,0-0.1,0-0.1,0h0l0,0c0,0,0,0,0-0.1s0-0.1,0-0.1c0.2-0.1,0.4-0.3,0.6-0.5l1.1-1.1
					c0,0,0.1-0.1,0-0.1c0,0,0,0,0,0c-0.1,0-0.2-0.1-0.4-0.1C285,369,284.9,368.9,284.8,368.8L284.8,368.8z M285.3,368.7
					c0.1,0.1,0.3,0.2,0.4,0.2s0.3,0,0.4-0.2l1.5-1.5c0.1-0.1,0.2-0.3,0.1-0.5c-0.1-0.2-0.2-0.4-0.4-0.5c-0.2-0.2-0.6-0.3-0.9-0.2
					c-0.4,0.1-0.7,0.3-1,0.6c-0.3,0.3-0.5,0.7-0.6,1.1S285,368.4,285.3,368.7L285.3,368.7z"/>
				<path class="st1" d="M282.2,365.9c-0.1-0.1-0.1-0.1-0.2-0.2s-0.1-0.1-0.2-0.2s-0.1-0.2-0.2-0.2c0,0,0-0.1,0.1-0.1
					c0.1,0,0.1-0.1,0.1,0c0,0,0.1,0.1,0.2,0.1s0.2,0.1,0.2,0.1h0c0.1-0.1,0.5-0.9,1.2-2.3l-2,0.8c-0.1,0-0.2,0.1-0.3,0.1
					c-0.1,0.1-0.1,0.1-0.1,0.2c0,0.1,0.1,0.2,0.2,0.4c0,0,0,0-0.1,0.1c-0.1,0-0.1,0.1-0.1,0.1c0-0.1-0.1-0.2-0.2-0.3
					s-0.2-0.2-0.3-0.4c-0.1-0.1-0.2-0.2-0.3-0.3s-0.2-0.2-0.2-0.3c0,0,0-0.1,0.1-0.1c0.1-0.1,0.1-0.1,0.1,0c0,0.1,0.1,0.1,0.3,0.2
					c0.1,0.1,0.3,0.1,0.4,0l4.5-1.6c0.4-0.1,0.7-0.2,0.9-0.1c0.2,0,0.4,0.1,0.5,0.2c0.1,0.1,0.1,0.2,0.1,0.3s-0.1,0.2-0.1,0.2
					c-0.1,0.1-0.2,0.1-0.3,0.1c-0.3-0.4-0.8-0.5-1.3-0.3c-0.1,0-0.2,0.1-0.3,0.1c-0.1,0-0.2,0.1-0.3,0.1l-1.6,3.1
					c-0.1,0.1-0.1,0.3-0.1,0.3c0,0.1,0,0.2,0.1,0.3c0,0.1,0.1,0.2,0.1,0.2c0,0,0,0-0.1,0.1c-0.1,0-0.1,0.1-0.1,0.1
					C282.4,366.2,282.2,365.9,282.2,365.9L282.2,365.9z"/>
			</g>
		</g>
		<g>
			<g>
				<text transform="matrix(-5.529868e-02 -0.9985 0.9985 -5.529868e-02 230.4035 338.1142)" class="st1 st3 st10">m</text>
				<text transform="matrix(1.134442e-02 -0.9999 0.9999 1.134442e-02 229.9736 328.7638)" class="st1 st3 st10">e</text>
				<text transform="matrix(6.296472e-02 -0.998 0.998 6.296472e-02 230.0335 323.514)" class="st1 st3 st10">d</text>
				<text transform="matrix(0.1066 -0.9943 0.9943 0.1066 230.4536 317.4933)" class="st1 st3 st10">i</text>
				<text transform="matrix(0.1463 -0.9892 0.9892 0.1463 230.8135 314.0136)" class="st1 st3 st10">a</text>
				<text transform="matrix(0.1881 -0.9822 0.9822 0.1881 231.5935 308.8732)" class="st1 st3 st10">t</text>
				<text transform="matrix(0.2341 -0.9722 0.9722 0.2341 232.3336 304.9337)" class="st1 st3 st10">o</text>
				<text transform="matrix(0.2825 -0.9593 0.9593 0.2825 233.8035 298.9632)" class="st1 st3 st10">r</text>
				<text transform="matrix(0.3569 -0.9341 0.9341 0.3569 236.1134 291.5339)" class="st1 st3 st10">o</text>
				<text transform="matrix(0.3997 -0.9166 0.9166 0.3997 238.3535 285.784)" class="st1 st3 st10">f</text>
				<text transform="matrix(-4.117813e-02 -0.9992 0.9992 -4.117813e-02 243.9735 333.8545)" class="st1 st3 st10">c</text>
				<text transform="matrix(2.129143e-02 -0.9998 0.9998 2.129143e-02 243.7636 328.864)" class="st1 st3 st10">o</text>
				<text transform="matrix(0.1075 -0.9942 0.9942 0.1075 243.8336 322.7833)" class="st1 st3 st10">m</text>
				<text transform="matrix(0.1939 -0.981 0.981 0.1939 244.9335 313.5038)" class="st1 st3 st10">p</text>
				<text transform="matrix(0.246 -0.9693 0.9693 0.246 246.1736 307.4635)" class="st1 st3 st10">l</text>
				<text transform="matrix(0.2925 -0.9563 0.9563 0.2925 246.9736 304.2734)" class="st1 st3 st10">e</text>
				<text transform="matrix(0.351 -0.9364 0.9364 0.351 248.5135 299.274)" class="st1 st3 st10">x</text>
				<text transform="matrix(-0.1433 -0.9897 0.9897 -0.1433 260.3136 335.7935)" class="st1 st3 st10">p</text>
				<text transform="matrix(-6.522893e-02 -0.9979 0.9979 -6.522893e-02 259.4735 329.7239)" class="st1 st3 st10">r</text>
				<text transform="matrix(1.343857e-02 -0.9999 0.9999 1.343857e-02 259.1635 325.0837)" class="st1 st3 st10">o</text>
				<text transform="matrix(9.445579e-02 -0.9955 0.9955 9.445579e-02 259.2835 318.9632)" class="st1 st3 st10">c</text>
				<text transform="matrix(0.1687 -0.9857 0.9857 0.1687 259.7635 314.0336)" class="st1 st3 st10">e</text>
				<text transform="matrix(0.2384 -0.9712 0.9712 0.2384 260.6735 308.9034)" class="st1 st3 st10">s</text>
				<text transform="matrix(0.3019 -0.9533 0.9533 0.3019 261.7535 304.5736)" class="st1 st3 st10">s</text>
				<text transform="matrix(0.3691 -0.9294 0.9294 0.3691 263.0934 300.3436)" class="st1 st3 st10">e</text>
				<text transform="matrix(0.4344 -0.9007 0.9007 0.4344 265.0535 295.4731)" class="st1 st3 st10">s</text>
			</g>
			<g>
				<path class="st1" d="M268.2,318.6c0.1-0.6,0.4-1,0.8-1.3c0.5-0.3,0.9-0.4,1.4-0.3c0.6,0.1,1,0.4,1.4,0.9c0.4,0.5,0.5,1,0.5,1.5
					c0,0.2-0.1,0.4-0.1,0.6c-0.1,0.2-0.1,0.3-0.1,0.3c0,0.1,0,0.1,0,0.2s0,0.1,0,0.1c0,0,0,0.1,0,0.1c0,0,0,0.1-0.1,0.1
					c0,0-0.1,0-0.1,0s-0.2-0.1-0.4-0.1s-0.4-0.1-0.6-0.1l-3.8-0.6c-0.2,0-0.4,0-0.6,0c-0.1,0-0.2,0.2-0.2,0.4v0.1c0,0,0,0-0.1,0
					c-0.1,0-0.1,0-0.1-0.1c0-0.2,0-0.4,0-0.5s0-0.3,0-0.4c0-0.1,0-0.2,0-0.2c0-0.1,0-0.1,0-0.1l0,0v0c0,0,0,0,0.1-0.1
					c0,0,0.1,0,0.1,0c0.2,0.1,0.4,0.2,0.8,0.2l1.6,0.2c0.1,0,0.1,0,0.1,0c0,0,0,0,0,0c0-0.1-0.1-0.2-0.1-0.4
					S268.2,318.7,268.2,318.6L268.2,318.6z M268.6,319c0,0.2,0,0.3,0.1,0.5c0.1,0.1,0.2,0.2,0.4,0.2l2.1,0.3c0.2,0,0.3,0,0.5-0.2
					c0.1-0.2,0.2-0.4,0.2-0.6c0-0.4-0.1-0.6-0.4-0.9s-0.6-0.4-1.1-0.5c-0.5-0.1-0.9,0-1.2,0.2C268.9,318.3,268.7,318.6,268.6,319
					L268.6,319z"/>
				<path class="st1" d="M269,314.7c0-0.1,0-0.2,0.1-0.3s0-0.2,0-0.3s0-0.2,0-0.3c0,0,0.1,0,0.1,0c0.1,0,0.1,0,0.1,0.1
					c0,0,0,0.1,0,0.2c0,0.1,0,0.2,0.1,0.2h0c0.1,0,1-0.1,2.6-0.4l-1.8-1.1c-0.1-0.1-0.2-0.1-0.3-0.1c-0.1,0-0.2,0-0.2,0.1
					c-0.1,0.1-0.1,0.2-0.2,0.4c0,0,0,0-0.1,0c-0.1,0-0.1,0-0.1-0.1c0-0.1,0.1-0.2,0.1-0.3s0.1-0.3,0.1-0.4c0-0.1,0.1-0.3,0.1-0.4
					c0-0.2,0-0.3,0-0.4c0,0,0.1,0,0.1,0c0.1,0,0.1,0,0.1,0.1c0,0.1,0,0.2,0,0.3s0.1,0.3,0.2,0.3l4,2.6c0.3,0.2,0.6,0.4,0.7,0.6
					c0.1,0.2,0.1,0.4,0.1,0.5c0,0.1-0.1,0.2-0.2,0.2s-0.2,0-0.2,0c-0.1,0-0.2-0.1-0.3-0.2c0.1-0.5-0.1-0.9-0.5-1.2
					c-0.1,0-0.2-0.1-0.3-0.2s-0.2-0.1-0.3-0.2l-3.4,0.5c-0.2,0-0.3,0.1-0.4,0.1c-0.1,0-0.1,0.1-0.2,0.2s-0.1,0.2-0.1,0.2
					c0,0,0,0-0.1,0c-0.1,0-0.1,0-0.1-0.1C268.9,315.1,269,314.8,269,314.7L269,314.7z"/>
			</g>
		</g>
		<g>
			<g>
				<text transform="matrix(0.7565 -0.6539 0.6539 0.7565 261.1335 253.9237)" class="st1 st3 st10">e</text>
				<text transform="matrix(0.7912 -0.6115 0.6115 0.7912 265.1234 250.4637)" class="st1 st3 st10">n</text>
				<text transform="matrix(0.8229 -0.5681 0.5681 0.8229 270.2836 246.5135)" class="st1 st3 st10">a</text>
				<text transform="matrix(0.8513 -0.5247 0.5247 0.8513 274.5636 243.5635)" class="st1 st3 st10">b</text>
				<text transform="matrix(0.8732 -0.4874 0.4874 0.8732 279.7536 240.4136)" class="st1 st3 st10">l</text>
				<text transform="matrix(0.8918 -0.4524 0.4524 0.8918 282.6336 238.7935)" class="st1 st3 st10">e</text>
				<text transform="matrix(0.9116 -0.411 0.411 0.9116 287.3436 236.4236)" class="st1 st3 st10">r</text>
				<text transform="matrix(0.9408 -0.3389 0.3389 0.9408 294.4835 233.3235)" class="st1 st3 st10">o</text>
				<text transform="matrix(0.9552 -0.2959 0.2959 0.9552 300.2736 231.2735)" class="st1 st3 st10">f</text>
				<text transform="matrix(0.687 -0.7267 0.7267 0.687 263.7936 270.2431)" class="st1 st3 st10">c</text>
				<text transform="matrix(0.7311 -0.6823 0.6823 0.7311 267.1935 266.6335)" class="st1 st3 st10">o</text>
				<text transform="matrix(0.7877 -0.6161 0.6161 0.7877 271.6037 262.4437)" class="st1 st3 st10">m</text>
				<text transform="matrix(0.848 -0.5299 0.5299 0.848 278.9536 256.7137)" class="st1 st3 st10">m</text>
				<text transform="matrix(0.8911 -0.4538 0.4538 0.8911 286.9136 251.8535)" class="st1 st3 st10">u</text>
				<text transform="matrix(0.9212 -0.3891 0.3891 0.9212 292.4436 249.0435)" class="st1 st3 st10">n</text>
				<text transform="matrix(0.9416 -0.3368 0.3368 0.9416 298.4836 246.5536)" class="st1 st3 st10">i</text>
				<text transform="matrix(0.9548 -0.2974 0.2974 0.9548 301.7436 245.3937)" class="st1 st3 st10">t</text>
				<text transform="matrix(0.9693 -0.246 0.246 0.9693 305.5635 244.1936)" class="st1 st3 st10">y</text>
				<text transform="matrix(0.7893 -0.614 0.614 0.7893 284.4635 272.6436)" class="st1 st3 st10">b</text>
				<text transform="matrix(0.841 -0.541 0.541 0.841 289.1734 268.9934)" class="st1 st3 st10">u</text>
				<text transform="matrix(0.8772 -0.4801 0.4801 0.8772 294.4136 265.6935)" class="st1 st3 st10">i</text>
				<text transform="matrix(0.9 -0.4359 0.4359 0.9 297.4836 264.0335)" class="st1 st3 st10">l</text>
				<text transform="matrix(0.9219 -0.3875 0.3875 0.9219 300.4236 262.6134)" class="st1 st3 st10">t</text>
			</g>
			<g>
				<path class="st1" d="M297,274.1c0.5-0.3,1-0.4,1.5-0.3c0.5,0.1,0.9,0.4,1.1,0.8c0.3,0.5,0.5,1,0.4,1.6c-0.1,0.6-0.4,1.1-0.8,1.4
					c-0.2,0.1-0.4,0.2-0.6,0.3s-0.3,0.1-0.3,0.1c0,0-0.1,0.1-0.1,0.2c0,0.1-0.1,0.1-0.1,0.1c0,0-0.1,0-0.1,0c0,0-0.1,0-0.1,0
					c0,0,0,0-0.1-0.1c0-0.1-0.1-0.2-0.2-0.4c-0.1-0.2-0.2-0.3-0.3-0.5l-2.2-3.1c-0.1-0.2-0.2-0.3-0.4-0.5c-0.1-0.1-0.2,0-0.5,0.1
					l-0.1,0c0,0-0.1,0-0.1,0c-0.1-0.1-0.1-0.1,0-0.1c0.1-0.1,0.3-0.2,0.4-0.4c0.1-0.1,0.2-0.2,0.2-0.3c0-0.1,0.1-0.1,0.1-0.2
					s0.1-0.1,0.1-0.1v0l0,0c0,0,0,0,0.1,0s0.1,0,0.1,0c0.1,0.2,0.2,0.4,0.4,0.7l0.9,1.3c0,0,0.1,0.1,0.1,0.1c0,0,0,0,0,0
					c0-0.1,0.1-0.2,0.2-0.4C296.8,274.3,296.9,274.2,297,274.1L297,274.1z M297.1,274.6c-0.1,0.1-0.2,0.2-0.3,0.4
					c0,0.1,0,0.3,0.1,0.4l1.2,1.8c0.1,0.2,0.3,0.2,0.5,0.2c0.2,0,0.4-0.1,0.6-0.2c0.3-0.2,0.4-0.5,0.4-0.9c0-0.4-0.2-0.8-0.4-1.1
					c-0.3-0.4-0.6-0.6-1-0.8S297.4,274.4,297.1,274.6L297.1,274.6z"/>
				<path class="st1" d="M300.4,272c0.1,0,0.2-0.1,0.2-0.1c0.1,0,0.2-0.1,0.2-0.2c0.1-0.1,0.2-0.1,0.2-0.2c0,0,0.1,0.1,0.1,0.1
					c0,0.1,0,0.1,0,0.1c0,0-0.1,0.1-0.2,0.2s-0.1,0.2-0.1,0.2v0c0.1,0.1,0.8,0.6,2.1,1.6l-0.4-2.1c0-0.1-0.1-0.2-0.1-0.3
					c0-0.1-0.1-0.1-0.2-0.1s-0.2,0-0.4,0.1c0,0,0,0-0.1-0.1c0-0.1,0-0.1,0-0.1c0.1,0,0.2-0.1,0.3-0.2s0.3-0.1,0.4-0.2
					c0.1-0.1,0.2-0.1,0.4-0.2s0.2-0.2,0.3-0.2c0,0,0.1,0.1,0.1,0.1c0,0.1,0,0.1,0,0.1c-0.1,0-0.1,0.1-0.2,0.2s-0.1,0.2-0.1,0.4
					l0.8,4.7c0.1,0.4,0.1,0.7,0,0.9c-0.1,0.2-0.2,0.4-0.3,0.4c-0.1,0.1-0.2,0.1-0.3,0c-0.1,0-0.2-0.1-0.2-0.2
					c-0.1-0.1-0.1-0.2,0-0.3c0.4-0.3,0.6-0.6,0.5-1.2c0-0.1,0-0.2-0.1-0.3s0-0.2-0.1-0.3l-2.8-2.1c-0.1-0.1-0.2-0.1-0.3-0.2
					c-0.1,0-0.2,0-0.3,0s-0.2,0-0.3,0.1c0,0,0,0-0.1-0.1c0-0.1,0-0.1,0-0.1C300.1,272.2,300.4,272,300.4,272L300.4,272z"/>
			</g>
		</g>
		<g>
			<g>
				<text transform="matrix(0.986 0.1669 -0.1669 0.986 345.9835 220.6436)" class="st1 st3 st8">c</text>
				<text transform="matrix(0.9768 0.2141 -0.2141 0.9768 350.6236 221.4235)" class="st1 st3 st8">o</text>
				<text transform="matrix(0.9637 0.2669 -0.2669 0.9637 356.2936 222.6737)" class="st1 st3 st8">n</text>
				<text transform="matrix(0.95 0.3122 -0.3122 0.95 362.2136 224.3436)" class="st1 st3 st8">s</text>
				<text transform="matrix(0.9364 0.351 -0.351 0.9364 366.2735 225.6835)" class="st1 st3 st8">c</text>
				<text transform="matrix(0.923 0.3848 -0.3848 0.923 370.6635 227.3535)" class="st1 st3 st8">i</text>
				<text transform="matrix(0.9061 0.4231 -0.4231 0.9061 373.7133 228.6136)" class="st1 st3 st8">o</text>
				<text transform="matrix(0.8821 0.471 -0.471 0.8821 378.9837 231.0835)" class="st1 st3 st8">u</text>
				<text transform="matrix(0.8592 0.5116 -0.5116 0.8592 384.1634 233.8836)" class="st1 st3 st8">s</text>
				<text transform="matrix(0.9996 -2.966624e-02 2.966624e-02 0.9996 327.2036 232.5735)" class="st1 st3 st8">i</text>
				<text transform="matrix(0.9993 3.821341e-02 -3.821341e-02 0.9993 330.4435 232.3935)" class="st1 st3 st8">m</text>
				<text transform="matrix(0.9928 0.1196 -0.1196 0.9928 339.2435 232.8135)" class="st1 st3 st8">p</text>
				<text transform="matrix(0.9856 0.1688 -0.1688 0.9856 345.0135 233.5535)" class="st1 st3 st8">l</text>
				<text transform="matrix(0.977 0.213 -0.213 0.977 348.0535 234.0635)" class="st1 st3 st8">e</text>
				<text transform="matrix(0.9578 0.2874 -0.2874 0.9578 352.9036 235.0635)" class="st1 st3 st8">m</text>
				<text transform="matrix(0.933 0.3598 -0.3598 0.933 361.3036 237.6736)" class="st1 st3 st8">e</text>
				<text transform="matrix(0.9089 0.4171 -0.4171 0.9089 365.9236 239.4536)" class="st1 st3 st8">n</text>
				<text transform="matrix(0.8842 0.4672 -0.4672 0.8842 371.5236 242.0737)" class="st1 st3 st8">t</text>
				<text transform="matrix(0.8601 0.5101 -0.5101 0.8601 374.8435 243.8234)" class="st1 st3 st8">e</text>
				<text transform="matrix(0.832 0.5548 -0.5548 0.832 379.0934 246.3636)" class="st1 st3 st8">r</text>
				<text transform="matrix(0.7784 0.6278 -0.6278 0.7784 385.1234 250.5337)" class="st1 st3 st8">o</text>
				<text transform="matrix(0.7437 0.6685 -0.6685 0.7437 389.6234 254.2034)" class="st1 st3 st8">f</text>
				<text transform="matrix(0.9995 -3.228298e-02 3.228298e-02 0.9995 330.5935 245.1835)" class="st1 st3 st9">t</text>
				<text transform="matrix(0.9996 2.809610e-02 -2.809610e-02 0.9996 334.1336 245.0635)" class="st1 st3 st9">e</text>
				<text transform="matrix(0.9956 9.410831e-02 -9.410831e-02 0.9956 338.7736 245.2135)" class="st1 st3 st9">c</text>
				<text transform="matrix(0.986 0.1668 -0.1668 0.986 343.1535 245.6235)" class="st1 st3 st9">h</text>
				<text transform="matrix(0.9688 0.2478 -0.2478 0.9688 348.7037 246.5735)" class="st1 st3 st9">n</text>
				<text transform="matrix(0.9453 0.3261 -0.3261 0.9453 354.2834 248.0236)" class="st1 st3 st9">o</text>
				<text transform="matrix(0.9238 0.3828 -0.3828 0.9238 359.4135 249.8436)" class="st1 st3 st9">l</text>
				<text transform="matrix(0.8986 0.4388 -0.4388 0.8986 362.1134 250.9335)" class="st1 st3 st9">o</text>
				<text transform="matrix(0.8622 0.5066 -0.5066 0.8622 366.9738 253.3335)" class="st1 st3 st9">g</text>
				<text transform="matrix(0.83 0.5577 -0.5577 0.83 371.3635 255.9636)" class="st1 st3 st9">i</text>
				<text transform="matrix(0.7981 0.6025 -0.6025 0.7981 373.9037 257.6635)" class="st1 st3 st9">c</text>
				<text transform="matrix(0.7563 0.6542 -0.6542 0.7563 377.4237 260.3337)" class="st1 st3 st9">a</text>
				<text transform="matrix(0.7186 0.6954 -0.6954 0.7186 380.9034 263.3837)" class="st1 st3 st9">l</text>
				<text transform="matrix(0.9999 -1.116988e-02 1.116988e-02 0.9999 327.1935 256.5435)" class="st1 st3 st8">i</text>
				<text transform="matrix(0.9983 5.773827e-02 -5.773827e-02 0.9983 330.4536 256.4735)" class="st1 st3 st8">n</text>
				<text transform="matrix(0.9892 0.1463 -0.1463 0.9892 336.5435 256.8435)" class="st1 st3 st8">n</text>
				<text transform="matrix(0.9729 0.2311 -0.2311 0.9729 342.5735 257.7635)" class="st1 st3 st8">o</text>
				<text transform="matrix(0.9506 0.3105 -0.3105 0.9506 348.1635 259.1136)" class="st1 st3 st8">v</text>
				<text transform="matrix(0.9241 0.382 -0.382 0.9241 353.4733 260.8736)" class="st1 st3 st8">a</text>
				<text transform="matrix(0.8984 0.4392 -0.4392 0.8984 357.9534 262.7635)" class="st1 st3 st8">t</text>
				<text transform="matrix(0.8745 0.485 -0.485 0.8745 361.3134 264.4236)" class="st1 st3 st8">i</text>
				<text transform="matrix(0.8405 0.5419 -0.5419 0.8405 364.1735 265.9735)" class="st1 st3 st8">o</text>
				<text transform="matrix(0.79 0.613 -0.613 0.79 368.9935 269.0936)" class="st1 st3 st8">n</text>
				<text transform="matrix(0.7412 0.6713 -0.6713 0.7412 373.8036 272.8936)" class="st1 st3 st8">s</text>
			</g>
			<g>
				<path class="st1" d="M347.3,268.7c0.6,0.2,1,0.5,1.2,1c0.2,0.5,0.3,0.9,0.1,1.4c-0.2,0.6-0.5,1-1,1.3c-0.5,0.3-1.1,0.4-1.6,0.2
					c-0.2-0.1-0.4-0.1-0.6-0.2s-0.3-0.1-0.3-0.2c0,0-0.1,0-0.2,0c-0.1,0-0.1,0-0.1,0c0,0-0.1,0-0.1-0.1c0,0-0.1-0.1-0.1-0.1
					c0,0,0,0,0.1-0.1c0-0.1,0.1-0.2,0.2-0.4s0.1-0.4,0.2-0.6l1-3.7c0.1-0.2,0.1-0.4,0.1-0.6c0-0.1-0.1-0.2-0.4-0.3l-0.1,0
					c0,0,0,0,0-0.1c0-0.1,0.1-0.1,0.1-0.1c0.2,0,0.4,0.1,0.5,0.1s0.3,0,0.4,0c0.1,0,0.2,0,0.2,0s0.1,0,0.1,0l0,0h0c0,0,0,0,0.1,0.1
					c0,0,0,0.1,0,0.1c-0.1,0.2-0.2,0.4-0.3,0.7l-0.4,1.5c0,0.1,0,0.1,0,0.1c0,0,0,0,0,0c0.1,0,0.2-0.1,0.4-0.1
					S347.2,268.7,347.3,268.7L347.3,268.7z M346.9,269.1c-0.2,0-0.3,0-0.5,0c-0.1,0.1-0.2,0.2-0.3,0.3l-0.6,2.1c0,0.2,0,0.3,0.1,0.5
					s0.3,0.2,0.6,0.3c0.3,0.1,0.6,0,0.9-0.2s0.5-0.6,0.6-1c0.1-0.5,0.1-0.9,0-1.2S347.3,269.2,346.9,269.1L346.9,269.1z"/>
				<path class="st1" d="M351.1,270c0.1,0,0.2,0.1,0.3,0.1c0.1,0,0.2,0.1,0.3,0.1c0.1,0,0.2,0.1,0.3,0.1c0,0,0,0.1,0,0.1
					c0,0.1-0.1,0.1-0.1,0.1c0,0-0.1,0-0.2,0c-0.1,0-0.2,0-0.2,0v0c0,0.1,0,1,0.1,2.6l1.4-1.6c0.1-0.1,0.1-0.2,0.2-0.2
					c0-0.1,0-0.2,0-0.3c-0.1-0.1-0.2-0.2-0.3-0.2c0,0,0,0,0-0.1c0-0.1,0.1-0.1,0.1-0.1c0.1,0,0.2,0.1,0.3,0.1
					c0.1,0.1,0.3,0.1,0.4,0.2c0.1,0,0.3,0.1,0.4,0.1c0.1,0,0.3,0.1,0.4,0.1c0,0,0,0.1,0,0.1c0,0.1-0.1,0.1-0.1,0.1
					c-0.1,0-0.2,0-0.3,0c-0.1,0-0.3,0-0.4,0.1l-3.1,3.6c-0.3,0.3-0.5,0.5-0.7,0.6s-0.4,0.1-0.5,0c-0.1,0-0.2-0.1-0.2-0.2
					c0-0.1,0-0.2,0-0.3c0-0.1,0.1-0.2,0.2-0.2c0.5,0.2,0.9,0,1.2-0.4c0.1-0.1,0.1-0.2,0.2-0.3s0.2-0.2,0.2-0.3l-0.1-3.5
					c0-0.2,0-0.3-0.1-0.4c0-0.1-0.1-0.1-0.2-0.2s-0.2-0.1-0.2-0.1c0,0,0,0,0-0.1c0-0.1,0.1-0.1,0.1-0.1
					C350.7,269.9,351,270,351.1,270L351.1,270z"/>
			</g>
		</g>
		<g>
			<g>
				<text transform="matrix(-0.3774 0.9261 -0.9261 -0.3774 419.123 366.0534)" class="st1 st3 st8">c</text>
				<text transform="matrix(-0.422 0.9066 -0.9066 -0.422 417.3441 370.4235)" class="st1 st3 st8">o</text>
				<text transform="matrix(-0.4712 0.882 -0.882 -0.4712 414.8929 375.6834)" class="st1 st3 st8">n</text>
				<text transform="matrix(-0.5201 0.8541 -0.8541 -0.5201 411.9841 381.1036)" class="st1 st3 st8">n</text>
				<text transform="matrix(-0.5628 0.8266 -0.8266 -0.5628 408.7544 386.3438)" class="st1 st3 st8">e</text>
				<text transform="matrix(-0.5989 0.8008 -0.8008 -0.5989 405.9428 390.4536)" class="st1 st3 st8">c</text>
				<text transform="matrix(-0.6296 0.7769 -0.7769 -0.6296 403.0845 394.2434)" class="st1 st3 st8">t</text>
				<text transform="matrix(-0.6629 0.7487 -0.7487 -0.6629 400.7336 397.1634)" class="st1 st3 st8">o</text>
				<text transform="matrix(-0.6972 0.7169 -0.7169 -0.6972 396.864 401.4933)" class="st1 st3 st8">r</text>
				<text transform="matrix(-0.7479 0.6638 -0.6638 -0.7479 391.6528 406.7133)" class="st1 st3 st8">o</text>
				<text transform="matrix(-0.7757 0.6311 -0.6311 -0.7757 387.2944 410.5333)" class="st1 st3 st8">f</text>
				<text transform="matrix(-0.378 0.9258 -0.9258 -0.378 406.0143 360.2637)" class="st1 st3 st8">p</text>
				<text transform="matrix(-0.4335 0.9012 -0.9012 -0.4335 403.7942 365.6234)" class="st1 st3 st8">e</text>
				<text transform="matrix(-0.4873 0.8733 -0.8733 -0.4873 401.6443 370.0937)" class="st1 st3 st8">o</text>
				<text transform="matrix(-0.543 0.8397 -0.8397 -0.543 398.8129 375.1435)" class="st1 st3 st8">p</text>
				<text transform="matrix(-0.5842 0.8116 -0.8116 -0.5842 395.603 380.0038)" class="st1 st3 st8">l</text>
				<text transform="matrix(-0.6202 0.7845 -0.7845 -0.6202 393.8145 382.5234)" class="st1 st3 st8">e</text>
				<text transform="matrix(-0.6862 0.7274 -0.7274 -0.6862 388.8328 388.5836)" class="st1 st3 st8">a</text>
				<text transform="matrix(-0.7297 0.6838 -0.6838 -0.7297 385.4836 392.1436)" class="st1 st3 st8">n</text>
				<text transform="matrix(-0.7732 0.6342 -0.6342 -0.7732 380.9836 396.3334)" class="st1 st3 st8">d</text>
				<text transform="matrix(-0.3002 0.9539 -0.9539 -0.3002 392.6928 349.8435)" class="st1 st3 st8">g</text>
				<text transform="matrix(-0.3775 0.926 -0.926 -0.3775 391.0731 354.9737)" class="st1 st3 st8">o</text>
				<text transform="matrix(-0.4537 0.8912 -0.8912 -0.4537 388.8743 360.3134)" class="st1 st3 st8">v</text>
				<text transform="matrix(-0.5206 0.8538 -0.8538 -0.5206 386.3228 365.2634)" class="st1 st3 st8">e</text>
				<text transform="matrix(-0.5781 0.8159 -0.8159 -0.5781 383.7129 369.4835)" class="st1 st3 st8">r</text>
				<text transform="matrix(-0.6386 0.7695 -0.7695 -0.6386 381.1938 373.0737)" class="st1 st3 st8">n</text>
				<text transform="matrix(-0.698 0.7161 -0.7161 -0.698 377.2628 377.7437)" class="st1 st3 st8">a</text>
				<text transform="matrix(-0.7529 0.6582 -0.6582 -0.7529 373.8944 381.224)" class="st1 st3 st8">n</text>
				<text transform="matrix(-0.8023 0.5969 -0.5969 -0.8023 369.2535 385.2135)" class="st1 st3 st8">c</text>
				<text transform="matrix(-0.8424 0.5389 -0.5389 -0.8424 365.5041 387.9937)" class="st1 st3 st8">e</text>
			</g>
			<g>
				<path class="st1" d="M378.2,365.5c-0.3,0.5-0.8,0.8-1.3,0.8c-0.5,0.1-1,0-1.4-0.3c-0.5-0.3-0.8-0.8-0.9-1.4
					c-0.1-0.6,0-1.1,0.2-1.6c0.1-0.2,0.3-0.4,0.4-0.5s0.2-0.2,0.2-0.3c0,0,0-0.1,0.1-0.2c0-0.1,0-0.1,0-0.1c0,0,0,0,0.1-0.1
					s0.1,0,0.1,0c0,0,0,0,0.1,0.1c0.1,0.1,0.2,0.2,0.3,0.3s0.3,0.2,0.5,0.4l3.2,2.1c0.2,0.1,0.4,0.2,0.5,0.3c0.1,0,0.2-0.1,0.4-0.3
					l0-0.1c0,0,0.1,0,0.1,0c0.1,0,0.1,0.1,0.1,0.1c-0.1,0.2-0.2,0.3-0.2,0.5s-0.1,0.3-0.1,0.4s0,0.2,0,0.2c0,0.1,0,0.1,0,0.1v0v0
					c0,0,0,0-0.1,0c0,0-0.1,0-0.1,0c-0.1-0.2-0.3-0.3-0.6-0.5l-1.4-0.9c0,0-0.1,0-0.1,0c0,0,0,0,0,0c0,0.1,0,0.2,0,0.4
					C378.3,365.3,378.3,365.5,378.2,365.5L378.2,365.5z M378,365c0.1-0.1,0.1-0.3,0.1-0.5s-0.1-0.3-0.2-0.4L376,363
					c-0.2-0.1-0.3-0.1-0.5,0c-0.2,0.1-0.3,0.2-0.5,0.5c-0.2,0.3-0.2,0.6,0,1s0.4,0.6,0.8,0.9c0.4,0.3,0.8,0.4,1.2,0.3
					C377.4,365.6,377.7,365.4,378,365L378,365z"/>
				<path class="st1" d="M375.8,368.7c-0.1,0.1-0.1,0.2-0.2,0.2c0,0.1-0.1,0.2-0.2,0.2c-0.1,0.1-0.1,0.2-0.2,0.2c0,0-0.1,0-0.1-0.1
					c-0.1,0-0.1-0.1-0.1-0.1c0,0,0.1-0.1,0.1-0.2c0-0.1,0-0.2,0-0.2h0c-0.1-0.1-0.9-0.3-2.5-0.7l1.2,1.8c0.1,0.1,0.1,0.2,0.2,0.2
					c0.1,0.1,0.2,0.1,0.3,0c0.1,0,0.2-0.1,0.3-0.2c0,0,0,0,0.1,0c0.1,0,0.1,0.1,0.1,0.1c0,0.1-0.1,0.1-0.2,0.3
					c-0.1,0.1-0.2,0.2-0.3,0.4c-0.1,0.1-0.2,0.2-0.3,0.4c-0.1,0.1-0.2,0.2-0.2,0.3c0,0-0.1,0-0.1-0.1c-0.1,0-0.1-0.1-0.1-0.1
					c0-0.1,0.1-0.2,0.1-0.3c0-0.1,0-0.3,0-0.4l-2.5-4c-0.2-0.4-0.3-0.6-0.3-0.9c0-0.2,0-0.4,0.1-0.5c0.1-0.1,0.2-0.1,0.3-0.1
					c0.1,0,0.2,0,0.2,0.1c0.1,0.1,0.2,0.2,0.1,0.3c-0.3,0.4-0.3,0.8,0,1.3c0,0.1,0.1,0.2,0.2,0.3c0.1,0.1,0.1,0.2,0.2,0.3l3.4,1
					c0.2,0,0.3,0,0.4,0s0.2,0,0.3-0.1c0.1-0.1,0.2-0.1,0.2-0.2c0,0,0,0,0.1,0c0.1,0,0.1,0.1,0.1,0.1
					C376.1,368.5,375.9,368.7,375.8,368.7L375.8,368.7z"/>
			</g>
		</g>
		<g>
			<g>
				<text transform="matrix(0.4199 0.9076 -0.9076 0.4199 426.8636 275.8236)" class="st1 st3 st10">i</text>
				<text transform="matrix(0.3775 0.926 -0.926 0.3775 428.354 278.9836)" class="st1 st3 st10">n</text>
				<text transform="matrix(0.3236 0.9462 -0.9462 0.3236 430.7931 285.0336)" class="st1 st3 st10">v</text>
				<text transform="matrix(0.2704 0.9627 -0.9627 0.2704 432.7033 290.6535)" class="st1 st3 st10">o</text>
				<text transform="matrix(0.228 0.9737 -0.9737 0.228 434.3336 296.6136)" class="st1 st3 st10">l</text>
				<text transform="matrix(0.1858 0.9826 -0.9826 0.1858 435.1031 299.8235)" class="st1 st3 st10">v</text>
				<text transform="matrix(0.135 0.9908 -0.9908 0.135 436.1936 305.6836)" class="st1 st3 st10">e</text>
				<text transform="matrix(8.941577e-02 0.996 -0.996 8.941577e-02 436.8935 310.9135)" class="st1 st3 st10">r</text>
				<text transform="matrix(1.186797e-02 0.9999 -0.9999 1.186797e-02 437.4742 318.6935)" class="st1 st3 st10">o</text>
				<text transform="matrix(-3.315521e-02 0.9995 -0.9995 -3.315521e-02 437.5132 324.8636)" class="st1 st3 st10">f</text>
				<text transform="matrix(0.5606 0.8281 -0.8281 0.5606 406.0736 272.9136)" class="st1 st3 st8">h</text>
				<text transform="matrix(0.5044 0.8635 -0.8635 0.5044 409.4132 277.8835)" class="st1 st3 st8">u</text>
				<text transform="matrix(0.4318 0.902 -0.902 0.4318 412.394 282.8936)" class="st1 st3 st8">m</text>
				<text transform="matrix(0.3608 0.9326 -0.9326 0.3608 416.1238 290.8937)" class="st1 st3 st8">a</text>
				<text transform="matrix(0.302 0.9533 -0.9533 0.302 417.8936 295.4436)" class="st1 st3 st8">n</text>
				<text transform="matrix(0.2453 0.9694 -0.9694 0.2453 419.7137 301.3235)" class="st1 st3 st8">s</text>
				<text transform="matrix(0.1632 0.9866 -0.9866 0.1632 421.3232 308.2235)" class="st1 st3 st8">a</text>
				<text transform="matrix(0.1018 0.9948 -0.9948 0.1018 422.1332 313.0435)" class="st1 st3 st8">n</text>
				<text transform="matrix(3.577167e-02 0.9994 -0.9994 3.577167e-02 422.7327 319.1535)" class="st1 st3 st8">d</text>
				<text transform="matrix(-6.122278e-02 0.9981 -0.9981 -6.122278e-02 422.8936 327.7036)" class="st1 st3 st8">n</text>
				<text transform="matrix(-0.1272 0.9919 -0.9919 -0.1272 422.4943 333.8135)" class="st1 st3 st8">o</text>
				<text transform="matrix(-0.1934 0.9811 -0.9811 -0.1934 421.7531 339.5535)" class="st1 st3 st8">n</text>
				<text transform="matrix(0.5023 0.8647 -0.8647 0.5023 396.0135 287.8036)" class="st1 st3 st8">h</text>
				<text transform="matrix(0.4255 0.905 -0.905 0.4255 398.9935 292.9837)" class="st1 st3 st8">u</text>
				<text transform="matrix(0.3264 0.9452 -0.9452 0.3264 401.5137 298.1836)" class="st1 st3 st8">m</text>
				<text transform="matrix(0.2297 0.9733 -0.9733 0.2297 404.2633 306.5235)" class="st1 st3 st8">a</text>
				<text transform="matrix(0.1506 0.9886 -0.9886 0.1506 405.3835 311.2335)" class="st1 st3 st8">n</text>
				<text transform="matrix(7.567481e-02 0.9971 -0.9971 7.567481e-02 406.2532 317.2835)" class="st1 st3 st8">s</text>
				<text transform="matrix(-3.542275e-02 0.9994 -0.9994 -3.542275e-02 406.6443 324.3235)" class="st1 st3 st8">b</text>
				<text transform="matrix(-0.1155 0.9933 -0.9933 -0.1155 406.4145 329.9736)" class="st1 st3 st8">y</text>
			</g>
			<g>
				<path class="st1" d="M393.7,310.1c0.2,0.6,0.1,1.1-0.1,1.5s-0.6,0.7-1,0.9c-0.5,0.2-1.1,0.1-1.7-0.1c-0.6-0.3-0.9-0.6-1.1-1.1
					c-0.1-0.2-0.1-0.4-0.1-0.6c0-0.2,0-0.3-0.1-0.4c0,0-0.1-0.1-0.1-0.2c-0.1-0.1-0.1-0.1-0.1-0.1c0,0,0-0.1,0-0.1
					c0-0.1,0-0.1,0-0.1c0,0,0,0,0.1,0c0.1,0,0.2,0,0.4-0.1s0.4-0.1,0.6-0.2l3.6-1.2c0.2-0.1,0.4-0.1,0.5-0.2c0.1-0.1,0.1-0.2,0-0.5
					l0-0.1c0,0,0-0.1,0.1-0.1c0.1,0,0.1,0,0.2,0c0.1,0.2,0.1,0.3,0.2,0.5c0.1,0.1,0.1,0.2,0.2,0.3c0.1,0.1,0.1,0.1,0.2,0.2
					c0,0,0.1,0.1,0.1,0.1l0,0v0c0,0,0,0,0,0.1c0,0,0,0.1-0.1,0.1c-0.2,0-0.5,0-0.8,0.2l-1.5,0.5c-0.1,0-0.1,0-0.1,0.1c0,0,0,0,0,0
					c0.1,0.1,0.2,0.2,0.3,0.3C393.6,309.8,393.6,310,393.7,310.1L393.7,310.1z M393.1,309.9c-0.1-0.2-0.1-0.3-0.3-0.4
					c-0.1-0.1-0.3-0.1-0.5,0l-2,0.7c-0.2,0.1-0.3,0.2-0.3,0.4s0,0.4,0.1,0.6c0.1,0.3,0.4,0.5,0.7,0.6c0.4,0.1,0.8,0,1.2-0.1
					c0.5-0.2,0.8-0.4,1-0.7C393.2,310.7,393.3,310.3,393.1,309.9L393.1,309.9z"/>
				<path class="st1" d="M394.7,313.9c0,0.1,0,0.2,0.1,0.3s0.1,0.2,0.1,0.3c0,0.1,0.1,0.2,0.1,0.3c0,0-0.1,0-0.1,0
					c-0.1,0-0.1,0-0.1,0c0,0,0-0.1-0.1-0.2s-0.1-0.1-0.2-0.1h0c-0.1,0-0.8,0.5-2.1,1.5l2.1,0.2c0.1,0,0.2,0,0.3,0
					c0.1,0,0.1-0.1,0.2-0.2c0-0.1,0-0.2,0-0.4c0,0,0,0,0.1-0.1c0.1,0,0.1,0,0.1,0c0,0.1,0,0.2,0.1,0.4c0,0.2,0.1,0.3,0.1,0.5
					c0,0.1,0.1,0.3,0.1,0.4c0,0.1,0.1,0.3,0.1,0.3c0,0-0.1,0-0.1,0c-0.1,0-0.1,0-0.1,0c0-0.1-0.1-0.2-0.2-0.3s-0.2-0.2-0.3-0.2
					l-4.7-0.5c-0.4,0-0.7-0.1-0.9-0.3c-0.2-0.1-0.3-0.3-0.3-0.4c0-0.1,0-0.2,0-0.3s0.1-0.1,0.2-0.1c0.1,0,0.2,0,0.3,0
					c0.1,0.5,0.5,0.8,1,0.8c0.1,0,0.2,0,0.4,0c0.1,0,0.2,0,0.3,0l2.8-2.1c0.1-0.1,0.2-0.2,0.3-0.2c0-0.1,0.1-0.2,0.1-0.3
					c0-0.1,0-0.2,0-0.3c0,0,0,0,0.1-0.1c0.1,0,0.1,0,0.1,0C394.7,313.5,394.7,313.8,394.7,313.9L394.7,313.9z"/>
			</g>
		</g>
	</g>
</g>
<g id="Layer_4">
	<polygon class="st11" points="108.4,270.4 521.4,224.4 393.4,385.4 397.4,470.4 	"/>
	<circle class="st12" cx="396.9" cy="385.6" r="21.8"/>
	<circle class="st12" cx="392" cy="461.4" r="21.8"/>
	<circle class="st12" cx="108.1" cy="270.8" r="21.8"/>
	<circle class="st12" cx="521.8" cy="226" r="21.8"/>
</g>
</svg>
