<?xml version="1.0" encoding="utf-8"?>
<!-- Generator: Adobe Illustrator 26.0.2, SVG Export Plug-In . SVG Version: 6.00 Build 0)  -->
<svg version="1.1" id="Layer_1" xmlns="http://www.w3.org/2000/svg" xmlns:xlink="http://www.w3.org/1999/xlink" x="0px" y="0px"
	 viewBox="0 0 659.7 659.7" style="enable-background:new 0 0 659.7 659.7;" xml:space="preserve">
<style type="text/css">
	.st0{fill:#B18849;}
	.st1{fill:#FFFFFF;}
	.st2{fill:none;}
	.st3{font-family:'ArialMT';}
	.st4{font-size:12.73px;}
	.st5{font-size:12.7312px;}
	.st6{font-size:12.7292px;}
	.st7{font-size:12.7286px;}
	.st8{font-size:12.731px;}
	.st9{font-size:12.729px;}
	.st10{font-size:12.7308px;}
	.st11{font-size:12.7288px;}
	.st12{font-size:12.7284px;}
	.st13{font-size:12.7302px;}
	.st14{font-size:12.7314px;}
	.st15{fill:none;stroke:#FFFFFF;stroke-width:0.9;stroke-miterlimit:10;}
	.st16{fill:#464764;}
	.st17{font-size:11.4592px;}
	.st18{font-size:11.46px;}
	.st19{font-size:11.4612px;}
	.st20{font-size:11.459px;}
	.st21{font-size:11.4588px;}
	.st22{font-size:11.4608px;}
	.st23{font-size:11.4599px;}
	.st24{font-size:11.461px;}
	.st25{font-size:11.4586px;}
	.st26{font-size:11.4609px;}
	.st27{font-size:11.4593px;}
	.st28{font-size:11.4614px;}
	.st29{font-size:11.4598px;}
	.st30{font-size:10.769px;}
	.st31{font-size:10.77px;}
	.st32{font-size:10.7691px;}
	.st33{font-size:10.7708px;}
	.st34{font-size:10.771px;}
	.st35{font-size:10.7699px;}
	.st36{font-size:10.7692px;}
	.st37{font-size:10.7694px;}
	.st38{font-size:10.7693px;}
	.st39{font-size:10.7703px;}
	.st40{font-size:10.7706px;}
	.st41{font-size:10.141px;}
	.st42{font-size:10.14px;}
	.st43{font-size:10.139px;}
	.st44{font-size:11.41px;}
	.st45{font-size:11.4092px;}
	.st46{font-size:11.409px;}
	.st47{font-size:11.4112px;}
	.st48{font-size:11.4108px;}
	.st49{font-size:11.411px;}
	.st50{font-size:11.4086px;}
	.st51{font-size:11.4088px;}
	.st52{font-size:10.1408px;}
	.st53{font-size:10.1394px;}
	.st54{font-size:10.1392px;}
	.st55{font-size:10.7698px;}
	.st56{font-size:10.7712px;}
	.st57{font-size:10.7688px;}
	.st58{fill:none;stroke:#FFFFFF;stroke-miterlimit:10;stroke-dasharray:0,0,2,2;}
	.st59{opacity:0.47;fill:#8C95B1;enable-background:new    ;}
</style>
<g id="Layer_2_00000132060166588890998910000015826827599044282246_">
	<rect x="-19.5" y="-19.5" class="st0" width="698.7" height="698.7"/>
</g>
<g id="Layer_1_00000020385178001407307590000012336418863007067787_">
	<path class="st1" d="M327.8,169.9c-88.3,0-159.9,71.6-159.9,159.9s71.6,159.9,159.9,159.9s160-71.6,160-159.9
		S416.2,169.9,327.8,169.9z M327.8,467.5c-76,0-137.7-61.7-137.7-137.7s61.6-137.7,137.7-137.7s137.7,61.6,137.7,137.7
		S403.9,467.5,327.8,467.5z"/>
	<rect x="21" y="23" class="st2" width="613.7" height="613.7"/>
	<g>
		<text transform="matrix(-0.9429 -0.333 0.333 -0.9429 238.3036 597.8546)" class="st1 st3 st4">a</text>
		<text transform="matrix(-0.9335 -0.3587 0.3587 -0.9335 232.7727 595.9219)" class="st1 st3 st5">w</text>
		<text transform="matrix(-0.9233 -0.384 0.384 -0.9233 223.7135 592.4025)" class="st1 st3 st6">a</text>
		<text transform="matrix(-0.9157 -0.4019 0.4019 -0.9157 218.303 590.1545)" class="st1 st3 st4">r</text>
		<text transform="matrix(-0.9076 -0.4199 0.4199 -0.9076 213.4435 588.0139)" class="st1 st3 st4">e</text>
		<text transform="matrix(-0.8944 -0.4473 0.4473 -0.8944 204.9434 583.9947)" class="st1 st3 st4">t</text>
		<text transform="matrix(-0.8851 -0.4655 0.4655 -0.8851 200.9039 581.983)" class="st1 st3 st5">h</text>
		<text transform="matrix(-0.8742 -0.4856 0.4856 -0.8742 194.5535 578.6237)" class="st1 st3 st4">a</text>
		<text transform="matrix(-0.8652 -0.5014 0.5014 -0.8652 189.4535 575.785)" class="st1 st3 st4">t</text>
		<text transform="matrix(-0.8463 -0.5327 0.5327 -0.8463 182.5733 571.7631)" class="st1 st3 st4">N</text>
		<text transform="matrix(-0.8316 -0.5554 0.5554 -0.8316 174.5142 566.6547)" class="st1 st3 st4">a</text>
		<text transform="matrix(-0.8213 -0.5704 0.5704 -0.8213 169.6351 563.3738)" class="st1 st3 st7">t</text>
		<text transform="matrix(-0.8097 -0.5868 0.5868 -0.8097 165.9332 560.8132)" class="st1 st3 st4">u</text>
		<text transform="matrix(-0.7968 -0.6042 0.6042 -0.7968 160.2637 556.6929)" class="st1 st3 st4">r</text>
		<text transform="matrix(-0.7847 -0.6199 0.6199 -0.7847 156.0232 553.4747)" class="st1 st3 st4">e</text>
		<text transform="matrix(-0.766 -0.6428 0.6428 -0.766 148.6832 547.5852)" class="st1 st3 st4">i</text>
		<text transform="matrix(-0.7557 -0.6549 0.6549 -0.7557 145.6538 545.0356)" class="st1 st3 st4">s</text>
		<text transform="matrix(-0.7365 -0.6765 0.6765 -0.7365 139.2549 539.4035)" class="st1 st3 st8">t</text>
		<text transform="matrix(-0.7227 -0.6911 0.6911 -0.7227 135.942 536.3702)" class="st1 st3 st9">o</text>
		<text transform="matrix(-0.6967 -0.7174 0.7174 -0.6967 128.4837 529.1336)" class="st1 st3 st4">u</text>
		<text transform="matrix(-0.6812 -0.7321 0.7321 -0.6812 123.5934 524.0751)" class="st1 st3 st4">s</text>
		<text transform="matrix(-0.6596 -0.7516 0.7516 -0.6596 117.8332 517.7943)" class="st1 st3 st4">t</text>
		<text transform="matrix(-0.6439 -0.7651 0.7651 -0.6439 114.8535 514.4122)" class="st1 st3 st4">h</text>
		<text transform="matrix(-0.6259 -0.7799 0.7799 -0.6259 110.2535 508.9132)" class="st1 st3 st4">e</text>
		<text transform="matrix(-0.5978 -0.8017 0.8017 -0.5978 104.4233 501.5627)" class="st1 st3 st5">n</text>
		<text transform="matrix(-0.5787 -0.8155 0.8155 -0.5787 100.0443 495.666)" class="st1 st3 st6">a</text>
		<text transform="matrix(-0.5547 -0.8321 0.8321 -0.5547 96.6322 490.891)" class="st1 st3 st8">m</text>
		<text transform="matrix(-0.5304 -0.8478 0.8478 -0.5304 90.8325 482.1345)" class="st1 st3 st5">e</text>
		<text transform="matrix(-0.5135 -0.8581 0.8581 -0.5135 87.6836 477.0731)" class="st1 st3 st4">s</text>
		<text transform="matrix(-0.4804 -0.8771 0.8771 -0.4804 83.3536 469.7754)" class="st1 st3 st5">w</text>
		<text transform="matrix(-0.4559 -0.89 0.89 -0.4559 78.7127 461.2337)" class="st1 st3 st10">e</text>
		<text transform="matrix(-0.4251 -0.9051 0.9051 -0.4251 74.4833 452.8347)" class="st1 st3 st9">g</text>
		<text transform="matrix(-0.4085 -0.9128 0.9128 -0.4085 71.7334 446.9434)" class="st1 st3 st8">i</text>
		<text transform="matrix(-0.3912 -0.9203 0.9203 -0.3912 70.1237 443.3546)" class="st1 st3 st4">v</text>
		<text transform="matrix(-0.3707 -0.9287 0.9287 -0.3707 67.5042 437.1627)" class="st1 st3 st11">e</text>
		<text transform="matrix(-0.3425 -0.9395 0.9395 -0.3425 64.0835 428.4034)" class="st1 st3 st4">t</text>
		<text transform="matrix(-0.3236 -0.9462 0.9462 -0.3236 62.5337 424.1643)" class="st1 st3 st4">o</text>
		<text transform="matrix(-0.3034 -0.9529 0.9529 -0.3034 59.2927 414.314)" class="st1 st3 st10">h</text>
		<text transform="matrix(-0.2672 -0.9636 0.9636 -0.2672 57.1827 407.4447)" class="st1 st3 st9">e</text>
		<text transform="matrix(-0.2484 -0.9687 0.9687 -0.2484 55.5928 401.7032)" class="st1 st3 st8">r</text>
		<text transform="matrix(5.111587e-02 -0.9987 0.9987 5.111587e-02 46.3035 317.6231)" class="st1 st3 st4">k</text>
		<text transform="matrix(7.602295e-02 -0.9971 0.9971 7.602295e-02 46.6535 310.8735)" class="st1 st3 st4">n</text>
		<text transform="matrix(0.1012 -0.9949 0.9949 0.1012 47.2138 303.5733)" class="st1 st3 st10">o</text>
		<text transform="matrix(0.1305 -0.9914 0.9914 0.1305 47.9054 296.6837)" class="st1 st3 st11">w</text>
		<text transform="matrix(0.1544 -0.988 0.988 0.1544 49.2135 287.0625)" class="st1 st3 st4">i</text>
		<text transform="matrix(0.174 -0.9847 0.9847 0.174 49.813 283.1545)" class="st1 st3 st11">n</text>
		<text transform="matrix(0.1982 -0.9802 0.9802 0.1982 51.1049 275.9129)" class="st1 st3 st8">g</text>
		<text transform="matrix(0.2375 -0.9714 0.9714 0.2375 53.1234 266.203)" class="st1 st3 st4">N</text>
		<text transform="matrix(0.2639 -0.9646 0.9646 0.2639 55.4233 256.9226)" class="st1 st3 st5">a</text>
		<text transform="matrix(0.2813 -0.9596 0.9596 0.2813 56.9734 251.2929)" class="st1 st3 st4">t</text>
		<text transform="matrix(0.3007 -0.9537 0.9537 0.3007 58.2336 246.9629)" class="st1 st3 st4">u</text>
		<text transform="matrix(0.3213 -0.947 0.947 0.3213 60.3635 240.2734)" class="st1 st3 st4">r</text>
		<text transform="matrix(0.3399 -0.9405 0.9405 0.3399 62.0726 235.2336)" class="st1 st3 st8">e</text>
		<text transform="matrix(0.3675 -0.93 0.93 0.3675 65.3435 226.3931)" class="st1 st3 st4">i</text>
		<text transform="matrix(0.3822 -0.9241 0.9241 0.3822 66.7935 222.733)" class="st1 st3 st4">s</text>
		<text transform="matrix(0.4109 -0.9117 0.9117 0.4109 70.1135 214.873)" class="st1 st3 st4">a</text>
		<text transform="matrix(0.4261 -0.9047 0.9047 0.4261 72.5338 209.5326)" class="st1 st3 st4">l</text>
		<text transform="matrix(0.4379 -0.899 0.899 0.4379 74.1235 206.163)" class="st1 st3 st4">l</text>
		<text transform="matrix(0.4652 -0.8852 0.8852 0.4652 77.3037 199.7132)" class="st1 st3 st4">b</text>
		<text transform="matrix(0.4863 -0.8738 0.8738 0.4863 80.4635 193.7139)" class="st1 st3 st4">u</text>
		<text transform="matrix(0.5039 -0.8637 0.8637 0.5039 83.9027 187.5744)" class="st1 st3 st7">t</text>
		<text transform="matrix(0.532 -0.8468 0.8468 0.532 87.942 180.723)" class="st1 st3 st5">n</text>
		<text transform="matrix(0.553 -0.8332 0.8332 0.553 91.8635 174.5127)" class="st1 st3 st4">o</text>
		<text transform="matrix(0.5696 -0.8219 0.8219 0.5696 95.7235 168.7329)" class="st1 st3 st4">t</text>
		<text transform="matrix(0.5943 -0.8043 0.8043 0.5943 100.2847 162.2323)" class="st1 st3 st5">e</text>
		<text transform="matrix(0.6129 -0.7902 0.7902 0.6129 103.8131 157.4527)" class="st1 st3 st10">n</text>
		<text transform="matrix(0.6323 -0.7747 0.7747 0.6323 108.3335 151.6426)" class="st1 st3 st4">d</text>
		<text transform="matrix(0.6464 -0.763 0.763 0.6464 112.6334 146.4128)" class="st1 st3 st4">l</text>
		<text transform="matrix(0.6593 -0.7518 0.7518 0.6593 115.0312 143.5622)" class="st1 st3 st12">e</text>
		<text transform="matrix(0.6738 -0.7389 0.7389 0.6738 118.9535 139.1123)" class="st1 st3 st4">s</text>
		<text transform="matrix(0.6868 -0.7268 0.7268 0.6868 122.3827 135.3632)" class="st1 st3 st6">s</text>
		<text transform="matrix(0.8449 -0.5349 0.5349 0.8449 174.0736 90.933)" class="st1 st3 st4">r</text>
		<text transform="matrix(0.8559 -0.5171 0.5171 0.8559 178.8237 87.9327)" class="st1 st3 st4">e</text>
		<text transform="matrix(0.8663 -0.4995 0.4995 0.8663 184.1934 84.7028)" class="st1 st3 st4">s</text>
		<text transform="matrix(0.8751 -0.4839 0.4839 0.8751 188.8537 82.0331)" class="st1 st3 st4">t</text>
		<text transform="matrix(0.8839 -0.4676 0.4676 0.8839 193.0844 79.6937)" class="st1 st3 st9">r</text>
		<text transform="matrix(0.8944 -0.4473 0.4473 0.8944 198.0536 77.0633)" class="st1 st3 st4">u</text>
		<text transform="matrix(0.9047 -0.4261 0.4261 0.9047 204.6537 73.7931)" class="st1 st3 st4">c</text>
		<text transform="matrix(0.9126 -0.4088 0.4088 0.9126 210.0236 71.2732)" class="st1 st3 st4">t</text>
		<text transform="matrix(0.9212 -0.3891 0.3891 0.9212 214.4235 69.3031)" class="st1 st3 st4">u</text>
		<text transform="matrix(0.9299 -0.3678 0.3678 0.9299 221.1935 66.4631)" class="st1 st3 st4">r</text>
		<text transform="matrix(0.9362 -0.3514 0.3514 0.9362 226.4435 64.4032)" class="st1 st3 st4">i</text>
		<text transform="matrix(0.9435 -0.3315 0.3315 0.9435 230.4425 62.8937)" class="st1 st3 st8">n</text>
		<text transform="matrix(0.9516 -0.3072 0.3072 0.9516 237.6633 60.3723)" class="st1 st3 st9">g</text>
		<text transform="matrix(0.9573 -0.289 0.289 0.9573 244.1535 58.3033)" class="st1 st3 st4">,</text>
		<text transform="matrix(0.9657 -0.2598 0.2598 0.9657 251.5138 56.1427)" class="st1 st3 st8">r</text>
		<text transform="matrix(0.9709 -0.2394 0.2394 0.9709 256.9536 54.6832)" class="st1 st3 st4">e</text>
		<text transform="matrix(0.9763 -0.2166 0.2166 0.9763 263.0238 53.1926)" class="st1 st3 st8">v</text>
		<text transform="matrix(0.9804 -0.197 0.197 0.9804 269.9136 51.6933)" class="st1 st3 st4">i</text>
		<text transform="matrix(0.9836 -0.1802 0.1802 0.9836 274.0936 50.8532)" class="st1 st3 st4">s</text>
		<text transform="matrix(0.9866 -0.1633 0.1633 0.9866 279.4036 49.8932)" class="st1 st3 st4">i</text>
		<text transform="matrix(0.9897 -0.1433 0.1433 0.9897 283.6035 49.1933)" class="st1 st3 st4">o</text>
		<text transform="matrix(0.9931 -0.1174 0.1174 0.9931 290.7635 48.1632)" class="st1 st3 st4">n</text>
		<text transform="matrix(0.9953 -9.637569e-02 9.637569e-02 0.9953 298.3944 47.2938)" class="st1 st3 st11">i</text>
		<text transform="matrix(0.9971 -7.567979e-02 7.567979e-02 0.9971 302.6338 46.8736)" class="st1 st3 st6">n</text>
		<text transform="matrix(0.9987 -5.041863e-02 5.041863e-02 0.9987 310.2736 46.3132)" class="st1 st3 st4">g</text>
		<text transform="matrix(0.9999 -1.483476e-02 1.483476e-02 0.9999 320.8535 45.8631)" class="st1 st3 st4">a</text>
		<text transform="matrix(0.9999 1.622983e-02 -1.622983e-02 0.9999 327.0039 45.752)" class="st1 st3 st10">n</text>
		<text transform="matrix(0.9994 3.437621e-02 -3.437621e-02 0.9994 334.6635 45.8632)" class="st1 st3 st4">d</text>
		<text transform="matrix(0.9976 6.958237e-02 -6.958237e-02 0.9976 345.5136 46.3232)" class="st1 st3 st4">r</text>
		<text transform="matrix(0.9959 9.045877e-02 -9.045877e-02 0.9959 351.1536 46.7232)" class="st1 st3 st4">e</text>
		<text transform="matrix(0.9941 0.1089 -0.1089 0.9941 357.3831 47.3133)" class="st1 st3 st5">i</text>
		<text transform="matrix(0.9916 0.1297 -0.1297 0.9916 361.6233 47.7615)" class="st1 st3 st5">n</text>
		<text transform="matrix(0.9885 0.1513 -0.1513 0.9885 369.2034 48.7832)" class="st1 st3 st4">t</text>
		<text transform="matrix(0.9853 0.1706 -0.1706 0.9853 373.9631 49.512)" class="st1 st3 st9">e</text>
		<text transform="matrix(0.9815 0.1913 -0.1913 0.9815 380.1426 50.5932)" class="st1 st3 st6">r</text>
		<text transform="matrix(0.9769 0.2137 -0.2137 0.9769 385.6636 51.6731)" class="st1 st3 st4">p</text>
		<text transform="matrix(0.9718 0.236 -0.236 0.9718 392.753 53.2429)" class="st1 st3 st5">r</text>
		<text transform="matrix(0.9665 0.2565 -0.2565 0.9665 398.2437 54.5832)" class="st1 st3 st13">e</text>
		<text transform="matrix(0.9614 0.2753 -0.2753 0.9614 404.2845 56.2051)" class="st1 st3 st8">t</text>
		<text transform="matrix(0.9568 0.2909 -0.2909 0.9568 408.9332 57.5425)" class="st1 st3 st5">i</text>
		<text transform="matrix(0.9504 0.311 -0.311 0.9504 413.0035 58.7732)" class="st1 st3 st4">n</text>
		<text transform="matrix(0.9421 0.3353 -0.3353 0.9421 420.2837 61.1731)" class="st1 st3 st4">g</text>
		<text transform="matrix(0.9268 0.3756 -0.3756 0.9268 430.2035 64.7732)" class="st1 st3 st4">w</text>
		<text transform="matrix(0.9147 0.4042 -0.4042 0.9147 439.4834 68.5734)" class="st1 st3 st4">h</text>
		<text transform="matrix(0.9046 0.4263 -0.4263 0.9046 446.3434 71.6231)" class="st1 st3 st4">a</text>
		<text transform="matrix(0.8962 0.4437 -0.4437 0.8962 451.9237 74.2732)" class="st1 st3 st4">t</text>
		<text transform="matrix(0.8779 0.4788 -0.4788 0.8779 459.6035 78.1233)" class="st1 st3 st4">w</text>
		<text transform="matrix(0.8638 0.5038 -0.5038 0.8638 468.3737 82.9534)" class="st1 st3 st4">e</text>
		<text transform="matrix(0.8445 0.5355 -0.5355 0.8445 477.0036 88.0731)" class="st1 st3 st4">u</text>
		<text transform="matrix(0.8301 0.5576 -0.5576 0.8301 483.1837 92.0033)" class="st1 st3 st4">n</text>
		<text transform="matrix(0.8153 0.579 -0.579 0.8153 489.5233 96.2832)" class="st1 st3 st4">d</text>
		<text transform="matrix(0.8016 0.5979 -0.5979 0.8016 495.3037 100.4032)" class="st1 st3 st4">e</text>
		<text transform="matrix(0.7889 0.6146 -0.6146 0.7889 500.323 104.1627)" class="st1 st3 st5">r</text>
		<text transform="matrix(0.7769 0.6296 -0.6296 0.7769 504.7538 107.6333)" class="st1 st3 st4">s</text>
		<text transform="matrix(0.7655 0.6435 -0.6435 0.7655 508.9431 111.033)" class="st1 st3 st8">t</text>
		<text transform="matrix(0.753 0.658 -0.658 0.753 512.6233 114.1331)" class="st1 st3 st4">a</text>
		<text transform="matrix(0.7369 0.676 -0.676 0.7369 517.2728 118.1932)" class="st1 st3 st4">n</text>
		<text transform="matrix(0.7192 0.6948 -0.6948 0.7192 522.9044 123.3833)" class="st1 st3 st4">d</text>
		<text transform="matrix(0.6934 0.7206 -0.7206 0.6934 530.6533 131.0026)" class="st1 st3 st10">a</text>
		<text transform="matrix(0.6787 0.7344 -0.7344 0.6787 534.9342 135.4631)" class="st1 st3 st4">s</text>
		<text transform="matrix(0.6521 0.7581 -0.7581 0.6521 541.0836 142.2133)" class="st1 st3 st4">h</text>
		<text transform="matrix(0.6322 0.7748 -0.7748 0.6322 545.973 147.9232)" class="st1 st3 st4">u</text>
		<text transform="matrix(0.6072 0.7945 -0.7945 0.6072 550.6024 153.5746)" class="st1 st3 st9">m</text>
		<text transform="matrix(0.5833 0.8123 -0.8123 0.5833 557.1526 162.2251)" class="st1 st3 st10">a</text>
		<text transform="matrix(0.5632 0.8263 -0.8263 0.5632 560.7534 167.2333)" class="st1 st3 st4">n</text>
		<text transform="matrix(0.5442 0.839 -0.839 0.5442 565.0428 173.5837)" class="st1 st3 st8">s</text>
		<text transform="matrix(0.5305 0.8477 -0.8477 0.5305 567.9539 178.103)" class="st1 st3 st4">,</text>
		<text transform="matrix(0.4983 0.867 -0.867 0.4983 571.9938 184.6134)" class="st1 st3 st4">N</text>
		<text transform="matrix(0.4736 0.8807 -0.8807 0.4736 576.8837 193.1825)" class="st1 st3 st6">a</text>
		<text transform="matrix(0.4563 0.8898 -0.8898 0.4563 579.7932 198.6432)" class="st1 st3 st4">t</text>
		<text transform="matrix(0.4371 0.8994 -0.8994 0.4371 581.9938 202.9233)" class="st1 st3 st4">u</text>
		<text transform="matrix(0.4164 0.9092 -0.9092 0.4164 585.1737 209.5132)" class="st1 st3 st4">r</text>
		<text transform="matrix(0.3971 0.9178 -0.9178 0.3971 587.5234 214.6532)" class="st1 st3 st4">e</text>
		<text transform="matrix(0.3646 0.9312 -0.9312 0.3646 591.4335 223.8848)" class="st1 st3 st10">a</text>
		<text transform="matrix(0.3425 0.9395 -0.9395 0.3425 593.6839 229.6532)" class="st1 st3 st4">d</text>
		<text transform="matrix(0.3178 0.9482 -0.9482 0.3178 596.0937 236.3038)" class="st1 st3 st8">n</text>
		<text transform="matrix(0.2838 0.9589 -0.9589 0.2838 599.6334 247.1833)" class="st1 st3 st4">t</text>
		<text transform="matrix(0.2629 0.9648 -0.9648 0.2629 601.0033 251.7932)" class="st1 st3 st4">h</text>
		<text transform="matrix(0.2392 0.971 -0.971 0.2392 602.9542 259.0433)" class="st1 st3 st4">e</text>
		<text transform="matrix(0.2016 0.9795 -0.9795 0.2016 605.2847 268.7829)" class="st1 st3 st10">E</text>
		<text transform="matrix(0.1769 0.9842 -0.9842 0.1769 606.873 276.6333)" class="st1 st3 st4">a</text>
		<text transform="matrix(0.1564 0.9877 -0.9877 0.1564 607.9536 282.7231)" class="st1 st3 st4">r</text>
		<text transform="matrix(0.1381 0.9904 -0.9904 0.1381 608.8232 288.2833)" class="st1 st3 st4">t</text>
		<text transform="matrix(0.1167 0.9932 -0.9932 0.1167 609.493 293.0517)" class="st1 st3 st10">h</text>
		<text transform="matrix(-0.2083 0.9781 -0.9781 -0.2083 606.0944 386.9527)" class="st1 st3 st10">r</text>
		<text transform="matrix(-0.2287 0.9735 -0.9735 -0.2287 604.9238 392.4432)" class="st1 st3 st4">e</text>
		<text transform="matrix(-0.2489 0.9685 -0.9685 -0.2489 603.472 398.5434)" class="st1 st3 st4">s</text>
		<text transform="matrix(-0.2662 0.9639 -0.9639 -0.2662 602.1246 403.753)" class="st1 st3 st4">t</text>
		<text transform="matrix(-0.285 0.9585 -0.9585 -0.285 600.8326 408.4036)" class="st1 st3 st4">a</text>
		<text transform="matrix(-0.3075 0.9515 -0.9515 -0.3075 599.0842 414.3027)" class="st1 st3 st11">b</text>
		<text transform="matrix(-0.3262 0.9453 -0.9453 -0.3262 596.863 421.0734)" class="st1 st3 st4">l</text>
		<text transform="matrix(-0.3402 0.9403 -0.9403 -0.3402 595.5347 424.8927)" class="st1 st3 st11">i</text>
		<text transform="matrix(-0.3562 0.9344 -0.9344 -0.3562 594.0834 428.9136)" class="st1 st3 st4">s</text>
		<text transform="matrix(-0.3775 0.926 -0.926 -0.3775 592.1642 433.9426)" class="st1 st3 st4">h</text>
		<text transform="matrix(-0.3968 0.9179 -0.9179 -0.3968 589.3032 440.8925)" class="st1 st3 st4">i</text>
		<text transform="matrix(-0.416 0.9094 -0.9094 -0.416 587.6315 444.7822)" class="st1 st3 st10">n</text>
		<text transform="matrix(-0.4392 0.8984 -0.8984 -0.4392 584.4236 451.7527)" class="st1 st3 st4">g</text>
		<text transform="matrix(-0.4705 0.8824 -0.8824 -0.4705 579.6925 461.2231)" class="st1 st3 st4">r</text>
		<text transform="matrix(-0.4889 0.8723 -0.8723 -0.4889 577.0452 466.1726)" class="st1 st3 st6">e</text>
		<text transform="matrix(-0.5068 0.8621 -0.8621 -0.5068 573.9622 471.6538)" class="st1 st3 st10">s</text>
		<text transform="matrix(-0.5259 0.8505 -0.8505 -0.5259 571.2323 476.2823)" class="st1 st3 st9">p</text>
		<text transform="matrix(-0.5458 0.8379 -0.8379 -0.5458 567.4131 482.4331)" class="st1 st3 st4">e</text>
		<text transform="matrix(-0.5638 0.8259 -0.8259 -0.5638 563.9831 487.6833)" class="st1 st3 st4">c</text>
		<text transform="matrix(-0.5793 0.8151 -0.8151 -0.5793 560.6148 492.6029)" class="st1 st3 st4">t</text>
		<text transform="matrix(-0.6033 0.7975 -0.7975 -0.6033 555.5728 499.5627)" class="st1 st3 st4">f</text>
		<text transform="matrix(-0.6199 0.7847 -0.7847 -0.6199 552.7528 503.2929)" class="st1 st3 st4">o</text>
		<text transform="matrix(-0.6374 0.7705 -0.7705 -0.6374 548.2625 508.9535)" class="st1 st3 st4">r</text>
		<text transform="matrix(-0.6682 0.744 -0.744 -0.6682 542.2239 516.1726)" class="st1 st3 st4">w</text>
		<text transform="matrix(-0.6908 0.7231 -0.7231 -0.6908 535.493 523.613)" class="st1 st3 st8">h</text>
		<text transform="matrix(-0.7077 0.7065 -0.7065 -0.7077 530.3132 529.0026)" class="st1 st3 st4">a</text>
		<text transform="matrix(-0.7213 0.6926 -0.6926 -0.7213 525.9224 533.3624)" class="st1 st3 st4">t</text>
		<text transform="matrix(-0.7412 0.6713 -0.6713 -0.7412 519.663 539.2824)" class="st1 st3 st4">i</text>
		<text transform="matrix(-0.7524 0.6587 -0.6587 -0.7524 516.5046 542.1324)" class="st1 st3 st4">s</text>
		<text transform="matrix(-0.7752 0.6318 -0.6318 -0.7752 509.572 548.1129)" class="st1 st3 st14">o</text>
		<text transform="matrix(-0.791 0.6118 -0.6118 -0.791 503.9534 552.6823)" class="st1 st3 st4">u</text>
		<text transform="matrix(-0.8039 0.5948 -0.5948 -0.8039 498.1349 557.1529)" class="st1 st3 st4">t</text>
		<text transform="matrix(-0.8144 0.5803 -0.5803 -0.8144 494.254 560.0137)" class="st1 st3 st4">s</text>
		<text transform="matrix(-0.8241 0.5664 -0.5664 -0.8241 489.8645 563.1334)" class="st1 st3 st4">i</text>
		<text transform="matrix(-0.8353 0.5498 -0.5498 -0.8353 486.3424 565.5536)" class="st1 st3 st4">d</text>
		<text transform="matrix(-0.848 0.5301 -0.5301 -0.848 480.4032 569.443)" class="st1 st3 st14">e</text>
		<text transform="matrix(-0.8649 0.502 -0.502 -0.8649 471.843 574.6928)" class="st1 st3 st4">t</text>
		<text transform="matrix(-0.8755 0.4831 -0.4831 -0.8755 467.6945 577.1017)" class="st1 st3 st7">h</text>
		<text transform="matrix(-0.887 0.4617 -0.4617 -0.887 461.1242 580.7142)" class="st1 st3 st6">e</text>
		<text transform="matrix(-0.9118 0.4106 -0.4106 -0.9118 448.8033 586.9233)" class="st1 st3 st4">m</text>
		<text transform="matrix(-0.9238 0.3828 -0.3828 -0.9238 438.8937 591.3328)" class="st1 st3 st4">a</text>
		<text transform="matrix(-0.9329 0.3602 -0.3602 -0.9329 433.2031 593.6826)" class="st1 st3 st4">n</text>
		<text transform="matrix(-0.9417 0.3364 -0.3364 -0.9417 426.0429 596.4326)" class="st1 st3 st4">y</text>
		<text transform="matrix(-0.9528 0.3037 -0.3037 -0.9528 416.2836 599.8237)" class="st1 st3 st10">s</text>
		<text transform="matrix(-0.9594 0.2822 -0.2822 -0.9594 411.1537 601.463)" class="st1 st3 st8">p</text>
		<text transform="matrix(-0.9664 0.2571 -0.2571 -0.9664 404.1944 603.4921)" class="st1 st3 st4">h</text>
		<text transform="matrix(-0.9724 0.2334 -0.2334 -0.9724 396.9527 605.4037)" class="st1 st3 st4">e</text>
		<text transform="matrix(-0.9771 0.2129 -0.2129 -0.9771 390.8641 606.8536)" class="st1 st3 st4">r</text>
		<text transform="matrix(-0.9814 0.1922 -0.1922 -0.9814 385.3332 608.0533)" class="st1 st3 st5">e</text>
		<text transform="matrix(-0.9851 0.1719 -0.1719 -0.9851 379.1841 609.2424)" class="st1 st3 st4">s</text>
		<text transform="matrix(-0.9906 0.1369 -0.1369 -0.9906 370.1643 610.7439)" class="st1 st3 st4">o</text>
		<text transform="matrix(-0.9932 0.116 -0.116 -0.9932 362.9624 611.7126)" class="st1 st3 st4">f</text>
		<text transform="matrix(-0.9963 8.628631e-02 -8.628631e-02 -0.9963 354.5833 612.6221)" class="st1 st3 st4">t</text>
		<text transform="matrix(-0.9979 6.488066e-02 -6.488066e-02 -0.9979 349.7834 613.0441)" class="st1 st3 st4">h</text>
		<text transform="matrix(-0.9992 4.100049e-02 -4.100049e-02 -0.9992 342.3048 613.5127)" class="st1 st3 st8">e</text>
		<text transform="matrix(-0.9999 1.622970e-02 -1.622970e-02 -0.9999 332.2429 613.8218)" class="st1 st3 st10">“</text>
		<text transform="matrix(-1 -7.853364e-03 7.853364e-03 -1 327.5035 613.8757)" class="st1 st3 st10">I</text>
		<text transform="matrix(-0.9997 -2.443207e-02 2.443207e-02 -0.9997 322.623 613.823)" class="st1 st3 st4">”</text>
	</g>
	<g>
		<line class="st15" x1="306.9" y1="487.4" x2="290.1" y2="599.7"/>
		<line class="st15" x1="353.4" y1="485.4" x2="370.4" y2="599"/>
		<line class="st15" x1="396.9" y1="470.5" x2="446.9" y2="575"/>
		<line class="st15" x1="435.5" y1="445.6" x2="513" y2="529.8"/>
		<line class="st15" x1="465.6" y1="407.6" x2="563.1" y2="467.5"/>
		<line class="st15" x1="483.3" y1="367.4" x2="592.9" y2="393.3"/>
		<line class="st15" x1="487.5" y1="320.9" x2="600.4" y2="313.5"/>
		<line class="st15" x1="474.2" y1="275.1" x2="583.5" y2="235"/>
		<line class="st15" x1="455.7" y1="233.8" x2="544.7" y2="164.6"/>
		<line class="st15" x1="421.9" y1="200.9" x2="486.9" y2="108.4"/>
		<line class="st15" x1="379.1" y1="181.5" x2="414.9" y2="71.5"/>
		<line class="st15" x1="333.1" y1="171.3" x2="335.1" y2="57.2"/>
		<line class="st15" x1="285.6" y1="175.9" x2="254.5" y2="67.9"/>
		<line class="st15" x1="241.5" y1="195.1" x2="180" y2="100.8"/>
		<line class="st15" x1="205.4" y1="227" x2="118.7" y2="155"/>
		<line class="st15" x1="182.5" y1="269.1" x2="76.4" y2="224.5"/>
		<line class="st15" x1="168.6" y1="315" x2="57.6" y2="303.8"/>
		<line class="st15" x1="174" y1="362.5" x2="61.5" y2="384.9"/>
		<line class="st15" x1="188.4" y1="407.8" x2="89.1" y2="461.4"/>
		<line class="st15" x1="218.6" y1="444.5" x2="138.4" y2="525.8"/>
		<line class="st15" x1="256.9" y1="471.9" x2="204.3" y2="572.8"/>
	</g>
	<text transform="matrix(0.2473 -0.9689 0.9689 0.2473 186.4232 295.7134)" class="st16 st3 st17">s</text>
	<text transform="matrix(0.284 -0.9588 0.9588 0.284 187.5436 291.3129)" class="st16 st3 st18">h</text>
	<text transform="matrix(0.3226 -0.9465 0.9465 0.3226 189.3928 285.1534)" class="st16 st3 st17">a</text>
	<text transform="matrix(0.3598 -0.933 0.933 0.3598 191.0835 280.2026)" class="st16 st3 st18">p</text>
	<text transform="matrix(0.3912 -0.9203 0.9203 0.3912 193.3537 274.3929)" class="st16 st3 st18">i</text>
	<text transform="matrix(0.4231 -0.9061 0.9061 0.4231 194.7137 271.1538)" class="st16 st3 st18">n</text>
	<text transform="matrix(0.4613 -0.8873 0.8873 0.4613 197.5023 265.2137)" class="st16 st3 st19">g</text>
	<text transform="matrix(0.5232 -0.8522 0.8522 0.5232 201.6734 257.3628)" class="st16 st3 st18">w</text>
	<text transform="matrix(0.5635 -0.8261 0.8261 0.5635 206.2836 249.9625)" class="st16 st3 st18">a</text>
	<text transform="matrix(0.5938 -0.8046 0.8046 0.5938 209.2336 245.6323)" class="st16 st3 st18">y</text>
	<text transform="matrix(0.6213 -0.7836 0.7836 0.6213 212.5635 241.1528)" class="st16 st3 st18">s</text>
	<text transform="matrix(0.6656 -0.7463 0.7463 0.6656 217.3735 235.2231)" class="st16 st3 st18">o</text>
	<text transform="matrix(0.691 -0.7228 0.7228 0.691 221.5345 230.6039)" class="st16 st3 st20">f</text>
	<text transform="matrix(0.7298 -0.6837 0.6837 0.7298 226.3934 225.6133)" class="st16 st3 st18">d</text>
	<text transform="matrix(0.7578 -0.6525 0.6525 0.7578 230.8236 221.4728)" class="st16 st3 st18">o</text>
	<text transform="matrix(0.7791 -0.6269 0.6269 0.7791 235.5637 217.433)" class="st16 st3 st18">i</text>
	<text transform="matrix(0.8004 -0.5994 0.5994 0.8004 238.2934 215.2228)" class="st16 st3 st20">n</text>
	<text transform="matrix(0.8251 -0.565 0.565 0.8251 243.5836 211.2832)" class="st16 st3 st18">g</text>
	<text transform="matrix(0.8572 -0.515 0.515 0.8572 250.9935 206.3428)" class="st16 st3 st18">a</text>
	<text transform="matrix(0.8774 -0.4798 0.4798 0.8774 255.4736 203.6532)" class="st16 st3 st18">n</text>
	<text transform="matrix(0.8973 -0.4413 0.4413 0.8973 261.2329 200.5239)" class="st16 st3 st21">d</text>
	<text transform="matrix(0.927 -0.3751 0.3751 0.927 269.4935 196.5434)" class="st16 st3 st18">w</text>
	<text transform="matrix(0.944 -0.33 0.33 0.944 277.5636 193.3434)" class="st16 st3 st18">a</text>
	<text transform="matrix(0.9557 -0.2944 0.2944 0.9557 282.5135 191.6131)" class="st16 st3 st18">y</text>
	<text transform="matrix(0.9654 -0.2607 0.2607 0.9654 287.8635 189.9831)" class="st16 st3 st18">s</text>
	<text transform="matrix(0.9784 -0.2067 0.2067 0.9784 295.2635 188.0832)" class="st16 st3 st18">a</text>
	<text transform="matrix(0.986 -0.1668 0.1668 0.986 300.3835 187.0031)" class="st16 st3 st18">n</text>
	<text transform="matrix(0.9923 -0.1238 0.1238 0.9923 306.8636 185.9232)" class="st16 st3 st18">d</text>
	<text transform="matrix(0.9975 -7.062699e-02 7.062699e-02 0.9975 315.9936 184.9131)" class="st16 st3 st18">l</text>
	<text transform="matrix(0.9989 -4.728079e-02 4.728079e-02 0.9989 319.3036 184.6832)" class="st16 st3 st18">i</text>
	<text transform="matrix(0.9999 -1.622983e-02 1.622983e-02 0.9999 322.8337 184.5116)" class="st16 st3 st22">v</text>
	<text transform="matrix(0.9998 1.745407e-02 -1.745407e-02 0.9998 328.8734 184.4435)" class="st16 st3 st20">i</text>
	<text transform="matrix(0.9987 5.163525e-02 -5.163525e-02 0.9987 332.3828 184.4932)" class="st16 st3 st22">n</text>
	<text transform="matrix(0.9956 9.376080e-02 -9.376080e-02 0.9956 338.9636 184.8434)" class="st16 st3 st18">g</text>
	<text transform="matrix(0.989 0.148 -0.148 0.989 347.8234 185.8033)" class="st16 st3 st18">f</text>
	<text transform="matrix(0.9833 0.1822 -0.1822 0.9833 351.6434 186.3633)" class="st16 st3 st22">o</text>
	<text transform="matrix(0.9757 0.2193 -0.2193 0.9757 357.7545 187.5222)" class="st16 st3 st23">r</text>
	<text transform="matrix(0.9008 0.4343 -0.4343 0.9008 388.6834 197.7535)" class="st16 st3 st18">e</text>
	<text transform="matrix(0.8822 0.4709 -0.4709 0.8822 393.4636 200.0533)" class="st16 st3 st18">n</text>
	<text transform="matrix(0.8623 0.5063 -0.5063 0.8623 399.2545 203.1735)" class="st16 st3 st21">a</text>
	<text transform="matrix(0.842 0.5395 -0.5395 0.842 403.7834 205.8332)" class="st16 st3 st18">b</text>
	<text transform="matrix(0.824 0.5666 -0.5666 0.824 408.8934 209.1433)" class="st16 st3 st18">l</text>
	<text transform="matrix(0.8105 0.5858 -0.5858 0.8105 411.6435 211.0444)" class="st16 st3 st22">i</text>
	<text transform="matrix(0.7897 0.6135 -0.6135 0.7897 414.5037 213.0934)" class="st16 st3 st18">n</text>
	<text transform="matrix(0.763 0.6464 -0.6464 0.763 419.6939 217.1431)" class="st16 st3 st18">g</text>
	<text transform="matrix(0.7213 0.6926 -0.6926 0.7213 426.4135 222.9732)" class="st16 st3 st18">o</text>
	<text transform="matrix(0.6948 0.7192 -0.7192 0.6948 430.8934 227.3132)" class="st16 st3 st18">r</text>
	<text transform="matrix(0.6431 0.7658 -0.7658 0.6431 436.2937 232.9633)" class="st16 st3 st18">m</text>
	<text transform="matrix(0.6036 0.7973 -0.7973 0.6036 442.3138 240.2334)" class="st16 st3 st18">e</text>
	<text transform="matrix(0.572 0.8203 -0.8203 0.572 445.5328 244.4828)" class="st16 st3 st22">d</text>
	<text transform="matrix(0.5448 0.8386 -0.8386 0.5448 448.9831 249.4734)" class="st16 st3 st18">i</text>
	<text transform="matrix(0.5192 0.8546 -0.8546 0.5192 450.903 252.4224)" class="st16 st3 st20">a</text>
	<text transform="matrix(0.4915 0.8709 -0.8709 0.4915 453.6235 256.9333)" class="st16 st3 st18">t</text>
	<text transform="matrix(0.4687 0.8834 -0.8834 0.4687 455.6024 260.4636)" class="st16 st3 st22">i</text>
	<text transform="matrix(0.4377 0.8991 -0.8991 0.4377 457.2537 263.5531)" class="st16 st3 st18">n</text>
	<text transform="matrix(0.3987 0.9171 -0.9171 0.3987 460.1243 269.483)" class="st16 st3 st18">g</text>
	<text transform="matrix(0.344 0.939 -0.939 0.344 463.5629 277.6935)" class="st16 st3 st18">c</text>
	<text transform="matrix(0.3072 0.9516 -0.9516 0.3072 465.3048 282.4118)" class="st16 st3 st20">o</text>
	<text transform="matrix(0.2553 0.9669 -0.9669 0.2553 467.2338 288.2931)" class="st16 st3 st22">m</text>
	<text transform="matrix(0.2026 0.9793 -0.9793 0.2026 469.5821 297.4231)" class="st16 st3 st22">p</text>
	<text transform="matrix(0.17 0.9854 -0.9854 0.17 470.8144 303.5536)" class="st16 st3 st20">l</text>
	<text transform="matrix(0.1406 0.9901 -0.9901 0.1406 471.3916 306.834)" class="st16 st3 st22">e</text>
	<text transform="matrix(0.103 0.9947 -0.9947 0.103 472.1237 312.0833)" class="st16 st3 st18">x</text>
	<text transform="matrix(4.117417e-02 0.9992 -0.9992 4.117417e-02 472.9332 320.8832)" class="st16 st3 st19">p</text>
	<text transform="matrix(1.622984e-02 0.9999 -0.9999 1.622984e-02 473.1432 327.084)" class="st16 st3 st22">r</text>
	<text transform="matrix(-3.297783e-02 0.9995 -0.9995 -3.297783e-02 473.1949 331.8626)" class="st16 st3 st24">o</text>
	<text transform="matrix(-7.114444e-02 0.9975 -0.9975 -7.114444e-02 472.9626 338.0632)" class="st16 st3 st22">c</text>
	<text transform="matrix(-0.1066 0.9943 -0.9943 -0.1066 472.6036 343.1032)" class="st16 st3 st18">e</text>
	<text transform="matrix(-0.1402 0.9901 -0.9901 -0.1402 472.0135 348.3933)" class="st16 st3 st18">s</text>
	<text transform="matrix(-0.1711 0.9853 -0.9853 -0.1711 471.373 352.8824)" class="st16 st3 st24">s</text>
	<text transform="matrix(-0.2043 0.9789 -0.9789 -0.2043 470.6042 357.3233)" class="st16 st3 st18">e</text>
	<text transform="matrix(-0.2377 0.9713 -0.9713 -0.2377 469.4936 362.5435)" class="st16 st3 st17">s</text>
	<text transform="matrix(-0.2867 0.958 -0.958 -0.2867 467.584 369.9534)" class="st16 st3 st18">f</text>
	<text transform="matrix(-0.3198 0.9475 -0.9475 -0.3198 466.4831 373.6433)" class="st16 st3 st18">o</text>
	<text transform="matrix(-0.3558 0.9346 -0.9346 -0.3558 464.4737 379.5428)" class="st16 st3 st22">r</text>
	<text transform="matrix(-0.5376 0.8432 -0.8432 -0.5376 451.6135 406.0935)" class="st16 st3 st18">r</text>
	<text transform="matrix(-0.5666 0.824 -0.824 -0.5666 449.0529 410.1031)" class="st16 st3 st18">e</text>
	<text transform="matrix(-0.5997 0.8002 -0.8002 -0.5997 446.0334 414.4936)" class="st16 st3 st18">n</text>
	<text transform="matrix(-0.6337 0.7736 -0.7736 -0.6337 442.0832 419.7334)" class="st16 st3 st18">d</text>
	<text transform="matrix(-0.6633 0.7484 -0.7484 -0.6633 438.2234 424.4222)" class="st16 st3 st22">e</text>
	<text transform="matrix(-0.6856 0.728 -0.728 -0.6856 434.6836 428.3832)" class="st16 st3 st18">i</text>
	<text transform="matrix(-0.7104 0.7038 -0.7038 -0.7104 432.2728 430.9721)" class="st16 st3 st18">n</text>
	<text transform="matrix(-0.7395 0.6731 -0.6731 -0.7395 427.5919 435.5822)" class="st16 st3 st17">g</text>
	<text transform="matrix(-0.7743 0.6328 -0.6328 -0.7743 420.9135 441.4932)" class="st16 st3 st18">i</text>
	<text transform="matrix(-0.7957 0.6057 -0.6057 -0.7957 418.2031 443.7321)" class="st16 st3 st18">n</text>
	<text transform="matrix(-0.8169 0.5767 -0.5767 -0.8169 412.9324 447.7025)" class="st16 st3 st20">f</text>
	<text transform="matrix(-0.8363 0.5483 -0.5483 -0.8363 409.7827 449.9427)" class="st16 st3 st18">o</text>
	<text transform="matrix(-0.8564 0.5162 -0.5162 -0.8564 404.5539 453.334)" class="st16 st3 st25">r</text>
	<text transform="matrix(-0.8806 0.4738 -0.4738 -0.8806 400.5236 455.8132)" class="st16 st3 st18">m</text>
	<text transform="matrix(-0.9034 0.4288 -0.4288 -0.9034 392.193 460.2224)" class="st16 st3 st18">a</text>
	<text transform="matrix(-0.9167 0.3995 -0.3995 -0.9167 387.443 462.4624)" class="st16 st3 st18">t</text>
	<text transform="matrix(-0.9269 0.3754 -0.3754 -0.9269 383.7339 464.0636)" class="st16 st3 st22">i</text>
	<text transform="matrix(-0.939 0.3438 -0.3438 -0.939 380.4628 465.4014)" class="st16 st3 st20">o</text>
	<text transform="matrix(-0.9533 0.302 -0.302 -0.9533 374.6429 467.5331)" class="st16 st3 st18">n</text>
	<text transform="matrix(-0.9703 0.2419 -0.2419 -0.9703 365.3949 470.3236)" class="st16 st3 st18">a</text>
	<text transform="matrix(-0.9783 0.2072 -0.2072 -0.9783 360.2837 471.5825)" class="st16 st3 st18">c</text>
	<text transform="matrix(-0.9849 0.173 -0.173 -0.9849 355.3433 472.6218)" class="st16 st3 st18">c</text>
	<text transform="matrix(-0.9905 0.1378 -0.1378 -0.9905 350.3949 473.4828)" class="st16 st3 st24">e</text>
	<text transform="matrix(-0.9946 0.1042 -0.1042 -0.9946 345.1133 474.2022)" class="st16 st3 st24">s</text>
	<text transform="matrix(-0.9971 7.671172e-02 -7.671172e-02 -0.9971 340.5925 474.6636)" class="st16 st3 st24">i</text>
	<text transform="matrix(-0.999 4.397107e-02 -4.397107e-02 -0.999 337.0831 474.9435)" class="st16 st3 st17">b</text>
	<text transform="matrix(-0.9999 1.622970e-02 -1.622970e-02 -0.9999 330.9632 475.1758)" class="st16 st3 st22">l</text>
	<text transform="matrix(-0.9999 -1.727630e-02 1.727630e-02 -0.9999 327.6543 475.2336)" class="st16 st3 st19">e</text>
	<text transform="matrix(-0.9977 -6.835813e-02 6.835813e-02 -0.9977 319.2126 474.9634)" class="st16 st3 st26">i</text>
	<text transform="matrix(-0.9947 -0.1028 0.1028 -0.9947 315.6943 474.7425)" class="st16 st3 st18">n</text>
	<text transform="matrix(-0.9463 -0.3234 0.3234 -0.9463 284.9859 468.875)" class="st16 st3 st22">m</text>
	<text transform="matrix(-0.9286 -0.371 0.371 -0.9286 276.0632 465.7651)" class="st16 st3 st18">a</text>
	<text transform="matrix(-0.9162 -0.4008 0.4008 -0.9162 271.1933 463.7968)" class="st16 st3 st22">t</text>
	<text transform="matrix(-0.9027 -0.4302 0.4302 -0.9027 267.5139 462.1839)" class="st16 st3 st18">e</text>
	<text transform="matrix(-0.8873 -0.4613 0.4613 -0.8873 262.7149 459.886)" class="st16 st3 st19">r</text>
	<text transform="matrix(-0.8737 -0.4865 0.4865 -0.8737 258.4937 457.6641)" class="st16 st3 st18">i</text>
	<text transform="matrix(-0.8586 -0.5126 0.5126 -0.8586 255.4032 455.9543)" class="st16 st3 st18">a</text>
	<text transform="matrix(-0.8431 -0.5377 0.5377 -0.8431 250.9042 453.2452)" class="st16 st3 st27">l</text>
	<text transform="matrix(-0.8301 -0.5576 0.5576 -0.8301 248.0834 451.4339)" class="st16 st3 st18">i</text>
	<text transform="matrix(-0.8131 -0.5821 0.5821 -0.8131 245.1435 449.4649)" class="st16 st3 st18">z</text>
	<text transform="matrix(-0.7954 -0.6061 0.6061 -0.7954 240.9635 446.4525)" class="st16 st3 st18">i</text>
	<text transform="matrix(-0.774 -0.6332 0.6332 -0.774 238.1535 444.3348)" class="st16 st3 st18">n</text>
	<text transform="matrix(-0.7465 -0.6654 0.6654 -0.7465 233.0834 440.1541)" class="st16 st3 st18">g</text>
	<text transform="matrix(-0.7028 -0.7114 0.7114 -0.7028 226.5037 434.1549)" class="st16 st3 st18">n</text>
	<text transform="matrix(-0.6735 -0.7392 0.7392 -0.6735 221.9037 429.4731)" class="st16 st3 st18">a</text>
	<text transform="matrix(-0.6479 -0.7618 0.7618 -0.6479 218.3755 425.5715)" class="st16 st3 st28">r</text>
	<text transform="matrix(-0.6225 -0.7826 0.7826 -0.6225 215.2937 421.9333)" class="st16 st3 st18">r</text>
	<text transform="matrix(-0.5954 -0.8034 0.8034 -0.5954 212.3333 418.2127)" class="st16 st3 st18">a</text>
	<text transform="matrix(-0.5696 -0.8219 0.8219 -0.5696 209.2233 413.9838)" class="st16 st3 st18">t</text>
	<text transform="matrix(-0.5479 -0.8366 0.8366 -0.5479 206.9243 410.6439)" class="st16 st3 st24">i</text>
	<text transform="matrix(-0.5203 -0.854 0.854 -0.5203 204.9832 407.7136)" class="st16 st3 st18">v</text>
	<text transform="matrix(-0.4865 -0.8737 0.8737 -0.4865 201.8635 402.5543)" class="st16 st3 st18">e</text>
	<text transform="matrix(-0.4565 -0.8897 0.8897 -0.4565 199.2934 397.9042)" class="st16 st3 st18">s</text>
	<text transform="matrix(-0.4067 -0.9136 0.9136 -0.4067 195.8833 391.0624)" class="st16 st3 st29">a</text>
	<text transform="matrix(-0.3691 -0.9294 0.9294 -0.3691 193.7536 386.295)" class="st16 st3 st18">n</text>
	<text transform="matrix(-0.3282 -0.9446 0.9446 -0.3282 191.3436 380.1939)" class="st16 st3 st18">d</text>
	<text transform="matrix(-0.2676 -0.9635 0.9635 -0.2676 188.4436 371.4732)" class="st16 st3 st18">v</text>
	<text transform="matrix(-0.2355 -0.9719 0.9719 -0.2355 186.8535 365.6642)" class="st16 st3 st18">i</text>
	<text transform="matrix(-0.2083 -0.9781 0.9781 -0.2083 186.0232 362.2331)" class="st16 st3 st22">s</text>
	<text transform="matrix(-0.181 -0.9835 0.9835 -0.181 185.0936 357.8034)" class="st16 st3 st18">i</text>
	<text transform="matrix(-0.148 -0.989 0.989 -0.148 184.4435 354.3432)" class="st16 st3 st18">o</text>
	<text transform="matrix(-0.1044 -0.9945 0.9945 -0.1044 183.5328 348.2062)" class="st16 st3 st17">n</text>
	<text transform="matrix(-6.644800e-02 -0.9978 0.9978 -6.644800e-02 182.8735 341.6345)" class="st16 st3 st18">s</text>
	<text transform="matrix(-1.622984e-02 -0.9999 0.9999 -1.622984e-02 182.4725 334.0339)" class="st16 st3 st22">o</text>
	<text transform="matrix(2.495562e-02 -0.9997 0.9997 2.495562e-02 182.4236 327.8235)" class="st16 st3 st18">f</text>
	<circle class="st15" cx="327.8" cy="329.8" r="272.5"/>
	<circle class="st15" cx="329.9" cy="328.6" r="300.6"/>
	<g>
		<text transform="matrix(0.6691 0.7431 -0.7431 0.6691 155.3035 136.6537)" class="st1 st3 st21">Slow economies</text>
		<text transform="matrix(0.4226 0.9063 -0.9063 0.4226 222.2337 96.6232)" class="st1 st3 st18">Slower lifestyles</text>
		<text transform="matrix(0.1392 0.9903 -0.9903 0.1392 303.5617 72.7233)" class="st1 st3 st22">Reduced</text>
		<text transform="matrix(0.1392 0.9903 -0.9903 0.1392 289.9424 74.6426)" class="st1 st3 st22">consumption</text>
		<text transform="matrix(0.5446 -0.8387 0.8387 0.5446 173.9634 538.5233)" class="st1 st3 st18">Democratic politics</text>
		<text transform="matrix(0.5446 -0.8387 0.8387 0.5446 185.4934 546.0135)" class="st1 st3 st18">of Nature</text>
		<text transform="matrix(0.766 -0.6428 0.6428 0.766 119.2334 479.4729)" class="st1 st3 st18">Means of</text>
		<text transform="matrix(0.766 -0.6428 0.6428 0.766 128.0734 490.0027)" class="st1 st3 st18">production are</text>
		<text transform="matrix(0.766 -0.6428 0.6428 0.766 136.9135 500.5325)" class="st1 st3 st18">collective</text>
		<text transform="matrix(0.8572 0.515 -0.515 0.8572 115.1536 186.1633)" class="st1 st3 st18">Locally sourced</text>
		<text transform="matrix(0.8572 0.515 -0.515 0.8572 108.0735 197.9534)" class="st1 st3 st18">materials</text>
		<text transform="matrix(0.8572 0.515 -0.515 0.8572 100.9934 209.7432)" class="st1 st3 st18">and thoughts</text>
		<text transform="matrix(0.2924 -0.9563 0.9563 0.2924 233.0834 572.6331)" class="st1 st3 st18">Human</text>
		<text transform="matrix(0.2924 -0.9563 0.9563 0.2924 246.2336 576.6526)" class="st1 st3 st18">activities that</text>
		<text transform="matrix(0.2924 -0.9563 0.9563 0.2924 259.3835 580.6721)" class="st1 st3 st18">respect Nature’s</text>
		<text transform="matrix(0.2924 -0.9563 0.9563 0.2924 272.5334 584.6926)" class="st1 st3 st18">rights</text>
		<text transform="matrix(6.123234e-17 -1 1 6.123234e-17 334.9435 593.7141)" class="st1 st3 st18">Humans and Nature</text>
		<text transform="matrix(6.123234e-17 -1 1 6.123234e-17 348.7036 593.7141)" class="st1 st3 st18">relationship</text>
		<text transform="matrix(6.123234e-17 -1 1 6.123234e-17 320.8235 593.4954)" class="st1 st3 st18">Mutually enhanced</text>
		<text transform="matrix(0.9703 0.2419 -0.2419 0.9703 81.8533 261.9531)" class="st1 st3 st18">Self sufficient</text>
		<text transform="matrix(0.9703 0.2419 -0.2419 0.9703 78.5237 275.3031)" class="st1 st3 st18">communities</text>
		<text transform="matrix(1 0 0 1 70.6535 337.7332)" class="st1 st3 st18">End of predatory</text>
		<text transform="matrix(1 0 0 1 70.6535 351.4832)" class="st1 st3 st18">extraction</text>
		<text transform="matrix(0.9336 -0.3584 0.3584 0.9336 80.1035 410.3735)" class="st1 st3 st18">Consumption of</text>
		<text transform="matrix(0.9336 -0.3584 0.3584 0.9336 85.0335 423.2131)" class="st1 st3 st18">Nature controlled</text>
		<text transform="matrix(0.9336 -0.3584 0.3584 0.9336 89.9536 436.0532)" class="st1 st3 st18">by the people</text>
		<g>
			<text transform="matrix(0.9648 -0.263 0.263 0.9648 497.7334 289.1333)" class="st1 st3 st18">Deep respect of all </text>
			<text transform="matrix(0.9648 -0.263 0.263 0.9648 501.3501 302.3989)" class="st1 st3 st18">Nature’s</text>
			<text transform="matrix(0.9648 -0.263 0.263 0.9648 540.3634 292.1833)" class="st1 st3 st18">beings</text>
		</g>
		<text transform="matrix(0.9979 6.539778e-02 -6.539778e-02 0.9979 504.473 340.3729)" class="st1 st3 st24">Valuing life creation</text>
		<text transform="matrix(0.9979 6.539778e-02 -6.539778e-02 0.9979 503.5732 354.1028)" class="st1 st3 st24">and maintenance</text>
		<text transform="matrix(0.8457 -0.5336 0.5336 0.8457 486.813 244.1633)" class="st1 st3 st17">A culture of care</text>
		<text transform="matrix(0.5628 0.8266 -0.8266 0.5628 443.4531 471.8333)" class="st1 st3 st18">Autonomous</text>
		<text transform="matrix(0.5628 0.8266 -0.8266 0.5628 432.083 479.5733)" class="st1 st3 st18">communities</text>
		<text transform="matrix(0.5628 0.8266 -0.8266 0.5628 420.7129 487.3133)" class="st1 st3 st18">and enviroment</text>
		<text transform="matrix(0.3132 0.9497 -0.9497 0.3132 377.703 500.6333)" class="st1 st3 st18">Righteous Nature</text>
		<text transform="matrix(0.6915 -0.7224 0.7224 0.6915 455.0735 192.1326)" class="st1 st3 st18">Natural Capital </text>
		<text transform="matrix(0.6915 -0.7224 0.7224 0.6915 465.0059 201.6413)" class="st1 st3 st18">understanding</text>
		<text transform="matrix(0.8116 0.5842 -0.5842 0.8116 472.0435 439.3333)" class="st1 st3 st18">Respect of Nature</text>
		<text transform="matrix(0.8116 0.5842 -0.5842 0.8116 464.0132 450.4932)" class="st1 st3 st18">as a being</text>
		<text transform="matrix(0.481 -0.8767 0.8767 0.481 411.9436 163.013)" class="st1 st3 st18">Holistic wealth</text>
		<text transform="matrix(0.481 -0.8767 0.8767 0.481 424.0034 169.6234)" class="st1 st3 st18">accounting</text>
		<text transform="matrix(0.9351 0.3543 -0.3543 0.9351 500.5036 391.8333)" class="st1 st3 st18">A happy and</text>
		<text transform="matrix(0.9351 0.3543 -0.3543 0.9351 495.6232 404.6934)" class="st1 st3 st18">balanced life</text>
		<text transform="matrix(0.1693 -0.9856 0.9856 0.1693 357.7743 141.6926)" class="st1 st3 st22">New value</text>
		<text transform="matrix(0.1693 -0.9856 0.9856 0.1693 371.3343 144.0228)" class="st1 st3 st22"> concept</text>
	</g>
	<circle class="st1" cx="282.9" cy="613.2" r="3.7"/>
	<circle class="st1" cx="615.6" cy="340.9" r="3.7"/>
	<circle class="st1" cx="44.8" cy="364.2" r="4.1"/>
	<circle class="st1" cx="180.6" cy="307.5" r="3.7"/>
	<circle class="st1" cx="376.7" cy="189.9" r="3.7"/>
	<circle class="st1" cx="296.2" cy="474.5" r="3.7"/>
	<circle class="st1" cx="459.4" cy="395.2" r="3.7"/>
	<circle class="st1" cx="142.4" cy="114.3" r="3.7"/>
</g>
<path class="st1" d="M326.9,359c15.9,0,28.8-12.9,28.8-28.8s-12.9-28.8-28.8-28.8s-28.8,12.9-28.8,28.8S311,359,326.9,359z"/>
<g>
	<path class="st16" d="M308,327.7c0-0.1,0-0.2,0.1-0.3s0.1-0.3,0.1-0.4c0-0.2,0.1-0.3,0.1-0.5s0-0.3,0-0.5v-4.1c0-0.2,0-0.3,0-0.5
		s0-0.3-0.1-0.5c0-0.2-0.1-0.3-0.1-0.4s-0.1-0.2-0.1-0.3s0-0.1,0-0.1l0,0h3.4c1.1,0,2,0.4,2.7,1.1s1.1,1.6,1.1,2.8s-0.4,2.1-1.1,2.8
		s-1.6,1.1-2.7,1.1H308l0,0C308,327.8,308,327.8,308,327.7L308,327.7z M310.8,327.3c0.4,0,0.7-0.1,1-0.3c0.3-0.2,0.5-0.5,0.6-0.8
		s0.3-0.7,0.3-1.1c0.1-0.4,0.1-0.8,0.1-1.2s0-0.8-0.1-1.2s-0.2-0.7-0.3-1.1s-0.4-0.6-0.6-0.8c-0.3-0.2-0.6-0.3-1-0.3h-0.2v6.8H310.8
		z"/>
	<path class="st16" d="M317.2,323c0.5-0.5,1.2-0.7,2.1-0.7c0.5,0,0.9,0.1,1.3,0.2s0.6,0.4,0.8,0.7c0.2,0.3,0.3,0.6,0.4,0.9
		s0.1,0.6,0.1,1h-3.3c0.1,1.1,0.7,1.6,1.6,1.6c0.5,0,1-0.2,1.6-0.5l0,0c-0.1,0.4-0.4,0.8-0.9,1.2c-0.5,0.4-1,0.6-1.7,0.6
		c-0.3,0-0.7-0.1-1-0.2s-0.6-0.3-0.9-0.5s-0.5-0.5-0.7-0.9s-0.3-0.8-0.3-1.3C316.4,324.2,316.7,323.5,317.2,323L317.2,323z
		 M318.6,324.3c0,0.1,0,0.2,0,0.4l1.4-0.4c0-1-0.2-1.5-0.7-1.5S318.6,323.3,318.6,324.3L318.6,324.3L318.6,324.3z"/>
	<path class="st16" d="M323.1,324c0-0.5,0.2-1,0.7-1.3s1-0.5,1.8-0.5c0.7,0,1.4,0.1,2,0.4v1.7l0,0c-0.2-0.2-0.4-0.4-0.5-0.6
		s-0.3-0.3-0.5-0.5s-0.4-0.3-0.6-0.4s-0.4-0.1-0.6-0.1s-0.3,0-0.4,0.1s-0.2,0.2-0.2,0.3c0,0.1,0,0.2,0.1,0.3
		c0.1,0.1,0.2,0.2,0.3,0.2c0.2,0.1,0.3,0.2,0.4,0.2s0.3,0.1,0.6,0.2c0.6,0.2,1.1,0.5,1.4,0.8s0.4,0.7,0.4,1.1c0,0.6-0.2,1.1-0.7,1.4
		s-1,0.5-1.7,0.5s-1.4-0.1-2.2-0.4v-1.6l0,0c0.1,0.1,0.2,0.2,0.4,0.4c0.2,0.2,0.4,0.4,0.5,0.5s0.2,0.2,0.4,0.4
		c0.2,0.1,0.4,0.2,0.5,0.3s0.3,0.1,0.5,0.1s0.3,0,0.5-0.1c0.1-0.1,0.2-0.2,0.2-0.4c0-0.2-0.2-0.4-0.5-0.6c-0.1-0.1-0.4-0.2-0.9-0.3
		C323.8,325.6,323.2,324.9,323.1,324L323.1,324z"/>
	<path class="st16" d="M329.3,327.7c0-0.1,0-0.2,0.1-0.3s0.1-0.3,0.1-0.4c0-0.2,0.1-0.3,0.1-0.5s0-0.3,0-0.5v-1.8c0-0.2,0-0.3,0-0.5
		s0-0.3-0.1-0.5s-0.1-0.3-0.1-0.4s-0.1-0.2-0.1-0.3c0-0.1,0-0.1,0-0.1l0,0h2.4v3.7c0,0.2,0,0.3,0,0.5s0,0.3,0.1,0.5
		c0,0.2,0.1,0.3,0.1,0.4s0.1,0.2,0.1,0.3s0,0.1,0,0.1l0,0h-2.7l0,0C329.2,327.8,329.2,327.7,329.3,327.7L329.3,327.7z M329.6,319.8
		c0.2-0.2,0.5-0.3,0.9-0.3s0.6,0.1,0.9,0.3s0.4,0.5,0.4,0.8s-0.1,0.6-0.4,0.8c-0.2,0.2-0.5,0.4-0.9,0.4s-0.6-0.1-0.9-0.3
		s-0.4-0.5-0.4-0.8S329.4,320.1,329.6,319.8L329.6,319.8z"/>
	<path class="st16" d="M333,324.2c0-0.4,0.1-0.8,0.4-1.1c0.3-0.3,0.6-0.5,1-0.6s0.7-0.2,1.1-0.2c0.5,0,0.9,0.1,1.3,0.2
		c0.3-0.8,0.8-1.2,1.5-1.2c0.1,0,0.2,0,0.3,0l-0.3,1.5l0,0c-0.3-0.2-0.5-0.2-0.8-0.2c-0.1,0-0.3,0-0.4,0.1c0.6,0.3,0.9,0.9,0.9,1.5
		s-0.3,1.1-0.8,1.4s-1.1,0.5-1.7,0.5c-0.3,0-0.6,0-0.9-0.1c-0.3,0.1-0.4,0.2-0.4,0.4c0,0.1,0,0.1,0.1,0.2c0.1,0,0.2,0,0.5,0h1.8
		c0.6,0,1.1,0.1,1.4,0.4s0.5,0.7,0.5,1.2c0,1.2-1,1.8-2.9,1.8c-0.2,0-0.4,0-0.5,0s-0.4,0-0.6-0.1s-0.5-0.1-0.7-0.2s-0.4-0.2-0.5-0.3
		c-0.1-0.2-0.2-0.3-0.2-0.5c0-0.3,0.1-0.5,0.3-0.7c-0.2-0.2-0.3-0.5-0.3-0.8c0-0.7,0.4-1.1,1.2-1.3C333.5,325.6,333,325,333,324.2
		L333,324.2z M334.1,328.5c0.1,0.7,0.7,1,1.6,1c0.4,0,0.8,0,1.1-0.1s0.5-0.2,0.5-0.4c0-0.1-0.1-0.2-0.2-0.3s-0.3-0.1-0.6-0.1h-1.8
		C334.5,328.6,334.3,328.5,334.1,328.5L334.1,328.5z M335,324.2c0,1,0.2,1.5,0.5,1.5s0.6-0.5,0.6-1.5s-0.2-1.5-0.6-1.5
		S335,323.2,335,324.2z"/>
	<path class="st16" d="M339.5,327.8v-0.1c0,0,0-0.2,0.1-0.3c0-0.1,0.1-0.3,0.1-0.4c0-0.2,0.1-0.3,0.1-0.5s0-0.3,0-0.5v-1.8
		c0-0.2,0-0.3,0-0.5s0-0.3-0.1-0.5s-0.1-0.3-0.1-0.4s-0.1-0.2-0.1-0.3c0-0.1,0-0.1,0-0.1l0,0h2.4v0.9c0.2-0.3,0.4-0.5,0.7-0.7
		c0.3-0.2,0.6-0.3,1-0.3c0.5,0,0.9,0.2,1.3,0.5s0.5,0.8,0.5,1.3v1.9c0,0.2,0,0.3,0,0.5s0,0.3,0.1,0.5c0,0.2,0.1,0.3,0.1,0.4
		s0.1,0.2,0.1,0.3s0,0.1,0,0.1l0,0H343l0,0v-0.1c0,0,0-0.2,0.1-0.3c0-0.1,0.1-0.3,0.1-0.4c0-0.2,0.1-0.3,0.1-0.5s0-0.3,0-0.5v-1.6
		c0-0.6-0.3-0.8-0.8-0.8l0,0c-0.2,0-0.4,0.1-0.7,0.2v2.3c0,0.2,0,0.3,0,0.5s0,0.3,0.1,0.5c0,0.2,0.1,0.3,0.1,0.4s0.1,0.2,0.1,0.3
		s0,0.1,0,0.1l0,0L339.5,327.8L339.5,327.8L339.5,327.8z"/>
	<path class="st16" d="M315.9,339.1c0-0.5,0.2-1,0.6-1.3s0.9-0.5,1.4-0.5c0.4,0,0.9,0.1,1.2,0.2v-0.6c0-0.2,0-0.4,0-0.5s0-0.2,0-0.4
		c0-0.1,0-0.2-0.1-0.3s-0.1-0.1-0.1-0.1c-0.2,0-0.5,0.1-0.9,0.4c-0.4,0.2-0.8,0.5-1.1,0.8l-0.5,0.4l0,0v-1.7c1.1-0.2,2-0.4,2.7-0.4
		s1.3,0.2,1.6,0.5c0.3,0.3,0.5,0.8,0.5,1.4v1.8c0,0.4,0,0.6,0.1,0.7s0.1,0.2,0.2,0.2s0.2,0,0.3-0.1l0,0c0,0.3-0.1,0.6-0.4,0.8
		s-0.5,0.3-0.9,0.3c-0.7,0-1.1-0.3-1.3-0.9c-0.1,0.2-0.3,0.5-0.6,0.7c-0.3,0.2-0.6,0.3-1,0.3c-0.5,0-1-0.2-1.3-0.5
		S315.9,339.5,315.9,339.1L315.9,339.1z M318.3,339.5c0.1,0.2,0.3,0.3,0.6,0.3c0.1,0,0.3-0.1,0.4-0.1c0-0.1,0-0.2,0-0.4v-1.4
		c-0.1,0-0.2,0-0.3,0c-0.6,0-0.9,0.3-0.9,0.9C318,339.1,318.1,339.3,318.3,339.5L318.3,339.5z"/>
	<path class="st16" d="M322.9,336.9c0-0.5,0.2-1,0.7-1.3s1-0.5,1.8-0.5c0.7,0,1.4,0.1,2,0.4v1.7l0,0c-0.2-0.2-0.4-0.4-0.5-0.6
		s-0.3-0.3-0.5-0.5s-0.4-0.3-0.6-0.4s-0.4-0.1-0.6-0.1s-0.3,0-0.4,0.1s-0.2,0.2-0.2,0.3c0,0.1,0,0.2,0.1,0.3
		c0.1,0.1,0.2,0.2,0.3,0.2c0.2,0.1,0.3,0.2,0.4,0.2s0.3,0.1,0.6,0.2c0.6,0.2,1.1,0.5,1.4,0.8s0.4,0.7,0.4,1.1c0,0.6-0.2,1.1-0.7,1.4
		s-1,0.5-1.7,0.5s-1.4-0.1-2.2-0.4v-1.8l0,0c0.1,0.1,0.2,0.2,0.4,0.4c0.2,0.2,0.4,0.4,0.5,0.5s0.2,0.2,0.4,0.4
		c0.2,0.1,0.4,0.2,0.5,0.3s0.3,0.1,0.5,0.1s0.3,0,0.5-0.1c0.1-0.1,0.2-0.2,0.2-0.4c0-0.2-0.2-0.4-0.5-0.6c-0.1-0.1-0.4-0.2-0.9-0.3
		C323.5,338.5,322.9,337.8,322.9,336.9L322.9,336.9z"/>
	<path class="st16" d="M331.8,339.1c0-0.5,0.2-1,0.6-1.3s0.9-0.5,1.4-0.5c0.4,0,0.9,0.1,1.2,0.2v-0.6c0-0.2,0-0.4,0-0.5s0-0.2,0-0.4
		c0-0.1,0-0.2-0.1-0.3s-0.1-0.1-0.1-0.1c-0.2,0-0.5,0.1-0.9,0.4s-0.8,0.5-1.1,0.8l-0.5,0.4l0,0v-1.7c1.1-0.2,2-0.4,2.7-0.4
		s1.3,0.2,1.6,0.5c0.3,0.3,0.5,0.8,0.5,1.4v1.8c0,0.4,0,0.6,0.1,0.7s0.1,0.2,0.2,0.2s0.2,0,0.3-0.1l0,0c0,0.3-0.1,0.6-0.4,0.8
		s-0.5,0.3-0.9,0.3c-0.7,0-1.1-0.3-1.3-0.9c-0.1,0.2-0.3,0.5-0.6,0.7c-0.3,0.2-0.6,0.3-1,0.3c-0.5,0-1-0.2-1.3-0.5
		S331.8,339.5,331.8,339.1L331.8,339.1z M334.1,339.5c0.1,0.2,0.3,0.3,0.6,0.3c0.1,0,0.3-0.1,0.4-0.1c0-0.1,0-0.2,0-0.4v-1.4
		c-0.1,0-0.2,0-0.3,0c-0.6,0-0.9,0.3-0.9,0.9C333.9,339.1,334,339.3,334.1,339.5L334.1,339.5z"/>
</g>
<g>
	<line class="st15" x1="310.8" y1="192.5" x2="326.2" y2="308.2"/>
	<line class="st15" x1="349.4" y1="310.5" x2="433.9" y2="237.2"/>
	<line class="st15" x1="461.9" y1="363" x2="355.5" y2="335.2"/>
	<line class="st15" x1="341.3" y1="354.4" x2="388.4" y2="453.1"/>
	<line class="st15" x1="279.4" y1="457.4" x2="318.8" y2="354.5"/>
	<line class="st15" x1="301.3" y1="333.6" x2="193.3" y2="355.4"/>
	<line class="st15" x1="220.5" y1="243.1" x2="308.1" y2="313.6"/>
</g>
<g>
	<g>
		<g>
			<text transform="matrix(-0.9666 0.2561 -0.2561 -0.9666 354.433 420.6735)" class="st1 st3 st30">n</text>
			<text transform="matrix(-0.9793 0.2023 -0.2023 -0.9793 348.4844 422.2329)" class="st1 st3 st31">u</text>
			<text transform="matrix(-0.9878 0.1557 -0.1557 -0.9878 342.7132 423.4023)" class="st1 st3 st31">r</text>
			<text transform="matrix(-0.9929 0.1186 -0.1186 -0.9929 338.2841 424.0816)" class="st1 st3 st32">t</text>
			<text transform="matrix(-0.9972 7.532077e-02 -7.532077e-02 -0.9972 334.564 424.5458)" class="st1 st3 st33">u</text>
			<text transform="matrix(-0.9996 2.879385e-02 -2.879385e-02 -0.9996 328.6942 424.9536)" class="st1 st3 st31">r</text>
			<text transform="matrix(-0.9999 -1.413665e-02 1.413665e-02 -0.9999 324.2236 425.0829)" class="st1 st3 st31">e</text>
			<text transform="matrix(-0.9984 -5.738416e-02 5.738416e-02 -0.9984 319.2228 424.9919)" class="st1 st3 st34">r</text>
			<text transform="matrix(-0.9914 -0.1309 0.1309 -0.9914 311.8936 424.4726)" class="st1 st3 st31">o</text>
			<text transform="matrix(-0.9847 -0.174 0.174 -0.9847 306.1317 423.6711)" class="st1 st3 st30">f</text>
			<text transform="matrix(-0.9582 0.2862 -0.2862 -0.9582 351.614 406.4631)" class="st1 st3 st31">c</text>
			<text transform="matrix(-0.9734 0.2292 -0.2292 -0.9734 347.1324 407.8031)" class="st1 st3 st31">o</text>
			<text transform="matrix(-0.9837 0.18 -0.18 -0.9837 341.4546 409.091)" class="st1 st3 st33">l</text>
			<text transform="matrix(-0.9894 0.1454 -0.1454 -0.9894 338.3737 409.6537)" class="st1 st3 st31">l</text>
			<text transform="matrix(-0.9949 0.1011 -0.1011 -0.9949 335.3226 410.1133)" class="st1 st3 st31">e</text>
			<text transform="matrix(-0.9988 4.798276e-02 -4.798276e-02 -0.9988 330.3847 410.6011)" class="st1 st3 st30">c</text>
			<text transform="matrix(-1 6.980145e-04 -6.980145e-04 -1 325.6534 410.8043)" class="st1 st3 st31">t</text>
			<text transform="matrix(-0.9993 -3.855896e-02 3.855896e-02 -0.9993 321.8942 410.7925)" class="st1 st3 st34">i</text>
			<text transform="matrix(-0.9961 -8.854664e-02 8.854664e-02 -0.9961 318.6127 410.6848)" class="st1 st3 st31">v</text>
			<text transform="matrix(-0.989 -0.148 0.148 -0.989 313.0135 410.1629)" class="st1 st3 st31">e</text>
			<text transform="matrix(-0.9665 0.2566 -0.2566 -0.9665 344.9329 393.5335)" class="st1 st3 st31">v</text>
			<text transform="matrix(-0.9812 0.193 -0.193 -0.9812 339.4943 394.9237)" class="st1 st3 st31">i</text>
			<text transform="matrix(-0.9902 0.1395 -0.1395 -0.9902 336.3044 395.5525)" class="st1 st3 st31">s</text>
			<text transform="matrix(-0.9964 8.523627e-02 -8.523627e-02 -0.9964 332.1131 396.1128)" class="st1 st3 st33">i</text>
			<text transform="matrix(-0.9998 2.041890e-02 -2.041890e-02 -0.9998 328.884 396.4231)" class="st1 st3 st31">o</text>
			<text transform="matrix(-0.9978 -6.627395e-02 6.627395e-02 -0.9978 323.1129 396.525)" class="st1 st3 st31">n</text>
			<text transform="matrix(-0.99 -0.1414 0.1414 -0.99 317.0245 396.0729)" class="st1 st3 st35">s</text>
		</g>
		<g>
			<path class="st1" d="M330.3,388.3c-0.6,0.1-1.1-0.1-1.4-0.5s-0.6-0.8-0.6-1.2c-0.1-0.6,0.1-1.1,0.5-1.6s0.8-0.8,1.4-0.8
				c0.2,0,0.4,0,0.6,0s0.3,0,0.4,0c0,0,0.1,0,0.2-0.1s0.1-0.1,0.1-0.1h0.1c0,0,0.1,0,0.1,0.1c0,0,0,0.1,0,0.2s0,0.2,0,0.4
				c0,0.2,0,0.4,0,0.6l0.4,3.8c0,0.2,0.1,0.4,0.1,0.6c0,0.1,0.2,0.1,0.5,0.1h0.1c0,0,0.1,0,0.1,0.1s0,0.2,0,0.2
				c-0.2,0-0.4,0.1-0.5,0.1s-0.3,0.1-0.4,0.1s-0.2,0.1-0.2,0.1l-0.1,0.1l0,0l0,0c0,0,0,0-0.1,0c0,0,0-0.1-0.1-0.1c0-0.2,0-0.5,0-0.8
				l-0.2-1.6c0-0.1,0-0.1,0-0.1l0,0c-0.1,0.1-0.2,0.2-0.4,0.2C330.6,388.2,330.4,388.3,330.3,388.3L330.3,388.3z M330.6,387.8
				c0.2,0,0.3-0.1,0.4-0.2s0.2-0.2,0.1-0.4l-0.2-2.1c0-0.2-0.1-0.3-0.3-0.4c-0.2-0.1-0.4-0.1-0.6-0.1c-0.4,0-0.6,0.2-0.8,0.6
				s-0.2,0.7-0.2,1.2s0.2,0.9,0.5,1.1S330.1,387.9,330.6,387.8L330.6,387.8z"/>
			<path class="st1" d="M326.4,388.5c-0.1,0-0.2,0-0.3,0s-0.2,0-0.3,0s-0.2,0-0.3,0v-0.1c0-0.1,0-0.1,0-0.1s0.1,0,0.2-0.1
				s0.2-0.1,0.2-0.1l0,0c0-0.1-0.4-0.9-1-2.4l-0.7,2c0,0.1-0.1,0.2-0.1,0.3c0,0.1,0,0.2,0.1,0.2s0.2,0.1,0.4,0.1c0,0,0,0,0,0.1
				s0,0.1,0,0.2c-0.1,0-0.2,0-0.4,0c-0.2,0-0.3,0-0.5,0c-0.1,0-0.3,0-0.4,0s-0.3,0-0.4,0v-0.1c0-0.1,0-0.1,0-0.1
				c0.1,0,0.2,0,0.3-0.1s0.2-0.2,0.3-0.3l1.6-4.5c0.1-0.4,0.3-0.7,0.5-0.8c0.2-0.2,0.3-0.2,0.5-0.2c0.1,0,0.2,0,0.3,0.1
				c0.1,0.1,0.1,0.2,0.1,0.2c0,0.1,0,0.2-0.1,0.3c-0.5,0-0.8,0.3-1,0.8c0,0.1-0.1,0.2-0.1,0.3s-0.1,0.2-0.1,0.3l1.4,3.2
				c0.1,0.2,0.1,0.2,0.2,0.3c0.1,0.1,0.1,0.1,0.3,0.1c0.1,0,0.2,0.1,0.3,0.1c0,0,0,0,0,0.1s0,0.1,0,0.2
				C326.7,388.5,326.4,388.5,326.4,388.5L326.4,388.5z"/>
		</g>
	</g>
	<g>
		<g>
			<text transform="matrix(-0.8418 -0.5398 0.5398 -0.8418 272.5136 416.5045)" class="st1 st3 st31">d</text>
			<text transform="matrix(-0.8146 -0.58 0.58 -0.8146 267.7543 413.4241)" class="st1 st3 st31">e</text>
			<text transform="matrix(-0.7766 -0.63 0.63 -0.7766 263.7036 410.6036)" class="st1 st3 st31">m</text>
			<text transform="matrix(-0.7356 -0.6774 0.6774 -0.7356 256.8735 404.9635)" class="st1 st3 st31">a</text>
			<text transform="matrix(-0.7083 -0.7059 0.7059 -0.7083 253.2736 401.6226)" class="st1 st3 st31">t</text>
			<text transform="matrix(-0.6796 -0.7336 0.7336 -0.6796 250.5937 398.9635)" class="st1 st3 st31">e</text>
			<text transform="matrix(-0.6473 -0.7622 0.7622 -0.6473 247.2234 395.2938)" class="st1 st3 st31">r</text>
			<text transform="matrix(-0.6199 -0.7847 0.7847 -0.6199 244.3539 391.8849)" class="st1 st3 st31">i</text>
			<text transform="matrix(-0.5898 -0.8076 0.8076 -0.5898 242.2831 389.2751)" class="st1 st3 st33">a</text>
			<text transform="matrix(-0.5598 -0.8286 0.8286 -0.5598 239.4132 385.304)" class="st1 st3 st31">l</text>
			<text transform="matrix(-0.5351 -0.8448 0.8448 -0.5351 237.6739 382.7148)" class="st1 st3 st31">i</text>
			<text transform="matrix(-0.503 -0.8643 0.8643 -0.503 235.8838 379.9036)" class="st1 st3 st31">z</text>
			<text transform="matrix(-0.4636 -0.886 0.886 -0.4636 233.4839 375.7539)" class="st1 st3 st36">e</text>
			<text transform="matrix(-0.4247 -0.9053 0.9053 -0.4247 231.1836 371.3401)" class="st1 st3 st37">r</text>
			<text transform="matrix(-0.878 -0.4787 0.4787 -0.878 284.3531 408.2147)" class="st1 st3 st31">o</text>
			<text transform="matrix(-0.8514 -0.5246 0.5246 -0.8514 279.2403 405.3807)" class="st1 st3 st34">f</text>
			<text transform="matrix(-0.8036 -0.5952 0.5952 -0.8036 273.7732 401.9027)" class="st1 st3 st38">u</text>
			<text transform="matrix(-0.762 -0.6476 0.6476 -0.762 269.083 398.4245)" class="st1 st3 st31">n</text>
			<text transform="matrix(-0.7157 -0.6984 0.6984 -0.7157 264.4034 394.4229)" class="st1 st3 st31">n</text>
			<text transform="matrix(-0.6712 -0.7413 0.7413 -0.6712 260.0335 390.1226)" class="st1 st3 st31">e</text>
			<text transform="matrix(-0.63 -0.7766 0.7766 -0.63 256.7137 386.425)" class="st1 st3 st31">c</text>
			<text transform="matrix(-0.5872 -0.8094 0.8094 -0.5872 253.7634 382.7809)" class="st1 st3 st36">e</text>
			<text transform="matrix(-0.5446 -0.8387 0.8387 -0.5446 250.8633 378.7347)" class="st1 st3 st31">s</text>
			<text transform="matrix(-0.5041 -0.8637 0.8637 -0.5041 248.5659 375.1847)" class="st1 st3 st34">s</text>
			<text transform="matrix(-0.459 -0.8884 0.8884 -0.459 246.4425 371.5303)" class="st1 st3 st39">a</text>
			<text transform="matrix(-0.4115 -0.9114 0.9114 -0.4115 244.2134 367.1824)" class="st1 st3 st31">r</text>
			<text transform="matrix(-0.361 -0.9326 0.9326 -0.361 242.3836 363.1218)" class="st1 st3 st40">y</text>
			<text transform="matrix(-0.8816 -0.4721 0.4721 -0.8816 288.004 395.8317)" class="st1 st3 st41">p</text>
			<text transform="matrix(-0.8463 -0.5327 0.5327 -0.8463 283.2227 393.2338)" class="st1 st3 st42">r</text>
			<text transform="matrix(-0.8068 -0.5909 0.5909 -0.8068 279.6837 391.0234)" class="st1 st3 st41">o</text>
			<text transform="matrix(-0.7581 -0.6521 0.6521 -0.7581 275.3137 387.794)" class="st1 st3 st42">d</text>
			<text transform="matrix(-0.7045 -0.7097 0.7097 -0.7045 271.3037 384.335)" class="st1 st3 st42">u</text>
			<text transform="matrix(-0.6514 -0.7587 0.7587 -0.6514 267.4434 380.3928)" class="st1 st3 st42">c</text>
			<text transform="matrix(-0.6061 -0.7954 0.7954 -0.6061 264.5836 377.0233)" class="st1 st3 st42">t</text>
			<text transform="matrix(-0.5617 -0.8274 0.8274 -0.5617 262.4433 374.2108)" class="st1 st3 st41">s</text>
			<text transform="matrix(-0.4738 -0.8806 0.8806 -0.4738 258.8238 368.6049)" class="st1 st3 st42">a</text>
			<text transform="matrix(-0.4056 -0.914 0.914 -0.4056 256.6533 364.6006)" class="st1 st3 st43">n</text>
			<text transform="matrix(-0.3295 -0.9441 0.9441 -0.3295 254.332 359.3195)" class="st1 st3 st43">d</text>
			<text transform="matrix(-0.882 -0.4713 0.4713 -0.882 298.0032 388.254)" class="st1 st3 st31">o</text>
			<text transform="matrix(-0.8299 -0.5579 0.5579 -0.8299 292.9337 385.5948)" class="st1 st3 st31">w</text>
			<text transform="matrix(-0.7682 -0.6402 0.6402 -0.7682 286.2737 381.0333)" class="st1 st3 st31">n</text>
			<text transform="matrix(-0.698 -0.7161 0.7161 -0.698 281.5735 377.1535)" class="st1 st3 st31">w</text>
			<text transform="matrix(-0.627 -0.779 0.779 -0.627 275.9936 371.2939)" class="st1 st3 st31">e</text>
			<text transform="matrix(-0.5723 -0.8201 0.8201 -0.5723 272.9138 367.4345)" class="st1 st3 st34">r</text>
			<text transform="matrix(-0.5192 -0.8546 0.8546 -0.5192 270.3945 363.7938)" class="st1 st3 st30">s</text>
			<text transform="matrix(-0.4541 -0.8909 0.8909 -0.4541 268.2128 360.2419)" class="st1 st3 st30">h</text>
			<text transform="matrix(-0.3922 -0.9199 0.9199 -0.3922 265.5336 354.8545)" class="st1 st3 st31">i</text>
			<text transform="matrix(-0.3299 -0.944 0.944 -0.3299 264.2435 351.8847)" class="st1 st3 st31">p</text>
		</g>
		<g>
			<path class="st1" d="M284.9,368.8c-0.4-0.4-0.6-0.9-0.5-1.4c0-0.5,0.2-0.9,0.5-1.3c0.4-0.4,0.9-0.6,1.5-0.6s1.1,0.2,1.5,0.5
				c0.2,0.2,0.3,0.3,0.4,0.5s0.2,0.3,0.2,0.3s0.1,0.1,0.2,0.1s0.1,0.1,0.1,0.1s0,0.1,0.1,0.1c0,0.1,0,0.1,0,0.1s0,0-0.1,0.1
				s-0.2,0.1-0.3,0.3c-0.1,0.1-0.3,0.2-0.5,0.4l-2.7,2.7c-0.1,0.2-0.3,0.3-0.4,0.5c0,0.1,0,0.2,0.2,0.4l0.1,0.1v0.1
				c-0.1,0.1-0.1,0.1-0.1,0.1c-0.1-0.1-0.3-0.2-0.4-0.3c-0.1-0.1-0.2-0.2-0.3-0.2c-0.1,0-0.2-0.1-0.2-0.1c-0.1,0-0.1,0-0.1-0.1l0,0
				l0,0v-0.1V371c0.2-0.1,0.4-0.3,0.6-0.5l1.1-1.1c0,0,0.1-0.1,0-0.1l0,0c-0.1,0-0.2-0.1-0.4-0.1
				C285.1,368.9,284.9,368.9,284.9,368.8L284.9,368.8z M285.4,368.6c0.1,0.1,0.3,0.2,0.4,0.2s0.3,0,0.4-0.2l1.5-1.5
				c0.1-0.1,0.2-0.3,0.1-0.5s-0.2-0.4-0.4-0.5c-0.2-0.2-0.6-0.3-0.9-0.2c-0.4,0.1-0.7,0.3-1,0.6c-0.3,0.3-0.5,0.7-0.6,1.1
				S285.1,368.3,285.4,368.6L285.4,368.6z"/>
			<path class="st1" d="M282.2,365.8c-0.1-0.1-0.1-0.2-0.2-0.2s-0.1-0.1-0.2-0.2s-0.1-0.2-0.2-0.2c0,0,0-0.1,0.1-0.1
				c0.1-0.1,0.1-0.1,0.1-0.1s0.1,0.1,0.2,0.2s0.2,0.1,0.2,0.1l0,0c0.1-0.1,0.5-0.8,1.2-2.3l-2,0.8c-0.1,0.1-0.2,0.1-0.3,0.1
				c-0.1,0.1-0.1,0.1-0.1,0.2s0.1,0.2,0.2,0.3c0,0,0,0.1-0.1,0.1c-0.1,0.1-0.1,0.1-0.1,0.1c0-0.1-0.1-0.2-0.2-0.3s-0.2-0.2-0.3-0.4
				c-0.1-0.1-0.2-0.2-0.3-0.3s-0.2-0.2-0.2-0.3c0,0,0-0.1,0.1-0.1c0.1-0.1,0.1-0.1,0.1-0.1c0,0.1,0.1,0.1,0.3,0.2
				c0.1,0.1,0.3,0.1,0.4,0l4.5-1.6c0.4-0.1,0.7-0.2,0.9-0.2c0.2,0,0.4,0.1,0.5,0.2s0.1,0.2,0.1,0.3s-0.1,0.2-0.1,0.2
				c-0.1,0.1-0.2,0.1-0.3,0.1c-0.3-0.4-0.8-0.5-1.3-0.3c-0.1,0-0.2,0.1-0.3,0.1c-0.1,0.1-0.2,0.1-0.3,0.1l-1.6,3.1
				c-0.1,0.2-0.1,0.3-0.1,0.3c0,0.1,0,0.2,0.1,0.3c0,0.1,0.1,0.2,0.1,0.2s0,0.1-0.1,0.1c-0.1,0.1-0.1,0.1-0.1,0.1
				C282.4,366.1,282.2,365.8,282.2,365.8L282.2,365.8z"/>
		</g>
	</g>
	<g>
		<g>
			<text transform="matrix(-5.529868e-02 -0.9985 0.9985 -5.529868e-02 230.4035 338.1144)" class="st1 st3 st44">m</text>
			<text transform="matrix(1.134522e-02 -0.9999 0.9999 1.134522e-02 229.9743 328.7623)" class="st1 st3 st45">e</text>
			<text transform="matrix(6.296472e-02 -0.998 0.998 6.296472e-02 230.0335 323.5129)" class="st1 st3 st44">d</text>
			<text transform="matrix(0.1066 -0.9943 0.9943 0.1066 230.4536 317.4937)" class="st1 st3 st44">i</text>
			<text transform="matrix(0.1463 -0.9892 0.9892 0.1463 230.814 314.0131)" class="st1 st3 st46">a</text>
			<text transform="matrix(0.1881 -0.9822 0.9822 0.1881 231.593 308.8623)" class="st1 st3 st47">t</text>
			<text transform="matrix(0.2341 -0.9722 0.9722 0.2341 232.3336 304.933)" class="st1 st3 st44">o</text>
			<text transform="matrix(0.2825 -0.9593 0.9593 0.2825 233.8035 298.9526)" class="st1 st3 st48">r</text>
			<text transform="matrix(0.3569 -0.9341 0.9341 0.3569 236.1133 291.5231)" class="st1 st3 st46">o</text>
			<text transform="matrix(0.3997 -0.9166 0.9166 0.3997 238.353 285.7831)" class="st1 st3 st46">f</text>
			<text transform="matrix(-4.117417e-02 -0.9992 0.9992 -4.117417e-02 243.9738 333.8439)" class="st1 st3 st49">c</text>
			<text transform="matrix(2.129143e-02 -0.9998 0.9998 2.129143e-02 243.7635 328.8622)" class="st1 st3 st44">o</text>
			<text transform="matrix(0.1075 -0.9942 0.9942 0.1075 243.8335 322.7829)" class="st1 st3 st44">m</text>
			<text transform="matrix(0.1939 -0.981 0.981 0.1939 244.9335 313.4931)" class="st1 st3 st44">p</text>
			<text transform="matrix(0.246 -0.9693 0.9693 0.246 246.1734 307.4534)" class="st1 st3 st44">l</text>
			<text transform="matrix(0.2925 -0.9563 0.9563 0.2925 246.9759 304.2724)" class="st1 st3 st48">e</text>
			<text transform="matrix(0.351 -0.9364 0.9364 0.351 248.5135 299.263)" class="st1 st3 st44">x</text>
			<text transform="matrix(-0.1433 -0.9897 0.9897 -0.1433 260.3137 335.7934)" class="st1 st3 st44">p</text>
			<text transform="matrix(-6.522893e-02 -0.9979 0.9979 -6.522893e-02 259.4735 329.7239)" class="st1 st3 st44">r</text>
			<text transform="matrix(1.343857e-02 -0.9999 0.9999 1.343857e-02 259.1635 325.0837)" class="st1 st3 st44">o</text>
			<text transform="matrix(9.445579e-02 -0.9955 0.9955 9.445579e-02 259.2835 318.9617)" class="st1 st3 st44">c</text>
			<text transform="matrix(0.1687 -0.9857 0.9857 0.1687 259.7628 314.0338)" class="st1 st3 st48">e</text>
			<text transform="matrix(0.2384 -0.9712 0.9712 0.2384 260.6724 308.8942)" class="st1 st3 st48">s</text>
			<text transform="matrix(0.3019 -0.9533 0.9533 0.3019 261.7547 304.5631)" class="st1 st3 st45">s</text>
			<text transform="matrix(0.3691 -0.9294 0.9294 0.3691 263.0936 300.3322)" class="st1 st3 st44">e</text>
			<text transform="matrix(0.4344 -0.9007 0.9007 0.4344 265.0535 295.4726)" class="st1 st3 st44">s</text>
		</g>
		<g>
			<path class="st1" d="M268.3,318.6c0.1-0.6,0.4-1,0.8-1.3c0.5-0.3,0.9-0.4,1.4-0.3c0.6,0.1,1,0.4,1.4,0.9s0.5,1,0.5,1.5
				c0,0.2-0.1,0.4-0.1,0.6c-0.1,0.2-0.1,0.3-0.1,0.3c0,0.1,0,0.1,0,0.2s0,0.1,0,0.2v0.1c0,0.1,0,0.1-0.1,0.1c0,0-0.1,0-0.1-0.1
				s-0.2-0.1-0.4-0.1s-0.4-0.1-0.6-0.1l-3.8-0.6c-0.2,0-0.4,0-0.6,0c-0.1,0-0.2,0.2-0.2,0.4v0.1c0,0,0,0.1-0.1,0
				c-0.1,0-0.1,0-0.1-0.1c0-0.2,0-0.4,0-0.5s0-0.3,0-0.4s0-0.2,0-0.2c0-0.1,0-0.1,0-0.2l0,0l0,0c0,0,0-0.1,0.1-0.1h0.1
				c0.2,0.1,0.4,0.2,0.8,0.2l1.6,0.2c0.1,0,0.1,0,0.1,0l0,0c0-0.1-0.1-0.2-0.1-0.4C268.3,318.8,268.3,318.7,268.3,318.6L268.3,318.6
				z M268.7,318.9c0,0.2,0,0.3,0.1,0.5c0.1,0.1,0.2,0.2,0.4,0.2l2.1,0.3c0.2,0,0.3,0,0.5-0.2c0.1-0.2,0.2-0.4,0.2-0.6
				c0-0.3-0.1-0.6-0.4-0.9s-0.6-0.4-1.1-0.5s-0.9,0-1.2,0.2C268.9,318.2,268.7,318.5,268.7,318.9L268.7,318.9z"/>
			<path class="st1" d="M269.1,314.7c0-0.1,0-0.2,0.1-0.3s0-0.2,0-0.3c0-0.1,0-0.2,0-0.3h0.1c0.1,0,0.1,0,0.1,0.1s0,0.1,0,0.2
				s0,0.2,0.1,0.2l0,0c0.1,0,1-0.1,2.6-0.4l-1.8-1.2c-0.1-0.1-0.2-0.1-0.3-0.1c-0.1,0-0.2,0-0.2,0.1c-0.1,0.1-0.1,0.2-0.2,0.3
				c0,0,0,0-0.1,0s-0.1,0-0.1-0.1s0.1-0.2,0.1-0.3s0.1-0.3,0.1-0.4s0.1-0.3,0.1-0.4c0-0.2,0-0.3,0-0.4h0.1c0.1,0,0.1,0,0.1,0.1
				s0,0.2,0,0.3s0.1,0.3,0.2,0.3l4,2.6c0.3,0.2,0.6,0.4,0.7,0.7c0.1,0.2,0.1,0.4,0.1,0.5s-0.1,0.2-0.2,0.2s-0.2,0.1-0.2,0
				c-0.1,0-0.2-0.1-0.3-0.2c0.1-0.5-0.1-0.9-0.5-1.2c-0.1-0.1-0.2-0.1-0.3-0.2c-0.1-0.1-0.2-0.1-0.3-0.2l-3.4,0.5
				c-0.2,0-0.3,0.1-0.4,0.1s-0.1,0.1-0.2,0.2s-0.1,0.2-0.1,0.2s0,0-0.1,0s-0.1,0-0.1-0.1C269,315,269.1,314.7,269.1,314.7
				L269.1,314.7z"/>
		</g>
	</g>
	<g>
		<g>
			<text transform="matrix(0.7565 -0.6539 0.6539 0.7565 261.1336 253.9229)" class="st1 st3 st50">e</text>
			<text transform="matrix(0.7912 -0.6115 0.6115 0.7912 265.1239 250.4643)" class="st1 st3 st45">n</text>
			<text transform="matrix(0.8229 -0.5681 0.5681 0.8229 270.2827 246.5038)" class="st1 st3 st51">a</text>
			<text transform="matrix(0.8513 -0.5247 0.5247 0.8513 274.5636 243.5632)" class="st1 st3 st44">b</text>
			<text transform="matrix(0.8732 -0.4874 0.4874 0.8732 279.7535 240.4131)" class="st1 st3 st44">l</text>
			<text transform="matrix(0.8918 -0.4524 0.4524 0.8918 282.6336 238.7928)" class="st1 st3 st44">e</text>
			<text transform="matrix(0.9116 -0.411 0.411 0.9116 287.3431 236.4232)" class="st1 st3 st45">r</text>
			<text transform="matrix(0.9408 -0.3389 0.3389 0.9408 294.4836 233.3233)" class="st1 st3 st44">o</text>
			<text transform="matrix(0.9552 -0.2959 0.2959 0.9552 300.2736 231.2731)" class="st1 st3 st44">f</text>
			<text transform="matrix(0.687 -0.7267 0.7267 0.687 263.7924 270.2426)" class="st1 st3 st48">c</text>
			<text transform="matrix(0.7311 -0.6823 0.6823 0.7311 267.1935 266.6328)" class="st1 st3 st44">o</text>
			<text transform="matrix(0.7877 -0.6161 0.6161 0.7877 271.6035 262.4328)" class="st1 st3 st44">m</text>
			<text transform="matrix(0.848 -0.5299 0.5299 0.848 278.9532 256.7147)" class="st1 st3 st51">m</text>
			<text transform="matrix(0.8911 -0.4538 0.4538 0.8911 286.9133 251.8531)" class="st1 st3 st44">u</text>
			<text transform="matrix(0.9212 -0.3891 0.3891 0.9212 292.4435 249.0436)" class="st1 st3 st44">n</text>
			<text transform="matrix(0.9416 -0.3368 0.3368 0.9416 298.4837 246.5533)" class="st1 st3 st44">i</text>
			<text transform="matrix(0.9548 -0.2974 0.2974 0.9548 301.7443 245.3934)" class="st1 st3 st49">t</text>
			<text transform="matrix(0.9693 -0.246 0.246 0.9693 305.5636 244.1932)" class="st1 st3 st44">y</text>
			<text transform="matrix(0.7893 -0.614 0.614 0.7893 284.4636 272.643)" class="st1 st3 st44">b</text>
			<text transform="matrix(0.841 -0.541 0.541 0.841 289.1734 268.983)" class="st1 st3 st44">u</text>
			<text transform="matrix(0.8772 -0.4801 0.4801 0.8772 294.4135 265.6932)" class="st1 st3 st44">i</text>
			<text transform="matrix(0.9 -0.4359 0.4359 0.9 297.4834 264.0327)" class="st1 st3 st44">l</text>
			<text transform="matrix(0.9219 -0.3875 0.3875 0.9219 300.4237 262.613)" class="st1 st3 st44">t</text>
		</g>
		<g>
			<path class="st1" d="M297.1,274c0.5-0.3,1-0.4,1.5-0.3s0.9,0.4,1.1,0.8c0.3,0.5,0.5,1,0.4,1.6s-0.4,1.1-0.8,1.4
				c-0.2,0.1-0.4,0.2-0.6,0.3s-0.3,0.1-0.3,0.2c0,0-0.1,0.1-0.1,0.2s-0.1,0.1-0.1,0.1h-0.1H298c0,0,0-0.1-0.1-0.1s-0.1-0.2-0.2-0.4
				c-0.1-0.2-0.2-0.3-0.3-0.5l-2.2-3.1c-0.1-0.2-0.2-0.3-0.4-0.4c-0.1-0.1-0.2,0-0.5,0.2l-0.1,0.1c0,0-0.1,0-0.1-0.1
				c-0.1-0.1-0.1-0.1,0-0.2s0.3-0.2,0.4-0.3c0.1-0.1,0.2-0.2,0.2-0.3c0-0.1,0.1-0.1,0.1-0.2s0.1-0.1,0.1-0.1l0,0l0,0c0,0,0,0,0.1,0
				s0.1,0,0.1,0.1c0.1,0.2,0.2,0.4,0.4,0.7l0.9,1.3c0,0.1,0.1,0.1,0.1,0.1l0,0c0-0.1,0.1-0.2,0.2-0.4
				C296.9,274.2,297,274.1,297.1,274L297.1,274z M297.1,274.6c-0.1,0.1-0.2,0.2-0.3,0.4c0,0.2,0,0.3,0.1,0.4l1.2,1.8
				c0.1,0.2,0.3,0.2,0.5,0.2s0.4-0.1,0.6-0.2c0.3-0.2,0.4-0.5,0.4-0.9s-0.2-0.8-0.4-1.1c-0.3-0.4-0.6-0.7-1-0.8
				S297.5,274.3,297.1,274.6L297.1,274.6z"/>
			<path class="st1" d="M300.4,271.9c0.1-0.1,0.2-0.1,0.2-0.2c0.1-0.1,0.2-0.1,0.2-0.2c0.1-0.1,0.2-0.1,0.2-0.2l0.1,0.1
				c0,0.1,0,0.1,0,0.1s-0.1,0.1-0.2,0.2s-0.1,0.2-0.1,0.2l0,0c0.1,0.1,0.8,0.6,2.1,1.6l-0.4-2.1c0-0.1-0.1-0.2-0.1-0.3
				c0-0.1-0.1-0.1-0.2-0.1s-0.2,0-0.4,0.1c0,0,0,0-0.1-0.1c0-0.1,0-0.1,0-0.2c0.1,0,0.2-0.1,0.3-0.2c0.1-0.1,0.3-0.1,0.4-0.2
				s0.2-0.2,0.4-0.2s0.2-0.2,0.3-0.2l0.1,0.1c0,0.1,0,0.1,0,0.1c-0.1,0-0.1,0.1-0.2,0.2s-0.1,0.2-0.1,0.4l0.8,4.7
				c0.1,0.4,0.1,0.7,0,0.9c-0.1,0.2-0.2,0.4-0.3,0.4c-0.1,0.1-0.2,0.1-0.3,0c-0.1,0-0.2-0.1-0.2-0.2c-0.1-0.1-0.1-0.2,0-0.3
				c0.4-0.3,0.6-0.7,0.5-1.2c0-0.1,0-0.2-0.1-0.3s0-0.2-0.1-0.3l-2.8-2.1c-0.1-0.1-0.2-0.2-0.3-0.2c-0.1,0-0.2,0-0.3,0
				s-0.2,0.1-0.3,0.1c0,0,0,0-0.1-0.1c0-0.1,0-0.1,0-0.2C300.1,272.1,300.4,272,300.4,271.9L300.4,271.9z"/>
		</g>
	</g>
	<g>
		<g>
			<text transform="matrix(0.986 0.1669 -0.1669 0.986 345.9836 220.6331)" class="st1 st3 st31">c</text>
			<text transform="matrix(0.9768 0.2141 -0.2141 0.9768 350.6235 221.4233)" class="st1 st3 st31">o</text>
			<text transform="matrix(0.9637 0.2669 -0.2669 0.9637 356.2934 222.6729)" class="st1 st3 st31">n</text>
			<text transform="matrix(0.95 0.3122 -0.3122 0.95 362.2135 224.3434)" class="st1 st3 st31">s</text>
			<text transform="matrix(0.9364 0.351 -0.351 0.9364 366.2737 225.6834)" class="st1 st3 st31">c</text>
			<text transform="matrix(0.923 0.3848 -0.3848 0.923 370.6637 227.3531)" class="st1 st3 st31">i</text>
			<text transform="matrix(0.9061 0.4231 -0.4231 0.9061 373.7132 228.6031)" class="st1 st3 st31">o</text>
			<text transform="matrix(0.8821 0.471 -0.471 0.8821 378.9837 231.0832)" class="st1 st3 st31">u</text>
			<text transform="matrix(0.8592 0.5116 -0.5116 0.8592 384.1636 233.8831)" class="st1 st3 st31">s</text>
			<text transform="matrix(0.9996 -2.966386e-02 2.966386e-02 0.9996 327.2041 232.5736)" class="st1 st3 st33">i</text>
			<text transform="matrix(0.9993 3.821341e-02 -3.821341e-02 0.9993 330.4435 232.3932)" class="st1 st3 st31">m</text>
			<text transform="matrix(0.9928 0.1196 -0.1196 0.9928 339.2435 232.8132)" class="st1 st3 st31">p</text>
			<text transform="matrix(0.9856 0.1688 -0.1688 0.9856 345.0136 233.5534)" class="st1 st3 st30">l</text>
			<text transform="matrix(0.977 0.213 -0.213 0.977 348.0529 234.0635)" class="st1 st3 st30">e</text>
			<text transform="matrix(0.9578 0.2874 -0.2874 0.9578 352.9036 235.0531)" class="st1 st3 st31">m</text>
			<text transform="matrix(0.933 0.3598 -0.3598 0.933 361.3035 237.6734)" class="st1 st3 st31">e</text>
			<text transform="matrix(0.9089 0.4171 -0.4171 0.9089 365.9248 239.4536)" class="st1 st3 st33">n</text>
			<text transform="matrix(0.8842 0.4672 -0.4672 0.8842 371.5226 242.0622)" class="st1 st3 st34">t</text>
			<text transform="matrix(0.8601 0.5101 -0.5101 0.8601 374.8437 243.8132)" class="st1 st3 st31">e</text>
			<text transform="matrix(0.832 0.5548 -0.5548 0.832 379.0936 246.3632)" class="st1 st3 st31">r</text>
			<text transform="matrix(0.7784 0.6278 -0.6278 0.7784 385.1237 250.5233)" class="st1 st3 st31">o</text>
			<text transform="matrix(0.7437 0.6685 -0.6685 0.7437 389.6235 254.2033)" class="st1 st3 st31">f</text>
			<text transform="matrix(0.9995 -3.228298e-02 3.228298e-02 0.9995 330.5935 245.1831)" class="st1 st3 st42">t</text>
			<text transform="matrix(0.9996 2.809610e-02 -2.809610e-02 0.9996 334.1336 245.0632)" class="st1 st3 st42">e</text>
			<text transform="matrix(0.9956 9.410122e-02 -9.410122e-02 0.9956 338.7738 245.2144)" class="st1 st3 st52">c</text>
			<text transform="matrix(0.986 0.1668 -0.1668 0.986 343.1535 245.6133)" class="st1 st3 st42">h</text>
			<text transform="matrix(0.9688 0.2478 -0.2478 0.9688 348.7036 246.5633)" class="st1 st3 st42">n</text>
			<text transform="matrix(0.9453 0.3261 -0.3261 0.9453 354.2828 248.0222)" class="st1 st3 st53">o</text>
			<text transform="matrix(0.9238 0.3828 -0.3828 0.9238 359.4136 249.8434)" class="st1 st3 st42">l</text>
			<text transform="matrix(0.8986 0.4388 -0.4388 0.8986 362.1137 250.9332)" class="st1 st3 st42">o</text>
			<text transform="matrix(0.8622 0.5066 -0.5066 0.8622 366.9734 253.3334)" class="st1 st3 st42">g</text>
			<text transform="matrix(0.83 0.5577 -0.5577 0.83 371.364 255.9629)" class="st1 st3 st54">i</text>
			<text transform="matrix(0.7981 0.6025 -0.6025 0.7981 373.9035 257.6633)" class="st1 st3 st42">c</text>
			<text transform="matrix(0.7563 0.6542 -0.6542 0.7563 377.4234 260.3335)" class="st1 st3 st42">a</text>
			<text transform="matrix(0.7186 0.6954 -0.6954 0.7186 380.9037 263.3832)" class="st1 st3 st42">l</text>
			<text transform="matrix(0.9999 -1.117072e-02 1.117072e-02 0.9999 327.1933 256.5433)" class="st1 st3 st36">i</text>
			<text transform="matrix(0.9983 5.774192e-02 -5.774192e-02 0.9983 330.4526 256.4741)" class="st1 st3 st37">n</text>
			<text transform="matrix(0.9892 0.1463 -0.1463 0.9892 336.5435 256.8434)" class="st1 st3 st36">n</text>
			<text transform="matrix(0.9729 0.2311 -0.2311 0.9729 342.5734 257.7532)" class="st1 st3 st31">o</text>
			<text transform="matrix(0.9506 0.3105 -0.3105 0.9506 348.1637 259.1032)" class="st1 st3 st31">v</text>
			<text transform="matrix(0.9242 0.382 -0.382 0.9242 353.4728 260.8735)" class="st1 st3 st55">a</text>
			<text transform="matrix(0.8984 0.4392 -0.4392 0.8984 357.9536 262.7532)" class="st1 st3 st31">t</text>
			<text transform="matrix(0.8745 0.485 -0.485 0.8745 361.3137 264.4232)" class="st1 st3 st31">i</text>
			<text transform="matrix(0.8405 0.5419 -0.5419 0.8405 364.1729 265.9731)" class="st1 st3 st34">o</text>
			<text transform="matrix(0.7901 0.613 -0.613 0.7901 368.9945 269.0934)" class="st1 st3 st38">n</text>
			<text transform="matrix(0.7412 0.6713 -0.6713 0.7412 373.8035 272.8831)" class="st1 st3 st31">s</text>
		</g>
		<g>
			<path class="st1" d="M347.4,268.7c0.6,0.2,1,0.5,1.2,1s0.3,0.9,0.1,1.4c-0.2,0.6-0.5,1-1,1.3s-1.1,0.4-1.6,0.2
				c-0.2-0.1-0.4-0.1-0.6-0.2s-0.3-0.2-0.3-0.2s-0.1,0-0.2,0s-0.1,0-0.1,0s-0.1,0-0.1-0.1l-0.1-0.1c0,0,0-0.1,0.1-0.1
				c0-0.1,0.1-0.2,0.2-0.4s0.1-0.4,0.2-0.6l1-3.7c0.1-0.2,0.1-0.4,0.1-0.6c0-0.1-0.1-0.2-0.4-0.3h-0.1v-0.1c0-0.1,0.1-0.1,0.1-0.1
				c0.2,0,0.4,0.1,0.5,0.1c0.2,0,0.3,0,0.4,0s0.2,0,0.2,0h0.1l0,0l0,0c0,0,0,0,0.1,0.1v0.1c-0.1,0.2-0.2,0.4-0.3,0.7l-0.4,1.6
				c0,0.1,0,0.1,0,0.1l0,0c0.1,0,0.2-0.1,0.4-0.1C347.1,268.6,347.2,268.6,347.4,268.7L347.4,268.7z M346.9,269
				c-0.2-0.1-0.3,0-0.5,0c-0.1,0.1-0.2,0.2-0.3,0.3l-0.6,2.1c0,0.2,0,0.3,0.1,0.5s0.3,0.2,0.6,0.3c0.3,0.1,0.6,0,0.9-0.2
				s0.5-0.6,0.6-1c0.1-0.5,0.1-0.9,0-1.2S347.3,269.1,346.9,269L346.9,269z"/>
			<path class="st1" d="M351.1,269.9c0.1,0,0.2,0.1,0.3,0.1c0.1,0,0.2,0.1,0.3,0.1c0.1,0,0.2,0.1,0.3,0.1v0.1c0,0.1-0.1,0.1-0.1,0.1
				s-0.1,0-0.2,0s-0.2,0-0.2,0.1l0,0c0,0.1,0,1,0.1,2.6l1.4-1.6c0.1-0.1,0.1-0.2,0.2-0.2c0-0.1,0-0.2,0-0.3
				c-0.1-0.1-0.2-0.2-0.3-0.2v-0.1c0-0.1,0.1-0.1,0.1-0.1c0.1,0,0.2,0.1,0.3,0.2c0.1,0.1,0.3,0.1,0.4,0.2s0.3,0.1,0.4,0.1
				s0.3,0.1,0.4,0.1v0.1c0,0.1-0.1,0.1-0.1,0.1c-0.1,0-0.2,0-0.3,0c-0.1,0-0.3,0.1-0.4,0.2l-3.1,3.6c-0.3,0.3-0.5,0.5-0.7,0.6
				s-0.4,0.1-0.5,0c-0.1,0-0.2-0.1-0.2-0.2s0-0.2,0-0.3c0-0.1,0.1-0.2,0.2-0.2c0.5,0.2,0.9,0.1,1.2-0.4c0.1-0.1,0.1-0.2,0.2-0.3
				s0.2-0.2,0.2-0.3l-0.1-3.5c0-0.2,0-0.3-0.1-0.4c0-0.1-0.1-0.2-0.2-0.2s-0.2-0.1-0.2-0.2v-0.1c0-0.1,0.1-0.1,0.1-0.1
				C350.8,269.8,351.1,269.9,351.1,269.9L351.1,269.9z"/>
		</g>
	</g>
	<g>
		<g>
			<text transform="matrix(-0.3774 0.9261 -0.9261 -0.3774 419.1235 366.0426)" class="st1 st3 st34">c</text>
			<text transform="matrix(-0.422 0.9066 -0.9066 -0.422 417.3446 370.4235)" class="st1 st3 st31">o</text>
			<text transform="matrix(-0.4712 0.882 -0.882 -0.4712 414.8933 375.6829)" class="st1 st3 st31">n</text>
			<text transform="matrix(-0.5201 0.8541 -0.8541 -0.5201 411.9843 381.0932)" class="st1 st3 st31">n</text>
			<text transform="matrix(-0.5628 0.8266 -0.8266 -0.5628 408.7544 386.3432)" class="st1 st3 st31">e</text>
			<text transform="matrix(-0.5989 0.8008 -0.8008 -0.5989 405.9443 390.4435)" class="st1 st3 st31">c</text>
			<text transform="matrix(-0.6296 0.7769 -0.7769 -0.6296 403.0847 394.233)" class="st1 st3 st31">t</text>
			<text transform="matrix(-0.6629 0.7487 -0.7487 -0.6629 400.7329 397.1631)" class="st1 st3 st31">o</text>
			<text transform="matrix(-0.6972 0.7169 -0.7169 -0.6972 396.8648 401.4922)" class="st1 st3 st31">r</text>
			<text transform="matrix(-0.7479 0.6638 -0.6638 -0.7479 391.6548 406.7132)" class="st1 st3 st31">o</text>
			<text transform="matrix(-0.7757 0.6311 -0.6311 -0.7757 387.2927 410.5332)" class="st1 st3 st31">f</text>
			<text transform="matrix(-0.378 0.9258 -0.9258 -0.378 406.015 360.2532)" class="st1 st3 st31">p</text>
			<text transform="matrix(-0.4335 0.9012 -0.9012 -0.4335 403.7949 365.6232)" class="st1 st3 st34">e</text>
			<text transform="matrix(-0.4873 0.8733 -0.8733 -0.4873 401.6427 370.0928)" class="st1 st3 st56">o</text>
			<text transform="matrix(-0.543 0.8397 -0.8397 -0.543 398.8127 375.1325)" class="st1 st3 st31">p</text>
			<text transform="matrix(-0.5842 0.8116 -0.8116 -0.5842 395.6032 380.0027)" class="st1 st3 st31">l</text>
			<text transform="matrix(-0.6202 0.7845 -0.7845 -0.6202 393.8131 382.5141)" class="st1 st3 st34">e</text>
			<text transform="matrix(-0.6862 0.7274 -0.7274 -0.6862 388.8336 388.5837)" class="st1 st3 st31">a</text>
			<text transform="matrix(-0.7297 0.6838 -0.6838 -0.7297 385.4836 392.1432)" class="st1 st3 st31">n</text>
			<text transform="matrix(-0.7732 0.6342 -0.6342 -0.7732 380.9835 396.3227)" class="st1 st3 st31">d</text>
			<text transform="matrix(-0.3002 0.9539 -0.9539 -0.3002 392.6942 349.8432)" class="st1 st3 st31">g</text>
			<text transform="matrix(-0.3775 0.926 -0.926 -0.3775 391.0744 354.9734)" class="st1 st3 st31">o</text>
			<text transform="matrix(-0.4537 0.8912 -0.8912 -0.4537 388.8737 360.3024)" class="st1 st3 st33">v</text>
			<text transform="matrix(-0.5206 0.8538 -0.8538 -0.5206 386.3244 365.2533)" class="st1 st3 st31">e</text>
			<text transform="matrix(-0.5781 0.8159 -0.8159 -0.5781 383.7159 369.4826)" class="st1 st3 st57">r</text>
			<text transform="matrix(-0.6386 0.7695 -0.7695 -0.6386 381.1938 373.0736)" class="st1 st3 st31">n</text>
			<text transform="matrix(-0.698 0.7161 -0.7161 -0.698 377.2641 377.7427)" class="st1 st3 st31">a</text>
			<text transform="matrix(-0.7529 0.6582 -0.6582 -0.7529 373.894 381.2133)" class="st1 st3 st34">n</text>
			<text transform="matrix(-0.8023 0.5969 -0.5969 -0.8023 369.253 385.2131)" class="st1 st3 st31">c</text>
			<text transform="matrix(-0.8424 0.5389 -0.5389 -0.8424 365.5018 387.9929)" class="st1 st3 st31">e</text>
		</g>
		<g>
			<path class="st1" d="M378.2,365.5c-0.3,0.5-0.8,0.8-1.3,0.8c-0.5,0.1-1,0-1.4-0.3c-0.5-0.3-0.8-0.8-0.9-1.4s0-1.1,0.2-1.6
				c0.1-0.2,0.3-0.4,0.4-0.5s0.2-0.2,0.2-0.3c0-0.1,0-0.1,0.1-0.2c0-0.1,0-0.1,0-0.2c0,0,0-0.1,0.1-0.1s0.1,0,0.1,0s0,0,0.1,0.1
				s0.2,0.2,0.3,0.3s0.3,0.2,0.5,0.4l3.2,2.1c0.2,0.1,0.4,0.2,0.5,0.3c0.1,0,0.2-0.1,0.4-0.3v-0.1h0.1c0.1,0.1,0.1,0.1,0.1,0.1
				c-0.1,0.2-0.2,0.3-0.2,0.5s-0.1,0.3-0.1,0.4s0,0.2,0,0.2c0,0.1,0,0.1,0,0.2v0.1l0,0c0,0,0,0-0.1,0h-0.1c-0.1-0.2-0.3-0.3-0.6-0.5
				l-1.4-0.9c0,0-0.1-0.1-0.1,0l0,0c0,0.1,0,0.2,0,0.4C378.4,365.3,378.3,365.4,378.2,365.5L378.2,365.5z M378,365
				c0.1-0.1,0.1-0.3,0.1-0.4s-0.1-0.3-0.2-0.4l-1.8-1.2c-0.2-0.1-0.3-0.1-0.5,0s-0.3,0.2-0.5,0.4c-0.2,0.3-0.2,0.6,0,1
				s0.4,0.6,0.8,0.9s0.8,0.4,1.2,0.3C377.5,365.5,377.8,365.3,378,365L378,365z"/>
			<path class="st1" d="M375.9,368.7c-0.1,0.1-0.1,0.2-0.2,0.2c0,0.1-0.1,0.2-0.2,0.2c-0.1,0.1-0.1,0.2-0.2,0.2c0,0-0.1,0-0.1-0.1
				c-0.1-0.1-0.1-0.1-0.1-0.1s0.1-0.1,0.1-0.2s0-0.2,0-0.2l0,0c-0.1-0.1-0.9-0.3-2.5-0.7l1.2,1.8c0.1,0.1,0.1,0.2,0.2,0.2
				c0.1,0.1,0.2,0.1,0.3,0c0.1,0,0.2-0.1,0.3-0.2c0,0,0,0,0.1,0.1s0.1,0.1,0.1,0.1c0,0.1-0.1,0.2-0.2,0.3c-0.1,0.1-0.2,0.2-0.3,0.3
				c-0.1,0.1-0.2,0.2-0.3,0.4s-0.2,0.2-0.2,0.3c0,0-0.1,0-0.1-0.1c-0.1-0.1-0.1-0.1-0.1-0.1c0-0.1,0.1-0.2,0.1-0.3
				c0-0.1,0-0.3,0-0.4l-2.5-4c-0.2-0.3-0.3-0.6-0.3-0.9c0-0.2,0-0.4,0.1-0.5s0.2-0.2,0.3-0.2c0.1,0,0.2,0,0.2,0.1
				c0.1,0.1,0.2,0.2,0.1,0.3c-0.3,0.4-0.3,0.8,0,1.3c0,0.1,0.1,0.2,0.2,0.3c0.1,0.1,0.1,0.2,0.2,0.3l3.4,0.9c0.2,0,0.3,0.1,0.4,0.1
				s0.2-0.1,0.3-0.1c0.1-0.1,0.2-0.1,0.2-0.2c0,0,0,0,0.1,0c0.1,0.1,0.1,0.1,0.1,0.1C376.1,368.4,375.9,368.7,375.9,368.7
				L375.9,368.7z"/>
		</g>
	</g>
	<g>
		<g>
			<text transform="matrix(0.4199 0.9076 -0.9076 0.4199 426.863 275.8232)" class="st1 st3 st44">i</text>
			<text transform="matrix(0.3775 0.926 -0.926 0.3775 428.3536 278.9832)" class="st1 st3 st44">n</text>
			<text transform="matrix(0.3236 0.9462 -0.9462 0.3236 430.7935 285.0234)" class="st1 st3 st44">v</text>
			<text transform="matrix(0.2704 0.9627 -0.9627 0.2704 432.7033 290.644)" class="st1 st3 st46">o</text>
			<text transform="matrix(0.228 0.9737 -0.9737 0.228 434.3331 296.6025)" class="st1 st3 st48">l</text>
			<text transform="matrix(0.1858 0.9826 -0.9826 0.1858 435.1042 299.8234)" class="st1 st3 st44">v</text>
			<text transform="matrix(0.135 0.9908 -0.9908 0.135 436.1939 305.6836)" class="st1 st3 st46">e</text>
			<text transform="matrix(8.941577e-02 0.996 -0.996 8.941577e-02 436.8934 310.9131)" class="st1 st3 st44">r</text>
			<text transform="matrix(1.186797e-02 0.9999 -0.9999 1.186797e-02 437.4723 318.6833)" class="st1 st3 st44">o</text>
			<text transform="matrix(-3.315191e-02 0.9995 -0.9995 -3.315191e-02 437.5149 324.8527)" class="st1 st3 st47">f</text>
			<text transform="matrix(0.5606 0.8281 -0.8281 0.5606 406.0739 272.9134)" class="st1 st3 st31">h</text>
			<text transform="matrix(0.5044 0.8635 -0.8635 0.5044 409.4132 277.8833)" class="st1 st3 st31">u</text>
			<text transform="matrix(0.4318 0.902 -0.902 0.4318 412.3934 282.8933)" class="st1 st3 st31">m</text>
			<text transform="matrix(0.3608 0.9326 -0.9326 0.3608 416.1239 290.8819)" class="st1 st3 st36">a</text>
			<text transform="matrix(0.302 0.9533 -0.9533 0.302 417.8932 295.4332)" class="st1 st3 st31">n</text>
			<text transform="matrix(0.2453 0.9694 -0.9694 0.2453 419.7123 301.3242)" class="st1 st3 st30">s</text>
			<text transform="matrix(0.1632 0.9866 -0.9866 0.1632 421.3234 308.2231)" class="st1 st3 st31">a</text>
			<text transform="matrix(0.1018 0.9948 -0.9948 0.1018 422.1334 313.0332)" class="st1 st3 st31">n</text>
			<text transform="matrix(3.576881e-02 0.9994 -0.9994 3.576881e-02 422.7343 319.1534)" class="st1 st3 st33">d</text>
			<text transform="matrix(-6.122278e-02 0.9981 -0.9981 -6.122278e-02 422.893 327.6931)" class="st1 st3 st31">n</text>
			<text transform="matrix(-0.1272 0.9919 -0.9919 -0.1272 422.4928 333.8131)" class="st1 st3 st31">o</text>
			<text transform="matrix(-0.1934 0.9811 -0.9811 -0.1934 421.7535 339.5531)" class="st1 st3 st31">n</text>
			<text transform="matrix(0.5023 0.8647 -0.8647 0.5023 396.0127 287.8032)" class="st1 st3 st31">h</text>
			<text transform="matrix(0.4255 0.905 -0.905 0.4255 398.9939 292.9728)" class="st1 st3 st33">u</text>
			<text transform="matrix(0.3264 0.9452 -0.9452 0.3264 401.5134 298.1833)" class="st1 st3 st31">m</text>
			<text transform="matrix(0.2297 0.9733 -0.9733 0.2297 404.2626 306.5226)" class="st1 st3 st33">a</text>
			<text transform="matrix(0.1506 0.9886 -0.9886 0.1506 405.3837 311.2332)" class="st1 st3 st31">n</text>
			<text transform="matrix(7.567971e-02 0.9971 -0.9971 7.567971e-02 406.2544 317.2734)" class="st1 st3 st37">s</text>
			<text transform="matrix(-3.542275e-02 0.9994 -0.9994 -3.542275e-02 406.6432 324.3234)" class="st1 st3 st31">b</text>
			<text transform="matrix(-0.1155 0.9933 -0.9933 -0.1155 406.415 329.9731)" class="st1 st3 st31">y</text>
		</g>
		<g>
			<path class="st1" d="M393.7,310c0.2,0.6,0.1,1.1-0.1,1.5s-0.6,0.7-1,0.9c-0.5,0.2-1.1,0.2-1.7-0.1c-0.6-0.3-0.9-0.7-1.1-1.1
				c-0.1-0.2-0.1-0.4-0.1-0.6s0-0.3-0.1-0.3c0-0.1-0.1-0.1-0.1-0.2c-0.1-0.1-0.1-0.1-0.1-0.1v-0.1c0-0.1,0-0.1,0-0.1s0,0,0.1,0
				s0.2,0,0.4-0.1s0.4-0.1,0.6-0.2l3.6-1.2c0.2-0.1,0.4-0.2,0.5-0.2c0.1-0.1,0.1-0.2,0-0.5v-0.1c0,0,0-0.1,0.1-0.1s0.1,0,0.2,0
				c0.1,0.2,0.1,0.3,0.2,0.5c0.1,0.1,0.1,0.2,0.2,0.3c0.1,0.1,0.1,0.1,0.2,0.2c0,0.1,0.1,0.1,0.1,0.1l0,0l0,0v0.1c0,0,0,0.1-0.1,0.1
				c-0.2,0-0.5,0.1-0.8,0.2l-1.5,0.5c-0.1,0-0.1,0-0.1,0.1l0,0c0.1,0.1,0.2,0.2,0.3,0.3C393.6,309.8,393.7,309.9,393.7,310
				L393.7,310z M393.2,309.9c-0.1-0.2-0.1-0.3-0.3-0.4c-0.1-0.1-0.3-0.1-0.5,0l-2,0.7c-0.2,0.1-0.3,0.2-0.3,0.4c0,0.2,0,0.4,0.1,0.6
				c0.1,0.3,0.4,0.5,0.7,0.6c0.4,0.1,0.8,0.1,1.2-0.1c0.5-0.2,0.8-0.4,1-0.7C393.3,310.6,393.3,310.3,393.2,309.9L393.2,309.9z"/>
			<path class="st1" d="M394.8,313.8c0,0.1,0,0.2,0.1,0.3c0,0.1,0.1,0.2,0.1,0.3s0.1,0.2,0.1,0.3c0,0-0.1,0-0.1,0.1
				c-0.1,0-0.1,0-0.1,0c0-0.1,0-0.1-0.1-0.2s-0.1-0.2-0.2-0.2l0,0c-0.1,0-0.8,0.5-2.1,1.5l2.1,0.2c0.1,0,0.2,0,0.3,0
				c0.1,0,0.1-0.1,0.2-0.2c0-0.1,0-0.2,0-0.4c0,0,0,0,0.1-0.1c0.1,0,0.1,0,0.1,0c0,0.1,0,0.2,0.1,0.4s0.1,0.3,0.1,0.4
				s0.1,0.3,0.1,0.4s0.1,0.3,0.1,0.3s-0.1,0-0.1,0.1c-0.1,0-0.1,0-0.1,0c0-0.1-0.1-0.2-0.2-0.3s-0.2-0.2-0.3-0.2l-4.7-0.5
				c-0.4-0.1-0.7-0.1-0.9-0.3c-0.2-0.1-0.3-0.3-0.3-0.4s0-0.2,0-0.3c0.1-0.1,0.1-0.1,0.2-0.2c0.1,0,0.2,0,0.3,0.1
				c0.1,0.5,0.5,0.8,1,0.8c0.1,0,0.2,0,0.4,0c0.1,0,0.2,0,0.3,0l2.8-2.1c0.1-0.1,0.2-0.2,0.3-0.2c0-0.1,0.1-0.2,0.1-0.3
				c0-0.1,0-0.2,0-0.3c0,0,0-0.1,0.1-0.1s0.1,0,0.1,0C394.7,313.5,394.8,313.8,394.8,313.8L394.8,313.8z"/>
		</g>
	</g>
</g>
<g id="Layer_4">
	<polygon class="st58" points="108.1,344.5 301.4,111.3 461.9,266.9 355.4,246.3 	"/>
	<circle class="st59" cx="355.9" cy="247.6" r="21.8"/>
	<ellipse class="st59" cx="459.1" cy="266.4" rx="21.8" ry="21.8"/>
	<circle class="st59" cx="108.1" cy="343.8" r="21.8"/>
	<circle class="st59" cx="301.8" cy="110.9" r="21.8"/>
</g>
</svg>
