<?xml version="1.0" encoding="UTF-8"?>
<svg id="uuid-b0f1917f-5101-4b3c-a805-df043f73bcec" data-name="Layer 1" xmlns="http://www.w3.org/2000/svg" viewBox="0 0 582.15 255.72">
  <defs>
    <style>
      .uuid-68960bb3-9ce5-458e-b603-b26d2630de5a {
        stroke: #565b9e;
        stroke-miterlimit: 10;
        stroke-width: 6px;
      }

      .uuid-68960bb3-9ce5-458e-b603-b26d2630de5a, .uuid-40e3c423-2478-4ed2-ba59-41dc1fb94f24, .uuid-4c8ab441-ac4a-4614-a839-7b88e1a91f6f {
        fill: none;
      }

      .uuid-f65007b2-c403-4f87-a100-5230a5f28147 {
        fill: #929ab5;
      }

      .uuid-9411e3d8-8d5b-4be1-a7d9-c4202b3c0fae {
        fill: #8c96b4;
      }

      .uuid-88eee444-d835-4cde-a285-d85ccb816b85 {
        fill: #565b9e;
      }

      .uuid-40e3c423-2478-4ed2-ba59-41dc1fb94f24 {
        stroke: #929ab5;
      }

      .uuid-40e3c423-2478-4ed2-ba59-41dc1fb94f24, .uuid-4c8ab441-ac4a-4614-a839-7b88e1a91f6f {
        stroke-width: 2px;
      }

      .uuid-4c8ab441-ac4a-4614-a839-7b88e1a91f6f {
        stroke: #464664;
        stroke-dasharray: 0 0 0 5.92;
        stroke-linecap: round;
        stroke-linejoin: round;
      }
    </style>
  </defs>
  <path class="uuid-68960bb3-9ce5-458e-b603-b26d2630de5a" d="M17.07,211.13S51.06,30.54,146.03,30.54c88.5,0,89.51,130.09,144.08,132.03,60.44,2.16,68.51-71.21,110.08-70.15,42.63,1.07,99.83,122.48,180.77,87.42"/>
  <line class="uuid-40e3c423-2478-4ed2-ba59-41dc1fb94f24" x1="1.51" y1="118.91" x2="62.08" y2="38.41"/>
  <polygon class="uuid-f65007b2-c403-4f87-a100-5230a5f28147" points="70 27.88 51.8 39.72 62.08 38.41 63.67 48.65 70 27.88"/>
  <line class="uuid-40e3c423-2478-4ed2-ba59-41dc1fb94f24" x1="200.68" y1=".61" x2="270.91" y2="92.15"/>
  <polygon class="uuid-f65007b2-c403-4f87-a100-5230a5f28147" points="278.93 102.6 272.4 81.88 270.9 92.15 260.61 90.93 278.93 102.6"/>
  <line class="uuid-40e3c423-2478-4ed2-ba59-41dc1fb94f24" x1="315.98" y1="124.77" x2="373.93" y2="75.56"/>
  <polygon class="uuid-f65007b2-c403-4f87-a100-5230a5f28147" points="383.98 67.02 363.61 74.58 373.93 75.56 373.23 85.9 383.98 67.02"/>
  <line class="uuid-40e3c423-2478-4ed2-ba59-41dc1fb94f24" x1="428.73" y1="75.71" x2="500.66" y2="136.28"/>
  <polygon class="uuid-f65007b2-c403-4f87-a100-5230a5f28147" points="510.75 144.77 499.92 125.95 500.66 136.28 490.35 137.31 510.75 144.77"/>
  <g>
    <path class="uuid-88eee444-d835-4cde-a285-d85ccb816b85" d="M73.57,239.39c0-.69-.04-1.19-.12-1.49-.03-.09-.19-.17-.48-.24-.28-.07-.5-.11-.64-.11-.04,0-.07-.07-.07-.22,0-.13,.02-.22,.07-.27,1.28,.06,1.95,.08,2.01,.08,.18,0,.83-.03,1.94-.08,.02,.07,.03,.15,.03,.25,0,.16-.02,.23-.07,.23-.11,0-.31,.04-.6,.12-.29,.08-.45,.16-.47,.23-.1,.39-.15,.91-.15,1.56v6.36c0,.65,.05,1.17,.15,1.56,.02,.08,.18,.15,.47,.23,.29,.07,.49,.11,.6,.11,.04,0,.07,.08,.07,.25,0,.09-.01,.17-.03,.23-1.12-.06-1.76-.08-1.94-.08-.06,0-.73,.03-2.01,.08-.04-.04-.07-.13-.07-.25,0-.16,.02-.23,.07-.23,.15,0,.36-.03,.64-.1,.28-.07,.44-.15,.48-.23,.08-.3,.12-.8,.12-1.49v-6.49Z"/>
    <path class="uuid-88eee444-d835-4cde-a285-d85ccb816b85" d="M82.33,240.81c.78,0,1.33,.28,1.64,.84,.31,.56,.47,1.46,.47,2.71v1.52c0,.65,.04,1.14,.13,1.49,.02,.08,.17,.15,.44,.23,.27,.07,.46,.11,.57,.11,.03,0,.06,.07,.07,.2,.01,.13,0,.23-.02,.28-1.12-.06-1.71-.08-1.79-.08-.02,0-.61,.03-1.76,.08-.04-.04-.07-.14-.07-.28s.02-.21,.07-.21c.13,0,.32-.04,.56-.11,.24-.07,.37-.15,.39-.23,.08-.32,.12-.71,.12-1.17v-1.67c0-1.04-.13-1.75-.4-2.12-.27-.38-.7-.57-1.31-.57-.36,0-.7,.13-1.03,.39-.33,.26-.49,.5-.49,.71v2.94c0,.65,.04,1.14,.13,1.49,.02,.08,.17,.15,.44,.23,.27,.07,.46,.11,.57,.11,.03,0,.06,.07,.07,.2s0,.23-.02,.28c-1.12-.06-1.71-.08-1.79-.08-.07,0-.68,.03-1.82,.08-.04-.04-.07-.14-.07-.28s.02-.21,.07-.21c.13,0,.33-.04,.59-.11,.26-.07,.4-.15,.43-.23,.08-.32,.12-.71,.12-1.17v-3.16c0-.44-.08-.74-.23-.9-.11-.13-.25-.23-.41-.28-.16-.05-.3-.08-.4-.08s-.16-.01-.16-.03c0-.27,.03-.41,.1-.42,1.18-.18,1.95-.32,2.31-.43,.01,0,.04,0,.08-.02,.04,0,.07,.05,.08,.14,.01,.09,.01,.17,0,.21-.04,.31-.07,.54-.07,.67,0,.04,.01,.07,.03,.07,.01,0,.03-.01,.05-.03,.26-.27,.6-.52,1.05-.76,.44-.24,.86-.36,1.26-.36Z"/>
    <path class="uuid-88eee444-d835-4cde-a285-d85ccb816b85" d="M89.23,240.83c.25,0,.55,.03,.93,.09,.37,.06,.63,.1,.78,.13,.11,.51,.18,1.08,.2,1.71,0,.06-.07,.08-.22,.08-.16,0-.24-.04-.25-.12-.06-.31-.21-.61-.48-.89-.26-.28-.56-.42-.9-.42-.8,0-1.2,.33-1.2,.99,0,.17,.02,.31,.07,.44,.04,.13,.13,.25,.26,.37,.13,.12,.23,.2,.29,.25,.07,.05,.21,.14,.44,.27,.23,.13,.37,.21,.43,.24,.04,.02,.18,.1,.39,.23,.22,.13,.37,.22,.46,.28,.09,.06,.22,.15,.39,.28s.3,.25,.38,.36c.08,.11,.15,.24,.23,.4,.07,.16,.11,.33,.11,.49,0,.66-.26,1.21-.77,1.65-.51,.44-1.12,.66-1.81,.66-.23,0-.45-.01-.64-.04-.2-.03-.43-.08-.69-.14s-.47-.11-.62-.13c-.07-.18-.13-.46-.19-.84-.06-.38-.09-.68-.09-.9,.09-.07,.16-.1,.2-.1,.17,0,.26,.03,.27,.1,.07,.33,.28,.66,.63,.98,.35,.32,.73,.48,1.15,.48,.36,0,.65-.1,.88-.29s.34-.48,.34-.84c0-.19-.04-.37-.11-.53-.07-.16-.19-.31-.35-.43-.16-.13-.31-.23-.45-.32s-.34-.19-.59-.33c-.26-.13-.45-.24-.57-.32-.87-.5-1.31-1.1-1.31-1.79,0-.6,.24-1.09,.73-1.47,.48-.38,1.05-.57,1.7-.57Z"/>
    <path class="uuid-88eee444-d835-4cde-a285-d85ccb816b85" d="M96.54,240.84c1.07,0,1.91,.36,2.51,1.08,.6,.72,.9,1.49,.9,2.3,0,1.07-.37,2.01-1.12,2.83-.75,.81-1.6,1.22-2.54,1.22-.17,0-.31,0-.44-.02-.13-.01-.24-.03-.34-.06-.1-.03-.18-.05-.23-.08s-.13-.05-.22-.09c-.09-.04-.15-.06-.17-.08-.04,.06-.07,.13-.07,.22v1.44c0,.65,.04,1.14,.13,1.49,.02,.08,.17,.15,.44,.23,.27,.07,.46,.11,.57,.11,.03,0,.06,.07,.07,.21s0,.23-.02,.28c-1.12-.06-1.71-.08-1.79-.08-.07,0-.67,.03-1.82,.08-.04-.04-.07-.14-.07-.28s.02-.21,.07-.21c.13,0,.33-.04,.59-.11,.26-.07,.4-.15,.43-.23,.08-.32,.12-.71,.12-1.17v-6.91c0-.43-.08-.74-.23-.9-.11-.13-.25-.23-.41-.28-.16-.05-.3-.08-.4-.08s-.16-.01-.16-.03c0-.27,.03-.41,.1-.42,1.18-.18,1.95-.32,2.31-.44,.01,0,.04,0,.08-.02,.03,0,.05,.03,.05,.09s0,.14-.02,.23c-.01,.09-.02,.14-.02,.15v.1c.16-.11,.42-.24,.78-.38,.36-.14,.67-.21,.93-.21Zm-.54,.82c-.35,0-.63,.09-.85,.28-.22,.18-.33,.45-.33,.79v3.76c0,.3,.16,.55,.49,.76,.32,.21,.67,.31,1.05,.31,.66,0,1.18-.29,1.57-.89,.39-.59,.59-1.25,.59-1.99,0-.94-.25-1.68-.74-2.22-.5-.54-1.08-.81-1.77-.81Z"/>
    <path class="uuid-88eee444-d835-4cde-a285-d85ccb816b85" d="M103.61,245.88c0,.65,.04,1.14,.13,1.49,.02,.08,.17,.15,.44,.23,.27,.07,.46,.11,.57,.11,.03,0,.06,.07,.07,.2s0,.23-.02,.28c-1.12-.06-1.71-.08-1.79-.08s-.69,.03-1.82,.08c-.04-.04-.07-.14-.07-.28s.02-.21,.07-.21c.13,0,.33-.04,.59-.11,.26-.07,.4-.15,.43-.23,.08-.32,.12-.71,.12-1.17v-3.16c0-.44-.08-.74-.23-.9-.11-.13-.25-.23-.41-.28-.16-.05-.3-.08-.4-.08s-.16-.01-.16-.03c0-.27,.03-.41,.1-.42,1.18-.18,1.95-.32,2.31-.43l.03-.02h.05s.07,.05,.08,.14,.01,.17,0,.21c-.06,.45-.08,.85-.08,1.21v3.45Zm-1.36-7.07c-.16-.16-.24-.36-.24-.59s.08-.43,.24-.59c.16-.16,.36-.24,.59-.24s.43,.08,.59,.24c.16,.16,.24,.36,.24,.59s-.08,.43-.24,.59c-.16,.16-.36,.24-.59,.24s-.43-.08-.59-.24Z"/>
    <path class="uuid-88eee444-d835-4cde-a285-d85ccb816b85" d="M109.99,240.83c.66,0,1.09,.16,1.3,.49,0,.39-.06,.67-.18,.85-.12,.18-.27,.27-.45,.27-.2,0-.38-.09-.55-.28-.17-.19-.4-.29-.69-.29-.35,0-.65,.16-.9,.49-.26,.32-.38,.66-.38,1.02v2.51c0,.65,.04,1.14,.13,1.49,.02,.08,.17,.15,.44,.23,.27,.07,.47,.11,.58,.11,.03,0,.06,.07,.07,.2,.01,.13,0,.23-.02,.28-1.12-.06-1.72-.08-1.81-.08-.07,0-.68,.03-1.82,.08-.04-.04-.07-.14-.07-.28s.02-.21,.07-.21c.13,0,.33-.04,.59-.11,.26-.07,.4-.15,.43-.23,.08-.32,.12-.71,.12-1.17v-3.16c0-.44-.08-.74-.23-.9-.11-.13-.25-.23-.41-.28-.16-.05-.3-.08-.4-.08s-.16-.01-.16-.03c0-.27,.03-.41,.1-.42,1.18-.18,1.95-.32,2.31-.43,.01,0,.04,0,.08-.02,.04,0,.07,.05,.08,.14,.01,.09,.01,.17,0,.21l-.1,.84c.2-.3,.48-.58,.83-.84,.35-.26,.7-.39,1.05-.39Z"/>
    <path class="uuid-88eee444-d835-4cde-a285-d85ccb816b85" d="M115.36,240.84c.61,0,1.05,.15,1.32,.44,.27,.3,.4,.77,.4,1.43v3.87c0,.23,.06,.43,.18,.58s.29,.23,.5,.23c.16,0,.35-.08,.59-.23,.04,0,.07,.04,.07,.13,0,.15-.03,.26-.08,.35-.46,.39-.85,.59-1.17,.59-.26,0-.5-.11-.74-.32s-.4-.43-.49-.67c-.01,0-.05,.04-.13,.11-.07,.07-.17,.16-.29,.25-.12,.09-.27,.19-.43,.29s-.35,.18-.57,.25c-.22,.07-.44,.1-.66,.1-.51,0-.94-.14-1.27-.41-.33-.27-.5-.68-.5-1.23,0-.25,.06-.48,.18-.69s.27-.4,.44-.54,.4-.28,.69-.43,.54-.25,.74-.33c.21-.07,.48-.17,.81-.28,.33-.11,.57-.2,.7-.25,.1-.03,.15-.12,.15-.25v-1.25c0-.36-.11-.63-.33-.83s-.49-.29-.8-.29c-.33,0-.61,.11-.84,.34-.22,.23-.33,.53-.33,.9,0,.39-.23,.59-.69,.59-.31,0-.53-.11-.65-.32,0-.48,.35-.96,1.05-1.43,.7-.47,1.42-.71,2.14-.71Zm-1.57,6.22c.19,.16,.44,.24,.74,.24s.59-.09,.87-.28c.28-.18,.42-.37,.42-.56v-1.72c-.09,.04-.31,.12-.65,.23s-.62,.21-.81,.29c-.2,.08-.38,.22-.57,.42s-.28,.42-.28,.68c0,.3,.09,.53,.28,.69Z"/>
    <path class="uuid-88eee444-d835-4cde-a285-d85ccb816b85" d="M119.86,241.88h-.97c-.06,0-.08-.12-.08-.35,0-.07,0-.11,.02-.12,.32-.15,.67-.44,1.05-.89,.12-.15,.24-.31,.36-.49,.12-.18,.21-.34,.29-.48,.08-.13,.12-.21,.12-.22,.33,0,.5,.03,.5,.08v1.66c.29,0,.73,0,1.32,0,.59,0,.9,0,.94,0,.09,0,.13,.05,.13,.15,0,.2-.06,.41-.17,.64h-2.23v4.1c0,.45,.11,.8,.34,1.07,.23,.27,.53,.4,.9,.4,.33,0,.68-.11,1.04-.32,.03-.02,.08,.03,.15,.14s.09,.18,.08,.19c-.17,.18-.42,.35-.77,.53s-.7,.26-1.07,.26c-.56,0-1.02-.18-1.4-.55-.37-.37-.56-.89-.56-1.57v-4.25Z"/>
    <path class="uuid-88eee444-d835-4cde-a285-d85ccb816b85" d="M126.8,245.88c0,.65,.04,1.14,.13,1.49,.02,.08,.17,.15,.44,.23,.27,.07,.46,.11,.57,.11,.03,0,.06,.07,.07,.2s0,.23-.02,.28c-1.12-.06-1.71-.08-1.79-.08s-.69,.03-1.82,.08c-.04-.04-.07-.14-.07-.28s.02-.21,.07-.21c.13,0,.33-.04,.59-.11,.26-.07,.4-.15,.43-.23,.08-.32,.12-.71,.12-1.17v-3.16c0-.44-.08-.74-.23-.9-.11-.13-.25-.23-.41-.28-.16-.05-.3-.08-.4-.08s-.16-.01-.16-.03c0-.27,.03-.41,.1-.42,1.18-.18,1.95-.32,2.31-.43l.03-.02h.05s.07,.05,.08,.14,.01,.17,0,.21c-.06,.45-.08,.85-.08,1.21v3.45Zm-1.36-7.07c-.16-.16-.24-.36-.24-.59s.08-.43,.24-.59c.16-.16,.36-.24,.59-.24s.43,.08,.59,.24c.16,.16,.24,.36,.24,.59s-.08,.43-.24,.59c-.16,.16-.36,.24-.59,.24s-.43-.08-.59-.24Z"/>
    <path class="uuid-88eee444-d835-4cde-a285-d85ccb816b85" d="M132.53,240.83c1,0,1.86,.36,2.58,1.09,.71,.72,1.07,1.59,1.07,2.61s-.35,1.91-1.05,2.64c-.7,.73-1.55,1.1-2.57,1.1s-1.88-.37-2.59-1.1c-.71-.73-1.07-1.61-1.07-2.64s.35-1.91,1.04-2.63,1.56-1.07,2.59-1.07Zm-.18,.65c-.59,0-1.07,.27-1.45,.81-.37,.54-.56,1.2-.56,1.98,0,.92,.24,1.7,.71,2.35,.47,.65,1.03,.98,1.66,.98,.59,0,1.08-.28,1.46-.84s.57-1.23,.57-2.01c0-.9-.24-1.68-.72-2.32-.48-.64-1.04-.96-1.67-.96Z"/>
    <path class="uuid-88eee444-d835-4cde-a285-d85ccb816b85" d="M142.2,240.81c.78,0,1.33,.28,1.64,.84,.31,.56,.47,1.46,.47,2.71v1.52c0,.65,.04,1.14,.13,1.49,.02,.08,.17,.15,.44,.23,.27,.07,.46,.11,.57,.11,.03,0,.06,.07,.07,.2,.01,.13,0,.23-.02,.28-1.12-.06-1.71-.08-1.79-.08-.02,0-.61,.03-1.76,.08-.04-.04-.07-.14-.07-.28s.02-.21,.07-.21c.13,0,.32-.04,.56-.11,.24-.07,.37-.15,.39-.23,.08-.32,.12-.71,.12-1.17v-1.67c0-1.04-.13-1.75-.4-2.12-.27-.38-.7-.57-1.31-.57-.36,0-.7,.13-1.03,.39-.33,.26-.49,.5-.49,.71v2.94c0,.65,.04,1.14,.13,1.49,.02,.08,.17,.15,.44,.23,.27,.07,.46,.11,.57,.11,.03,0,.06,.07,.07,.2s0,.23-.02,.28c-1.12-.06-1.71-.08-1.79-.08-.07,0-.68,.03-1.82,.08-.04-.04-.07-.14-.07-.28s.02-.21,.07-.21c.13,0,.33-.04,.59-.11,.26-.07,.4-.15,.43-.23,.08-.32,.12-.71,.12-1.17v-3.16c0-.44-.08-.74-.23-.9-.11-.13-.25-.23-.41-.28-.16-.05-.3-.08-.4-.08s-.16-.01-.16-.03c0-.27,.03-.41,.1-.42,1.18-.18,1.95-.32,2.31-.43,.01,0,.04,0,.08-.02,.04,0,.07,.05,.08,.14,.01,.09,.01,.17,0,.21-.04,.31-.07,.54-.07,.67,0,.04,.01,.07,.03,.07,.01,0,.03-.01,.05-.03,.26-.27,.6-.52,1.05-.76,.44-.24,.86-.36,1.26-.36Z"/>
  </g>
  <g>
    <path class="uuid-9411e3d8-8d5b-4be1-a7d9-c4202b3c0fae" d="M2.86,82.34c.87-1.18,1.85-1.82,2.94-1.95,1.09-.12,2.13,.18,3.12,.91,.61,.45,1.14,1.03,1.6,1.73,.46,.71,.8,1.47,1.02,2.31s.25,1.72,.09,2.67c-.17,.95-.55,1.83-1.16,2.66-.12,.16-.37,.47-.74,.93-.37,.46-.67,.84-.9,1.15l-1.14,1.68s-.08-.02-.14-.06c-.19-.14-.26-.24-.21-.3,.07-.09,.14-.27,.23-.55,.09-.28,.11-.46,.06-.55-.18-.32-.48-.72-.92-1.18l-4.38-4.77c-.47-.51-.82-.84-1.04-.98-.08-.04-.24,0-.47,.12-.24,.12-.39,.23-.46,.32,0,0-.03,0-.06-.03-.18-.13-.28-.25-.29-.34,.41-.48,.83-1,1.24-1.56l1.62-2.19Zm.63,.55c-.63,.85-.92,1.39-.86,1.61,.06,.28,.29,.62,.69,1.03l4.43,4.81c.5,.55,.82,.81,.96,.79,.23-.01,.67-.45,1.31-1.32,.67-.91,.81-1.96,.44-3.17-.38-1.21-1.17-2.36-2.38-3.46-.83-.76-1.65-1.19-2.49-1.29-.83-.1-1.53,.23-2.1,1Z"/>
    <path class="uuid-9411e3d8-8d5b-4be1-a7d9-c4202b3c0fae" d="M7.77,75.47c.13-.18,.31-.28,.53-.31,.22-.02,.42,.03,.61,.17,.26,.19,.42,.45,.49,.77,.07,.32,.01,.6-.17,.84-.13,.18-.31,.28-.54,.29-.22,.01-.44-.05-.63-.2-.25-.19-.41-.43-.47-.74-.06-.31,0-.58,.18-.83Zm2.71,2.63c.12-.16,.29-.25,.5-.27,.21-.02,.43,.06,.66,.22,.22,.17,.48,.41,.78,.74l2.38,2.61c.07,.08,.17,.17,.3,.27,.22,.17,.37,.2,.44,.11,.07-.09,.09-.26,.09-.5,0-.24-.03-.45-.06-.61-.03-.17-.05-.29-.06-.37,.01-.02,.08-.03,.22-.03s.21,.01,.25,.04c.14,.27,.22,.76,.25,1.49,.03,.73-.07,1.26-.31,1.58-.13,.17-.3,.26-.51,.28-.21,.02-.44-.06-.67-.23-.2-.15-.45-.39-.77-.73l-2.29-2.5c-.16-.17-.29-.3-.39-.37-.22-.16-.36-.19-.42-.1-.08,.11-.1,.32-.07,.63s.07,.56,.11,.73c-.01,.02-.09,.03-.22,.02-.14,0-.22-.02-.26-.04-.13-.25-.21-.73-.24-1.44-.03-.71,.08-1.22,.31-1.53Z"/>
    <path class="uuid-9411e3d8-8d5b-4be1-a7d9-c4202b3c0fae" d="M13.19,74.44c.13-.17,.3-.26,.51-.28,.21-.02,.43,.06,.66,.22,.22,.17,.46,.39,.72,.68l1.82,1.99c.23,.25,.43,.45,.61,.58,.41,.3,.73,.3,.96,0,.19-.26,.24-.68,.15-1.27-.1-.58-.29-1.17-.6-1.76-.3-.59-.64-1.02-1-1.29-.21-.16-.49-.25-.82-.27-.33-.02-.58-.09-.74-.21-.21-.15-.32-.35-.34-.59-.02-.24,.04-.47,.2-.68,.15-.2,.31-.32,.48-.37,.26,.02,.56,.16,.9,.41,.57,.42,1.08,1,1.51,1.73,.43,.73,.74,1.45,.93,2.17,.19,.72,.28,1.4,.28,2.05,0,.64-.12,1.12-.35,1.43-.25,.34-.57,.54-.95,.59-.38,.05-.75-.06-1.12-.33-.24-.18-.44-.36-.61-.53l-2-2.19c-.12-.14-.25-.27-.39-.37-.22-.16-.36-.19-.42-.1-.08,.11-.1,.32-.07,.63,.03,.31,.07,.56,.11,.73-.01,.02-.09,.02-.22,.02-.14,0-.22-.02-.26-.04-.13-.25-.21-.73-.24-1.44-.03-.71,.07-1.21,.3-1.52Z"/>
    <path class="uuid-9411e3d8-8d5b-4be1-a7d9-c4202b3c0fae" d="M18.29,67.53c.32-.43,.69-.7,1.1-.8,.42-.1,.78-.04,1.09,.2,.42,.31,.67,.82,.74,1.53,.07,.71,.03,1.38-.13,2.01-.16,.63-.35,1.09-.56,1.38-.03,.04,.06,.13,.27,.28,.86,.64,1.5,.67,1.93,.09,.15-.2,.23-.45,.27-.76,.03-.31,.04-.54,.01-.71-.03-.16-.04-.3-.06-.41,.01-.02,.09-.03,.22-.03,.13,0,.21,.01,.25,.04,.15,.29,.23,.77,.25,1.45,.02,.68-.11,1.21-.4,1.6-.41,.56-.91,.84-1.49,.85-.58,.01-1.21-.23-1.89-.73-.6-.44-1.09-1.04-1.48-1.79s-.59-1.51-.63-2.29c-.03-.78,.14-1.42,.51-1.92Zm.55,.61c-.24,.32-.21,.86,.07,1.6,.29,.75,.63,1.27,1.04,1.57,.04,.03,.07,.02,.09-.01,.27-.37,.36-.91,.25-1.62-.1-.71-.36-1.22-.76-1.52-.13-.1-.26-.15-.39-.16s-.23,.04-.31,.15Z"/>
    <path class="uuid-9411e3d8-8d5b-4be1-a7d9-c4202b3c0fae" d="M21.07,63.77c.13-.17,.29-.26,.5-.27,.21-.01,.43,.07,.65,.23,.23,.17,.46,.37,.68,.6,.48,.52,.72,.79,.73,.81-.39-.68-.68-1.39-.86-2.16-.19-.76-.14-1.33,.13-1.69,.24-.32,.6-.48,1.09-.46,.75,.55,.95,1.04,.63,1.48-.08,.11-.25,.17-.5,.19-.26,.02-.43,.09-.52,.22-.11,.15-.09,.5,.07,1.05,.16,.55,.43,1.16,.8,1.84,.37,.67,.76,1.24,1.17,1.7l1.13,1.21c-.11,.22-.24,.44-.39,.65-.16,.22-.33,.41-.52,.59l-3.58-3.89c-.18-.17-.31-.29-.4-.36-.22-.16-.36-.19-.42-.1-.08,.11-.1,.32-.07,.63s.07,.56,.11,.73c-.01,.02-.09,.03-.22,.02-.14,0-.22-.02-.26-.04-.13-.25-.21-.73-.24-1.44-.02-.71,.08-1.22,.3-1.52Z"/>
    <path class="uuid-9411e3d8-8d5b-4be1-a7d9-c4202b3c0fae" d="M26.01,57.08c.18-.24,.45-.48,.8-.72,.36-.24,.65-.51,.88-.83l.48-.65c.05-.06,.12-.06,.22,.02,.2,.13,.32,.29,.37,.48l-.53,.71c-.04,.05-.03,.1,.02,.14,0,0,.05,.03,.13,.08,.08,.04,.17,.1,.29,.16,.11,.06,.22,.13,.33,.21,.31,.23,.57,.49,.77,.78,.2,.29,.34,.57,.41,.85,.08,.28,.12,.52,.14,.72,.01,.2,.02,.39,.02,.58-.03,.2-.08,.5-.18,.9-.09,.4-.16,.73-.19,.99s0,.43,.09,.51c.06,.05,.2,0,.4-.14,.2-.14,.44-.32,.71-.54,.27-.22,.57-.43,.87-.62,.31-.19,.63-.31,.96-.35s.64,.04,.91,.23c.58,.43,.89,1.09,.92,1.97,.03,.88-.34,1.84-1.1,2.87-.46,.63-.97,1.05-1.53,1.27-.56,.22-1.03,.18-1.43-.11-.61-.45-.7-1.42-.25-2.89-.08,.08-.23,.15-.42,.21-.33,.1-.59,.08-.79-.06-.15-.11-.22-.4-.19-.87,.03-.47,.11-.91,.24-1.34-.33,.32-.75,.5-1.25,.53-.5,.04-.95-.1-1.35-.4-.73-.54-1.17-1.28-1.32-2.22s.04-1.76,.57-2.47Zm.47,.74c-.18,.24-.22,.54-.11,.9,.1,.36,.29,.69,.55,1.02,.26,.32,.55,.6,.87,.84,.29,.21,.56,.33,.82,.34,.26,.01,.47-.09,.63-.3,.18-.24,.21-.54,.11-.9-.11-.35-.28-.68-.52-.99-.24-.3-.5-.56-.78-.76-.31-.23-.61-.36-.9-.4-.3-.04-.52,.04-.67,.25Zm7.18,4.39c-.44-.32-1.28,.04-2.51,1.08-.05,.2-.09,.36-.12,.5-.03,.13-.05,.3-.06,.49-.01,.2,.01,.38,.08,.54,.07,.16,.17,.29,.3,.39,.68,.5,1.4,.24,2.16-.78,.35-.48,.53-.92,.54-1.32,0-.4-.12-.71-.39-.9Z"/>
    <path class="uuid-9411e3d8-8d5b-4be1-a7d9-c4202b3c0fae" d="M30.32,51.25c.32-.43,.69-.7,1.1-.8,.42-.1,.78-.04,1.09,.19,.42,.31,.67,.82,.74,1.53,.07,.71,.03,1.38-.13,2.01-.16,.63-.35,1.09-.56,1.38-.03,.04,.06,.13,.27,.28,.86,.64,1.5,.67,1.93,.09,.15-.2,.23-.45,.27-.76,.03-.31,.04-.54,.01-.71-.02-.16-.04-.3-.06-.41,.01-.02,.09-.03,.22-.03s.21,.01,.25,.04c.15,.29,.23,.77,.25,1.45,.02,.68-.11,1.21-.4,1.6-.41,.56-.91,.84-1.49,.85-.58,.01-1.21-.23-1.89-.73-.6-.44-1.09-1.04-1.48-1.79-.38-.75-.59-1.51-.63-2.29-.03-.78,.14-1.42,.51-1.92Zm.55,.61c-.24,.32-.21,.86,.07,1.6s.63,1.27,1.04,1.57c.04,.03,.07,.02,.09-.01,.27-.37,.36-.91,.25-1.62-.1-.71-.36-1.22-.76-1.52-.13-.1-.26-.15-.39-.16-.13,0-.23,.04-.31,.15Z"/>
  </g>
  <g>
    <path class="uuid-9411e3d8-8d5b-4be1-a7d9-c4202b3c0fae" d="M313.52,99.97c1.09-.98,2.17-1.42,3.27-1.32,1.09,.1,2.05,.6,2.87,1.51,.51,.56,.92,1.24,1.22,2.02s.49,1.6,.54,2.46c.05,.86-.09,1.74-.45,2.63s-.91,1.68-1.67,2.37c-.15,.13-.45,.39-.91,.76-.46,.37-.83,.69-1.11,.94l-1.45,1.42s-.07-.03-.12-.09c-.16-.17-.21-.29-.15-.34,.08-.07,.19-.24,.33-.49,.14-.25,.2-.43,.17-.52-.11-.35-.33-.8-.66-1.34l-3.33-5.55c-.36-.59-.63-.98-.83-1.17-.07-.06-.23-.05-.49,.02s-.43,.15-.51,.22c0,0-.03,0-.06-.04-.15-.17-.22-.3-.22-.39,.5-.39,1.01-.82,1.52-1.28l2.03-1.82Zm.51,.67c-.79,.71-1.17,1.18-1.16,1.41,0,.28,.16,.67,.47,1.15l3.38,5.6c.38,.64,.64,.96,.78,.97,.23,.04,.74-.31,1.55-1.03,.84-.75,1.19-1.76,1.06-3.02-.13-1.26-.67-2.55-1.64-3.87-.66-.91-1.38-1.5-2.18-1.77-.79-.27-1.55-.08-2.26,.56Z"/>
    <path class="uuid-9411e3d8-8d5b-4be1-a7d9-c4202b3c0fae" d="M319.71,94.22c.17-.15,.36-.21,.58-.2,.22,.02,.41,.12,.56,.29,.22,.24,.33,.52,.33,.85,0,.33-.11,.59-.33,.79-.17,.15-.36,.21-.58,.18-.22-.03-.42-.14-.58-.32-.21-.23-.31-.51-.31-.82,0-.32,.11-.57,.34-.78Zm2.13,3.12c.15-.13,.33-.19,.54-.16,.21,.03,.41,.14,.6,.35,.19,.21,.39,.5,.62,.89l1.81,3.03c.05,.09,.13,.2,.24,.32,.19,.21,.32,.27,.4,.2,.08-.07,.14-.23,.18-.47,.04-.24,.06-.44,.07-.61,0-.17,0-.29,.01-.37,.02-.01,.09,0,.22,.02,.13,.03,.21,.06,.24,.09,.08,.29,.06,.79-.06,1.51-.12,.72-.32,1.21-.62,1.48-.16,.14-.34,.2-.55,.17-.21-.03-.42-.15-.61-.36-.16-.18-.37-.47-.61-.87l-1.74-2.91c-.12-.2-.23-.35-.31-.44-.18-.2-.31-.26-.39-.19-.1,.09-.17,.29-.2,.61s-.04,.56-.04,.73c-.02,.02-.09,0-.22-.02-.13-.03-.21-.06-.24-.1-.08-.27-.06-.76,.05-1.46,.12-.7,.32-1.18,.61-1.44Z"/>
    <path class="uuid-9411e3d8-8d5b-4be1-a7d9-c4202b3c0fae" d="M325.23,94.29c.16-.14,.34-.2,.55-.17,.21,.03,.41,.14,.6,.35s.38,.48,.57,.81l1.38,2.31c.17,.29,.34,.52,.49,.69,.34,.38,.66,.44,.94,.19,.24-.22,.37-.62,.4-1.21,.02-.59-.06-1.21-.24-1.85-.18-.64-.42-1.13-.72-1.46-.18-.2-.43-.34-.75-.43-.32-.09-.55-.21-.68-.36-.17-.19-.24-.41-.21-.65,.03-.24,.14-.45,.33-.62,.18-.16,.37-.25,.55-.27,.25,.08,.51,.27,.8,.59,.48,.53,.86,1.2,1.13,2,.28,.8,.44,1.57,.48,2.32,.04,.75,0,1.43-.14,2.06-.13,.63-.34,1.07-.63,1.33-.31,.28-.66,.41-1.04,.39-.38-.02-.73-.21-1.03-.55-.2-.22-.36-.44-.49-.64l-1.52-2.54c-.09-.16-.19-.31-.31-.44-.18-.2-.31-.26-.39-.19-.1,.09-.17,.29-.2,.61s-.04,.56-.04,.73c-.02,.01-.09,0-.22-.02-.13-.03-.21-.06-.24-.1-.08-.27-.06-.76,.05-1.45,.12-.7,.31-1.17,.6-1.43Z"/>
    <path class="uuid-9411e3d8-8d5b-4be1-a7d9-c4202b3c0fae" d="M331.61,88.55c.4-.36,.81-.55,1.24-.56s.77,.12,1.03,.41c.35,.39,.49,.94,.42,1.65-.07,.71-.25,1.36-.53,1.94-.28,.59-.56,1-.82,1.24-.03,.03,.04,.14,.21,.33,.72,.8,1.34,.96,1.87,.48,.18-.16,.32-.39,.42-.69,.09-.3,.15-.53,.15-.69,0-.17,.02-.3,.02-.41,.02-.02,.09,0,.22,.02s.21,.06,.24,.09c.09,.31,.07,.8-.04,1.47-.11,.67-.35,1.16-.72,1.49-.51,.46-1.06,.64-1.63,.54-.58-.1-1.14-.47-1.7-1.09-.5-.56-.86-1.24-1.09-2.05-.23-.81-.28-1.6-.15-2.37,.12-.77,.42-1.37,.88-1.78Zm.41,.71c-.3,.27-.38,.8-.25,1.59,.13,.79,.37,1.37,.7,1.74,.03,.03,.06,.03,.09,0,.34-.31,.53-.82,.57-1.54,.04-.72-.11-1.27-.44-1.64-.11-.12-.23-.2-.35-.24-.12-.03-.23,0-.33,.08Z"/>
    <path class="uuid-9411e3d8-8d5b-4be1-a7d9-c4202b3c0fae" d="M335.09,85.42c.16-.14,.34-.2,.55-.17,.21,.03,.41,.15,.59,.36,.19,.22,.38,.46,.54,.73,.36,.6,.55,.92,.55,.94-.25-.74-.38-1.5-.41-2.28s.12-1.33,.46-1.63c.3-.27,.69-.35,1.16-.23,.62,.69,.73,1.21,.32,1.58-.1,.09-.28,.12-.53,.08-.25-.03-.44,0-.56,.11-.14,.13-.19,.48-.14,1.05,.05,.57,.19,1.22,.41,1.96,.23,.73,.5,1.37,.81,1.9l.86,1.41c-.15,.2-.32,.38-.51,.55-.2,.18-.41,.34-.63,.48l-2.72-4.53c-.14-.2-.25-.35-.32-.43-.18-.2-.31-.26-.39-.19-.1,.09-.16,.29-.2,.61s-.05,.56-.04,.73c-.02,.02-.09,0-.22-.02-.13-.03-.21-.06-.24-.1-.08-.27-.06-.76,.06-1.46,.12-.7,.32-1.18,.6-1.43Z"/>
    <path class="uuid-9411e3d8-8d5b-4be1-a7d9-c4202b3c0fae" d="M341.27,79.85c.22-.2,.53-.38,.93-.54,.4-.16,.74-.37,1.03-.63l.6-.54c.06-.05,.13-.03,.21,.06,.17,.17,.25,.35,.27,.55l-.66,.59s-.05,.09,0,.14c0,0,.04,.04,.11,.1,.07,.06,.15,.13,.25,.21,.1,.08,.19,.18,.28,.28,.26,.29,.46,.59,.6,.91,.14,.32,.22,.62,.24,.91,.02,.29,.02,.53,0,.73-.03,.2-.06,.39-.1,.58-.07,.19-.18,.48-.35,.85-.17,.37-.3,.68-.39,.93s-.09,.42,0,.51c.05,.06,.19,.04,.42-.06,.23-.1,.5-.23,.81-.39,.31-.16,.64-.3,.98-.43,.34-.12,.68-.17,1.01-.15,.34,.03,.62,.16,.84,.41,.49,.54,.65,1.24,.5,2.11-.15,.87-.7,1.73-1.65,2.59-.58,.52-1.17,.83-1.75,.94-.59,.1-1.05-.03-1.38-.39-.51-.56-.4-1.53,.33-2.89-.1,.06-.25,.1-.46,.12-.34,.04-.59-.03-.76-.22-.13-.14-.13-.44-.01-.89,.12-.45,.29-.87,.5-1.26-.39,.25-.84,.34-1.33,.27-.49-.06-.91-.29-1.25-.66-.61-.68-.89-1.49-.85-2.44,.05-.95,.4-1.72,1.05-2.31Zm.31,.82c-.22,.2-.32,.49-.29,.85,.03,.37,.14,.74,.33,1.11,.19,.37,.42,.7,.69,1,.24,.27,.49,.43,.74,.5,.25,.06,.48,0,.68-.17,.22-.2,.32-.49,.29-.86-.03-.37-.14-.73-.31-1.07-.17-.34-.38-.65-.61-.9-.25-.28-.52-.47-.81-.57-.28-.1-.52-.06-.71,.11Zm6.16,5.74c-.37-.41-1.26-.22-2.67,.56-.09,.18-.16,.34-.21,.46-.05,.12-.11,.28-.16,.47-.05,.19-.06,.37-.03,.54,.03,.17,.11,.32,.22,.44,.57,.63,1.32,.52,2.27-.33,.44-.4,.7-.79,.79-1.19,.09-.39,.02-.71-.2-.96Z"/>
    <path class="uuid-9411e3d8-8d5b-4be1-a7d9-c4202b3c0fae" d="M346.65,75c.4-.36,.81-.55,1.24-.56,.43-.02,.77,.12,1.03,.41,.35,.39,.49,.94,.42,1.65-.07,.71-.25,1.36-.53,1.94-.28,.59-.56,1-.82,1.24-.03,.03,.04,.14,.21,.33,.72,.8,1.34,.96,1.87,.48,.18-.16,.32-.39,.42-.69,.09-.29,.15-.53,.15-.69,0-.17,.02-.3,.02-.41,.02-.01,.09,0,.22,.02s.21,.06,.24,.09c.09,.31,.07,.8-.04,1.47-.11,.67-.35,1.16-.72,1.49-.51,.46-1.06,.64-1.63,.54-.58-.1-1.14-.47-1.7-1.09-.5-.56-.86-1.24-1.09-2.05-.23-.81-.28-1.6-.15-2.37,.12-.77,.42-1.37,.88-1.79Zm.41,.71c-.3,.27-.38,.8-.25,1.59,.13,.79,.37,1.37,.7,1.74,.03,.03,.06,.04,.09,0,.34-.31,.53-.82,.57-1.54,.04-.72-.11-1.27-.44-1.64-.11-.12-.23-.2-.35-.24-.12-.03-.23,0-.33,.08Z"/>
  </g>
  <path class="uuid-9411e3d8-8d5b-4be1-a7d9-c4202b3c0fae" d="M264.66,51.94c-.05,.11-.14,.22-.28,.31-.41,.28-.98,.35-1.68,.21-.71-.14-1.19-.4-1.45-.78-.02-.04-.02-.07,.02-.09,.41-.28,1.02-.44,1.82-.46,.8-.02,1.31,.13,1.54,.46,.07,.11,.09,.22,.04,.34m-.93-1.77c-.75-.23-1.54-.28-2.37-.17-.83,.11-1.56,.38-2.18,.8-.69,.47-1.13,.98-1.31,1.54-.18,.56-.08,1.12,.31,1.69,.28,.41,.74,.71,1.38,.91,.65,.2,1.13,.28,1.45,.24,.04-.02,.08-.1,.12-.22,.04-.13,.06-.2,.05-.22-.11-.02-.24-.05-.41-.08-.16-.03-.38-.11-.66-.25-.28-.13-.49-.3-.63-.51-.4-.59-.16-1.19,.72-1.79,.21-.14,.33-.2,.36-.16,.2,.29,.57,.62,1.11,.98,.54,.36,1.16,.62,1.85,.79,.69,.17,1.26,.1,1.69-.19,.32-.22,.5-.54,.55-.97,.04-.42-.09-.86-.39-1.3-.35-.52-.9-.89-1.65-1.11m-4.57-6.23c-.93-.17-1.78,0-2.54,.51-.41,.28-.69,.66-.82,1.14-.13,.48-.1,.93,.09,1.35-.36-.27-.75-.49-1.18-.67-.43-.18-.73-.22-.88-.11-.2,.14-.31,.38-.32,.72,0,.21,.01,.36,.06,.47-1.25-.9-2.19-1.14-2.81-.72-.4,.28-.6,.71-.57,1.31,.02,.6,.25,1.22,.69,1.87,.72,1.06,1.5,1.72,2.34,1.99,.84,.26,1.56,.19,2.16-.21,.28-.19,.45-.45,.52-.78,.07-.33,.07-.67,0-1.03-.08-.35-.17-.69-.29-1.02-.12-.33-.21-.62-.28-.85-.07-.24-.07-.38,0-.42,.1-.07,.27-.04,.51,.08,.24,.12,.53,.29,.87,.51,.34,.22,.61,.37,.79,.46,.18,.07,.37,.13,.56,.18,.19,.05,.43,.09,.72,.11,.29,.02,.6-.02,.94-.11,.33-.09,.66-.25,.99-.47,.11-.07,.21-.16,.31-.24,.1-.09,.18-.16,.25-.22,.07-.06,.11-.09,.12-.1,.06-.04,.1-.03,.14,.03l.5,.73c.2,.01,.39-.05,.58-.19,.1-.07,.13-.14,.09-.2l-.45-.66c-.22-.32-.38-.69-.49-1.11-.11-.41-.24-.74-.41-.99-.5-.73-1.21-1.18-2.15-1.35m1.3,2.27c-.14,.27-.36,.51-.67,.72-.29,.19-.61,.36-.98,.48-.36,.13-.73,.18-1.1,.16-.37-.02-.64-.15-.81-.4-.15-.22-.18-.45-.08-.69,.1-.24,.29-.46,.59-.67,.33-.22,.69-.41,1.08-.55,.39-.14,.77-.2,1.14-.18,.37,.02,.64,.15,.81,.4,.14,.21,.15,.45,.01,.72m-7.51,4.68c-.38-.14-.73-.46-1.07-.94-.72-1.05-.72-1.82-.02-2.29,.14-.09,.3-.15,.47-.16,.18-.01,.35,.02,.53,.1,.18,.08,.33,.15,.45,.22,.12,.07,.26,.16,.43,.27,.58,1.51,.64,2.41,.19,2.72-.28,.19-.61,.21-.98,.07m2.34-13.26c-.68-.21-1.16-.3-1.44-.26-.04,.03-.08,.1-.13,.23-.05,.13-.07,.2-.05,.22,.17,.02,.41,.06,.72,.14,.31,.07,.5,.17,.57,.28,.06,.09-.02,.21-.24,.36-.09,.06-.25,.15-.47,.26l-4.85,2.09c.11,.24,.24,.47,.39,.69,.15,.21,.31,.41,.48,.59l1.51-.66c.57-.24,1.23-.42,1.99-.54,.76-.12,1.42-.17,1.99-.14,.57,.03,.91,.12,1.02,.28,.09,.13,.1,.32,.03,.57-.07,.25-.06,.43,.01,.54,.31,.45,.84,.42,1.61-.1,.17-.45,.15-.85-.08-1.18-.26-.38-.78-.6-1.56-.68-.78-.08-1.55-.04-2.32,.1,.03,0,.36-.15,1.01-.42,.29-.13,.55-.27,.79-.44,.23-.16,.37-.34,.43-.54,.06-.2,.03-.39-.09-.57-.21-.31-.66-.58-1.34-.79m-2.02-2.43c-.05,.12-.14,.22-.28,.31-.41,.28-.98,.35-1.68,.21-.71-.14-1.19-.4-1.45-.77-.02-.04-.02-.07,.02-.09,.41-.28,1.02-.44,1.82-.46,.8-.02,1.31,.13,1.54,.46,.07,.11,.09,.22,.04,.34m-.93-1.77c-.75-.23-1.54-.28-2.37-.17-.83,.11-1.56,.38-2.18,.8-.69,.47-1.13,.98-1.31,1.54-.18,.56-.08,1.12,.31,1.69,.28,.4,.74,.71,1.38,.91,.64,.2,1.13,.28,1.45,.24,.04-.02,.08-.1,.12-.22,.04-.12,.06-.19,.05-.21-.11-.02-.24-.05-.41-.08-.16-.03-.38-.11-.66-.25s-.49-.3-.63-.51c-.4-.59-.16-1.19,.72-1.79,.21-.14,.33-.2,.36-.16,.2,.3,.57,.62,1.11,.98,.54,.36,1.16,.62,1.85,.79,.69,.17,1.26,.1,1.69-.19,.32-.22,.5-.54,.55-.97,.04-.43-.09-.86-.39-1.3-.35-.52-.9-.89-1.65-1.11m-4.51-6.77c-.67-.21-1.15-.29-1.43-.25-.04,.02-.08,.1-.13,.23-.05,.13-.07,.2-.05,.22,.17,.02,.41,.06,.72,.14,.31,.07,.5,.17,.57,.28,.06,.09-.02,.21-.24,.36-.15,.1-.31,.18-.48,.25l-2.73,1.17c-.22,.09-.45,.23-.7,.4-.38,.26-.61,.57-.68,.95-.08,.37,0,.74,.24,1.09,.22,.32,.63,.59,1.24,.81,.6,.22,1.28,.35,2.02,.42,.74,.06,1.53,0,2.36-.16,.83-.17,1.54-.45,2.13-.85,.35-.24,.58-.48,.69-.71,0-.18-.05-.37-.19-.58-.15-.21-.33-.35-.57-.41-.24-.06-.46-.02-.67,.13-.17,.11-.32,.32-.44,.63-.13,.3-.31,.53-.53,.68-.37,.25-.88,.42-1.54,.51-.66,.09-1.28,.08-1.86-.02-.58-.1-.97-.29-1.15-.55-.21-.31-.11-.62,.32-.9,.18-.12,.43-.25,.75-.39l2.48-1.06c.36-.15,.65-.3,.88-.46,.23-.16,.37-.34,.43-.55,.06-.2,.02-.4-.1-.57-.21-.31-.66-.57-1.33-.78m-4.69-6.89c-.68-.21-1.15-.29-1.43-.25-.04,.02-.08,.1-.13,.22-.05,.12-.07,.2-.05,.22,.17,0,.41,.05,.72,.13,.31,.08,.5,.17,.58,.28,.06,.09-.02,.21-.24,.36-.09,.06-.25,.14-.48,.25l-4.85,2.09c.08,.22,.2,.45,.37,.7,.17,.25,.33,.43,.47,.55l1.46-.59c.56-.25,1.22-.42,1.99-.52,.77-.1,1.44-.13,2.01-.09,.58,.05,.92,.15,1.04,.32,.15,.22,.03,.46-.35,.73-.14,.1-.42,.23-.85,.42l-2.24,.94c-.45,.19-.77,.34-.96,.47-.24,.16-.39,.35-.44,.55s-.03,.39,.09,.56c.23,.34,.7,.62,1.39,.83,.7,.21,1.19,.29,1.48,.25,.04-.02,.08-.1,.13-.22,.05-.12,.06-.19,.04-.22-.07,0-.19-.02-.36-.05-.17-.03-.37-.08-.6-.15-.23-.07-.38-.15-.44-.25-.06-.09,.02-.22,.25-.37,.14-.1,.26-.16,.36-.19l2.03-.85c.76-.31,1.3-.58,1.64-.81,.81-.55,1-1.14,.58-1.77-.24-.35-.83-.59-1.77-.71-.94-.12-1.69-.15-2.24-.07,.17-.08,.33-.15,.47-.21,.13-.06,.23-.1,.29-.13,.06-.03,.11-.05,.16-.07,.41-.19,.71-.34,.88-.46,.23-.16,.37-.34,.43-.55,.06-.2,.02-.4-.1-.57-.21-.31-.66-.57-1.33-.78m-3.3-4.72c-.74-.22-1.53-.27-2.37-.15-.84,.12-1.57,.4-2.19,.82-.66,.45-1.08,.96-1.26,1.53-.18,.57-.05,1.18,.38,1.81,.36,.53,.9,.9,1.62,1.13s1.5,.29,2.33,.17c.83-.12,1.57-.4,2.23-.85,.67-.46,1.1-.98,1.28-1.55,.18-.58,.06-1.18-.37-1.81-.36-.53-.91-.9-1.65-1.12m.88,2.11c-.15,.26-.43,.53-.83,.81-.47,.33-1.03,.62-1.67,.86-.64,.24-1.25,.37-1.84,.39-.59,.02-.98-.12-1.18-.41-.14-.21-.15-.46,0-.73,.14-.27,.41-.55,.8-.83,.52-.35,1.1-.64,1.75-.87,.65-.23,1.27-.35,1.84-.35,.57,0,.95,.14,1.15,.42,.14,.2,.13,.44-.02,.7m-3.16-11.72c-1.09-.45-2.24-.63-3.45-.53-1.2,.09-2.26,.45-3.17,1.08-1.03,.7-1.68,1.64-1.93,2.82-.26,1.18,0,2.35,.79,3.5,.41,.61,.86,1.15,1.35,1.61,.48,.47,.89,.74,1.23,.81,.09,.02,.27,0,.52-.05,.25-.05,.53-.11,.82-.19,.29-.07,.45-.11,.48-.11,.05-.05,.07-.13,.07-.26,0-.13-.02-.21-.04-.24,0-.01-.1,0-.28,0-.18,.01-.42,0-.72-.02-.3-.02-.58-.09-.84-.2-.65-.28-1.23-.8-1.75-1.56-.53-.78-.67-1.57-.4-2.35,.26-.78,.83-1.46,1.68-2.05,1.35-.92,2.78-1.37,4.27-1.34,1.49,.03,2.55,.51,3.18,1.43,.32,.47,.52,.92,.59,1.34,.08,.42,.05,.78-.09,1.07-.14,.3-.28,.53-.41,.69-.14,.16-.29,.3-.45,.43,0,.06,.03,.13,.08,.21,.14,.2,.28,.27,.44,.21,.09-.03,.43-.21,1.04-.53,.61-.32,.94-.49,.99-.53-.44-1.39-.93-2.47-1.46-3.25-.6-.88-1.44-1.54-2.54-1.99"/>
  <path class="uuid-9411e3d8-8d5b-4be1-a7d9-c4202b3c0fae" d="M495.91,101.71c-.01,.12-.07,.25-.18,.38-.32,.39-.83,.62-1.55,.69-.72,.07-1.25-.04-1.61-.33-.03-.03-.04-.06,0-.09,.32-.39,.85-.71,1.61-.97,.76-.25,1.29-.26,1.61,0,.1,.08,.15,.19,.13,.31m-1.4-1.42c-.78,0-1.56,.17-2.32,.52-.77,.35-1.38,.81-1.85,1.4-.53,.65-.8,1.27-.81,1.85-.01,.58,.25,1.09,.79,1.53,.38,.31,.91,.47,1.58,.48,.68,0,1.16-.05,1.46-.19,.03-.03,.04-.12,.05-.25,0-.13,0-.2-.02-.22-.11,.01-.25,.02-.41,.04-.16,.02-.4,0-.71-.04-.31-.05-.55-.15-.75-.3-.55-.45-.49-1.09,.18-1.92,.16-.2,.26-.28,.3-.26,.28,.22,.73,.43,1.35,.62s1.29,.26,2,.22c.71-.04,1.24-.26,1.56-.67,.25-.3,.33-.66,.24-1.08-.08-.42-.34-.8-.75-1.13-.49-.39-1.12-.59-1.9-.59m-6.18-4.64c-.94,.1-1.71,.51-2.28,1.22-.32,.39-.47,.83-.45,1.33,.01,.5,.17,.92,.48,1.27-.42-.15-.86-.26-1.33-.3s-.76,0-.88,.15c-.16,.19-.19,.45-.1,.78,.05,.2,.12,.34,.19,.43-1.46-.5-2.42-.46-2.9,.13-.31,.38-.37,.85-.17,1.42,.19,.57,.59,1.1,1.2,1.59,1,.81,1.94,1.22,2.82,1.23,.88,.01,1.55-.27,2.01-.83,.21-.26,.3-.56,.27-.9-.03-.34-.13-.66-.3-.98-.18-.31-.37-.61-.58-.9-.21-.28-.38-.53-.51-.74-.13-.21-.17-.34-.13-.4,.08-.1,.25-.12,.51-.07,.26,.05,.59,.13,.98,.24,.39,.11,.69,.18,.89,.22,.19,.01,.39,.02,.58,0,.2,0,.44-.04,.72-.1,.28-.06,.57-.19,.86-.38,.29-.18,.56-.43,.81-.73,.08-.1,.16-.21,.23-.32,.07-.11,.12-.2,.17-.28s.08-.12,.08-.13c.04-.05,.09-.06,.14-.02l.69,.56c.19-.05,.36-.16,.5-.35,.08-.1,.09-.17,.02-.22l-.62-.51c-.3-.25-.57-.55-.79-.92s-.45-.64-.68-.83c-.69-.56-1.5-.78-2.44-.68m1.9,1.8c-.05,.3-.2,.59-.44,.89-.22,.27-.48,.52-.8,.74-.31,.23-.65,.39-1.01,.48-.36,.09-.66,.04-.89-.15-.21-.17-.3-.38-.28-.64,.02-.26,.15-.53,.37-.81,.25-.31,.55-.59,.88-.84,.34-.25,.68-.41,1.04-.5,.36-.09,.65-.04,.89,.15,.2,.16,.27,.39,.22,.69m-5.84,6.65c-.4-.02-.83-.22-1.29-.6-.99-.8-1.22-1.53-.68-2.19,.11-.13,.24-.22,.41-.29,.16-.06,.34-.08,.54-.06s.36,.05,.49,.09c.13,.03,.29,.08,.49,.14,.99,1.28,1.31,2.13,.97,2.55-.21,.26-.52,.38-.92,.35m-1.58-13.37c-.71,0-1.19,.05-1.45,.17-.03,.04-.05,.12-.06,.26,0,.14,0,.21,.01,.22,.17-.03,.41-.06,.73-.08,.31-.02,.52,.02,.63,.1,.09,.07,.05,.21-.12,.42-.07,.09-.2,.21-.38,.38l-4.04,3.4c.17,.2,.36,.38,.57,.55,.2,.16,.41,.3,.63,.42l1.26-1.07c.47-.39,1.06-.76,1.75-1.09,.69-.34,1.31-.57,1.87-.71,.56-.14,.91-.15,1.06-.03,.12,.1,.19,.28,.19,.53,0,.26,.06,.43,.17,.51,.42,.34,.93,.16,1.51-.56,.04-.49-.1-.86-.42-1.11-.36-.29-.92-.35-1.69-.2-.77,.15-1.5,.41-2.19,.77,.02-.01,.3-.24,.84-.69,.24-.21,.45-.42,.63-.65,.18-.22,.26-.43,.26-.64,0-.21-.09-.38-.25-.51-.29-.24-.8-.36-1.51-.37m-2.63-1.75c-.02,.12-.08,.25-.18,.38-.32,.39-.83,.62-1.55,.69-.72,.07-1.25-.04-1.61-.32-.03-.03-.04-.06,0-.1,.32-.39,.85-.71,1.61-.97,.76-.26,1.29-.26,1.6,0,.1,.08,.15,.19,.14,.31m-1.4-1.42c-.78,0-1.56,.17-2.32,.52-.76,.35-1.38,.82-1.85,1.4-.53,.65-.8,1.27-.81,1.85-.01,.58,.25,1.09,.79,1.53,.38,.31,.91,.47,1.58,.48,.68,0,1.16-.06,1.46-.19,.03-.04,.04-.12,.05-.25,0-.13,0-.21-.02-.22-.11,.01-.25,.03-.41,.04-.16,.02-.4,0-.71-.05-.31-.05-.55-.15-.74-.3-.56-.45-.5-1.09,.18-1.92,.16-.2,.26-.29,.3-.26,.28,.22,.73,.43,1.35,.62s1.29,.26,2,.22c.71-.04,1.24-.26,1.56-.67,.25-.3,.33-.67,.24-1.09s-.33-.8-.75-1.13c-.49-.39-1.12-.59-1.9-.59m-6.27-5.18c-.71,0-1.19,.06-1.44,.18-.03,.03-.05,.12-.06,.26-.01,.14,0,.21,.01,.22,.17-.03,.41-.06,.73-.08,.32-.02,.53,.02,.63,.1,.09,.07,.05,.21-.12,.42-.11,.14-.24,.26-.39,.37l-2.27,1.91c-.18,.15-.37,.35-.56,.58-.29,.36-.41,.73-.38,1.11,.04,.38,.22,.7,.55,.97,.3,.25,.77,.38,1.42,.41,.64,.03,1.33-.03,2.06-.18,.73-.16,1.47-.43,2.21-.83,.75-.4,1.35-.88,1.8-1.43,.27-.33,.42-.62,.45-.88-.04-.18-.16-.34-.35-.5-.2-.16-.42-.24-.67-.23-.25,0-.45,.11-.61,.31-.13,.16-.21,.4-.25,.73-.04,.33-.14,.6-.31,.81-.28,.35-.72,.66-1.33,.94-.61,.28-1.2,.45-1.79,.52-.59,.07-1.01,0-1.26-.2-.3-.24-.28-.56,.04-.96,.14-.17,.34-.37,.61-.59l2.07-1.73c.3-.25,.54-.48,.71-.69s.26-.43,.25-.65c0-.21-.09-.39-.26-.52-.3-.24-.8-.36-1.5-.37m-6.47-5.24c-.71,0-1.19,.05-1.44,.18-.03,.03-.05,.12-.06,.25-.02,.13,0,.21,.02,.23,.16-.04,.4-.07,.72-.08,.32-.02,.53,.02,.64,.1,.09,.07,.05,.21-.12,.42-.07,.09-.2,.21-.39,.38l-4.04,3.4c.14,.18,.32,.37,.56,.56,.23,.19,.44,.32,.61,.39l1.23-.99c.46-.4,1.05-.76,1.76-1.08,.7-.32,1.34-.54,1.9-.66,.57-.12,.93-.12,1.08,0,.21,.17,.17,.43-.13,.8-.11,.13-.34,.34-.69,.65l-1.87,1.54c-.38,.31-.64,.55-.78,.73-.18,.22-.27,.44-.26,.66,0,.21,.09,.38,.24,.51,.32,.26,.85,.39,1.58,.39,.73,0,1.23-.06,1.49-.19,.03-.03,.05-.12,.06-.24,0-.13,0-.2-.02-.22-.07,.02-.19,.03-.36,.06-.17,.02-.37,.03-.62,.03-.24,0-.41-.04-.49-.11-.09-.07-.04-.21,.13-.43,.11-.13,.2-.22,.29-.28l1.7-1.4c.63-.52,1.08-.93,1.33-1.25,.62-.76,.63-1.38,.04-1.86-.33-.27-.96-.32-1.9-.17-.94,.15-1.66,.35-2.16,.58,.14-.13,.27-.24,.39-.33,.11-.1,.19-.17,.25-.21,.05-.05,.1-.08,.13-.11,.34-.3,.58-.53,.71-.69,.18-.22,.26-.43,.25-.65,0-.21-.09-.39-.26-.52-.29-.24-.79-.36-1.5-.37m-4.53-3.57c-.78,0-1.55,.18-2.31,.54-.76,.36-1.38,.83-1.86,1.42-.5,.62-.76,1.24-.76,1.84,0,.6,.29,1.14,.89,1.63,.49,.4,1.12,.61,1.88,.62,.76,0,1.52-.16,2.28-.51,.76-.35,1.39-.84,1.89-1.45,.51-.63,.77-1.25,.78-1.86,0-.6-.28-1.14-.87-1.62-.49-.4-1.13-.6-1.91-.6m1.45,1.77c-.07,.3-.26,.64-.57,1.02-.36,.46-.81,.89-1.35,1.31-.54,.41-1.09,.72-1.65,.91-.55,.19-.97,.17-1.25-.05-.2-.16-.27-.39-.21-.7,.06-.3,.24-.65,.53-1.02,.39-.49,.87-.93,1.43-1.34,.56-.41,1.11-.69,1.66-.86,.54-.17,.95-.14,1.22,.07,.19,.15,.25,.38,.18,.68m-6.41-10.31c-1.18-.11-2.33,.05-3.45,.49-1.13,.44-2.03,1.09-2.73,1.95-.79,.97-1.13,2.06-1.04,3.26,.09,1.2,.68,2.24,1.77,3.12,.57,.46,1.16,.85,1.76,1.15,.6,.31,1.07,.45,1.41,.42,.09-.01,.26-.08,.48-.2,.23-.12,.47-.26,.74-.42,.26-.15,.4-.24,.42-.25,.03-.06,.03-.15,0-.27-.04-.12-.08-.19-.11-.22,0,0-.1,.02-.26,.09-.17,.06-.4,.13-.69,.19-.3,.06-.58,.08-.86,.06-.7-.08-1.41-.41-2.13-.99-.74-.6-1.09-1.31-1.06-2.13,.03-.82,.37-1.64,1.02-2.44,1.03-1.28,2.27-2.11,3.7-2.51,1.44-.4,2.59-.25,3.46,.45,.44,.36,.76,.73,.96,1.11,.19,.38,.27,.73,.22,1.05s-.11,.58-.2,.77c-.09,.2-.19,.38-.31,.54,.01,.05,.06,.11,.14,.18,.19,.15,.35,.18,.48,.07,.07-.06,.35-.32,.84-.8,.49-.48,.76-.75,.8-.8-.82-1.2-1.6-2.1-2.34-2.69-.82-.67-1.82-1.06-3-1.17"/>
  <g>
    <path class="uuid-88eee444-d835-4cde-a285-d85ccb816b85" d="M279.9,243.19c0-.69-.04-1.19-.12-1.49-.03-.09-.19-.17-.48-.24-.28-.07-.5-.11-.64-.11-.04,0-.07-.07-.07-.22,0-.13,.02-.22,.07-.27,1.28,.06,1.95,.08,2.01,.08,.18,0,.83-.03,1.94-.08,.02,.07,.03,.15,.03,.25,0,.16-.02,.23-.07,.23-.11,0-.31,.04-.6,.12-.29,.08-.45,.16-.47,.23-.1,.39-.15,.91-.15,1.56v6.36c0,.65,.05,1.17,.15,1.56,.02,.08,.18,.15,.47,.23,.29,.07,.49,.11,.6,.11,.04,0,.07,.08,.07,.25,0,.09-.01,.17-.03,.23-1.12-.06-1.76-.08-1.94-.08-.06,0-.73,.03-2.01,.08-.04-.04-.07-.13-.07-.25,0-.16,.02-.23,.07-.23,.15,0,.36-.03,.64-.1,.28-.07,.44-.15,.48-.23,.08-.3,.12-.8,.12-1.49v-6.49Z"/>
    <path class="uuid-88eee444-d835-4cde-a285-d85ccb816b85" d="M287.64,244.58c.48,0,.9,.09,1.25,.28,.08,0,.12-.1,.12-.3v-1.81c0-.38-.03-.74-.1-1.07-.06-.18-.34-.27-.85-.27h-.15c-.07,0-.1-.06-.1-.18,0-.18,.03-.27,.1-.27,.33-.03,.64-.08,.93-.13,.28-.06,.51-.11,.67-.17,.16-.06,.3-.11,.41-.16,.11-.05,.2-.09,.25-.13l.07-.05h.03s.09,.03,.13,.09c.04,.06,.07,.12,.08,.18-.12,.36-.18,.84-.18,1.46v7.53c0,.54,.03,.96,.1,1.27,.02,.08,.08,.14,.18,.18,.1,.04,.2,.07,.31,.08,.11,.01,.21,.02,.31,.02l.15,.02s.05,.08,.05,.2c0,.17-.03,.25-.1,.25-.17,.01-.35,.03-.56,.07s-.4,.07-.59,.11-.35,.08-.51,.12-.28,.08-.38,.11l-.15,.03c-.07,0-.1-.09-.1-.28v-.2c0-.07-.02-.09-.07-.07-.62,.35-1.22,.52-1.77,.52-.93,0-1.7-.33-2.33-.99-.62-.66-.94-1.44-.94-2.36,0-1.08,.38-2.03,1.15-2.85,.76-.82,1.63-1.23,2.58-1.23Zm-.22,.7c-.65,0-1.15,.29-1.52,.87-.37,.58-.55,1.25-.55,2.02,0,.81,.22,1.52,.65,2.12,.44,.6,1.04,.9,1.81,.9,.38,0,.67-.09,.89-.26,.21-.17,.32-.4,.32-.69v-3.98c0-.23-.13-.45-.38-.66-.25-.21-.66-.31-1.21-.31Z"/>
    <path class="uuid-88eee444-d835-4cde-a285-d85ccb816b85" d="M295.52,244.64c.51,0,.96,.1,1.36,.29s.69,.45,.89,.75c.21,.31,.36,.62,.45,.94,.09,.32,.14,.63,.14,.95,0,.22-.04,.36-.1,.41-.07,.05-.2,.08-.38,.08h-4.22c-.09,0-.13,.03-.13,.08,0,.7,.21,1.35,.64,1.94,.42,.59,1.04,.89,1.84,.89,.23,0,.46-.02,.67-.07,.21-.04,.39-.1,.54-.16s.28-.12,.38-.18c.11-.06,.2-.12,.28-.18l.12-.08c.07,0,.1,.07,.1,.22,0,.09-.04,.19-.1,.3-.22,.31-.55,.59-.99,.84-.44,.25-.91,.38-1.42,.38-.93,0-1.72-.35-2.38-1.05-.66-.7-1-1.55-1-2.55,0-1.17,.31-2.1,.95-2.78,.63-.68,1.42-1.02,2.37-1.02Zm-.17,.62c-.58,0-1.02,.25-1.33,.75-.31,.5-.46,.91-.46,1.23,0,.08,.03,.12,.1,.12h3.26c.05,0,.08-.06,.08-.17,0-.36-.15-.77-.45-1.23-.3-.46-.7-.69-1.2-.69Z"/>
    <path class="uuid-88eee444-d835-4cde-a285-d85ccb816b85" d="M302.7,244.64c.61,0,1.05,.15,1.32,.44,.27,.3,.4,.77,.4,1.43v3.87c0,.23,.06,.43,.18,.58s.29,.23,.5,.23c.16,0,.35-.08,.59-.23,.04,0,.07,.04,.07,.13,0,.15-.03,.26-.08,.35-.46,.39-.85,.59-1.17,.59-.26,0-.5-.11-.74-.32-.23-.21-.4-.43-.49-.67-.01,0-.05,.04-.13,.11-.07,.07-.17,.16-.29,.25-.12,.09-.26,.19-.43,.29-.16,.1-.35,.18-.57,.25-.22,.07-.44,.1-.66,.1-.51,0-.94-.14-1.27-.41s-.5-.68-.5-1.23c0-.25,.06-.48,.18-.69,.12-.22,.27-.4,.43-.54s.4-.28,.69-.43c.29-.14,.54-.25,.74-.33,.21-.07,.48-.17,.81-.28,.33-.11,.57-.2,.7-.25,.1-.03,.15-.12,.15-.25v-1.25c0-.36-.11-.63-.33-.83-.22-.2-.49-.29-.8-.29-.33,0-.61,.11-.84,.34-.22,.23-.33,.53-.33,.9,0,.39-.23,.59-.69,.59-.31,0-.53-.11-.65-.32,0-.48,.35-.96,1.05-1.43,.7-.47,1.42-.71,2.14-.71Zm-1.57,6.22c.19,.16,.43,.24,.74,.24s.59-.09,.87-.28c.28-.18,.42-.37,.42-.56v-1.72c-.09,.04-.31,.12-.65,.23s-.62,.21-.81,.29c-.19,.08-.38,.22-.57,.42s-.28,.42-.28,.68c0,.3,.09,.53,.29,.69Z"/>
    <path class="uuid-88eee444-d835-4cde-a285-d85ccb816b85" d="M307.2,245.68h-.97c-.06,0-.08-.12-.08-.35,0-.07,0-.11,.02-.12,.32-.15,.67-.44,1.05-.89,.12-.15,.24-.31,.36-.49,.12-.18,.21-.34,.29-.48s.12-.21,.12-.22c.33,0,.5,.03,.5,.08v1.66c.29,0,.73,0,1.32,0,.59,0,.9,0,.94,0,.09,0,.13,.05,.13,.15,0,.2-.06,.41-.17,.64h-2.22v4.1c0,.45,.11,.8,.34,1.07,.23,.27,.53,.4,.9,.4,.33,0,.68-.11,1.04-.32,.03-.02,.08,.03,.15,.14,.07,.12,.09,.18,.08,.19-.17,.18-.42,.35-.77,.53-.35,.17-.7,.26-1.07,.26-.56,0-1.02-.18-1.4-.55-.37-.37-.56-.89-.56-1.57v-4.25Z"/>
    <path class="uuid-88eee444-d835-4cde-a285-d85ccb816b85" d="M314.14,249.68c0,.65,.04,1.14,.13,1.49,.02,.08,.17,.15,.44,.23,.27,.07,.46,.11,.57,.11,.03,0,.06,.07,.07,.2,.01,.13,0,.23-.02,.28-1.12-.06-1.71-.08-1.79-.08s-.69,.03-1.82,.08c-.04-.04-.07-.14-.07-.28s.02-.21,.07-.21c.13,0,.33-.04,.59-.11,.26-.07,.4-.15,.43-.23,.08-.32,.12-.71,.12-1.17v-3.16c0-.44-.08-.74-.23-.9-.11-.13-.25-.23-.41-.28-.16-.05-.3-.08-.4-.08s-.16-.01-.16-.03c0-.27,.03-.41,.1-.42,1.18-.18,1.95-.32,2.31-.43l.03-.02h.05s.07,.05,.08,.14c.01,.09,.01,.17,0,.21-.06,.45-.08,.85-.08,1.21v3.45Zm-1.36-7.07c-.16-.16-.24-.36-.24-.59s.08-.43,.24-.59,.36-.24,.59-.24,.43,.08,.59,.24c.16,.16,.24,.36,.24,.59s-.08,.43-.24,.59c-.16,.16-.36,.24-.59,.24s-.43-.08-.59-.24Z"/>
    <path class="uuid-88eee444-d835-4cde-a285-d85ccb816b85" d="M319.87,244.63c1,0,1.86,.36,2.58,1.09,.71,.72,1.07,1.59,1.07,2.61s-.35,1.91-1.05,2.64c-.7,.73-1.55,1.1-2.57,1.1s-1.88-.37-2.59-1.1-1.07-1.61-1.07-2.64,.35-1.91,1.04-2.63,1.56-1.07,2.59-1.07Zm-.18,.65c-.59,0-1.07,.27-1.45,.81s-.56,1.2-.56,1.98c0,.92,.24,1.7,.71,2.35,.47,.65,1.03,.98,1.67,.98,.59,0,1.08-.28,1.46-.84,.38-.56,.57-1.23,.57-2.01,0-.9-.24-1.68-.72-2.32-.48-.64-1.04-.96-1.67-.96Z"/>
    <path class="uuid-88eee444-d835-4cde-a285-d85ccb816b85" d="M329.54,244.61c.78,0,1.33,.28,1.64,.84,.31,.56,.47,1.46,.47,2.71v1.52c0,.65,.04,1.14,.13,1.49,.02,.08,.17,.15,.44,.23,.27,.07,.46,.11,.57,.11,.03,0,.06,.07,.07,.2,.01,.13,0,.23-.02,.28-1.12-.06-1.71-.08-1.79-.08-.02,0-.61,.03-1.76,.08-.04-.04-.07-.14-.07-.28s.02-.21,.07-.21c.13,0,.32-.04,.56-.11,.24-.07,.37-.15,.39-.23,.08-.32,.12-.71,.12-1.17v-1.67c0-1.04-.13-1.75-.4-2.12-.27-.38-.7-.57-1.3-.57-.36,0-.7,.13-1.03,.39-.33,.26-.49,.5-.49,.71v2.94c0,.65,.04,1.14,.13,1.49,.02,.08,.17,.15,.43,.23,.27,.07,.46,.11,.57,.11,.03,0,.06,.07,.07,.2s0,.23-.02,.28c-1.12-.06-1.71-.08-1.79-.08-.07,0-.67,.03-1.82,.08-.04-.04-.07-.14-.07-.28s.02-.21,.07-.21c.13,0,.33-.04,.59-.11,.26-.07,.4-.15,.43-.23,.08-.32,.12-.71,.12-1.17v-3.16c0-.44-.08-.74-.23-.9-.11-.13-.25-.23-.41-.28-.16-.05-.3-.08-.4-.08s-.16-.01-.16-.03c0-.27,.03-.41,.1-.42,1.18-.18,1.95-.32,2.31-.43,.01,0,.04,0,.08-.02,.04,0,.07,.05,.08,.14,.01,.09,.01,.17,0,.21-.04,.31-.07,.54-.07,.67,0,.04,.01,.07,.03,.07,.01,0,.03-.01,.05-.03,.26-.27,.61-.52,1.05-.76,.44-.24,.86-.36,1.26-.36Z"/>
  </g>
  <g>
    <path class="uuid-88eee444-d835-4cde-a285-d85ccb816b85" d="M451.24,243.19c0-.69-.04-1.19-.12-1.49-.03-.09-.19-.17-.48-.24-.28-.07-.5-.11-.64-.11-.04,0-.07-.07-.07-.22,0-.13,.02-.22,.07-.27,1.28,.06,1.95,.08,2.01,.08,.18,0,.83-.03,1.94-.08,.02,.07,.03,.15,.03,.25,0,.16-.02,.23-.07,.23-.11,0-.31,.04-.6,.12s-.45,.16-.47,.23c-.1,.39-.15,.91-.15,1.56v6.36c0,.65,.05,1.17,.15,1.56,.02,.08,.18,.15,.47,.23,.29,.07,.49,.11,.6,.11,.04,0,.07,.08,.07,.25,0,.09-.01,.17-.03,.23-1.12-.06-1.76-.08-1.94-.08-.06,0-.72,.03-2.01,.08-.04-.04-.07-.13-.07-.25,0-.16,.02-.23,.07-.23,.14,0,.36-.03,.64-.1,.28-.07,.44-.15,.48-.23,.08-.3,.12-.8,.12-1.49v-6.49Z"/>
    <path class="uuid-88eee444-d835-4cde-a285-d85ccb816b85" d="M459.97,244.61c.45,0,.82,.12,1.11,.36,.29,.24,.5,.52,.61,.83,.84-.79,1.7-1.19,2.59-1.19,1.41,0,2.11,1.07,2.11,3.21v1.86c0,.65,.04,1.14,.13,1.49,.02,.08,.17,.15,.44,.23,.27,.07,.46,.11,.57,.11,.03,0,.06,.07,.07,.2,.01,.13,0,.23-.02,.28-1.12-.06-1.71-.08-1.79-.08-.07,0-.68,.03-1.82,.08-.04-.04-.07-.14-.07-.28s.02-.21,.07-.21c.13,0,.33-.04,.59-.11,.26-.07,.4-.15,.43-.23,.08-.32,.12-.68,.12-1.07v-1.89c0-1.72-.56-2.58-1.69-2.58-.41,0-.77,.12-1.07,.36-.3,.24-.45,.44-.45,.59l.02,.07v.08c.04,.28,.07,.68,.07,1.2v1.89c0,.55,.04,.99,.13,1.34,.02,.08,.17,.15,.44,.23,.27,.07,.46,.11,.57,.11,.03,0,.06,.07,.07,.2,.01,.13,0,.23-.02,.28-1.12-.06-1.71-.08-1.79-.08-.07,0-.68,.03-1.82,.08-.04-.04-.07-.14-.07-.28s.02-.21,.07-.21c.13,0,.33-.04,.59-.11,.26-.07,.4-.15,.43-.23,.08-.32,.12-.71,.12-1.17v-1.71c0-1.77-.54-2.66-1.61-2.66-.33,0-.67,.13-1.01,.38-.34,.25-.51,.49-.51,.73v2.94c0,.65,.04,1.14,.13,1.49,.02,.08,.17,.15,.44,.23,.27,.07,.46,.11,.57,.11,.03,0,.06,.07,.07,.2,.01,.13,0,.23-.02,.28-1.12-.06-1.71-.08-1.79-.08-.07,0-.68,.03-1.82,.08-.04-.04-.07-.14-.07-.28s.02-.21,.07-.21c.13,0,.33-.04,.59-.11,.26-.07,.4-.15,.43-.23,.08-.32,.12-.71,.12-1.17v-3.16c0-.44-.08-.74-.23-.9-.11-.13-.25-.23-.41-.28-.16-.05-.3-.08-.4-.08s-.16-.01-.16-.03c0-.27,.03-.41,.1-.42,1.18-.18,1.95-.32,2.31-.43,.01,0,.04,0,.08-.02,.04,0,.07,.05,.08,.14,.01,.09,.01,.17,0,.21-.04,.31-.07,.54-.07,.67,0,.04,.01,.07,.03,.07,.01,0,.03-.01,.05-.03,.26-.27,.61-.52,1.05-.76,.44-.24,.86-.36,1.26-.36Z"/>
    <path class="uuid-88eee444-d835-4cde-a285-d85ccb816b85" d="M472.51,244.64c1.07,0,1.91,.36,2.51,1.08,.6,.72,.9,1.49,.9,2.3,0,1.07-.37,2.01-1.12,2.83-.75,.81-1.6,1.22-2.54,1.22-.17,0-.32,0-.44-.02-.13-.01-.24-.03-.34-.06-.1-.03-.18-.05-.23-.08-.06-.02-.13-.05-.22-.09-.09-.04-.15-.06-.17-.08-.04,.06-.07,.13-.07,.22v1.44c0,.65,.04,1.14,.13,1.49,.02,.08,.17,.15,.44,.23,.27,.07,.46,.11,.57,.11,.03,0,.06,.07,.07,.21,.01,.14,0,.23-.02,.28-1.12-.06-1.71-.08-1.79-.08-.07,0-.67,.03-1.82,.08-.04-.04-.07-.14-.07-.28s.02-.21,.07-.21c.13,0,.33-.04,.59-.11,.26-.07,.4-.15,.43-.23,.08-.32,.12-.71,.12-1.17v-6.91c0-.43-.08-.74-.23-.9-.11-.13-.25-.23-.41-.28-.16-.05-.3-.08-.4-.08s-.16-.01-.16-.03c0-.27,.03-.41,.1-.42,1.18-.18,1.95-.32,2.31-.44,.01,0,.04,0,.08-.02,.03,0,.05,.03,.05,.09s0,.14-.02,.23c-.01,.09-.02,.14-.02,.15v.1c.16-.11,.42-.24,.78-.38,.36-.14,.67-.21,.93-.21Zm-.54,.82c-.35,0-.63,.09-.85,.28-.22,.18-.33,.45-.33,.79v3.76c0,.3,.16,.55,.49,.76,.32,.21,.67,.31,1.05,.31,.66,0,1.18-.29,1.57-.89,.39-.59,.58-1.25,.58-1.99,0-.94-.25-1.68-.74-2.22s-1.08-.81-1.77-.81Z"/>
    <path class="uuid-88eee444-d835-4cde-a285-d85ccb816b85" d="M478.01,250v-7.25c0-.38-.03-.74-.1-1.07-.06-.18-.34-.27-.85-.27h-.15c-.07,0-.1-.06-.1-.18,0-.18,.03-.27,.1-.27,.33-.03,.64-.08,.93-.13,.28-.06,.51-.11,.67-.17,.16-.06,.3-.11,.41-.16,.11-.05,.19-.09,.25-.13l.07-.05h.03s.09,.03,.13,.09c.04,.06,.07,.12,.08,.18-.12,.36-.18,.84-.18,1.46v7.63c0,.65,.04,1.14,.13,1.49,.02,.08,.17,.15,.43,.23,.27,.07,.46,.11,.57,.11,.03,0,.06,.07,.07,.2,.01,.13,0,.23-.02,.28-1.12-.06-1.71-.08-1.79-.08-.07,0-.67,.03-1.82,.08-.04-.04-.07-.14-.07-.28s.02-.21,.07-.21c.13,0,.33-.04,.59-.11,.26-.07,.4-.15,.43-.23,.08-.32,.12-.71,.12-1.17Z"/>
    <path class="uuid-88eee444-d835-4cde-a285-d85ccb816b85" d="M484.69,244.64c.51,0,.96,.1,1.36,.29s.69,.45,.89,.75c.21,.31,.36,.62,.45,.94,.09,.32,.14,.63,.14,.95,0,.22-.03,.36-.1,.41-.07,.05-.2,.08-.38,.08h-4.22c-.09,0-.13,.03-.13,.08,0,.7,.21,1.35,.64,1.94,.42,.59,1.04,.89,1.84,.89,.23,0,.46-.02,.67-.07s.39-.1,.54-.16,.28-.12,.38-.18c.11-.06,.2-.12,.28-.18l.12-.08c.07,0,.1,.07,.1,.22,0,.09-.03,.19-.1,.3-.22,.31-.55,.59-.99,.84s-.91,.38-1.42,.38c-.93,0-1.72-.35-2.38-1.05-.66-.7-1-1.55-1-2.55,0-1.17,.31-2.1,.95-2.78,.63-.68,1.42-1.02,2.37-1.02Zm-.17,.62c-.58,0-1.02,.25-1.33,.75-.31,.5-.46,.91-.46,1.23,0,.08,.03,.12,.1,.12h3.26c.06,0,.08-.06,.08-.17,0-.36-.15-.77-.45-1.23-.3-.46-.7-.69-1.2-.69Z"/>
    <path class="uuid-88eee444-d835-4cde-a285-d85ccb816b85" d="M493.3,244.61c.45,0,.82,.12,1.11,.36,.29,.24,.5,.52,.61,.83,.84-.79,1.7-1.19,2.59-1.19,1.41,0,2.11,1.07,2.11,3.21v1.86c0,.65,.04,1.14,.13,1.49,.02,.08,.17,.15,.44,.23,.27,.07,.46,.11,.57,.11,.03,0,.06,.07,.07,.2,.01,.13,0,.23-.02,.28-1.12-.06-1.71-.08-1.79-.08-.07,0-.68,.03-1.82,.08-.04-.04-.07-.14-.07-.28s.02-.21,.07-.21c.13,0,.33-.04,.59-.11,.26-.07,.4-.15,.43-.23,.08-.32,.12-.68,.12-1.07v-1.89c0-1.72-.56-2.58-1.69-2.58-.41,0-.77,.12-1.07,.36-.3,.24-.45,.44-.45,.59l.02,.07v.08c.04,.28,.07,.68,.07,1.2v1.89c0,.55,.04,.99,.13,1.34,.02,.08,.17,.15,.44,.23,.27,.07,.46,.11,.57,.11,.03,0,.06,.07,.07,.2,.01,.13,0,.23-.02,.28-1.12-.06-1.71-.08-1.79-.08-.07,0-.68,.03-1.82,.08-.04-.04-.07-.14-.07-.28s.02-.21,.07-.21c.13,0,.33-.04,.59-.11,.26-.07,.4-.15,.43-.23,.08-.32,.12-.71,.12-1.17v-1.71c0-1.77-.54-2.66-1.61-2.66-.33,0-.67,.13-1.01,.38-.34,.25-.51,.49-.51,.73v2.94c0,.65,.04,1.14,.13,1.49,.02,.08,.17,.15,.44,.23,.27,.07,.46,.11,.57,.11,.03,0,.06,.07,.07,.2,.01,.13,0,.23-.02,.28-1.12-.06-1.71-.08-1.79-.08-.07,0-.68,.03-1.82,.08-.04-.04-.07-.14-.07-.28s.02-.21,.07-.21c.13,0,.33-.04,.59-.11,.26-.07,.4-.15,.43-.23,.08-.32,.12-.71,.12-1.17v-3.16c0-.44-.08-.74-.23-.9-.11-.13-.25-.23-.41-.28-.16-.05-.3-.08-.4-.08s-.16-.01-.16-.03c0-.27,.03-.41,.1-.42,1.18-.18,1.95-.32,2.31-.43,.01,0,.04,0,.08-.02,.04,0,.07,.05,.08,.14,.01,.09,.01,.17,0,.21-.04,.31-.07,.54-.07,.67,0,.04,.01,.07,.03,.07,.01,0,.03-.01,.05-.03,.26-.27,.61-.52,1.05-.76,.44-.24,.86-.36,1.26-.36Z"/>
    <path class="uuid-88eee444-d835-4cde-a285-d85ccb816b85" d="M505.26,244.64c.51,0,.96,.1,1.36,.29s.69,.45,.89,.75c.21,.31,.36,.62,.45,.94,.09,.32,.14,.63,.14,.95,0,.22-.03,.36-.1,.41-.07,.05-.2,.08-.38,.08h-4.22c-.09,0-.13,.03-.13,.08,0,.7,.21,1.35,.64,1.94,.42,.59,1.04,.89,1.84,.89,.23,0,.46-.02,.67-.07s.39-.1,.54-.16,.28-.12,.38-.18c.11-.06,.2-.12,.28-.18l.12-.08c.07,0,.1,.07,.1,.22,0,.09-.03,.19-.1,.3-.22,.31-.55,.59-.99,.84s-.91,.38-1.42,.38c-.93,0-1.72-.35-2.38-1.05-.66-.7-1-1.55-1-2.55,0-1.17,.31-2.1,.95-2.78,.63-.68,1.42-1.02,2.37-1.02Zm-.17,.62c-.58,0-1.02,.25-1.33,.75-.31,.5-.46,.91-.46,1.23,0,.08,.03,.12,.1,.12h3.26c.06,0,.08-.06,.08-.17,0-.36-.15-.77-.45-1.23-.3-.46-.7-.69-1.2-.69Z"/>
    <path class="uuid-88eee444-d835-4cde-a285-d85ccb816b85" d="M513.92,244.61c.78,0,1.33,.28,1.64,.84,.31,.56,.47,1.46,.47,2.71v1.52c0,.65,.04,1.14,.13,1.49,.02,.08,.17,.15,.44,.23,.27,.07,.46,.11,.57,.11,.03,0,.06,.07,.07,.2,.01,.13,0,.23-.02,.28-1.12-.06-1.71-.08-1.79-.08-.02,0-.61,.03-1.76,.08-.04-.04-.07-.14-.07-.28s.02-.21,.07-.21c.13,0,.32-.04,.56-.11,.24-.07,.37-.15,.39-.23,.08-.32,.12-.71,.12-1.17v-1.67c0-1.04-.13-1.75-.4-2.12-.27-.38-.7-.57-1.3-.57-.36,0-.7,.13-1.03,.39-.33,.26-.49,.5-.49,.71v2.94c0,.65,.04,1.14,.13,1.49,.02,.08,.17,.15,.43,.23,.27,.07,.46,.11,.57,.11,.03,0,.06,.07,.07,.2s0,.23-.02,.28c-1.12-.06-1.71-.08-1.79-.08-.07,0-.67,.03-1.82,.08-.04-.04-.07-.14-.07-.28s.02-.21,.07-.21c.13,0,.33-.04,.59-.11,.26-.07,.4-.15,.43-.23,.08-.32,.12-.71,.12-1.17v-3.16c0-.44-.08-.74-.23-.9-.11-.13-.25-.23-.41-.28-.16-.05-.3-.08-.4-.08s-.16-.01-.16-.03c0-.27,.03-.41,.1-.42,1.18-.18,1.95-.32,2.31-.43,.01,0,.04,0,.08-.02,.04,0,.07,.05,.08,.14,.01,.09,.01,.17,0,.21-.04,.31-.07,.54-.07,.67,0,.04,.01,.07,.03,.07,.01,0,.03-.01,.05-.03,.26-.27,.61-.52,1.05-.76,.44-.24,.86-.36,1.26-.36Z"/>
    <path class="uuid-88eee444-d835-4cde-a285-d85ccb816b85" d="M518.95,245.68h-.97c-.06,0-.08-.12-.08-.35,0-.07,0-.11,.02-.12,.32-.15,.67-.44,1.05-.89,.12-.15,.24-.31,.36-.49,.12-.18,.21-.34,.29-.48s.12-.21,.12-.22c.33,0,.5,.03,.5,.08v1.66c.29,0,.73,0,1.32,0,.59,0,.9,0,.94,0,.09,0,.13,.05,.13,.15,0,.2-.06,.41-.17,.64h-2.22v4.1c0,.45,.11,.8,.34,1.07,.23,.27,.53,.4,.9,.4,.33,0,.68-.11,1.04-.32,.03-.02,.08,.03,.15,.14,.07,.12,.09,.18,.08,.19-.17,.18-.42,.35-.77,.53-.35,.17-.7,.26-1.07,.26-.56,0-1.02-.18-1.4-.55-.37-.37-.56-.89-.56-1.57v-4.25Z"/>
    <path class="uuid-88eee444-d835-4cde-a285-d85ccb816b85" d="M526.78,244.64c.61,0,1.05,.15,1.32,.44,.27,.3,.4,.77,.4,1.43v3.87c0,.23,.06,.43,.18,.58s.29,.23,.5,.23c.16,0,.35-.08,.59-.23,.04,0,.07,.04,.07,.13,0,.15-.03,.26-.08,.35-.46,.39-.85,.59-1.17,.59-.26,0-.5-.11-.74-.32-.23-.21-.4-.43-.49-.67-.01,0-.05,.04-.13,.11-.07,.07-.17,.16-.29,.25-.12,.09-.26,.19-.43,.29-.16,.1-.35,.18-.57,.25-.22,.07-.44,.1-.66,.1-.51,0-.94-.14-1.27-.41s-.5-.68-.5-1.23c0-.25,.06-.48,.18-.69,.12-.22,.27-.4,.43-.54s.4-.28,.69-.43c.29-.14,.54-.25,.74-.33,.21-.07,.48-.17,.81-.28,.33-.11,.57-.2,.7-.25,.1-.03,.15-.12,.15-.25v-1.25c0-.36-.11-.63-.33-.83-.22-.2-.49-.29-.8-.29-.33,0-.61,.11-.84,.34-.22,.23-.33,.53-.33,.9,0,.39-.23,.59-.69,.59-.31,0-.53-.11-.65-.32,0-.48,.35-.96,1.05-1.43,.7-.47,1.42-.71,2.14-.71Zm-1.57,6.22c.19,.16,.43,.24,.74,.24s.59-.09,.87-.28c.28-.18,.42-.37,.42-.56v-1.72c-.09,.04-.31,.12-.65,.23s-.62,.21-.81,.29c-.19,.08-.38,.22-.57,.42s-.28,.42-.28,.68c0,.3,.09,.53,.29,.69Z"/>
    <path class="uuid-88eee444-d835-4cde-a285-d85ccb816b85" d="M531.28,245.68h-.97c-.06,0-.08-.12-.08-.35,0-.07,0-.11,.02-.12,.32-.15,.67-.44,1.05-.89,.12-.15,.24-.31,.36-.49,.12-.18,.21-.34,.29-.48s.12-.21,.12-.22c.33,0,.5,.03,.5,.08v1.66c.29,0,.73,0,1.32,0,.59,0,.9,0,.94,0,.09,0,.13,.05,.13,.15,0,.2-.06,.41-.17,.64h-2.22v4.1c0,.45,.11,.8,.34,1.07,.23,.27,.53,.4,.9,.4,.33,0,.68-.11,1.04-.32,.03-.02,.08,.03,.15,.14,.07,.12,.09,.18,.08,.19-.17,.18-.42,.35-.77,.53-.35,.17-.7,.26-1.07,.26-.56,0-1.02-.18-1.4-.55-.37-.37-.56-.89-.56-1.57v-4.25Z"/>
    <path class="uuid-88eee444-d835-4cde-a285-d85ccb816b85" d="M538.23,249.68c0,.65,.04,1.14,.13,1.49,.02,.08,.17,.15,.44,.23,.27,.07,.46,.11,.57,.11,.03,0,.06,.07,.07,.2,.01,.13,0,.23-.02,.28-1.12-.06-1.71-.08-1.79-.08s-.69,.03-1.82,.08c-.04-.04-.07-.14-.07-.28s.02-.21,.07-.21c.13,0,.33-.04,.59-.11,.26-.07,.4-.15,.43-.23,.08-.32,.12-.71,.12-1.17v-3.16c0-.44-.08-.74-.23-.9-.11-.13-.25-.23-.41-.28-.16-.05-.3-.08-.4-.08s-.16-.01-.16-.03c0-.27,.03-.41,.1-.42,1.18-.18,1.95-.32,2.31-.43l.03-.02h.05s.07,.05,.08,.14c.01,.09,.01,.17,0,.21-.06,.45-.08,.85-.08,1.21v3.45Zm-1.36-7.07c-.16-.16-.24-.36-.24-.59s.08-.43,.24-.59,.36-.24,.59-.24,.43,.08,.59,.24c.16,.16,.24,.36,.24,.59s-.08,.43-.24,.59c-.16,.16-.36,.24-.59,.24s-.43-.08-.59-.24Z"/>
    <path class="uuid-88eee444-d835-4cde-a285-d85ccb816b85" d="M543.95,244.63c1,0,1.86,.36,2.58,1.09,.71,.72,1.07,1.59,1.07,2.61s-.35,1.91-1.05,2.64c-.7,.73-1.55,1.1-2.57,1.1s-1.88-.37-2.59-1.1-1.07-1.61-1.07-2.64,.35-1.91,1.04-2.63,1.56-1.07,2.59-1.07Zm-.18,.65c-.59,0-1.07,.27-1.45,.81s-.56,1.2-.56,1.98c0,.92,.24,1.7,.71,2.35,.47,.65,1.03,.98,1.67,.98,.59,0,1.08-.28,1.46-.84,.38-.56,.57-1.23,.57-2.01,0-.9-.24-1.68-.72-2.32-.48-.64-1.04-.96-1.67-.96Z"/>
    <path class="uuid-88eee444-d835-4cde-a285-d85ccb816b85" d="M553.62,244.61c.78,0,1.33,.28,1.64,.84,.31,.56,.47,1.46,.47,2.71v1.52c0,.65,.04,1.14,.13,1.49,.02,.08,.17,.15,.44,.23,.27,.07,.46,.11,.57,.11,.03,0,.06,.07,.07,.2,.01,.13,0,.23-.02,.28-1.12-.06-1.71-.08-1.79-.08-.02,0-.61,.03-1.76,.08-.04-.04-.07-.14-.07-.28s.02-.21,.07-.21c.13,0,.32-.04,.56-.11,.24-.07,.37-.15,.39-.23,.08-.32,.12-.71,.12-1.17v-1.67c0-1.04-.13-1.75-.4-2.12-.27-.38-.7-.57-1.3-.57-.36,0-.7,.13-1.03,.39-.33,.26-.49,.5-.49,.71v2.94c0,.65,.04,1.14,.13,1.49,.02,.08,.17,.15,.43,.23,.27,.07,.46,.11,.57,.11,.03,0,.06,.07,.07,.2s0,.23-.02,.28c-1.12-.06-1.71-.08-1.79-.08-.07,0-.67,.03-1.82,.08-.04-.04-.07-.14-.07-.28s.02-.21,.07-.21c.13,0,.33-.04,.59-.11,.26-.07,.4-.15,.43-.23,.08-.32,.12-.71,.12-1.17v-3.16c0-.44-.08-.74-.23-.9-.11-.13-.25-.23-.41-.28-.16-.05-.3-.08-.4-.08s-.16-.01-.16-.03c0-.27,.03-.41,.1-.42,1.18-.18,1.95-.32,2.31-.43,.01,0,.04,0,.08-.02,.04,0,.07,.05,.08,.14,.01,.09,.01,.17,0,.21-.04,.31-.07,.54-.07,.67,0,.04,.01,.07,.03,.07,.01,0,.03-.01,.05-.03,.26-.27,.61-.52,1.05-.76,.44-.24,.86-.36,1.26-.36Z"/>
  </g>
  <line class="uuid-4c8ab441-ac4a-4614-a839-7b88e1a91f6f" x1="190.32" y1="51.74" x2="190.32" y2="218.74"/>
  <line class="uuid-4c8ab441-ac4a-4614-a839-7b88e1a91f6f" x1="396.85" y1="95.74" x2="396.85" y2="218.74"/>
</svg>