<?xml version="1.0" encoding="utf-8"?>
<!-- Generator: Adobe Illustrator 26.5.0, SVG Export Plug-In . SVG Version: 6.00 Build 0)  -->
<svg version="1.1" id="Layer_1" xmlns="http://www.w3.org/2000/svg" xmlns:xlink="http://www.w3.org/1999/xlink" x="0px" y="0px"
	 viewBox="0 0 654.3 611.2" style="enable-background:new 0 0 654.3 611.2;" xml:space="preserve">
<style type="text/css">
	.st0{fill:#C85951;}
	.st1{font-family:'CrimsonText-Regular';}
	.st2{font-size:11.42px;}
	.st3{clip-path:url(#SVGID_00000060744604967139690710000015006149298348830101_);}
	.st4{clip-path:url(#SVGID_00000016793448961087643430000001212120588527476413_);}
	.st5{clip-path:url(#SVGID_00000018935023398524605620000004343639044853749144_);}
	.st6{clip-path:url(#SVGID_00000165235325747999824230000017781747566158142359_);}
	.st7{font-family:'CrimsonText-Bold';}
	.st8{clip-path:url(#SVGID_00000093135888745367126830000013814399893542790807_);}
	.st9{clip-path:url(#SVGID_00000053533403150005491690000003618263985152398229_);}
	.st10{clip-path:url(#SVGID_00000093168585501781545180000015998602582926173865_);}
	.st11{font-family:'CrimsonText-SemiBoldItalic';}
	.st12{font-size:8.47px;}
	.st13{font-size:7.41px;}
	.st14{clip-path:url(#SVGID_00000160170412957936685770000001451867273077615491_);}
	.st15{fill:none;stroke:#8B3341;stroke-width:0.74;stroke-miterlimit:10;}
	.st16{fill:#8B3341;}
	.st17{clip-path:url(#SVGID_00000075843821371077014730000014685092815769014454_);}
	.st18{clip-path:url(#SVGID_00000062154603462131534020000004121182200151254156_);}
	.st19{clip-path:url(#SVGID_00000134235644161895838570000008296534512494108839_);}
	.st20{clip-path:url(#SVGID_00000044149561581773106280000008491244115339775368_);}
	.st21{clip-path:url(#SVGID_00000098906762132511968920000003459527898897626038_);}
	.st22{clip-path:url(#SVGID_00000091695093157203513440000004325518546671874984_);}
	.st23{clip-path:url(#SVGID_00000155104744050429068400000012030070441609893536_);}
	.st24{clip-path:url(#SVGID_00000116930451173957876350000008664563444834565269_);}
	.st25{clip-path:url(#SVGID_00000134935150113283395260000014189961608293530257_);}
	.st26{fill:none;stroke:#8B3341;stroke-width:0.79;stroke-miterlimit:10;}
	.st27{clip-path:url(#SVGID_00000024716781325980698240000003475330243927433875_);}
	.st28{fill:none;stroke:#8B3341;stroke-width:0.71;stroke-miterlimit:10;}
	.st29{font-size:6.88px;}
	.st30{font-size:5.82px;}
	.st31{clip-path:url(#SVGID_00000107561091297791134620000002371019549440062120_);}
	.st32{clip-path:url(#SVGID_00000085211897570301908620000005371219490399836294_);}
	.st33{clip-path:url(#SVGID_00000174574553996049557940000011544604940346135990_);}
	.st34{clip-path:url(#SVGID_00000011711681272154815030000011131381359124070033_);}
	.st35{clip-path:url(#SVGID_00000030448170488022644830000005153256992810295985_);}
	.st36{fill:none;stroke:#373535;stroke-width:0.25;stroke-miterlimit:10;}
	.st37{fill:none;stroke:#8D3535;stroke-width:0.25;stroke-miterlimit:10;}
	.st38{clip-path:url(#SVGID_00000183214879948150727120000008384503555805774737_);}
</style>
<text transform="matrix(1 0 0 1 91.33 75.45)" class="st0 st1 st2">Human have a</text>
<text transform="matrix(1 0 0 1 91.33 89.16)" class="st0 st1 st2">right or</text>
<text transform="matrix(1 0 0 1 91.33 102.87)" class="st0 st1 st2">entitlement to use</text>
<text transform="matrix(1 0 0 1 91.33 116.57)" class="st0 st1 st2">ecostystem</text>
<text transform="matrix(1 0 0 1 91.33 130.28)" class="st0 st1 st2">services  as long as </text>
<text transform="matrix(1 0 0 1 91.33 143.99)" class="st0 st1 st2">can pay for them</text>
<text transform="matrix(1 0 0 1 91.33 249.74)" class="st0 st1 st2">Humans manage</text>
<text transform="matrix(1 0 0 1 91.33 263.45)" class="st0 st1 st2">ecosystems to</text>
<text transform="matrix(1 0 0 1 91.33 277.15)" class="st0 st1 st2">minimize</text>
<text transform="matrix(1 0 0 1 91.33 290.86)" class="st0 st1 st2">economic cost or</text>
<text transform="matrix(1 0 0 1 91.33 304.57)" class="st0 st1 st2">maximize</text>
<text transform="matrix(1 0 0 1 91.33 318.28)" class="st0 st1 st2">economic gai</text>
<text transform="matrix(1 0 0 1 150.07 318.28)" class="st0 st1 st2">n</text>
<text transform="matrix(1 0 0 1 91.33 402.84)" class="st0 st1 st2">Economic worth of</text>
<text transform="matrix(1 0 0 1 91.33 416.54)" class="st0 st1 st2">ecosystem services</text>
<text transform="matrix(1 0 0 1 91.33 430.25)" class="st0 st1 st2">to human</text>
<text transform="matrix(1 0 0 1 134.44 430.25)" class="st0 st1 st2">s</text>
<text transform="matrix(1 0 0 1 200.62 75.45)" class="st0 st1 st2">Humans have a right</text>
<text transform="matrix(1 0 0 1 200.62 89.16)" class="st0 st1 st2">or entitlement to use</text>
<text transform="matrix(1 0 0 1 200.62 102.87)" class="st0 st1 st2">ecosystem ser</text>
<text transform="matrix(1 0 0 1 261.52 102.87)" class="st0 st1 st2">v</text>
<text transform="matrix(1 0 0 1 267.01 102.87)" class="st0 st1 st2">ices</text>
<text transform="matrix(1 0 0 1 200.62 116.57)" class="st0 st1 st2">as long as they</text>
<text transform="matrix(1 0 0 1 264.84 116.57)" class="st0 st1 st2"> </text>
<text transform="matrix(1 0 0 1 267.39 116.57)" class="st0 st1 st2">can</text>
<text transform="matrix(1 0 0 1 200.62 130.28)" class="st0 st1 st2">be used sustai</text>
<text transform="matrix(1 0 0 1 261.21 130.28)" class="st0 st1 st2">n</text>
<text transform="matrix(1 0 0 1 267.24 130.28)" class="st0 st1 st2">ably</text>
<text transform="matrix(1 0 0 1 200.62 143.99)" class="st0 st1 st2">or properly</text>
<text transform="matrix(1 0 0 1 200.62 157.7)" class="st0 st1 st2">substituted by</text>
<text transform="matrix(1 0 0 1 200.62 171.41)" class="st0 st1 st2">equivalent natural or</text>
<text transform="matrix(1 0 0 1 200.62 185.11)" class="st0 st1 st2">humanmade services</text>
<text transform="matrix(1 0 0 1 200.62 249.74)" class="st0 st1 st2">Humans manage</text>
<text transform="matrix(1 0 0 1 200.62 263.45)" class="st0 st1 st2">ecosystems in </text>
<text transform="matrix(1 0 0 1 264.1 263.45)" class="st0 st1 st2">t</text>
<text transform="matrix(1 0 0 1 267.58 263.45)" class="st0 st1 st2">erms</text>
<text transform="matrix(1 0 0 1 200.62 277.15)" class="st0 st1 st2">of stocks and f</text>
<text transform="matrix(1 0 0 1 264.26 277.15)" class="st0 st1 st2">l</text>
<text transform="matrix(1 0 0 1 267.05 277.15)" class="st0 st1 st2">ows</text>
<text transform="matrix(1 0 0 1 200.62 290.86)" class="st0 st1 st2">from ecosyste</text>
<text transform="matrix(1 0 0 1 261.77 290.86)" class="st0 st1 st2">m</text>
<text transform="matrix(1 0 0 1 270.68 290.86)" class="st0 st1 st2"> to </text>
<text transform="matrix(1 0 0 1 200.62 304.57)" class="st0 st1 st2">humans and vice</text>
<text transform="matrix(1 0 0 1 200.62 318.28)" class="st0 st1 st2">versa</text>
<text transform="matrix(1 0 0 1 200.62 402.84)" class="st0 st1 st2">Balanced delivery</text>
<text transform="matrix(1 0 0 1 200.62 416.54)" class="st0 st1 st2">of ecosystem</text>
<text transform="matrix(1 0 0 1 200.62 430.25)" class="st0 st1 st2">services and</text>
<text transform="matrix(1 0 0 1 200.62 443.96)" class="st0 st1 st2">improved</text>
<text transform="matrix(1 0 0 1 200.62 457.67)" class="st0 st1 st2">well-being of</text>
<text transform="matrix(1 0 0 1 200.62 471.38)" class="st0 st1 st2">people and nature</text>
<text transform="matrix(1 0 0 1 322.91 75.45)" class="st0 st1 st2">Human’s moral</text>
<text transform="matrix(1 0 0 1 322.91 89.16)" class="st0 st1 st2">concerns drive the</text>
<text transform="matrix(1 0 0 1 322.91 102.87)" class="st0 st1 st2">protection of</text>
<text transform="matrix(1 0 0 1 322.91 116.57)" class="st0 st1 st2">ecosystem services</text>
<text transform="matrix(1 0 0 1 445.82 75.45)" class="st0 st1 st2">Humans are one</text>
<text transform="matrix(1 0 0 1 445.82 89.16)" class="st0 st1 st2">part of a wider</text>
<text transform="matrix(1 0 0 1 445.82 102.87)" class="st0 st1 st2">ecological system</text>
<text transform="matrix(1 0 0 1 445.82 116.57)" class="st0 st1 st2">and have a</text>
<text transform="matrix(1 0 0 1 445.82 130.28)" class="st0 st1 st2">responsibility to</text>
<text transform="matrix(1 0 0 1 445.82 143.99)" class="st0 st1 st2">understand the</text>
<text transform="matrix(1 0 0 1 445.82 157.7)" class="st0 st1 st2">impacts on the</text>
<text transform="matrix(1 0 0 1 445.82 171.41)" class="st0 st1 st2">various</text>
<text transform="matrix(1 0 0 1 445.82 185.12)" class="st0 st1 st2">components of the</text>
<text transform="matrix(1 0 0 1 445.82 198.82)" class="st0 st1 st2">broader system</text>
<text transform="matrix(1 0 0 1 569.77 75.45)" class="st0 st1 st2">Humans have a</text>
<text transform="matrix(1 0 0 1 569.77 89.16)" class="st0 st1 st2">responsibility to</text>
<text transform="matrix(1 0 0 1 569.77 102.87)" class="st0 st1 st2">manage</text>
<g>
	<defs>
		<rect id="SVGID_1_" x="0.3" width="651.5" height="611.2"/>
	</defs>
	<clipPath id="SVGID_00000145033853949723915350000016789225807163888523_">
		<use xlink:href="#SVGID_1_"  style="overflow:visible;"/>
	</clipPath>
	<g style="clip-path:url(#SVGID_00000145033853949723915350000016789225807163888523_);">
		<text transform="matrix(1 0 0 1 569.76 116.57)" class="st0 st1 st2">ecosystems on the</text>
	</g>
</g>
<text transform="matrix(1 0 0 1 569.76 130.28)" class="st0 st1 st2">basis of the</text>
<text transform="matrix(1 0 0 1 569.76 143.99)" class="st0 st1 st2">connections</text>
<text transform="matrix(1 0 0 1 569.76 157.7)" class="st0 st1 st2">among the</text>
<text transform="matrix(1 0 0 1 569.76 171.41)" class="st0 st1 st2">spiritual, physical,</text>
<g>
	<defs>
		<rect id="SVGID_00000141419054569528438190000001836548545402534826_" x="0.3" width="651.5" height="611.2"/>
	</defs>
	<clipPath id="SVGID_00000041294076939560146520000011331743267106914747_">
		<use xlink:href="#SVGID_00000141419054569528438190000001836548545402534826_"  style="overflow:visible;"/>
	</clipPath>
</g>
<text transform="matrix(1 0 0 1 569.76 185.11)" class="st0 st1 st2">and social world</text>
<text transform="matrix(1 0 0 1 642.36 185.11)" class="st0 st1 st2">s</text>
<text transform="matrix(1 0 0 1 569.76 248.04)" class="st0 st1 st2">Humans manage</text>
<g>
	<defs>
		<rect id="SVGID_00000114068776326622973010000002482953853451229604_" x="0.3" width="651.5" height="611.2"/>
	</defs>
	<clipPath id="SVGID_00000044138613650910025540000016554483348023437498_">
		<use xlink:href="#SVGID_00000114068776326622973010000002482953853451229604_"  style="overflow:visible;"/>
	</clipPath>
	<g style="clip-path:url(#SVGID_00000044138613650910025540000016554483348023437498_);">
		<text transform="matrix(1 0 0 1 569.76 261.75)" class="st0 st1 st2">ecosystems on the</text>
	</g>
</g>
<text transform="matrix(1 0 0 1 569.76 275.46)" class="st0 st1 st2">basis of a complex</text>
<g>
	<defs>
		<rect id="SVGID_00000152244843004851771610000011510612276072607675_" x="0.3" width="651.5" height="611.2"/>
	</defs>
	<clipPath id="SVGID_00000018231211191788609580000006788342421496155521_">
		<use xlink:href="#SVGID_00000152244843004851771610000011510612276072607675_"  style="overflow:visible;"/>
	</clipPath>
</g>
<text transform="matrix(1 0 0 1 569.76 289.16)" class="st0 st1 st2">array correlations</text>
<text transform="matrix(1 0 0 1 569.76 302.87)" class="st0 st1 st2">mong human,</text>
<text transform="matrix(1 0 0 1 569.76 316.58)" class="st0 st1 st2">ecological, and</text>
<text transform="matrix(1 0 0 1 569.76 330.29)" class="st0 st1 st2">spiritual domains</text>
<text transform="matrix(1 0 0 1 564.67 403.89)" class="st0 st1 st2">Integrity of the</text>
<g>
	<defs>
		<rect id="SVGID_00000173125189240236256930000015912196751388091571_" x="0.3" width="651.5" height="611.2"/>
	</defs>
	<clipPath id="SVGID_00000069392900415124366520000014399051015290568625_">
		<use xlink:href="#SVGID_00000173125189240236256930000015912196751388091571_"  style="overflow:visible;"/>
	</clipPath>
	<g style="clip-path:url(#SVGID_00000069392900415124366520000014399051015290568625_);">
		<text transform="matrix(1 0 0 1 564.67 417.6)" class="st0 st1 st2">connections among</text>
	</g>
</g>
<text transform="matrix(1 0 0 1 564.67 431.31)" class="st0 st1 st2">spiritual, physical,</text>
<text transform="matrix(1 0 0 1 564.67 445.02)" class="st0 st1 st2">and social world</text>
<text transform="matrix(1 0 0 1 637.27 445.02)" class="st0 st1 st2">s</text>
<text transform="matrix(1 0 0 1 445.82 249.73)" class="st0 st1 st2">Humans manage</text>
<text transform="matrix(1 0 0 1 445.82 263.44)" class="st0 st1 st2">ecosystem on the</text>
<text transform="matrix(1 0 0 1 445.82 277.15)" class="st0 st1 st2">basis of the</text>
<text transform="matrix(1 0 0 1 445.82 290.86)" class="st0 st1 st2">complex</text>
<text transform="matrix(1 0 0 1 445.82 304.57)" class="st0 st1 st2">interactions</text>
<text transform="matrix(1 0 0 1 445.82 318.28)" class="st0 st1 st2">between natural</text>
<text transform="matrix(1 0 0 1 445.82 331.98)" class="st0 st1 st2">systems</text>
<text transform="matrix(1 0 0 1 445.82 402.83)" class="st0 st1 st2">Species</text>
<text transform="matrix(1 0 0 1 445.82 416.54)" class="st0 st1 st2">interactions, levels</text>
<text transform="matrix(1 0 0 1 445.82 430.25)" class="st0 st1 st2">of ecosystem</text>
<text transform="matrix(1 0 0 1 445.82 443.96)" class="st0 st1 st2">function</text>
<text transform="matrix(1 0 0 1 322.91 249.73)" class="st0 st1 st2">Humans manage</text>
<text transform="matrix(1 0 0 1 322.91 263.44)" class="st0 st1 st2">ecosystems out of</text>
<text transform="matrix(1 0 0 1 322.91 277.15)" class="st0 st1 st2">moral concern for</text>
<text transform="matrix(1 0 0 1 322.91 290.86)" class="st0 st1 st2">them</text>
<text transform="matrix(1 0 0 1 322.91 402.83)" class="st0 st1 st2">Extent to which</text>
<text transform="matrix(1 0 0 1 322.91 416.54)" class="st0 st1 st2">moral concerns</text>
<text transform="matrix(1 0 0 1 322.91 430.25)" class="st0 st1 st2">about nature are</text>
<text transform="matrix(1 0 0 1 322.91 443.96)" class="st0 st1 st2">considered in</text>
<text transform="matrix(1 0 0 1 322.91 457.67)" class="st0 st1 st2">ecosystem</text>
<text transform="matrix(1 0 0 1 322.91 471.37)" class="st0 st1 st2">management</text>
<g>
	<defs>
		<rect id="SVGID_00000153698023207616205530000014559259465896603522_" x="0.3" width="651.5" height="611.2"/>
	</defs>
	<clipPath id="SVGID_00000181085537745282737820000007756031432454842293_">
		<use xlink:href="#SVGID_00000153698023207616205530000014559259465896603522_"  style="overflow:visible;"/>
	</clipPath>
	<g style="clip-path:url(#SVGID_00000181085537745282737820000007756031432454842293_);">
		<text transform="matrix(1 0 0 1 90.38 7.76)" class="st0 st7 st2">Economic</text>
	</g>
</g>
<text transform="matrix(1 0 0 1 90.38 21.46)" class="st0 st7 st2">productio</text>
<text transform="matrix(1 0 0 1 139.36 21.46)" class="st0 st7 st2">n</text>
<text transform="matrix(1 0 0 1 12.9 73.2)" class="st0 st7 st2">Ecosystem</text>
<g>
	<defs>
		<rect id="SVGID_00000070840931384090122770000015996817219893052842_" x="0.3" width="651.5" height="611.2"/>
	</defs>
	<clipPath id="SVGID_00000026148716597823229160000008340629624581537180_">
		<use xlink:href="#SVGID_00000070840931384090122770000015996817219893052842_"  style="overflow:visible;"/>
	</clipPath>
	<g style="clip-path:url(#SVGID_00000026148716597823229160000008340629624581537180_);">
		<text transform="matrix(1 0 0 1 0 86.91)" class="st0 st7 st2">management</text>
	</g>
</g>
<text transform="matrix(1 0 0 1 39.37 100.62)" class="st0 st7 st2">ethic</text>
<text transform="matrix(1 0 0 1 18.32 247.39)" class="st0 st7 st2">Ecosystem</text>
<text transform="matrix(1 0 0 1 5.44 261.09)" class="st0 st7 st2">management</text>
<text transform="matrix(1 0 0 1 24.53 274.8)" class="st0 st7 st2">objectiv</text>
<text transform="matrix(1 0 0 1 64.68 274.8)" class="st0 st7 st2">e</text>
<text transform="matrix(1 0 0 1 7.76 402.85)" class="st0 st7 st2">Indicators of</text>
<text transform="matrix(1 0 0 1 35.84 416.56)" class="st0 st7 st2">success</text>
<g>
	<defs>
		<rect id="SVGID_00000132793576276211286060000010729040830400862593_" x="0.3" width="651.5" height="611.2"/>
	</defs>
	<clipPath id="SVGID_00000056397330064232813180000011014795157770727089_">
		<use xlink:href="#SVGID_00000132793576276211286060000010729040830400862593_"  style="overflow:visible;"/>
	</clipPath>
	<g style="clip-path:url(#SVGID_00000056397330064232813180000011014795157770727089_);">
		<text transform="matrix(1 0 0 1 200.62 7.76)" class="st0 st7 st2">Closed-pop</text>
	</g>
</g>
<text transform="matrix(1 0 0 1 200.62 21.46)" class="st0 st7 st2">productio</text>
<text transform="matrix(1 0 0 1 249.6 21.46)" class="st0 st7 st2">n</text>
<text transform="matrix(1 0 0 1 335.06 19.37)" class="st0 st7 st2">Stewardshi</text>
<text transform="matrix(1 0 0 1 391.2 19.37)" class="st0 st7 st2">p</text>
<text transform="matrix(1 0 0 1 452.12 20.47)" class="st0 st7 st2">Web of life</text>
<g>
	<defs>
		<rect id="SVGID_00000034081242055978793840000015652616002249340309_" x="0.3" width="651.5" height="611.2"/>
	</defs>
	<clipPath id="SVGID_00000075878358627519960720000000330472022012213940_">
		<use xlink:href="#SVGID_00000034081242055978793840000015652616002249340309_"  style="overflow:visible;"/>
	</clipPath>
	<g style="clip-path:url(#SVGID_00000075878358627519960720000000330472022012213940_);">
		<text transform="matrix(1 0 0 1 580.62 7.76)" class="st0 st7 st2">Ecocultural</text>
	</g>
</g>
<text transform="matrix(1 0 0 1 580.62 21.46)" class="st0 st7 st2">community</text>
<text transform="matrix(1 0 0 1 99.19 511.42)" class="st0 st11 st12">Ecosyste</text>
<text transform="matrix(1 0 0 1 124.48 511.42)" class="st0 st11 st12">m</text>
<text transform="matrix(1 0 0 1 220.3 505.29)" class="st0 st11 st12">Ecosyste</text>
<text transform="matrix(1 0 0 1 245.59 505.29)" class="st0 st11 st12">m</text>
<text transform="matrix(1 0 0 1 332.13 501.2)" class="st0 st11 st13">Ecosystem</text>
<text transform="matrix(1 0 0 1 589.49 520.13)" class="st0 st11 st13">Ecosystem</text>
<text transform="matrix(1 0 0 1 103.6 598.41)" class="st0 st11 st12">Humans</text>
<text transform="matrix(1 0 0 1 234.13 597.54)" class="st0 st11 st12">Humans</text>
<text transform="matrix(1 0 0 1 353.11 590.12)" class="st0 st11 st13">Humans</text>
<text transform="matrix(1 0 0 1 459.2 501.35)" class="st0 st11 st13">Humans</text>
<text transform="matrix(1 0 0 1 592.2448 566.4109)" class="st0 st11 st13">Humans</text>
<g>
	<defs>
		<rect id="SVGID_00000007397029228637217430000013330816582458325899_" x="0.3" width="651.5" height="611.2"/>
	</defs>
	<clipPath id="SVGID_00000101820782674466976340000016007817305999063994_">
		<use xlink:href="#SVGID_00000007397029228637217430000013330816582458325899_"  style="overflow:visible;"/>
	</clipPath>
	<g style="clip-path:url(#SVGID_00000101820782674466976340000016007817305999063994_);">
		<path class="st15" d="M115.2,517c0.9-0.1,1.8-0.1,2.8-0.1c18.4,0,33.3,14.9,33.3,33.3c0,15.1-10,27.8-23.8,31.9"/>
	</g>
</g>
<polygon class="st16" points="129.6,577.5 128.8,581.7 131.2,585.2 121.3,583.3 "/>
<g>
	<defs>
		<rect id="SVGID_00000011724785411133386770000000443348617761188003_" x="0.3" width="651.5" height="611.2"/>
	</defs>
	<clipPath id="SVGID_00000176738264071596723800000009771783930257544077_">
		<use xlink:href="#SVGID_00000011724785411133386770000000443348617761188003_"  style="overflow:visible;"/>
	</clipPath>
	<g style="clip-path:url(#SVGID_00000176738264071596723800000009771783930257544077_);">
		<path class="st15" d="M243.5,516.1c0.9-0.1,1.9-0.1,2.8-0.1c18.4,0,33.3,14.3,33.3,31.9c0,14.5-10,26.7-23.8,30.6"/>
	</g>
</g>
<polygon class="st16" points="257.9,573.9 257,578.1 259.5,581.6 249.6,579.7 "/>
<g>
	<defs>
		<rect id="SVGID_00000165220028902300549120000008683231227475587727_" x="0.3" width="651.5" height="611.2"/>
	</defs>
	<clipPath id="SVGID_00000021104519571334310240000009385015013823401610_">
		<use xlink:href="#SVGID_00000165220028902300549120000008683231227475587727_"  style="overflow:visible;"/>
	</clipPath>
	<g style="clip-path:url(#SVGID_00000021104519571334310240000009385015013823401610_);">
		<path class="st15" d="M248,579.7c-1.1,0.1-2.2,0.2-3.3,0.2c-18.4,0-33.3-14.3-33.3-31.9c0-14.6,10.3-26.9,24.3-30.7"/>
	</g>
</g>
<polygon class="st16" points="233.5,521.7 234.4,517.6 232,514 241.9,516.1 "/>
<g>
	<defs>
		<rect id="SVGID_00000155129260623766465630000003658543747612531389_" x="0.3" width="651.5" height="611.2"/>
	</defs>
	<clipPath id="SVGID_00000085213218777451763510000009520458269403847056_">
		<use xlink:href="#SVGID_00000155129260623766465630000003658543747612531389_"  style="overflow:visible;"/>
	</clipPath>
	<g style="clip-path:url(#SVGID_00000085213218777451763510000009520458269403847056_);">
		<path class="st15" d="M368.7,576.3c-1.1,0.1-2.2,0.2-3.3,0.2c-18.4,0-33.3-14.3-33.3-31.9c0-14.6,10.3-26.9,24.3-30.7"/>
	</g>
</g>
<polygon class="st16" points="354.2,518.4 355.1,514.2 352.8,510.7 362.6,512.8 "/>
<g>
	<defs>
		<rect id="SVGID_00000016061324515613941270000011292424293637688480_" x="0.3" width="651.5" height="611.2"/>
	</defs>
	<clipPath id="SVGID_00000007418624583224233680000010838863460444727435_">
		<use xlink:href="#SVGID_00000016061324515613941270000011292424293637688480_"  style="overflow:visible;"/>
	</clipPath>
	<g style="clip-path:url(#SVGID_00000007418624583224233680000010838863460444727435_);">
		<path class="st15" d="M435,585.7c0,0-9.4-33.2,14.4-63.9"/>
	</g>
</g>
<polygon class="st16" points="450.6,526.6 448.7,522.8 444.6,521.6 453.5,516.9 "/>
<g>
	<defs>
		<rect id="SVGID_00000103234789523824665450000017882964369236687235_" x="0.3" width="651.5" height="611.2"/>
	</defs>
	<clipPath id="SVGID_00000170246791699163214090000001888348252157462439_">
		<use xlink:href="#SVGID_00000103234789523824665450000017882964369236687235_"  style="overflow:visible;"/>
	</clipPath>
	<g style="clip-path:url(#SVGID_00000170246791699163214090000001888348252157462439_);">
		<path class="st15" d="M466,535.5c0,0-0.3-4.8,1.8-11"/>
	</g>
</g>
<polygon class="st16" points="470.3,528.8 467.3,525.7 463.1,525.8 470.2,518.7 "/>
<g>
	<defs>
		<rect id="SVGID_00000024722840005312469480000015991354912981871534_" x="0.3" width="651.5" height="611.2"/>
	</defs>
	<clipPath id="SVGID_00000182504235880010937790000017522592627766943132_">
		<use xlink:href="#SVGID_00000024722840005312469480000015991354912981871534_"  style="overflow:visible;"/>
	</clipPath>
	<g style="clip-path:url(#SVGID_00000182504235880010937790000017522592627766943132_);">
		<path class="st15" d="M478,562.6c0,0,44.5-7.8,24.9-38.8"/>
	</g>
</g>
<polygon class="st16" points="507.8,524 503.6,524.9 501.4,528.5 499.3,518.7 "/>
<g>
	<defs>
		<rect id="SVGID_00000041997246373173143830000002219905210517406105_" x="0.3" width="651.5" height="611.2"/>
	</defs>
	<clipPath id="SVGID_00000165230689198801327930000013124133492957116583_">
		<use xlink:href="#SVGID_00000041997246373173143830000002219905210517406105_"  style="overflow:visible;"/>
	</clipPath>
	<g style="clip-path:url(#SVGID_00000165230689198801327930000013124133492957116583_);">
		<path class="st15" d="M502,514c10.8,10.3,33.2,38.5-4.8,66.9"/>
	</g>
</g>
<polygon class="st16" points="501.6,519 502.9,514.9 506.8,513.1 497.2,509.8 "/>
<g>
	<defs>
		<rect id="SVGID_00000132081038026957094120000003073733940754509222_" x="0.3" width="651.5" height="611.2"/>
	</defs>
	<clipPath id="SVGID_00000137118267520173321530000000862575307214379914_">
		<use xlink:href="#SVGID_00000132081038026957094120000003073733940754509222_"  style="overflow:visible;"/>
	</clipPath>
	<g style="clip-path:url(#SVGID_00000137118267520173321530000000862575307214379914_);">
		<path class="st15" d="M596.5,537.3c5.5-4.2,13.3-3.1,17.4,2.3s3.1,13.3-2.3,17.4s-13.3,3.1-17.4-2.3c-2.8-3.7-3.3-8.5-1.6-12.4"/>
	</g>
</g>
<polygon class="st16" points="594.3,547.2 592.1,543.5 588,542.6 596.5,537.3 "/>
<g>
	<defs>
		<rect id="SVGID_00000000186206441481869960000003278996581274309252_" x="0.3" width="651.5" height="611.2"/>
	</defs>
	<clipPath id="SVGID_00000103969293215087178450000012480099700299181448_">
		<use xlink:href="#SVGID_00000000186206441481869960000003278996581274309252_"  style="overflow:visible;"/>
	</clipPath>
	<g style="clip-path:url(#SVGID_00000103969293215087178450000012480099700299181448_);">
		<path class="st26" d="M589.3,527.8c10.7-8.2,26-6.2,34.2,4.6c8.2,10.7,6.2,26-4.6,34.2c-10.7,8.2-26,6.2-34.2-4.6
			c-6.8-8.9-6.5-20.9-0.2-29.4"/>
	</g>
</g>
<polygon class="st16" points="585.5,537.9 583.7,533.7 579.4,532.1 589.3,527.8 "/>
<g>
	<defs>
		<rect id="SVGID_00000167388866247644489820000001973119037830650025_" x="0.3" width="651.5" height="611.2"/>
	</defs>
	<clipPath id="SVGID_00000140708832314648305120000004689451438661122184_">
		<use xlink:href="#SVGID_00000167388866247644489820000001973119037830650025_"  style="overflow:visible;"/>
	</clipPath>
	<g style="clip-path:url(#SVGID_00000140708832314648305120000004689451438661122184_);">
		<path class="st28" d="M580.6,516.5c16.9-13,41.2-9.7,54.1,7.2c13,16.9,9.7,41.2-7.2,54.1c-16.9,13-41.2,9.7-54.1-7.2
			c-11.7-15.3-10.2-36.5,2.7-50.1"/>
	</g>
</g>
<polygon class="st16" points="576.6,525.4 575.3,521.5 571.5,519.8 580.6,516.5 "/>
<text transform="matrix(1 0 0 1 96.86 541.85)" class="st0 st11 st13">Ecosystem</text>
<text transform="matrix(1 0 0 1 96.86 550.74)" class="st0 st11 st13">services</text>
<text transform="matrix(1 0 0 1 184.43 518.66)" class="st0 st11 st29">Stocks and flow</text>
<text transform="matrix(1 0 0 1 223.28 518.66)" class="st0 st11 st29">s</text>
<text transform="matrix(1 0 0 1 275.8 576.25)" class="st0 st11 st29">Ecosystem</text>
<text transform="matrix(1 0 0 1 275.8 584.51)" class="st0 st11 st29">services or</text>
<text transform="matrix(1 0 0 1 275.45 592.77)" class="st0 st11 st29">disservices</text>
<text transform="matrix(1 0 0 1 346.35 540.58)" class="st0 st11 st29">Moral and</text>
<text transform="matrix(1 0 0 1 335.46 548.84)" class="st0 st11 st29">normative concern</text>
<text transform="matrix(1 0 0 1 381.49 548.84)" class="st0 st11 st29">s</text>
<text transform="matrix(1 0 0 1 598.55 598.35)" class="st0 st11 st29">Spiritual</text>
<text transform="matrix(1 0 0 1 602.48 606.6)" class="st0 st11 st29">realm</text>
<text transform="matrix(1 0 0 1 439.4 591.85)" class="st0 st11 st30">Producer</text>
<text transform="matrix(1 0 0 1 469.88 581.62)" class="st0 st11 st30">Herbivore</text>
<text transform="matrix(1 0 0 1 452.06 541.71)" class="st0 st11 st30">Second-order</text>
<text transform="matrix(1 0 0 1 455.78 548.7)" class="st0 st11 st30">carnivore</text>
<text transform="matrix(1 0 0 1 444.07 564.05)" class="st0 st11 st30">First-orde</text>
<text transform="matrix(1 0 0 1 465.5 564.05)" class="st0 st11 st30">r</text>
<text transform="matrix(1 0 0 1 445.77 571.03)" class="st0 st11 st30">carnivor</text>
<text transform="matrix(1 0 0 1 464.07 571.03)" class="st0 st11 st30">e</text>
<g>
	<defs>
		<rect id="SVGID_00000141437699477783786640000012369038307516640680_" x="0.3" width="651.5" height="611.2"/>
	</defs>
	<clipPath id="SVGID_00000042736241905776702720000002966617238854546560_">
		<use xlink:href="#SVGID_00000141437699477783786640000012369038307516640680_"  style="overflow:visible;"/>
	</clipPath>
	<g style="clip-path:url(#SVGID_00000042736241905776702720000002966617238854546560_);">
		<path class="st15" d="M451.1,583.4c0,0-0.1-0.5-0.2-1.2"/>
	</g>
</g>
<polygon class="st16" points="454.1,586.5 450.9,583.6 446.7,583.9 453.5,576.4 "/>
<g>
	<defs>
		<rect id="SVGID_00000124133136500113042740000009960465401162625968_" x="0.3" width="651.5" height="611.2"/>
	</defs>
	<clipPath id="SVGID_00000089552380115523334020000008785742701163381933_">
		<use xlink:href="#SVGID_00000124133136500113042740000009960465401162625968_"  style="overflow:visible;"/>
	</clipPath>
	<g style="clip-path:url(#SVGID_00000089552380115523334020000008785742701163381933_);">
		<path class="st15" d="M466.1,587.7c-0.3,0.3,0.8,9.6,9.1,6.1"/>
	</g>
</g>
<polygon class="st16" points="474.5,598.5 474,594.3 470.5,591.8 480.5,590.4 "/>
<g>
	<defs>
		<rect id="SVGID_00000103226898889226440200000016710252910562830015_" x="0.3" width="651.5" height="611.2"/>
	</defs>
	<clipPath id="SVGID_00000113319552474890080710000014809340996823027086_">
		<use xlink:href="#SVGID_00000103226898889226440200000016710252910562830015_"  style="overflow:visible;"/>
	</clipPath>
	<g style="clip-path:url(#SVGID_00000113319552474890080710000014809340996823027086_);">
		<path class="st15" d="M478,573.6c0,0-1.1-7.8-2.9-13.8"/>
	</g>
</g>
<polygon class="st16" points="479.7,561.2 475.4,561.1 472.4,564.1 472.7,554 "/>
<polygon class="st16" points="460.2,560.5 457.3,557.4 453,557.4 460.2,550.4 "/>
<g>
	<defs>
		<rect id="SVGID_00000023970046153289466840000008153567063904340896_" x="0.3" width="651.5" height="611.2"/>
	</defs>
	<clipPath id="SVGID_00000132806680316004392310000009237652879013214893_">
		<use xlink:href="#SVGID_00000023970046153289466840000008153567063904340896_"  style="overflow:visible;"/>
	</clipPath>
	<g style="clip-path:url(#SVGID_00000132806680316004392310000009237652879013214893_);">
		<path class="st15" d="M485.9,507.9c0,0-2,12.9-5,21"/>
	</g>
</g>
<polygon class="st16" points="478.7,524.4 481.4,527.6 485.7,527.9 478,534.4 "/>
<g>
	<defs>
		<rect id="SVGID_00000133495834815782685530000013474264313733795513_" x="0.3" width="651.5" height="611.2"/>
	</defs>
	<clipPath id="SVGID_00000150797745831230799620000002210676025324791967_">
		<use xlink:href="#SVGID_00000133495834815782685530000013474264313733795513_"  style="overflow:visible;"/>
	</clipPath>
	<g style="clip-path:url(#SVGID_00000150797745831230799620000002210676025324791967_);">
		<line class="st36" x1="315.3" y1="504.1" x2="315.3" y2="611.2"/>
	</g>
</g>
<path class="st37" d="M13.3,383.2H647 M13.3,227.2H647 M13.3,56H647"/>
<g>
	<defs>
		<rect id="SVGID_00000044170355462352026530000009550283185266204037_" x="0.3" width="651.5" height="611.2"/>
	</defs>
	<clipPath id="SVGID_00000011001668046830804360000012925125240545184150_">
		<use xlink:href="#SVGID_00000044170355462352026530000009550283185266204037_"  style="overflow:visible;"/>
	</clipPath>
	<g style="clip-path:url(#SVGID_00000011001668046830804360000012925125240545184150_);">
		<path class="st36" d="M178.6,504.1v107.1 M542,504.1v107.1 M424.2,504.1v107.1"/>
	</g>
</g>
</svg>
