<?xml version="1.0" encoding="utf-8"?>
<!-- Generator: Adobe Illustrator 26.0.2, SVG Export Plug-In . SVG Version: 6.00 Build 0)  -->
<svg version="1.1" id="Layer_1" xmlns="http://www.w3.org/2000/svg" xmlns:xlink="http://www.w3.org/1999/xlink" x="0px" y="0px"
	 viewBox="0 0 800 593" style="enable-background:new 0 0 800 593;" xml:space="preserve">
<style type="text/css">
	.st0{fill:none;stroke:#8C96B3;stroke-width:0.84;}
	.st1{fill:#464664;}
	.st2{font-family:'ArialMT';}
	.st3{font-size:14.7813px;}
	.st4{letter-spacing:-1;}
	.st5{font-size:16.2605px;}
	.st6{font-size:17.7397px;}
</style>
<rect x="2.8" y="9.7" class="st0" width="794.1" height="574.9"/>
<line class="st0" x1="166.5" y1="9" x2="166.5" y2="585.1"/>
<line class="st0" x1="4.1" y1="116.5" x2="795.8" y2="116.5"/>
<line class="st0" x1="3.1" y1="70.1" x2="795.8" y2="70.1"/>
<line class="st0" x1="4.1" y1="374.5" x2="797.7" y2="374.5"/>
<line class="st0" x1="2" y1="203.2" x2="797.8" y2="203.2"/>
<line class="st0" x1="4.1" y1="442.1" x2="796.6" y2="442.1"/>
<line class="st0" x1="4.1" y1="340.7" x2="795.3" y2="340.7"/>
<line class="st0" x1="4.1" y1="156.9" x2="795.7" y2="156.9"/>
<line class="st0" x1="3.2" y1="485.5" x2="796.6" y2="485.5"/>
<line class="st0" x1="4.1" y1="406.3" x2="796" y2="406.3"/>
<line class="st0" x1="4.7" y1="294.4" x2="797.7" y2="294.4"/>
<line class="st0" x1="2" y1="249.5" x2="797.8" y2="249.5"/>
<line class="st0" x1="4.1" y1="551.9" x2="480.9" y2="551.9"/>
<text transform="matrix(0.9925 0 0 1 35.5674 98.79)" class="st1 st2 st3">V</text>
<text transform="matrix(0.9925 0 0 1 45.8667 98.79)" class="st1 st2 st3">isi</text>
<text transform="matrix(0.9925 0 0 1 61.2812 98.79)" class="st1 st2 st3">o</text>
<text transform="matrix(0.9925 0 0 1 69.6401 98.79)" class="st1 st2 st3">ning</text>
<text transform="matrix(0.9925 0 0 1 33.957 44.5894)" class="st1 st2 st3">D</text>
<text transform="matrix(0.9925 0 0 1 44.5073 44.5894)" class="st1 st2 st3">esi</text>
<text transform="matrix(0.9925 0 0 1 63.7783 44.5894)" class="st1 st2 st3">g</text>
<text transform="matrix(0.9925 0 0 1 71.5898 44.5894)" class="st1 st2 st3">n </text>
<text transform="matrix(0.9925 0 0 1 83.5542 44.5894)" class="st1 st2 st3">T</text>
<text transform="matrix(0.9925 0 0 1 93.0635 44.5894)" class="st1 st2 st3">r</text>
<text transform="matrix(0.9925 0 0 1 99.5381 44.5894)" class="st1 st2 st3">ait</text>
<text transform="matrix(0.9925 0 0 1 185.8032 44.5894)" class="st1 st2 st3">T</text>
<text transform="matrix(0.9925 0 0 1 195.4448 44.5894)" class="st1 st2 st3">h</text>
<text transform="matrix(0.9925 0 0 1 204.2642 44.5894)" class="st1 st2 st3">e</text>
<text transform="matrix(0.9925 0 0 1 212.1846 44.5894)" class="st1 st2 st3">n</text>
<text transform="matrix(0.9925 0 0 1 511.1006 44.5894)" class="st1 st2 st3">N</text>
<text transform="matrix(0.9925 0 0 1 521.5303 44.5894)" class="st1 st2 st3">o</text>
<text transform="matrix(0.9925 0 0 1 529.4736 44.5894)" class="st1 st2 st3">w</text>
<text transform="matrix(0.9925 0 0 1 35.5674 186.5068)" class="st1 st2 st3">S</text>
<text transform="matrix(0.9925 0 0 1 44.9023 186.5068)" class="st1 st2 st3">c</text>
<text transform="matrix(0.9925 0 0 1 52.6367 186.5068)" class="st1 st2 st3">h</text>
<text transform="matrix(0.9925 0 0 1 61.4561 186.5068)" class="st1 st2 st3">e</text>
<text transform="matrix(0.9925 0 0 1 69.3662 186.5068)" class="st1 st2 st3">me</text>
<text transform="matrix(0.9925 0 0 1 35.5674 137.8022)" class="st1 st2 st3">C</text>
<text transform="matrix(0.9925 0 0 1 45.417 137.8022)" class="st1 st2 st3">o</text>
<text transform="matrix(0.9925 0 0 1 53.7759 137.8022)" class="st1 st2 st3">m</text>
<text transform="matrix(0.9925 0 0 1 66.9995 137.8022)" class="st1 st2 st3">p</text>
<text transform="matrix(0.9925 0 0 1 75.666 137.8022)" class="st1 st2 st3">a</text>
<text transform="matrix(0.9925 0 0 1 83.8716 137.8022)" class="st1 st2 st3">ss</text>
<text transform="matrix(0.9925 0 0 1 35.5674 233.7871)" class="st1 st2 st3">Qu</text>
<text transform="matrix(0.9925 0 0 1 55.1021 233.7871)" class="st1 st2 st3">a</text>
<text transform="matrix(0.9925 0 0 1 63.373 233.7871)" class="st1 st2 st3">lities</text>
<text transform="matrix(0.9925 0 0 1 33.957 278.5498)" class="st1 st2 st3">E</text>
<text transform="matrix(0.9925 0 0 1 42.8647 278.5498)" class="st1 st2 st3">s</text>
<text transform="matrix(0.9925 0 0 1 50.0508 278.5498)" class="st1 st2 st3">s</text>
<text transform="matrix(0.9925 0 0 1 57.3037 278.5498)" class="st1 st2 st3">e</text>
<text transform="matrix(0.9925 0 0 1 65.2246 278.5498)" class="st1 st2 st3">n</text>
<text transform="matrix(0.9925 0 0 1 74.0332 278.5498)" class="st1 st2 st3">c</text>
<text transform="matrix(0.9925 0 0 1 81.833 278.5498)" class="st1 st2 st3">e</text>
<text transform="matrix(0.9925 0 0 1 35.5674 323.4014)" class="st1 st2 st3">W</text>
<text transform="matrix(0.9925 0 0 1 50.2808 323.4014)" class="st1 st2 st3">h</text>
<text transform="matrix(0.9925 0 0 1 59.1001 323.4014)" class="st1 st2 st3">a</text>
<text transform="matrix(0.9925 0 0 1 67.1309 323.4014)" class="st1 st2 st3">t</text>
<text transform="matrix(0.9925 0 0 1 35.5674 363.4072)" class="st1 st2 st3">St</text>
<text transform="matrix(0.9925 0 0 1 50.5332 363.4072)" class="st1 st2 st3">r</text>
<text transform="matrix(0.9925 0 0 1 57.0078 363.4072)" class="st1 st2 st3">a</text>
<text transform="matrix(0.9925 0 0 1 65.0498 363.4072)" class="st1 st2 st3">t</text>
<text transform="matrix(0.9925 0 0 1 70.8228 363.4072)" class="st1 st2 st3">e</text>
<text transform="matrix(0.9925 0 0 1 78.7988 363.4072)" class="st1 st2 st3">g</text>
<text transform="matrix(0.9925 0 0 1 86.7744 363.4072)" class="st1 st2 st3">y</text>
<text transform="matrix(0.9925 0 0 1 35.5674 395.1992)" class="st1 st2 st3">M</text>
<text transform="matrix(0.9925 0 0 1 48.2104 395.1992)" class="st1 st2 st3">ot</text>
<text transform="matrix(0.9925 0 0 1 62.5405 395.1992)" class="st1 st2 st3">t</text>
<text transform="matrix(0.9925 0 0 1 68.3149 395.1992)" class="st1 st2 st3">o</text>
<text transform="matrix(0.9925 0 0 1 35.5674 429.5303)" class="st1 st2 st3 st4">F</text>
<text transform="matrix(0.9925 0 0 1 43.0508 429.5303)" class="st1 st2 st3">o</text>
<text transform="matrix(0.9925 0 0 1 51.771 429.5303)" class="st1 st2 st3">c</text>
<text transform="matrix(0.9925 0 0 1 59.6157 429.5303)" class="st1 st2 st3">us</text>
<text transform="matrix(0.9925 0 0 1 35.5674 469.625)" class="st1 st2 st3">E</text>
<text transform="matrix(0.9925 0 0 1 44.4307 469.625)" class="st1 st2 st3">x</text>
<text transform="matrix(0.9925 0 0 1 52.7681 469.625)" class="st1 st2 st3">p</text>
<text transform="matrix(0.9925 0 0 1 61.6094 469.625)" class="st1 st2 st3">e</text>
<text transform="matrix(0.9925 0 0 1 69.5415 469.625)" class="st1 st2 st3">r</text>
<text transform="matrix(0.9925 0 0 1 76.4429 469.625)" class="st1 st2 st3">t</text>
<text transform="matrix(0.9925 0 0 1 82.2827 469.625)" class="st1 st2 st3">/</text>
<text transform="matrix(0.9925 0 0 1 88.3633 469.625)" class="st1 st2 st3">u</text>
<text transform="matrix(0.9925 0 0 1 96.9424 469.625)" class="st1 st2 st3">s</text>
<text transform="matrix(0.9925 0 0 1 104.1938 469.625)" class="st1 st2 st3">e</text>
<text transform="matrix(0.9925 0 0 1 112.104 469.625)" class="st1 st2 st3">r </text>
<text transform="matrix(0.9925 0 0 1 121.8003 469.625)" class="st1 st2 st3">r</text>
<text transform="matrix(0.9925 0 0 1 128.2856 469.625)" class="st1 st2 st3">o</text>
<text transform="matrix(0.9925 0 0 1 136.6558 469.625)" class="st1 st2 st3">l</text>
<text transform="matrix(0.9925 0 0 1 140.6001 469.625)" class="st1 st2 st3">es</text>
<text transform="matrix(0.9925 0 0 1 35.5674 523.3408)" class="st1 st2 st3">B</text>
<text transform="matrix(0.9925 0 0 1 45.209 523.3408)" class="st1 st2 st3">y </text>
<text transform="matrix(0.9925 0 0 1 56.5693 523.3408)" class="st1 st2 st3">w</text>
<text transform="matrix(0.9925 0 0 1 68.3584 523.3408)" class="st1 st2 st3">ho</text>
<text transform="matrix(0.9925 0 0 1 35.5674 569.6279)" class="st1 st2 st3">S</text>
<text transform="matrix(0.9925 0 0 1 44.6167 569.6279)" class="st1 st2 st3">p</text>
<text transform="matrix(0.9925 0 0 1 53.2939 569.6279)" class="st1 st2 st3">a</text>
<text transform="matrix(0.9925 0 0 1 61.5654 569.6279)" class="st1 st2 st3">c</text>
<text transform="matrix(0.9925 0 0 1 69.3774 569.6279)" class="st1 st2 st3">e</text>
<text transform="matrix(0.9925 0 0 1 189.6157 98.79)" class="st1 st2 st5">Science fiction</text>
<text transform="matrix(0.9925 0 0 1 511.1006 98.79)" class="st1 st2 st5">Functional serial fiction</text>
<line class="st0" x1="482.1" y1="9" x2="482.1" y2="585.4"/>
<text transform="matrix(0.9925 0 0 1 511.1006 140.4185)" class="st1 st2 st5">Ethics</text>
<text transform="matrix(0.9925 0 0 1 189.6265 140.4185)" class="st1 st2 st5">User friendliness</text>
<text transform="matrix(0.9925 0 0 1 189.6265 185.7451)" class="st1 st2 st5">Problem solving</text>
<text transform="matrix(0.9925 0 0 1 189.6265 225.6289)" class="st1 st2 st5">Beautiful, useful, intelligent</text>
<text transform="matrix(0.9925 0 0 1 189.6265 323.2363)" class="st1 st2 st5">Object centered</text>
<text transform="matrix(0.9925 0 0 1 189.6265 363.0869)" class="st1 st2 st5">Technological fixes</text>
<text transform="matrix(0.9925 0 0 1 189.6157 396.3691)" class="st1 st2 st6">Mindless development</text>
<text transform="matrix(0.9925 0 0 1 189.6157 429.1895)" class="st1 st2 st5">Stuff</text>
<text transform="matrix(0.9925 0 0 1 189.6157 469.459)" class="st1 st2 st5">Distinct expert /user roles</text>
<text transform="matrix(0.9925 0 0 1 511.1006 469.1064)" class="st1 st2 st5">User/client and expert roles break down</text>
<text transform="matrix(0.9925 0 0 1 189.6157 503.9668)" class="st1 st2 st5">Classic design professions</text>
<text transform="matrix(0.9925 0 0 1 189.6157 523.4844)" class="st1 st2 st5">(industrial design, engineering, architecture</text>
<g>
	<text transform="matrix(0.9925 0 0 1 189.6157 543.001)" class="st1 st2 st5">and art)</text>
</g>
<text transform="matrix(0.9925 0 0 1 511.1006 538.9512)" class="st1 st2 st5">All domains of knowledge and their spaces</text>
<text transform="matrix(0.9925 0 0 1 189.6157 572.6963)" class="st1 st2 st5">In the studio</text>
<text transform="matrix(0.9925 0 0 1 511.1006 429.1895)" class="st1 st2 st5">Experiences</text>
<text transform="matrix(0.9925 0 0 1 511.1006 364.1133)" class="st1 st2 st6">Design</text>
<text transform="matrix(0.9925 0 0 1 511.1006 396.3691)" class="st1 st2 st6">Design mindfulness</text>
<text transform="matrix(0.9925 0 0 1 511.1006 323.2363)" class="st1 st2 st5">Human centered and  bio centered</text>
<text transform="matrix(0.9925 0 0 1 511.1006 219.5684)" class="st1 st2 st5">Critical, activist, organic and political</text>
<text transform="matrix(0.9925 0 0 1 188.0049 268.626)" class="st1 st2 st5">Solution making expertise in the</text>
<text transform="matrix(0.9925 0 0 1 188.0049 288.1436)" class="st1 st2 st5">service of industry</text>
<text transform="matrix(0.9925 0 0 1 509.4902 278.3848)" class="st1 st2 st5">Medium in the service of society</text>
<text transform="matrix(0.9925 0 0 1 511.1006 185.7451)" class="st1 st2 st5">Problem finding and problem framing</text>
</svg>
