<?xml version="1.0" encoding="UTF-8"?>
<svg id="Layer_1" data-name="Layer 1" xmlns="http://www.w3.org/2000/svg" viewBox="0 0 1520.66 668.92">
  <defs>
    <style>
      .cls-1 {
        letter-spacing: .21em;
      }

      .cls-2 {
        letter-spacing: .21em;
      }

      .cls-3 {
        stroke-dasharray: 0 0 0 1.51;
      }

      .cls-3, .cls-4, .cls-5, .cls-6, .cls-7, .cls-8, .cls-9, .cls-10 {
        stroke: #c8463c;
        stroke-linecap: round;
        stroke-linejoin: round;
        stroke-width: .5px;
      }

      .cls-3, .cls-4, .cls-5, .cls-6, .cls-7, .cls-8, .cls-9, .cls-10, .cls-11 {
        fill: none;
      }

      .cls-12 {
        letter-spacing: .22em;
      }

      .cls-13 {
        letter-spacing: .22em;
      }

      .cls-14 {
        letter-spacing: .22em;
      }

      .cls-15 {
        letter-spacing: .22em;
      }

      .cls-16 {
        letter-spacing: .22em;
      }

      .cls-17 {
        letter-spacing: .21em;
      }

      .cls-18, .cls-19, .cls-20 {
        fill: #8c1e19;
        font-family: CrimsonText-Regular, 'Crimson Text';
      }

      .cls-18, .cls-21 {
        font-size: 14.46px;
      }

      .cls-19 {
        font-size: 16.22px;
      }

      .cls-22 {
        letter-spacing: .22em;
      }

      .cls-23 {
        letter-spacing: .22em;
      }

      .cls-24 {
        letter-spacing: .22em;
      }

      .cls-25 {
        letter-spacing: .22em;
      }

      .cls-20 {
        font-size: 16.06px;
      }

      .cls-4 {
        stroke-dasharray: 0 0 0 1.5;
      }

      .cls-26 {
        letter-spacing: .24em;
      }

      .cls-27 {
        letter-spacing: .24em;
      }

      .cls-28 {
        letter-spacing: .24em;
      }

      .cls-29 {
        letter-spacing: .24em;
      }

      .cls-30 {
        letter-spacing: .24em;
      }

      .cls-31 {
        letter-spacing: .24em;
      }

      .cls-32 {
        letter-spacing: .24em;
      }

      .cls-33 {
        letter-spacing: .24em;
      }

      .cls-34 {
        letter-spacing: .24em;
      }

      .cls-35 {
        letter-spacing: .24em;
      }

      .cls-5 {
        stroke-dasharray: 0 0 0 1.5;
      }

      .cls-6 {
        stroke-dasharray: 0 0 0 1.5;
      }

      .cls-7 {
        stroke-dasharray: 0 0 0 1.5;
      }

      .cls-36 {
        letter-spacing: .13em;
      }

      .cls-37 {
        letter-spacing: .13em;
      }

      .cls-8 {
        stroke-dasharray: 0 0 0 1.51;
      }

      .cls-38 {
        letter-spacing: 0em;
      }

      .cls-39 {
        letter-spacing: .23em;
      }

      .cls-40 {
        letter-spacing: .23em;
      }

      .cls-41 {
        letter-spacing: .24em;
      }

      .cls-42 {
        letter-spacing: .23em;
      }

      .cls-43 {
        font-size: 14.59px;
      }

      .cls-43, .cls-21 {
        fill: #c8463c;
        font-family: Larken-Black, Larken-Black;
      }

      .cls-10 {
        stroke-dasharray: 0 0 0 1.5;
      }

      .cls-11 {
        stroke: #8c1e19;
      }

      .cls-44 {
        letter-spacing: .15em;
      }

      .cls-45 {
        letter-spacing: .15em;
      }

      .cls-46 {
        letter-spacing: .15em;
      }

      .cls-47 {
        letter-spacing: .15em;
      }
    </style>
  </defs>
  <rect class="cls-11" x=".5" y=".5" width="739.01" height="665.18"/>
  <line class="cls-11" x1="23.11" y1="59.29" x2="719.93" y2="59.29"/>
  <text class="cls-21" transform="translate(23.11 36.12)"><tspan class="cls-28" x="0" y="0">LEVE</tspan><tspan x="50.9" y="0">L</tspan></text>
  <text class="cls-21" transform="translate(183.27 36.12)"><tspan class="cls-28" x="0" y="0">C</tspan><tspan class="cls-12" x="13.26" y="0">O</tspan><tspan class="cls-27" x="27.29" y="0">M</tspan><tspan class="cls-34" x="43.56" y="0">P</tspan><tspan class="cls-28" x="56.35" y="0">E</tspan><tspan class="cls-34" x="68.83" y="0">T</tspan><tspan class="cls-28" x="82" y="0">E</tspan><tspan class="cls-25" x="94.48" y="0">N</tspan><tspan class="cls-27" x="108.56" y="0">CE</tspan><tspan class="cls-38" x="134.29" y="0">S</tspan></text>
  <text class="cls-21" transform="translate(434.59 27.45)"><tspan class="cls-28" x="0" y="0">PR</tspan><tspan class="cls-1" x="26.82" y="0">A</tspan><tspan class="cls-28" x="40.29" y="0">CT</tspan><tspan class="cls-39" x="66.73" y="0">I</tspan><tspan class="cls-28" x="74.97" y="0">CES </tspan><tspan class="cls-16" x="119.88" y="0">F</tspan><tspan class="cls-41" x="131.54" y="0">O</tspan><tspan x="145.81" y="0">R </tspan></text>
  <text class="cls-21" transform="translate(434.59 44.8)"><tspan class="cls-28" x="0" y="0">CU</tspan><tspan class="cls-45" x="27.02" y="0">L</tspan><tspan class="cls-26" x="37.56" y="0">T</tspan><tspan class="cls-28" x="50.73" y="0">I</tspan><tspan class="cls-36" x="59.06" y="0">V</tspan><tspan class="cls-46" x="71.56" y="0">A</tspan><tspan class="cls-26" x="84.24" y="0">T</tspan><tspan class="cls-28" x="97.41" y="0">I</tspan><tspan class="cls-23" x="105.74" y="0">N</tspan><tspan class="cls-31" x="119.82" y="0">G C</tspan><tspan class="cls-14" x="153.78" y="0">O</tspan><tspan class="cls-26" x="167.81" y="0">M</tspan><tspan class="cls-28" x="184.06" y="0">PETE</tspan><tspan class="cls-23" x="235.01" y="0">N</tspan><tspan class="cls-28" x="249.09" y="0">CE</tspan><tspan x="274.82" y="0">S</tspan></text>
  <text class="cls-20" transform="translate(23.11 101.68)"><tspan x="0" y="0">Individual (personal </tspan></text>
  <text class="cls-20" transform="translate(23.11 120.95)"><tspan x="0" y="0">routines)</tspan></text>
  <text class="cls-20" transform="translate(23.11 418.54)"><tspan x="0" y="0">Collective/Group </tspan></text>
  <text class="cls-20" transform="translate(23.11 437.82)"><tspan x="0" y="0">(social-cultural </tspan></text>
  <text class="cls-20" transform="translate(23.11 457.09)"><tspan x="0" y="0">fabric and systems </tspan></text>
  <text class="cls-20" transform="translate(23.11 476.37)"><tspan x="0" y="0">of governance)</tspan></text>
  <text class="cls-20" transform="translate(183.27 101.68)"><tspan x="0" y="0">Quiet mind</tspan></text>
  <text class="cls-20" transform="translate(183.27 124.16)"><tspan x="0" y="0">Awareness</tspan></text>
  <text class="cls-20" transform="translate(183.27 146.65)"><tspan x="0" y="0">Attentiveness</tspan></text>
  <text class="cls-20" transform="translate(183.27 169.14)"><tspan x="0" y="0">Interaction</tspan></text>
  <text class="cls-20" transform="translate(183.27 191.63)"><tspan x="0" y="0">Sense of place</tspan></text>
  <text class="cls-20" transform="translate(183.27 214.12)"><tspan x="0" y="0">Curiosity</tspan></text>
  <text class="cls-20" transform="translate(183.27 236.61)"><tspan x="0" y="0">Appreciation</tspan></text>
  <text class="cls-20" transform="translate(183.27 259.1)"><tspan x="0" y="0">Creativity</tspan></text>
  <text class="cls-20" transform="translate(183.27 281.58)"><tspan x="0" y="0">Problem solving</tspan></text>
  <text class="cls-20" transform="translate(183.27 304.07)"><tspan x="0" y="0">Green care</tspan></text>
  <text class="cls-20" transform="translate(183.27 326.56)"><tspan x="0" y="0">Holistic perspective</tspan></text>
  <text class="cls-20" transform="translate(183.27 349.05)"><tspan x="0" y="0">Attunement</tspan></text>
  <text class="cls-20" transform="translate(434.59 101.68)"><tspan x="0" y="0">Still for extended introspection/sits in nature</tspan></text>
  <text class="cls-20" transform="translate(434.59 124.16)"><tspan x="0" y="0">Engage and expand natural survival senses </tspan></text>
  <text class="cls-20" transform="translate(434.59 146.65)"><tspan x="0" y="0">Focus on nature signs</tspan></text>
  <text class="cls-20" transform="translate(434.59 169.14)"><tspan x="0" y="0">Touch nature to foster object-subject view</tspan></text>
  <text class="cls-20" transform="translate(434.59 191.63)"><tspan x="0" y="0">Know your area: map, wander, etc.</tspan></text>
  <text class="cls-20" transform="translate(434.59 214.12)"><tspan x="0" y="0">Practice inquisitive questioning, reflections</tspan></text>
  <text class="cls-20" transform="translate(434.59 236.61)"><tspan x="0" y="0">Cultivate awe, wonder, gratitude for nature</tspan></text>
  <text class="cls-20" transform="translate(434.59 259.1)"><tspan x="0" y="0">Do art, poetry, story, music, play, etc. </tspan></text>
  <text class="cls-20" transform="translate(434.59 281.58)"><tspan x="0" y="0">Experiment and improvise for self sufficiency</tspan></text>
  <text class="cls-20" transform="translate(434.59 304.07)"><tspan x="0" y="0">Participare in nature-based therapy</tspan></text>
  <text class="cls-20" transform="translate(434.59 326.56)"><tspan x="0" y="0">See reality as interconnected, reciprocated</tspan></text>
  <text class="cls-20" transform="translate(434.59 349.05)"><tspan x="0" y="0">Awaken to/harmonize with earth’s language</tspan></text>
  <text class="cls-20" transform="translate(434.59 411.97)"><tspan x="0" y="0">Recreate a supportive community-based </tspan></text>
  <text class="cls-20" transform="translate(434.59 431.25)"><tspan x="0" y="0">cultural fabric for ecological learning, e.g. </tspan></text>
  <text class="cls-20" transform="translate(434.59 450.52)"><tspan x="0" y="0">mentorship, nature-based schools, etc.</tspan></text>
  <text class="cls-20" transform="translate(434.59 489.07)"><tspan x="0" y="0">Promote civic engagement with field-based </tspan></text>
  <text class="cls-20" transform="translate(434.59 508.35)"><tspan x="0" y="0">ecological research, with a secondary aim to </tspan></text>
  <text class="cls-20" transform="translate(434.59 527.62)"><tspan x="0" y="0">cultivate naturalist intelligence and inquiry;</tspan></text>
  <text class="cls-20" transform="translate(434.59 566.18)"><tspan x="0" y="0">Endorse selfless actions which, in showing </tspan></text>
  <text class="cls-20" transform="translate(434.59 585.45)"><tspan x="0" y="0">appreciation of ecology, and the web of life, </tspan></text>
  <text class="cls-20" transform="translate(434.59 604.73)"><tspan x="0" y="0">acknowledge that individuals have autonomy </tspan></text>
  <text class="cls-20" transform="translate(434.59 624)"><tspan x="0" y="0">in developing a sense of identity in order to </tspan></text>
  <text class="cls-20" transform="translate(434.59 643.28)"><tspan x="0" y="0">play their role or function in their “niche”;</tspan></text>
  <text class="cls-20" transform="translate(183.27 414.85)"><tspan x="0" y="0">“Invisible school” &amp; </tspan></text>
  <text class="cls-20" transform="translate(183.27 434.12)"><tspan x="0" y="0">Social networks</tspan></text>
  <text class="cls-18" transform="translate(183.27 487.79)"><tspan x="0" y="0">Citizen science/NGO </tspan></text>
  <text class="cls-18" transform="translate(183.27 506.21)"><tspan x="0" y="0">participation</tspan></text>
  <text class="cls-18" transform="translate(183.27 564.89)"><tspan x="0" y="0">Sustained service to </tspan></text>
  <text class="cls-18" transform="translate(183.27 584.31)"><tspan x="0" y="0">the community</tspan></text>
  <line class="cls-6" x1="266.45" y1="98.37" x2="426.37" y2="98.37"/>
  <line class="cls-6" x1="311.04" y1="409.37" x2="426.37" y2="409.37"/>
  <line class="cls-6" x1="311.04" y1="483.37" x2="426.37" y2="483.37"/>
  <line class="cls-6" x1="311.04" y1="560.37" x2="426.37" y2="560.37"/>
  <line class="cls-6" x1="1079.04" y1="434.37" x2="1202.37" y2="434.37"/>
  <line class="cls-6" x1="1036.04" y1="336.37" x2="1202.37" y2="336.37"/>
  <line class="cls-6" x1="1089.04" y1="259.37" x2="1202.37" y2="259.37"/>
  <line class="cls-6" x1="1067.04" y1="104.37" x2="1202.37" y2="104.37"/>
  <line class="cls-6" x1="1036.04" y1="181.37" x2="1202.37" y2="181.37"/>
  <line class="cls-6" x1="1111.04" y1="590.37" x2="1202.37" y2="590.37"/>
  <line class="cls-6" x1="1111.04" y1="530.37" x2="1202.37" y2="530.37"/>
  <path class="cls-9" d="M427.57,98.37h0m-163.53,0h0"/>
  <line class="cls-6" x1="266.45" y1="119.93" x2="426.37" y2="119.93"/>
  <path class="cls-9" d="M427.57,119.93h0m-163.53,0h0"/>
  <line class="cls-10" x1="280.16" y1="143.11" x2="426.36" y2="143.11"/>
  <path class="cls-9" d="M427.57,143.11h0m-149.82,0h0"/>
  <line class="cls-10" x1="280.16" y1="187.84" x2="426.36" y2="187.84"/>
  <path class="cls-9" d="M427.57,187.84h0m-149.82,0h0"/>
  <line class="cls-10" x1="280.16" y1="232.58" x2="426.36" y2="232.58"/>
  <path class="cls-9" d="M427.57,232.58h0m-149.82,0h0"/>
  <line class="cls-8" x1="296.56" y1="278.91" x2="426.36" y2="278.91"/>
  <path class="cls-9" d="M427.57,278.91h0m-133.43,0h0"/>
  <line class="cls-3" x1="321.14" y1="322.25" x2="426.36" y2="322.25"/>
  <path class="cls-9" d="M427.57,322.25h0m-108.84,0h0"/>
  <line class="cls-10" x1="280.16" y1="345.62" x2="426.36" y2="345.62"/>
  <path class="cls-9" d="M427.57,345.62h0m-149.82,0h0"/>
  <line class="cls-5" x1="261.48" y1="300.48" x2="426.37" y2="300.48"/>
  <path class="cls-9" d="M427.57,300.48h0m-168.49,0h0"/>
  <line class="cls-7" x1="258.31" y1="255.74" x2="426.36" y2="255.74"/>
  <path class="cls-9" d="M427.57,255.74h0m-171.68,0h0"/>
  <line class="cls-10" x1="280.16" y1="166.27" x2="426.36" y2="166.27"/>
  <path class="cls-9" d="M427.57,166.27h0m-149.82,0h0"/>
  <line class="cls-4" x1="254.2" y1="211.01" x2="426.37" y2="211.01"/>
  <path class="cls-9" d="M427.57,211.01h0m-175.78,0h0"/>
  <rect class="cls-11" x="774.1" y="3.37" width="746.07" height="665.05"/>
  <line class="cls-11" x1="796.93" y1="62.73" x2="1500.4" y2="62.73"/>
  <text class="cls-43" transform="translate(796.93 39.34)"><tspan class="cls-29" x="0" y="0">LEVE</tspan><tspan x="51.39" y="0">L</tspan></text>
  <text class="cls-43" transform="translate(958.61 39.34)"><tspan class="cls-29" x="0" y="0">C</tspan><tspan class="cls-15" x="13.38" y="0">O</tspan><tspan class="cls-30" x="27.55" y="0">M</tspan><tspan class="cls-33" x="43.97" y="0">P</tspan><tspan class="cls-29" x="56.89" y="0">E</tspan><tspan class="cls-35" x="69.49" y="0">T</tspan><tspan class="cls-32" x="82.78" y="0">E</tspan><tspan class="cls-24" x="95.38" y="0">N</tspan><tspan class="cls-32" x="109.59" y="0">CE</tspan><tspan x="135.57" y="0">S</tspan></text>
  <text class="cls-43" transform="translate(1212.33 30.58)"><tspan class="cls-32" x="0" y="0">PR</tspan><tspan class="cls-2" x="27.07" y="0">A</tspan><tspan class="cls-29" x="40.68" y="0">CT</tspan><tspan class="cls-42" x="67.37" y="0">I</tspan><tspan class="cls-29" x="75.69" y="0">CES </tspan><tspan class="cls-17" x="121.02" y="0">F</tspan><tspan class="cls-40" x="132.8" y="0">O</tspan><tspan x="147.2" y="0">R </tspan></text>
  <text class="cls-43" transform="translate(1212.33 48.1)"><tspan class="cls-29" x="0" y="0">CU</tspan><tspan class="cls-44" x="27.28" y="0">L</tspan><tspan class="cls-35" x="37.92" y="0">T</tspan><tspan class="cls-29" x="51.21" y="0">I</tspan><tspan class="cls-37" x="59.62" y="0">V</tspan><tspan class="cls-47" x="72.24" y="0">A</tspan><tspan class="cls-35" x="85.04" y="0">T</tspan><tspan class="cls-32" x="98.34" y="0">I</tspan><tspan class="cls-24" x="106.75" y="0">N</tspan><tspan class="cls-29" x="120.96" y="0">G C</tspan><tspan class="cls-13" x="155.25" y="0">O</tspan><tspan class="cls-35" x="169.42" y="0">M</tspan><tspan class="cls-32" x="185.82" y="0">PETE</tspan><tspan class="cls-22" x="237.25" y="0">N</tspan><tspan class="cls-29" x="251.47" y="0">CE</tspan><tspan x="277.45" y="0">S</tspan></text>
  <text class="cls-19" transform="translate(796.93 114.78)"><tspan x="0" y="0">Collective/Group </tspan></text>
  <text class="cls-19" transform="translate(796.93 134.24)"><tspan x="0" y="0">(social-cultural </tspan></text>
  <text class="cls-19" transform="translate(796.93 153.7)"><tspan x="0" y="0">fabric and systems </tspan></text>
  <text class="cls-19" transform="translate(796.93 173.16)"><tspan x="0" y="0">of governance)</tspan></text>
  <text class="cls-19" transform="translate(1212.33 108.13)"><tspan x="0" y="0">Formulate education programs which fuse </tspan></text>
  <text class="cls-19" transform="translate(1212.33 127.59)"><tspan x="0" y="0">human and natural histories and blend arts </tspan></text>
  <text class="cls-19" transform="translate(1212.33 147.05)"><tspan x="0" y="0">and sciences toward nature appreciation</tspan></text>
  <text class="cls-19" transform="translate(1212.33 185.97)"><tspan x="0" y="0">For issues of social and ecological impor</tspan></text>
  <text class="cls-19" transform="translate(1465.67 185.97)"><tspan x="0" y="0">-</tspan></text>
  <text class="cls-19" transform="translate(1212.33 205.43)"><tspan x="0" y="0">tance, center public dialog on a Leopoldian </tspan></text>
  <text class="cls-19" transform="translate(1212.33 224.89)"><tspan x="0" y="0">land ethic (nature in part of the community)</tspan></text>
  <text class="cls-19" transform="translate(1212.33 263.81)"><tspan x="0" y="0">Enpower reposiblesystems which place </tspan></text>
  <text class="cls-19" transform="translate(1212.33 283.27)"><tspan x="0" y="0">human rights, and community-based equity </tspan></text>
  <text class="cls-19" transform="translate(1212.33 302.73)"><tspan x="0" y="0">at their core</tspan></text>
  <text class="cls-19" transform="translate(1212.33 340.55)"><tspan x="0" y="0">Encourage place-based environmental </tspan></text>
  <text class="cls-19" transform="translate(1212.33 361.11)"><tspan x="0" y="0">decision making to be locally informed and </tspan></text>
  <text class="cls-19" transform="translate(1212.33 380.57)"><tspan x="0" y="0">monitored with in partnership with a central </tspan></text>
  <text class="cls-19" transform="translate(1212.33 400.03)"><tspan x="0" y="0">(governmental) agency</tspan></text>
  <text class="cls-19" transform="translate(1212.33 438.95)"><tspan x="0" y="0">Work towards a system of consensus deci</tspan></text>
  <text class="cls-19" transform="translate(1475.68 438.95)"><tspan x="0" y="0">-</tspan></text>
  <text class="cls-19" transform="translate(1212.33 458.41)"><tspan x="0" y="0">sion-making, (...) which has been achieved </tspan></text>
  <text class="cls-19" transform="translate(1212.33 477.87)"><tspan x="0" y="0">through dialog that has satisfactorily ensured </tspan></text>
  <text class="cls-19" transform="translate(1212.33 497.33)"><tspan x="0" y="0">all perspectives were considered</tspan></text>
  <text class="cls-19" transform="translate(1212.33 536.25)"><tspan x="0" y="0">Reinstate ecosystem resilience (as a basis for </tspan></text>
  <text class="cls-19" transform="translate(1212.33 555.71)"><tspan x="0" y="0">social resilience)</tspan></text>
  <text class="cls-19" transform="translate(1212.33 594.63)"><tspan x="0" y="0">Employ social marketing tools and tech</tspan></text>
  <text class="cls-19" transform="translate(1460.56 594.63)"><tspan x="0" y="0">-</tspan></text>
  <text class="cls-19" transform="translate(1212.33 614.09)"><tspan x="0" y="0">niques to shape prevailing social norms and </tspan></text>
  <text class="cls-19" transform="translate(1212.33 633.55)"><tspan x="0" y="0">discourses </tspan></text>
  <text class="cls-19" transform="translate(958.61 108.13)"><tspan x="0" y="0">Eco-literacy and </tspan></text>
  <text class="cls-19" transform="translate(958.61 126.49)"><tspan x="0" y="0">environmental </tspan></text>
  <text class="cls-19" transform="translate(958.61 145.95)"><tspan x="0" y="0">education/action</tspan></text>
  <text class="cls-19" transform="translate(958.61 185.97)"><tspan x="0" y="0">Land ethic</tspan></text>
  <text class="cls-19" transform="translate(958.61 263.71)"><tspan x="0" y="0">Community justice/</tspan></text>
  <text class="cls-19" transform="translate(958.61 283.17)"><tspan x="0" y="0">equality</tspan></text>
  <text class="cls-19" transform="translate(958.61 340.55)"><tspan x="0" y="0">Local focus</tspan></text>
  <text class="cls-19" transform="translate(958.61 437.85)"><tspan x="0" y="0">Consensus-based </tspan></text>
  <text class="cls-19" transform="translate(958.61 457.31)"><tspan x="0" y="0">decision-making, </tspan></text>
  <text class="cls-19" transform="translate(958.61 476.77)"><tspan x="0" y="0">environemental dialogs</tspan></text>
  <text class="cls-19" transform="translate(958.61 536.15)"><tspan x="0" y="0">Ecological restoration/</tspan></text>
  <text class="cls-19" transform="translate(958.61 555.61)"><tspan x="0" y="0">reconciliation</tspan></text>
  <text class="cls-19" transform="translate(958.61 594.63)"><tspan x="0" y="0">Collective action (with </tspan></text>
  <text class="cls-19" transform="translate(958.61 613.99)"><tspan x="0" y="0">social norms and </tspan></text>
  <text class="cls-19" transform="translate(958.61 636.45)"><tspan x="0" y="0">discourses)</tspan></text>
</svg>